<svg width="293" height="179" viewBox="0 0 293 179" fill="none" xmlns="http://www.w3.org/2000/svg">
<path d="M292.77 170.59L291.434 171.72C290.686 172.079 289.238 172.46 287.091 172.865C285.875 173.155 282.098 173.696 275.762 174.489C266.922 175.309 261.109 175.812 258.322 175.997C251.068 176.44 244.379 176.802 238.255 177.083C206.507 178.447 173.15 179.064 138.185 178.931C120.102 178.862 104.027 178.654 89.9594 178.306C82.7574 178.138 75.8891 177.939 69.3545 177.71C53.6011 177.085 44.5495 176.674 42.1995 176.477C13.0675 174.63 -0.983211 172.651 0.0474561 170.54C0.651456 169.511 3.81531 168.558 9.53897 167.683C12.4008 167.246 15.9024 166.827 20.0439 166.429C21.3149 166.205 28.9672 165.65 43.0009 164.764C55.5749 164.047 69.369 163.486 84.383 163.08C103.684 162.64 115.631 162.423 120.223 162.429C128.645 162.342 137.372 162.295 146.404 162.286C163.349 162.293 179.39 162.444 194.528 162.741C213.056 163.174 223.902 163.477 227.066 163.651C233.958 163.908 240.624 164.2 247.065 164.529C253.575 164.884 259.391 165.26 264.512 165.657C276.101 166.685 282.221 167.327 282.872 167.583C288.949 168.501 292.25 169.504 292.773 170.59" fill="black" fill-opacity="0.1451"/>
<path d="M157.64 149.49L167.703 156.192L185.989 168.389L210.625 131.614L235.246 94.8293L216.823 82.5193L198.399 70.2083L173.836 106.967C160.324 127.189 155.86 141.486 155.86 141.486L161.119 148.903L157.64 149.49ZM198.124 88.424C200.095 89.2714 201.955 89.2374 203.877 88.3022C204.577 87.9614 205.2 87.5256 205.609 87.051C205.959 86.6456 206.332 86.3208 206.435 86.3237C206.834 86.3351 217.279 93.3059 217.299 93.5817C217.308 93.7092 217.143 94.1795 216.929 94.6135C216.423 95.6394 216.249 97.6893 216.588 98.8857C216.934 100.109 217.707 101.361 218.577 102.133L219.289 102.758L203.316 126.666L187.351 150.558L186.25 150.099C185.65 149.847 184.836 149.598 184.442 149.553C182.598 149.34 180.148 150.157 179.016 151.385C178.75 151.674 178.406 152.043 178.244 152.191L177.958 152.49L172.505 148.846C166.403 144.769 166.94 145.318 167.619 143.875C168.107 142.836 168.225 141.403 167.951 140.026C167.658 138.55 166.607 136.804 165.62 136.144L165.193 135.858L181.177 111.936L197.162 88.0154L198.124 88.424Z" fill="#3B9F80"/>
<path d="M182.11 114.84C181.317 116.697 181.029 118.979 181.347 120.96C181.664 122.878 182.262 124.279 183.431 125.913C184.232 127.045 184.463 127.242 186.158 128.375C187.808 129.478 188.148 129.64 189.381 129.931C192.055 130.588 194.652 130.34 196.953 129.256C201.311 127.201 203.917 122.311 203.165 117.63C202.281 112.156 197.767 108.223 192.32 108.208C187.957 108.193 183.806 110.898 182.11 114.84Z" fill="#26785F"/>
<path d="M183.01 113.18C185.031 110.155 188.599 108.19 192.319 108.202C197.767 108.217 202.28 112.151 203.164 117.625C203.6 120.341 202.907 123.128 201.395 125.39C200.302 127.026 198.781 128.387 196.953 129.25C194.651 130.334 192.054 130.582 189.381 129.925C188.147 129.634 187.808 129.472 186.157 128.369C184.462 127.236 184.231 127.039 183.43 125.906C182.262 124.273 181.663 122.872 181.346 120.954C181.028 118.972 181.316 116.691 182.109 114.834C182.359 114.254 182.662 113.702 183.01 113.18ZM165.186 135.824L165.613 136.11C166.6 136.77 167.651 138.516 167.944 139.992C168.218 141.369 168.094 142.799 167.612 143.84C166.927 145.281 166.396 144.734 172.498 148.811L177.951 152.455L178.237 152.156C178.4 152.009 178.749 151.645 179.009 151.351C180.147 150.128 182.591 149.309 184.435 149.518C184.828 149.567 185.643 149.813 186.243 150.065L187.344 150.524L219.282 102.724L218.57 102.099C217.7 101.326 216.939 100.071 216.581 98.8514C216.254 97.6516 216.409 95.6015 216.922 94.5792C217.129 94.1417 217.291 93.675 217.292 93.5474C217.262 93.2723 206.827 86.299 206.428 86.2894C206.325 86.2846 205.942 86.6029 205.602 87.0167C205.183 87.4824 204.568 87.9242 203.87 88.2679C201.946 89.1999 200.088 89.2376 198.117 88.3896L197.155 87.9809L165.186 135.824Z" fill="#54C2A0"/>
<path d="M186.03 114.93L187.438 115.724C187.318 116.69 187.469 117.616 187.893 118.501C188.317 119.387 188.978 120.083 189.874 120.588C190.449 120.912 191.058 121.108 191.703 121.176C192.334 121.237 192.945 121.184 193.537 121.02C194.128 120.855 194.682 120.576 195.199 120.185C195.707 119.807 196.124 119.33 196.448 118.756L196.519 118.63C196.641 118.478 196.798 118.381 196.987 118.34C197.176 118.299 197.362 118.33 197.544 118.433C197.74 118.544 197.869 118.709 197.93 118.928C197.991 119.147 197.966 119.354 197.855 119.55C197.745 119.746 197.58 119.875 197.361 119.936C197.142 119.997 196.934 119.972 196.738 119.862L194.771 123.35C195.219 123.603 195.686 123.774 196.171 123.863C196.634 123.958 197.108 123.985 197.593 123.945C198.056 123.91 198.511 123.807 198.959 123.635C199.393 123.455 199.797 123.212 200.173 122.907L201.77 123.808L203.761 120.277L201.975 119.27C201.99 118.392 201.782 117.564 201.353 116.787C200.938 116.017 200.324 115.403 199.511 114.945C198.937 114.621 198.328 114.425 197.683 114.356C197.052 114.296 196.441 114.348 195.849 114.513C195.258 114.678 194.704 114.956 194.187 115.348C193.679 115.726 193.262 116.202 192.938 116.777L192.867 116.902C192.744 117.055 192.581 117.148 192.378 117.18C192.188 117.222 192.01 117.195 191.842 117.1C191.646 116.989 191.51 116.82 191.435 116.593C191.374 116.374 191.398 116.167 191.509 115.971C191.62 115.775 191.792 115.65 192.025 115.596C192.244 115.536 192.451 115.56 192.648 115.671L194.615 112.182C193.803 111.724 192.953 111.513 192.065 111.548C191.177 111.582 190.362 111.833 189.618 112.3L188.021 111.399L186.03 114.93Z" fill="#125B45"/>
<path d="M186.04 115.33L187.448 116.124C187.328 117.09 187.479 118.016 187.903 118.902C188.327 119.787 188.988 120.483 189.884 120.989C190.459 121.313 191.068 121.509 191.713 121.577C192.344 121.637 192.955 121.585 193.546 121.42C194.138 121.255 194.692 120.977 195.208 120.585C195.717 120.207 196.134 119.731 196.458 119.156L196.529 119.03C196.651 118.878 196.807 118.781 196.997 118.74C197.186 118.699 197.372 118.73 197.554 118.833C197.75 118.944 197.879 119.108 197.94 119.328C198.001 119.547 197.976 119.754 197.865 119.95C197.755 120.146 197.59 120.275 197.371 120.336C197.152 120.397 196.944 120.373 196.748 120.262L194.78 123.75C195.229 124.003 195.695 124.174 196.181 124.263C196.644 124.358 197.118 124.386 197.603 124.345C198.065 124.311 198.521 124.207 198.969 124.035C199.403 123.855 199.807 123.612 200.183 123.307L201.78 124.208L203.771 120.678L201.985 119.67C202 118.792 201.792 117.964 201.363 117.187C200.948 116.417 200.334 115.803 199.522 115.345C198.947 115.021 198.337 114.825 197.693 114.757C197.062 114.696 196.451 114.748 195.859 114.913C195.267 115.078 194.713 115.356 194.197 115.748C193.688 116.126 193.272 116.602 192.948 117.177L192.877 117.303C192.754 117.455 192.591 117.548 192.388 117.581C192.198 117.622 192.02 117.595 191.852 117.5C191.655 117.39 191.52 117.221 191.445 116.994C191.384 116.775 191.408 116.567 191.519 116.371C191.63 116.175 191.801 116.05 192.035 115.997C192.254 115.936 192.461 115.961 192.658 116.071L194.625 112.583C193.813 112.124 192.962 111.913 192.075 111.948C191.187 111.982 190.372 112.233 189.628 112.701L188.031 111.8L186.04 115.33Z" fill="#54C2A0"/>
<path d="M165.24 130.49C165.247 130.585 169.63 139.512 174.993 150.349L184.731 170.054L224.455 150.525L264.169 130.979L254.369 111.106L244.569 91.2321L204.918 110.785C183.105 121.541 165.257 130.402 165.241 130.489L165.24 130.49ZM235.222 106.869C236.505 108.589 238.133 109.485 240.265 109.64C241.042 109.692 241.795 109.616 242.391 109.423C242.892 109.234 243.383 109.15 243.47 109.206C243.811 109.414 249.361 120.671 249.25 120.924C249.185 121.034 248.811 121.357 248.413 121.632C247.457 122.261 246.298 123.959 245.982 125.161C245.682 126.397 245.713 127.864 246.08 128.968L246.384 129.865L220.597 142.583L194.825 155.293L194.102 154.346C193.708 153.828 193.125 153.206 192.809 152.967C191.316 151.865 188.79 151.352 187.193 151.842C186.821 151.967 186.337 152.107 186.122 152.153L185.725 152.27L182.825 146.388C179.579 139.805 179.765 140.544 181.078 139.638C182.017 138.978 182.839 137.802 183.29 136.473C183.774 135.048 183.737 133.01 183.213 131.945L182.986 131.484L208.789 118.759L234.592 106.035L235.221 106.87L235.222 106.869Z" fill="#3B9F80"/>
<path d="M208.14 121.75C206.524 122.961 205.134 124.794 204.418 126.668C203.734 128.488 203.552 130.001 203.747 132C203.874 133.38 203.976 133.666 204.877 135.496C205.755 137.276 205.968 137.586 206.891 138.455C208.878 140.361 211.25 141.444 213.786 141.657C218.588 142.055 223.289 139.123 224.979 134.694C226.95 129.512 225.008 123.848 220.298 121.111C216.527 118.917 211.579 119.184 208.14 121.75Z" fill="#26785F"/>
<path d="M209.74 120.77C213.003 119.16 217.075 119.243 220.291 121.113C225.001 123.85 226.943 129.514 224.972 134.696C223.991 137.267 221.998 139.333 219.557 140.536C217.793 141.407 215.795 141.825 213.78 141.659C211.244 141.446 208.872 140.363 206.884 138.458C205.962 137.588 205.749 137.278 204.871 135.498C203.969 133.669 203.868 133.383 203.741 132.002C203.545 130.003 203.728 128.491 204.412 126.671C205.128 124.796 206.518 122.963 208.134 121.752C208.639 121.375 209.178 121.047 209.74 120.77ZM182.982 131.468L183.209 131.929C183.734 132.994 183.77 135.032 183.287 136.457C182.836 137.786 182.013 138.962 181.075 139.622C179.761 140.528 179.575 139.789 182.821 146.372L185.721 152.254L186.118 152.137C186.333 152.091 186.817 151.951 187.19 151.826C188.786 151.336 191.313 151.849 192.805 152.952C193.122 153.191 193.704 153.812 194.098 154.33L194.822 155.278L246.381 129.85L246.077 128.953C245.71 127.849 245.678 126.382 245.978 125.146C246.295 123.944 247.454 122.246 248.409 121.617C248.807 121.342 249.181 121.019 249.246 120.909C249.358 120.655 243.807 109.399 243.467 109.191C243.38 109.136 242.889 109.219 242.387 109.408C241.791 109.602 241.038 109.677 240.261 109.625C238.13 109.47 236.502 108.574 235.218 106.854L234.589 106.019L182.982 131.468Z" fill="#54C2A0"/>
<path d="M212.99 121.26L213.006 122.877C212.109 123.255 211.383 123.85 210.828 124.659C210.273 125.469 210.001 126.389 210.012 127.418C210.018 128.078 210.153 128.704 210.416 129.296C210.68 129.873 211.03 130.376 211.469 130.806C211.908 131.236 212.426 131.576 213.024 131.828C213.605 132.079 214.226 132.202 214.885 132.195L215.03 132.194C215.223 132.224 215.385 132.311 215.515 132.454C215.645 132.598 215.711 132.774 215.713 132.983C215.716 133.208 215.637 133.402 215.478 133.564C215.319 133.727 215.127 133.809 214.901 133.811C214.676 133.814 214.482 133.735 214.32 133.576C214.157 133.417 214.075 133.225 214.073 132.999L210.068 133.04C210.073 133.554 210.158 134.044 210.324 134.509C210.473 134.958 210.686 135.382 210.964 135.781C211.225 136.165 211.542 136.507 211.915 136.809C212.288 137.095 212.701 137.324 213.153 137.496L213.171 139.33L217.224 139.289L217.204 137.238C217.971 136.812 218.585 136.219 219.044 135.458C219.503 134.714 219.727 133.875 219.718 132.942C219.711 132.283 219.576 131.657 219.313 131.065C219.05 130.488 218.699 129.985 218.26 129.555C217.822 129.125 217.304 128.785 216.706 128.533C216.124 128.282 215.504 128.16 214.844 128.166L214.7 128.168C214.506 128.137 214.345 128.042 214.214 127.883C214.084 127.74 214.018 127.571 214.016 127.378C214.014 127.153 214.092 126.951 214.251 126.773C214.411 126.61 214.603 126.528 214.828 126.526C215.053 126.523 215.247 126.61 215.41 126.785C215.572 126.944 215.654 127.137 215.657 127.362L219.661 127.322C219.652 126.389 219.41 125.547 218.936 124.795C218.462 124.044 217.837 123.463 217.061 123.053L217.043 121.219L212.99 121.26Z" fill="#125B45"/>
<path d="M212.65 121.47L212.666 123.086C211.769 123.465 211.043 124.06 210.489 124.87C209.934 125.68 209.661 126.599 209.672 127.628C209.678 128.288 209.813 128.914 210.077 129.506C210.34 130.083 210.691 130.586 211.129 131.016C211.568 131.446 212.086 131.786 212.684 132.037C213.265 132.289 213.886 132.412 214.545 132.405L214.69 132.404C214.883 132.434 215.045 132.521 215.175 132.664C215.305 132.807 215.371 132.984 215.374 133.193C215.376 133.418 215.297 133.612 215.138 133.774C214.979 133.937 214.787 134.019 214.561 134.021C214.336 134.023 214.143 133.945 213.98 133.786C213.818 133.627 213.735 133.434 213.733 133.209L209.728 133.25C209.733 133.764 209.819 134.254 209.984 134.719C210.133 135.167 210.347 135.591 210.624 135.991C210.885 136.375 211.203 136.717 211.575 137.019C211.948 137.305 212.361 137.534 212.813 137.706L212.831 139.539L216.884 139.499L216.864 137.448C217.632 137.023 218.245 136.429 218.704 135.669C219.163 134.924 219.388 134.085 219.378 133.152C219.372 132.493 219.237 131.867 218.974 131.275C218.71 130.698 218.359 130.195 217.921 129.765C217.482 129.335 216.964 128.995 216.366 128.743C215.785 128.492 215.164 128.37 214.505 128.377L214.36 128.378C214.167 128.347 214.005 128.252 213.875 128.093C213.744 127.949 213.678 127.781 213.676 127.588C213.674 127.363 213.753 127.161 213.912 126.983C214.071 126.82 214.263 126.738 214.488 126.735C214.713 126.733 214.907 126.82 215.07 126.995C215.232 127.155 215.315 127.347 215.317 127.572L219.322 127.531C219.312 126.598 219.071 125.756 218.597 125.005C218.123 124.254 217.498 123.673 216.722 123.263L216.703 121.429L212.65 121.47Z" fill="#54C2A0"/>
<path d="M172.25 126.49C172.216 126.579 172.313 136.523 172.472 148.613L172.745 170.592L217.007 170.131L261.268 169.652L261.01 147.495L260.753 125.339L216.546 125.852C192.226 126.134 172.302 126.419 172.249 126.49L172.25 126.49ZM245.571 135.406C245.985 137.511 247.067 139.023 248.923 140.083C249.601 140.465 250.313 140.723 250.935 140.805C251.468 140.852 251.947 140.989 252.001 141.076C252.219 141.411 252.364 153.96 252.154 154.141C252.048 154.212 251.571 154.342 251.093 154.418C249.96 154.573 248.181 155.604 247.377 156.552C246.573 157.536 245.967 158.873 245.822 160.028L245.708 160.968L216.958 161.304L188.225 161.638L187.982 160.47C187.851 159.833 187.593 159.021 187.411 158.669C186.541 157.03 184.484 155.477 182.832 155.229C182.442 155.181 181.945 155.098 181.731 155.047L181.323 154.981L181.247 148.423C181.162 141.084 181.011 141.83 182.586 141.582C183.718 141.392 184.968 140.685 185.949 139.681C187 138.605 187.847 136.751 187.834 135.564L187.828 135.05L216.597 134.715L245.365 134.381L245.571 135.406Z" fill="#3B9F80"/>
<path d="M214.71 137.09C212.73 137.485 210.684 138.537 209.229 139.919C207.826 141.266 207.009 142.551 206.322 144.438C205.84 145.739 205.808 146.041 205.832 148.079C205.855 150.064 205.913 150.436 206.37 151.618C207.339 154.195 209.011 156.197 211.207 157.483C215.366 159.916 220.872 159.302 224.307 156.037C228.323 152.214 229.018 146.267 225.951 141.765C223.497 138.157 218.92 136.26 214.71 137.09Z" fill="#26785F"/>
<path d="M216.58 136.89C220.218 136.847 223.855 138.68 225.949 141.757C229.015 146.259 228.321 152.207 224.305 156.029C222.311 157.924 219.62 158.927 216.9 158.958C214.932 158.981 212.949 158.496 211.204 157.475C209.009 156.189 207.336 154.187 206.367 151.61C205.91 150.428 205.852 150.056 205.829 148.071C205.806 146.033 205.837 145.731 206.319 144.43C207.006 142.543 207.824 141.258 209.227 139.911C210.682 138.529 212.727 137.477 214.707 137.082C215.326 136.96 215.954 136.898 216.58 136.89ZM187.825 134.984L187.831 135.498C187.844 136.686 186.998 138.539 185.946 139.615C184.965 140.62 183.715 141.326 182.583 141.516C181.008 141.765 181.159 141.018 181.244 148.357L181.32 154.916L181.729 154.982C181.943 155.033 182.439 155.115 182.829 155.164C184.481 155.411 186.538 156.964 187.408 158.604C187.59 158.956 187.848 159.768 187.979 160.405L188.222 161.572L245.706 160.902L245.82 159.962C245.966 158.808 246.571 157.47 247.375 156.486C248.179 155.538 249.958 154.507 251.092 154.352C251.569 154.276 252.046 154.146 252.152 154.075C252.362 153.895 252.217 141.345 251.999 141.01C251.945 140.923 251.466 140.786 250.933 140.74C250.311 140.657 249.599 140.4 248.921 140.018C247.065 138.957 245.983 137.446 245.569 135.34L245.362 134.315L187.825 134.984Z" fill="#54C2A0"/>
<path d="M215.33 139.09L215.346 140.706C214.449 141.085 213.723 141.679 213.168 142.489C212.614 143.299 212.341 144.219 212.352 145.248C212.358 145.908 212.493 146.534 212.757 147.126C213.02 147.702 213.371 148.206 213.809 148.635C214.248 149.065 214.766 149.406 215.364 149.657C215.946 149.909 216.566 150.032 217.225 150.025L217.37 150.024C217.564 150.054 217.725 150.141 217.856 150.284C217.986 150.428 218.052 150.604 218.054 150.813C218.056 151.038 217.978 151.232 217.818 151.394C217.659 151.557 217.467 151.639 217.242 151.641C217.017 151.644 216.823 151.565 216.66 151.406C216.498 151.246 216.415 151.054 216.413 150.829L212.408 150.87C212.413 151.384 212.499 151.874 212.664 152.339C212.814 152.788 213.027 153.212 213.304 153.611C213.566 153.994 213.883 154.337 214.256 154.638C214.629 154.925 215.041 155.154 215.493 155.326L215.512 157.16L219.565 157.119L219.544 155.068C220.312 154.642 220.925 154.049 221.384 153.289C221.843 152.544 222.068 151.705 222.058 150.773C222.052 150.113 221.917 149.487 221.654 148.894C221.39 148.318 221.04 147.815 220.601 147.385C220.162 146.955 219.644 146.614 219.046 146.363C218.465 146.112 217.844 145.989 217.185 145.996L217.04 145.998C216.847 145.967 216.685 145.872 216.555 145.713C216.425 145.569 216.359 145.401 216.357 145.208C216.354 144.983 216.433 144.781 216.592 144.602C216.751 144.44 216.943 144.357 217.168 144.355C217.394 144.353 217.588 144.44 217.75 144.615C217.913 144.774 217.995 144.966 217.997 145.192L222.002 145.151C221.992 144.218 221.751 143.376 221.277 142.625C220.803 141.874 220.177 141.293 219.401 140.883L219.383 139.049L215.33 139.09Z" fill="#125B45"/>
<path d="M215 139.29L215.016 140.906C214.119 141.285 213.393 141.88 212.838 142.69C212.284 143.499 212.011 144.419 212.022 145.448C212.028 146.108 212.163 146.734 212.426 147.326C212.69 147.903 213.041 148.406 213.479 148.836C213.918 149.265 214.436 149.606 215.034 149.857C215.615 150.109 216.236 150.232 216.895 150.225L217.04 150.224C217.233 150.254 217.395 150.341 217.525 150.484C217.655 150.628 217.722 150.804 217.724 151.013C217.726 151.238 217.647 151.432 217.488 151.594C217.329 151.757 217.137 151.839 216.911 151.842C216.686 151.844 216.492 151.765 216.33 151.606C216.168 151.447 216.085 151.254 216.083 151.029L212.078 151.069C212.083 151.584 212.169 152.074 212.334 152.538C212.483 152.988 212.697 153.412 212.974 153.811C213.236 154.194 213.553 154.537 213.926 154.839C214.299 155.125 214.711 155.354 215.163 155.526L215.182 157.36L219.235 157.32L219.214 155.269C219.982 154.843 220.595 154.249 221.054 153.489C221.513 152.744 221.738 151.906 221.728 150.973C221.722 150.313 221.587 149.687 221.323 149.095C221.06 148.518 220.709 148.015 220.271 147.585C219.832 147.155 219.314 146.815 218.716 146.563C218.135 146.312 217.514 146.189 216.855 146.196L216.71 146.198C216.517 146.167 216.355 146.072 216.225 145.913C216.095 145.77 216.029 145.601 216.027 145.408C216.024 145.183 216.103 144.981 216.262 144.803C216.421 144.64 216.613 144.558 216.838 144.556C217.064 144.553 217.258 144.64 217.42 144.815C217.583 144.974 217.665 145.166 217.667 145.392L221.672 145.351C221.662 144.418 221.421 143.576 220.947 142.825C220.473 142.074 219.848 141.493 219.072 141.083L219.053 139.249L215 139.29Z" fill="#54C2A0"/>
<path d="M147.42 10.6C146.065 11.8321 145.634 12.2171 144.649 13.0487C143.325 14.1577 140.923 16.2831 140.723 16.4987C140.646 16.591 139.953 17.1917 139.183 17.8234C138.429 18.4549 137.69 19.071 137.551 19.2095C137.428 19.3327 136.874 19.8254 136.319 20.3029C135.78 20.7802 134.195 22.1665 132.809 23.3833C131.423 24.6001 129.961 25.8627 129.576 26.2015C128.652 26.9718 127.159 28.2806 126.635 28.7581C125.804 29.5437 125.003 30.2368 124.094 30.976C123.587 31.4074 122.54 32.3007 121.77 32.9785C121.015 33.6713 119.707 34.8112 118.86 35.5352C117.305 36.8751 116.15 37.9067 115.704 38.3073C115.58 38.4305 115.011 38.9236 114.472 39.3855C110.576 42.6969 109.36 43.9288 109.668 44.2213C109.714 44.2675 114.349 44.3132 119.97 44.312L130.179 44.3102L130.349 44.6796C130.487 44.9568 130.441 45.311 130.21 46.2504C130.041 46.9281 129.856 47.8364 129.81 48.2986C129.749 48.7605 129.626 49.2684 129.549 49.4227C129.456 49.5764 129.302 50.2079 129.179 50.8241C129.056 51.4399 128.795 52.5177 128.579 53.2416C128.364 53.9654 128.118 54.8588 128.01 55.2436C127.917 55.6286 127.702 56.2601 127.548 56.6604C127.379 57.0607 127.256 57.4918 127.256 57.6305C127.256 57.7692 127.148 58.1079 127.04 58.3696C126.809 58.8777 126.348 60.1714 125.932 61.434C125.809 61.8344 125.639 62.2039 125.562 62.2502C125.47 62.2961 125.409 62.4505 125.409 62.5889C125.409 62.82 125.162 63.4051 124.331 65.1761C124.162 65.5151 123.715 66.4854 123.33 67.3322C122.946 68.1792 122.561 68.9799 122.468 69.1032C122.392 69.2263 122.253 69.5036 122.176 69.7191C122.084 69.9348 121.96 70.2119 121.883 70.3351C121.791 70.4584 121.483 71.0436 121.175 71.6442C120.852 72.2295 120.437 72.9994 120.236 73.3383C120.036 73.6769 119.744 74.2008 119.559 74.4932C119.082 75.3246 118.759 75.8484 117.311 78.1125C117.157 78.3589 116.957 78.6823 116.865 78.8362C116.603 79.2674 115.11 81.439 114.771 81.8701C112.385 84.9658 111.708 85.8433 111.523 86.0436C111.415 86.1818 110.507 87.214 109.521 88.3539C107.428 90.7717 103.733 94.4523 101.331 96.5317C100.407 97.3326 99.4677 98.1489 99.252 98.3491C99.0364 98.5493 98.6825 98.8267 98.4667 98.9498C98.2514 99.0886 97.6355 99.5662 97.0812 99.9974C95.5261 101.245 92.4775 103.339 90.1834 104.772C89.6444 105.095 88.7822 105.649 88.2588 105.973C87.7351 106.312 86.7805 106.867 86.1492 107.19C85.518 107.529 84.5633 108.022 84.0397 108.299C83.5162 108.576 82.962 108.838 82.808 108.885C82.6541 108.946 82.4231 109.054 82.3001 109.131C81.4224 109.701 74.8937 112.366 73.7543 112.628C73.5079 112.69 73.2307 112.782 73.1384 112.844C73.0613 112.921 72.5994 113.075 72.1376 113.198C71.6756 113.337 71.0134 113.552 70.6746 113.676C70.3358 113.799 69.9047 113.907 69.7045 113.922C69.5198 113.922 69.104 114.03 68.7806 114.169C68.4727 114.292 67.9031 114.461 67.518 114.538C67.133 114.6 66.3785 114.77 65.8242 114.908C63.807 115.401 62.0362 115.756 61.1278 115.848C60.6194 115.91 59.7882 116.049 59.28 116.157C58.7719 116.265 57.694 116.403 56.8932 116.465C56.0925 116.511 54.5682 116.666 53.5056 116.774C51.2729 117.036 44.9442 117.083 43.1116 116.852C42.434 116.776 40.7094 116.591 39.2618 116.468C37.8297 116.345 36.3976 116.176 36.105 116.083C34.6268 115.653 33.5182 116.222 33.3798 117.516C33.2106 118.932 33.6571 119.194 38.8006 120.718C39.4012 120.887 40.2944 121.165 40.8027 121.334C41.3108 121.488 41.8344 121.626 41.9576 121.626C42.0807 121.626 42.6351 121.765 43.1895 121.918C44.4213 122.288 45.9921 122.673 47.4242 122.934C48.0248 123.042 49.0874 123.257 49.811 123.396C50.5349 123.534 51.6436 123.734 52.275 123.857C52.9064 123.98 54.1537 124.165 55.0468 124.242C55.9399 124.334 56.9562 124.472 57.3104 124.549C58.0034 124.718 60.6058 124.903 66.2264 125.195C69.3061 125.348 70.4762 125.332 75.0037 125.101C77.8678 124.946 81.1322 124.699 82.2257 124.545C83.3342 124.376 84.7201 124.206 85.3053 124.159C85.9058 124.098 86.7681 123.975 87.2301 123.851C87.6921 123.743 88.4773 123.605 88.9855 123.543C89.4782 123.481 90.1404 123.343 90.4484 123.235C90.7564 123.127 91.4646 122.988 92.0036 122.927C92.5579 122.865 93.2201 122.726 93.4972 122.619C93.7744 122.495 94.3286 122.357 94.7291 122.31C95.1295 122.248 95.8685 122.079 96.3613 121.91C96.8387 121.756 97.3623 121.617 97.5163 121.617C97.6549 121.617 98.2246 121.478 98.7789 121.293C100.658 120.692 101.628 120.4 102.166 120.307C102.459 120.246 102.782 120.138 102.859 120.076C102.952 119.999 103.321 119.876 103.706 119.768C104.091 119.675 104.769 119.46 105.2 119.29C105.646 119.121 106.416 118.844 106.894 118.659C108.556 118.058 111.867 116.733 113.407 116.04C114.562 115.516 117.934 113.914 118.257 113.729C118.426 113.622 119.088 113.283 119.72 112.959C120.351 112.636 120.982 112.297 121.105 112.22C121.229 112.143 122.045 111.68 122.922 111.188C123.8 110.695 124.708 110.171 124.924 110.032C125.155 109.878 125.54 109.647 125.786 109.509C126.033 109.37 126.587 109.016 127.003 108.723C127.403 108.431 127.865 108.153 128.003 108.092C128.157 108.03 128.588 107.753 128.958 107.475C129.697 106.936 130.682 106.243 132.037 105.335C132.499 105.027 132.992 104.673 133.115 104.565C133.238 104.457 133.793 104.01 134.347 103.594C134.901 103.179 135.425 102.763 135.532 102.67C135.625 102.593 136.502 101.885 137.457 101.084C139.828 99.1276 140.613 98.4193 143.816 95.2006C147.249 91.7663 147.849 91.1194 150.051 88.3931C152.714 85.1284 153.299 84.3119 155.917 80.4003C157.41 78.1517 157.548 77.921 158.749 75.7957C159.226 74.9482 159.673 74.1478 159.75 74.0245C159.965 73.6704 162.675 68.1728 162.967 67.4794C163.121 67.1407 163.383 66.5555 163.567 66.1707C163.737 65.7854 163.937 65.3081 163.983 65.0925C164.045 64.877 164.168 64.6153 164.26 64.5074C164.414 64.3226 164.614 63.8145 165.214 62.0897C165.337 61.7509 165.645 60.8884 165.907 60.1647C166.168 59.441 166.476 58.5015 166.584 58.0858C166.707 57.6547 166.877 57.1003 166.969 56.8539C167.323 55.8531 168.108 52.9115 168.4 51.5409C168.477 51.1564 168.646 50.494 168.754 50.0781C168.877 49.6472 169.047 48.8155 169.123 48.2148C169.216 47.6143 169.385 46.7056 169.523 46.213C169.646 45.7202 169.754 45.1658 169.754 44.9963C169.754 44.3034 169.662 44.3034 178.808 44.3019C186.662 44.3008 187.493 44.2699 187.401 44.0542C187.355 43.9156 187.308 43.7615 187.308 43.6847C187.308 43.5769 184.613 41.1443 182.534 39.3739C181.995 38.9119 181.425 38.4193 181.302 38.2963C180.856 37.8958 179.7 36.8644 178.145 35.5249C177.298 34.8013 175.989 33.662 175.234 32.969C174.464 32.2917 173.417 31.3988 172.908 30.9675C172 30.2285 171.199 29.5359 170.367 28.7505C169.828 28.2578 168.334 26.9493 167.425 26.1952C167.025 25.8559 165.885 24.8708 164.869 23.9778C163.868 23.085 162.605 21.9767 162.066 21.5144C161.065 20.6525 160.68 20.2984 159.741 19.4516C159.448 19.1899 158.585 18.451 157.815 17.8197C157.061 17.1881 156.398 16.6188 156.352 16.5725C156.198 16.4032 153.318 13.8631 152.348 13.0471C151.362 12.2158 150.931 11.8464 149.576 10.5992C149.144 10.2143 148.729 9.96812 148.498 9.96826C148.267 9.96826 147.851 10.2149 147.42 10.6Z" fill="#105004"/>
<path d="M173.69 49.95C173.644 50.1961 173.567 50.6582 173.521 50.9973C173.459 51.3359 173.321 51.9209 173.213 52.3059C172.998 52.968 172.736 54.0616 172.305 55.8634C172.198 56.3407 172.059 56.818 171.982 56.9104C171.921 57.0181 171.736 57.5728 171.582 58.1425C171.059 60.1135 170.828 60.8526 170.674 61.1607C170.52 61.4995 169.997 62.9777 169.735 63.8556C169.643 64.1482 169.473 64.5025 169.35 64.6411C169.227 64.7642 169.135 64.9643 169.135 65.0876C169.135 65.2726 168.642 66.5042 168.042 67.7978C167.888 68.1521 167.749 68.4753 167.749 68.5216C167.749 68.7682 164.748 74.8816 163.886 76.4063C163.639 76.822 163.332 77.3768 163.208 77.6383C163.085 77.8847 162.808 78.3776 162.608 78.7163C162.392 79.0552 162.085 79.5786 161.915 79.8712C161.746 80.1642 161.361 80.7952 161.069 81.2575C160.33 82.3973 160.345 82.3661 159.252 83.9986C158.713 84.784 158.205 85.5539 158.128 85.7077C158.036 85.8467 157.867 86.0931 157.743 86.2317C157.62 86.3704 157.343 86.7245 157.128 87.0324C156.912 87.3404 156.342 88.1258 155.834 88.7572C155.342 89.4041 154.772 90.1746 154.572 90.4673L154.203 91.006L154.209 131.212C154.215 162.287 154.263 171.48 154.401 171.619C154.54 171.757 156.973 171.803 164.395 171.802C173.111 171.8 174.235 171.769 174.45 171.554C174.666 171.338 174.695 165.594 174.686 110.821C174.679 72.37 174.614 50.165 174.522 49.919C174.321 49.38 173.798 49.3955 173.69 49.95Z" fill="#105004"/>
<path d="M143.26 102.45C143.152 102.589 142.429 103.236 141.659 103.867C140.904 104.514 140.104 105.191 139.919 105.392C139.719 105.577 139.241 105.962 138.872 106.239C138.487 106.516 137.594 107.194 136.886 107.748C136.177 108.303 135.408 108.888 135.177 109.058C133.899 109.997 128.695 113.524 128.002 113.909C127.771 114.032 127.062 114.448 126.416 114.833C125.769 115.218 124.999 115.65 124.707 115.788C124.43 115.942 124.152 116.22 124.106 116.404C124.06 116.605 124.047 129.124 124.065 144.245L124.116 171.732L133.817 171.777C139.16 171.792 143.672 171.776 143.872 171.729L144.21 171.652L144.174 136.959L144.122 102.281L143.798 102.235C143.629 102.204 143.383 102.311 143.26 102.45Z" fill="#105004"/>
<path d="M112.88 121.57C112.726 121.616 112.372 121.786 112.11 121.94C111.848 122.094 111.51 122.232 111.356 122.232C111.186 122.232 110.878 122.34 110.663 122.463C110.262 122.679 109.57 122.956 108.168 123.418C107.783 123.542 107.275 123.742 107.014 123.85C106.475 124.096 105.32 124.481 104.242 124.774C103.826 124.898 103.133 125.098 102.702 125.237C101.932 125.483 100.885 125.791 98.8527 126.361C98.2675 126.531 97.4668 126.731 97.0818 126.778C96.6969 126.839 96.2657 126.962 96.1118 127.039C95.9577 127.116 95.4343 127.239 94.9568 127.317C94.4488 127.409 94.0022 127.579 93.8944 127.732C93.5865 128.133 93.6093 171.403 93.9173 171.649C94.056 171.773 96.8277 171.804 103.957 171.787L113.797 171.739L113.793 146.639C113.789 121.647 113.789 121.539 113.481 121.508C113.311 121.508 113.034 121.524 112.88 121.57Z" fill="#105004"/>
<path d="M33.44 124.35C33.3784 124.396 33.334 135.068 33.3363 148.049L33.3403 171.671L33.6944 171.748C33.8793 171.794 38.4063 171.809 43.7344 171.793L53.4356 171.745L53.4629 150.494C53.4916 138.807 53.4438 129.152 53.3667 129.044C53.2897 128.905 52.7201 128.767 51.95 128.69C51.2417 128.613 50.3177 128.444 49.8865 128.336C49.4708 128.213 48.6699 128.075 48.1156 128.013C47.5612 127.952 46.9453 127.829 46.7297 127.752C46.5141 127.674 45.8673 127.505 45.2669 127.397C43.4496 127.059 39.2148 125.935 37.0281 125.227C36.6432 125.089 35.9963 124.904 35.5651 124.796C35.1493 124.689 34.6412 124.519 34.4563 124.427C34.0867 124.227 33.5941 124.181 33.44 124.35Z" fill="#105004"/>
<path d="M81.1501 129.59C79.2871 129.914 72.0804 130.177 67.8151 130.085C65.7208 130.039 63.9501 130.055 63.8422 130.116C63.719 130.194 63.6891 135.614 63.7073 151.012L63.757 171.785L73.5968 171.83C80.7264 171.844 83.4981 171.812 83.6368 171.689C83.9292 171.443 83.9529 129.835 83.6603 129.543C83.4292 129.312 82.7516 129.328 81.1501 129.59Z" fill="#105004"/>
</svg>
