<svg width="500" height="400" viewBox="0 0 500 400" fill="none" xmlns="http://www.w3.org/2000/svg">
<rect width="500" height="400" rx="20" fill="white"/>
<rect x="21" y="37" width="180" height="176" rx="19.2" fill="#105004" fill-opacity="0.2"/>
<path d="M144.571 85.3861C144.193 84.7302 143.671 84.168 143.046 83.7414C142.42 83.3147 141.706 83.0345 140.957 82.9215C138.891 82.9215 136.658 84.5545 134.269 86.3134C133.678 86.7502 133.078 87.1837 132.47 87.6138C129.738 89.5138 126.603 91.2426 123.922 91.7869C119.739 92.6437 114.936 91.4391 111.085 89.7205C106.701 87.6994 104.165 92.3514 102.205 95.9499C101.837 96.6202 101.489 97.2603 101.156 97.8097C99.6949 100.194 97.8553 103.036 95.7637 105.904C94.9291 105.827 94.0885 105.96 93.318 106.29C92.5475 106.619 91.8714 107.136 91.351 107.793C90.8306 108.45 90.4823 109.227 90.3375 110.052C90.1928 110.878 90.2562 111.727 90.5221 112.521C88.9698 114.427 87.4964 116.253 86.102 118C85.135 117.727 84.1084 117.749 83.1542 118.064C82.1999 118.379 81.3616 118.972 80.7467 119.766C80.1318 120.561 79.7685 121.521 79.7035 122.524C79.6384 123.527 79.8746 124.526 80.3816 125.394C74.9787 132.616 71.2592 138.488 69.1122 143.714C67.2978 148.149 66.5216 152.297 66.8593 156.526C67.197 160.694 68.583 164.575 70.5234 168.501C73.1543 173.818 79.6055 175.274 84.3279 172.548L158.527 129.708C160.842 128.371 162.531 126.169 163.223 123.587C163.915 121.005 163.553 118.254 162.216 115.939L159.696 111.574L129.144 129.214C127.987 129.872 126.616 130.045 125.332 129.697C124.048 129.348 122.953 128.505 122.288 127.353C121.622 126.2 121.44 124.831 121.78 123.544C122.12 122.258 122.955 121.158 124.104 120.485L154.656 102.845L144.571 85.3861Z" fill="#105004"/>
<rect x="239.4" y="59.5" width="240" height="10" rx="5" fill="#B3B3B3"/>
<rect x="239.4" y="89.5" width="139.2" height="10" rx="5" fill="#B3B3B3"/>
<rect x="239.4" y="119.5" width="240" height="10" rx="5" fill="#B3B3B3"/>
<rect x="239.4" y="157.5" width="233" height="33" rx="3.6" fill="#D7FFE0"/>
<path d="M257.269 172.883H255.091C255.051 172.601 254.97 172.351 254.847 172.132C254.725 171.91 254.567 171.721 254.375 171.565C254.183 171.41 253.961 171.29 253.709 171.207C253.46 171.125 253.19 171.083 252.899 171.083C252.372 171.083 251.913 171.214 251.521 171.476C251.13 171.734 250.827 172.112 250.612 172.609C250.396 173.103 250.288 173.703 250.288 174.409C250.288 175.135 250.396 175.745 250.612 176.239C250.83 176.732 251.135 177.105 251.526 177.357C251.918 177.609 252.37 177.735 252.884 177.735C253.172 177.735 253.439 177.697 253.684 177.621C253.933 177.545 254.153 177.433 254.345 177.288C254.538 177.138 254.697 176.958 254.823 176.746C254.952 176.534 255.041 176.292 255.091 176.02L257.269 176.03C257.212 176.497 257.071 176.948 256.846 177.382C256.624 177.813 256.324 178.199 255.946 178.54C255.572 178.879 255.124 179.147 254.604 179.346C254.087 179.541 253.502 179.639 252.849 179.639C251.941 179.639 251.129 179.434 250.413 179.023C249.7 178.612 249.137 178.017 248.722 177.238C248.311 176.459 248.106 175.516 248.106 174.409C248.106 173.299 248.315 172.354 248.732 171.575C249.15 170.796 249.717 170.203 250.433 169.795C251.149 169.384 251.954 169.179 252.849 169.179C253.439 169.179 253.986 169.262 254.489 169.428C254.997 169.593 255.446 169.835 255.837 170.153C256.228 170.468 256.546 170.854 256.791 171.312C257.04 171.769 257.199 172.293 257.269 172.883ZM260.95 179.644C260.463 179.644 260.029 179.56 259.648 179.391C259.266 179.218 258.965 178.965 258.743 178.63C258.524 178.292 258.415 177.871 258.415 177.367C258.415 176.943 258.492 176.587 258.648 176.298C258.804 176.01 259.016 175.778 259.285 175.602C259.553 175.427 259.858 175.294 260.199 175.205C260.544 175.115 260.905 175.052 261.283 175.016C261.727 174.969 262.085 174.926 262.357 174.886C262.629 174.843 262.826 174.78 262.949 174.697C263.071 174.615 263.133 174.492 263.133 174.33V174.3C263.133 173.985 263.033 173.741 262.834 173.569C262.639 173.397 262.36 173.31 261.999 173.31C261.618 173.31 261.315 173.395 261.089 173.564C260.864 173.73 260.715 173.938 260.642 174.19L258.683 174.031C258.782 173.567 258.978 173.166 259.27 172.828C259.561 172.487 259.938 172.225 260.398 172.043C260.862 171.857 261.399 171.764 262.009 171.764C262.433 171.764 262.839 171.814 263.227 171.913C263.618 172.013 263.965 172.167 264.266 172.376C264.571 172.585 264.811 172.853 264.987 173.181C265.163 173.506 265.25 173.895 265.25 174.349V179.5H263.242V178.441H263.182C263.06 178.68 262.896 178.89 262.69 179.072C262.485 179.251 262.238 179.392 261.949 179.495C261.661 179.594 261.328 179.644 260.95 179.644ZM261.557 178.183C261.868 178.183 262.143 178.121 262.382 177.999C262.621 177.873 262.808 177.704 262.944 177.491C263.08 177.279 263.148 177.039 263.148 176.771V175.96C263.081 176.003 262.99 176.043 262.874 176.08C262.761 176.113 262.634 176.144 262.491 176.174C262.349 176.201 262.206 176.225 262.064 176.249C261.921 176.268 261.792 176.287 261.676 176.303C261.427 176.34 261.21 176.398 261.025 176.477C260.839 176.557 260.695 176.665 260.592 176.8C260.489 176.933 260.438 177.099 260.438 177.298C260.438 177.586 260.542 177.806 260.751 177.959C260.963 178.108 261.232 178.183 261.557 178.183ZM273.247 174.041L271.308 174.161C271.275 173.995 271.204 173.846 271.095 173.713C270.985 173.577 270.841 173.469 270.662 173.39C270.486 173.307 270.276 173.266 270.031 173.266C269.703 173.266 269.426 173.335 269.2 173.474C268.975 173.61 268.862 173.793 268.862 174.021C268.862 174.204 268.935 174.358 269.081 174.484C269.227 174.61 269.477 174.711 269.832 174.787L271.214 175.065C271.956 175.218 272.51 175.463 272.874 175.801C273.239 176.139 273.421 176.583 273.421 177.134C273.421 177.634 273.274 178.073 272.979 178.451C272.687 178.829 272.286 179.124 271.776 179.336C271.269 179.545 270.684 179.649 270.021 179.649C269.01 179.649 268.204 179.439 267.605 179.018C267.008 178.594 266.658 178.017 266.556 177.288L268.639 177.178C268.702 177.487 268.854 177.722 269.096 177.884C269.338 178.043 269.648 178.123 270.026 178.123C270.397 178.123 270.695 178.052 270.921 177.909C271.149 177.763 271.265 177.576 271.269 177.347C271.265 177.155 271.184 176.998 271.025 176.875C270.866 176.749 270.621 176.653 270.289 176.587L268.967 176.323C268.221 176.174 267.666 175.915 267.301 175.548C266.94 175.18 266.759 174.711 266.759 174.141C266.759 173.65 266.892 173.228 267.157 172.873C267.426 172.518 267.802 172.245 268.286 172.053C268.773 171.86 269.343 171.764 269.996 171.764C270.96 171.764 271.719 171.968 272.273 172.376C272.83 172.783 273.154 173.339 273.247 174.041ZM276.873 175.085V179.5H274.755V169.318H276.813V173.211H276.903C277.075 172.76 277.353 172.407 277.738 172.152C278.122 171.893 278.605 171.764 279.185 171.764C279.715 171.764 280.177 171.88 280.572 172.112C280.969 172.341 281.278 172.671 281.496 173.102C281.718 173.529 281.828 174.041 281.825 174.638V179.5H279.707V175.016C279.71 174.545 279.591 174.179 279.349 173.917C279.11 173.655 278.775 173.524 278.344 173.524C278.056 173.524 277.801 173.585 277.579 173.708C277.36 173.831 277.188 174.01 277.062 174.245C276.939 174.477 276.876 174.757 276.873 175.085ZM290.182 179.649C289.41 179.649 288.742 179.485 288.178 179.157C287.618 178.826 287.186 178.365 286.881 177.775C286.576 177.182 286.423 176.494 286.423 175.712C286.423 174.923 286.576 174.233 286.881 173.643C287.186 173.05 287.618 172.589 288.178 172.261C288.742 171.93 289.41 171.764 290.182 171.764C290.954 171.764 291.62 171.93 292.18 172.261C292.744 172.589 293.178 173.05 293.483 173.643C293.788 174.233 293.94 174.923 293.94 175.712C293.94 176.494 293.788 177.182 293.483 177.775C293.178 178.365 292.744 178.826 292.18 179.157C291.62 179.485 290.954 179.649 290.182 179.649ZM290.192 178.009C290.543 178.009 290.836 177.909 291.072 177.71C291.307 177.508 291.484 177.233 291.604 176.885C291.726 176.537 291.788 176.141 291.788 175.697C291.788 175.253 291.726 174.857 291.604 174.509C291.484 174.161 291.307 173.885 291.072 173.683C290.836 173.481 290.543 173.38 290.192 173.38C289.837 173.38 289.539 173.481 289.297 173.683C289.058 173.885 288.878 174.161 288.755 174.509C288.636 174.857 288.576 175.253 288.576 175.697C288.576 176.141 288.636 176.537 288.755 176.885C288.878 177.233 289.058 177.508 289.297 177.71C289.539 177.909 289.837 178.009 290.192 178.009ZM297.435 175.085V179.5H295.317V171.864H297.336V173.211H297.425C297.594 172.767 297.878 172.415 298.276 172.157C298.673 171.895 299.155 171.764 299.722 171.764C300.253 171.764 300.715 171.88 301.109 172.112C301.504 172.344 301.81 172.676 302.029 173.107C302.248 173.534 302.357 174.045 302.357 174.638V179.5H300.239V175.016C300.243 174.548 300.123 174.184 299.881 173.922C299.639 173.657 299.306 173.524 298.882 173.524C298.597 173.524 298.345 173.585 298.126 173.708C297.911 173.831 297.742 174.01 297.619 174.245C297.5 174.477 297.439 174.757 297.435 175.085ZM310.916 179.5H307.306V169.318H310.946C311.97 169.318 312.851 169.522 313.591 169.93C314.33 170.334 314.898 170.916 315.296 171.675C315.697 172.434 315.897 173.342 315.897 174.399C315.897 175.46 315.697 176.371 315.296 177.134C314.898 177.896 314.326 178.481 313.581 178.888C312.838 179.296 311.95 179.5 310.916 179.5ZM309.459 177.656H310.826C311.463 177.656 311.998 177.543 312.432 177.317C312.87 177.089 313.198 176.736 313.417 176.259C313.639 175.778 313.75 175.158 313.75 174.399C313.75 173.647 313.639 173.032 313.417 172.555C313.198 172.077 312.871 171.726 312.437 171.501C312.003 171.275 311.468 171.163 310.831 171.163H309.459V177.656ZM320.932 179.649C320.147 179.649 319.471 179.49 318.904 179.172C318.34 178.85 317.906 178.396 317.601 177.81C317.296 177.22 317.144 176.522 317.144 175.717C317.144 174.931 317.296 174.242 317.601 173.648C317.906 173.055 318.335 172.593 318.889 172.261C319.446 171.93 320.099 171.764 320.848 171.764C321.352 171.764 321.821 171.845 322.255 172.008C322.692 172.167 323.073 172.407 323.398 172.729C323.726 173.05 323.982 173.455 324.164 173.942C324.346 174.426 324.437 174.992 324.437 175.642V176.224H317.989V174.911H322.444C322.444 174.606 322.377 174.336 322.245 174.101C322.112 173.866 321.928 173.682 321.693 173.549C321.461 173.413 321.191 173.345 320.883 173.345C320.561 173.345 320.276 173.42 320.027 173.569C319.782 173.715 319.59 173.912 319.451 174.161C319.312 174.406 319.24 174.679 319.237 174.981V176.229C319.237 176.607 319.307 176.933 319.446 177.208C319.588 177.483 319.789 177.695 320.047 177.844C320.306 177.994 320.612 178.068 320.967 178.068C321.202 178.068 321.418 178.035 321.613 177.969C321.809 177.902 321.976 177.803 322.116 177.67C322.255 177.538 322.361 177.375 322.434 177.183L324.393 177.312C324.293 177.783 324.089 178.194 323.781 178.545C323.476 178.893 323.082 179.165 322.598 179.361C322.117 179.553 321.562 179.649 320.932 179.649ZM327.937 169.318V179.5H325.819V169.318H327.937ZM329.634 179.5V171.864H331.752V179.5H329.634ZM330.698 170.879C330.383 170.879 330.113 170.775 329.887 170.566C329.665 170.354 329.554 170.1 329.554 169.805C329.554 169.514 329.665 169.263 329.887 169.055C330.113 168.843 330.383 168.737 330.698 168.737C331.013 168.737 331.281 168.843 331.503 169.055C331.729 169.263 331.841 169.514 331.841 169.805C331.841 170.1 331.729 170.354 331.503 170.566C331.281 170.775 331.013 170.879 330.698 170.879ZM340.568 171.864L337.898 179.5H335.511L332.842 171.864H335.079L336.665 177.327H336.744L338.325 171.864H340.568ZM344.885 179.649C344.1 179.649 343.424 179.49 342.857 179.172C342.294 178.85 341.859 178.396 341.554 177.81C341.25 177.22 341.097 176.522 341.097 175.717C341.097 174.931 341.25 174.242 341.554 173.648C341.859 173.055 342.289 172.593 342.842 172.261C343.399 171.93 344.052 171.764 344.801 171.764C345.305 171.764 345.774 171.845 346.208 172.008C346.645 172.167 347.027 172.407 347.351 172.729C347.679 173.05 347.935 173.455 348.117 173.942C348.299 174.426 348.39 174.992 348.39 175.642V176.224H341.942V174.911H346.397C346.397 174.606 346.331 174.336 346.198 174.101C346.065 173.866 345.881 173.682 345.646 173.549C345.414 173.413 345.144 173.345 344.836 173.345C344.514 173.345 344.229 173.42 343.981 173.569C343.735 173.715 343.543 173.912 343.404 174.161C343.265 174.406 343.193 174.679 343.19 174.981V176.229C343.19 176.607 343.26 176.933 343.399 177.208C343.541 177.483 343.742 177.695 344 177.844C344.259 177.994 344.566 178.068 344.92 178.068C345.156 178.068 345.371 178.035 345.567 177.969C345.762 177.902 345.929 177.803 346.069 177.67C346.208 177.538 346.314 177.375 346.387 177.183L348.346 177.312C348.246 177.783 348.042 178.194 347.734 178.545C347.429 178.893 347.035 179.165 346.551 179.361C346.07 179.553 345.515 179.649 344.885 179.649ZM349.773 179.5V171.864H351.826V173.196H351.905C352.045 172.722 352.278 172.364 352.606 172.122C352.934 171.877 353.312 171.754 353.74 171.754C353.846 171.754 353.96 171.761 354.083 171.774C354.206 171.787 354.313 171.806 354.406 171.829V173.708C354.307 173.678 354.169 173.652 353.993 173.629C353.818 173.605 353.657 173.594 353.511 173.594C353.2 173.594 352.921 173.662 352.676 173.798C352.434 173.93 352.242 174.116 352.099 174.354C351.96 174.593 351.89 174.868 351.89 175.18V179.5H349.773ZM357.041 182.364C356.773 182.364 356.521 182.342 356.285 182.299C356.053 182.259 355.861 182.208 355.709 182.145L356.186 180.564C356.434 180.64 356.658 180.682 356.857 180.688C357.059 180.695 357.233 180.648 357.379 180.549C357.528 180.45 357.649 180.281 357.742 180.042L357.866 179.719L355.127 171.864H357.354L358.935 177.472H359.015L360.611 171.864H362.853L359.885 180.325C359.742 180.736 359.548 181.094 359.303 181.399C359.061 181.707 358.755 181.944 358.383 182.11C358.012 182.279 357.565 182.364 357.041 182.364ZM374.5 171.844L373.918 173.226H367.246L367.833 171.844H374.5ZM369.767 179.5L367.043 175.453L367.246 174.21H368.927C369.301 174.21 369.626 174.141 369.901 174.001C370.176 173.862 370.397 173.673 370.562 173.435C370.728 173.196 370.838 172.924 370.891 172.619C370.967 172.162 370.897 171.789 370.682 171.501C370.466 171.209 370.057 171.063 369.454 171.063H367.604L368.3 169.318H369.742C370.587 169.318 371.27 169.446 371.79 169.701C372.314 169.953 372.679 170.312 372.884 170.78C373.09 171.247 373.138 171.804 373.028 172.45C372.932 173.017 372.755 173.514 372.496 173.942C372.241 174.369 371.888 174.727 371.437 175.016C370.99 175.304 370.43 175.521 369.757 175.667L369.702 175.687L372.129 179.411L372.109 179.5H369.767ZM374.932 169.318L374.326 170.72H368.847L369.444 169.318H374.932ZM378.258 179.639C377.559 179.639 376.954 179.51 376.444 179.251C375.937 178.99 375.561 178.632 375.315 178.178C375.07 177.723 374.989 177.205 375.072 176.621H377.16C377.12 177.013 377.233 177.332 377.498 177.581C377.763 177.826 378.109 177.949 378.537 177.949C378.875 177.949 379.187 177.874 379.472 177.725C379.757 177.573 379.995 177.362 380.187 177.094C380.383 176.825 380.509 176.514 380.565 176.159C380.625 175.801 380.602 175.486 380.496 175.214C380.39 174.943 380.217 174.731 379.979 174.578C379.74 174.422 379.448 174.344 379.104 174.344C378.802 174.344 378.502 174.407 378.204 174.533C377.905 174.656 377.66 174.822 377.468 175.031L375.609 174.688L376.986 169.318H383.21L382.922 171.078H378.477L377.786 173.629H377.846C378.068 173.377 378.373 173.168 378.761 173.002C379.148 172.836 379.566 172.754 380.013 172.754C380.627 172.754 381.149 172.898 381.58 173.186C382.014 173.474 382.327 173.871 382.519 174.374C382.711 174.878 382.753 175.455 382.643 176.104C382.534 176.79 382.277 177.399 381.873 177.929C381.468 178.459 380.955 178.877 380.332 179.182C379.709 179.487 379.017 179.639 378.258 179.639ZM387.54 179.724C386.685 179.724 385.984 179.515 385.437 179.097C384.891 178.676 384.518 178.07 384.319 177.278C384.123 176.486 384.118 175.533 384.304 174.419C384.493 173.309 384.816 172.362 385.273 171.58C385.734 170.798 386.304 170.203 386.984 169.795C387.666 169.384 388.434 169.179 389.285 169.179C390.134 169.179 390.832 169.384 391.379 169.795C391.925 170.206 392.3 170.801 392.502 171.58C392.708 172.359 392.718 173.305 392.532 174.419C392.346 175.536 392.023 176.491 391.562 177.283C391.102 178.071 390.53 178.676 389.847 179.097C389.164 179.515 388.396 179.724 387.54 179.724ZM387.839 177.939C388.425 177.939 388.939 177.646 389.38 177.059C389.821 176.472 390.139 175.592 390.334 174.419C390.464 173.65 390.492 173.009 390.419 172.495C390.349 171.978 390.192 171.59 389.947 171.332C389.701 171.073 389.385 170.944 388.997 170.944C388.417 170.944 387.903 171.236 387.456 171.819C387.012 172.399 386.694 173.266 386.501 174.419C386.372 175.201 386.344 175.854 386.417 176.378C386.49 176.898 386.649 177.289 386.894 177.551C387.139 177.81 387.454 177.939 387.839 177.939ZM397.118 179.5V171.864H399.236V179.5H397.118ZM398.182 170.879C397.867 170.879 397.597 170.775 397.372 170.566C397.15 170.354 397.039 170.1 397.039 169.805C397.039 169.514 397.15 169.263 397.372 169.055C397.597 168.843 397.867 168.737 398.182 168.737C398.497 168.737 398.765 168.843 398.988 169.055C399.213 169.263 399.326 169.514 399.326 169.805C399.326 170.1 399.213 170.354 398.988 170.566C398.765 170.775 398.497 170.879 398.182 170.879ZM407.286 174.041L405.347 174.161C405.314 173.995 405.243 173.846 405.134 173.713C405.024 173.577 404.88 173.469 404.701 173.39C404.525 173.307 404.315 173.266 404.07 173.266C403.742 173.266 403.465 173.335 403.239 173.474C403.014 173.61 402.901 173.793 402.901 174.021C402.901 174.204 402.974 174.358 403.12 174.484C403.266 174.61 403.516 174.711 403.871 174.787L405.253 175.065C405.995 175.218 406.549 175.463 406.913 175.801C407.278 176.139 407.46 176.583 407.46 177.134C407.46 177.634 407.313 178.073 407.018 178.451C406.726 178.829 406.325 179.124 405.815 179.336C405.308 179.545 404.723 179.649 404.06 179.649C403.049 179.649 402.244 179.439 401.644 179.018C401.047 178.594 400.697 178.017 400.595 177.288L402.678 177.178C402.741 177.487 402.893 177.722 403.135 177.884C403.377 178.043 403.687 178.123 404.065 178.123C404.436 178.123 404.734 178.052 404.96 177.909C405.188 177.763 405.304 177.576 405.308 177.347C405.304 177.155 405.223 176.998 405.064 176.875C404.905 176.749 404.66 176.653 404.328 176.587L403.006 176.323C402.26 176.174 401.705 175.915 401.34 175.548C400.979 175.18 400.798 174.711 400.798 174.141C400.798 173.65 400.931 173.228 401.196 172.873C401.465 172.518 401.841 172.245 402.325 172.053C402.812 171.86 403.382 171.764 404.035 171.764C404.999 171.764 405.758 171.968 406.312 172.376C406.869 172.783 407.194 173.339 407.286 174.041ZM413.829 179.5H411.522L415.037 169.318H417.811L421.321 179.5H419.014L416.464 171.645H416.384L413.829 179.5ZM413.685 175.498H419.134V177.178H413.685V175.498ZM422.507 182.364V171.864H424.595V173.146H424.689C424.782 172.941 424.916 172.732 425.092 172.52C425.271 172.304 425.503 172.125 425.788 171.983C426.076 171.837 426.434 171.764 426.862 171.764C427.419 171.764 427.933 171.91 428.403 172.202C428.874 172.49 429.25 172.926 429.532 173.509C429.813 174.089 429.954 174.817 429.954 175.692C429.954 176.544 429.817 177.263 429.542 177.849C429.27 178.433 428.899 178.875 428.428 179.177C427.961 179.475 427.437 179.624 426.857 179.624C426.446 179.624 426.096 179.556 425.808 179.42C425.523 179.285 425.289 179.114 425.107 178.908C424.925 178.7 424.786 178.489 424.689 178.277H424.625V182.364H422.507ZM424.58 175.682C424.58 176.136 424.643 176.532 424.769 176.87C424.895 177.208 425.077 177.472 425.316 177.661C425.554 177.846 425.844 177.939 426.186 177.939C426.531 177.939 426.822 177.844 427.061 177.656C427.299 177.463 427.48 177.198 427.603 176.86C427.729 176.519 427.792 176.126 427.792 175.682C427.792 175.241 427.73 174.853 427.608 174.518C427.485 174.184 427.304 173.922 427.066 173.733C426.827 173.544 426.534 173.45 426.186 173.45C425.841 173.45 425.549 173.541 425.311 173.723C425.076 173.905 424.895 174.164 424.769 174.499C424.643 174.833 424.58 175.228 424.58 175.682ZM431.366 182.364V171.864H433.454V173.146H433.549C433.642 172.941 433.776 172.732 433.951 172.52C434.13 172.304 434.362 172.125 434.648 171.983C434.936 171.837 435.294 171.764 435.721 171.764C436.278 171.764 436.792 171.91 437.263 172.202C437.733 172.49 438.109 172.926 438.391 173.509C438.673 174.089 438.814 174.817 438.814 175.692C438.814 176.544 438.676 177.263 438.401 177.849C438.129 178.433 437.758 178.875 437.287 179.177C436.82 179.475 436.296 179.624 435.716 179.624C435.305 179.624 434.956 179.556 434.667 179.42C434.382 179.285 434.149 179.114 433.966 178.908C433.784 178.7 433.645 178.489 433.549 178.277H433.484V182.364H431.366ZM433.439 175.682C433.439 176.136 433.502 176.532 433.628 176.87C433.754 177.208 433.937 177.472 434.175 177.661C434.414 177.846 434.704 177.939 435.045 177.939C435.39 177.939 435.682 177.844 435.92 177.656C436.159 177.463 436.34 177.198 436.462 176.86C436.588 176.519 436.651 176.126 436.651 175.682C436.651 175.241 436.59 174.853 436.467 174.518C436.344 174.184 436.164 173.922 435.925 173.733C435.687 173.544 435.393 173.45 435.045 173.45C434.701 173.45 434.409 173.541 434.17 173.723C433.935 173.905 433.754 174.164 433.628 174.499C433.502 174.833 433.439 175.228 433.439 175.682ZM442.344 169.318V179.5H440.226V169.318H442.344ZM444.04 179.5V171.864H446.158V179.5H444.04ZM445.104 170.879C444.789 170.879 444.519 170.775 444.294 170.566C444.072 170.354 443.961 170.1 443.961 169.805C443.961 169.514 444.072 169.263 444.294 169.055C444.519 168.843 444.789 168.737 445.104 168.737C445.419 168.737 445.687 168.843 445.909 169.055C446.135 169.263 446.247 169.514 446.247 169.805C446.247 170.1 446.135 170.354 445.909 170.566C445.687 170.775 445.419 170.879 445.104 170.879ZM451.335 179.649C450.549 179.649 449.873 179.49 449.306 179.172C448.743 178.85 448.309 178.396 448.004 177.81C447.699 177.22 447.546 176.522 447.546 175.717C447.546 174.931 447.699 174.242 448.004 173.648C448.309 173.055 448.738 172.593 449.291 172.261C449.848 171.93 450.501 171.764 451.25 171.764C451.754 171.764 452.223 171.845 452.657 172.008C453.095 172.167 453.476 172.407 453.801 172.729C454.129 173.05 454.384 173.455 454.566 173.942C454.748 174.426 454.84 174.992 454.84 175.642V176.224H448.391V174.911H452.846C452.846 174.606 452.78 174.336 452.647 174.101C452.515 173.866 452.331 173.682 452.095 173.549C451.863 173.413 451.593 173.345 451.285 173.345C450.963 173.345 450.678 173.42 450.43 173.569C450.185 173.715 449.992 173.912 449.853 174.161C449.714 174.406 449.643 174.679 449.639 174.981V176.229C449.639 176.607 449.709 176.933 449.848 177.208C449.991 177.483 450.191 177.695 450.45 177.844C450.708 177.994 451.015 178.068 451.369 178.068C451.605 178.068 451.82 178.035 452.016 177.969C452.211 177.902 452.379 177.803 452.518 177.67C452.657 177.538 452.763 177.375 452.836 177.183L454.795 177.312C454.695 177.783 454.492 178.194 454.183 178.545C453.878 178.893 453.484 179.165 453 179.361C452.52 179.553 451.964 179.649 451.335 179.649ZM459.036 179.624C458.456 179.624 457.93 179.475 457.46 179.177C456.992 178.875 456.621 178.433 456.346 177.849C456.074 177.263 455.938 176.544 455.938 175.692C455.938 174.817 456.079 174.089 456.361 173.509C456.643 172.926 457.017 172.49 457.485 172.202C457.955 171.91 458.471 171.764 459.031 171.764C459.458 171.764 459.815 171.837 460.1 171.983C460.388 172.125 460.62 172.304 460.796 172.52C460.975 172.732 461.11 172.941 461.203 173.146H461.268V169.318H463.381V179.5H461.293V178.277H461.203C461.104 178.489 460.963 178.7 460.781 178.908C460.602 179.114 460.368 179.285 460.08 179.42C459.795 179.556 459.447 179.624 459.036 179.624ZM459.707 177.939C460.048 177.939 460.337 177.846 460.572 177.661C460.811 177.472 460.993 177.208 461.119 176.87C461.248 176.532 461.313 176.136 461.313 175.682C461.313 175.228 461.25 174.833 461.124 174.499C460.998 174.164 460.815 173.905 460.577 173.723C460.338 173.541 460.048 173.45 459.707 173.45C459.359 173.45 459.065 173.544 458.827 173.733C458.588 173.922 458.408 174.184 458.285 174.518C458.162 174.853 458.101 175.241 458.101 175.682C458.101 176.126 458.162 176.519 458.285 176.86C458.411 177.198 458.592 177.463 458.827 177.656C459.065 177.844 459.359 177.939 459.707 177.939Z" fill="#105004"/>
<path d="M22.1378 263V249.909H27.3026C28.2955 249.909 29.1413 250.099 29.8402 250.478C30.5391 250.853 31.0717 251.375 31.4382 252.044C31.8089 252.709 31.9943 253.476 31.9943 254.345C31.9943 255.214 31.8068 255.982 31.4318 256.646C31.0568 257.311 30.5135 257.829 29.8018 258.2C29.0945 258.57 28.2379 258.756 27.2322 258.756H23.9403V256.538H26.7848C27.3175 256.538 27.7564 256.446 28.1016 256.263C28.451 256.075 28.7109 255.817 28.8814 255.489C29.0561 255.157 29.1435 254.776 29.1435 254.345C29.1435 253.911 29.0561 253.531 28.8814 253.207C28.7109 252.879 28.451 252.626 28.1016 252.447C27.7521 252.263 27.3089 252.172 26.772 252.172H24.9055V263H22.1378ZM36.277 263.185C35.6506 263.185 35.0923 263.077 34.6023 262.859C34.1122 262.638 33.7244 262.312 33.4389 261.881C33.1577 261.447 33.017 260.906 33.017 260.258C33.017 259.712 33.1172 259.254 33.3175 258.884C33.5178 258.513 33.7905 258.214 34.1357 257.989C34.4808 257.763 34.8729 257.592 35.3118 257.477C35.755 257.362 36.2195 257.281 36.7053 257.234C37.2763 257.175 37.7365 257.119 38.0859 257.068C38.4354 257.013 38.6889 256.932 38.8466 256.825C39.0043 256.719 39.0831 256.561 39.0831 256.352V256.314C39.0831 255.909 38.9553 255.596 38.6996 255.374C38.4482 255.153 38.0902 255.042 37.6257 255.042C37.1357 255.042 36.7457 255.151 36.456 255.368C36.1662 255.581 35.9744 255.849 35.8807 256.173L33.3622 255.969C33.4901 255.372 33.7415 254.857 34.1165 254.422C34.4915 253.983 34.9751 253.646 35.5675 253.412C36.1641 253.173 36.8544 253.054 37.6385 253.054C38.1839 253.054 38.706 253.118 39.2045 253.246C39.7074 253.374 40.1527 253.572 40.5405 253.84C40.9325 254.109 41.2415 254.454 41.4673 254.876C41.6932 255.293 41.8061 255.794 41.8061 256.378V263H39.2237V261.638H39.147C38.9893 261.945 38.7784 262.216 38.5142 262.45C38.25 262.68 37.9325 262.862 37.5618 262.994C37.1911 263.121 36.7628 263.185 36.277 263.185ZM37.0568 261.306C37.4574 261.306 37.8111 261.227 38.1179 261.07C38.4247 260.908 38.6655 260.69 38.8402 260.418C39.0149 260.145 39.1023 259.836 39.1023 259.491V258.449C39.017 258.504 38.8999 258.555 38.7507 258.602C38.6058 258.645 38.4418 258.685 38.2585 258.724C38.0753 258.758 37.892 258.79 37.7088 258.82C37.5256 258.845 37.3594 258.869 37.2102 258.89C36.8906 258.937 36.6115 259.011 36.3729 259.114C36.1342 259.216 35.9489 259.354 35.8168 259.529C35.6847 259.7 35.6186 259.913 35.6186 260.168C35.6186 260.539 35.7528 260.822 36.0213 261.018C36.294 261.21 36.6392 261.306 37.0568 261.306ZM45.2482 266.682C44.9031 266.682 44.5792 266.654 44.2766 266.599C43.9783 266.548 43.7312 266.482 43.5352 266.401L44.1488 264.368C44.4684 264.466 44.756 264.519 45.0117 264.528C45.2717 264.536 45.4954 264.477 45.6829 264.349C45.8746 264.221 46.0302 264.004 46.1495 263.697L46.3093 263.281L42.7873 253.182H45.6509L47.6836 260.392H47.7859L49.8377 253.182H52.7205L48.9045 264.061C48.7212 264.589 48.4719 265.05 48.1566 265.442C47.8455 265.838 47.4513 266.143 46.9741 266.356C46.4968 266.573 45.9215 266.682 45.2482 266.682ZM54.114 263V253.182H56.7092V254.914H56.8242C57.0288 254.339 57.3697 253.885 57.8469 253.553C58.3242 253.22 58.8952 253.054 59.56 253.054C60.2333 253.054 60.8065 253.222 61.2795 253.559C61.7525 253.891 62.0678 254.343 62.2255 254.914H62.3278C62.5281 254.352 62.8903 253.902 63.4144 253.565C63.9428 253.224 64.5671 253.054 65.2873 253.054C66.2035 253.054 66.9471 253.346 67.5181 253.93C68.0934 254.509 68.381 255.332 68.381 256.397V263H65.6644V256.934C65.6644 256.388 65.5195 255.979 65.2298 255.707C64.94 255.434 64.5778 255.298 64.1431 255.298C63.6488 255.298 63.2631 255.455 62.9862 255.771C62.7092 256.082 62.5707 256.493 62.5707 257.004V263H59.9308V256.876C59.9308 256.395 59.7923 256.011 59.5153 255.726C59.2425 255.44 58.8825 255.298 58.435 255.298C58.1325 255.298 57.8597 255.374 57.6168 255.528C57.3782 255.677 57.1886 255.888 57.0479 256.161C56.9073 256.429 56.837 256.744 56.837 257.107V263H54.114ZM75.0064 263.192C73.9964 263.192 73.1271 262.987 72.3984 262.578C71.674 262.165 71.1158 261.581 70.7237 260.827C70.3317 260.068 70.1357 259.171 70.1357 258.136C70.1357 257.126 70.3317 256.239 70.7237 255.477C71.1158 254.714 71.6676 254.119 72.3793 253.693C73.0952 253.267 73.9347 253.054 74.8977 253.054C75.5455 253.054 76.1484 253.158 76.7067 253.367C77.2692 253.572 77.7592 253.881 78.1768 254.294C78.5987 254.707 78.9268 255.227 79.1612 255.854C79.3956 256.476 79.5128 257.205 79.5128 258.04V258.788H71.2223V257.1H76.9496C76.9496 256.708 76.8643 256.361 76.6939 256.058C76.5234 255.756 76.2869 255.519 75.9844 255.349C75.6861 255.174 75.3388 255.087 74.9425 255.087C74.5291 255.087 74.1626 255.183 73.843 255.374C73.5277 255.562 73.2805 255.815 73.1016 256.135C72.9226 256.45 72.831 256.802 72.8267 257.19V258.794C72.8267 259.28 72.9162 259.7 73.0952 260.053C73.2784 260.407 73.5362 260.68 73.8686 260.871C74.201 261.063 74.5952 261.159 75.0511 261.159C75.3537 261.159 75.6307 261.116 75.8821 261.031C76.1335 260.946 76.3487 260.818 76.5277 260.648C76.7067 260.477 76.843 260.268 76.9368 260.021L79.4553 260.188C79.3274 260.793 79.0653 261.321 78.669 261.773C78.277 262.22 77.7699 262.57 77.1477 262.821C76.5298 263.068 75.8161 263.192 75.0064 263.192ZM84.0128 257.324V263H81.2898V253.182H83.8849V254.914H84C84.2173 254.343 84.5817 253.891 85.093 253.559C85.6044 253.222 86.2244 253.054 86.9531 253.054C87.6349 253.054 88.2294 253.203 88.7365 253.501C89.2436 253.8 89.6378 254.226 89.919 254.78C90.2003 255.33 90.3409 255.986 90.3409 256.749V263H87.6179V257.234C87.6222 256.634 87.4688 256.165 87.1577 255.828C86.8466 255.487 86.4183 255.317 85.8729 255.317C85.5064 255.317 85.1825 255.396 84.9013 255.553C84.6243 255.711 84.407 255.941 84.2493 256.244C84.0959 256.542 84.017 256.902 84.0128 257.324ZM97.7093 253.182V255.227H91.7967V253.182H97.7093ZM93.139 250.83H95.862V259.983C95.862 260.234 95.9004 260.43 95.9771 260.571C96.0538 260.707 96.1603 260.803 96.2967 260.859C96.4373 260.914 96.5993 260.942 96.7825 260.942C96.9103 260.942 97.0382 260.931 97.166 260.91C97.2939 260.884 97.3919 260.865 97.4601 260.852L97.8883 262.879C97.752 262.921 97.5602 262.97 97.313 263.026C97.0659 263.085 96.7654 263.121 96.4118 263.134C95.7555 263.16 95.1802 263.072 94.6859 262.872C94.1958 262.672 93.8145 262.361 93.5417 261.939C93.269 261.517 93.1348 260.984 93.139 260.341V250.83ZM107.529 255.982L105.036 256.135C104.994 255.922 104.902 255.73 104.761 255.56C104.621 255.385 104.435 255.246 104.205 255.144C103.979 255.038 103.709 254.984 103.393 254.984C102.972 254.984 102.616 255.074 102.326 255.253C102.036 255.428 101.891 255.662 101.891 255.956C101.891 256.19 101.985 256.388 102.173 256.55C102.36 256.712 102.682 256.842 103.138 256.94L104.915 257.298C105.869 257.494 106.581 257.81 107.05 258.244C107.518 258.679 107.753 259.25 107.753 259.957C107.753 260.601 107.563 261.165 107.184 261.651C106.809 262.137 106.293 262.516 105.637 262.789C104.985 263.058 104.233 263.192 103.381 263.192C102.081 263.192 101.045 262.921 100.274 262.38C99.5071 261.835 99.0575 261.093 98.9254 260.156L101.604 260.015C101.685 260.411 101.881 260.714 102.192 260.923C102.503 261.127 102.901 261.229 103.387 261.229C103.864 261.229 104.248 261.138 104.538 260.955C104.832 260.767 104.981 260.526 104.985 260.232C104.981 259.985 104.876 259.783 104.672 259.625C104.467 259.463 104.152 259.339 103.726 259.254L102.026 258.915C101.067 258.724 100.353 258.391 99.8842 257.918C99.4197 257.445 99.1875 256.842 99.1875 256.109C99.1875 255.479 99.358 254.935 99.6989 254.479C100.044 254.023 100.528 253.672 101.15 253.425C101.776 253.178 102.509 253.054 103.349 253.054C104.589 253.054 105.565 253.316 106.276 253.84C106.992 254.364 107.41 255.078 107.529 255.982ZM113.685 249.909H117.098L120.703 258.705H120.857L124.462 249.909H127.875V263H125.19V254.479H125.082L121.694 262.936H119.866L116.478 254.447H116.369V263H113.685V249.909ZM134.579 263.192C133.569 263.192 132.699 262.987 131.971 262.578C131.246 262.165 130.688 261.581 130.296 260.827C129.904 260.068 129.708 259.171 129.708 258.136C129.708 257.126 129.904 256.239 130.296 255.477C130.688 254.714 131.24 254.119 131.952 253.693C132.667 253.267 133.507 253.054 134.47 253.054C135.118 253.054 135.721 253.158 136.279 253.367C136.841 253.572 137.331 253.881 137.749 254.294C138.171 254.707 138.499 255.227 138.733 255.854C138.968 256.476 139.085 257.205 139.085 258.04V258.788H130.795V257.1H136.522C136.522 256.708 136.437 256.361 136.266 256.058C136.096 255.756 135.859 255.519 135.557 255.349C135.258 255.174 134.911 255.087 134.515 255.087C134.101 255.087 133.735 255.183 133.415 255.374C133.1 255.562 132.853 255.815 132.674 256.135C132.495 256.45 132.403 256.802 132.399 257.19V258.794C132.399 259.28 132.488 259.7 132.667 260.053C132.851 260.407 133.108 260.68 133.441 260.871C133.773 261.063 134.167 261.159 134.623 261.159C134.926 261.159 135.203 261.116 135.454 261.031C135.706 260.946 135.921 260.818 136.1 260.648C136.279 260.477 136.415 260.268 136.509 260.021L139.028 260.188C138.9 260.793 138.638 261.321 138.241 261.773C137.849 262.22 137.342 262.57 136.72 262.821C136.102 263.068 135.388 263.192 134.579 263.192ZM146.084 253.182V255.227H140.172V253.182H146.084ZM141.514 250.83H144.237V259.983C144.237 260.234 144.275 260.43 144.352 260.571C144.429 260.707 144.535 260.803 144.672 260.859C144.812 260.914 144.974 260.942 145.157 260.942C145.285 260.942 145.413 260.931 145.541 260.91C145.669 260.884 145.767 260.865 145.835 260.852L146.263 262.879C146.127 262.921 145.935 262.97 145.688 263.026C145.441 263.085 145.14 263.121 144.787 263.134C144.131 263.16 143.555 263.072 143.061 262.872C142.571 262.672 142.189 262.361 141.917 261.939C141.644 261.517 141.51 260.984 141.514 260.341V250.83ZM150.792 257.324V263H148.069V249.909H150.715V254.914H150.83C151.052 254.335 151.41 253.881 151.904 253.553C152.399 253.22 153.019 253.054 153.764 253.054C154.446 253.054 155.041 253.203 155.548 253.501C156.059 253.795 156.455 254.219 156.737 254.773C157.022 255.323 157.163 255.982 157.159 256.749V263H154.436V257.234C154.44 256.629 154.286 256.158 153.975 255.822C153.669 255.485 153.238 255.317 152.684 255.317C152.313 255.317 151.985 255.396 151.7 255.553C151.419 255.711 151.197 255.941 151.035 256.244C150.877 256.542 150.796 256.902 150.792 257.324ZM163.738 263.192C162.745 263.192 161.886 262.981 161.162 262.559C160.441 262.133 159.885 261.54 159.493 260.782C159.101 260.019 158.905 259.135 158.905 258.129C158.905 257.115 159.101 256.229 159.493 255.47C159.885 254.707 160.441 254.115 161.162 253.693C161.886 253.267 162.745 253.054 163.738 253.054C164.73 253.054 165.587 253.267 166.307 253.693C167.032 254.115 167.59 254.707 167.982 255.47C168.374 256.229 168.57 257.115 168.57 258.129C168.57 259.135 168.374 260.019 167.982 260.782C167.59 261.54 167.032 262.133 166.307 262.559C165.587 262.981 164.73 263.192 163.738 263.192ZM163.75 261.082C164.202 261.082 164.579 260.955 164.882 260.699C165.184 260.439 165.412 260.085 165.566 259.638C165.723 259.19 165.802 258.681 165.802 258.11C165.802 257.539 165.723 257.03 165.566 256.582C165.412 256.135 165.184 255.781 164.882 255.521C164.579 255.261 164.202 255.131 163.75 255.131C163.294 255.131 162.911 255.261 162.6 255.521C162.293 255.781 162.061 256.135 161.903 256.582C161.75 257.03 161.673 257.539 161.673 258.11C161.673 258.681 161.75 259.19 161.903 259.638C162.061 260.085 162.293 260.439 162.6 260.699C162.911 260.955 163.294 261.082 163.75 261.082ZM173.958 263.16C173.213 263.16 172.537 262.968 171.932 262.585C171.331 262.197 170.854 261.628 170.5 260.878C170.151 260.124 169.976 259.199 169.976 258.104C169.976 256.979 170.157 256.043 170.52 255.298C170.882 254.548 171.363 253.987 171.964 253.616C172.569 253.241 173.232 253.054 173.952 253.054C174.502 253.054 174.96 253.148 175.326 253.335C175.697 253.518 175.995 253.749 176.221 254.026C176.451 254.298 176.626 254.567 176.745 254.831H176.828V249.909H179.545V263H176.86V261.428H176.745C176.618 261.7 176.436 261.971 176.202 262.239C175.972 262.504 175.672 262.723 175.301 262.898C174.934 263.072 174.487 263.16 173.958 263.16ZM174.821 260.993C175.26 260.993 175.631 260.874 175.934 260.635C176.24 260.392 176.475 260.053 176.637 259.619C176.803 259.184 176.886 258.675 176.886 258.091C176.886 257.507 176.805 257 176.643 256.57C176.481 256.139 176.247 255.807 175.94 255.572C175.633 255.338 175.26 255.221 174.821 255.221C174.374 255.221 173.997 255.342 173.69 255.585C173.383 255.828 173.151 256.165 172.993 256.595C172.836 257.026 172.757 257.524 172.757 258.091C172.757 258.662 172.836 259.167 172.993 259.606C173.155 260.04 173.387 260.381 173.69 260.629C173.997 260.871 174.374 260.993 174.821 260.993Z" fill="#5F5F5F"/>
<rect x="33.5" y="288" width="17" height="17" rx="8.5" fill="#EAFFF5"/>
<rect x="33.5" y="288" width="17" height="17" rx="8.5" stroke="#105004"/>
<path d="M62.1477 302V290.364H66.5114C67.4053 290.364 68.1553 290.53 68.7614 290.864C69.3712 291.197 69.8314 291.655 70.142 292.239C70.4564 292.818 70.6136 293.477 70.6136 294.216C70.6136 294.962 70.4564 295.625 70.142 296.205C69.8277 296.784 69.3636 297.241 68.75 297.574C68.1364 297.903 67.3807 298.068 66.483 298.068H63.5909V296.335H66.1989C66.7216 296.335 67.1496 296.244 67.483 296.062C67.8163 295.881 68.0625 295.631 68.2216 295.312C68.3845 294.994 68.4659 294.629 68.4659 294.216C68.4659 293.803 68.3845 293.439 68.2216 293.125C68.0625 292.811 67.8144 292.566 67.4773 292.392C67.1439 292.214 66.714 292.125 66.1875 292.125H64.2557V302H62.1477ZM72.3537 302V293.273H74.348V294.727H74.4389C74.598 294.223 74.8707 293.835 75.2571 293.562C75.6473 293.286 76.0923 293.148 76.5923 293.148C76.706 293.148 76.8329 293.153 76.973 293.165C77.117 293.172 77.2363 293.186 77.331 293.205V295.097C77.2438 295.066 77.1056 295.04 76.9162 295.017C76.7306 294.991 76.5507 294.977 76.3764 294.977C76.0014 294.977 75.6643 295.059 75.3651 295.222C75.0696 295.381 74.8366 295.602 74.6662 295.886C74.4957 296.17 74.4105 296.498 74.4105 296.869V302H72.3537ZM82.2017 302.17C81.3267 302.17 80.571 301.989 79.9347 301.625C79.3021 301.258 78.8153 300.739 78.4744 300.068C78.1335 299.394 77.9631 298.6 77.9631 297.688C77.9631 296.79 78.1335 296.002 78.4744 295.324C78.8191 294.642 79.3002 294.112 79.9176 293.733C80.535 293.35 81.2604 293.159 82.0938 293.159C82.6316 293.159 83.1392 293.246 83.6165 293.42C84.0975 293.591 84.5218 293.856 84.8892 294.216C85.2604 294.576 85.5521 295.034 85.7642 295.591C85.9763 296.144 86.0824 296.803 86.0824 297.568V298.199H78.929V296.812H84.1108C84.107 296.419 84.0218 296.068 83.8551 295.761C83.6884 295.451 83.4555 295.206 83.1562 295.028C82.8608 294.85 82.5161 294.761 82.1222 294.761C81.7017 294.761 81.3324 294.864 81.0142 295.068C80.696 295.269 80.4479 295.534 80.2699 295.864C80.0956 296.189 80.0066 296.547 80.0028 296.938V298.148C80.0028 298.655 80.0956 299.091 80.2812 299.455C80.4669 299.814 80.7263 300.091 81.0597 300.284C81.393 300.473 81.7831 300.568 82.2301 300.568C82.5294 300.568 82.8002 300.527 83.0426 300.443C83.285 300.356 83.4953 300.229 83.6733 300.062C83.8513 299.896 83.9858 299.689 84.0767 299.443L85.9972 299.659C85.8759 300.167 85.6449 300.61 85.304 300.989C84.9669 301.364 84.535 301.655 84.0085 301.864C83.482 302.068 82.8797 302.17 82.2017 302.17ZM87.8224 305.273V293.273H89.8452V294.716H89.9645C90.0705 294.504 90.2202 294.278 90.4134 294.04C90.6065 293.797 90.8679 293.591 91.1974 293.42C91.527 293.246 91.9474 293.159 92.4588 293.159C93.133 293.159 93.741 293.331 94.2827 293.676C94.8281 294.017 95.2599 294.523 95.5781 295.193C95.9001 295.86 96.0611 296.678 96.0611 297.648C96.0611 298.606 95.9039 299.42 95.5895 300.091C95.2751 300.761 94.8471 301.273 94.3054 301.625C93.7637 301.977 93.1501 302.153 92.4645 302.153C91.9645 302.153 91.5497 302.07 91.2202 301.903C90.8906 301.737 90.6255 301.536 90.4247 301.301C90.2277 301.062 90.0743 300.837 89.9645 300.625H89.8793V305.273H87.8224ZM89.8395 297.636C89.8395 298.201 89.919 298.695 90.0781 299.119C90.241 299.544 90.474 299.875 90.777 300.114C91.0838 300.348 91.455 300.466 91.8906 300.466C92.3452 300.466 92.7259 300.345 93.0327 300.102C93.3395 299.856 93.5705 299.521 93.7259 299.097C93.8849 298.669 93.9645 298.182 93.9645 297.636C93.9645 297.095 93.8868 296.614 93.7315 296.193C93.5762 295.773 93.3452 295.443 93.0384 295.205C92.7315 294.966 92.349 294.847 91.8906 294.847C91.4512 294.847 91.0781 294.962 90.7713 295.193C90.4645 295.424 90.2315 295.748 90.0724 296.165C89.9171 296.581 89.8395 297.072 89.8395 297.636ZM100.334 302.176C99.7808 302.176 99.2827 302.078 98.8395 301.881C98.4001 301.68 98.0516 301.384 97.794 300.994C97.5402 300.604 97.4134 300.123 97.4134 299.551C97.4134 299.059 97.5043 298.652 97.6861 298.33C97.8679 298.008 98.116 297.75 98.4304 297.557C98.7448 297.364 99.099 297.218 99.4929 297.119C99.8906 297.017 100.302 296.943 100.726 296.898C101.237 296.845 101.652 296.797 101.97 296.756C102.288 296.71 102.519 296.642 102.663 296.551C102.811 296.456 102.885 296.311 102.885 296.114V296.08C102.885 295.652 102.758 295.32 102.504 295.085C102.25 294.85 101.885 294.733 101.408 294.733C100.904 294.733 100.504 294.843 100.209 295.062C99.9171 295.282 99.7202 295.542 99.6179 295.841L97.6974 295.568C97.849 295.038 98.099 294.595 98.4474 294.239C98.7959 293.879 99.2221 293.61 99.7259 293.432C100.23 293.25 100.786 293.159 101.396 293.159C101.817 293.159 102.235 293.208 102.652 293.307C103.069 293.405 103.449 293.568 103.794 293.795C104.139 294.019 104.415 294.324 104.624 294.71C104.836 295.097 104.942 295.58 104.942 296.159V302H102.964V300.801H102.896C102.771 301.044 102.595 301.271 102.368 301.483C102.144 301.691 101.862 301.86 101.521 301.989C101.184 302.114 100.788 302.176 100.334 302.176ZM100.868 300.665C101.281 300.665 101.639 300.583 101.942 300.42C102.245 300.254 102.478 300.034 102.641 299.761C102.807 299.489 102.891 299.191 102.891 298.869V297.841C102.826 297.894 102.716 297.943 102.561 297.989C102.41 298.034 102.239 298.074 102.05 298.108C101.86 298.142 101.673 298.172 101.487 298.199C101.302 298.225 101.141 298.248 101.004 298.267C100.697 298.309 100.423 298.377 100.18 298.472C99.938 298.566 99.7467 298.699 99.6065 298.869C99.4664 299.036 99.3963 299.252 99.3963 299.517C99.3963 299.896 99.5346 300.182 99.8111 300.375C100.088 300.568 100.44 300.665 100.868 300.665ZM107.01 302V293.273H109.067V302H107.01ZM108.044 292.034C107.718 292.034 107.438 291.926 107.203 291.71C106.968 291.491 106.851 291.227 106.851 290.92C106.851 290.61 106.968 290.347 107.203 290.131C107.438 289.911 107.718 289.801 108.044 289.801C108.374 289.801 108.654 289.911 108.885 290.131C109.12 290.347 109.237 290.61 109.237 290.92C109.237 291.227 109.12 291.491 108.885 291.71C108.654 291.926 108.374 292.034 108.044 292.034ZM114.42 302.153C113.735 302.153 113.121 301.977 112.58 301.625C112.038 301.273 111.61 300.761 111.295 300.091C110.981 299.42 110.824 298.606 110.824 297.648C110.824 296.678 110.983 295.86 111.301 295.193C111.623 294.523 112.057 294.017 112.602 293.676C113.148 293.331 113.756 293.159 114.426 293.159C114.938 293.159 115.358 293.246 115.688 293.42C116.017 293.591 116.278 293.797 116.472 294.04C116.665 294.278 116.814 294.504 116.92 294.716H117.006V290.364H119.068V302H117.045V300.625H116.92C116.814 300.837 116.661 301.062 116.46 301.301C116.259 301.536 115.994 301.737 115.665 301.903C115.335 302.07 114.92 302.153 114.42 302.153ZM114.994 300.466C115.43 300.466 115.801 300.348 116.108 300.114C116.415 299.875 116.648 299.544 116.807 299.119C116.966 298.695 117.045 298.201 117.045 297.636C117.045 297.072 116.966 296.581 116.807 296.165C116.652 295.748 116.42 295.424 116.114 295.193C115.811 294.962 115.438 294.847 114.994 294.847C114.536 294.847 114.153 294.966 113.847 295.205C113.54 295.443 113.309 295.773 113.153 296.193C112.998 296.614 112.92 297.095 112.92 297.636C112.92 298.182 112.998 298.669 113.153 299.097C113.313 299.521 113.545 299.856 113.852 300.102C114.163 300.345 114.544 300.466 114.994 300.466Z" fill="#878787"/>
<rect x="21" y="314" width="458.4" height="36.8" rx="18.4" fill="#105004" fill-opacity="0.2"/>
<rect x="33.5" y="322.5" width="19.8" height="19.8" rx="9.9" fill="#EAFFF5"/>
<rect x="33.5" y="322.5" width="19.8" height="19.8" rx="9.9" stroke="#105004"/>
<rect x="37" y="326" width="12.8" height="12.8" rx="6.4" fill="#105004"/>
<path d="M74.908 330.19H72.783C72.7223 329.841 72.6106 329.533 72.4477 329.264C72.2848 328.991 72.0822 328.76 71.8398 328.57C71.5973 328.381 71.3208 328.239 71.0102 328.144C70.7034 328.046 70.372 327.997 70.0159 327.997C69.3833 327.997 68.8227 328.156 68.3341 328.474C67.8455 328.788 67.4629 329.25 67.1864 329.86C66.9098 330.466 66.7716 331.207 66.7716 332.082C66.7716 332.972 66.9098 333.722 67.1864 334.332C67.4667 334.938 67.8492 335.396 68.3341 335.707C68.8227 336.014 69.3814 336.167 70.0102 336.167C70.3587 336.167 70.6845 336.122 70.9875 336.031C71.2943 335.936 71.5689 335.798 71.8114 335.616C72.0576 335.434 72.264 335.211 72.4307 334.945C72.6011 334.68 72.7186 334.377 72.783 334.036L74.908 334.048C74.8284 334.601 74.6561 335.12 74.3909 335.605C74.1295 336.089 73.7867 336.517 73.3625 336.889C72.9383 337.256 72.442 337.544 71.8739 337.752C71.3057 337.957 70.675 338.059 69.9818 338.059C68.9591 338.059 68.0462 337.822 67.2432 337.349C66.4402 336.875 65.8076 336.192 65.3455 335.298C64.8833 334.404 64.6523 333.332 64.6523 332.082C64.6523 330.828 64.8852 329.756 65.3511 328.866C65.817 327.972 66.4515 327.288 67.2545 326.815C68.0576 326.341 68.9667 326.105 69.9818 326.105C70.6295 326.105 71.2318 326.195 71.7886 326.377C72.3455 326.559 72.8417 326.826 73.2773 327.178C73.7129 327.527 74.0708 327.955 74.3511 328.462C74.6352 328.966 74.8208 329.542 74.908 330.19ZM79.2588 338.076C78.7058 338.076 78.2077 337.978 77.7645 337.781C77.3251 337.58 76.9766 337.284 76.719 336.894C76.4652 336.504 76.3384 336.023 76.3384 335.451C76.3384 334.959 76.4293 334.552 76.6111 334.23C76.7929 333.908 77.041 333.65 77.3554 333.457C77.6698 333.264 78.024 333.118 78.4179 333.019C78.8156 332.917 79.2266 332.843 79.6509 332.798C80.1622 332.745 80.577 332.697 80.8952 332.656C81.2134 332.61 81.4444 332.542 81.5884 332.451C81.7361 332.356 81.8099 332.211 81.8099 332.014V331.98C81.8099 331.552 81.683 331.22 81.4293 330.985C81.1755 330.75 80.8099 330.633 80.3327 330.633C79.8289 330.633 79.4293 330.743 79.1338 330.962C78.8421 331.182 78.6452 331.442 78.5429 331.741L76.6224 331.468C76.774 330.938 77.024 330.495 77.3724 330.139C77.7209 329.779 78.1471 329.51 78.6509 329.332C79.1546 329.15 79.7115 329.059 80.3213 329.059C80.7418 329.059 81.1603 329.108 81.577 329.207C81.9937 329.305 82.3743 329.468 82.719 329.695C83.0637 329.919 83.3402 330.224 83.5486 330.61C83.7607 330.997 83.8668 331.48 83.8668 332.059V337.9H81.8895V336.701H81.8213C81.6963 336.944 81.5202 337.171 81.2929 337.383C81.0694 337.591 80.7872 337.76 80.4463 337.889C80.1092 338.014 79.7134 338.076 79.2588 338.076ZM79.7929 336.565C80.2058 336.565 80.5637 336.483 80.8668 336.32C81.1698 336.154 81.4027 335.934 81.5656 335.661C81.7323 335.389 81.8156 335.091 81.8156 334.769V333.741C81.7512 333.794 81.6414 333.843 81.4861 333.889C81.3346 333.934 81.1641 333.974 80.9747 334.008C80.7853 334.042 80.5978 334.072 80.4122 334.099C80.2266 334.125 80.0656 334.148 79.9293 334.167C79.6224 334.209 79.3478 334.277 79.1054 334.372C78.863 334.466 78.6717 334.599 78.5315 334.769C78.3914 334.936 78.3213 335.152 78.3213 335.417C78.3213 335.796 78.4596 336.082 78.7361 336.275C79.0126 336.468 79.3649 336.565 79.7929 336.565ZM92.8327 331.48L90.9577 331.684C90.9046 331.495 90.8118 331.317 90.6793 331.15C90.5505 330.983 90.3762 330.849 90.1565 330.747C89.9368 330.644 89.6679 330.593 89.3497 330.593C88.9217 330.593 88.5618 330.686 88.2702 330.872C87.9823 331.057 87.8402 331.298 87.844 331.593C87.8402 331.847 87.933 332.053 88.1224 332.212C88.3156 332.372 88.6338 332.502 89.077 332.605L90.5656 332.923C91.3914 333.101 92.005 333.383 92.4065 333.769C92.8118 334.156 93.0164 334.661 93.0202 335.286C93.0164 335.836 92.8554 336.32 92.5372 336.741C92.2228 337.158 91.7853 337.483 91.2247 337.718C90.6641 337.953 90.0202 338.07 89.2929 338.07C88.2247 338.07 87.3649 337.847 86.7134 337.4C86.0618 336.949 85.6736 336.322 85.5486 335.519L87.5543 335.326C87.6452 335.72 87.8384 336.017 88.1338 336.218C88.4293 336.419 88.8137 336.519 89.2872 336.519C89.7759 336.519 90.1679 336.419 90.4634 336.218C90.7626 336.017 90.9122 335.769 90.9122 335.474C90.9122 335.224 90.8156 335.017 90.6224 334.855C90.433 334.692 90.1376 334.567 89.7361 334.48L88.2474 334.167C87.4103 333.993 86.791 333.699 86.3895 333.286C85.988 332.87 85.7891 332.343 85.7929 331.707C85.7891 331.169 85.9349 330.703 86.2304 330.309C86.5296 329.911 86.9444 329.605 87.4747 329.389C88.0088 329.169 88.6243 329.059 89.3213 329.059C90.344 329.059 91.149 329.277 91.7361 329.712C92.327 330.148 92.6925 330.737 92.8327 331.48ZM96.773 332.786V337.9H94.7162V326.264H96.7276V330.656H96.8298C97.0344 330.163 97.3507 329.775 97.7787 329.491C98.2105 329.203 98.7598 329.059 99.4264 329.059C100.032 329.059 100.561 329.186 101.012 329.44C101.462 329.694 101.811 330.065 102.057 330.553C102.307 331.042 102.432 331.639 102.432 332.343V337.9H100.375V332.661C100.375 332.074 100.224 331.618 99.9207 331.292C99.6215 330.962 99.201 330.798 98.6594 330.798C98.2957 330.798 97.97 330.877 97.6821 331.036C97.398 331.192 97.1745 331.417 97.0116 331.712C96.8526 332.008 96.773 332.366 96.773 332.786ZM112.304 338.07C111.452 338.07 110.713 337.883 110.088 337.508C109.463 337.133 108.979 336.608 108.634 335.934C108.293 335.26 108.122 334.472 108.122 333.57C108.122 332.669 108.293 331.879 108.634 331.201C108.979 330.523 109.463 329.997 110.088 329.622C110.713 329.247 111.452 329.059 112.304 329.059C113.157 329.059 113.895 329.247 114.52 329.622C115.145 329.997 115.628 330.523 115.969 331.201C116.314 331.879 116.486 332.669 116.486 333.57C116.486 334.472 116.314 335.26 115.969 335.934C115.628 336.608 115.145 337.133 114.52 337.508C113.895 337.883 113.157 338.07 112.304 338.07ZM112.316 336.423C112.778 336.423 113.164 336.296 113.475 336.042C113.785 335.784 114.016 335.44 114.168 335.008C114.323 334.576 114.401 334.095 114.401 333.565C114.401 333.031 114.323 332.548 114.168 332.116C114.016 331.68 113.785 331.334 113.475 331.076C113.164 330.819 112.778 330.69 112.316 330.69C111.842 330.69 111.448 330.819 111.134 331.076C110.823 331.334 110.59 331.68 110.435 332.116C110.283 332.548 110.208 333.031 110.208 333.565C110.208 334.095 110.283 334.576 110.435 335.008C110.59 335.44 110.823 335.784 111.134 336.042C111.448 336.296 111.842 336.423 112.316 336.423ZM120.289 332.786V337.9H118.232V329.173H120.198V330.656H120.3C120.501 330.167 120.821 329.779 121.26 329.491C121.703 329.203 122.251 329.059 122.902 329.059C123.505 329.059 124.029 329.188 124.476 329.445C124.927 329.703 125.275 330.076 125.522 330.565C125.772 331.053 125.895 331.646 125.891 332.343V337.9H123.834V332.661C123.834 332.078 123.683 331.622 123.38 331.292C123.08 330.962 122.666 330.798 122.135 330.798C121.775 330.798 121.455 330.877 121.175 331.036C120.898 331.192 120.681 331.417 120.522 331.712C120.366 332.008 120.289 332.366 120.289 332.786ZM135.985 337.9H132.041V326.264H136.064C137.22 326.264 138.212 326.497 139.041 326.962C139.875 327.425 140.515 328.089 140.962 328.957C141.409 329.824 141.632 330.862 141.632 332.07C141.632 333.283 141.407 334.324 140.956 335.195C140.509 336.067 139.863 336.735 139.019 337.201C138.178 337.667 137.166 337.9 135.985 337.9ZM134.149 336.076H135.882C136.693 336.076 137.369 335.928 137.911 335.633C138.452 335.334 138.86 334.889 139.132 334.298C139.405 333.703 139.541 332.961 139.541 332.07C139.541 331.18 139.405 330.442 139.132 329.855C138.86 329.264 138.456 328.822 137.922 328.531C137.392 328.235 136.733 328.087 135.945 328.087H134.149V336.076ZM147.408 338.07C146.533 338.07 145.777 337.889 145.141 337.525C144.508 337.158 144.022 336.639 143.681 335.968C143.34 335.294 143.169 334.5 143.169 333.587C143.169 332.69 143.34 331.902 143.681 331.224C144.025 330.542 144.506 330.012 145.124 329.633C145.741 329.25 146.467 329.059 147.3 329.059C147.838 329.059 148.345 329.146 148.823 329.32C149.304 329.491 149.728 329.756 150.095 330.116C150.467 330.476 150.758 330.934 150.97 331.491C151.183 332.044 151.289 332.703 151.289 333.468V334.099H144.135V332.712H149.317C149.313 332.319 149.228 331.968 149.061 331.661C148.895 331.351 148.662 331.106 148.362 330.928C148.067 330.75 147.722 330.661 147.328 330.661C146.908 330.661 146.539 330.764 146.22 330.968C145.902 331.169 145.654 331.434 145.476 331.764C145.302 332.089 145.213 332.447 145.209 332.837V334.048C145.209 334.555 145.302 334.991 145.487 335.355C145.673 335.714 145.933 335.991 146.266 336.184C146.599 336.373 146.989 336.468 147.436 336.468C147.736 336.468 148.006 336.427 148.249 336.343C148.491 336.256 148.702 336.129 148.88 335.962C149.058 335.796 149.192 335.589 149.283 335.343L151.203 335.559C151.082 336.067 150.851 336.51 150.51 336.889C150.173 337.264 149.741 337.555 149.215 337.764C148.688 337.968 148.086 338.07 147.408 338.07ZM155.086 326.264V337.9H153.029V326.264H155.086ZM157.201 337.9V329.173H159.257V337.9H157.201ZM158.235 327.934C157.909 327.934 157.629 327.826 157.394 327.61C157.159 327.391 157.041 327.127 157.041 326.82C157.041 326.51 157.159 326.247 157.394 326.031C157.629 325.811 157.909 325.701 158.235 325.701C158.564 325.701 158.845 325.811 159.076 326.031C159.31 326.247 159.428 326.51 159.428 326.82C159.428 327.127 159.31 327.391 159.076 327.61C158.845 327.826 158.564 327.934 158.235 327.934ZM169.168 329.173L166.06 337.9H163.787L160.679 329.173H162.872L164.878 335.656H164.969L166.98 329.173H169.168ZM174.158 338.07C173.283 338.07 172.527 337.889 171.891 337.525C171.258 337.158 170.772 336.639 170.431 335.968C170.09 335.294 169.919 334.5 169.919 333.587C169.919 332.69 170.09 331.902 170.431 331.224C170.775 330.542 171.256 330.012 171.874 329.633C172.491 329.25 173.217 329.059 174.05 329.059C174.588 329.059 175.095 329.146 175.573 329.32C176.054 329.491 176.478 329.756 176.845 330.116C177.217 330.476 177.508 330.934 177.72 331.491C177.933 332.044 178.039 332.703 178.039 333.468V334.099H170.885V332.712H176.067C176.063 332.319 175.978 331.968 175.811 331.661C175.645 331.351 175.412 331.106 175.112 330.928C174.817 330.75 174.472 330.661 174.078 330.661C173.658 330.661 173.289 330.764 172.97 330.968C172.652 331.169 172.404 331.434 172.226 331.764C172.052 332.089 171.963 332.447 171.959 332.837V334.048C171.959 334.555 172.052 334.991 172.237 335.355C172.423 335.714 172.683 335.991 173.016 336.184C173.349 336.373 173.739 336.468 174.186 336.468C174.486 336.468 174.756 336.427 174.999 336.343C175.241 336.256 175.452 336.129 175.63 335.962C175.808 335.796 175.942 335.589 176.033 335.343L177.953 335.559C177.832 336.067 177.601 336.51 177.26 336.889C176.923 337.264 176.491 337.555 175.965 337.764C175.438 337.968 174.836 338.07 174.158 338.07ZM179.779 337.9V329.173H181.773V330.627H181.864C182.023 330.123 182.296 329.735 182.682 329.462C183.072 329.186 183.517 329.048 184.017 329.048C184.131 329.048 184.258 329.053 184.398 329.065C184.542 329.072 184.661 329.086 184.756 329.105V330.997C184.669 330.966 184.531 330.94 184.341 330.917C184.156 330.891 183.976 330.877 183.801 330.877C183.426 330.877 183.089 330.959 182.79 331.122C182.495 331.281 182.262 331.502 182.091 331.786C181.921 332.07 181.836 332.398 181.836 332.769V337.9H179.779ZM187.666 341.173C187.386 341.173 187.127 341.15 186.888 341.105C186.653 341.063 186.466 341.014 186.326 340.957L186.803 339.355C187.102 339.442 187.369 339.483 187.604 339.48C187.839 339.476 188.045 339.402 188.223 339.258C188.405 339.118 188.559 338.883 188.684 338.553L188.86 338.082L185.695 329.173H187.877L189.888 335.764H189.979L191.996 329.173H194.184L190.689 338.957C190.526 339.419 190.31 339.815 190.041 340.144C189.773 340.478 189.443 340.731 189.053 340.906C188.666 341.084 188.204 341.173 187.666 341.173Z" fill="#105004"/>
</svg>
