<svg width="500" height="400" viewBox="0 0 500 400" fill="none" xmlns="http://www.w3.org/2000/svg">
<rect width="500" height="400" rx="20" fill="white"/>
<g clip-path="url(#clip0_1_6171)">
<rect width="402.1" height="44" transform="translate(49 68)" fill="#105004"/>
<path d="M58.1947 97V83.2545H63.6177C64.6602 83.2545 65.5484 83.4537 66.2822 83.8519C67.016 84.2456 67.5753 84.7937 67.9601 85.4962C68.3494 86.1942 68.544 86.9996 68.544 87.9124C68.544 88.8252 68.3472 89.6306 67.9534 90.3286C67.5597 91.0266 66.9892 91.5703 66.2419 91.9596C65.4992 92.3488 64.5998 92.5435 63.5439 92.5435H60.0874V90.2145H63.074C63.6333 90.2145 64.0942 90.1183 64.4566 89.9259C64.8235 89.729 65.0965 89.4583 65.2755 89.1138C65.4589 88.7648 65.5506 88.3643 65.5506 87.9124C65.5506 87.456 65.4589 87.0578 65.2755 86.7178C65.0965 86.3732 64.8235 86.107 64.4566 85.9191C64.0897 85.7267 63.6244 85.6305 63.0606 85.6305H61.1008V97H58.1947ZM70.378 97V86.6909H73.1499V88.4896H73.2573C73.4452 87.8498 73.7607 87.3665 74.2036 87.0399C74.6466 86.7088 75.1567 86.5433 75.7339 86.5433C75.8771 86.5433 76.0314 86.5522 76.197 86.5701C76.3625 86.588 76.508 86.6126 76.6332 86.6439V89.1809C76.499 89.1407 76.3133 89.1049 76.0762 89.0735C75.839 89.0422 75.622 89.0266 75.4252 89.0266C75.0046 89.0266 74.6287 89.1183 74.2976 89.3017C73.971 89.4807 73.7114 89.7313 73.519 90.0534C73.3311 90.3756 73.2372 90.747 73.2372 91.1676V97H70.378ZM82.2895 97.2013C81.2469 97.2013 80.3453 96.9799 79.5847 96.5369C78.8285 96.0895 78.2446 95.4675 77.833 94.6711C77.4213 93.8701 77.2155 92.9417 77.2155 91.8857C77.2155 90.8208 77.4213 89.8901 77.833 89.0937C78.2446 88.2928 78.8285 87.6708 79.5847 87.2278C80.3453 86.7804 81.2469 86.5567 82.2895 86.5567C83.332 86.5567 84.2314 86.7804 84.9876 87.2278C85.7482 87.6708 86.3344 88.2928 86.746 89.0937C87.1577 89.8901 87.3635 90.8208 87.3635 91.8857C87.3635 92.9417 87.1577 93.8701 86.746 94.6711C86.3344 95.4675 85.7482 96.0895 84.9876 96.5369C84.2314 96.9799 83.332 97.2013 82.2895 97.2013ZM82.3029 94.9865C82.7772 94.9865 83.1732 94.8523 83.4909 94.5838C83.8086 94.3109 84.0479 93.9395 84.209 93.4697C84.3746 92.9999 84.4574 92.4652 84.4574 91.8656C84.4574 91.266 84.3746 90.7313 84.209 90.2615C84.0479 89.7917 83.8086 89.4203 83.4909 89.1474C83.1732 88.8744 82.7772 88.738 82.3029 88.738C81.8241 88.738 81.4214 88.8744 81.0948 89.1474C80.7727 89.4203 80.5288 89.7917 80.3632 90.2615C80.2022 90.7313 80.1216 91.266 80.1216 91.8656C80.1216 92.4652 80.2022 92.9999 80.3632 93.4697C80.5288 93.9395 80.7727 94.3109 81.0948 94.5838C81.4214 94.8523 81.8241 94.9865 82.3029 94.9865ZM93.0214 97.1678C92.2384 97.1678 91.5292 96.9664 90.8938 96.5637C90.2629 96.1566 89.7618 95.5592 89.3904 94.7717C89.0235 93.9798 88.8401 93.0088 88.8401 91.8589C88.8401 90.6776 89.0302 89.6955 89.4105 88.9125C89.7909 88.125 90.2965 87.5366 90.9274 87.1473C91.5627 86.7536 92.2585 86.5567 93.0147 86.5567C93.5919 86.5567 94.0729 86.6551 94.4577 86.852C94.847 87.0444 95.1602 87.286 95.3973 87.5768C95.639 87.8632 95.8224 88.1451 95.9477 88.4225H96.0349V83.2545H98.8874V97H96.0685V95.3489H95.9477C95.8135 95.6353 95.6233 95.9194 95.3772 96.2013C95.1356 96.4787 94.8201 96.7092 94.4309 96.8926C94.0461 97.0761 93.5762 97.1678 93.0214 97.1678ZM93.9275 94.8925C94.3884 94.8925 94.7776 94.7673 95.0953 94.5167C95.4175 94.2616 95.6636 93.9059 95.8336 93.4495C96.0081 92.9931 96.0953 92.4585 96.0953 91.8455C96.0953 91.2325 96.0103 90.7 95.8403 90.2481C95.6703 89.7962 95.4242 89.4472 95.102 89.2011C94.7799 88.955 94.3884 88.8319 93.9275 88.8319C93.4577 88.8319 93.0617 88.9594 92.7395 89.2145C92.4174 89.4695 92.1735 89.823 92.008 90.2749C91.8424 90.7268 91.7596 91.2504 91.7596 91.8455C91.7596 92.445 91.8424 92.9752 92.008 93.4361C92.178 93.8925 92.4218 94.2505 92.7395 94.51C93.0617 94.765 93.4577 94.8925 93.9275 94.8925ZM107.849 92.6106V86.6909H110.708V97H107.963V95.1275H107.856C107.623 95.7315 107.236 96.217 106.695 96.5839C106.158 96.9508 105.502 97.1342 104.728 97.1342C104.039 97.1342 103.433 96.9776 102.909 96.6644C102.386 96.3512 101.976 95.906 101.681 95.3288C101.39 94.7516 101.243 94.0603 101.238 93.2549V86.6909H104.097V92.7448C104.102 93.3533 104.265 93.8343 104.587 94.1878C104.909 94.5413 105.341 94.718 105.883 94.718C106.227 94.718 106.549 94.6397 106.849 94.4831C107.149 94.3221 107.39 94.0849 107.574 93.7717C107.762 93.4585 107.854 93.0714 107.849 92.6106ZM117.653 97.2013C116.597 97.2013 115.689 96.9776 114.928 96.5302C114.172 96.0783 113.59 95.4518 113.183 94.6509C112.781 93.85 112.579 92.9283 112.579 91.8857C112.579 90.8298 112.783 89.9036 113.19 89.1071C113.602 88.3062 114.185 87.682 114.942 87.2346C115.698 86.7826 116.597 86.5567 117.64 86.5567C118.539 86.5567 119.327 86.72 120.002 87.0466C120.678 87.3733 121.213 87.8319 121.606 88.4225C122 89.0131 122.217 89.7067 122.257 90.5031H119.559C119.483 89.9886 119.282 89.5747 118.955 89.2615C118.633 88.9438 118.21 88.7849 117.687 88.7849C117.244 88.7849 116.857 88.9058 116.526 89.1474C116.199 89.3845 115.944 89.7313 115.76 90.1877C115.577 90.6441 115.485 91.1967 115.485 91.8455C115.485 92.5032 115.575 93.0625 115.754 93.5234C115.937 93.9842 116.194 94.3355 116.526 94.5771C116.857 94.8187 117.244 94.9395 117.687 94.9395C118.013 94.9395 118.306 94.8724 118.566 94.7382C118.83 94.6039 119.047 94.4093 119.217 94.1543C119.391 93.8947 119.506 93.5838 119.559 93.2213H122.257C122.213 94.0088 121.998 94.7024 121.613 95.302C121.233 95.8971 120.707 96.3624 120.036 96.698C119.365 97.0336 118.57 97.2013 117.653 97.2013ZM129.571 86.6909V88.8386H123.363V86.6909H129.571ZM124.773 84.221H127.632V93.8321C127.632 94.0961 127.672 94.3019 127.753 94.4496C127.833 94.5928 127.945 94.6934 128.088 94.7516C128.236 94.8098 128.406 94.8388 128.598 94.8388C128.732 94.8388 128.867 94.8277 129.001 94.8053C129.135 94.7784 129.238 94.7583 129.31 94.7449L129.759 96.8725C129.616 96.9172 129.415 96.9687 129.155 97.0268C128.896 97.0895 128.58 97.1275 128.209 97.1409C127.52 97.1678 126.916 97.0761 126.397 96.8658C125.882 96.6555 125.482 96.3288 125.195 95.8859C124.909 95.4429 124.768 94.8836 124.773 94.208V84.221ZM138.956 97L135.023 83.2545H138.198L140.473 92.8052H140.587L143.097 83.2545H145.815L148.319 92.8254H148.439L150.715 83.2545H153.889L149.956 97H147.124L144.506 88.0131H144.399L141.788 97H138.956ZM158.982 97.2013C157.921 97.2013 157.009 96.9866 156.243 96.557C155.483 96.123 154.897 95.51 154.485 94.718C154.073 93.9216 153.868 92.9797 153.868 91.8924C153.868 90.832 154.073 89.9013 154.485 89.1004C154.897 88.2995 155.476 87.6753 156.223 87.2278C156.975 86.7804 157.856 86.5567 158.868 86.5567C159.548 86.5567 160.181 86.6663 160.767 86.8855C161.358 87.1003 161.872 87.4247 162.311 87.8587C162.754 88.2928 163.098 88.8386 163.344 89.4964C163.59 90.1496 163.714 90.9148 163.714 91.7918V92.577H155.009V90.8051H161.022C161.022 90.3935 160.933 90.0288 160.754 89.7112C160.575 89.3935 160.326 89.1451 160.009 88.9662C159.695 88.7827 159.331 88.691 158.915 88.691C158.481 88.691 158.096 88.7917 157.76 88.993C157.429 89.1899 157.17 89.4561 156.982 89.7917C156.794 90.1228 156.698 90.4919 156.693 90.8991V92.5837C156.693 93.0938 156.787 93.5346 156.975 93.9059C157.167 94.2773 157.438 94.5637 157.787 94.765C158.136 94.9664 158.55 95.067 159.029 95.067C159.346 95.067 159.637 95.0223 159.901 94.9328C160.165 94.8433 160.391 94.7091 160.579 94.5301C160.767 94.3511 160.91 94.1319 161.009 93.8724L163.653 94.0469C163.519 94.6822 163.244 95.2371 162.828 95.7114C162.416 96.1812 161.883 96.5481 161.23 96.8121C160.581 97.0716 159.832 97.2013 158.982 97.2013ZM165.579 97V86.6909H168.439V97H165.579ZM167.016 85.362C166.591 85.362 166.226 85.2211 165.922 84.9392C165.622 84.6528 165.472 84.3105 165.472 83.9123C165.472 83.5185 165.622 83.1807 165.922 82.8988C166.226 82.6125 166.591 82.4693 167.016 82.4693C167.441 82.4693 167.803 82.6125 168.103 82.8988C168.407 83.1807 168.559 83.5185 168.559 83.9123C168.559 84.3105 168.407 84.6528 168.103 84.9392C167.803 85.2211 167.441 85.362 167.016 85.362ZM175.373 101.081C174.447 101.081 173.653 100.953 172.991 100.698C172.333 100.448 171.809 100.105 171.42 99.6712C171.031 99.2372 170.778 98.7495 170.662 98.2081L173.306 97.8524C173.387 98.0582 173.514 98.2506 173.689 98.4296C173.863 98.6086 174.094 98.7517 174.38 98.8591C174.671 98.971 175.024 99.0269 175.44 99.0269C176.062 99.0269 176.575 98.8748 176.977 98.5705C177.385 98.2707 177.588 97.7674 177.588 97.0604V95.1744H177.467C177.342 95.4608 177.154 95.7315 176.904 95.9865C176.653 96.2416 176.331 96.4496 175.937 96.6107C175.543 96.7718 175.074 96.8523 174.528 96.8523C173.754 96.8523 173.049 96.6734 172.413 96.3154C171.783 95.953 171.279 95.4004 170.903 94.6576C170.532 93.9104 170.346 92.9663 170.346 91.8253C170.346 90.6575 170.536 89.6821 170.917 88.899C171.297 88.116 171.803 87.5299 172.434 87.1406C173.069 86.7513 173.765 86.5567 174.521 86.5567C175.098 86.5567 175.581 86.6551 175.971 86.852C176.36 87.0444 176.673 87.286 176.91 87.5768C177.152 87.8632 177.338 88.1451 177.467 88.4225H177.575V86.6909H180.414V97.1007C180.414 97.9777 180.199 98.7115 179.769 99.3021C179.34 99.8927 178.745 100.336 177.984 100.631C177.228 100.931 176.358 101.081 175.373 101.081ZM175.434 94.7046C175.895 94.7046 176.284 94.5905 176.602 94.3623C176.924 94.1297 177.17 93.7985 177.34 93.369C177.514 92.935 177.602 92.4159 177.602 91.8119C177.602 91.2078 177.517 90.6843 177.347 90.2414C177.177 89.7939 176.93 89.4472 176.608 89.2011C176.286 88.955 175.895 88.8319 175.434 88.8319C174.964 88.8319 174.568 88.9594 174.246 89.2145C173.924 89.4651 173.68 89.8141 173.514 90.2615C173.349 90.7089 173.266 91.2257 173.266 91.8119C173.266 92.407 173.349 92.9216 173.514 93.3556C173.684 93.7851 173.928 94.1185 174.246 94.3556C174.568 94.5883 174.964 94.7046 175.434 94.7046ZM185.548 91.0401V97H182.689V83.2545H185.468V88.5098H185.588C185.821 87.9012 186.197 87.4247 186.716 87.0802C187.235 86.7312 187.886 86.5567 188.669 86.5567C189.385 86.5567 190.009 86.7133 190.542 87.0265C191.079 87.3352 191.495 87.7804 191.79 88.3621C192.09 88.9393 192.237 89.6306 192.233 90.436V97H189.374V90.9461C189.378 90.3107 189.217 89.8163 188.891 89.4628C188.568 89.1093 188.117 88.9326 187.535 88.9326C187.146 88.9326 186.801 89.0154 186.501 89.1809C186.206 89.3465 185.973 89.5881 185.803 89.9058C185.638 90.219 185.553 90.5971 185.548 91.0401ZM199.966 86.6909V88.8386H193.758V86.6909H199.966ZM195.168 84.221H198.027V93.8321C198.027 94.0961 198.067 94.3019 198.148 94.4496C198.228 94.5928 198.34 94.6934 198.483 94.7516C198.631 94.8098 198.801 94.8388 198.993 94.8388C199.128 94.8388 199.262 94.8277 199.396 94.8053C199.53 94.7784 199.633 94.7583 199.705 94.7449L200.154 96.8725C200.011 96.9172 199.81 96.9687 199.55 97.0268C199.291 97.0895 198.975 97.1275 198.604 97.1409C197.915 97.1678 197.311 97.0761 196.792 96.8658C196.277 96.6555 195.877 96.3288 195.59 95.8859C195.304 95.4429 195.163 94.8836 195.168 94.208V84.221Z" fill="white"/>
<path d="M307.923 88.0668H304.983C304.929 87.6865 304.82 87.3487 304.654 87.0533C304.488 86.7536 304.276 86.4985 304.016 86.2882C303.757 86.0779 303.457 85.9168 303.117 85.805C302.781 85.6931 302.417 85.6372 302.023 85.6372C301.312 85.6372 300.692 85.8139 300.164 86.1674C299.636 86.5164 299.227 87.0265 298.936 87.6977C298.645 88.3643 298.499 89.1742 298.499 90.1273C298.499 91.1072 298.645 91.9305 298.936 92.5972C299.231 93.2638 299.643 93.7672 300.171 94.1073C300.699 94.4473 301.309 94.6174 302.003 94.6174C302.392 94.6174 302.752 94.5659 303.083 94.463C303.419 94.3601 303.717 94.2102 303.976 94.0133C304.236 93.812 304.45 93.5681 304.62 93.2817C304.795 92.9954 304.916 92.6687 304.983 92.3018L307.923 92.3153C307.847 92.9462 307.656 93.5547 307.352 94.1408C307.052 94.7225 306.647 95.2438 306.137 95.7047C305.632 96.161 305.028 96.5235 304.325 96.7919C303.627 97.0559 302.837 97.1879 301.956 97.1879C300.73 97.1879 299.634 96.9105 298.667 96.3557C297.705 95.8009 296.945 94.9977 296.385 93.9462C295.83 92.8947 295.553 91.6217 295.553 90.1273C295.553 88.6283 295.835 87.3531 296.399 86.3016C296.962 85.2501 297.728 84.4492 298.694 83.8989C299.661 83.344 300.748 83.0666 301.956 83.0666C302.752 83.0666 303.491 83.1785 304.171 83.4022C304.855 83.6259 305.462 83.9526 305.99 84.3821C306.518 84.8072 306.947 85.3284 307.278 85.9459C307.614 86.5634 307.829 87.2703 307.923 88.0668ZM322.638 90.1273C322.638 91.6262 322.354 92.9014 321.786 93.9529C321.222 95.0044 320.452 95.8076 319.477 96.3624C318.506 96.9127 317.414 97.1879 316.201 97.1879C314.98 97.1879 313.884 96.9105 312.913 96.3557C311.942 95.8009 311.174 94.9977 310.611 93.9462C310.047 92.8947 309.765 91.6217 309.765 90.1273C309.765 88.6283 310.047 87.3531 310.611 86.3016C311.174 85.2501 311.942 84.4492 312.913 83.8989C313.884 83.344 314.98 83.0666 316.201 83.0666C317.414 83.0666 318.506 83.344 319.477 83.8989C320.452 84.4492 321.222 85.2501 321.786 86.3016C322.354 87.3531 322.638 88.6283 322.638 90.1273ZM319.691 90.1273C319.691 89.1563 319.546 88.3375 319.255 87.6708C318.969 87.0041 318.564 86.4985 318.04 86.154C317.517 85.8094 316.904 85.6372 316.201 85.6372C315.499 85.6372 314.886 85.8094 314.362 86.154C313.839 86.4985 313.432 87.0041 313.141 87.6708C312.855 88.3375 312.711 89.1563 312.711 90.1273C312.711 91.0982 312.855 91.917 313.141 92.5837C313.432 93.2504 313.839 93.756 314.362 94.1006C314.886 94.4451 315.499 94.6174 316.201 94.6174C316.904 94.6174 317.517 94.4451 318.04 94.1006C318.564 93.756 318.969 93.2504 319.255 92.5837C319.546 91.917 319.691 91.0982 319.691 90.1273ZM329.663 97H324.791V83.2545H329.704C331.086 83.2545 332.276 83.5297 333.274 84.0801C334.272 84.626 335.039 85.4112 335.576 86.4359C336.118 87.4605 336.388 88.6865 336.388 90.1138C336.388 91.5457 336.118 92.7761 335.576 93.8053C335.039 94.8344 334.267 95.6241 333.261 96.1745C332.258 96.7248 331.059 97 329.663 97ZM327.697 94.51H329.542C330.402 94.51 331.124 94.3578 331.71 94.0536C332.301 93.7449 332.744 93.2683 333.039 92.624C333.339 91.9752 333.489 91.1385 333.489 90.1138C333.489 89.0982 333.339 88.2681 333.039 87.6238C332.744 86.9795 332.303 86.5052 331.717 86.201C331.131 85.8967 330.408 85.7446 329.549 85.7446H327.697V94.51ZM342.915 97V83.2545H352.016V85.6506H345.822V88.9259H351.412V91.3219H345.822V97H342.915ZM357.859 97.2013C356.798 97.2013 355.886 96.9866 355.121 96.557C354.36 96.123 353.774 95.51 353.362 94.718C352.95 93.9216 352.745 92.9797 352.745 91.8924C352.745 90.832 352.95 89.9013 353.362 89.1004C353.774 88.2995 354.353 87.6753 355.1 87.2278C355.852 86.7804 356.734 86.5567 357.745 86.5567C358.425 86.5567 359.058 86.6663 359.644 86.8855C360.235 87.1003 360.749 87.4247 361.188 87.8587C361.631 88.2928 361.975 88.8386 362.222 89.4964C362.468 90.1496 362.591 90.9148 362.591 91.7918V92.577H353.886V90.8051H359.899C359.899 90.3935 359.81 90.0288 359.631 89.7112C359.452 89.3935 359.203 89.1451 358.886 88.9662C358.573 88.7827 358.208 88.691 357.792 88.691C357.358 88.691 356.973 88.7917 356.637 88.993C356.306 89.1899 356.047 89.4561 355.859 89.7917C355.671 90.1228 355.575 90.4919 355.57 90.8991V92.5837C355.57 93.0938 355.664 93.5346 355.852 93.9059C356.045 94.2773 356.315 94.5637 356.664 94.765C357.013 94.9664 357.427 95.067 357.906 95.067C358.224 95.067 358.514 95.0223 358.778 94.9328C359.042 94.8433 359.268 94.7091 359.456 94.5301C359.644 94.3511 359.787 94.1319 359.886 93.8724L362.53 94.0469C362.396 94.6822 362.121 95.2371 361.705 95.7114C361.293 96.1812 360.761 96.5481 360.107 96.8121C359.459 97.0716 358.709 97.2013 357.859 97.2013ZM369.155 97.2013C368.094 97.2013 367.181 96.9866 366.416 96.557C365.656 96.123 365.069 95.51 364.658 94.718C364.246 93.9216 364.04 92.9797 364.04 91.8924C364.04 90.832 364.246 89.9013 364.658 89.1004C365.069 88.2995 365.649 87.6753 366.396 87.2278C367.148 86.7804 368.029 86.5567 369.041 86.5567C369.721 86.5567 370.354 86.6663 370.94 86.8855C371.531 87.1003 372.045 87.4247 372.484 87.8587C372.927 88.2928 373.271 88.8386 373.517 89.4964C373.763 90.1496 373.886 90.9148 373.886 91.7918V92.577H365.181V90.8051H371.195C371.195 90.3935 371.105 90.0288 370.927 89.7112C370.748 89.3935 370.499 89.1451 370.182 88.9662C369.868 88.7827 369.504 88.691 369.088 88.691C368.654 88.691 368.269 88.7917 367.933 88.993C367.602 89.1899 367.342 89.4561 367.155 89.7917C366.967 90.1228 366.87 90.4919 366.866 90.8991V92.5837C366.866 93.0938 366.96 93.5346 367.148 93.9059C367.34 94.2773 367.611 94.5637 367.96 94.765C368.309 94.9664 368.723 95.067 369.202 95.067C369.519 95.067 369.81 95.0223 370.074 94.9328C370.338 94.8433 370.564 94.7091 370.752 94.5301C370.94 94.3511 371.083 94.1319 371.182 93.8724L373.826 94.0469C373.692 94.6822 373.417 95.2371 373 95.7114C372.589 96.1812 372.056 96.5481 371.403 96.8121C370.754 97.0716 370.005 97.2013 369.155 97.2013Z" fill="white"/>
<rect x="49.675" y="128.875" width="147.15" height="37.45" rx="10.125" stroke="#EFEFEF" stroke-width="1.35"/>
<path d="M63.0561 148.479V147.405L71.7007 143.002V144.72L65.0696 147.915L65.1233 147.808V148.076L65.0696 147.969L71.7007 151.164V152.882L63.0561 148.479ZM79.8638 140.855V154.6H78.1993V142.6H78.1187L74.7629 144.828V143.136L78.1993 140.855H79.8638ZM88.3003 154.788C87.2891 154.788 86.4278 154.513 85.7163 153.962C85.0049 153.408 84.4613 152.604 84.0854 151.553C83.7095 150.497 83.5216 149.222 83.5216 147.727C83.5216 146.242 83.7095 144.973 84.0854 143.922C84.4657 142.866 85.0116 142.06 85.723 141.506C86.439 140.946 87.298 140.667 88.3003 140.667C89.3026 140.667 90.1594 140.946 90.8709 141.506C91.5868 142.06 92.1327 142.866 92.5085 143.922C92.8888 144.973 93.079 146.242 93.079 147.727C93.079 149.222 92.8911 150.497 92.5152 151.553C92.1394 152.604 91.5957 153.408 90.8843 153.962C90.1729 154.513 89.3115 154.788 88.3003 154.788ZM88.3003 153.311C89.3026 153.311 90.0811 152.828 90.636 151.862C91.1908 150.895 91.4682 149.517 91.4682 147.727C91.4682 146.537 91.3407 145.524 91.0857 144.687C90.8351 143.85 90.4727 143.213 89.9984 142.774C89.5285 142.336 88.9625 142.116 88.3003 142.116C87.307 142.116 86.5307 142.606 85.9714 143.586C85.4121 144.562 85.1324 145.942 85.1324 147.727C85.1324 148.917 85.2577 149.929 85.5083 150.761C85.7588 151.593 86.119 152.226 86.5888 152.66C87.0631 153.094 87.6336 153.311 88.3003 153.311ZM100.113 154.788C99.1016 154.788 98.2403 154.513 97.5288 153.962C96.8174 153.408 96.2738 152.604 95.8979 151.553C95.522 150.497 95.3341 149.222 95.3341 147.727C95.3341 146.242 95.522 144.973 95.8979 143.922C96.2782 142.866 96.8241 142.06 97.5355 141.506C98.2515 140.946 99.1105 140.667 100.113 140.667C101.115 140.667 101.972 140.946 102.683 141.506C103.399 142.06 103.945 142.866 104.321 143.922C104.701 144.973 104.892 146.242 104.892 147.727C104.892 149.222 104.704 150.497 104.328 151.553C103.952 152.604 103.408 153.408 102.697 153.962C101.985 154.513 101.124 154.788 100.113 154.788ZM100.113 153.311C101.115 153.311 101.894 152.828 102.448 151.862C103.003 150.895 103.281 149.517 103.281 147.727C103.281 146.537 103.153 145.524 102.898 144.687C102.648 143.85 102.285 143.213 101.811 142.774C101.341 142.336 100.775 142.116 100.113 142.116C99.1195 142.116 98.3432 142.606 97.7839 143.586C97.2246 144.562 96.9449 145.942 96.9449 147.727C96.9449 148.917 97.0702 149.929 97.3208 150.761C97.5713 151.593 97.9315 152.226 98.4013 152.66C98.8756 153.094 99.4461 153.311 100.113 153.311ZM111.63 158.681C110.865 158.681 110.207 158.582 109.657 158.385C109.106 158.193 108.648 157.938 108.281 157.62C107.918 157.307 107.63 156.971 107.415 156.613L108.677 155.728C108.82 155.915 109.001 156.13 109.221 156.372C109.44 156.618 109.74 156.83 110.12 157.009C110.505 157.193 111.008 157.285 111.63 157.285C112.462 157.285 113.149 157.083 113.69 156.681C114.232 156.278 114.503 155.647 114.503 154.788V152.694H114.368C114.252 152.882 114.086 153.114 113.872 153.392C113.661 153.665 113.357 153.909 112.959 154.123C112.565 154.334 112.033 154.439 111.362 154.439C110.529 154.439 109.782 154.242 109.12 153.848C108.462 153.455 107.941 152.882 107.556 152.13C107.176 151.378 106.986 150.466 106.986 149.392C106.986 148.336 107.171 147.416 107.543 146.633C107.914 145.846 108.431 145.237 109.093 144.808C109.755 144.374 110.52 144.157 111.388 144.157C112.06 144.157 112.592 144.269 112.986 144.492C113.384 144.712 113.688 144.962 113.899 145.244C114.113 145.521 114.279 145.75 114.395 145.929H114.556V144.291H116.087V154.895C116.087 155.781 115.885 156.502 115.482 157.056C115.084 157.616 114.547 158.025 113.872 158.285C113.201 158.549 112.453 158.681 111.63 158.681ZM111.576 153.016C112.212 153.016 112.749 152.871 113.187 152.58C113.626 152.289 113.959 151.871 114.187 151.325C114.415 150.779 114.529 150.126 114.529 149.365C114.529 148.622 114.418 147.967 114.194 147.398C113.97 146.83 113.639 146.385 113.201 146.063C112.762 145.741 112.221 145.58 111.576 145.58C110.905 145.58 110.346 145.75 109.898 146.09C109.455 146.43 109.122 146.886 108.898 147.459C108.679 148.032 108.569 148.667 108.569 149.365C108.569 150.081 108.681 150.714 108.905 151.264C109.133 151.81 109.469 152.24 109.912 152.553C110.359 152.862 110.914 153.016 111.576 153.016Z" fill="black"/>
<path d="M179.255 142.26L180.97 143.975M180.357 140.75L175.718 145.389C175.478 145.628 175.314 145.933 175.249 146.265L174.82 148.41L176.965 147.981C177.297 147.914 177.602 147.751 177.841 147.512L182.48 142.873C182.62 142.733 182.73 142.568 182.806 142.386C182.881 142.204 182.92 142.008 182.92 141.811C182.92 141.614 182.881 141.419 182.806 141.237C182.73 141.055 182.62 140.889 182.48 140.75C182.341 140.61 182.175 140.5 181.993 140.424C181.811 140.349 181.616 140.31 181.419 140.31C181.222 140.31 181.027 140.349 180.844 140.424C180.662 140.5 180.497 140.61 180.357 140.75Z" stroke="#C7C7C7" stroke-width="1.62" stroke-linecap="round" stroke-linejoin="round"/>
<path d="M181.3 150.03V152.46C181.3 152.89 181.129 153.302 180.826 153.606C180.522 153.909 180.11 154.08 179.68 154.08H170.77C170.34 154.08 169.928 153.909 169.625 153.606C169.321 153.302 169.15 152.89 169.15 152.46V143.55C169.15 143.12 169.321 142.708 169.625 142.404C169.928 142.101 170.34 141.93 170.77 141.93H173.2" stroke="#C7C7C7" stroke-width="1.62" stroke-linecap="round" stroke-linejoin="round"/>
<rect x="287.275" y="128.875" width="147.15" height="37.45" rx="10.125" stroke="#EFEFEF" stroke-width="1.35"/>
<path d="M299.945 154.6V140.855H309.046V143.251H302.851V146.526H308.441V148.922H302.851V154.6H299.945ZM310.781 154.6V144.291H313.552V146.09H313.66C313.848 145.45 314.163 144.967 314.606 144.64C315.049 144.309 315.559 144.143 316.136 144.143C316.28 144.143 316.434 144.152 316.6 144.17C316.765 144.188 316.91 144.213 317.036 144.244V146.781C316.902 146.741 316.716 146.705 316.479 146.674C316.242 146.642 316.025 146.627 315.828 146.627C315.407 146.627 315.031 146.718 314.7 146.902C314.373 147.081 314.114 147.331 313.922 147.653C313.734 147.976 313.64 148.347 313.64 148.768V154.6H310.781ZM322.732 154.801C321.672 154.801 320.759 154.587 319.994 154.157C319.233 153.723 318.647 153.11 318.235 152.318C317.824 151.522 317.618 150.58 317.618 149.492C317.618 148.432 317.824 147.501 318.235 146.7C318.647 145.899 319.227 145.275 319.974 144.828C320.725 144.38 321.607 144.157 322.618 144.157C323.298 144.157 323.931 144.266 324.518 144.486C325.108 144.7 325.623 145.025 326.061 145.459C326.504 145.893 326.849 146.439 327.095 147.096C327.341 147.75 327.464 148.515 327.464 149.392V150.177H318.759V148.405H324.773C324.773 147.993 324.683 147.629 324.504 147.311C324.325 146.993 324.077 146.745 323.759 146.566C323.446 146.383 323.081 146.291 322.665 146.291C322.231 146.291 321.846 146.392 321.511 146.593C321.18 146.79 320.92 147.056 320.732 147.392C320.544 147.723 320.448 148.092 320.444 148.499V150.184C320.444 150.694 320.538 151.135 320.725 151.506C320.918 151.877 321.189 152.164 321.538 152.365C321.887 152.566 322.3 152.667 322.779 152.667C323.097 152.667 323.388 152.622 323.652 152.533C323.916 152.443 324.142 152.309 324.33 152.13C324.518 151.951 324.661 151.732 324.759 151.472L327.404 151.647C327.269 152.282 326.994 152.837 326.578 153.311C326.166 153.781 325.634 154.148 324.981 154.412C324.332 154.672 323.582 154.801 322.732 154.801ZM334.028 154.801C332.968 154.801 332.055 154.587 331.29 154.157C330.529 153.723 329.943 153.11 329.531 152.318C329.12 151.522 328.914 150.58 328.914 149.492C328.914 148.432 329.12 147.501 329.531 146.7C329.943 145.899 330.522 145.275 331.269 144.828C332.021 144.38 332.903 144.157 333.914 144.157C334.594 144.157 335.227 144.266 335.813 144.486C336.404 144.7 336.918 145.025 337.357 145.459C337.8 145.893 338.144 146.439 338.391 147.096C338.637 147.75 338.76 148.515 338.76 149.392V150.177H330.055V148.405H336.068C336.068 147.993 335.979 147.629 335.8 147.311C335.621 146.993 335.373 146.745 335.055 146.566C334.742 146.383 334.377 146.291 333.961 146.291C333.527 146.291 333.142 146.392 332.806 146.593C332.475 146.79 332.216 147.056 332.028 147.392C331.84 147.723 331.744 148.092 331.739 148.499V150.184C331.739 150.694 331.833 151.135 332.021 151.506C332.214 151.877 332.484 152.164 332.833 152.365C333.182 152.566 333.596 152.667 334.075 152.667C334.393 152.667 334.683 152.622 334.947 152.533C335.211 152.443 335.437 152.309 335.625 152.13C335.813 151.951 335.956 151.732 336.055 151.472L338.699 151.647C338.565 152.282 338.29 152.837 337.874 153.311C337.462 153.781 336.93 154.148 336.276 154.412C335.628 154.672 334.878 154.801 334.028 154.801Z" fill="#105004"/>
<path d="M416.855 142.26L418.57 143.975M417.957 140.75L413.318 145.389C413.078 145.628 412.914 145.933 412.849 146.265L412.42 148.41L414.565 147.981C414.897 147.914 415.202 147.751 415.441 147.512L420.08 142.873C420.22 142.733 420.33 142.568 420.406 142.386C420.481 142.204 420.52 142.008 420.52 141.811C420.52 141.614 420.481 141.419 420.406 141.237C420.33 141.055 420.22 140.889 420.08 140.75C419.941 140.61 419.775 140.5 419.593 140.424C419.411 140.349 419.216 140.31 419.019 140.31C418.822 140.31 418.626 140.349 418.444 140.424C418.262 140.5 418.097 140.61 417.957 140.75Z" stroke="#C7C7C7" stroke-width="1.62" stroke-linecap="round" stroke-linejoin="round"/>
<path d="M418.9 150.03V152.46C418.9 152.89 418.729 153.302 418.426 153.606C418.122 153.909 417.71 154.08 417.28 154.08H408.37C407.94 154.08 407.528 153.909 407.224 153.606C406.921 153.302 406.75 152.89 406.75 152.46V143.55C406.75 143.12 406.921 142.708 407.224 142.404C407.528 142.101 407.94 141.93 408.37 141.93H410.8" stroke="#C7C7C7" stroke-width="1.62" stroke-linecap="round" stroke-linejoin="round"/>
<rect x="49.675" y="183.875" width="147.15" height="37.45" rx="10.125" stroke="#EFEFEF" stroke-width="1.35"/>
<path d="M63.0561 203.479V202.405L71.7007 198.002V199.72L65.0696 202.915L65.1233 202.808V203.076L65.0696 202.969L71.7007 206.164V207.882L63.0561 203.479ZM75.0314 209.6V208.392L79.5685 203.425C80.1009 202.844 80.5394 202.338 80.8839 201.908C81.2285 201.474 81.4835 201.067 81.6491 200.687C81.8191 200.302 81.9041 199.899 81.9041 199.479C81.9041 198.996 81.7878 198.577 81.5551 198.224C81.3269 197.87 81.0137 197.597 80.6155 197.405C80.2173 197.213 79.7698 197.116 79.2732 197.116C78.7452 197.116 78.2843 197.226 77.8906 197.445C77.5013 197.66 77.1993 197.962 76.9845 198.351C76.7742 198.741 76.669 199.197 76.669 199.72H75.0851C75.0851 198.915 75.2708 198.208 75.6421 197.6C76.0135 196.991 76.5191 196.517 77.159 196.177C77.8033 195.837 78.5259 195.667 79.3268 195.667C80.1322 195.667 80.8459 195.837 81.4679 196.177C82.0898 196.517 82.5775 196.975 82.931 197.553C83.2845 198.13 83.4612 198.772 83.4612 199.479C83.4612 199.984 83.3695 200.479 83.186 200.962C83.0071 201.441 82.6939 201.976 82.2464 202.566C81.8034 203.152 81.1882 203.868 80.4007 204.714L77.3134 208.016V208.123H83.7028V209.6H75.0314ZM90.7702 209.788C89.9827 209.788 89.2735 209.631 88.6426 209.318C88.0117 209.005 87.5061 208.575 87.1258 208.029C86.7455 207.484 86.5374 206.862 86.5016 206.164H88.1124C88.175 206.786 88.4569 207.3 88.9581 207.707C89.4637 208.11 90.0677 208.311 90.7702 208.311C91.334 208.311 91.8351 208.179 92.2736 207.915C92.7166 207.651 93.0634 207.289 93.3139 206.828C93.569 206.363 93.6965 205.837 93.6965 205.251C93.6965 204.651 93.5645 204.117 93.3005 203.647C93.041 203.172 92.683 202.799 92.2266 202.526C91.7702 202.253 91.249 202.114 90.6628 202.11C90.2422 202.105 89.8104 202.17 89.3675 202.304C88.9245 202.434 88.5598 202.602 88.2735 202.808L86.7164 202.62L87.5486 195.855H94.6898V197.331H88.9446L88.4614 201.385H88.5419C88.8238 201.161 89.1773 200.976 89.6024 200.828C90.0274 200.68 90.4704 200.606 90.9313 200.606C91.7725 200.606 92.5219 200.808 93.1797 201.21C93.8419 201.609 94.3609 202.155 94.7368 202.848C95.1171 203.542 95.3073 204.334 95.3073 205.224C95.3073 206.101 95.1104 206.884 94.7167 207.573C94.3274 208.258 93.7904 208.799 93.1059 209.197C92.4213 209.591 91.6427 209.788 90.7702 209.788ZM102.457 209.788C101.446 209.788 100.584 209.513 99.8729 208.962C99.1614 208.408 98.6178 207.604 98.2419 206.553C97.8661 205.497 97.6782 204.222 97.6782 202.727C97.6782 201.242 97.8661 199.973 98.2419 198.922C98.6223 197.866 99.1682 197.06 99.8796 196.506C100.595 195.946 101.455 195.667 102.457 195.667C103.459 195.667 104.316 195.946 105.027 196.506C105.743 197.06 106.289 197.866 106.665 198.922C107.045 199.973 107.236 201.242 107.236 202.727C107.236 204.222 107.048 205.497 106.672 206.553C106.296 207.604 105.752 208.408 105.041 208.962C104.329 209.513 103.468 209.788 102.457 209.788ZM102.457 208.311C103.459 208.311 104.238 207.828 104.793 206.862C105.347 205.895 105.625 204.517 105.625 202.727C105.625 201.537 105.497 200.524 105.242 199.687C104.992 198.85 104.629 198.213 104.155 197.774C103.685 197.336 103.119 197.116 102.457 197.116C101.464 197.116 100.687 197.606 100.128 198.586C99.5686 199.562 99.289 200.942 99.289 202.727C99.289 203.917 99.4142 204.929 99.6648 205.761C99.9154 206.593 100.276 207.226 100.745 207.66C101.22 208.094 101.79 208.311 102.457 208.311ZM113.974 213.681C113.209 213.681 112.551 213.582 112.001 213.385C111.45 213.193 110.992 212.938 110.625 212.62C110.263 212.307 109.974 211.971 109.759 211.613L111.021 210.728C111.164 210.915 111.345 211.13 111.565 211.372C111.784 211.618 112.084 211.831 112.464 212.009C112.849 212.193 113.352 212.285 113.974 212.285C114.806 212.285 115.493 212.083 116.035 211.681C116.576 211.278 116.847 210.647 116.847 209.788V207.694H116.712C116.596 207.882 116.431 208.114 116.216 208.392C116.005 208.665 115.701 208.909 115.303 209.123C114.909 209.334 114.377 209.439 113.706 209.439C112.873 209.439 112.126 209.242 111.464 208.848C110.806 208.455 110.285 207.882 109.9 207.13C109.52 206.378 109.33 205.466 109.33 204.392C109.33 203.336 109.515 202.416 109.887 201.633C110.258 200.846 110.775 200.237 111.437 199.808C112.099 199.374 112.864 199.157 113.732 199.157C114.404 199.157 114.936 199.269 115.33 199.492C115.728 199.712 116.032 199.962 116.243 200.244C116.457 200.521 116.623 200.75 116.739 200.929H116.9V199.291H118.431V209.895C118.431 210.781 118.229 211.502 117.827 212.056C117.428 212.616 116.891 213.025 116.216 213.285C115.545 213.549 114.797 213.681 113.974 213.681ZM113.92 208.016C114.556 208.016 115.093 207.871 115.531 207.58C115.97 207.289 116.303 206.871 116.531 206.325C116.759 205.779 116.873 205.126 116.873 204.365C116.873 203.622 116.762 202.967 116.538 202.398C116.314 201.83 115.983 201.385 115.545 201.063C115.106 200.741 114.565 200.58 113.92 200.58C113.249 200.58 112.69 200.75 112.242 201.09C111.799 201.43 111.466 201.886 111.242 202.459C111.023 203.032 110.914 203.667 110.914 204.365C110.914 205.081 111.025 205.714 111.249 206.264C111.477 206.81 111.813 207.24 112.256 207.553C112.703 207.862 113.258 208.016 113.92 208.016Z" fill="black"/>
<path d="M179.255 197.26L180.97 198.975M180.357 195.75L175.718 200.389C175.478 200.628 175.314 200.933 175.249 201.265L174.82 203.41L176.965 202.981C177.297 202.914 177.602 202.751 177.841 202.512L182.48 197.873C182.62 197.733 182.73 197.568 182.806 197.386C182.881 197.204 182.92 197.008 182.92 196.811C182.92 196.614 182.881 196.419 182.806 196.237C182.73 196.055 182.62 195.889 182.48 195.75C182.341 195.61 182.175 195.5 181.993 195.424C181.811 195.349 181.616 195.31 181.419 195.31C181.222 195.31 181.027 195.349 180.844 195.424C180.662 195.5 180.497 195.61 180.357 195.75Z" stroke="#C7C7C7" stroke-width="1.62" stroke-linecap="round" stroke-linejoin="round"/>
<path d="M181.3 205.03V207.46C181.3 207.89 181.129 208.302 180.826 208.605C180.522 208.909 180.11 209.08 179.68 209.08H170.77C170.34 209.08 169.928 208.909 169.625 208.605C169.321 208.302 169.15 207.89 169.15 207.46V198.55C169.15 198.12 169.321 197.708 169.625 197.404C169.928 197.101 170.34 196.93 170.77 196.93H173.2" stroke="#C7C7C7" stroke-width="1.62" stroke-linecap="round" stroke-linejoin="round"/>
<rect x="287.275" y="183.875" width="147.15" height="37.45" rx="10.125" stroke="#EFEFEF" stroke-width="1.35"/>
<path d="M308.925 199.264L308.435 201.13H299.434L299.918 199.264H308.925ZM304.247 209.6L299.656 204.137L299.663 202.459H301.931C302.437 202.459 302.86 202.365 303.2 202.177C303.54 201.989 303.795 201.734 303.965 201.412C304.135 201.09 304.222 200.723 304.227 200.311C304.222 199.694 304.041 199.19 303.683 198.801C303.329 198.407 302.746 198.21 301.931 198.21H299.434L299.985 195.855H301.931C303.072 195.855 304.023 196.027 304.784 196.371C305.549 196.711 306.122 197.197 306.502 197.828C306.887 198.459 307.081 199.21 307.086 200.083C307.081 200.857 306.952 201.533 306.696 202.11C306.446 202.687 306.05 203.168 305.509 203.553C304.972 203.938 304.271 204.224 303.408 204.412L303.3 204.452L307.408 209.479V209.6H304.247ZM308.938 195.855L308.435 197.747H301.025L301.529 195.855H308.938ZM315.797 209.788C314.795 209.788 313.903 209.616 313.12 209.271C312.341 208.922 311.726 208.443 311.274 207.835C310.826 207.222 310.596 206.515 310.583 205.714H313.509C313.527 206.05 313.636 206.345 313.838 206.6C314.043 206.85 314.316 207.045 314.656 207.184C314.997 207.323 315.379 207.392 315.804 207.392C316.247 207.392 316.639 207.314 316.979 207.157C317.319 207 317.585 206.783 317.777 206.506C317.97 206.229 318.066 205.909 318.066 205.546C318.066 205.179 317.963 204.855 317.757 204.573C317.556 204.287 317.265 204.063 316.885 203.902C316.509 203.741 316.061 203.66 315.542 203.66H314.26V201.526H315.542C315.981 201.526 316.368 201.45 316.704 201.298C317.044 201.146 317.308 200.935 317.496 200.667C317.683 200.394 317.777 200.076 317.777 199.714C317.777 199.369 317.695 199.067 317.529 198.808C317.368 198.544 317.14 198.338 316.844 198.19C316.554 198.043 316.214 197.969 315.824 197.969C315.431 197.969 315.07 198.04 314.744 198.183C314.417 198.322 314.155 198.521 313.958 198.781C313.762 199.04 313.656 199.345 313.643 199.694H310.858C310.871 198.902 311.097 198.204 311.536 197.6C311.974 196.996 312.565 196.523 313.307 196.183C314.055 195.839 314.898 195.667 315.838 195.667C316.786 195.667 317.616 195.839 318.328 196.183C319.039 196.528 319.592 196.993 319.986 197.579C320.384 198.161 320.581 198.814 320.576 199.539C320.581 200.309 320.341 200.951 319.858 201.465C319.379 201.98 318.755 202.307 317.985 202.445V202.553C318.997 202.683 319.766 203.034 320.294 203.606C320.827 204.175 321.091 204.886 321.086 205.741C321.091 206.524 320.865 207.22 320.408 207.828C319.956 208.437 319.332 208.915 318.536 209.264C317.739 209.613 316.827 209.788 315.797 209.788ZM328.565 209.902C327.41 209.898 326.417 209.613 325.585 209.05C324.757 208.486 324.119 207.669 323.672 206.6C323.229 205.531 323.01 204.244 323.014 202.741C323.014 201.242 323.236 199.964 323.679 198.908C324.126 197.852 324.764 197.049 325.591 196.499C326.424 195.944 327.415 195.667 328.565 195.667C329.715 195.667 330.703 195.944 331.531 196.499C332.363 197.054 333.003 197.859 333.451 198.915C333.898 199.967 334.12 201.242 334.115 202.741C334.115 204.249 333.892 205.537 333.444 206.607C333.001 207.676 332.366 208.493 331.538 209.056C330.71 209.62 329.719 209.902 328.565 209.902ZM328.565 207.493C329.352 207.493 329.981 207.097 330.451 206.305C330.92 205.513 331.153 204.325 331.149 202.741C331.149 201.698 331.041 200.83 330.827 200.137C330.616 199.443 330.316 198.922 329.927 198.573C329.542 198.224 329.088 198.049 328.565 198.049C327.782 198.049 327.155 198.441 326.685 199.224C326.216 200.007 325.978 201.179 325.974 202.741C325.974 203.797 326.079 204.678 326.289 205.385C326.504 206.088 326.806 206.616 327.196 206.969C327.585 207.318 328.041 207.493 328.565 207.493Z" fill="black"/>
<path d="M416.855 197.26L418.57 198.975M417.957 195.75L413.318 200.389C413.078 200.628 412.914 200.933 412.849 201.265L412.42 203.41L414.565 202.981C414.897 202.914 415.202 202.751 415.441 202.512L420.08 197.873C420.22 197.733 420.33 197.568 420.406 197.386C420.481 197.204 420.52 197.008 420.52 196.811C420.52 196.614 420.481 196.419 420.406 196.237C420.33 196.055 420.22 195.889 420.08 195.75C419.941 195.61 419.775 195.5 419.593 195.424C419.411 195.349 419.216 195.31 419.019 195.31C418.822 195.31 418.626 195.349 418.444 195.424C418.262 195.5 418.097 195.61 417.957 195.75Z" stroke="#C7C7C7" stroke-width="1.62" stroke-linecap="round" stroke-linejoin="round"/>
<path d="M418.9 205.03V207.46C418.9 207.89 418.729 208.302 418.426 208.605C418.122 208.909 417.71 209.08 417.28 209.08H408.37C407.94 209.08 407.528 208.909 407.224 208.605C406.921 208.302 406.75 207.89 406.75 207.46V198.55C406.75 198.12 406.921 197.708 407.224 197.404C407.528 197.101 407.94 196.93 408.37 196.93H410.8" stroke="#C7C7C7" stroke-width="1.62" stroke-linecap="round" stroke-linejoin="round"/>
<rect x="49.675" y="238.875" width="147.15" height="37.45" rx="10.125" stroke="#EFEFEF" stroke-width="1.35"/>
<path d="M63.0561 258.479V257.405L71.7007 253.002V254.72L65.0696 257.915L65.1233 257.808V258.076L65.0696 257.969L71.7007 261.164V262.882L63.0561 258.479ZM79.3268 264.788C78.5393 264.788 77.8301 264.631 77.1993 264.318C76.5684 264.005 76.0627 263.575 75.6824 263.029C75.3021 262.484 75.094 261.862 75.0582 261.164H76.669C76.7317 261.786 77.0136 262.3 77.5147 262.707C78.0203 263.11 78.6244 263.311 79.3268 263.311C79.8906 263.311 80.3918 263.179 80.8303 262.915C81.2732 262.651 81.62 262.289 81.8706 261.828C82.1256 261.363 82.2531 260.837 82.2531 260.251C82.2531 259.651 82.1211 259.117 81.8571 258.647C81.5976 258.172 81.2397 257.799 80.7833 257.526C80.3269 257.253 79.8056 257.114 79.2195 257.11C78.7989 257.105 78.3671 257.17 77.9241 257.304C77.4811 257.434 77.1165 257.602 76.8301 257.808L75.273 257.62L76.1053 250.855H83.2464V252.331H77.5013L77.018 256.385H77.0986C77.3805 256.161 77.7339 255.976 78.159 255.828C78.5841 255.68 79.0271 255.606 79.4879 255.606C80.3291 255.606 81.0786 255.808 81.7363 256.21C82.3985 256.609 82.9176 257.155 83.2934 257.848C83.6738 258.542 83.8639 259.334 83.8639 260.224C83.8639 261.101 83.667 261.884 83.2733 262.573C82.884 263.258 82.3471 263.799 81.6625 264.197C80.9779 264.591 80.1994 264.788 79.3268 264.788ZM91.0135 264.788C90.0023 264.788 89.141 264.513 88.4295 263.962C87.7181 263.408 87.1744 262.604 86.7986 261.553C86.4227 260.497 86.2348 259.222 86.2348 257.727C86.2348 256.242 86.4227 254.973 86.7986 253.922C87.1789 252.866 87.7248 252.06 88.4362 251.506C89.1521 250.946 90.0112 250.667 91.0135 250.667C92.0158 250.667 92.8726 250.946 93.5841 251.506C94.3 252.06 94.8459 252.866 95.2217 253.922C95.602 254.973 95.7922 256.242 95.7922 257.727C95.7922 259.222 95.6043 260.497 95.2284 261.553C94.8526 262.604 94.3089 263.408 93.5975 263.962C92.886 264.513 92.0247 264.788 91.0135 264.788ZM91.0135 263.311C92.0158 263.311 92.7943 262.828 93.3492 261.862C93.904 260.895 94.1814 259.517 94.1814 257.727C94.1814 256.537 94.0539 255.524 93.7988 254.687C93.5483 253.85 93.1858 253.213 92.7115 252.774C92.2417 252.336 91.6757 252.116 91.0135 252.116C90.0202 252.116 89.2439 252.606 88.6846 253.586C88.1253 254.562 87.8456 255.942 87.8456 257.727C87.8456 258.917 87.9709 259.929 88.2215 260.761C88.472 261.593 88.8322 262.226 89.302 262.66C89.7763 263.094 90.3468 263.311 91.0135 263.311ZM102.826 264.788C101.815 264.788 100.953 264.513 100.242 263.962C99.5306 263.408 98.9869 262.604 98.6111 261.553C98.2352 260.497 98.0473 259.222 98.0473 257.727C98.0473 256.242 98.2352 254.973 98.6111 253.922C98.9914 252.866 99.5373 252.06 100.249 251.506C100.965 250.946 101.824 250.667 102.826 250.667C103.828 250.667 104.685 250.946 105.397 251.506C106.112 252.06 106.658 252.866 107.034 253.922C107.415 254.973 107.605 256.242 107.605 257.727C107.605 259.222 107.417 260.497 107.041 261.553C106.665 262.604 106.121 263.408 105.41 263.962C104.699 264.513 103.837 264.788 102.826 264.788ZM102.826 263.311C103.828 263.311 104.607 262.828 105.162 261.862C105.716 260.895 105.994 259.517 105.994 257.727C105.994 256.537 105.866 255.524 105.611 254.687C105.361 253.85 104.998 253.213 104.524 252.774C104.054 252.336 103.488 252.116 102.826 252.116C101.833 252.116 101.056 252.606 100.497 253.586C99.9378 254.562 99.6581 255.942 99.6581 257.727C99.6581 258.917 99.7834 259.929 100.034 260.761C100.285 261.593 100.645 262.226 101.115 262.66C101.589 263.094 102.159 263.311 102.826 263.311ZM114.343 268.681C113.578 268.681 112.92 268.582 112.37 268.385C111.82 268.193 111.361 267.938 110.994 267.62C110.632 267.307 110.343 266.971 110.128 266.613L111.39 265.728C111.533 265.915 111.714 266.13 111.934 266.372C112.153 266.618 112.453 266.83 112.833 267.009C113.218 267.193 113.721 267.285 114.343 267.285C115.175 267.285 115.862 267.083 116.404 266.681C116.945 266.278 117.216 265.647 117.216 264.788V262.694H117.082C116.965 262.882 116.8 263.114 116.585 263.392C116.375 263.665 116.07 263.909 115.672 264.123C115.278 264.334 114.746 264.439 114.075 264.439C113.242 264.439 112.495 264.242 111.833 263.848C111.175 263.455 110.654 262.882 110.269 262.13C109.889 261.378 109.699 260.466 109.699 259.392C109.699 258.336 109.884 257.416 110.256 256.633C110.627 255.846 111.144 255.237 111.806 254.808C112.468 254.374 113.234 254.157 114.102 254.157C114.773 254.157 115.305 254.269 115.699 254.492C116.097 254.711 116.401 254.962 116.612 255.244C116.826 255.521 116.992 255.75 117.108 255.929H117.269V254.291H118.8V264.895C118.8 265.781 118.598 266.502 118.196 267.056C117.797 267.616 117.261 268.025 116.585 268.285C115.914 268.549 115.166 268.681 114.343 268.681ZM114.289 263.016C114.925 263.016 115.462 262.871 115.9 262.58C116.339 262.289 116.672 261.871 116.9 261.325C117.129 260.779 117.243 260.126 117.243 259.365C117.243 258.622 117.131 257.967 116.907 257.398C116.683 256.83 116.352 256.385 115.914 256.063C115.475 255.741 114.934 255.58 114.289 255.58C113.618 255.58 113.059 255.75 112.612 256.09C112.169 256.43 111.835 256.886 111.612 257.459C111.392 258.032 111.283 258.667 111.283 259.365C111.283 260.081 111.395 260.714 111.618 261.264C111.846 261.81 112.182 262.24 112.625 262.553C113.072 262.862 113.627 263.016 114.289 263.016Z" fill="black"/>
<path d="M179.255 252.26L180.97 253.975M180.357 250.75L175.718 255.389C175.478 255.628 175.314 255.933 175.249 256.265L174.82 258.41L176.965 257.981C177.297 257.914 177.602 257.751 177.841 257.512L182.48 252.873C182.62 252.733 182.73 252.568 182.806 252.386C182.881 252.204 182.92 252.008 182.92 251.811C182.92 251.614 182.881 251.419 182.806 251.237C182.73 251.055 182.62 250.889 182.48 250.75C182.341 250.61 182.175 250.5 181.993 250.424C181.811 250.349 181.616 250.31 181.419 250.31C181.222 250.31 181.027 250.349 180.844 250.424C180.662 250.5 180.497 250.61 180.357 250.75Z" stroke="#C7C7C7" stroke-width="1.62" stroke-linecap="round" stroke-linejoin="round"/>
<path d="M181.3 260.03V262.46C181.3 262.89 181.129 263.302 180.826 263.605C180.522 263.909 180.11 264.08 179.68 264.08H170.77C170.34 264.08 169.928 263.909 169.625 263.605C169.321 263.302 169.15 262.89 169.15 262.46V253.55C169.15 253.12 169.321 252.708 169.625 252.404C169.928 252.101 170.34 251.93 170.77 251.93H173.2" stroke="#C7C7C7" stroke-width="1.62" stroke-linecap="round" stroke-linejoin="round"/>
<rect x="287.275" y="238.875" width="147.15" height="37.45" rx="10.125" stroke="#EFEFEF" stroke-width="1.35"/>
<path d="M308.925 254.264L308.435 256.13H299.434L299.918 254.264H308.925ZM304.247 264.6L299.656 259.137L299.663 257.459H301.931C302.437 257.459 302.86 257.365 303.2 257.177C303.54 256.989 303.795 256.734 303.965 256.412C304.135 256.09 304.222 255.723 304.227 255.311C304.222 254.694 304.041 254.19 303.683 253.801C303.329 253.407 302.746 253.21 301.931 253.21H299.434L299.985 250.855H301.931C303.072 250.855 304.023 251.027 304.784 251.371C305.549 251.711 306.122 252.197 306.502 252.828C306.887 253.459 307.081 254.21 307.086 255.083C307.081 255.857 306.952 256.533 306.696 257.11C306.446 257.687 306.05 258.168 305.509 258.553C304.972 258.938 304.271 259.224 303.408 259.412L303.3 259.452L307.408 264.479V264.6H304.247ZM308.938 250.855L308.435 252.747H301.025L301.529 250.855H308.938ZM310.509 262.184V259.895L316.247 250.855H318.22V254.022H317.053L313.435 259.747V259.855H321.59V262.184H310.509ZM317.106 264.6V261.486L317.16 260.472V250.855H319.885V264.6H317.106ZM328.915 264.902C327.761 264.898 326.768 264.613 325.935 264.05C325.108 263.486 324.47 262.669 324.023 261.6C323.58 260.53 323.36 259.244 323.365 257.741C323.365 256.242 323.586 254.964 324.029 253.908C324.477 252.852 325.114 252.049 325.942 251.499C326.774 250.944 327.765 250.667 328.915 250.667C330.065 250.667 331.054 250.944 331.882 251.499C332.714 252.054 333.354 252.859 333.801 253.915C334.249 254.967 334.47 256.242 334.466 257.741C334.466 259.249 334.242 260.537 333.795 261.607C333.352 262.676 332.716 263.493 331.889 264.056C331.061 264.62 330.07 264.902 328.915 264.902ZM328.915 262.493C329.703 262.493 330.332 262.097 330.801 261.305C331.271 260.513 331.504 259.325 331.499 257.741C331.499 256.698 331.392 255.83 331.177 255.137C330.967 254.443 330.667 253.922 330.278 253.573C329.893 253.224 329.439 253.049 328.915 253.049C328.132 253.049 327.506 253.441 327.036 254.224C326.566 255.007 326.329 256.179 326.325 257.741C326.325 258.797 326.43 259.678 326.64 260.385C326.855 261.088 327.157 261.616 327.546 261.969C327.935 262.318 328.392 262.493 328.915 262.493Z" fill="black"/>
<path d="M416.855 252.26L418.57 253.975M417.957 250.75L413.318 255.389C413.078 255.628 412.914 255.933 412.849 256.265L412.42 258.41L414.565 257.981C414.897 257.914 415.202 257.751 415.441 257.512L420.08 252.873C420.22 252.733 420.33 252.568 420.406 252.386C420.481 252.204 420.52 252.008 420.52 251.811C420.52 251.614 420.481 251.419 420.406 251.237C420.33 251.055 420.22 250.889 420.08 250.75C419.941 250.61 419.775 250.5 419.593 250.424C419.411 250.349 419.216 250.31 419.019 250.31C418.822 250.31 418.626 250.349 418.444 250.424C418.262 250.5 418.097 250.61 417.957 250.75Z" stroke="#C7C7C7" stroke-width="1.62" stroke-linecap="round" stroke-linejoin="round"/>
<path d="M418.9 260.03V262.46C418.9 262.89 418.729 263.302 418.426 263.605C418.122 263.909 417.71 264.08 417.28 264.08H408.37C407.94 264.08 407.528 263.909 407.224 263.605C406.921 263.302 406.75 262.89 406.75 262.46V253.55C406.75 253.12 406.921 252.708 407.224 252.404C407.528 252.101 407.94 251.93 408.37 251.93H410.8" stroke="#C7C7C7" stroke-width="1.62" stroke-linecap="round" stroke-linejoin="round"/>
<rect x="49.675" y="293.875" width="147.15" height="37.45" rx="10.125" stroke="#EFEFEF" stroke-width="1.35"/>
<path d="M63.0561 313.479V312.405L71.7007 308.002V309.72L65.0696 312.915L65.1233 312.808V313.076L65.0696 312.969L71.7007 316.164V317.882L63.0561 313.479ZM79.8638 305.855V319.6H78.1993V307.6H78.1187L74.7629 309.828V308.136L78.1993 305.855H79.8638ZM84.0586 319.6V305.855H85.723V312.674H85.8841L92.0588 305.855H94.2334L88.4614 312.056L94.2334 319.6H92.2199L87.4412 313.211L85.723 315.143V319.6H84.0586ZM99.5776 323.681C98.8124 323.681 98.1547 323.582 97.6043 323.385C97.054 323.193 96.5954 322.938 96.2285 322.62C95.866 322.307 95.5774 321.971 95.3626 321.613L96.6244 320.728C96.7676 320.915 96.9488 321.13 97.1681 321.372C97.3873 321.618 97.6871 321.83 98.0674 322.009C98.4522 322.193 98.9556 322.285 99.5776 322.285C100.41 322.285 101.097 322.083 101.638 321.681C102.179 321.278 102.45 320.647 102.45 319.788V317.694H102.316C102.2 317.882 102.034 318.114 101.819 318.392C101.609 318.665 101.305 318.909 100.906 319.123C100.513 319.334 99.9803 319.439 99.3091 319.439C98.4769 319.439 97.7296 319.242 97.0674 318.848C96.4097 318.455 95.8884 317.882 95.5036 317.13C95.1233 316.378 94.9331 315.466 94.9331 314.392C94.9331 313.336 95.1188 312.416 95.4902 311.633C95.8615 310.846 96.3783 310.237 97.0406 309.808C97.7028 309.374 98.4679 309.157 99.3359 309.157C100.007 309.157 100.54 309.269 100.933 309.492C101.332 309.711 101.636 309.962 101.846 310.244C102.061 310.521 102.226 310.75 102.343 310.929H102.504V309.291H104.034V319.895C104.034 320.781 103.833 321.502 103.43 322.056C103.032 322.616 102.495 323.025 101.819 323.285C101.148 323.549 100.401 323.681 99.5776 323.681ZM99.5239 318.016C100.159 318.016 100.696 317.871 101.135 317.58C101.573 317.289 101.907 316.871 102.135 316.325C102.363 315.779 102.477 315.126 102.477 314.365C102.477 313.622 102.365 312.967 102.141 312.398C101.918 311.83 101.587 311.385 101.148 311.063C100.71 310.741 100.168 310.58 99.5239 310.58C98.8527 310.58 98.2934 310.75 97.846 311.09C97.403 311.43 97.0696 311.886 96.8459 312.459C96.6267 313.032 96.5171 313.667 96.5171 314.365C96.5171 315.081 96.6289 315.714 96.8526 316.264C97.0808 316.81 97.4164 317.24 97.8594 317.553C98.3068 317.862 98.8617 318.016 99.5239 318.016Z" fill="black"/>
<path d="M179.255 307.26L180.97 308.975M180.357 305.75L175.718 310.389C175.478 310.628 175.314 310.933 175.249 311.265L174.82 313.41L176.965 312.981C177.297 312.914 177.602 312.751 177.841 312.512L182.48 307.873C182.62 307.733 182.73 307.568 182.806 307.386C182.881 307.204 182.92 307.008 182.92 306.811C182.92 306.614 182.881 306.419 182.806 306.237C182.73 306.055 182.62 305.889 182.48 305.75C182.341 305.61 182.175 305.5 181.993 305.424C181.811 305.349 181.616 305.31 181.419 305.31C181.222 305.31 181.027 305.349 180.844 305.424C180.662 305.5 180.497 305.61 180.357 305.75Z" stroke="#C7C7C7" stroke-width="1.62" stroke-linecap="round" stroke-linejoin="round"/>
<path d="M181.3 315.03V317.46C181.3 317.89 181.129 318.302 180.826 318.605C180.522 318.909 180.11 319.08 179.68 319.08H170.77C170.34 319.08 169.928 318.909 169.625 318.605C169.321 318.302 169.15 317.89 169.15 317.46V308.55C169.15 308.12 169.321 307.708 169.625 307.404C169.928 307.101 170.34 306.93 170.77 306.93H173.2" stroke="#C7C7C7" stroke-width="1.62" stroke-linecap="round" stroke-linejoin="round"/>
<rect x="287.275" y="293.875" width="147.15" height="37.45" rx="10.125" stroke="#EFEFEF" stroke-width="1.35"/>
<path d="M308.925 309.264L308.435 311.13H299.434L299.918 309.264H308.925ZM304.247 319.6L299.656 314.137L299.663 312.459H301.931C302.437 312.459 302.86 312.365 303.2 312.177C303.54 311.989 303.795 311.734 303.965 311.412C304.135 311.09 304.222 310.723 304.227 310.311C304.222 309.694 304.041 309.19 303.683 308.801C303.329 308.407 302.746 308.21 301.931 308.21H299.434L299.985 305.855H301.931C303.072 305.855 304.023 306.027 304.784 306.371C305.549 306.711 306.122 307.197 306.502 307.828C306.887 308.459 307.081 309.21 307.086 310.083C307.081 310.857 306.952 311.533 306.696 312.11C306.446 312.687 306.05 313.168 305.509 313.553C304.972 313.938 304.271 314.224 303.408 314.412L303.3 314.452L307.408 319.479V319.6H304.247ZM308.938 305.855L308.435 307.747H301.025L301.529 305.855H308.938ZM315.844 319.788C314.811 319.788 313.891 319.62 313.086 319.285C312.285 318.944 311.656 318.481 311.2 317.895C310.744 317.309 310.515 316.645 310.515 315.902C310.515 315.329 310.645 314.803 310.905 314.325C311.169 313.841 311.527 313.441 311.979 313.123C312.43 312.801 312.936 312.595 313.495 312.506V312.412C312.762 312.264 312.166 311.908 311.71 311.345C311.254 310.776 311.025 310.116 311.025 309.365C311.025 308.653 311.234 308.02 311.65 307.465C312.066 306.906 312.636 306.468 313.361 306.15C314.09 305.828 314.918 305.667 315.844 305.667C316.771 305.667 317.596 305.828 318.321 306.15C319.05 306.472 319.623 306.913 320.039 307.472C320.455 308.027 320.666 308.658 320.67 309.365C320.666 310.121 320.433 310.781 319.972 311.345C319.511 311.908 318.921 312.264 318.2 312.412V312.506C318.751 312.595 319.249 312.801 319.697 313.123C320.149 313.441 320.507 313.841 320.771 314.325C321.039 314.803 321.176 315.329 321.18 315.902C321.176 316.645 320.945 317.309 320.489 317.895C320.033 318.481 319.402 318.944 318.596 319.285C317.795 319.62 316.878 319.788 315.844 319.788ZM315.844 317.654C316.305 317.654 316.708 317.571 317.053 317.405C317.397 317.235 317.666 317.003 317.858 316.707C318.055 316.407 318.153 316.063 318.153 315.674C318.153 315.275 318.053 314.924 317.851 314.62C317.65 314.311 317.377 314.07 317.032 313.895C316.688 313.716 316.292 313.627 315.844 313.627C315.401 313.627 315.005 313.716 314.656 313.895C314.307 314.07 314.032 314.311 313.831 314.62C313.634 314.924 313.536 315.275 313.536 315.674C313.536 316.063 313.632 316.407 313.824 316.707C314.017 317.003 314.287 317.235 314.636 317.405C314.985 317.571 315.388 317.654 315.844 317.654ZM315.844 311.512C316.229 311.512 316.572 311.434 316.871 311.278C317.171 311.121 317.406 310.904 317.576 310.627C317.746 310.349 317.831 310.029 317.831 309.667C317.831 309.309 317.746 308.996 317.576 308.727C317.406 308.454 317.173 308.242 316.878 308.09C316.583 307.933 316.238 307.855 315.844 307.855C315.455 307.855 315.111 307.933 314.811 308.09C314.511 308.242 314.276 308.454 314.106 308.727C313.941 308.996 313.858 309.309 313.858 309.667C313.858 310.029 313.943 310.349 314.113 310.627C314.283 310.904 314.518 311.121 314.818 311.278C315.117 311.434 315.46 311.512 315.844 311.512ZM328.602 319.902C327.447 319.898 326.454 319.613 325.622 319.05C324.794 318.486 324.156 317.669 323.709 316.6C323.266 315.53 323.047 314.244 323.051 312.741C323.051 311.242 323.273 309.964 323.716 308.908C324.163 307.852 324.801 307.049 325.628 306.499C326.461 305.944 327.452 305.667 328.602 305.667C329.752 305.667 330.74 305.944 331.568 306.499C332.4 307.054 333.04 307.859 333.488 308.915C333.935 309.967 334.157 311.242 334.152 312.741C334.152 314.249 333.928 315.537 333.481 316.607C333.038 317.676 332.403 318.493 331.575 319.056C330.747 319.62 329.756 319.902 328.602 319.902ZM328.602 317.493C329.389 317.493 330.018 317.097 330.488 316.305C330.957 315.513 331.19 314.325 331.186 312.741C331.186 311.698 331.078 310.83 330.863 310.137C330.653 309.443 330.353 308.922 329.964 308.573C329.579 308.224 329.125 308.049 328.602 308.049C327.819 308.049 327.192 308.441 326.722 309.224C326.253 310.007 326.015 311.179 326.011 312.741C326.011 313.797 326.116 314.678 326.326 315.385C326.541 316.088 326.843 316.616 327.232 316.969C327.622 317.318 328.078 317.493 328.602 317.493Z" fill="black"/>
<path d="M416.855 307.26L418.57 308.975M417.957 305.75L413.318 310.389C413.078 310.628 412.914 310.933 412.849 311.265L412.42 313.41L414.565 312.981C414.897 312.914 415.202 312.751 415.441 312.512L420.08 307.873C420.22 307.733 420.33 307.568 420.406 307.386C420.481 307.204 420.52 307.008 420.52 306.811C420.52 306.614 420.481 306.419 420.406 306.237C420.33 306.055 420.22 305.889 420.08 305.75C419.941 305.61 419.775 305.5 419.593 305.424C419.411 305.349 419.216 305.31 419.019 305.31C418.822 305.31 418.626 305.349 418.444 305.424C418.262 305.5 418.097 305.61 417.957 305.75Z" stroke="#C7C7C7" stroke-width="1.62" stroke-linecap="round" stroke-linejoin="round"/>
<path d="M418.9 315.03V317.46C418.9 317.89 418.729 318.302 418.426 318.605C418.122 318.909 417.71 319.08 417.28 319.08H408.37C407.94 319.08 407.528 318.909 407.224 318.605C406.921 318.302 406.75 317.89 406.75 317.46V308.55C406.75 308.12 406.921 307.708 407.224 307.404C407.528 307.101 407.94 306.93 408.37 306.93H410.8" stroke="#C7C7C7" stroke-width="1.62" stroke-linecap="round" stroke-linejoin="round"/>
</g>
<defs>
<clipPath id="clip0_1_6171">
<rect x="49" y="68" width="402.1" height="264" rx="8" fill="white"/>
</clipPath>
</defs>
</svg>
