<svg width="500" height="400" viewBox="0 0 500 400" fill="none" xmlns="http://www.w3.org/2000/svg">
<rect width="500" height="400" rx="20" fill="white"/>
<rect x="92.65" y="89.65" width="315.526" height="221.644" rx="8.086" fill="white"/>
<rect x="92.65" y="89.65" width="315.526" height="221.644" rx="8.086" stroke="#F3F3F3" stroke-width="1.3"/>
<path d="M99.587 104.989V98.1059H102.303C102.825 98.1059 103.269 98.2056 103.637 98.405C104.004 98.6021 104.284 98.8766 104.477 99.2284C104.672 99.5779 104.769 99.9812 104.769 100.438C104.769 100.895 104.671 101.299 104.474 101.648C104.276 101.998 103.991 102.27 103.617 102.465C103.245 102.66 102.794 102.757 102.266 102.757H100.535V101.591H102.03C102.31 101.591 102.541 101.543 102.723 101.446C102.906 101.348 103.043 101.212 103.133 101.04C103.224 100.865 103.27 100.665 103.27 100.438C103.27 100.21 103.224 100.01 103.133 99.84C103.043 99.6675 102.906 99.5342 102.723 99.4401C102.539 99.3438 102.306 99.2956 102.024 99.2956H101.042V104.989H99.587ZM105.688 104.989V99.8266H107.076V100.727H107.129C107.224 100.407 107.382 100.165 107.603 100.001C107.825 99.8355 108.081 99.7526 108.37 99.7526C108.441 99.7526 108.519 99.7571 108.601 99.7661C108.684 99.7751 108.757 99.7874 108.82 99.8031V101.073C108.753 101.053 108.66 101.035 108.541 101.02C108.422 101.004 108.314 100.996 108.215 100.996C108.004 100.996 107.816 101.042 107.65 101.134C107.487 101.224 107.357 101.349 107.261 101.51C107.166 101.672 107.119 101.858 107.119 102.068V104.989H105.688ZM111.652 105.09C111.13 105.09 110.679 104.979 110.298 104.757C109.919 104.533 109.627 104.221 109.421 103.823C109.215 103.422 109.111 102.957 109.111 102.428C109.111 101.895 109.215 101.429 109.421 101.03C109.627 100.629 109.919 100.317 110.298 100.095C110.679 99.8714 111.13 99.7594 111.652 99.7594C112.174 99.7594 112.625 99.8714 113.003 100.095C113.384 100.317 113.678 100.629 113.884 101.03C114.09 101.429 114.193 101.895 114.193 102.428C114.193 102.957 114.09 103.422 113.884 103.823C113.678 104.221 113.384 104.533 113.003 104.757C112.625 104.979 112.174 105.09 111.652 105.09ZM111.659 103.981C111.896 103.981 112.095 103.913 112.254 103.779C112.413 103.642 112.533 103.456 112.613 103.221C112.696 102.986 112.738 102.718 112.738 102.418C112.738 102.118 112.696 101.85 112.613 101.615C112.533 101.379 112.413 101.193 112.254 101.057C112.095 100.92 111.896 100.852 111.659 100.852C111.419 100.852 111.218 100.92 111.054 101.057C110.893 101.193 110.771 101.379 110.688 101.615C110.607 101.85 110.567 102.118 110.567 102.418C110.567 102.718 110.607 102.986 110.688 103.221C110.771 103.456 110.893 103.642 111.054 103.779C111.218 103.913 111.419 103.981 111.659 103.981ZM117.026 105.073C116.634 105.073 116.279 104.972 115.961 104.77C115.645 104.566 115.394 104.267 115.208 103.873C115.024 103.476 114.932 102.99 114.932 102.414C114.932 101.823 115.028 101.331 115.218 100.939C115.408 100.545 115.662 100.25 115.978 100.055C116.296 99.858 116.644 99.7594 117.023 99.7594C117.312 99.7594 117.553 99.8087 117.745 99.9072C117.94 100.004 118.097 100.125 118.216 100.27C118.337 100.414 118.429 100.555 118.491 100.694H118.535V98.1059H119.963V104.989H118.552V104.162H118.491C118.424 104.305 118.329 104.448 118.206 104.589C118.085 104.728 117.927 104.843 117.732 104.935C117.539 105.027 117.304 105.073 117.026 105.073ZM117.48 103.933C117.711 103.933 117.906 103.871 118.065 103.745C118.226 103.618 118.349 103.439 118.434 103.211C118.522 102.982 118.565 102.715 118.565 102.408C118.565 102.101 118.523 101.834 118.438 101.608C118.353 101.382 118.229 101.207 118.068 101.084C117.907 100.96 117.711 100.899 117.48 100.899C117.245 100.899 117.046 100.963 116.885 101.09C116.724 101.218 116.602 101.395 116.519 101.621C116.436 101.848 116.394 102.11 116.394 102.408C116.394 102.708 116.436 102.973 116.519 103.204C116.604 103.433 116.726 103.612 116.885 103.742C117.046 103.87 117.245 103.933 117.48 103.933ZM124.451 102.791V99.8266H125.883V104.989H124.508V104.051H124.454C124.338 104.354 124.144 104.597 123.873 104.78C123.604 104.964 123.276 105.056 122.888 105.056C122.543 105.056 122.24 104.978 121.977 104.821C121.715 104.664 121.51 104.441 121.362 104.152C121.217 103.863 121.143 103.517 121.141 103.113V99.8266H122.572V102.858C122.575 103.163 122.656 103.404 122.818 103.581C122.979 103.758 123.195 103.846 123.466 103.846C123.639 103.846 123.8 103.807 123.95 103.728C124.1 103.648 124.221 103.529 124.313 103.372C124.407 103.215 124.453 103.022 124.451 102.791ZM129.36 105.09C128.832 105.09 128.377 104.978 127.996 104.754C127.617 104.527 127.326 104.214 127.122 103.812C126.92 103.411 126.82 102.95 126.82 102.428C126.82 101.899 126.921 101.435 127.125 101.036C127.331 100.635 127.624 100.323 128.003 100.099C128.381 99.8725 128.832 99.7594 129.354 99.7594C129.804 99.7594 130.198 99.8412 130.537 100.005C130.875 100.168 131.143 100.398 131.34 100.694C131.537 100.989 131.646 101.337 131.666 101.736H130.315C130.277 101.478 130.176 101.271 130.012 101.114C129.851 100.955 129.639 100.875 129.377 100.875C129.155 100.875 128.961 100.936 128.796 101.057C128.632 101.175 128.504 101.349 128.413 101.578C128.321 101.806 128.275 102.083 128.275 102.408C128.275 102.737 128.32 103.017 128.409 103.248C128.501 103.479 128.63 103.655 128.796 103.776C128.961 103.897 129.155 103.957 129.377 103.957C129.541 103.957 129.687 103.923 129.817 103.856C129.95 103.789 130.058 103.692 130.143 103.564C130.231 103.434 130.288 103.278 130.315 103.097H131.666C131.643 103.491 131.536 103.838 131.343 104.138C131.153 104.436 130.889 104.669 130.553 104.838C130.217 105.006 129.82 105.09 129.36 105.09ZM135.328 99.8266V100.902H132.219V99.8266H135.328ZM132.925 98.5898H134.357V103.402C134.357 103.535 134.377 103.638 134.417 103.712C134.458 103.783 134.514 103.834 134.585 103.863C134.659 103.892 134.745 103.907 134.841 103.907C134.908 103.907 134.975 103.901 135.043 103.89C135.11 103.876 135.161 103.866 135.197 103.86L135.422 104.925C135.351 104.947 135.25 104.973 135.12 105.002C134.99 105.034 134.832 105.053 134.646 105.059C134.301 105.073 133.998 105.027 133.739 104.922C133.481 104.816 133.28 104.653 133.137 104.431C132.994 104.209 132.923 103.929 132.925 103.591V98.5898ZM138.216 99.3057V98.1059H143.869V99.3057H141.762V104.989H140.323V99.3057H138.216ZM145.543 105.086C145.213 105.086 144.92 105.029 144.662 104.915C144.404 104.798 144.2 104.627 144.05 104.401C143.902 104.172 143.829 103.888 143.829 103.547C143.829 103.26 143.881 103.019 143.986 102.824C144.092 102.629 144.235 102.473 144.417 102.354C144.598 102.235 144.804 102.146 145.035 102.085C145.268 102.025 145.512 101.982 145.768 101.957C146.068 101.926 146.31 101.897 146.494 101.87C146.677 101.841 146.811 101.798 146.894 101.742C146.976 101.686 147.018 101.603 147.018 101.494V101.473C147.018 101.261 146.951 101.096 146.816 100.979C146.684 100.863 146.496 100.805 146.252 100.805C145.994 100.805 145.789 100.862 145.637 100.976C145.484 101.088 145.383 101.229 145.334 101.399L144.01 101.292C144.077 100.978 144.209 100.707 144.407 100.479C144.604 100.248 144.858 100.071 145.169 99.9476C145.483 99.8221 145.846 99.7594 146.258 99.7594C146.545 99.7594 146.82 99.793 147.082 99.8602C147.346 99.9274 147.58 100.032 147.784 100.173C147.99 100.314 148.153 100.495 148.271 100.717C148.39 100.937 148.45 101.2 148.45 101.507V104.989H147.092V104.273H147.052C146.969 104.434 146.858 104.577 146.719 104.7C146.58 104.821 146.413 104.916 146.218 104.985C146.023 105.053 145.798 105.086 145.543 105.086ZM145.953 104.098C146.163 104.098 146.349 104.057 146.51 103.974C146.672 103.889 146.798 103.774 146.89 103.631C146.982 103.488 147.028 103.325 147.028 103.144V102.596C146.983 102.625 146.922 102.652 146.843 102.677C146.767 102.699 146.681 102.72 146.584 102.74C146.488 102.758 146.392 102.775 146.295 102.791C146.199 102.804 146.112 102.817 146.033 102.828C145.865 102.852 145.718 102.892 145.593 102.945C145.467 102.999 145.37 103.072 145.301 103.164C145.231 103.253 145.196 103.366 145.196 103.5C145.196 103.695 145.267 103.844 145.408 103.947C145.551 104.048 145.733 104.098 145.953 104.098ZM151.886 107.032C151.422 107.032 151.025 106.968 150.693 106.841C150.364 106.715 150.101 106.544 149.907 106.326C149.712 106.109 149.585 105.865 149.527 105.594L150.851 105.416C150.891 105.519 150.955 105.615 151.042 105.705C151.13 105.794 151.245 105.866 151.389 105.92C151.534 105.976 151.711 106.004 151.92 106.004C152.231 106.004 152.488 105.928 152.689 105.775C152.893 105.625 152.995 105.373 152.995 105.019V104.075H152.935C152.872 104.218 152.778 104.354 152.652 104.481C152.527 104.609 152.365 104.713 152.168 104.794C151.971 104.875 151.736 104.915 151.463 104.915C151.075 104.915 150.722 104.825 150.404 104.646C150.088 104.464 149.836 104.188 149.648 103.816C149.462 103.442 149.369 102.969 149.369 102.398C149.369 101.813 149.464 101.324 149.654 100.932C149.845 100.54 150.098 100.247 150.414 100.052C150.732 99.8568 151.081 99.7594 151.459 99.7594C151.748 99.7594 151.99 99.8087 152.185 99.9072C152.38 100.004 152.537 100.125 152.656 100.27C152.777 100.414 152.87 100.555 152.935 100.694H152.988V99.8266H154.41V105.039C154.41 105.478 154.302 105.846 154.087 106.142C153.872 106.437 153.574 106.659 153.193 106.807C152.815 106.957 152.379 107.032 151.886 107.032ZM151.916 103.839C152.147 103.839 152.342 103.782 152.501 103.668C152.662 103.551 152.786 103.386 152.871 103.171C152.958 102.953 153.002 102.693 153.002 102.391C153.002 102.088 152.959 101.826 152.874 101.604C152.789 101.38 152.666 101.207 152.504 101.084C152.343 100.96 152.147 100.899 151.916 100.899C151.681 100.899 151.483 100.963 151.321 101.09C151.16 101.216 151.038 101.39 150.955 101.615C150.872 101.839 150.831 102.097 150.831 102.391C150.831 102.689 150.872 102.947 150.955 103.164C151.04 103.379 151.162 103.546 151.321 103.665C151.483 103.781 151.681 103.839 151.916 103.839ZM159.844 101.299L158.534 101.379C158.511 101.267 158.463 101.166 158.389 101.077C158.315 100.985 158.218 100.912 158.097 100.858C157.978 100.802 157.836 100.774 157.67 100.774C157.448 100.774 157.261 100.821 157.109 100.915C156.956 101.007 156.88 101.131 156.88 101.285C156.88 101.408 156.929 101.513 157.028 101.598C157.127 101.683 157.296 101.751 157.536 101.803L158.47 101.991C158.972 102.094 159.346 102.26 159.592 102.488C159.839 102.717 159.962 103.017 159.962 103.389C159.962 103.727 159.862 104.024 159.663 104.28C159.466 104.535 159.195 104.734 158.85 104.878C158.507 105.019 158.111 105.09 157.663 105.09C156.98 105.09 156.435 104.947 156.03 104.663C155.627 104.376 155.39 103.986 155.321 103.493L156.729 103.419C156.771 103.628 156.875 103.787 157.038 103.897C157.202 104.004 157.411 104.058 157.667 104.058C157.918 104.058 158.119 104.01 158.272 103.913C158.426 103.815 158.505 103.688 158.507 103.534C158.505 103.404 158.45 103.297 158.342 103.214C158.235 103.129 158.069 103.064 157.845 103.019L156.951 102.841C156.447 102.74 156.071 102.566 155.825 102.317C155.581 102.068 155.459 101.751 155.459 101.366C155.459 101.034 155.548 100.749 155.727 100.509C155.909 100.269 156.163 100.084 156.49 99.9543C156.82 99.8243 157.205 99.7594 157.646 99.7594C158.298 99.7594 158.811 99.8972 159.186 100.173C159.562 100.448 159.782 100.824 159.844 101.299Z" fill="black"/>
<path d="M354.508 100.516H353.036C353.009 100.325 352.954 100.156 352.871 100.008C352.788 99.858 352.682 99.7302 352.552 99.6249C352.422 99.5196 352.272 99.439 352.102 99.383C351.934 99.3269 351.751 99.2989 351.554 99.2989C351.198 99.2989 350.887 99.3874 350.623 99.5644C350.359 99.7392 350.154 99.9946 350.008 100.331C349.862 100.665 349.789 101.07 349.789 101.547C349.789 102.038 349.862 102.45 350.008 102.784C350.156 103.118 350.362 103.37 350.626 103.54C350.891 103.711 351.196 103.796 351.544 103.796C351.739 103.796 351.919 103.77 352.085 103.718C352.253 103.667 352.402 103.592 352.532 103.493C352.662 103.392 352.769 103.27 352.854 103.127C352.942 102.983 353.002 102.82 353.036 102.636L354.508 102.643C354.47 102.959 354.375 103.264 354.222 103.557C354.072 103.848 353.869 104.109 353.614 104.34C353.361 104.569 353.058 104.75 352.707 104.885C352.357 105.017 351.962 105.083 351.52 105.083C350.906 105.083 350.357 104.944 349.873 104.666C349.392 104.388 349.011 103.986 348.731 103.46C348.453 102.933 348.314 102.296 348.314 101.547C348.314 100.797 348.455 100.158 348.737 99.6317C349.02 99.1051 349.403 98.7041 349.887 98.4285C350.371 98.1507 350.915 98.0118 351.52 98.0118C351.919 98.0118 352.289 98.0678 352.629 98.1798C352.972 98.2918 353.276 98.4554 353.54 98.6705C353.804 98.8833 354.02 99.1443 354.185 99.4535C354.353 99.7627 354.461 100.117 354.508 100.516ZM361.877 101.547C361.877 102.298 361.734 102.936 361.45 103.463C361.167 103.989 360.782 104.392 360.294 104.669C359.807 104.945 359.261 105.083 358.654 105.083C358.042 105.083 357.493 104.944 357.007 104.666C356.521 104.388 356.136 103.986 355.854 103.46C355.572 102.933 355.431 102.296 355.431 101.547C355.431 100.797 355.572 100.158 355.854 99.6317C356.136 99.1051 356.521 98.7041 357.007 98.4285C357.493 98.1507 358.042 98.0118 358.654 98.0118C359.261 98.0118 359.807 98.1507 360.294 98.4285C360.782 98.7041 361.167 99.1051 361.45 99.6317C361.734 100.158 361.877 100.797 361.877 101.547ZM360.401 101.547C360.401 101.061 360.328 100.651 360.183 100.317C360.039 99.9834 359.837 99.7302 359.574 99.5577C359.312 99.3852 359.005 99.2989 358.654 99.2989C358.302 99.2989 357.995 99.3852 357.733 99.5577C357.471 99.7302 357.267 99.9834 357.121 100.317C356.978 100.651 356.906 101.061 356.906 101.547C356.906 102.034 356.978 102.444 357.121 102.777C357.267 103.111 357.471 103.364 357.733 103.537C357.995 103.709 358.302 103.796 358.654 103.796C359.005 103.796 359.312 103.709 359.574 103.537C359.837 103.364 360.039 103.111 360.183 102.777C360.328 102.444 360.401 102.034 360.401 101.547ZM365.394 104.989H362.954V98.1059H365.415C366.107 98.1059 366.703 98.2437 367.203 98.5192C367.702 98.7926 368.086 99.1858 368.355 99.6989C368.626 100.212 368.762 100.826 368.762 101.541C368.762 102.258 368.626 102.874 368.355 103.389C368.086 103.904 367.7 104.3 367.196 104.575C366.694 104.851 366.093 104.989 365.394 104.989ZM364.41 103.742H365.334C365.764 103.742 366.126 103.666 366.419 103.513C366.715 103.359 366.937 103.12 367.085 102.798C367.235 102.473 367.31 102.054 367.31 101.541C367.31 101.032 367.235 100.616 367.085 100.294C366.937 99.9711 366.716 99.7336 366.423 99.5812C366.129 99.4289 365.767 99.3527 365.337 99.3527H364.41V103.742ZM375.764 100.085C375.737 99.8143 375.622 99.6037 375.418 99.4535C375.214 99.3034 374.937 99.2284 374.588 99.2284C374.35 99.2284 374.15 99.262 373.986 99.3292C373.823 99.3942 373.697 99.4849 373.61 99.6014C373.525 99.7179 373.482 99.8501 373.482 99.998C373.478 100.121 373.503 100.229 373.559 100.321C373.618 100.412 373.697 100.492 373.798 100.559C373.899 100.624 374.015 100.681 374.148 100.731C374.28 100.778 374.421 100.818 374.571 100.852L375.189 101C375.49 101.067 375.765 101.156 376.016 101.268C376.267 101.38 376.484 101.518 376.668 101.682C376.852 101.845 376.994 102.038 377.095 102.26C377.198 102.482 377.251 102.736 377.253 103.023C377.251 103.444 377.143 103.809 376.93 104.118C376.72 104.425 376.415 104.664 376.016 104.834C375.62 105.002 375.141 105.086 374.581 105.086C374.026 105.086 373.542 105.001 373.129 104.831C372.719 104.661 372.399 104.408 372.168 104.075C371.94 103.739 371.82 103.323 371.809 102.828H373.217C373.232 103.059 373.298 103.251 373.415 103.406C373.534 103.558 373.692 103.674 373.889 103.752C374.088 103.828 374.313 103.866 374.564 103.866C374.811 103.866 375.025 103.83 375.206 103.759C375.39 103.687 375.532 103.587 375.633 103.46C375.734 103.332 375.784 103.185 375.784 103.019C375.784 102.865 375.738 102.735 375.647 102.629C375.557 102.524 375.425 102.435 375.25 102.361C375.077 102.287 374.866 102.219 374.615 102.159L373.865 101.971C373.285 101.83 372.827 101.609 372.491 101.309C372.155 101.008 371.988 100.604 371.99 100.095C371.988 99.6787 372.099 99.3146 372.323 99.0032C372.549 98.6918 372.859 98.4487 373.254 98.2739C373.648 98.0991 374.096 98.0118 374.598 98.0118C375.109 98.0118 375.555 98.0991 375.936 98.2739C376.319 98.4487 376.617 98.6918 376.83 99.0032C377.042 99.3146 377.152 99.6754 377.159 100.085H375.764ZM380.951 99.8266V100.902H377.842V99.8266H380.951ZM378.548 98.5898H379.979V103.402C379.979 103.535 380 103.638 380.04 103.712C380.08 103.783 380.136 103.834 380.208 103.863C380.282 103.892 380.367 103.907 380.463 103.907C380.531 103.907 380.598 103.901 380.665 103.89C380.732 103.876 380.784 103.866 380.82 103.86L381.045 104.925C380.973 104.947 380.872 104.973 380.742 105.002C380.612 105.034 380.454 105.053 380.268 105.059C379.923 105.073 379.621 105.027 379.361 104.922C379.103 104.816 378.903 104.653 378.759 104.431C378.616 104.209 378.546 103.929 378.548 103.591V98.5898ZM383.355 105.086C383.026 105.086 382.732 105.029 382.475 104.915C382.217 104.798 382.013 104.627 381.863 104.401C381.715 104.172 381.641 103.888 381.641 103.547C381.641 103.26 381.694 103.019 381.799 102.824C381.905 102.629 382.048 102.473 382.229 102.354C382.411 102.235 382.617 102.146 382.848 102.085C383.081 102.025 383.325 101.982 383.581 101.957C383.881 101.926 384.123 101.897 384.306 101.87C384.49 101.841 384.624 101.798 384.706 101.742C384.789 101.686 384.831 101.603 384.831 101.494V101.473C384.831 101.261 384.764 101.096 384.629 100.979C384.497 100.863 384.309 100.805 384.064 100.805C383.807 100.805 383.602 100.862 383.449 100.976C383.297 101.088 383.196 101.229 383.147 101.399L381.823 101.292C381.89 100.978 382.022 100.707 382.219 100.479C382.417 100.248 382.671 100.071 382.982 99.9476C383.296 99.8221 383.659 99.7594 384.071 99.7594C384.358 99.7594 384.632 99.793 384.895 99.8602C385.159 99.9274 385.393 100.032 385.597 100.173C385.803 100.314 385.966 100.495 386.084 100.717C386.203 100.937 386.262 101.2 386.262 101.507V104.989H384.905V104.273H384.864C384.781 104.434 384.671 104.577 384.532 104.7C384.393 104.821 384.226 104.916 384.031 104.985C383.836 105.053 383.611 105.086 383.355 105.086ZM383.765 104.098C383.976 104.098 384.162 104.057 384.323 103.974C384.485 103.889 384.611 103.774 384.703 103.631C384.795 103.488 384.841 103.325 384.841 103.144V102.596C384.796 102.625 384.734 102.652 384.656 102.677C384.58 102.699 384.494 102.72 384.397 102.74C384.301 102.758 384.205 102.775 384.108 102.791C384.012 102.804 383.924 102.817 383.846 102.828C383.678 102.852 383.531 102.892 383.406 102.945C383.28 102.999 383.183 103.072 383.113 103.164C383.044 103.253 383.009 103.366 383.009 103.5C383.009 103.695 383.08 103.844 383.221 103.947C383.364 104.048 383.546 104.098 383.765 104.098ZM390.119 99.8266V100.902H387.01V99.8266H390.119ZM387.716 98.5898H389.148V103.402C389.148 103.535 389.168 103.638 389.208 103.712C389.249 103.783 389.305 103.834 389.376 103.863C389.45 103.892 389.535 103.907 389.632 103.907C389.699 103.907 389.766 103.901 389.833 103.89C389.901 103.876 389.952 103.866 389.988 103.86L390.213 104.925C390.141 104.947 390.041 104.973 389.911 105.002C389.781 105.034 389.623 105.053 389.437 105.059C389.092 105.073 388.789 105.027 388.529 104.922C388.272 104.816 388.071 104.653 387.928 104.431C387.784 104.209 387.714 103.929 387.716 103.591V98.5898ZM394.362 102.791V99.8266H395.794V104.989H394.419V104.051H394.365C394.249 104.354 394.055 104.597 393.784 104.78C393.515 104.964 393.187 105.056 392.799 105.056C392.454 105.056 392.151 104.978 391.888 104.821C391.626 104.664 391.421 104.441 391.273 104.152C391.128 103.863 391.054 103.517 391.052 103.113V99.8266H392.483V102.858C392.486 103.163 392.567 103.404 392.729 103.581C392.89 103.758 393.106 103.846 393.377 103.846C393.55 103.846 393.711 103.807 393.861 103.728C394.011 103.648 394.132 103.529 394.224 103.372C394.318 103.215 394.364 103.022 394.362 102.791ZM401.234 101.299L399.923 101.379C399.901 101.267 399.853 101.166 399.779 101.077C399.705 100.985 399.607 100.912 399.486 100.858C399.368 100.802 399.225 100.774 399.06 100.774C398.838 100.774 398.651 100.821 398.498 100.915C398.346 101.007 398.27 101.131 398.27 101.285C398.27 101.408 398.319 101.513 398.418 101.598C398.516 101.683 398.685 101.751 398.925 101.803L399.859 101.991C400.361 102.094 400.735 102.26 400.982 102.488C401.228 102.717 401.352 103.017 401.352 103.389C401.352 103.727 401.252 104.024 401.052 104.28C400.855 104.535 400.584 104.734 400.239 104.878C399.896 105.019 399.501 105.09 399.053 105.09C398.369 105.09 397.825 104.947 397.419 104.663C397.016 104.376 396.78 103.986 396.71 103.493L398.118 103.419C398.161 103.628 398.264 103.787 398.428 103.897C398.591 104.004 398.801 104.058 399.056 104.058C399.307 104.058 399.509 104.01 399.661 103.913C399.816 103.815 399.894 103.688 399.896 103.534C399.894 103.404 399.839 103.297 399.732 103.214C399.624 103.129 399.458 103.064 399.234 103.019L398.34 102.841C397.836 102.74 397.461 102.566 397.214 102.317C396.97 102.068 396.848 101.751 396.848 101.366C396.848 101.034 396.938 100.749 397.117 100.509C397.298 100.269 397.553 100.084 397.88 99.9543C398.209 99.8243 398.595 99.7594 399.036 99.7594C399.688 99.7594 400.201 99.8972 400.575 100.173C400.952 100.448 401.171 100.824 401.234 101.299Z" fill="black"/>
<rect x="98.9888" y="113.978" width="88" height="59" rx="3.91373" fill="#F1F1F1"/>
<mask id="mask0_5_396" style="mask-type:luminance" maskUnits="userSpaceOnUse" x="126" y="128" width="35" height="35">
<path d="M157.603 148.463L146.376 159.688C146.085 159.979 145.74 160.21 145.36 160.367C144.98 160.525 144.572 160.606 144.161 160.606C143.75 160.606 143.342 160.525 142.962 160.367C142.582 160.21 142.237 159.979 141.946 159.688L127.884 145.641V129.986H143.539L157.603 144.049C158.185 144.636 158.513 145.429 158.513 146.256C158.513 147.083 158.185 147.876 157.603 148.463Z" fill="white" stroke="white" stroke-width="3.47887" stroke-linejoin="round"/>
<path fill-rule="evenodd" clip-rule="evenodd" d="M137.016 141.292C137.593 141.292 138.146 141.063 138.554 140.655C138.961 140.248 139.191 139.695 139.191 139.118C139.191 138.541 138.961 137.988 138.554 137.58C138.146 137.173 137.593 136.944 137.016 136.944C136.44 136.944 135.887 137.173 135.479 137.58C135.071 137.988 134.842 138.541 134.842 139.118C134.842 139.695 135.071 140.248 135.479 140.655C135.887 141.063 136.44 141.292 137.016 141.292Z" fill="black"/>
</mask>
<g mask="url(#mask0_5_396)">
<path d="M120.926 123.028H162.673V164.775H120.926V123.028Z" fill="#105004"/>
</g>
<rect x="194.444" y="129.886" width="137" height="4" rx="2" fill="#CCCCCC"/>
<rect x="194.444" y="137.614" width="124" height="4" rx="2" fill="#CCCCCC"/>
<rect x="194.444" y="145.341" width="105" height="4" rx="2" fill="#CCCCCC"/>
<rect x="194.444" y="153.069" width="50" height="4" rx="2" fill="#CCCCCC"/>
<rect x="372.837" y="134.978" width="29" height="17" rx="8.5" fill="#105004"/>
<rect x="387.837" y="137.978" width="11" height="11" rx="5.5" fill="white"/>
<rect x="98.9888" y="179.966" width="88" height="59" rx="3.91373" fill="#F1F1F1"/>
<path d="M148.757 218.692L156.967 226.902C157.087 227.03 157.231 227.133 157.391 227.204C157.551 227.275 157.724 227.314 157.899 227.317C158.074 227.32 158.248 227.288 158.41 227.222C158.573 227.157 158.72 227.059 158.844 226.935C158.968 226.811 159.066 226.664 159.131 226.501C159.197 226.339 159.229 226.165 159.226 225.99C159.223 225.814 159.185 225.642 159.114 225.482C159.042 225.322 158.939 225.178 158.811 225.058L126.632 192.879C126.384 192.648 126.057 192.523 125.719 192.529C125.381 192.535 125.059 192.672 124.82 192.911C124.581 193.15 124.444 193.472 124.438 193.81C124.432 194.148 124.557 194.475 124.788 194.722L133.001 202.938L126.99 208.956C125.931 210.017 125.337 211.456 125.338 212.955C125.339 214.454 125.936 215.891 126.997 216.951L134.758 224.7C135.82 225.757 137.257 226.351 138.756 226.351C140.254 226.351 141.692 225.756 142.753 224.698L148.757 218.692ZM157.541 209.908L152.341 215.109L136.585 199.349L141.775 194.152C142.3 193.626 142.924 193.209 143.611 192.925C144.297 192.64 145.033 192.494 145.776 192.494H155.282C155.796 192.494 156.305 192.596 156.779 192.793C157.254 192.99 157.686 193.278 158.049 193.642C158.412 194.005 158.7 194.437 158.897 194.912C159.093 195.387 159.194 195.896 159.194 196.41V205.91C159.194 207.41 158.598 208.848 157.538 209.908M150.497 198.587C150.154 198.587 149.815 198.655 149.498 198.786C149.182 198.917 148.894 199.109 148.652 199.352C148.409 199.594 148.217 199.881 148.086 200.198C147.955 200.515 147.888 200.854 147.888 201.197C147.888 201.539 147.955 201.878 148.086 202.195C148.217 202.512 148.409 202.799 148.652 203.041C148.894 203.284 149.182 203.476 149.498 203.607C149.815 203.738 150.154 203.806 150.497 203.806C151.189 203.806 151.852 203.531 152.342 203.041C152.831 202.552 153.106 201.889 153.106 201.197C153.106 200.505 152.831 199.841 152.342 199.352C151.852 198.862 151.189 198.587 150.497 198.587Z" fill="#FF3933"/>
<rect x="194.444" y="195.875" width="137" height="4" rx="2" fill="#CCCCCC"/>
<rect x="194.444" y="203.603" width="124" height="4" rx="2" fill="#CCCCCC"/>
<rect x="194.444" y="211.33" width="105" height="4" rx="2" fill="#CCCCCC"/>
<rect x="194.444" y="219.057" width="50" height="4" rx="2" fill="#CCCCCC"/>
<rect x="372.837" y="200.966" width="29" height="17" rx="8.5" fill="#767676"/>
<rect x="375.837" y="203.966" width="11" height="11" rx="5.5" fill="white"/>
<rect x="98.9888" y="245.955" width="88" height="59" rx="3.91373" fill="#F1F1F1"/>
<mask id="mask1_5_396" style="mask-type:luminance" maskUnits="userSpaceOnUse" x="126" y="260" width="35" height="35">
<path d="M157.603 280.441L146.376 291.665C146.085 291.956 145.74 292.187 145.36 292.345C144.98 292.502 144.572 292.583 144.161 292.583C143.75 292.583 143.342 292.502 142.962 292.345C142.582 292.187 142.237 291.956 141.946 291.665L127.884 277.618V261.964H143.539L157.603 276.027C158.185 276.613 158.513 277.407 158.513 278.234C158.513 279.061 158.185 279.854 157.603 280.441Z" fill="white" stroke="white" stroke-width="3.47887" stroke-linejoin="round"/>
<path fill-rule="evenodd" clip-rule="evenodd" d="M137.016 273.27C137.593 273.27 138.146 273.041 138.554 272.633C138.961 272.225 139.191 271.672 139.191 271.096C139.191 270.519 138.961 269.966 138.554 269.558C138.146 269.15 137.593 268.921 137.016 268.921C136.44 268.921 135.887 269.15 135.479 269.558C135.071 269.966 134.842 270.519 134.842 271.096C134.842 271.672 135.071 272.225 135.479 272.633C135.887 273.041 136.44 273.27 137.016 273.27Z" fill="black"/>
</mask>
<g mask="url(#mask1_5_396)">
<path d="M120.926 255.006H162.673V296.752H120.926V255.006Z" fill="#105004"/>
</g>
<rect x="194.444" y="261.864" width="137" height="4" rx="2" fill="#CCCCCC"/>
<rect x="194.444" y="269.592" width="124" height="4" rx="2" fill="#CCCCCC"/>
<rect x="194.444" y="277.319" width="105" height="4" rx="2" fill="#CCCCCC"/>
<rect x="194.444" y="285.046" width="50" height="4" rx="2" fill="#CCCCCC"/>
<rect x="372.837" y="266.955" width="29" height="17" rx="8.5" fill="#105004"/>
<rect x="387.837" y="269.955" width="11" height="11" rx="5.5" fill="white"/>
</svg>
