<svg width="500" height="400" viewBox="0 0 500 400" fill="none" xmlns="http://www.w3.org/2000/svg">
<rect width="500" height="400" rx="20" fill="white"/>
<rect x="44.5" y="35.5" width="412" height="330" rx="7.5" fill="white"/>
<rect x="44.5" y="35.5" width="412" height="330" rx="7.5" stroke="white"/>
<path d="M150.918 65.6562H147.185C147.116 65.1733 146.977 64.7443 146.767 64.3693C146.557 63.9886 146.287 63.6648 145.957 63.3977C145.628 63.1307 145.247 62.9261 144.815 62.7841C144.389 62.642 143.926 62.571 143.426 62.571C142.523 62.571 141.736 62.7955 141.065 63.2443C140.395 63.6875 139.875 64.3352 139.506 65.1875C139.136 66.0341 138.952 67.0625 138.952 68.2727C138.952 69.517 139.136 70.5625 139.506 71.4091C139.881 72.2557 140.403 72.8949 141.074 73.3267C141.744 73.7585 142.52 73.9744 143.401 73.9744C143.895 73.9744 144.352 73.9091 144.773 73.7784C145.199 73.6477 145.577 73.4574 145.906 73.2074C146.236 72.9517 146.509 72.642 146.724 72.2784C146.946 71.9148 147.099 71.5 147.185 71.0341L150.918 71.0511C150.821 71.8523 150.58 72.625 150.193 73.3693C149.813 74.108 149.298 74.7699 148.651 75.3551C148.009 75.9347 147.241 76.3949 146.349 76.7358C145.463 77.071 144.46 77.2386 143.341 77.2386C141.784 77.2386 140.392 76.8864 139.165 76.1818C137.943 75.4773 136.977 74.4574 136.267 73.1222C135.562 71.7869 135.21 70.1705 135.21 68.2727C135.21 66.3693 135.568 64.75 136.284 63.4148C137 62.0795 137.972 61.0625 139.199 60.3636C140.426 59.6591 141.807 59.3068 143.341 59.3068C144.352 59.3068 145.29 59.4489 146.153 59.733C147.023 60.017 147.793 60.4318 148.463 60.9773C149.134 61.517 149.679 62.179 150.099 62.9631C150.526 63.7472 150.798 64.6449 150.918 65.6562ZM169.604 68.2727C169.604 70.1761 169.243 71.7955 168.521 73.1307C167.805 74.4659 166.828 75.4858 165.589 76.1903C164.357 76.8892 162.97 77.2386 161.43 77.2386C159.879 77.2386 158.487 76.8864 157.254 76.1818C156.021 75.4773 155.047 74.4574 154.331 73.1222C153.615 71.7869 153.257 70.1705 153.257 68.2727C153.257 66.3693 153.615 64.75 154.331 63.4148C155.047 62.0795 156.021 61.0625 157.254 60.3636C158.487 59.6591 159.879 59.3068 161.43 59.3068C162.97 59.3068 164.357 59.6591 165.589 60.3636C166.828 61.0625 167.805 62.0795 168.521 63.4148C169.243 64.75 169.604 66.3693 169.604 68.2727ZM165.862 68.2727C165.862 67.0398 165.678 66 165.308 65.1534C164.945 64.3068 164.43 63.6648 163.766 63.2273C163.101 62.7898 162.322 62.571 161.43 62.571C160.538 62.571 159.76 62.7898 159.095 63.2273C158.43 63.6648 157.913 64.3068 157.544 65.1534C157.18 66 156.999 67.0398 156.999 68.2727C156.999 69.5057 157.18 70.5455 157.544 71.392C157.913 72.2386 158.43 72.8807 159.095 73.3182C159.76 73.7557 160.538 73.9744 161.43 73.9744C162.322 73.9744 163.101 73.7557 163.766 73.3182C164.43 72.8807 164.945 72.2386 165.308 71.392C165.678 70.5455 165.862 69.5057 165.862 68.2727ZM178.525 77H172.337V59.5455H178.576C180.332 59.5455 181.843 59.8949 183.11 60.5938C184.377 61.2869 185.352 62.2841 186.033 63.5852C186.721 64.8864 187.065 66.4432 187.065 68.2557C187.065 70.0739 186.721 71.6364 186.033 72.9432C185.352 74.25 184.371 75.2528 183.093 75.9517C181.82 76.6506 180.298 77 178.525 77ZM176.028 73.8381H178.371C179.462 73.8381 180.38 73.6449 181.124 73.2585C181.874 72.8665 182.437 72.2614 182.812 71.4432C183.192 70.6193 183.383 69.5568 183.383 68.2557C183.383 66.9659 183.192 65.9119 182.812 65.0938C182.437 64.2756 181.877 63.6733 181.133 63.2869C180.388 62.9006 179.471 62.7074 178.38 62.7074H176.028V73.8381ZM199.018 77.2472C198.183 77.2472 197.438 77.1023 196.785 76.8125C196.131 76.517 195.614 76.0824 195.234 75.5085C194.859 74.929 194.671 74.2074 194.671 73.3438C194.671 72.6165 194.805 72.0057 195.072 71.5114C195.339 71.017 195.702 70.6193 196.163 70.3182C196.623 70.017 197.146 69.7898 197.731 69.6364C198.322 69.483 198.941 69.375 199.589 69.3125C200.35 69.233 200.964 69.1591 201.43 69.0909C201.896 69.017 202.234 68.9091 202.444 68.767C202.654 68.625 202.759 68.4148 202.759 68.1364V68.0852C202.759 67.5455 202.589 67.1278 202.248 66.8324C201.913 66.5369 201.435 66.3892 200.816 66.3892C200.163 66.3892 199.643 66.5341 199.256 66.8239C198.87 67.108 198.614 67.4659 198.489 67.8977L195.131 67.625C195.302 66.8295 195.637 66.142 196.137 65.5625C196.637 64.9773 197.282 64.5284 198.072 64.2159C198.867 63.8977 199.788 63.7386 200.833 63.7386C201.56 63.7386 202.256 63.8239 202.921 63.9943C203.592 64.1648 204.185 64.429 204.702 64.7869C205.225 65.1449 205.637 65.6051 205.938 66.1676C206.239 66.7244 206.39 67.392 206.39 68.1705V77H202.947V75.1847H202.844C202.634 75.5938 202.353 75.9545 202.001 76.267C201.648 76.5739 201.225 76.8153 200.731 76.9915C200.237 77.1619 199.665 77.2472 199.018 77.2472ZM200.058 74.7415C200.592 74.7415 201.063 74.6364 201.472 74.4261C201.881 74.2102 202.202 73.9205 202.435 73.5568C202.668 73.1932 202.785 72.7812 202.785 72.321V70.9318C202.671 71.0057 202.515 71.0739 202.316 71.1364C202.123 71.1932 201.904 71.2472 201.66 71.2983C201.415 71.3437 201.171 71.3864 200.927 71.4261C200.683 71.4602 200.461 71.4915 200.262 71.5199C199.836 71.5824 199.464 71.6818 199.146 71.8182C198.827 71.9545 198.58 72.1392 198.404 72.3722C198.228 72.5994 198.14 72.8835 198.14 73.2244C198.14 73.7188 198.319 74.0966 198.677 74.358C199.04 74.6136 199.501 74.7415 200.058 74.7415ZM220.942 63.9091L216.366 77H212.275L207.698 63.9091H211.533L214.252 73.2756H214.388L217.099 63.9091H220.942ZM226.182 77.2472C225.347 77.2472 224.602 77.1023 223.949 76.8125C223.295 76.517 222.778 76.0824 222.398 75.5085C222.023 74.929 221.835 74.2074 221.835 73.3438C221.835 72.6165 221.969 72.0057 222.236 71.5114C222.503 71.017 222.866 70.6193 223.327 70.3182C223.787 70.017 224.31 69.7898 224.895 69.6364C225.486 69.483 226.105 69.375 226.753 69.3125C227.514 69.233 228.128 69.1591 228.594 69.0909C229.06 69.017 229.398 68.9091 229.608 68.767C229.818 68.625 229.923 68.4148 229.923 68.1364V68.0852C229.923 67.5455 229.753 67.1278 229.412 66.8324C229.077 66.5369 228.599 66.3892 227.98 66.3892C227.327 66.3892 226.807 66.5341 226.42 66.8239C226.034 67.108 225.778 67.4659 225.653 67.8977L222.295 67.625C222.466 66.8295 222.801 66.142 223.301 65.5625C223.801 64.9773 224.446 64.5284 225.236 64.2159C226.031 63.8977 226.952 63.7386 227.997 63.7386C228.724 63.7386 229.42 63.8239 230.085 63.9943C230.756 64.1648 231.349 64.429 231.866 64.7869C232.389 65.1449 232.801 65.6051 233.102 66.1676C233.403 66.7244 233.554 67.392 233.554 68.1705V77H230.111V75.1847H230.009C229.798 75.5938 229.517 75.9545 229.165 76.267C228.812 76.5739 228.389 76.8153 227.895 76.9915C227.401 77.1619 226.83 77.2472 226.182 77.2472ZM227.222 74.7415C227.756 74.7415 228.227 74.6364 228.636 74.4261C229.045 74.2102 229.366 73.9205 229.599 73.5568C229.832 73.1932 229.949 72.7812 229.949 72.321V70.9318C229.835 71.0057 229.679 71.0739 229.48 71.1364C229.287 71.1932 229.068 71.2472 228.824 71.2983C228.58 71.3437 228.335 71.3864 228.091 71.4261C227.847 71.4602 227.625 71.4915 227.426 71.5199C227 71.5824 226.628 71.6818 226.31 71.8182C225.991 71.9545 225.744 72.1392 225.568 72.3722C225.392 72.5994 225.304 72.8835 225.304 73.2244C225.304 73.7188 225.483 74.0966 225.841 74.358C226.205 74.6136 226.665 74.7415 227.222 74.7415ZM236.371 77V63.9091H240.001V77H236.371ZM238.195 62.2216C237.655 62.2216 237.192 62.0426 236.805 61.6847C236.425 61.321 236.234 60.8864 236.234 60.3807C236.234 59.8807 236.425 59.4517 236.805 59.0938C237.192 58.7301 237.655 58.5483 238.195 58.5483C238.734 58.5483 239.195 58.7301 239.575 59.0938C239.962 59.4517 240.155 59.8807 240.155 60.3807C240.155 60.8864 239.962 61.321 239.575 61.6847C239.195 62.0426 238.734 62.2216 238.195 62.2216ZM246.54 59.5455V77H242.91V59.5455H246.54ZM253.182 77.2472C252.347 77.2472 251.602 77.1023 250.949 76.8125C250.295 76.517 249.778 76.0824 249.398 75.5085C249.023 74.929 248.835 74.2074 248.835 73.3438C248.835 72.6165 248.969 72.0057 249.236 71.5114C249.503 71.017 249.866 70.6193 250.327 70.3182C250.787 70.017 251.31 69.7898 251.895 69.6364C252.486 69.483 253.105 69.375 253.753 69.3125C254.514 69.233 255.128 69.1591 255.594 69.0909C256.06 69.017 256.398 68.9091 256.608 68.767C256.818 68.625 256.923 68.4148 256.923 68.1364V68.0852C256.923 67.5455 256.753 67.1278 256.412 66.8324C256.077 66.5369 255.599 66.3892 254.98 66.3892C254.327 66.3892 253.807 66.5341 253.42 66.8239C253.034 67.108 252.778 67.4659 252.653 67.8977L249.295 67.625C249.466 66.8295 249.801 66.142 250.301 65.5625C250.801 64.9773 251.446 64.5284 252.236 64.2159C253.031 63.8977 253.952 63.7386 254.997 63.7386C255.724 63.7386 256.42 63.8239 257.085 63.9943C257.756 64.1648 258.349 64.429 258.866 64.7869C259.389 65.1449 259.801 65.6051 260.102 66.1676C260.403 66.7244 260.554 67.392 260.554 68.1705V77H257.111V75.1847H257.009C256.798 75.5938 256.517 75.9545 256.165 76.267C255.812 76.5739 255.389 76.8153 254.895 76.9915C254.401 77.1619 253.83 77.2472 253.182 77.2472ZM254.222 74.7415C254.756 74.7415 255.227 74.6364 255.636 74.4261C256.045 74.2102 256.366 73.9205 256.599 73.5568C256.832 73.1932 256.949 72.7812 256.949 72.321V70.9318C256.835 71.0057 256.679 71.0739 256.48 71.1364C256.287 71.1932 256.068 71.2472 255.824 71.2983C255.58 71.3437 255.335 71.3864 255.091 71.4261C254.847 71.4602 254.625 71.4915 254.426 71.5199C254 71.5824 253.628 71.6818 253.31 71.8182C252.991 71.9545 252.744 72.1392 252.568 72.3722C252.392 72.5994 252.304 72.8835 252.304 73.2244C252.304 73.7188 252.483 74.0966 252.841 74.358C253.205 74.6136 253.665 74.7415 254.222 74.7415ZM263.439 77V59.5455H267.07V66.108H267.18C267.339 65.7557 267.57 65.3977 267.871 65.0341C268.178 64.6648 268.575 64.358 269.064 64.1136C269.558 63.8636 270.172 63.7386 270.905 63.7386C271.859 63.7386 272.74 63.9886 273.547 64.4886C274.354 64.983 274.999 65.7301 275.482 66.7301C275.964 67.7244 276.206 68.9716 276.206 70.4716C276.206 71.9318 275.97 73.1648 275.499 74.1705C275.033 75.1705 274.396 75.929 273.589 76.446C272.788 76.9574 271.891 77.2131 270.896 77.2131C270.192 77.2131 269.592 77.0966 269.098 76.8636C268.609 76.6307 268.209 76.3381 267.896 75.9858C267.584 75.6278 267.345 75.267 267.18 74.9034H267.018V77H263.439ZM266.993 70.4545C266.993 71.233 267.101 71.9119 267.317 72.4915C267.533 73.071 267.845 73.5227 268.254 73.8466C268.663 74.1648 269.161 74.3239 269.746 74.3239C270.337 74.3239 270.837 74.1619 271.246 73.8381C271.655 73.5085 271.964 73.054 272.175 72.4744C272.391 71.8892 272.499 71.2159 272.499 70.4545C272.499 69.6989 272.393 69.0341 272.183 68.4602C271.973 67.8864 271.663 67.4375 271.254 67.1136C270.845 66.7898 270.342 66.6278 269.746 66.6278C269.155 66.6278 268.655 66.7841 268.246 67.0966C267.842 67.4091 267.533 67.8523 267.317 68.4261C267.101 69 266.993 69.6761 266.993 70.4545ZM282.259 59.5455V77H278.629V59.5455H282.259ZM291.134 77.2557C289.787 77.2557 288.628 76.983 287.656 76.4375C286.69 75.8864 285.946 75.108 285.423 74.1023C284.901 73.0909 284.639 71.8949 284.639 70.5142C284.639 69.1676 284.901 67.9858 285.423 66.9688C285.946 65.9517 286.682 65.1591 287.631 64.5909C288.585 64.0227 289.705 63.7386 290.989 63.7386C291.852 63.7386 292.656 63.8778 293.401 64.1562C294.151 64.429 294.804 64.8409 295.361 65.392C295.923 65.9432 296.361 66.6364 296.673 67.4716C296.986 68.3011 297.142 69.2727 297.142 70.3864V71.3835H286.088V69.1335H293.724C293.724 68.6108 293.611 68.1477 293.384 67.7443C293.156 67.3409 292.841 67.0256 292.438 66.7983C292.04 66.5653 291.577 66.4489 291.048 66.4489C290.497 66.4489 290.009 66.5767 289.582 66.8324C289.162 67.0824 288.832 67.4205 288.594 67.8466C288.355 68.267 288.233 68.7358 288.227 69.2528V71.392C288.227 72.0398 288.347 72.5994 288.585 73.071C288.83 73.5426 289.173 73.9062 289.616 74.1619C290.06 74.4176 290.585 74.5455 291.193 74.5455C291.597 74.5455 291.966 74.4886 292.301 74.375C292.636 74.2614 292.923 74.0909 293.162 73.8636C293.401 73.6364 293.582 73.358 293.707 73.0284L297.065 73.25C296.895 74.0568 296.545 74.7614 296.017 75.3636C295.494 75.9602 294.818 76.4261 293.989 76.7614C293.165 77.0909 292.213 77.2557 291.134 77.2557ZM314.603 64.5653C314.535 63.8778 314.242 63.3437 313.725 62.9631C313.208 62.5824 312.506 62.392 311.62 62.392C311.018 62.392 310.509 62.4773 310.094 62.6477C309.68 62.8125 309.362 63.0426 309.14 63.3381C308.924 63.6335 308.816 63.9688 308.816 64.3438C308.805 64.6562 308.87 64.929 309.012 65.1619C309.16 65.3949 309.362 65.5966 309.617 65.767C309.873 65.9318 310.168 66.0767 310.504 66.2017C310.839 66.321 311.197 66.4233 311.577 66.5085L313.146 66.8835C313.907 67.054 314.606 67.2812 315.242 67.5653C315.879 67.8494 316.43 68.1989 316.896 68.6136C317.362 69.0284 317.722 69.517 317.978 70.0795C318.239 70.642 318.373 71.2869 318.379 72.0142C318.373 73.0824 318.1 74.0085 317.56 74.7926C317.026 75.571 316.254 76.1761 315.242 76.608C314.237 77.0341 313.023 77.2472 311.603 77.2472C310.194 77.2472 308.967 77.0312 307.921 76.5994C306.881 76.1676 306.069 75.5284 305.484 74.6818C304.904 73.8295 304.6 72.7756 304.572 71.5199H308.143C308.183 72.1051 308.35 72.5937 308.646 72.9858C308.947 73.3722 309.347 73.6648 309.847 73.8636C310.353 74.0568 310.924 74.1534 311.56 74.1534C312.185 74.1534 312.728 74.0625 313.188 73.8807C313.654 73.6989 314.015 73.446 314.271 73.1222C314.526 72.7983 314.654 72.4261 314.654 72.0057C314.654 71.6136 314.538 71.2841 314.305 71.017C314.077 70.75 313.742 70.5227 313.299 70.3352C312.862 70.1477 312.325 69.9773 311.688 69.8239L309.788 69.3466C308.316 68.9886 307.154 68.429 306.302 67.6676C305.45 66.9062 305.026 65.8807 305.032 64.5909C305.026 63.5341 305.308 62.6108 305.876 61.821C306.45 61.0312 307.237 60.4148 308.237 59.9716C309.237 59.5284 310.373 59.3068 311.646 59.3068C312.941 59.3068 314.072 59.5284 315.038 59.9716C316.009 60.4148 316.765 61.0312 317.305 61.821C317.844 62.6108 318.123 63.5256 318.14 64.5653H314.603ZM327.756 63.9091V66.6364H319.872V63.9091H327.756ZM321.662 60.7727H325.293V72.9773C325.293 73.3125 325.344 73.5739 325.446 73.7614C325.548 73.9432 325.69 74.071 325.872 74.1449C326.06 74.2187 326.276 74.2557 326.52 74.2557C326.69 74.2557 326.861 74.2415 327.031 74.2131C327.202 74.179 327.332 74.1534 327.423 74.1364L327.994 76.8381C327.813 76.8949 327.557 76.9602 327.227 77.0341C326.898 77.1136 326.497 77.1619 326.026 77.179C325.151 77.2131 324.384 77.0966 323.724 76.8295C323.071 76.5625 322.563 76.1477 322.199 75.5852C321.835 75.0227 321.656 74.3125 321.662 73.4545V60.7727ZM333.854 77.2472C333.018 77.2472 332.274 77.1023 331.621 76.8125C330.967 76.517 330.45 76.0824 330.07 75.5085C329.695 74.929 329.507 74.2074 329.507 73.3438C329.507 72.6165 329.641 72.0057 329.908 71.5114C330.175 71.017 330.538 70.6193 330.999 70.3182C331.459 70.017 331.982 69.7898 332.567 69.6364C333.158 69.483 333.777 69.375 334.425 69.3125C335.186 69.233 335.8 69.1591 336.266 69.0909C336.732 69.017 337.07 68.9091 337.28 68.767C337.49 68.625 337.595 68.4148 337.595 68.1364V68.0852C337.595 67.5455 337.425 67.1278 337.084 66.8324C336.749 66.5369 336.271 66.3892 335.652 66.3892C334.999 66.3892 334.479 66.5341 334.092 66.8239C333.706 67.108 333.45 67.4659 333.325 67.8977L329.967 67.625C330.138 66.8295 330.473 66.142 330.973 65.5625C331.473 64.9773 332.118 64.5284 332.908 64.2159C333.703 63.8977 334.624 63.7386 335.669 63.7386C336.396 63.7386 337.092 63.8239 337.757 63.9943C338.428 64.1648 339.021 64.429 339.538 64.7869C340.061 65.1449 340.473 65.6051 340.774 66.1676C341.075 66.7244 341.226 67.392 341.226 68.1705V77H337.783V75.1847H337.68C337.47 75.5938 337.189 75.9545 336.837 76.267C336.484 76.5739 336.061 76.8153 335.567 76.9915C335.072 77.1619 334.501 77.2472 333.854 77.2472ZM334.893 74.7415C335.428 74.7415 335.899 74.6364 336.308 74.4261C336.717 74.2102 337.038 73.9205 337.271 73.5568C337.504 73.1932 337.621 72.7812 337.621 72.321V70.9318C337.507 71.0057 337.351 71.0739 337.152 71.1364C336.959 71.1932 336.74 71.2472 336.496 71.2983C336.251 71.3437 336.007 71.3864 335.763 71.4261C335.518 71.4602 335.297 71.4915 335.098 71.5199C334.672 71.5824 334.3 71.6818 333.982 71.8182C333.663 71.9545 333.416 72.1392 333.24 72.3722C333.064 72.5994 332.976 72.8835 332.976 73.2244C332.976 73.7188 333.155 74.0966 333.513 74.358C333.876 74.6136 334.337 74.7415 334.893 74.7415ZM351.006 63.9091V66.6364H343.122V63.9091H351.006ZM344.912 60.7727H348.543V72.9773C348.543 73.3125 348.594 73.5739 348.696 73.7614C348.798 73.9432 348.94 74.071 349.122 74.1449C349.31 74.2187 349.526 74.2557 349.77 74.2557C349.94 74.2557 350.111 74.2415 350.281 74.2131C350.452 74.179 350.582 74.1534 350.673 74.1364L351.244 76.8381C351.063 76.8949 350.807 76.9602 350.477 77.0341C350.148 77.1136 349.747 77.1619 349.276 77.179C348.401 77.2131 347.634 77.0966 346.974 76.8295C346.321 76.5625 345.813 76.1477 345.449 75.5852C345.085 75.0227 344.906 74.3125 344.912 73.4545V60.7727ZM359.196 77.2557C357.849 77.2557 356.69 76.983 355.719 76.4375C354.753 75.8864 354.009 75.108 353.486 74.1023C352.963 73.0909 352.702 71.8949 352.702 70.5142C352.702 69.1676 352.963 67.9858 353.486 66.9688C354.009 65.9517 354.744 65.1591 355.693 64.5909C356.648 64.0227 357.767 63.7386 359.051 63.7386C359.915 63.7386 360.719 63.8778 361.463 64.1562C362.213 64.429 362.866 64.8409 363.423 65.392C363.986 65.9432 364.423 66.6364 364.736 67.4716C365.048 68.3011 365.205 69.2727 365.205 70.3864V71.3835H354.151V69.1335H361.787C361.787 68.6108 361.673 68.1477 361.446 67.7443C361.219 67.3409 360.903 67.0256 360.5 66.7983C360.102 66.5653 359.639 66.4489 359.111 66.4489C358.56 66.4489 358.071 66.5767 357.645 66.8324C357.224 67.0824 356.895 67.4205 356.656 67.8466C356.418 68.267 356.295 68.7358 356.29 69.2528V71.392C356.29 72.0398 356.409 72.5994 356.648 73.071C356.892 73.5426 357.236 73.9062 357.679 74.1619C358.122 74.4176 358.648 74.5455 359.256 74.5455C359.659 74.5455 360.028 74.4886 360.364 74.375C360.699 74.2614 360.986 74.0909 361.224 73.8636C361.463 73.6364 361.645 73.358 361.77 73.0284L365.128 73.25C364.957 74.0568 364.608 74.7614 364.08 75.3636C363.557 75.9602 362.881 76.4261 362.051 76.7614C361.227 77.0909 360.276 77.2557 359.196 77.2557Z" fill="#105004"/>
<mask id="path-4-inside-1_3_4804" fill="white">
<path d="M56 94H445V134H56V94Z"/>
</mask>
<path d="M445 133.5H56V134.5H445V133.5Z" fill="#E4E4E4" mask="url(#path-4-inside-1_3_4804)"/>
<path d="M73.9432 111.648H72.1705C72.1023 111.269 71.9754 110.936 71.7898 110.648C71.6042 110.36 71.3769 110.116 71.108 109.915C70.839 109.714 70.5379 109.562 70.2045 109.46C69.875 109.358 69.5246 109.307 69.1534 109.307C68.483 109.307 67.8826 109.475 67.3523 109.812C66.8258 110.15 66.4091 110.644 66.1023 111.295C65.7992 111.947 65.6477 112.742 65.6477 113.682C65.6477 114.629 65.7992 115.428 66.1023 116.08C66.4091 116.731 66.8277 117.223 67.358 117.557C67.8883 117.89 68.4848 118.057 69.1477 118.057C69.5152 118.057 69.8636 118.008 70.1932 117.909C70.5265 117.807 70.8277 117.657 71.0966 117.46C71.3655 117.263 71.5928 117.023 71.7784 116.739C71.9678 116.451 72.0985 116.121 72.1705 115.75L73.9432 115.756C73.8485 116.328 73.6648 116.854 73.392 117.335C73.1231 117.812 72.7765 118.225 72.3523 118.574C71.9318 118.919 71.4508 119.186 70.9091 119.375C70.3674 119.564 69.7765 119.659 69.1364 119.659C68.1288 119.659 67.2311 119.42 66.4432 118.943C65.6553 118.462 65.0341 117.775 64.5795 116.881C64.1288 115.987 63.9034 114.92 63.9034 113.682C63.9034 112.439 64.1307 111.373 64.5852 110.483C65.0398 109.589 65.661 108.903 66.4489 108.426C67.2367 107.945 68.1326 107.705 69.1364 107.705C69.7538 107.705 70.3295 107.794 70.8636 107.972C71.4015 108.146 71.8845 108.403 72.3125 108.744C72.7405 109.081 73.0947 109.494 73.375 109.983C73.6553 110.468 73.8447 111.023 73.9432 111.648ZM78.4474 119.693C77.8944 119.693 77.3944 119.591 76.9474 119.386C76.5005 119.178 76.1463 118.877 75.8849 118.483C75.6274 118.089 75.4986 117.606 75.4986 117.034C75.4986 116.542 75.5933 116.136 75.7827 115.818C75.9721 115.5 76.2277 115.248 76.5497 115.062C76.8717 114.877 77.2315 114.737 77.6293 114.642C78.027 114.547 78.4323 114.475 78.8452 114.426C79.3679 114.366 79.7921 114.316 80.1179 114.278C80.4437 114.237 80.6804 114.17 80.8281 114.08C80.9759 113.989 81.0497 113.841 81.0497 113.636V113.597C81.0497 113.1 80.9096 112.716 80.6293 112.443C80.3527 112.17 79.9399 112.034 79.3906 112.034C78.8187 112.034 78.3679 112.161 78.0384 112.415C77.7126 112.665 77.4872 112.943 77.3622 113.25L75.7656 112.886C75.955 112.356 76.2315 111.928 76.5952 111.602C76.9626 111.273 77.3849 111.034 77.8622 110.886C78.3395 110.735 78.8414 110.659 79.3679 110.659C79.7164 110.659 80.0857 110.701 80.4759 110.784C80.8698 110.864 81.2372 111.011 81.5781 111.227C81.9228 111.443 82.205 111.752 82.4247 112.153C82.6444 112.551 82.7543 113.068 82.7543 113.705V119.5H81.0952V118.307H81.027C80.9171 118.527 80.7524 118.742 80.5327 118.955C80.313 119.167 80.0308 119.343 79.6861 119.483C79.3414 119.623 78.9285 119.693 78.4474 119.693ZM78.8168 118.33C79.2865 118.33 79.688 118.237 80.0213 118.051C80.3584 117.866 80.6141 117.623 80.7884 117.324C80.9664 117.021 81.0554 116.697 81.0554 116.352V115.227C80.9948 115.288 80.8774 115.345 80.7031 115.398C80.5327 115.447 80.3376 115.491 80.1179 115.528C79.8982 115.562 79.6842 115.595 79.4759 115.625C79.2675 115.652 79.0933 115.674 78.9531 115.693C78.6236 115.735 78.3224 115.805 78.0497 115.903C77.7808 116.002 77.5649 116.144 77.402 116.33C77.2429 116.511 77.1634 116.754 77.1634 117.057C77.1634 117.477 77.3187 117.795 77.6293 118.011C77.9399 118.223 78.3357 118.33 78.8168 118.33ZM86.7159 107.864V119.5H85.017V107.864H86.7159ZM89.0014 119.5V110.773H90.7003V119.5H89.0014ZM89.8594 109.426C89.5639 109.426 89.3101 109.328 89.098 109.131C88.8897 108.93 88.7855 108.691 88.7855 108.415C88.7855 108.134 88.8897 107.896 89.098 107.699C89.3101 107.498 89.5639 107.398 89.8594 107.398C90.1548 107.398 90.4067 107.498 90.6151 107.699C90.8272 107.896 90.9332 108.134 90.9332 108.415C90.9332 108.691 90.8272 108.93 90.6151 109.131C90.4067 109.328 90.1548 109.426 89.8594 109.426ZM97.1392 110.773V112.136H92.2074V110.773H97.1392ZM93.5597 119.5V109.761C93.5597 109.216 93.679 108.763 93.9176 108.403C94.1563 108.04 94.4725 107.769 94.8665 107.591C95.2604 107.409 95.6884 107.318 96.1506 107.318C96.4915 107.318 96.7831 107.347 97.0256 107.403C97.268 107.456 97.4479 107.506 97.5653 107.551L97.1676 108.926C97.0881 108.903 96.9858 108.877 96.8608 108.847C96.7358 108.812 96.5843 108.795 96.4062 108.795C95.9934 108.795 95.6979 108.898 95.5199 109.102C95.3456 109.307 95.2585 109.602 95.2585 109.989V119.5H93.5597ZM102.224 119.676C101.406 119.676 100.692 119.489 100.082 119.114C99.4725 118.739 98.9991 118.214 98.6619 117.54C98.3248 116.866 98.1562 116.078 98.1562 115.176C98.1562 114.271 98.3248 113.479 98.6619 112.801C98.9991 112.123 99.4725 111.597 100.082 111.222C100.692 110.847 101.406 110.659 102.224 110.659C103.043 110.659 103.757 110.847 104.366 111.222C104.976 111.597 105.45 112.123 105.787 112.801C106.124 113.479 106.293 114.271 106.293 115.176C106.293 116.078 106.124 116.866 105.787 117.54C105.45 118.214 104.976 118.739 104.366 119.114C103.757 119.489 103.043 119.676 102.224 119.676ZM102.23 118.25C102.76 118.25 103.2 118.11 103.548 117.83C103.897 117.549 104.154 117.176 104.321 116.71C104.491 116.244 104.577 115.731 104.577 115.17C104.577 114.614 104.491 114.102 104.321 113.636C104.154 113.167 103.897 112.79 103.548 112.506C103.2 112.222 102.76 112.08 102.23 112.08C101.696 112.08 101.253 112.222 100.901 112.506C100.552 112.79 100.293 113.167 100.122 113.636C99.9555 114.102 99.8722 114.614 99.8722 115.17C99.8722 115.731 99.9555 116.244 100.122 116.71C100.293 117.176 100.552 117.549 100.901 117.83C101.253 118.11 101.696 118.25 102.23 118.25ZM108.189 119.5V110.773H109.831V112.159H109.922C110.081 111.689 110.361 111.32 110.763 111.051C111.168 110.778 111.626 110.642 112.138 110.642C112.244 110.642 112.369 110.646 112.513 110.653C112.661 110.661 112.776 110.67 112.859 110.682V112.307C112.791 112.288 112.67 112.267 112.496 112.244C112.321 112.218 112.147 112.205 111.973 112.205C111.571 112.205 111.214 112.29 110.899 112.46C110.589 112.627 110.342 112.86 110.161 113.159C109.979 113.455 109.888 113.792 109.888 114.17V119.5H108.189ZM116.028 114.318V119.5H114.33V110.773H115.96V112.193H116.068C116.269 111.731 116.583 111.36 117.011 111.08C117.443 110.799 117.987 110.659 118.642 110.659C119.237 110.659 119.758 110.784 120.205 111.034C120.652 111.28 120.998 111.648 121.244 112.136C121.491 112.625 121.614 113.229 121.614 113.949V119.5H119.915V114.153C119.915 113.521 119.75 113.027 119.42 112.67C119.091 112.311 118.638 112.131 118.062 112.131C117.669 112.131 117.318 112.216 117.011 112.386C116.708 112.557 116.468 112.807 116.29 113.136C116.116 113.462 116.028 113.856 116.028 114.318ZM123.892 119.5V110.773H125.591V119.5H123.892ZM124.75 109.426C124.455 109.426 124.201 109.328 123.989 109.131C123.78 108.93 123.676 108.691 123.676 108.415C123.676 108.134 123.78 107.896 123.989 107.699C124.201 107.498 124.455 107.398 124.75 107.398C125.045 107.398 125.297 107.498 125.506 107.699C125.718 107.896 125.824 108.134 125.824 108.415C125.824 108.691 125.718 108.93 125.506 109.131C125.297 109.328 125.045 109.426 124.75 109.426ZM130.416 119.693C129.863 119.693 129.363 119.591 128.916 119.386C128.469 119.178 128.115 118.877 127.854 118.483C127.596 118.089 127.467 117.606 127.467 117.034C127.467 116.542 127.562 116.136 127.751 115.818C127.941 115.5 128.196 115.248 128.518 115.062C128.84 114.877 129.2 114.737 129.598 114.642C129.996 114.547 130.401 114.475 130.814 114.426C131.337 114.366 131.761 114.316 132.087 114.278C132.412 114.237 132.649 114.17 132.797 114.08C132.945 113.989 133.018 113.841 133.018 113.636V113.597C133.018 113.1 132.878 112.716 132.598 112.443C132.321 112.17 131.909 112.034 131.359 112.034C130.787 112.034 130.337 112.161 130.007 112.415C129.681 112.665 129.456 112.943 129.331 113.25L127.734 112.886C127.924 112.356 128.2 111.928 128.564 111.602C128.931 111.273 129.354 111.034 129.831 110.886C130.308 110.735 130.81 110.659 131.337 110.659C131.685 110.659 132.054 110.701 132.445 110.784C132.839 110.864 133.206 111.011 133.547 111.227C133.892 111.443 134.174 111.752 134.393 112.153C134.613 112.551 134.723 113.068 134.723 113.705V119.5H133.064V118.307H132.996C132.886 118.527 132.721 118.742 132.501 118.955C132.282 119.167 132 119.343 131.655 119.483C131.31 119.623 130.897 119.693 130.416 119.693ZM130.786 118.33C131.255 118.33 131.657 118.237 131.99 118.051C132.327 117.866 132.583 117.623 132.757 117.324C132.935 117.021 133.024 116.697 133.024 116.352V115.227C132.964 115.288 132.846 115.345 132.672 115.398C132.501 115.447 132.306 115.491 132.087 115.528C131.867 115.562 131.653 115.595 131.445 115.625C131.236 115.652 131.062 115.674 130.922 115.693C130.592 115.735 130.291 115.805 130.018 115.903C129.75 116.002 129.534 116.144 129.371 116.33C129.212 116.511 129.132 116.754 129.132 117.057C129.132 117.477 129.287 117.795 129.598 118.011C129.909 118.223 130.304 118.33 130.786 118.33Z" fill="#414141"/>
<path d="M426.8 123.8C432.212 123.8 436.6 119.412 436.6 114C436.6 108.588 432.212 104.2 426.8 104.2C421.388 104.2 417 108.588 417 114C417 119.412 421.388 123.8 426.8 123.8Z" fill="#4CAF50"/>
<path d="M431.747 109.613L425.4 115.96L422.787 113.347L421.48 114.653L425.4 118.573L433.053 110.92L431.747 109.613Z" fill="#CCFF90"/>
<mask id="path-9-inside-2_3_4804" fill="white">
<path d="M56 138H445V178H56V138Z"/>
</mask>
<path d="M445 177.5H56V178.5H445V177.5Z" fill="#E4E4E4" mask="url(#path-9-inside-2_3_4804)"/>
<path d="M64.2784 163.5V151.864H71.4943V153.375H66.0341V156.92H70.9773V158.426H66.0341V163.5H64.2784ZM75.2159 151.864V163.5H73.517V151.864H75.2159ZM81.1776 163.676C80.3594 163.676 79.6454 163.489 79.0355 163.114C78.4257 162.739 77.9522 162.214 77.6151 161.54C77.2779 160.866 77.1094 160.078 77.1094 159.176C77.1094 158.271 77.2779 157.479 77.6151 156.801C77.9522 156.123 78.4257 155.597 79.0355 155.222C79.6454 154.847 80.3594 154.659 81.1776 154.659C81.9957 154.659 82.7098 154.847 83.3196 155.222C83.9295 155.597 84.4029 156.123 84.7401 156.801C85.0772 157.479 85.2457 158.271 85.2457 159.176C85.2457 160.078 85.0772 160.866 84.7401 161.54C84.4029 162.214 83.9295 162.739 83.3196 163.114C82.7098 163.489 81.9957 163.676 81.1776 163.676ZM81.1832 162.25C81.7135 162.25 82.1529 162.11 82.5014 161.83C82.8499 161.549 83.1075 161.176 83.2741 160.71C83.4446 160.244 83.5298 159.731 83.5298 159.17C83.5298 158.614 83.4446 158.102 83.2741 157.636C83.1075 157.167 82.8499 156.79 82.5014 156.506C82.1529 156.222 81.7135 156.08 81.1832 156.08C80.6491 156.08 80.206 156.222 79.8537 156.506C79.5052 156.79 79.2457 157.167 79.0753 157.636C78.9086 158.102 78.8253 158.614 78.8253 159.17C78.8253 159.731 78.9086 160.244 79.0753 160.71C79.2457 161.176 79.5052 161.549 79.8537 161.83C80.206 162.11 80.6491 162.25 81.1832 162.25ZM87.142 163.5V154.773H88.7841V156.159H88.875C89.0341 155.689 89.3144 155.32 89.7159 155.051C90.1212 154.778 90.5795 154.642 91.0909 154.642C91.197 154.642 91.322 154.646 91.4659 154.653C91.6136 154.661 91.7292 154.67 91.8125 154.682V156.307C91.7443 156.288 91.6231 156.267 91.4489 156.244C91.2746 156.218 91.1004 156.205 90.9261 156.205C90.5246 156.205 90.1667 156.29 89.8523 156.46C89.5417 156.627 89.2955 156.86 89.1136 157.159C88.9318 157.455 88.8409 157.792 88.8409 158.17V163.5H87.142ZM93.2827 163.5V154.773H94.9815V163.5H93.2827ZM94.1406 153.426C93.8452 153.426 93.5914 153.328 93.3793 153.131C93.1709 152.93 93.0668 152.691 93.0668 152.415C93.0668 152.134 93.1709 151.896 93.3793 151.699C93.5914 151.498 93.8452 151.398 94.1406 151.398C94.4361 151.398 94.688 151.498 94.8963 151.699C95.1084 151.896 95.2145 152.134 95.2145 152.415C95.2145 152.691 95.1084 152.93 94.8963 153.131C94.688 153.328 94.4361 153.426 94.1406 153.426ZM100.534 163.67C99.8295 163.67 99.2008 163.491 98.6477 163.131C98.0985 162.767 97.6667 162.25 97.3523 161.58C97.0417 160.905 96.8864 160.097 96.8864 159.153C96.8864 158.21 97.0436 157.403 97.358 156.733C97.6761 156.062 98.1117 155.549 98.6648 155.193C99.2178 154.837 99.8447 154.659 100.545 154.659C101.087 154.659 101.523 154.75 101.852 154.932C102.186 155.11 102.443 155.318 102.625 155.557C102.811 155.795 102.955 156.006 103.057 156.188H103.159V151.864H104.858V163.5H103.199V162.142H103.057C102.955 162.328 102.807 162.54 102.614 162.778C102.424 163.017 102.163 163.225 101.83 163.403C101.496 163.581 101.064 163.67 100.534 163.67ZM100.909 162.222C101.398 162.222 101.811 162.093 102.148 161.835C102.489 161.574 102.746 161.212 102.92 160.75C103.098 160.288 103.188 159.75 103.188 159.136C103.188 158.53 103.1 158 102.926 157.545C102.752 157.091 102.496 156.737 102.159 156.483C101.822 156.229 101.405 156.102 100.909 156.102C100.398 156.102 99.9716 156.235 99.6307 156.5C99.2898 156.765 99.0322 157.127 98.858 157.585C98.6875 158.044 98.6023 158.561 98.6023 159.136C98.6023 159.72 98.6894 160.244 98.8636 160.71C99.0379 161.176 99.2955 161.545 99.6364 161.818C99.9811 162.087 100.405 162.222 100.909 162.222ZM109.822 163.693C109.269 163.693 108.769 163.591 108.322 163.386C107.875 163.178 107.521 162.877 107.26 162.483C107.002 162.089 106.874 161.606 106.874 161.034C106.874 160.542 106.968 160.136 107.158 159.818C107.347 159.5 107.603 159.248 107.925 159.062C108.247 158.877 108.607 158.737 109.004 158.642C109.402 158.547 109.807 158.475 110.22 158.426C110.743 158.366 111.167 158.316 111.493 158.278C111.819 158.237 112.055 158.17 112.203 158.08C112.351 157.989 112.425 157.841 112.425 157.636V157.597C112.425 157.1 112.285 156.716 112.004 156.443C111.728 156.17 111.315 156.034 110.766 156.034C110.194 156.034 109.743 156.161 109.413 156.415C109.088 156.665 108.862 156.943 108.737 157.25L107.141 156.886C107.33 156.356 107.607 155.928 107.97 155.602C108.338 155.273 108.76 155.034 109.237 154.886C109.714 154.735 110.216 154.659 110.743 154.659C111.091 154.659 111.461 154.701 111.851 154.784C112.245 154.864 112.612 155.011 112.953 155.227C113.298 155.443 113.58 155.752 113.8 156.153C114.019 156.551 114.129 157.068 114.129 157.705V163.5H112.47V162.307H112.402C112.292 162.527 112.127 162.742 111.908 162.955C111.688 163.167 111.406 163.343 111.061 163.483C110.716 163.623 110.304 163.693 109.822 163.693ZM110.192 162.33C110.661 162.33 111.063 162.237 111.396 162.051C111.733 161.866 111.989 161.623 112.163 161.324C112.341 161.021 112.43 160.697 112.43 160.352V159.227C112.37 159.288 112.252 159.345 112.078 159.398C111.908 159.447 111.713 159.491 111.493 159.528C111.273 159.562 111.059 159.595 110.851 159.625C110.643 159.652 110.468 159.674 110.328 159.693C109.999 159.735 109.697 159.805 109.425 159.903C109.156 160.002 108.94 160.144 108.777 160.33C108.618 160.511 108.538 160.754 108.538 161.057C108.538 161.477 108.694 161.795 109.004 162.011C109.315 162.223 109.711 162.33 110.192 162.33Z" fill="#414141"/>
<path d="M426.8 167.8C432.212 167.8 436.6 163.412 436.6 158C436.6 152.587 432.212 148.2 426.8 148.2C421.388 148.2 417 152.587 417 158C417 163.412 421.388 167.8 426.8 167.8Z" fill="#4CAF50"/>
<path d="M431.747 153.613L425.4 159.96L422.787 157.347L421.48 158.653L425.4 162.573L433.053 154.92L431.747 153.613Z" fill="#CCFF90"/>
<mask id="path-14-inside-3_3_4804" fill="white">
<path d="M56 182H445V222H56V182Z"/>
</mask>
<path d="M445 221.5H56V222.5H445V221.5Z" fill="#E4E4E4" mask="url(#path-14-inside-3_3_4804)"/>
<path d="M73.6705 195.864V207.5H72.0568L66.142 198.966H66.0341V207.5H64.2784V195.864H65.9034L71.8239 204.409H71.9318V195.864H73.6705ZM79.8565 207.676C78.9967 207.676 78.2562 207.492 77.6349 207.125C77.0175 206.754 76.5402 206.233 76.2031 205.562C75.8698 204.888 75.7031 204.098 75.7031 203.193C75.7031 202.299 75.8698 201.511 76.2031 200.83C76.5402 200.148 77.0099 199.616 77.6122 199.233C78.2183 198.85 78.9266 198.659 79.7372 198.659C80.2296 198.659 80.7069 198.741 81.169 198.903C81.6312 199.066 82.0459 199.322 82.4134 199.67C82.7808 200.019 83.0705 200.472 83.2827 201.028C83.4948 201.581 83.6009 202.254 83.6009 203.045V203.648H76.6634V202.375H81.9361C81.9361 201.928 81.8452 201.532 81.6634 201.188C81.4815 200.839 81.2259 200.564 80.8963 200.364C80.5705 200.163 80.188 200.062 79.7486 200.062C79.2713 200.062 78.8546 200.18 78.4986 200.415C78.1463 200.646 77.8736 200.949 77.6804 201.324C77.491 201.695 77.3963 202.098 77.3963 202.534V203.528C77.3963 204.112 77.4986 204.608 77.7031 205.017C77.9115 205.426 78.2012 205.739 78.5724 205.955C78.9437 206.167 79.3774 206.273 79.8736 206.273C80.1955 206.273 80.4891 206.227 80.7543 206.136C81.0194 206.042 81.2486 205.902 81.4418 205.716C81.6349 205.53 81.7827 205.301 81.8849 205.028L83.4929 205.318C83.3641 205.792 83.133 206.206 82.7997 206.562C82.4702 206.915 82.0554 207.189 81.5554 207.386C81.0592 207.58 80.4929 207.676 79.8565 207.676ZM87.3622 207.5L84.794 198.773H86.5497L88.2599 205.182H88.3452L90.0611 198.773H91.8168L93.5213 205.153H93.6065L95.3054 198.773H97.0611L94.4986 207.5H92.7656L90.9929 201.199H90.8622L89.0895 207.5H87.3622ZM102.146 195.864H104.141L107.18 201.153H107.305L110.345 195.864H112.339L108.118 202.932V207.5H106.368V202.932L102.146 195.864ZM116.099 207.676C115.281 207.676 114.567 207.489 113.957 207.114C113.348 206.739 112.874 206.214 112.537 205.54C112.2 204.866 112.031 204.078 112.031 203.176C112.031 202.271 112.2 201.479 112.537 200.801C112.874 200.123 113.348 199.597 113.957 199.222C114.567 198.847 115.281 198.659 116.099 198.659C116.918 198.659 117.632 198.847 118.241 199.222C118.851 199.597 119.325 200.123 119.662 200.801C119.999 201.479 120.168 202.271 120.168 203.176C120.168 204.078 119.999 204.866 119.662 205.54C119.325 206.214 118.851 206.739 118.241 207.114C117.632 207.489 116.918 207.676 116.099 207.676ZM116.105 206.25C116.635 206.25 117.075 206.11 117.423 205.83C117.772 205.549 118.029 205.176 118.196 204.71C118.366 204.244 118.452 203.731 118.452 203.17C118.452 202.614 118.366 202.102 118.196 201.636C118.029 201.167 117.772 200.79 117.423 200.506C117.075 200.222 116.635 200.08 116.105 200.08C115.571 200.08 115.128 200.222 114.776 200.506C114.427 200.79 114.168 201.167 113.997 201.636C113.83 202.102 113.747 202.614 113.747 203.17C113.747 203.731 113.83 204.244 113.997 204.71C114.168 205.176 114.427 205.549 114.776 205.83C115.128 206.11 115.571 206.25 116.105 206.25ZM122.064 207.5V198.773H123.706V200.159H123.797C123.956 199.689 124.236 199.32 124.638 199.051C125.043 198.778 125.501 198.642 126.013 198.642C126.119 198.642 126.244 198.646 126.388 198.653C126.536 198.661 126.651 198.67 126.734 198.682V200.307C126.666 200.288 126.545 200.267 126.371 200.244C126.196 200.218 126.022 200.205 125.848 200.205C125.446 200.205 125.089 200.29 124.774 200.46C124.464 200.627 124.217 200.86 124.036 201.159C123.854 201.455 123.763 201.792 123.763 202.17V207.5H122.064ZM129.767 204.54L129.756 202.466H130.051L133.528 198.773H135.562L131.597 202.977H131.33L129.767 204.54ZM128.205 207.5V195.864H129.903V207.5H128.205ZM133.716 207.5L130.591 203.352L131.761 202.165L135.801 207.5H133.716Z" fill="#414141"/>
<path d="M426.8 211.8C432.212 211.8 436.6 207.412 436.6 202C436.6 196.587 432.212 192.2 426.8 192.2C421.388 192.2 417 196.587 417 202C417 207.412 421.388 211.8 426.8 211.8Z" fill="#4CAF50"/>
<path d="M431.747 197.613L425.4 203.96L422.787 201.347L421.48 202.653L425.4 206.573L433.053 198.92L431.747 197.613Z" fill="#CCFF90"/>
<mask id="path-19-inside-4_3_4804" fill="white">
<path d="M56 226H445V266H56V226Z"/>
</mask>
<path d="M445 265.5H56V266.5H445V265.5Z" fill="#E4E4E4" mask="url(#path-19-inside-4_3_4804)"/>
<rect x="63" y="242" width="185" height="8" rx="4" fill="#C0C0C0"/>
<mask id="path-22-inside-5_3_4804" fill="white">
<path d="M56 270H445V310H56V270Z"/>
</mask>
<path d="M445 309.5H56V310.5H445V309.5Z" fill="#E4E4E4" mask="url(#path-22-inside-5_3_4804)"/>
<rect x="63" y="286" width="102" height="8" rx="4" fill="#C0C0C0"/>
<mask id="path-25-inside-6_3_4804" fill="white">
<path d="M56 314H445V354H56V314Z"/>
</mask>
<path d="M445 353.5H56V354.5H445V353.5Z" fill="#E4E4E4" mask="url(#path-25-inside-6_3_4804)"/>
<rect x="63" y="330" width="185" height="8" rx="4" fill="#C0C0C0"/>
</svg>
