<svg width="500" height="400" viewBox="0 0 500 400" fill="none" xmlns="http://www.w3.org/2000/svg">
<rect width="500" height="400" rx="20" fill="white"/>
<g opacity="0.8">
<rect x="21" y="112" width="180" height="176" rx="19.2" fill="#407336" fill-opacity="0.2"/>
<path fill-rule="evenodd" clip-rule="evenodd" d="M100.475 153.84C101.882 152.268 103.605 151.011 105.53 150.151C107.456 149.29 109.541 148.846 111.65 148.846C113.759 148.846 115.845 149.29 117.77 150.151C119.696 151.011 121.418 152.268 122.825 153.84L126.325 157.75C126.825 158.309 127.445 158.749 128.138 159.036C128.832 159.324 129.581 159.451 130.33 159.41L135.58 159.12C137.685 159.004 139.791 159.333 141.761 160.087C143.73 160.84 145.518 162 147.009 163.49C148.5 164.981 149.66 166.77 150.413 168.739C151.166 170.708 151.496 172.814 151.38 174.92L151.09 180.17C151.049 180.918 151.177 181.666 151.465 182.359C151.752 183.051 152.191 183.67 152.75 184.17L156.665 187.67C158.237 189.077 159.495 190.799 160.356 192.725C161.217 194.651 161.662 196.737 161.662 198.847C161.662 200.957 161.217 203.043 160.356 204.969C159.495 206.895 158.237 208.618 156.665 210.025L152.75 213.525C152.191 214.025 151.751 214.645 151.463 215.338C151.176 216.031 151.049 216.78 151.09 217.53L151.38 222.78C151.496 224.885 151.166 226.991 150.413 228.96C149.66 230.929 148.5 232.718 147.009 234.209C145.518 235.7 143.73 236.859 141.761 237.613C139.791 238.366 137.685 238.695 135.58 238.58L130.33 238.29C129.582 238.249 128.833 238.377 128.141 238.664C127.449 238.951 126.83 239.391 126.33 239.95L122.83 243.865C121.423 245.437 119.7 246.694 117.774 247.555C115.848 248.416 113.762 248.861 111.653 248.861C109.543 248.861 107.457 248.416 105.531 247.555C103.605 246.694 101.882 245.437 100.475 243.865L96.9751 239.95C96.475 239.39 95.8552 238.95 95.1619 238.663C94.4686 238.376 93.7195 238.248 92.9701 238.29L87.7201 238.58C85.6149 238.695 83.5089 238.366 81.5396 237.613C79.5703 236.859 77.7818 235.7 76.291 234.209C74.8001 232.718 73.6403 230.929 72.8871 228.96C72.134 226.991 71.8045 224.885 71.9201 222.78L72.2101 217.53C72.251 216.781 72.123 216.033 71.8357 215.341C71.5483 214.648 71.109 214.029 70.5501 213.53L66.6401 210.03C65.068 208.623 63.8104 206.9 62.9494 204.974C62.0884 203.048 61.6433 200.962 61.6433 198.852C61.6433 196.742 62.0884 194.656 62.9494 192.73C63.8104 190.804 65.068 189.082 66.6401 187.675L70.5501 184.175C71.1097 183.674 71.5494 183.055 71.8368 182.361C72.1242 181.668 72.2518 180.919 72.2101 180.17L71.9201 174.92C71.8045 172.814 72.134 170.708 72.8871 168.739C73.6403 166.77 74.8001 164.981 76.291 163.49C77.7818 162 79.5703 160.84 81.5396 160.087C83.5089 159.333 85.6149 159.004 87.7201 159.12L92.9701 159.41C93.7187 159.45 94.4668 159.322 95.1592 159.035C95.8516 158.748 96.4705 158.308 96.9701 157.75L100.475 153.84ZM130.185 180.315C131.122 181.252 131.649 182.524 131.649 183.85C131.649 185.175 131.122 186.447 130.185 187.385L100.185 217.385C99.2421 218.295 97.9791 218.799 96.6681 218.788C95.3572 218.777 94.1031 218.251 93.1761 217.324C92.249 216.397 91.7232 215.143 91.7118 213.832C91.7004 212.521 92.2044 211.258 93.1151 210.315L123.115 180.315C124.053 179.377 125.324 178.851 126.65 178.851C127.976 178.851 129.248 179.377 130.185 180.315ZM99.1501 178.85C97.161 178.85 95.2534 179.64 93.8468 181.046C92.4403 182.453 91.6501 184.36 91.6501 186.35V186.4C91.6501 188.389 92.4403 190.296 93.8468 191.703C95.2534 193.109 97.161 193.9 99.1501 193.9H99.2001C101.189 193.9 103.097 193.109 104.503 191.703C105.91 190.296 106.7 188.389 106.7 186.4V186.35C106.7 184.36 105.91 182.453 104.503 181.046C103.097 179.64 101.189 178.85 99.2001 178.85H99.1501ZM124.15 203.85C122.161 203.85 120.253 204.64 118.847 206.046C117.44 207.453 116.65 209.36 116.65 211.35V211.4C116.65 213.389 117.44 215.296 118.847 216.703C120.253 218.109 122.161 218.9 124.15 218.9H124.2C126.189 218.9 128.097 218.109 129.503 216.703C130.91 215.296 131.7 213.389 131.7 211.4V211.35C131.7 209.36 130.91 207.453 129.503 206.046C128.097 204.64 126.189 203.85 124.2 203.85H124.15Z" fill="#105004"/>
</g>
<rect x="233" y="139.38" width="224.64" height="9.36" rx="4.68" fill="#B3B3B3"/>
<rect x="233" y="167.46" width="130.291" height="9.36" rx="4.68" fill="#B3B3B3"/>
<rect x="233" y="195.54" width="224.64" height="9.36" rx="4.68" fill="#B3B3B3"/>
<rect width="187" height="37" transform="translate(233 223.62)" fill="#E1E9DF"/>
<path d="M252.537 239.964L252.174 241.346H245.507L245.865 239.964H252.537ZM249.072 247.62L245.671 243.573L245.676 242.33H247.357C247.731 242.33 248.044 242.261 248.296 242.121C248.548 241.982 248.737 241.793 248.863 241.555C248.989 241.316 249.054 241.044 249.057 240.739C249.054 240.282 248.919 239.909 248.654 239.621C248.392 239.329 247.96 239.183 247.357 239.183H245.507L245.915 237.438H247.357C248.202 237.438 248.906 237.566 249.469 237.821C250.036 238.073 250.46 238.432 250.742 238.9C251.027 239.367 251.171 239.924 251.175 240.57C251.171 241.144 251.075 241.644 250.886 242.072C250.701 242.499 250.407 242.856 250.006 243.141C249.609 243.426 249.09 243.638 248.45 243.777L248.371 243.807L251.413 247.531V247.62H249.072ZM252.547 237.438L252.174 238.84H246.685L247.058 237.438H252.547ZM257.971 247.759C257.378 247.759 256.814 247.666 256.281 247.481C255.75 247.292 255.28 246.995 254.869 246.591C254.458 246.187 254.134 245.66 253.899 245.01C253.667 244.36 253.553 243.573 253.556 242.648C253.559 241.823 253.665 241.081 253.874 240.421C254.086 239.762 254.386 239.2 254.774 238.736C255.165 238.272 255.633 237.917 256.176 237.672C256.72 237.423 257.325 237.299 257.991 237.299C258.74 237.299 259.399 237.443 259.969 237.732C260.54 238.02 260.994 238.406 261.332 238.89C261.673 239.37 261.872 239.901 261.928 240.481H259.204C259.141 240.192 258.995 239.982 258.766 239.849C258.541 239.714 258.282 239.646 257.991 239.646C257.411 239.646 256.985 239.897 256.713 240.401C256.445 240.905 256.307 241.568 256.3 242.39H256.36C256.489 242.078 256.685 241.812 256.947 241.589C257.209 241.367 257.513 241.197 257.862 241.077C258.21 240.958 258.577 240.898 258.965 240.898C259.582 240.898 260.12 241.038 260.581 241.316C261.045 241.594 261.406 241.976 261.665 242.459C261.923 242.943 262.051 243.497 262.048 244.12C262.051 244.849 261.879 245.487 261.531 246.034C261.186 246.581 260.707 247.005 260.094 247.307C259.481 247.608 258.773 247.759 257.971 247.759ZM257.951 245.671C258.226 245.671 258.47 245.608 258.682 245.482C258.897 245.356 259.065 245.184 259.184 244.965C259.307 244.746 259.366 244.498 259.363 244.219C259.366 243.938 259.307 243.689 259.184 243.474C259.065 243.255 258.897 243.083 258.682 242.957C258.47 242.831 258.226 242.768 257.951 242.768C257.749 242.768 257.562 242.804 257.389 242.877C257.22 242.947 257.073 243.048 256.947 243.18C256.821 243.31 256.721 243.464 256.648 243.643C256.579 243.818 256.542 244.011 256.539 244.219C256.542 244.498 256.605 244.746 256.728 244.965C256.851 245.184 257.018 245.356 257.23 245.482C257.442 245.608 257.683 245.671 257.951 245.671ZM267.734 247.898C266.809 247.895 266.01 247.681 265.338 247.257C264.665 246.833 264.146 246.221 263.781 245.423C263.417 244.624 263.236 243.666 263.24 242.549C263.243 241.429 263.425 240.477 263.786 239.695C264.151 238.913 264.668 238.318 265.338 237.91C266.01 237.503 266.809 237.299 267.734 237.299C268.659 237.299 269.457 237.504 270.13 237.915C270.803 238.323 271.322 238.918 271.686 239.7C272.051 240.482 272.231 241.432 272.228 242.549C272.228 243.673 272.046 244.634 271.681 245.432C271.317 246.231 270.798 246.843 270.125 247.267C269.456 247.688 268.659 247.898 267.734 247.898ZM267.734 245.651C268.211 245.651 268.602 245.403 268.907 244.906C269.215 244.405 269.368 243.62 269.365 242.549C269.365 241.85 269.295 241.278 269.156 240.834C269.017 240.39 268.824 240.062 268.579 239.849C268.334 239.634 268.052 239.526 267.734 239.526C267.257 239.526 266.867 239.768 266.566 240.252C266.264 240.736 266.11 241.502 266.103 242.549C266.1 243.262 266.168 243.848 266.307 244.309C266.446 244.766 266.638 245.104 266.884 245.323C267.132 245.542 267.416 245.651 267.734 245.651ZM277.96 247.898C277.036 247.895 276.237 247.681 275.564 247.257C274.891 246.833 274.373 246.221 274.008 245.423C273.643 244.624 273.463 243.666 273.466 242.549C273.469 241.429 273.652 240.477 274.013 239.695C274.378 238.913 274.895 238.318 275.564 237.91C276.237 237.503 277.036 237.299 277.96 237.299C278.885 237.299 279.684 237.504 280.357 237.915C281.03 238.323 281.548 238.918 281.913 239.7C282.277 240.482 282.458 241.432 282.455 242.549C282.455 243.673 282.272 244.634 281.908 245.432C281.543 246.231 281.025 246.843 280.352 247.267C279.682 247.688 278.885 247.898 277.96 247.898ZM277.96 245.651C278.438 245.651 278.829 245.403 279.134 244.906C279.442 244.405 279.594 243.62 279.591 242.549C279.591 241.85 279.521 241.278 279.382 240.834C279.243 240.39 279.051 240.062 278.806 239.849C278.56 239.634 278.279 239.526 277.96 239.526C277.483 239.526 277.094 239.768 276.792 240.252C276.49 240.736 276.336 241.502 276.33 242.549C276.326 243.262 276.394 243.848 276.534 244.309C276.673 244.766 276.865 245.104 277.11 245.323C277.359 245.542 277.642 245.651 277.96 245.651ZM290.439 247.62H286.521V237.438H290.399C291.447 237.438 292.352 237.642 293.114 238.05C293.879 238.454 294.469 239.037 294.884 239.8C295.301 240.559 295.51 241.468 295.51 242.529C295.51 243.59 295.303 244.501 294.889 245.263C294.474 246.022 293.888 246.606 293.129 247.013C292.37 247.418 291.473 247.62 290.439 247.62ZM289.286 245.273H290.34C290.843 245.273 291.273 245.192 291.627 245.03C291.985 244.867 292.257 244.587 292.443 244.19C292.632 243.792 292.726 243.238 292.726 242.529C292.726 241.82 292.63 241.266 292.438 240.869C292.249 240.471 291.97 240.191 291.602 240.028C291.238 239.866 290.79 239.785 290.26 239.785H289.286V245.273ZM296.829 247.62V239.984H299.573V247.62H296.829ZM298.201 239.188C297.83 239.188 297.512 239.066 297.246 238.82C296.981 238.575 296.849 238.28 296.849 237.935C296.849 237.591 296.981 237.296 297.246 237.05C297.512 236.805 297.83 236.682 298.201 236.682C298.576 236.682 298.894 236.805 299.156 237.05C299.421 237.296 299.553 237.591 299.553 237.935C299.553 238.28 299.421 238.575 299.156 238.82C298.894 239.066 298.576 239.188 298.201 239.188ZM307.952 242.469H305.426C305.413 242.314 305.358 242.179 305.262 242.067C305.166 241.954 305.041 241.868 304.889 241.808C304.74 241.745 304.574 241.714 304.392 241.714C304.157 241.714 303.954 241.757 303.785 241.843C303.616 241.929 303.533 242.052 303.537 242.211C303.533 242.324 303.581 242.428 303.681 242.524C303.784 242.62 303.981 242.695 304.273 242.748L305.824 243.026C306.606 243.169 307.188 243.409 307.569 243.747C307.953 244.082 308.147 244.531 308.15 245.094C308.147 245.638 307.985 246.11 307.663 246.511C307.345 246.909 306.909 247.217 306.356 247.436C305.805 247.651 305.177 247.759 304.471 247.759C303.305 247.759 302.392 247.521 301.732 247.043C301.076 246.566 300.71 245.936 300.633 245.154H303.358C303.394 245.396 303.514 245.583 303.716 245.716C303.921 245.845 304.18 245.91 304.491 245.91C304.743 245.91 304.95 245.867 305.113 245.781C305.278 245.694 305.363 245.572 305.366 245.413C305.363 245.267 305.29 245.151 305.148 245.065C305.008 244.978 304.79 244.909 304.491 244.856L303.139 244.617C302.36 244.481 301.777 244.223 301.389 243.842C301.001 243.46 300.809 242.97 300.812 242.37C300.809 241.84 300.948 241.391 301.23 241.023C301.515 240.651 301.921 240.37 302.448 240.178C302.978 239.982 303.606 239.884 304.332 239.884C305.436 239.884 306.306 240.113 306.942 240.57C307.582 241.028 307.918 241.661 307.952 242.469ZM312.881 247.759C312.052 247.759 311.343 247.595 310.753 247.267C310.163 246.936 309.711 246.475 309.396 245.885C309.081 245.292 308.923 244.604 308.923 243.822C308.923 243.04 309.081 242.353 309.396 241.763C309.711 241.17 310.163 240.709 310.753 240.381C311.343 240.05 312.052 239.884 312.881 239.884C313.63 239.884 314.278 240.02 314.825 240.292C315.375 240.56 315.801 240.941 316.102 241.435C316.404 241.926 316.557 242.503 316.56 243.165H314.014C313.978 242.764 313.862 242.459 313.666 242.251C313.474 242.039 313.226 241.932 312.921 241.932C312.682 241.932 312.473 242.002 312.294 242.141C312.115 242.277 311.976 242.484 311.877 242.763C311.777 243.038 311.727 243.384 311.727 243.802C311.727 244.219 311.777 244.567 311.877 244.846C311.976 245.121 312.115 245.328 312.294 245.467C312.473 245.603 312.682 245.671 312.921 245.671C313.123 245.671 313.302 245.625 313.458 245.532C313.613 245.436 313.739 245.297 313.835 245.114C313.935 244.929 313.994 244.703 314.014 244.438H316.56C316.55 245.111 316.396 245.698 316.097 246.198C315.799 246.695 315.377 247.08 314.83 247.352C314.286 247.623 313.637 247.759 312.881 247.759ZM321.371 247.759C320.542 247.759 319.833 247.595 319.243 247.267C318.653 246.936 318.201 246.475 317.886 245.885C317.571 245.292 317.414 244.604 317.414 243.822C317.414 243.04 317.571 242.353 317.886 241.763C318.201 241.17 318.653 240.709 319.243 240.381C319.833 240.05 320.542 239.884 321.371 239.884C322.2 239.884 322.909 240.05 323.499 240.381C324.089 240.709 324.541 241.17 324.856 241.763C325.171 242.353 325.328 243.04 325.328 243.822C325.328 244.604 325.171 245.292 324.856 245.885C324.541 246.475 324.089 246.936 323.499 247.267C322.909 247.595 322.2 247.759 321.371 247.759ZM321.391 245.731C321.623 245.731 321.824 245.653 321.993 245.497C322.162 245.341 322.292 245.119 322.385 244.831C322.478 244.543 322.525 244.2 322.525 243.802C322.525 243.401 322.478 243.058 322.385 242.773C322.292 242.484 322.162 242.262 321.993 242.107C321.824 241.951 321.623 241.873 321.391 241.873C321.146 241.873 320.935 241.951 320.76 242.107C320.584 242.262 320.45 242.484 320.357 242.773C320.264 243.058 320.218 243.401 320.218 243.802C320.218 244.2 320.264 244.543 320.357 244.831C320.45 245.119 320.584 245.341 320.76 245.497C320.935 245.653 321.146 245.731 321.391 245.731ZM331.394 244.279V239.984H334.138V247.62H331.533V246.168H331.453C331.288 246.656 330.998 247.037 330.583 247.312C330.169 247.584 329.677 247.719 329.107 247.719C328.573 247.719 328.106 247.597 327.705 247.352C327.307 247.106 326.997 246.768 326.775 246.337C326.556 245.906 326.445 245.413 326.442 244.856V239.984H329.186V244.279C329.19 244.657 329.286 244.954 329.475 245.169C329.667 245.384 329.935 245.492 330.28 245.492C330.509 245.492 330.706 245.444 330.872 245.348C331.041 245.249 331.17 245.109 331.26 244.93C331.352 244.748 331.397 244.531 331.394 244.279ZM338.278 243.325V247.62H335.534V239.984H338.139V241.435H338.219C338.384 240.951 338.676 240.572 339.094 240.297C339.515 240.022 340.005 239.884 340.565 239.884C341.105 239.884 341.574 240.008 341.972 240.257C342.373 240.502 342.683 240.84 342.902 241.271C343.124 241.702 343.233 242.194 343.23 242.748V247.62H340.486V243.325C340.489 242.947 340.393 242.65 340.197 242.435C340.005 242.219 339.737 242.111 339.392 242.111C339.166 242.111 338.969 242.161 338.8 242.261C338.635 242.357 338.507 242.496 338.417 242.678C338.328 242.857 338.282 243.073 338.278 243.325ZM349.139 239.984V241.972H344.107V239.984H349.139ZM345.082 238.154H347.826V245.164C347.826 245.27 347.844 245.36 347.881 245.432C347.917 245.502 347.974 245.555 348.05 245.592C348.126 245.625 348.224 245.641 348.343 245.641C348.426 245.641 348.522 245.631 348.632 245.611C348.744 245.592 348.827 245.575 348.88 245.562L349.278 247.491C349.155 247.527 348.98 247.572 348.751 247.625C348.526 247.678 348.257 247.713 347.945 247.729C347.316 247.763 346.787 247.698 346.36 247.535C345.932 247.37 345.61 247.11 345.395 246.755C345.18 246.4 345.075 245.956 345.082 245.423V238.154ZM355.653 247.62H352.67L356.031 237.438H359.809L363.17 247.62H360.187L357.96 240.242H357.88L355.653 247.62ZM355.096 243.603H360.704V245.671H355.096V243.603ZM364.19 250.484V239.984H366.915V241.316H366.974C367.074 241.057 367.22 240.821 367.412 240.605C367.604 240.386 367.843 240.212 368.128 240.083C368.413 239.95 368.744 239.884 369.122 239.884C369.626 239.884 370.105 240.018 370.559 240.287C371.016 240.555 371.387 240.978 371.672 241.555C371.961 242.131 372.105 242.88 372.105 243.802C372.105 244.683 371.967 245.414 371.692 245.994C371.421 246.574 371.056 247.007 370.599 247.292C370.144 247.577 369.646 247.719 369.102 247.719C368.744 247.719 368.424 247.661 368.143 247.545C367.864 247.426 367.626 247.265 367.427 247.063C367.231 246.858 367.08 246.626 366.974 246.367H366.934V250.484H364.19ZM366.875 243.802C366.875 244.173 366.923 244.495 367.019 244.766C367.118 245.035 367.258 245.244 367.437 245.393C367.619 245.539 367.836 245.611 368.088 245.611C368.34 245.611 368.554 245.54 368.729 245.398C368.908 245.252 369.044 245.045 369.137 244.776C369.233 244.504 369.281 244.18 369.281 243.802C369.281 243.424 369.233 243.101 369.137 242.832C369.044 242.561 368.908 242.353 368.729 242.211C368.554 242.065 368.34 241.992 368.088 241.992C367.836 241.992 367.619 242.065 367.437 242.211C367.258 242.353 367.118 242.561 367.019 242.832C366.923 243.101 366.875 243.424 366.875 243.802ZM373.255 250.484V239.984H375.979V241.316H376.039C376.138 241.057 376.284 240.821 376.476 240.605C376.668 240.386 376.907 240.212 377.192 240.083C377.477 239.95 377.809 239.884 378.186 239.884C378.69 239.884 379.169 240.018 379.623 240.287C380.081 240.555 380.452 240.978 380.737 241.555C381.025 242.131 381.169 242.88 381.169 243.802C381.169 244.683 381.032 245.414 380.757 245.994C380.485 246.574 380.12 247.007 379.663 247.292C379.209 247.577 378.71 247.719 378.167 247.719C377.809 247.719 377.489 247.661 377.207 247.545C376.929 247.426 376.69 247.265 376.491 247.063C376.296 246.858 376.145 246.626 376.039 246.367H375.999V250.484H373.255ZM375.939 243.802C375.939 244.173 375.987 244.495 376.083 244.766C376.183 245.035 376.322 245.244 376.501 245.393C376.683 245.539 376.9 245.611 377.152 245.611C377.404 245.611 377.618 245.54 377.794 245.398C377.973 245.252 378.109 245.045 378.201 244.776C378.297 244.504 378.346 244.18 378.346 243.802C378.346 243.424 378.297 243.101 378.201 242.832C378.109 242.561 377.973 242.353 377.794 242.211C377.618 242.065 377.404 241.992 377.152 241.992C376.9 241.992 376.683 242.065 376.501 242.211C376.322 242.353 376.183 242.561 376.083 242.832C375.987 243.101 375.939 243.424 375.939 243.802ZM385.063 237.438V247.62H382.319V237.438H385.063ZM386.462 247.62V239.984H389.206V247.62H386.462ZM387.834 239.188C387.463 239.188 387.144 239.066 386.879 238.82C386.614 238.575 386.482 238.28 386.482 237.935C386.482 237.591 386.614 237.296 386.879 237.05C387.144 236.805 387.463 236.682 387.834 236.682C388.208 236.682 388.527 236.805 388.788 237.05C389.054 237.296 389.186 237.591 389.186 237.935C389.186 238.28 389.054 238.575 388.788 238.82C388.527 239.066 388.208 239.188 387.834 239.188ZM394.263 247.759C393.448 247.759 392.745 247.603 392.155 247.292C391.569 246.977 391.116 246.526 390.798 245.94C390.483 245.35 390.326 244.644 390.326 243.822C390.326 243.033 390.485 242.343 390.803 241.754C391.121 241.164 391.57 240.705 392.15 240.376C392.73 240.048 393.415 239.884 394.204 239.884C394.78 239.884 395.302 239.974 395.77 240.153C396.237 240.332 396.636 240.592 396.968 240.933C397.299 241.271 397.555 241.682 397.733 242.166C397.912 242.65 398.002 243.195 398.002 243.802V244.438H391.181V242.927H395.476C395.473 242.708 395.417 242.516 395.307 242.35C395.201 242.181 395.057 242.05 394.875 241.957C394.696 241.861 394.492 241.813 394.263 241.813C394.041 241.813 393.837 241.861 393.652 241.957C393.466 242.05 393.317 242.179 393.204 242.345C393.095 242.511 393.037 242.705 393.03 242.927V244.557C393.03 244.803 393.082 245.022 393.184 245.214C393.287 245.406 393.435 245.557 393.627 245.666C393.819 245.776 394.051 245.83 394.323 245.83C394.512 245.83 394.684 245.804 394.84 245.751C394.999 245.698 395.135 245.621 395.248 245.522C395.36 245.419 395.443 245.297 395.496 245.154H398.002C397.916 245.684 397.712 246.145 397.39 246.536C397.069 246.924 396.643 247.226 396.113 247.441C395.586 247.653 394.969 247.759 394.263 247.759ZM401.886 247.719C401.342 247.719 400.842 247.577 400.385 247.292C399.931 247.007 399.566 246.574 399.291 245.994C399.019 245.414 398.883 244.683 398.883 243.802C398.883 242.88 399.026 242.131 399.311 241.555C399.599 240.978 399.97 240.555 400.424 240.287C400.882 240.018 401.362 239.884 401.866 239.884C402.244 239.884 402.575 239.95 402.86 240.083C403.145 240.212 403.384 240.386 403.576 240.605C403.769 240.821 403.914 241.057 404.014 241.316H404.054V237.438H406.798V247.62H404.074V246.367H404.014C403.908 246.626 403.755 246.858 403.556 247.063C403.361 247.265 403.122 247.426 402.841 247.545C402.562 247.661 402.244 247.719 401.886 247.719ZM402.9 245.611C403.152 245.611 403.368 245.539 403.547 245.393C403.729 245.244 403.868 245.035 403.964 244.766C404.064 244.495 404.113 244.173 404.113 243.802C404.113 243.424 404.064 243.101 403.964 242.832C403.868 242.561 403.729 242.353 403.547 242.211C403.368 242.065 403.152 241.992 402.9 241.992C402.648 241.992 402.433 242.065 402.254 242.211C402.078 242.353 401.942 242.561 401.846 242.832C401.753 243.101 401.707 243.424 401.707 243.802C401.707 244.18 401.753 244.504 401.846 244.776C401.942 245.045 402.078 245.252 402.254 245.398C402.433 245.54 402.648 245.611 402.9 245.611Z" fill="#407336"/>
</svg>
