<svg width="500" height="400" viewBox="0 0 500 400" fill="none" xmlns="http://www.w3.org/2000/svg">
<rect width="500" height="400" rx="20" fill="white"/>
<rect x="54.65" y="96.65" width="391.238" height="206.548" rx="8.086" fill="white"/>
<rect x="54.65" y="96.65" width="391.238" height="206.548" rx="8.086" stroke="#F3F3F3" stroke-width="1.3"/>
<path d="M61.3488 107.282H64.358L67.2555 112.754H67.3796L70.2771 107.282H73.2863L68.6516 115.497V119.989H65.9836V115.497L61.3488 107.282ZM77.0137 120.175C76.05 120.175 75.2165 119.97 74.5133 119.561C73.8143 119.147 73.2745 118.572 72.8939 117.836C72.5134 117.095 72.3231 116.237 72.3231 115.261C72.3231 114.276 72.5134 113.416 72.8939 112.68C73.2745 111.939 73.8143 111.364 74.5133 110.955C75.2165 110.541 76.05 110.334 77.0137 110.334C77.9775 110.334 78.8089 110.541 79.508 110.955C80.2111 111.364 80.753 111.939 81.1335 112.68C81.5141 113.416 81.7044 114.276 81.7044 115.261C81.7044 116.237 81.5141 117.095 81.1335 117.836C80.753 118.572 80.2111 119.147 79.508 119.561C78.8089 119.97 77.9775 120.175 77.0137 120.175ZM77.0261 118.127C77.4646 118.127 77.8307 118.003 78.1243 117.755C78.418 117.503 78.6393 117.159 78.7882 116.725C78.9413 116.291 79.0178 115.797 79.0178 115.242C79.0178 114.688 78.9413 114.194 78.7882 113.759C78.6393 113.325 78.418 112.982 78.1243 112.729C77.8307 112.477 77.4646 112.351 77.0261 112.351C76.5835 112.351 76.2113 112.477 75.9093 112.729C75.6115 112.982 75.3861 113.325 75.233 113.759C75.0841 114.194 75.0097 114.688 75.0097 115.242C75.0097 115.797 75.0841 116.291 75.233 116.725C75.3861 117.159 75.6115 117.503 75.9093 117.755C76.2113 118.003 76.5835 118.127 77.0261 118.127ZM89.5345 115.931V110.459H92.1776V119.989H89.64V118.258H89.5407C89.3256 118.816 88.9678 119.265 88.4673 119.604C87.971 119.943 87.365 120.113 86.6494 120.113C86.0124 120.113 85.4519 119.968 84.968 119.679C84.484 119.389 84.1055 118.977 83.8325 118.444C83.5637 117.91 83.4272 117.271 83.423 116.527V110.459H86.0662V116.055C86.0703 116.618 86.2213 117.062 86.5191 117.389C86.8169 117.716 87.2161 117.879 87.7166 117.879C88.0351 117.879 88.3329 117.807 88.61 117.662C88.8872 117.513 89.1105 117.294 89.2801 117.004C89.4538 116.715 89.5386 116.357 89.5345 115.931ZM94.2918 119.989V110.459H96.8543V112.121H96.9536C97.1273 111.53 97.4189 111.083 97.8284 110.781C98.2379 110.475 98.7095 110.322 99.2431 110.322C99.3754 110.322 99.5181 110.33 99.6712 110.347C99.8242 110.363 99.9587 110.386 100.074 110.415V112.76C99.9504 112.723 99.7787 112.69 99.5595 112.661C99.3403 112.632 99.1397 112.618 98.9577 112.618C98.5688 112.618 98.2214 112.703 97.9153 112.872C97.6133 113.038 97.3734 113.269 97.1956 113.567C97.0218 113.865 96.935 114.208 96.935 114.597V119.989H94.2918ZM105.534 119.989V107.282H110.548C111.512 107.282 112.333 107.466 113.011 107.834C113.689 108.198 114.206 108.705 114.562 109.354C114.922 109.999 115.102 110.744 115.102 111.588C115.102 112.432 114.92 113.176 114.556 113.821C114.192 114.467 113.664 114.969 112.974 115.329C112.287 115.689 111.456 115.869 110.479 115.869H107.284V113.716H110.045C110.562 113.716 110.988 113.627 111.323 113.449C111.662 113.267 111.915 113.017 112.08 112.698C112.25 112.376 112.335 112.006 112.335 111.588C112.335 111.166 112.25 110.798 112.08 110.483C111.915 110.165 111.662 109.919 111.323 109.745C110.984 109.567 110.554 109.478 110.033 109.478H108.221V119.989H105.534ZM116.797 119.989V110.459H119.36V112.121H119.459C119.633 111.53 119.924 111.083 120.334 110.781C120.743 110.475 121.215 110.322 121.749 110.322C121.881 110.322 122.024 110.33 122.177 110.347C122.33 110.363 122.464 110.386 122.58 110.415V112.76C122.456 112.723 122.284 112.69 122.065 112.661C121.846 112.632 121.645 112.618 121.463 112.618C121.074 112.618 120.727 112.703 120.421 112.872C120.119 113.038 119.879 113.269 119.701 113.567C119.527 113.865 119.44 114.208 119.44 114.597V119.989H116.797ZM127.809 120.175C126.845 120.175 126.012 119.97 125.308 119.561C124.609 119.147 124.07 118.572 123.689 117.836C123.308 117.095 123.118 116.237 123.118 115.261C123.118 114.276 123.308 113.416 123.689 112.68C124.07 111.939 124.609 111.364 125.308 110.955C126.012 110.541 126.845 110.334 127.809 110.334C128.773 110.334 129.604 110.541 130.303 110.955C131.006 111.364 131.548 111.939 131.929 112.68C132.309 113.416 132.499 114.276 132.499 115.261C132.499 116.237 132.309 117.095 131.929 117.836C131.548 118.572 131.006 119.147 130.303 119.561C129.604 119.97 128.773 120.175 127.809 120.175ZM127.821 118.127C128.26 118.127 128.626 118.003 128.919 117.755C129.213 117.503 129.434 117.159 129.583 116.725C129.736 116.291 129.813 115.797 129.813 115.242C129.813 114.688 129.736 114.194 129.583 113.759C129.434 113.325 129.213 112.982 128.919 112.729C128.626 112.477 128.26 112.351 127.821 112.351C127.379 112.351 127.006 112.477 126.704 112.729C126.407 112.982 126.181 113.325 126.028 113.759C125.879 114.194 125.805 114.688 125.805 115.242C125.805 115.797 125.879 116.291 126.028 116.725C126.181 117.159 126.407 117.503 126.704 117.755C127.006 118.003 127.379 118.127 127.821 118.127ZM137.73 120.144C137.006 120.144 136.35 119.958 135.763 119.585C135.18 119.209 134.717 118.657 134.373 117.929C134.034 117.197 133.864 116.299 133.864 115.236C133.864 114.144 134.04 113.236 134.392 112.512C134.743 111.784 135.211 111.24 135.794 110.88C136.381 110.516 137.025 110.334 137.724 110.334C138.257 110.334 138.702 110.425 139.058 110.607C139.417 110.785 139.707 111.009 139.926 111.278C140.15 111.542 140.319 111.803 140.435 112.059H140.516V107.282H143.153V119.989H140.547V118.462H140.435C140.311 118.727 140.135 118.99 139.908 119.25C139.684 119.507 139.393 119.72 139.033 119.889C138.677 120.059 138.243 120.144 137.73 120.144ZM138.567 118.041C138.994 118.041 139.353 117.925 139.647 117.693C139.945 117.457 140.172 117.128 140.33 116.707C140.491 116.285 140.572 115.79 140.572 115.224C140.572 114.657 140.493 114.165 140.336 113.747C140.179 113.329 139.951 113.007 139.653 112.779C139.355 112.552 138.994 112.438 138.567 112.438C138.133 112.438 137.767 112.556 137.469 112.791C137.171 113.027 136.946 113.354 136.793 113.772C136.64 114.19 136.563 114.674 136.563 115.224C136.563 115.778 136.64 116.268 136.793 116.694C136.95 117.116 137.176 117.447 137.469 117.687C137.767 117.923 138.133 118.041 138.567 118.041ZM151.437 115.931V110.459H154.08V119.989H151.543V118.258H151.443C151.228 118.816 150.871 119.265 150.37 119.604C149.874 119.943 149.268 120.113 148.552 120.113C147.915 120.113 147.355 119.968 146.871 119.679C146.387 119.389 146.008 118.977 145.735 118.444C145.466 117.91 145.33 117.271 145.326 116.527V110.459H147.969V116.055C147.973 116.618 148.124 117.062 148.422 117.389C148.72 117.716 149.119 117.879 149.619 117.879C149.938 117.879 150.236 117.807 150.513 117.662C150.79 117.513 151.013 117.294 151.183 117.004C151.357 116.715 151.441 116.357 151.437 115.931ZM160.501 120.175C159.524 120.175 158.685 119.968 157.982 119.554C157.282 119.137 156.745 118.558 156.368 117.817C155.996 117.077 155.81 116.225 155.81 115.261C155.81 114.285 155.998 113.428 156.375 112.692C156.755 111.952 157.295 111.375 157.994 110.961C158.693 110.543 159.524 110.334 160.488 110.334C161.32 110.334 162.048 110.485 162.672 110.787C163.297 111.089 163.791 111.513 164.155 112.059C164.519 112.605 164.72 113.246 164.757 113.983H162.263C162.192 113.507 162.006 113.124 161.704 112.835C161.406 112.541 161.016 112.394 160.532 112.394C160.122 112.394 159.764 112.506 159.458 112.729C159.156 112.949 158.92 113.269 158.751 113.691C158.581 114.113 158.496 114.624 158.496 115.224C158.496 115.832 158.579 116.349 158.745 116.775C158.914 117.201 159.152 117.526 159.458 117.749C159.764 117.972 160.122 118.084 160.532 118.084C160.834 118.084 161.104 118.022 161.344 117.898C161.588 117.774 161.789 117.594 161.946 117.358C162.108 117.118 162.213 116.831 162.263 116.496H164.757C164.716 117.224 164.517 117.865 164.161 118.419C163.81 118.969 163.324 119.399 162.703 119.71C162.083 120.02 161.349 120.175 160.501 120.175ZM171.518 110.459V112.444H165.779V110.459H171.518ZM167.082 108.175H169.725V117.06C169.725 117.304 169.762 117.495 169.837 117.631C169.911 117.763 170.015 117.856 170.147 117.91C170.284 117.964 170.441 117.991 170.619 117.991C170.743 117.991 170.867 117.981 170.991 117.96C171.115 117.935 171.21 117.916 171.276 117.904L171.692 119.871C171.56 119.912 171.373 119.96 171.134 120.014C170.894 120.071 170.602 120.107 170.259 120.119C169.622 120.144 169.063 120.059 168.584 119.865C168.108 119.67 167.738 119.368 167.473 118.959C167.208 118.549 167.078 118.032 167.082 117.408V108.175ZM188.545 111.731H185.827C185.778 111.379 185.677 111.067 185.523 110.794C185.37 110.516 185.174 110.281 184.934 110.086C184.694 109.892 184.417 109.743 184.103 109.64C183.792 109.536 183.455 109.484 183.091 109.484C182.434 109.484 181.861 109.648 181.373 109.975C180.885 110.297 180.506 110.769 180.237 111.389C179.968 112.006 179.834 112.754 179.834 113.635C179.834 114.541 179.968 115.302 180.237 115.919C180.51 116.535 180.891 117 181.379 117.315C181.867 117.629 182.432 117.786 183.073 117.786C183.433 117.786 183.766 117.739 184.072 117.643C184.382 117.548 184.657 117.41 184.897 117.228C185.137 117.042 185.335 116.816 185.492 116.551C185.654 116.287 185.765 115.985 185.827 115.646L188.545 115.658C188.475 116.241 188.299 116.804 188.018 117.346C187.741 117.883 187.366 118.365 186.895 118.791C186.427 119.213 185.869 119.548 185.219 119.796C184.574 120.04 183.844 120.162 183.029 120.162C181.896 120.162 180.882 119.906 179.989 119.393C179.1 118.88 178.397 118.138 177.879 117.166C177.367 116.194 177.11 115.017 177.11 113.635C177.11 112.25 177.371 111.071 177.892 110.099C178.413 109.127 179.12 108.386 180.014 107.877C180.907 107.365 181.912 107.108 183.029 107.108C183.766 107.108 184.448 107.212 185.077 107.418C185.71 107.625 186.27 107.927 186.758 108.324C187.246 108.717 187.643 109.199 187.949 109.77C188.26 110.341 188.458 110.994 188.545 111.731ZM194.728 120.175C193.764 120.175 192.931 119.97 192.227 119.561C191.528 119.147 190.989 118.572 190.608 117.836C190.228 117.095 190.037 116.237 190.037 115.261C190.037 114.276 190.228 113.416 190.608 112.68C190.989 111.939 191.528 111.364 192.227 110.955C192.931 110.541 193.764 110.334 194.728 110.334C195.692 110.334 196.523 110.541 197.222 110.955C197.925 111.364 198.467 111.939 198.848 112.68C199.228 113.416 199.419 114.276 199.419 115.261C199.419 116.237 199.228 117.095 198.848 117.836C198.467 118.572 197.925 119.147 197.222 119.561C196.523 119.97 195.692 120.175 194.728 120.175ZM194.74 118.127C195.179 118.127 195.545 118.003 195.839 117.755C196.132 117.503 196.354 117.159 196.502 116.725C196.655 116.291 196.732 115.797 196.732 115.242C196.732 114.688 196.655 114.194 196.502 113.759C196.354 113.325 196.132 112.982 195.839 112.729C195.545 112.477 195.179 112.351 194.74 112.351C194.298 112.351 193.925 112.477 193.624 112.729C193.326 112.982 193.1 113.325 192.947 113.759C192.798 114.194 192.724 114.688 192.724 115.242C192.724 115.797 192.798 116.291 192.947 116.725C193.1 117.159 193.326 117.503 193.624 117.755C193.925 118.003 194.298 118.127 194.74 118.127ZM203.78 107.282V119.989H201.137V107.282H203.78ZM208.541 107.282V119.989H205.898V107.282H208.541ZM215.001 120.175C214.021 120.175 213.177 119.976 212.47 119.579C211.767 119.178 211.225 118.611 210.844 117.879C210.464 117.143 210.273 116.272 210.273 115.267C210.273 114.287 210.464 113.426 210.844 112.686C211.225 111.946 211.76 111.369 212.451 110.955C213.146 110.541 213.961 110.334 214.896 110.334C215.525 110.334 216.11 110.436 216.652 110.639C217.198 110.837 217.673 111.137 218.079 111.538C218.488 111.939 218.807 112.444 219.034 113.052C219.262 113.656 219.375 114.363 219.375 115.174V115.9H211.328V114.262H216.887C216.887 113.881 216.805 113.544 216.639 113.251C216.474 112.957 216.244 112.727 215.951 112.562C215.661 112.392 215.324 112.308 214.939 112.308C214.538 112.308 214.182 112.401 213.872 112.587C213.566 112.769 213.326 113.015 213.152 113.325C212.979 113.631 212.89 113.972 212.886 114.349V115.906C212.886 116.378 212.972 116.785 213.146 117.128C213.324 117.472 213.574 117.737 213.897 117.923C214.22 118.109 214.602 118.202 215.045 118.202C215.338 118.202 215.607 118.16 215.851 118.078C216.095 117.995 216.304 117.871 216.478 117.705C216.652 117.54 216.784 117.337 216.875 117.097L219.32 117.259C219.196 117.846 218.941 118.359 218.556 118.797C218.176 119.232 217.684 119.571 217.08 119.815C216.48 120.055 215.787 120.175 215.001 120.175ZM225.406 120.175C224.43 120.175 223.59 119.968 222.887 119.554C222.188 119.137 221.65 118.558 221.274 117.817C220.902 117.077 220.716 116.225 220.716 115.261C220.716 114.285 220.904 113.428 221.28 112.692C221.661 111.952 222.201 111.375 222.9 110.961C223.599 110.543 224.43 110.334 225.394 110.334C226.225 110.334 226.953 110.485 227.578 110.787C228.202 111.089 228.697 111.513 229.061 112.059C229.425 112.605 229.625 113.246 229.663 113.983H227.168C227.098 113.507 226.912 113.124 226.61 112.835C226.312 112.541 225.921 112.394 225.437 112.394C225.028 112.394 224.67 112.506 224.364 112.729C224.062 112.949 223.826 113.269 223.657 113.691C223.487 114.113 223.402 114.624 223.402 115.224C223.402 115.832 223.485 116.349 223.65 116.775C223.82 117.201 224.058 117.526 224.364 117.749C224.67 117.972 225.028 118.084 225.437 118.084C225.739 118.084 226.01 118.022 226.25 117.898C226.494 117.774 226.695 117.594 226.852 117.358C227.013 117.118 227.119 116.831 227.168 116.496H229.663C229.621 117.224 229.423 117.865 229.067 118.419C228.715 118.969 228.229 119.399 227.609 119.71C226.988 120.02 226.254 120.175 225.406 120.175ZM236.424 110.459V112.444H230.685V110.459H236.424ZM231.988 108.175H234.631V117.06C234.631 117.304 234.668 117.495 234.743 117.631C234.817 117.763 234.92 117.856 235.053 117.91C235.189 117.964 235.346 117.991 235.524 117.991C235.648 117.991 235.773 117.981 235.897 117.96C236.021 117.935 236.116 117.916 236.182 117.904L236.598 119.871C236.465 119.912 236.279 119.96 236.039 120.014C235.799 120.071 235.508 120.107 235.164 120.119C234.527 120.144 233.969 120.059 233.489 119.865C233.014 119.67 232.643 119.368 232.379 118.959C232.114 118.549 231.984 118.032 231.988 117.408V108.175ZM238.146 119.989V110.459H240.789V119.989H238.146ZM239.474 109.23C239.081 109.23 238.743 109.1 238.462 108.839C238.185 108.574 238.047 108.258 238.047 107.89C238.047 107.526 238.185 107.214 238.462 106.953C238.743 106.688 239.081 106.556 239.474 106.556C239.867 106.556 240.202 106.688 240.479 106.953C240.76 107.214 240.901 107.526 240.901 107.89C240.901 108.258 240.76 108.574 240.479 108.839C240.202 109.1 239.867 109.23 239.474 109.23ZM247.212 120.175C246.248 120.175 245.415 119.97 244.712 119.561C244.013 119.147 243.473 118.572 243.092 117.836C242.712 117.095 242.522 116.237 242.522 115.261C242.522 114.276 242.712 113.416 243.092 112.68C243.473 111.939 244.013 111.364 244.712 110.955C245.415 110.541 246.248 110.334 247.212 110.334C248.176 110.334 249.007 110.541 249.706 110.955C250.41 111.364 250.951 111.939 251.332 112.68C251.713 113.416 251.903 114.276 251.903 115.261C251.903 116.237 251.713 117.095 251.332 117.836C250.951 118.572 250.41 119.147 249.706 119.561C249.007 119.97 248.176 120.175 247.212 120.175ZM247.225 118.127C247.663 118.127 248.029 118.003 248.323 117.755C248.616 117.503 248.838 117.159 248.987 116.725C249.14 116.291 249.216 115.797 249.216 115.242C249.216 114.688 249.14 114.194 248.987 113.759C248.838 113.325 248.616 112.982 248.323 112.729C248.029 112.477 247.663 112.351 247.225 112.351C246.782 112.351 246.41 112.477 246.108 112.729C245.81 112.982 245.585 113.325 245.431 113.759C245.283 114.194 245.208 114.688 245.208 115.242C245.208 115.797 245.283 116.291 245.431 116.725C245.585 117.159 245.81 117.503 246.108 117.755C246.41 118.003 246.782 118.127 247.225 118.127ZM256.265 114.479V119.989H253.621V110.459H256.141V112.14H256.252C256.463 111.586 256.817 111.147 257.313 110.825C257.81 110.498 258.411 110.334 259.119 110.334C259.781 110.334 260.358 110.479 260.85 110.769C261.342 111.058 261.725 111.472 261.998 112.01C262.271 112.543 262.407 113.18 262.407 113.921V119.989H259.764V114.392C259.768 113.809 259.619 113.354 259.317 113.027C259.015 112.696 258.6 112.531 258.07 112.531C257.714 112.531 257.4 112.607 257.127 112.76C256.858 112.914 256.647 113.137 256.494 113.431C256.345 113.72 256.269 114.07 256.265 114.479Z" fill="black"/>
<rect x="60.989" y="144.955" width="115.315" height="73.9939" rx="4.89216" fill="#F1F1F1"/>
<path d="M109.925 164.096C109.233 164.096 108.57 164.371 108.08 164.86C107.591 165.349 107.316 166.013 107.316 166.705C107.316 167.397 107.591 168.061 108.08 168.55C108.57 169.039 109.233 169.314 109.925 169.314H125.58C126.272 169.314 126.936 169.039 127.425 168.55C127.915 168.061 128.189 167.397 128.189 166.705C128.189 166.013 127.915 165.349 127.425 164.86C126.936 164.371 126.272 164.096 125.58 164.096H109.925ZM102.098 174.533C102.098 173.841 102.373 173.177 102.862 172.688C103.351 172.198 104.015 171.923 104.707 171.923H130.799C131.491 171.923 132.154 172.198 132.644 172.688C133.133 173.177 133.408 173.841 133.408 174.533C133.408 175.225 133.133 175.888 132.644 176.378C132.154 176.867 131.491 177.142 130.799 177.142H104.707C104.015 177.142 103.351 176.867 102.862 176.378C102.373 175.888 102.098 175.225 102.098 174.533ZM96.8796 184.969C96.8796 183.585 97.4294 182.258 98.408 181.279C99.3866 180.301 100.714 179.751 102.098 179.751H133.408C134.792 179.751 136.119 180.301 137.098 181.279C138.076 182.258 138.626 183.585 138.626 184.969V195.406C138.626 196.79 138.076 198.117 137.098 199.096C136.119 200.074 134.792 200.624 133.408 200.624H102.098C100.714 200.624 99.3866 200.074 98.408 199.096C97.4294 198.117 96.8796 196.79 96.8796 195.406V184.969Z" fill="#105004"/>
<path d="M120.228 184.659V197.365H117.541V187.209H117.466L114.557 189.033V186.65L117.702 184.659H120.228Z" fill="white"/>
<path d="M164.74 156.035C169.263 156.035 172.93 152.368 172.93 147.845C172.93 143.322 169.263 139.655 164.74 139.655C160.217 139.655 156.55 143.322 156.55 147.845C156.55 152.368 160.217 156.035 164.74 156.035Z" fill="#4CAF50"/>
<path d="M168.874 144.179L163.57 149.483L161.386 147.299L160.294 148.391L163.57 151.667L169.966 145.271L168.874 144.179Z" fill="#CCFF90"/>
<path d="M67.6601 232.794H66.1881C66.1612 232.604 66.1063 232.435 66.0234 232.287C65.9405 232.137 65.8341 232.009 65.7042 231.904C65.5742 231.798 65.4241 231.718 65.2538 231.662C65.0858 231.606 64.9032 231.578 64.706 231.578C64.3498 231.578 64.0394 231.666 63.7751 231.843C63.5107 232.018 63.3057 232.273 63.16 232.61C63.0144 232.943 62.9416 233.349 62.9416 233.826C62.9416 234.317 63.0144 234.729 63.16 235.063C63.3079 235.397 63.514 235.649 63.7784 235.819C64.0428 235.989 64.3486 236.074 64.6959 236.074C64.8908 236.074 65.0712 236.049 65.237 235.997C65.405 235.946 65.554 235.871 65.684 235.772C65.8139 235.671 65.9215 235.549 66.0066 235.406C66.094 235.262 66.1545 235.099 66.1881 234.915L67.6601 234.922C67.622 235.238 67.5268 235.542 67.3745 235.836C67.2244 236.127 67.0216 236.388 66.7662 236.619C66.513 236.847 66.2105 237.029 65.8587 237.163C65.5092 237.296 65.1138 237.362 64.6724 237.362C64.0585 237.362 63.5096 237.223 63.0256 236.945C62.5439 236.667 62.163 236.265 61.8829 235.738C61.6051 235.212 61.4662 234.574 61.4662 233.826C61.4662 233.076 61.6073 232.437 61.8896 231.91C62.172 231.384 62.5551 230.983 63.039 230.707C63.523 230.429 64.0674 230.291 64.6724 230.291C65.0712 230.291 65.4409 230.347 65.7814 230.459C66.1243 230.571 66.4278 230.734 66.6922 230.949C66.9566 231.162 67.1717 231.423 67.3375 231.732C67.5055 232.042 67.6131 232.396 67.6601 232.794ZM71.0092 237.368C70.4871 237.368 70.0357 237.257 69.6548 237.036C69.2761 236.812 68.9837 236.5 68.7776 236.101C68.5715 235.7 68.4684 235.235 68.4684 234.707C68.4684 234.173 68.5715 233.707 68.7776 233.309C68.9837 232.908 69.2761 232.596 69.6548 232.374C70.0357 232.15 70.4871 232.038 71.0092 232.038C71.5312 232.038 71.9816 232.15 72.3602 232.374C72.7411 232.596 73.0346 232.908 73.2407 233.309C73.4469 233.707 73.5499 234.173 73.5499 234.707C73.5499 235.235 73.4469 235.7 73.2407 236.101C73.0346 236.5 72.7411 236.812 72.3602 237.036C71.9816 237.257 71.5312 237.368 71.0092 237.368ZM71.0159 236.259C71.2534 236.259 71.4517 236.192 71.6107 236.058C71.7698 235.921 71.8897 235.735 71.9704 235.5C72.0533 235.265 72.0947 234.997 72.0947 234.697C72.0947 234.396 72.0533 234.129 71.9704 233.893C71.8897 233.658 71.7698 233.472 71.6107 233.335C71.4517 233.199 71.2534 233.13 71.0159 233.13C70.7762 233.13 70.5745 233.199 70.4109 233.335C70.2496 233.472 70.1275 233.658 70.0446 233.893C69.964 234.129 69.9236 234.396 69.9236 234.697C69.9236 234.997 69.964 235.265 70.0446 235.5C70.1275 235.735 70.2496 235.921 70.4109 236.058C70.5745 236.192 70.7762 236.259 71.0159 236.259ZM75.9126 230.385V237.268H74.4809V230.385H75.9126ZM78.4911 230.385V237.268H77.0594V230.385H78.4911ZM81.9906 237.368C81.4596 237.368 81.0025 237.261 80.6194 237.046C80.2385 236.828 79.945 236.521 79.7388 236.125C79.5327 235.726 79.4296 235.254 79.4296 234.71C79.4296 234.179 79.5327 233.713 79.7388 233.312C79.945 232.911 80.2351 232.598 80.6093 232.374C80.9857 232.15 81.4271 232.038 81.9334 232.038C82.274 232.038 82.591 232.093 82.8845 232.203C83.1803 232.31 83.438 232.473 83.6575 232.69C83.8793 232.908 84.0519 233.181 84.1751 233.51C84.2983 233.837 84.3599 234.22 84.3599 234.66V235.053H80.001V234.166H83.0122C83.0122 233.959 82.9674 233.777 82.8778 233.618C82.7882 233.459 82.6638 233.334 82.5048 233.245C82.3479 233.153 82.1653 233.107 81.957 233.107C81.7396 233.107 81.5469 233.157 81.3789 233.258C81.2131 233.357 81.0832 233.49 80.9891 233.658C80.8949 233.824 80.8468 234.009 80.8445 234.213V235.056C80.8445 235.312 80.8916 235.532 80.9857 235.718C81.082 235.904 81.2176 236.048 81.3923 236.148C81.5671 236.249 81.7744 236.3 82.0141 236.3C82.1732 236.3 82.3188 236.277 82.451 236.232C82.5832 236.188 82.6963 236.12 82.7904 236.031C82.8845 235.941 82.9562 235.831 83.0055 235.701L84.3297 235.789C84.2625 236.107 84.1247 236.385 83.9163 236.622C83.7102 236.858 83.4436 237.041 83.1164 237.173C82.7916 237.303 82.4163 237.368 81.9906 237.368ZM87.6266 237.368C87.0979 237.368 86.643 237.256 86.2621 237.032C85.8835 236.806 85.5922 236.492 85.3883 236.091C85.1867 235.69 85.0859 235.229 85.0859 234.707C85.0859 234.178 85.1878 233.714 85.3917 233.315C85.5978 232.914 85.8902 232.602 86.2689 232.378C86.6475 232.151 87.0979 232.038 87.6199 232.038C88.0702 232.038 88.4646 232.12 88.8029 232.284C89.1412 232.447 89.409 232.677 89.6061 232.972C89.8033 233.268 89.912 233.616 89.9321 234.014H88.5811C88.543 233.757 88.4422 233.549 88.2786 233.393C88.1173 233.234 87.9056 233.154 87.6434 233.154C87.4216 233.154 87.2278 233.214 87.062 233.335C86.8984 233.454 86.7707 233.628 86.6789 233.856C86.587 234.085 86.5411 234.362 86.5411 234.686C86.5411 235.016 86.5859 235.296 86.6755 235.527C86.7674 235.757 86.8962 235.933 87.062 236.054C87.2278 236.175 87.4216 236.236 87.6434 236.236C87.807 236.236 87.9537 236.202 88.0837 236.135C88.2159 236.068 88.3245 235.97 88.4097 235.843C88.4971 235.713 88.5542 235.557 88.5811 235.375H89.9321C89.9097 235.77 89.8022 236.117 89.6095 236.417C89.419 236.715 89.1558 236.948 88.8197 237.116C88.4836 237.284 88.0859 237.368 87.6266 237.368ZM93.5946 232.105V233.181H90.4858V232.105H93.5946ZM91.1916 230.869H92.6233V235.681C92.6233 235.813 92.6434 235.917 92.6838 235.99C92.7241 236.062 92.7801 236.113 92.8518 236.142C92.9258 236.171 93.0109 236.185 93.1072 236.185C93.1745 236.185 93.2417 236.18 93.3089 236.169C93.3761 236.155 93.4276 236.145 93.4635 236.138L93.6887 237.204C93.617 237.226 93.5161 237.252 93.3862 237.281C93.2562 237.312 93.0983 237.331 92.9123 237.338C92.5673 237.352 92.2648 237.306 92.0049 237.2C91.7472 237.095 91.5467 236.931 91.4033 236.71C91.2599 236.488 91.1893 236.208 91.1916 235.869V230.869ZM94.5272 237.268V232.105H95.9589V237.268H94.5272ZM95.2464 231.44C95.0335 231.44 94.8509 231.369 94.6986 231.228C94.5485 231.085 94.4734 230.913 94.4734 230.714C94.4734 230.517 94.5485 230.348 94.6986 230.207C94.8509 230.063 95.0335 229.991 95.2464 229.991C95.4592 229.991 95.6407 230.063 95.7908 230.207C95.9432 230.348 96.0194 230.517 96.0194 230.714C96.0194 230.913 95.9432 231.085 95.7908 231.228C95.6407 231.369 95.4592 231.44 95.2464 231.44ZM99.4381 237.368C98.9161 237.368 98.4646 237.257 98.0837 237.036C97.7051 236.812 97.4127 236.5 97.2066 236.101C97.0004 235.7 96.8974 235.235 96.8974 234.707C96.8974 234.173 97.0004 233.707 97.2066 233.309C97.4127 232.908 97.7051 232.596 98.0837 232.374C98.4646 232.15 98.9161 232.038 99.4381 232.038C99.9602 232.038 100.411 232.15 100.789 232.374C101.17 232.596 101.464 232.908 101.67 233.309C101.876 233.707 101.979 234.173 101.979 234.707C101.979 235.235 101.876 235.7 101.67 236.101C101.464 236.5 101.17 236.812 100.789 237.036C100.411 237.257 99.9602 237.368 99.4381 237.368ZM99.4449 236.259C99.6824 236.259 99.8806 236.192 100.04 236.058C100.199 235.921 100.319 235.735 100.399 235.5C100.482 235.265 100.524 234.997 100.524 234.697C100.524 234.396 100.482 234.129 100.399 233.893C100.319 233.658 100.199 233.472 100.04 233.335C99.8806 233.199 99.6824 233.13 99.4449 233.13C99.2051 233.13 99.0035 233.199 98.8399 233.335C98.6786 233.472 98.5565 233.658 98.4736 233.893C98.3929 234.129 98.3526 234.396 98.3526 234.697C98.3526 234.997 98.3929 235.265 98.4736 235.5C98.5565 235.735 98.6786 235.921 98.8399 236.058C99.0035 236.192 99.2051 236.259 99.4449 236.259ZM104.342 234.283V237.268H102.91V232.105H104.274V233.016H104.335C104.449 232.716 104.641 232.478 104.91 232.304C105.178 232.127 105.504 232.038 105.888 232.038C106.246 232.038 106.559 232.117 106.825 232.273C107.092 232.43 107.299 232.654 107.447 232.946C107.595 233.235 107.669 233.58 107.669 233.981V237.268H106.237V234.236C106.239 233.92 106.159 233.674 105.995 233.497C105.831 233.318 105.606 233.228 105.32 233.228C105.127 233.228 104.957 233.269 104.809 233.352C104.663 233.435 104.549 233.556 104.466 233.715C104.385 233.872 104.344 234.061 104.342 234.283ZM113.969 230.385V237.268H112.513V231.766H112.473L110.897 232.754V231.463L112.601 230.385H113.969Z" fill="#969696"/>
<rect x="60.989" y="248.586" width="115.315" height="4.6592" rx="2.3296" fill="#CCCCCC"/>
<rect x="60.9891" y="257.904" width="29.7024" height="4.6592" rx="2.3296" fill="#CCCCCC"/>
<g clip-path="url(#clip0_5_277)">
<path d="M65.5755 272.795C63.0425 272.795 60.9891 274.848 60.9891 277.381C60.9891 279.914 63.0425 281.968 65.5755 281.968C68.1085 281.968 70.1619 279.914 70.1619 277.381C70.1619 274.848 68.1085 272.795 65.5755 272.795ZM67.5434 274.943L68.4963 275.896L65.5201 278.873L64.5728 279.82L63.6199 278.867L62.6547 277.901L63.6014 276.954L64.5667 277.92L67.5434 274.943Z" fill="#65AC02"/>
</g>
<path d="M79.8903 276.409H78.4183C78.3914 276.218 78.3365 276.049 78.2536 275.901C78.1707 275.751 78.0643 275.623 77.9344 275.518C77.8044 275.413 77.6543 275.332 77.484 275.276C77.316 275.22 77.1334 275.192 76.9362 275.192C76.58 275.192 76.2696 275.281 76.0053 275.458C75.7409 275.632 75.5359 275.888 75.3902 276.224C75.2446 276.558 75.1718 276.963 75.1718 277.441C75.1718 277.931 75.2446 278.343 75.3902 278.677C75.5381 279.011 75.7442 279.263 76.0086 279.433C76.273 279.604 76.5788 279.689 76.9261 279.689C77.121 279.689 77.3014 279.663 77.4672 279.612C77.6352 279.56 77.7842 279.485 77.9142 279.386C78.0441 279.286 78.1517 279.163 78.2368 279.02C78.3242 278.877 78.3847 278.713 78.4183 278.529L79.8903 278.536C79.8522 278.852 79.757 279.157 79.6047 279.45C79.4546 279.742 79.2518 280.003 78.9964 280.233C78.7432 280.462 78.4407 280.643 78.0889 280.778C77.7394 280.91 77.344 280.976 76.9026 280.976C76.2887 280.976 75.7398 280.837 75.2558 280.559C74.7741 280.281 74.3932 279.879 74.1131 279.353C73.8353 278.826 73.6964 278.189 73.6964 277.441C73.6964 276.69 73.8375 276.051 74.1198 275.525C74.4022 274.998 74.7853 274.597 75.2692 274.322C75.7532 274.044 76.2976 273.905 76.9026 273.905C77.3014 273.905 77.6711 273.961 78.0116 274.073C78.3545 274.185 78.658 274.349 78.9224 274.564C79.1868 274.777 79.4019 275.038 79.5677 275.347C79.7357 275.656 79.8433 276.01 79.8903 276.409ZM87.2589 277.441C87.2589 278.191 87.1166 278.83 86.8321 279.356C86.5498 279.883 86.1644 280.285 85.6759 280.563C85.1897 280.838 84.6431 280.976 84.0359 280.976C83.4242 280.976 82.8753 280.837 82.3891 280.559C81.9029 280.281 81.5186 279.879 81.2363 279.353C80.954 278.826 80.8129 278.189 80.8129 277.441C80.8129 276.69 80.954 276.051 81.2363 275.525C81.5186 274.998 81.9029 274.597 82.3891 274.322C82.8753 274.044 83.4242 273.905 84.0359 273.905C84.6431 273.905 85.1897 274.044 85.6759 274.322C86.1644 274.597 86.5498 274.998 86.8321 275.525C87.1166 276.051 87.2589 276.69 87.2589 277.441ZM85.7835 277.441C85.7835 276.954 85.7107 276.544 85.565 276.21C85.4216 275.877 85.2189 275.623 84.9567 275.451C84.6946 275.278 84.3876 275.192 84.0359 275.192C83.6841 275.192 83.3772 275.278 83.115 275.451C82.8529 275.623 82.649 275.877 82.5034 276.21C82.36 276.544 82.2883 276.954 82.2883 277.441C82.2883 277.927 82.36 278.337 82.5034 278.671C82.649 279.004 82.8529 279.258 83.115 279.43C83.3772 279.603 83.6841 279.689 84.0359 279.689C84.3876 279.689 84.6946 279.603 84.9567 279.43C85.2189 279.258 85.4216 279.004 85.565 278.671C85.7107 278.337 85.7835 277.927 85.7835 277.441ZM90.7768 280.882H88.3369V273.999H90.797C91.4893 273.999 92.0853 274.137 92.5849 274.412C93.0845 274.686 93.4688 275.079 93.7377 275.592C94.0088 276.105 94.1443 276.719 94.1443 277.434C94.1443 278.151 94.0088 278.767 93.7377 279.282C93.4688 279.798 93.0823 280.193 92.5782 280.469C92.0763 280.744 91.4758 280.882 90.7768 280.882ZM89.7921 279.635H90.7163C91.1465 279.635 91.5083 279.559 91.8018 279.407C92.0976 279.252 92.3194 279.013 92.4673 278.691C92.6174 278.366 92.6924 277.947 92.6924 277.434C92.6924 276.925 92.6174 276.51 92.4673 276.187C92.3194 275.864 92.0987 275.627 91.8052 275.474C91.5117 275.322 91.1498 275.246 90.7197 275.246H89.7921V279.635ZM98.8578 280.979C98.5285 280.979 98.235 280.922 97.9773 280.808C97.7196 280.692 97.5157 280.52 97.3656 280.294C97.2178 280.065 97.1438 279.781 97.1438 279.44C97.1438 279.153 97.1965 278.913 97.3018 278.718C97.4071 278.523 97.5505 278.366 97.732 278.247C97.9134 278.128 98.1196 278.039 98.3503 277.978C98.5834 277.918 98.8276 277.875 99.083 277.851C99.3832 277.819 99.6252 277.79 99.8089 277.763C99.9927 277.734 100.126 277.691 100.209 277.635C100.292 277.579 100.333 277.497 100.333 277.387V277.367C100.333 277.154 100.266 276.989 100.132 276.873C99.9994 276.756 99.8112 276.698 99.567 276.698C99.3093 276.698 99.1043 276.755 98.9519 276.869C98.7996 276.981 98.6987 277.122 98.6495 277.293L97.3253 277.185C97.3925 276.871 97.5247 276.6 97.7219 276.372C97.919 276.141 98.1733 275.964 98.4848 275.841C98.7985 275.715 99.1614 275.653 99.5737 275.653C99.8605 275.653 100.135 275.686 100.397 275.753C100.661 275.821 100.896 275.925 101.099 276.066C101.306 276.207 101.468 276.389 101.587 276.61C101.706 276.83 101.765 277.093 101.765 277.4V280.882H100.407V280.166H100.367C100.284 280.327 100.173 280.47 100.034 280.593C99.8952 280.714 99.7283 280.809 99.5333 280.879C99.3384 280.946 99.1132 280.979 98.8578 280.979ZM99.2678 279.991C99.4785 279.991 99.6644 279.95 99.8257 279.867C99.9871 279.782 100.114 279.668 100.206 279.524C100.297 279.381 100.343 279.218 100.343 279.037V278.489C100.298 278.518 100.237 278.545 100.158 278.57C100.082 278.592 99.996 278.613 99.8997 278.634C99.8033 278.652 99.707 278.668 99.6106 278.684C99.5143 278.697 99.4269 278.71 99.3485 278.721C99.1805 278.746 99.0337 278.785 98.9082 278.839C98.7828 278.892 98.6853 278.965 98.6158 279.057C98.5464 279.147 98.5117 279.259 98.5117 279.393C98.5117 279.588 98.5822 279.737 98.7234 279.84C98.8668 279.941 99.0483 279.991 99.2678 279.991ZM107.503 275.72L105.699 280.882H104.086L102.281 275.72H103.793L104.865 279.413H104.919L105.988 275.72H107.503ZM109.57 280.979C109.24 280.979 108.947 280.922 108.689 280.808C108.431 280.692 108.227 280.52 108.077 280.294C107.929 280.065 107.856 279.781 107.856 279.44C107.856 279.153 107.908 278.913 108.013 278.718C108.119 278.523 108.262 278.366 108.444 278.247C108.625 278.128 108.831 278.039 109.062 277.978C109.295 277.918 109.539 277.875 109.795 277.851C110.095 277.819 110.337 277.79 110.521 277.763C110.704 277.734 110.838 277.691 110.921 277.635C111.003 277.579 111.045 277.497 111.045 277.387V277.367C111.045 277.154 110.978 276.989 110.843 276.873C110.711 276.756 110.523 276.698 110.279 276.698C110.021 276.698 109.816 276.755 109.664 276.869C109.511 276.981 109.41 277.122 109.361 277.293L108.037 277.185C108.104 276.871 108.236 276.6 108.434 276.372C108.631 276.141 108.885 275.964 109.196 275.841C109.51 275.715 109.873 275.653 110.285 275.653C110.572 275.653 110.847 275.686 111.109 275.753C111.373 275.821 111.607 275.925 111.811 276.066C112.017 276.207 112.18 276.389 112.298 276.61C112.417 276.83 112.477 277.093 112.477 277.4V280.882H111.119V280.166H111.079C110.996 280.327 110.885 280.47 110.746 280.593C110.607 280.714 110.44 280.809 110.245 280.879C110.05 280.946 109.825 280.979 109.57 280.979ZM109.98 279.991C110.19 279.991 110.376 279.95 110.537 279.867C110.699 279.782 110.825 279.668 110.917 279.524C111.009 279.381 111.055 279.218 111.055 279.037V278.489C111.01 278.518 110.949 278.545 110.87 278.57C110.794 278.592 110.708 278.613 110.611 278.634C110.515 278.652 110.419 278.668 110.322 278.684C110.226 278.697 110.139 278.71 110.06 278.721C109.892 278.746 109.745 278.785 109.62 278.839C109.494 278.892 109.397 278.965 109.328 279.057C109.258 279.147 109.223 279.259 109.223 279.393C109.223 279.588 109.294 279.737 109.435 279.84C109.578 279.941 109.76 279.991 109.98 279.991ZM113.587 280.882V275.72H115.019V280.882H113.587ZM114.307 275.054C114.094 275.054 113.911 274.984 113.759 274.843C113.609 274.699 113.534 274.528 113.534 274.328C113.534 274.131 113.609 273.962 113.759 273.821C113.911 273.678 114.094 273.606 114.307 273.606C114.519 273.606 114.701 273.678 114.851 273.821C115.003 273.962 115.08 274.131 115.08 274.328C115.08 274.528 115.003 274.699 114.851 274.843C114.701 274.984 114.519 275.054 114.307 275.054ZM117.598 273.999V280.882H116.166V273.999H117.598ZM120.217 280.979C119.887 280.979 119.594 280.922 119.336 280.808C119.078 280.692 118.874 280.52 118.724 280.294C118.576 280.065 118.503 279.781 118.503 279.44C118.503 279.153 118.555 278.913 118.66 278.718C118.766 278.523 118.909 278.366 119.091 278.247C119.272 278.128 119.478 278.039 119.709 277.978C119.942 277.918 120.186 277.875 120.442 277.851C120.742 277.819 120.984 277.79 121.168 277.763C121.351 277.734 121.485 277.691 121.568 277.635C121.65 277.579 121.692 277.497 121.692 277.387V277.367C121.692 277.154 121.625 276.989 121.49 276.873C121.358 276.756 121.17 276.698 120.926 276.698C120.668 276.698 120.463 276.755 120.311 276.869C120.158 276.981 120.057 277.122 120.008 277.293L118.684 277.185C118.751 276.871 118.883 276.6 119.081 276.372C119.278 276.141 119.532 275.964 119.843 275.841C120.157 275.715 120.52 275.653 120.932 275.653C121.219 275.653 121.494 275.686 121.756 275.753C122.02 275.821 122.254 275.925 122.458 276.066C122.664 276.207 122.827 276.389 122.945 276.61C123.064 276.83 123.124 277.093 123.124 277.4V280.882H121.766V280.166H121.726C121.643 280.327 121.532 280.47 121.393 280.593C121.254 280.714 121.087 280.809 120.892 280.879C120.697 280.946 120.472 280.979 120.217 280.979ZM120.627 279.991C120.837 279.991 121.023 279.95 121.184 279.867C121.346 279.782 121.472 279.668 121.564 279.524C121.656 279.381 121.702 279.218 121.702 279.037V278.489C121.657 278.518 121.596 278.545 121.517 278.57C121.441 278.592 121.355 278.613 121.258 278.634C121.162 278.652 121.066 278.668 120.969 278.684C120.873 278.697 120.786 278.71 120.707 278.721C120.539 278.746 120.392 278.785 120.267 278.839C120.141 278.892 120.044 278.965 119.975 279.057C119.905 279.147 119.87 279.259 119.87 279.393C119.87 279.588 119.941 279.737 120.082 279.84C120.225 279.941 120.407 279.991 120.627 279.991ZM124.261 280.882V273.999H125.693V276.587H125.737C125.799 276.448 125.89 276.307 126.009 276.163C126.13 276.018 126.287 275.897 126.479 275.8C126.674 275.702 126.916 275.653 127.205 275.653C127.582 275.653 127.929 275.751 128.247 275.948C128.565 276.143 128.82 276.438 129.01 276.832C129.2 277.224 129.296 277.716 129.296 278.308C129.296 278.883 129.203 279.37 129.017 279.766C128.833 280.161 128.582 280.46 128.264 280.664C127.948 280.865 127.594 280.966 127.202 280.966C126.924 280.966 126.688 280.92 126.493 280.828C126.3 280.736 126.142 280.621 126.019 280.482C125.896 280.341 125.802 280.199 125.737 280.055H125.673V280.882H124.261ZM125.663 278.301C125.663 278.608 125.705 278.876 125.79 279.104C125.876 279.333 125.999 279.511 126.16 279.638C126.321 279.764 126.517 279.827 126.748 279.827C126.981 279.827 127.178 279.763 127.34 279.635C127.501 279.505 127.623 279.326 127.706 279.097C127.791 278.867 127.834 278.601 127.834 278.301C127.834 278.003 127.792 277.741 127.709 277.514C127.627 277.288 127.504 277.111 127.343 276.983C127.182 276.856 126.983 276.792 126.748 276.792C126.515 276.792 126.318 276.853 126.157 276.977C125.998 277.1 125.876 277.275 125.79 277.501C125.705 277.727 125.663 277.994 125.663 278.301ZM131.683 273.999V280.882H130.251V273.999H131.683ZM135.182 280.983C134.651 280.983 134.194 280.875 133.811 280.66C133.43 280.443 133.137 280.136 132.93 279.739C132.724 279.34 132.621 278.869 132.621 278.324C132.621 277.793 132.724 277.327 132.93 276.926C133.137 276.525 133.427 276.213 133.801 275.989C134.177 275.765 134.619 275.653 135.125 275.653C135.466 275.653 135.783 275.707 136.076 275.817C136.372 275.925 136.63 276.087 136.849 276.305C137.071 276.522 137.243 276.795 137.367 277.125C137.49 277.452 137.552 277.835 137.552 278.274V278.667H133.193V277.78H136.204C136.204 277.574 136.159 277.391 136.069 277.232C135.98 277.073 135.855 276.949 135.696 276.859C135.54 276.767 135.357 276.721 135.149 276.721C134.931 276.721 134.739 276.772 134.57 276.873C134.405 276.971 134.275 277.104 134.181 277.272C134.087 277.438 134.038 277.623 134.036 277.827V278.671C134.036 278.926 134.083 279.147 134.177 279.333C134.274 279.519 134.409 279.662 134.584 279.763C134.759 279.864 134.966 279.914 135.206 279.914C135.365 279.914 135.51 279.892 135.643 279.847C135.775 279.802 135.888 279.735 135.982 279.645C136.076 279.556 136.148 279.446 136.197 279.316L137.521 279.403C137.454 279.721 137.316 279.999 137.108 280.237C136.902 280.472 136.635 280.656 136.308 280.788C135.983 280.918 135.608 280.983 135.182 280.983Z" fill="#65AC02"/>
<rect x="192.611" y="144.955" width="115.315" height="73.9939" rx="4.89216" fill="#F1F1F1"/>
<path d="M241.548 164.096C240.856 164.096 240.192 164.371 239.703 164.86C239.213 165.349 238.938 166.013 238.938 166.705C238.938 167.397 239.213 168.061 239.703 168.55C240.192 169.039 240.856 169.314 241.548 169.314H257.203C257.895 169.314 258.558 169.039 259.047 168.55C259.537 168.061 259.812 167.397 259.812 166.705C259.812 166.013 259.537 165.349 259.047 164.86C258.558 164.371 257.895 164.096 257.203 164.096H241.548ZM233.72 174.533C233.72 173.841 233.995 173.177 234.484 172.688C234.974 172.198 235.637 171.923 236.329 171.923H262.421C263.113 171.923 263.776 172.198 264.266 172.688C264.755 173.177 265.03 173.841 265.03 174.533C265.03 175.225 264.755 175.888 264.266 176.378C263.776 176.867 263.113 177.142 262.421 177.142H236.329C235.637 177.142 234.974 176.867 234.484 176.378C233.995 175.888 233.72 175.225 233.72 174.533ZM228.502 184.969C228.502 183.585 229.052 182.258 230.03 181.279C231.009 180.301 232.336 179.751 233.72 179.751H265.03C266.414 179.751 267.741 180.301 268.72 181.279C269.698 182.258 270.248 183.585 270.248 184.969V195.406C270.248 196.79 269.698 198.117 268.72 199.096C267.741 200.074 266.414 200.624 265.03 200.624H233.72C232.336 200.624 231.009 200.074 230.03 199.096C229.052 198.117 228.502 196.79 228.502 195.406V184.969Z" fill="#FF3933"/>
<path d="M244.699 196.365V194.43L249.222 190.242C249.607 189.869 249.929 189.534 250.19 189.236C250.455 188.939 250.655 188.647 250.792 188.362C250.928 188.072 250.997 187.76 250.997 187.425C250.997 187.052 250.912 186.732 250.742 186.463C250.573 186.19 250.341 185.981 250.047 185.836C249.754 185.687 249.421 185.613 249.048 185.613C248.66 185.613 248.32 185.692 248.031 185.849C247.741 186.006 247.518 186.231 247.361 186.525C247.204 186.819 247.125 187.168 247.125 187.574H244.575C244.575 186.742 244.763 186.02 245.14 185.408C245.516 184.796 246.043 184.322 246.722 183.987C247.4 183.652 248.182 183.485 249.067 183.485C249.977 183.485 250.769 183.646 251.443 183.969C252.122 184.287 252.649 184.73 253.026 185.297C253.402 185.863 253.59 186.513 253.59 187.245C253.59 187.725 253.495 188.198 253.305 188.666C253.119 189.133 252.786 189.652 252.306 190.223C251.826 190.79 251.15 191.47 250.277 192.264L248.422 194.082V194.169H253.758V196.365H244.699Z" fill="white"/>
<path d="M304.389 140.141C301.408 137.16 296.515 137.16 293.534 140.141C290.553 143.122 290.553 148.014 293.534 150.996C296.515 153.977 301.331 153.977 304.312 150.996C307.293 148.014 307.37 143.122 304.389 140.141ZM301.102 148.779L298.961 146.638L296.821 148.779L295.751 147.709L297.891 145.568L295.751 143.428L296.821 142.358L298.961 144.498L301.102 142.358L302.172 143.428L300.032 145.568L302.172 147.709L301.102 148.779Z" fill="#FF3933"/>
<path d="M199.283 232.794H197.811C197.784 232.604 197.729 232.435 197.646 232.287C197.563 232.137 197.457 232.009 197.327 231.904C197.197 231.798 197.047 231.718 196.876 231.662C196.708 231.606 196.526 231.578 196.328 231.578C195.972 231.578 195.662 231.666 195.398 231.843C195.133 232.018 194.928 232.273 194.782 232.61C194.637 232.943 194.564 233.349 194.564 233.826C194.564 234.317 194.637 234.729 194.782 235.063C194.93 235.397 195.136 235.649 195.401 235.819C195.665 235.989 195.971 236.074 196.318 236.074C196.513 236.074 196.694 236.049 196.859 235.997C197.028 235.946 197.177 235.871 197.306 235.772C197.436 235.671 197.544 235.549 197.629 235.406C197.716 235.262 197.777 235.099 197.811 234.915L199.283 234.922C199.245 235.238 199.149 235.542 198.997 235.836C198.847 236.127 198.644 236.388 198.389 236.619C198.135 236.847 197.833 237.029 197.481 237.163C197.132 237.296 196.736 237.362 196.295 237.362C195.681 237.362 195.132 237.223 194.648 236.945C194.166 236.667 193.785 236.265 193.505 235.738C193.228 235.212 193.089 234.574 193.089 233.826C193.089 233.076 193.23 232.437 193.512 231.91C193.794 231.384 194.178 230.983 194.662 230.707C195.145 230.429 195.69 230.291 196.295 230.291C196.694 230.291 197.063 230.347 197.404 230.459C197.747 230.571 198.05 230.734 198.315 230.949C198.579 231.162 198.794 231.423 198.96 231.732C199.128 232.042 199.236 232.396 199.283 232.794ZM202.632 237.368C202.11 237.368 201.658 237.257 201.277 237.036C200.899 236.812 200.606 236.5 200.4 236.101C200.194 235.7 200.091 235.235 200.091 234.707C200.091 234.173 200.194 233.707 200.4 233.309C200.606 232.908 200.899 232.596 201.277 232.374C201.658 232.15 202.11 232.038 202.632 232.038C203.154 232.038 203.604 232.15 203.983 232.374C204.364 232.596 204.657 232.908 204.863 233.309C205.069 233.707 205.172 234.173 205.172 234.707C205.172 235.235 205.069 235.7 204.863 236.101C204.657 236.5 204.364 236.812 203.983 237.036C203.604 237.257 203.154 237.368 202.632 237.368ZM202.638 236.259C202.876 236.259 203.074 236.192 203.233 236.058C203.392 235.921 203.512 235.735 203.593 235.5C203.676 235.265 203.717 234.997 203.717 234.697C203.717 234.396 203.676 234.129 203.593 233.893C203.512 233.658 203.392 233.472 203.233 233.335C203.074 233.199 202.876 233.13 202.638 233.13C202.399 233.13 202.197 233.199 202.033 233.335C201.872 233.472 201.75 233.658 201.667 233.893C201.586 234.129 201.546 234.396 201.546 234.697C201.546 234.997 201.586 235.265 201.667 235.5C201.75 235.735 201.872 235.921 202.033 236.058C202.197 236.192 202.399 236.259 202.638 236.259ZM207.535 230.385V237.268H206.103V230.385H207.535ZM210.114 230.385V237.268H208.682V230.385H210.114ZM213.613 237.368C213.082 237.368 212.625 237.261 212.242 237.046C211.861 236.828 211.567 236.521 211.361 236.125C211.155 235.726 211.052 235.254 211.052 234.71C211.052 234.179 211.155 233.713 211.361 233.312C211.567 232.911 211.858 232.598 212.232 232.374C212.608 232.15 213.05 232.038 213.556 232.038C213.896 232.038 214.213 232.093 214.507 232.203C214.803 232.31 215.06 232.473 215.28 232.69C215.502 232.908 215.674 233.181 215.798 233.51C215.921 233.837 215.982 234.22 215.982 234.66V235.053H211.623V234.166H214.635C214.635 233.959 214.59 233.777 214.5 233.618C214.411 233.459 214.286 233.334 214.127 233.245C213.97 233.153 213.788 233.107 213.579 233.107C213.362 233.107 213.169 233.157 213.001 233.258C212.836 233.357 212.706 233.49 212.612 233.658C212.517 233.824 212.469 234.009 212.467 234.213V235.056C212.467 235.312 212.514 235.532 212.608 235.718C212.704 235.904 212.84 236.048 213.015 236.148C213.19 236.249 213.397 236.3 213.637 236.3C213.796 236.3 213.941 236.277 214.073 236.232C214.206 236.188 214.319 236.12 214.413 236.031C214.507 235.941 214.579 235.831 214.628 235.701L215.952 235.789C215.885 236.107 215.747 236.385 215.539 236.622C215.333 236.858 215.066 237.041 214.739 237.173C214.414 237.303 214.039 237.368 213.613 237.368ZM219.249 237.368C218.72 237.368 218.265 237.256 217.885 237.032C217.506 236.806 217.215 236.492 217.011 236.091C216.809 235.69 216.708 235.229 216.708 234.707C216.708 234.178 216.81 233.714 217.014 233.315C217.22 232.914 217.513 232.602 217.891 232.378C218.27 232.151 218.72 232.038 219.242 232.038C219.693 232.038 220.087 232.12 220.425 232.284C220.764 232.447 221.031 232.677 221.229 232.972C221.426 233.268 221.534 233.616 221.555 234.014H220.204C220.165 233.757 220.065 233.549 219.901 233.393C219.74 233.234 219.528 233.154 219.266 233.154C219.044 233.154 218.85 233.214 218.684 233.335C218.521 233.454 218.393 233.628 218.301 233.856C218.209 234.085 218.164 234.362 218.164 234.686C218.164 235.016 218.208 235.296 218.298 235.527C218.39 235.757 218.519 235.933 218.684 236.054C218.85 236.175 219.044 236.236 219.266 236.236C219.429 236.236 219.576 236.202 219.706 236.135C219.838 236.068 219.947 235.97 220.032 235.843C220.12 235.713 220.177 235.557 220.204 235.375H221.555C221.532 235.77 221.425 236.117 221.232 236.417C221.042 236.715 220.778 236.948 220.442 237.116C220.106 237.284 219.708 237.368 219.249 237.368ZM225.217 232.105V233.181H222.108V232.105H225.217ZM222.814 230.869H224.246V235.681C224.246 235.813 224.266 235.917 224.306 235.99C224.347 236.062 224.403 236.113 224.474 236.142C224.548 236.171 224.633 236.185 224.73 236.185C224.797 236.185 224.864 236.18 224.931 236.169C224.999 236.155 225.05 236.145 225.086 236.138L225.311 237.204C225.239 237.226 225.139 237.252 225.009 237.281C224.879 237.312 224.721 237.331 224.535 237.338C224.19 237.352 223.887 237.306 223.627 237.2C223.37 237.095 223.169 236.931 223.026 236.71C222.882 236.488 222.812 236.208 222.814 235.869V230.869ZM226.15 237.268V232.105H227.581V237.268H226.15ZM226.869 231.44C226.656 231.44 226.473 231.369 226.321 231.228C226.171 231.085 226.096 230.913 226.096 230.714C226.096 230.517 226.171 230.348 226.321 230.207C226.473 230.063 226.656 229.991 226.869 229.991C227.082 229.991 227.263 230.063 227.413 230.207C227.566 230.348 227.642 230.517 227.642 230.714C227.642 230.913 227.566 231.085 227.413 231.228C227.263 231.369 227.082 231.44 226.869 231.44ZM231.061 237.368C230.539 237.368 230.087 237.257 229.706 237.036C229.328 236.812 229.035 236.5 228.829 236.101C228.623 235.7 228.52 235.235 228.52 234.707C228.52 234.173 228.623 233.707 228.829 233.309C229.035 232.908 229.328 232.596 229.706 232.374C230.087 232.15 230.539 232.038 231.061 232.038C231.583 232.038 232.033 232.15 232.412 232.374C232.793 232.596 233.086 232.908 233.292 233.309C233.498 233.707 233.601 234.173 233.601 234.707C233.601 235.235 233.498 235.7 233.292 236.101C233.086 236.5 232.793 236.812 232.412 237.036C232.033 237.257 231.583 237.368 231.061 237.368ZM231.067 236.259C231.305 236.259 231.503 236.192 231.662 236.058C231.821 235.921 231.941 235.735 232.022 235.5C232.105 235.265 232.146 234.997 232.146 234.697C232.146 234.396 232.105 234.129 232.022 233.893C231.941 233.658 231.821 233.472 231.662 233.335C231.503 233.199 231.305 233.13 231.067 233.13C230.828 233.13 230.626 233.199 230.462 233.335C230.301 233.472 230.179 233.658 230.096 233.893C230.015 234.129 229.975 234.396 229.975 234.697C229.975 234.997 230.015 235.265 230.096 235.5C230.179 235.735 230.301 235.921 230.462 236.058C230.626 236.192 230.828 236.259 231.067 236.259ZM235.964 234.283V237.268H234.532V232.105H235.897V233.016H235.957C236.072 232.716 236.263 232.478 236.532 232.304C236.801 232.127 237.127 232.038 237.51 232.038C237.868 232.038 238.181 232.117 238.448 232.273C238.714 232.43 238.922 232.654 239.069 232.946C239.217 233.235 239.291 233.58 239.291 233.981V237.268H237.859V234.236C237.862 233.92 237.781 233.674 237.618 233.497C237.454 233.318 237.229 233.228 236.942 233.228C236.749 233.228 236.579 233.269 236.431 233.352C236.286 233.435 236.171 233.556 236.088 233.715C236.008 233.872 235.966 234.061 235.964 234.283ZM242.597 237.268V236.219L245.047 233.95C245.255 233.749 245.43 233.567 245.571 233.406C245.714 233.245 245.823 233.087 245.897 232.932C245.971 232.775 246.008 232.606 246.008 232.425C246.008 232.223 245.962 232.049 245.87 231.904C245.778 231.756 245.653 231.643 245.494 231.564C245.334 231.484 245.154 231.443 244.952 231.443C244.742 231.443 244.558 231.486 244.401 231.571C244.244 231.656 244.123 231.778 244.038 231.937C243.953 232.096 243.911 232.286 243.911 232.505H242.529C242.529 232.055 242.631 231.664 242.835 231.332C243.039 231.001 243.325 230.744 243.692 230.563C244.06 230.381 244.483 230.291 244.963 230.291C245.455 230.291 245.885 230.378 246.25 230.553C246.617 230.725 246.903 230.965 247.107 231.272C247.311 231.579 247.413 231.931 247.413 232.327C247.413 232.587 247.361 232.844 247.258 233.097C247.157 233.35 246.977 233.631 246.717 233.94C246.457 234.247 246.091 234.616 245.618 235.046L244.613 236.031V236.078H247.503V237.268H242.597Z" fill="#969696"/>
<rect x="192.611" y="248.586" width="115.315" height="4.6592" rx="2.3296" fill="#CCCCCC"/>
<rect x="192.611" y="257.904" width="29.7024" height="4.6592" rx="2.3296" fill="#CCCCCC"/>
<g clip-path="url(#clip1_5_277)">
<path d="M199.911 274.668C198.421 273.178 195.975 273.178 194.484 274.668C192.994 276.159 192.994 278.605 194.484 280.096C195.975 281.586 198.383 281.586 199.873 280.096C201.364 278.605 201.402 276.159 199.911 274.668ZM198.268 278.987L197.198 277.917L196.128 278.987L195.593 278.452L196.663 277.382L195.593 276.312L196.128 275.777L197.198 276.847L198.268 275.777L198.803 276.312L197.733 277.382L198.803 278.452L198.268 278.987Z" fill="#FF3933"/>
</g>
<path d="M211.513 276.409H210.041C210.014 276.218 209.959 276.049 209.876 275.901C209.793 275.751 209.687 275.623 209.557 275.518C209.427 275.413 209.277 275.332 209.107 275.276C208.939 275.22 208.756 275.192 208.559 275.192C208.203 275.192 207.892 275.281 207.628 275.458C207.364 275.632 207.159 275.888 207.013 276.224C206.867 276.558 206.794 276.963 206.794 277.441C206.794 277.931 206.867 278.343 207.013 278.677C207.161 279.011 207.367 279.263 207.631 279.433C207.896 279.604 208.201 279.689 208.549 279.689C208.744 279.689 208.924 279.663 209.09 279.612C209.258 279.56 209.407 279.485 209.537 279.386C209.667 279.286 209.774 279.163 209.859 279.02C209.947 278.877 210.007 278.713 210.041 278.529L211.513 278.536C211.475 278.852 211.38 279.157 211.227 279.45C211.077 279.742 210.874 280.003 210.619 280.233C210.366 280.462 210.063 280.643 209.712 280.778C209.362 280.91 208.967 280.976 208.525 280.976C207.911 280.976 207.362 280.837 206.878 280.559C206.397 280.281 206.016 279.879 205.736 279.353C205.458 278.826 205.319 278.189 205.319 277.441C205.319 276.69 205.46 276.051 205.743 275.525C206.025 274.998 206.408 274.597 206.892 274.322C207.376 274.044 207.92 273.905 208.525 273.905C208.924 273.905 209.294 273.961 209.634 274.073C209.977 274.185 210.281 274.349 210.545 274.564C210.809 274.777 211.025 275.038 211.19 275.347C211.358 275.656 211.466 276.01 211.513 276.409ZM218.882 277.441C218.882 278.191 218.739 278.83 218.455 279.356C218.172 279.883 217.787 280.285 217.299 280.563C216.812 280.838 216.266 280.976 215.659 280.976C215.047 280.976 214.498 280.837 214.012 280.559C213.526 280.281 213.141 279.879 212.859 279.353C212.577 278.826 212.436 278.189 212.436 277.441C212.436 276.69 212.577 276.051 212.859 275.525C213.141 274.998 213.526 274.597 214.012 274.322C214.498 274.044 215.047 273.905 215.659 273.905C216.266 273.905 216.812 274.044 217.299 274.322C217.787 274.597 218.172 274.998 218.455 275.525C218.739 276.051 218.882 276.69 218.882 277.441ZM217.406 277.441C217.406 276.954 217.333 276.544 217.188 276.21C217.044 275.877 216.842 275.623 216.579 275.451C216.317 275.278 216.01 275.192 215.659 275.192C215.307 275.192 215 275.278 214.738 275.451C214.476 275.623 214.272 275.877 214.126 276.21C213.983 276.544 213.911 276.954 213.911 277.441C213.911 277.927 213.983 278.337 214.126 278.671C214.272 279.004 214.476 279.258 214.738 279.43C215 279.603 215.307 279.689 215.659 279.689C216.01 279.689 216.317 279.603 216.579 279.43C216.842 279.258 217.044 279.004 217.188 278.671C217.333 278.337 217.406 277.927 217.406 277.441ZM222.399 280.882H219.96V273.999H222.42C223.112 273.999 223.708 274.137 224.208 274.412C224.707 274.686 225.091 275.079 225.36 275.592C225.631 276.105 225.767 276.719 225.767 277.434C225.767 278.151 225.631 278.767 225.36 279.282C225.091 279.798 224.705 280.193 224.201 280.469C223.699 280.744 223.099 280.882 222.399 280.882ZM221.415 279.635H222.339C222.769 279.635 223.131 279.559 223.424 279.407C223.72 279.252 223.942 279.013 224.09 278.691C224.24 278.366 224.315 277.947 224.315 277.434C224.315 276.925 224.24 276.51 224.09 276.187C223.942 275.864 223.721 275.627 223.428 275.474C223.134 275.322 222.773 275.246 222.342 275.246H221.415V279.635ZM234.792 273.999V280.882H233.535L230.541 276.55H230.491V280.882H229.035V273.999H230.312L233.283 278.328H233.344V273.999H234.792ZM238.3 280.983C237.778 280.983 237.327 280.872 236.946 280.65C236.567 280.426 236.275 280.115 236.069 279.716C235.863 279.315 235.759 278.85 235.759 278.321C235.759 277.788 235.863 277.322 236.069 276.923C236.275 276.522 236.567 276.21 236.946 275.989C237.327 275.765 237.778 275.653 238.3 275.653C238.822 275.653 239.273 275.765 239.651 275.989C240.032 276.21 240.326 276.522 240.532 276.923C240.738 277.322 240.841 277.788 240.841 278.321C240.841 278.85 240.738 279.315 240.532 279.716C240.326 280.115 240.032 280.426 239.651 280.65C239.273 280.872 238.822 280.983 238.3 280.983ZM238.307 279.874C238.544 279.874 238.743 279.807 238.902 279.672C239.061 279.535 239.181 279.349 239.261 279.114C239.344 278.879 239.386 278.611 239.386 278.311C239.386 278.011 239.344 277.743 239.261 277.508C239.181 277.272 239.061 277.086 238.902 276.95C238.743 276.813 238.544 276.745 238.307 276.745C238.067 276.745 237.866 276.813 237.702 276.95C237.541 277.086 237.419 277.272 237.336 277.508C237.255 277.743 237.215 278.011 237.215 278.311C237.215 278.611 237.255 278.879 237.336 279.114C237.419 279.349 237.541 279.535 237.702 279.672C237.866 279.807 238.067 279.874 238.307 279.874ZM244.518 275.72V276.795H241.409V275.72H244.518ZM242.115 274.483H243.546V279.296C243.546 279.428 243.567 279.531 243.607 279.605C243.647 279.677 243.703 279.727 243.775 279.756C243.849 279.785 243.934 279.8 244.03 279.8C244.098 279.8 244.165 279.794 244.232 279.783C244.299 279.77 244.351 279.759 244.387 279.753L244.612 280.818C244.54 280.841 244.439 280.866 244.309 280.895C244.179 280.927 244.021 280.946 243.835 280.953C243.49 280.966 243.188 280.92 242.928 280.815C242.67 280.709 242.47 280.546 242.326 280.324C242.183 280.102 242.112 279.822 242.115 279.484V274.483ZM249.113 280.979C248.783 280.979 248.49 280.922 248.232 280.808C247.975 280.692 247.771 280.52 247.621 280.294C247.473 280.065 247.399 279.781 247.399 279.44C247.399 279.153 247.451 278.913 247.557 278.718C247.662 278.523 247.805 278.366 247.987 278.247C248.168 278.128 248.374 278.039 248.605 277.978C248.838 277.918 249.082 277.875 249.338 277.851C249.638 277.819 249.88 277.79 250.064 277.763C250.248 277.734 250.381 277.691 250.464 277.635C250.547 277.579 250.588 277.497 250.588 277.387V277.367C250.588 277.154 250.521 276.989 250.386 276.873C250.254 276.756 250.066 276.698 249.822 276.698C249.564 276.698 249.359 276.755 249.207 276.869C249.054 276.981 248.954 277.122 248.904 277.293L247.58 277.185C247.647 276.871 247.78 276.6 247.977 276.372C248.174 276.141 248.428 275.964 248.74 275.841C249.053 275.715 249.416 275.653 249.829 275.653C250.115 275.653 250.39 275.686 250.652 275.753C250.916 275.821 251.151 275.925 251.354 276.066C251.561 276.207 251.723 276.389 251.842 276.61C251.96 276.83 252.02 277.093 252.02 277.4V280.882H250.662V280.166H250.622C250.539 280.327 250.428 280.47 250.289 280.593C250.15 280.714 249.983 280.809 249.788 280.879C249.593 280.946 249.368 280.979 249.113 280.979ZM249.523 279.991C249.733 279.991 249.919 279.95 250.081 279.867C250.242 279.782 250.369 279.668 250.46 279.524C250.552 279.381 250.598 279.218 250.598 279.037V278.489C250.553 278.518 250.492 278.545 250.413 278.57C250.337 278.592 250.251 278.613 250.155 278.634C250.058 278.652 249.962 278.668 249.866 278.684C249.769 278.697 249.682 278.71 249.603 278.721C249.435 278.746 249.289 278.785 249.163 278.839C249.038 278.892 248.94 278.965 248.871 279.057C248.801 279.147 248.767 279.259 248.767 279.393C248.767 279.588 248.837 279.737 248.978 279.84C249.122 279.941 249.303 279.991 249.523 279.991ZM255.033 280.966C254.641 280.966 254.286 280.865 253.967 280.664C253.651 280.46 253.401 280.161 253.215 279.766C253.031 279.37 252.939 278.883 252.939 278.308C252.939 277.716 253.034 277.224 253.225 276.832C253.415 276.438 253.668 276.143 253.984 275.948C254.302 275.751 254.651 275.653 255.029 275.653C255.318 275.653 255.559 275.702 255.752 275.8C255.947 275.897 256.104 276.018 256.223 276.163C256.343 276.307 256.435 276.448 256.498 276.587H256.542V273.999H257.97V280.882H256.559V280.055H256.498C256.431 280.199 256.336 280.341 256.212 280.482C256.091 280.621 255.933 280.736 255.739 280.828C255.546 280.92 255.311 280.966 255.033 280.966ZM255.486 279.827C255.717 279.827 255.912 279.764 256.071 279.638C256.233 279.511 256.356 279.333 256.441 279.104C256.528 278.876 256.572 278.608 256.572 278.301C256.572 277.994 256.529 277.727 256.444 277.501C256.359 277.275 256.236 277.1 256.075 276.977C255.913 276.853 255.717 276.792 255.486 276.792C255.251 276.792 255.053 276.856 254.892 276.983C254.73 277.111 254.608 277.288 254.525 277.514C254.442 277.741 254.401 278.003 254.401 278.301C254.401 278.601 254.442 278.867 254.525 279.097C254.61 279.326 254.733 279.505 254.892 279.635C255.053 279.763 255.251 279.827 255.486 279.827ZM261.049 280.966C260.657 280.966 260.302 280.865 259.984 280.664C259.668 280.46 259.417 280.161 259.231 279.766C259.048 279.37 258.956 278.883 258.956 278.308C258.956 277.716 259.051 277.224 259.241 276.832C259.432 276.438 259.685 276.143 260.001 275.948C260.319 275.751 260.667 275.653 261.046 275.653C261.335 275.653 261.576 275.702 261.769 275.8C261.964 275.897 262.12 276.018 262.239 276.163C262.36 276.307 262.452 276.448 262.515 276.587H262.558V273.999H263.987V280.882H262.575V280.055H262.515C262.448 280.199 262.352 280.341 262.229 280.482C262.108 280.621 261.95 280.736 261.755 280.828C261.563 280.92 261.327 280.966 261.049 280.966ZM261.503 279.827C261.734 279.827 261.929 279.764 262.088 279.638C262.249 279.511 262.372 279.333 262.458 279.104C262.545 278.876 262.589 278.608 262.589 278.301C262.589 277.994 262.546 277.727 262.461 277.501C262.376 277.275 262.253 277.1 262.091 276.977C261.93 276.853 261.734 276.792 261.503 276.792C261.268 276.792 261.07 276.856 260.908 276.983C260.747 277.111 260.625 277.288 260.542 277.514C260.459 277.741 260.418 278.003 260.418 278.301C260.418 278.601 260.459 278.867 260.542 279.097C260.627 279.326 260.749 279.505 260.908 279.635C261.07 279.763 261.268 279.827 261.503 279.827ZM267.516 280.983C266.985 280.983 266.528 280.875 266.145 280.66C265.764 280.443 265.471 280.136 265.265 279.739C265.059 279.34 264.956 278.869 264.956 278.324C264.956 277.793 265.059 277.327 265.265 276.926C265.471 276.525 265.761 276.213 266.135 275.989C266.512 275.765 266.953 275.653 267.459 275.653C267.8 275.653 268.117 275.707 268.41 275.817C268.706 275.925 268.964 276.087 269.183 276.305C269.405 276.522 269.578 276.795 269.701 277.125C269.824 277.452 269.886 277.835 269.886 278.274V278.667H265.527V277.78H268.538C268.538 277.574 268.493 277.391 268.404 277.232C268.314 277.073 268.19 276.949 268.031 276.859C267.874 276.767 267.691 276.721 267.483 276.721C267.266 276.721 267.073 276.772 266.905 276.873C266.739 276.971 266.609 277.104 266.515 277.272C266.421 277.438 266.373 277.623 266.37 277.827V278.671C266.37 278.926 266.417 279.147 266.512 279.333C266.608 279.519 266.743 279.662 266.918 279.763C267.093 279.864 267.3 279.914 267.54 279.914C267.699 279.914 267.845 279.892 267.977 279.847C268.109 279.802 268.222 279.735 268.316 279.645C268.41 279.556 268.482 279.446 268.531 279.316L269.856 279.403C269.788 279.721 269.651 279.999 269.442 280.237C269.236 280.472 268.969 280.656 268.642 280.788C268.317 280.918 267.942 280.983 267.516 280.983ZM272.722 280.966C272.33 280.966 271.975 280.865 271.657 280.664C271.341 280.46 271.09 280.161 270.904 279.766C270.72 279.37 270.629 278.883 270.629 278.308C270.629 277.716 270.724 277.224 270.914 276.832C271.105 276.438 271.358 276.143 271.674 275.948C271.992 275.751 272.34 275.653 272.719 275.653C273.008 275.653 273.249 275.702 273.442 275.8C273.636 275.897 273.793 276.018 273.912 276.163C274.033 276.307 274.125 276.448 274.188 276.587H274.231V273.999H275.66V280.882H274.248V280.055H274.188C274.12 280.199 274.025 280.341 273.902 280.482C273.781 280.621 273.623 280.736 273.428 280.828C273.235 280.92 273 280.966 272.722 280.966ZM273.176 279.827C273.407 279.827 273.602 279.764 273.761 279.638C273.922 279.511 274.045 279.333 274.131 279.104C274.218 278.876 274.262 278.608 274.262 278.301C274.262 277.994 274.219 277.727 274.134 277.501C274.049 277.275 273.925 277.1 273.764 276.977C273.603 276.853 273.407 276.792 273.176 276.792C272.941 276.792 272.742 276.856 272.581 276.983C272.42 277.111 272.298 277.288 272.215 277.514C272.132 277.741 272.091 278.003 272.091 278.301C272.091 278.601 272.132 278.867 272.215 279.097C272.3 279.326 272.422 279.505 272.581 279.635C272.742 279.763 272.941 279.827 273.176 279.827Z" fill="#FF3933"/>
<rect x="324.234" y="144.955" width="115.315" height="73.9939" rx="4.89216" fill="#F1F1F1"/>
<path d="M373.17 164.096C372.478 164.096 371.814 164.371 371.325 164.86C370.835 165.349 370.56 166.013 370.56 166.705C370.56 167.397 370.835 168.061 371.325 168.55C371.814 169.039 372.478 169.314 373.17 169.314H388.825C389.517 169.314 390.18 169.039 390.669 168.55C391.159 168.061 391.434 167.397 391.434 166.705C391.434 166.013 391.159 165.349 390.669 164.86C390.18 164.371 389.517 164.096 388.825 164.096H373.17ZM365.342 174.533C365.342 173.841 365.617 173.177 366.106 172.688C366.596 172.198 367.259 171.923 367.951 171.923H394.043C394.735 171.923 395.398 172.198 395.888 172.688C396.377 173.177 396.652 173.841 396.652 174.533C396.652 175.225 396.377 175.888 395.888 176.378C395.398 176.867 394.735 177.142 394.043 177.142H367.951C367.259 177.142 366.596 176.867 366.106 176.378C365.617 175.888 365.342 175.225 365.342 174.533ZM360.124 184.969C360.124 183.585 360.674 182.258 361.652 181.279C362.631 180.301 363.958 179.751 365.342 179.751H396.652C398.036 179.751 399.363 180.301 400.342 181.279C401.32 182.258 401.87 183.585 401.87 184.969V195.406C401.87 196.79 401.32 198.117 400.342 199.096C399.363 200.074 398.036 200.624 396.652 200.624H365.342C363.958 200.624 362.631 200.074 361.652 199.096C360.674 198.117 360.124 196.79 360.124 195.406V184.969Z" fill="#105004"/>
<path d="M381.396 196.539C380.469 196.539 379.644 196.38 378.92 196.061C378.201 195.739 377.632 195.296 377.214 194.734C376.8 194.167 376.587 193.513 376.575 192.773H379.28C379.297 193.083 379.398 193.356 379.584 193.592C379.774 193.824 380.027 194.004 380.341 194.132C380.656 194.26 381.009 194.324 381.402 194.324C381.812 194.324 382.174 194.252 382.488 194.107C382.802 193.962 383.048 193.762 383.226 193.505C383.404 193.249 383.493 192.953 383.493 192.618C383.493 192.279 383.398 191.979 383.208 191.718C383.022 191.454 382.753 191.247 382.401 191.098C382.054 190.949 381.64 190.874 381.16 190.874H379.975V188.901H381.16C381.566 188.901 381.923 188.831 382.234 188.69C382.548 188.55 382.792 188.355 382.966 188.107C383.139 187.855 383.226 187.561 383.226 187.226C383.226 186.908 383.15 186.628 382.997 186.389C382.848 186.145 382.637 185.954 382.364 185.818C382.095 185.681 381.781 185.613 381.421 185.613C381.057 185.613 380.724 185.679 380.422 185.812C380.12 185.94 379.878 186.124 379.696 186.364C379.514 186.604 379.417 186.885 379.404 187.208H376.829C376.842 186.475 377.051 185.83 377.456 185.272C377.861 184.713 378.407 184.277 379.094 183.963C379.785 183.644 380.565 183.485 381.433 183.485C382.31 183.485 383.077 183.644 383.735 183.963C384.393 184.281 384.904 184.711 385.268 185.253C385.636 185.791 385.818 186.395 385.814 187.065C385.818 187.776 385.596 188.37 385.15 188.846C384.707 189.321 384.13 189.623 383.419 189.751V189.851C384.353 189.971 385.065 190.295 385.553 190.825C386.045 191.35 386.289 192.008 386.285 192.798C386.289 193.522 386.08 194.165 385.658 194.727C385.241 195.29 384.664 195.733 383.927 196.055C383.191 196.378 382.347 196.539 381.396 196.539Z" fill="white"/>
<path d="M428.452 156.035C432.975 156.035 436.642 152.368 436.642 147.845C436.642 143.322 432.975 139.655 428.452 139.655C423.929 139.655 420.262 143.322 420.262 147.845C420.262 152.368 423.929 156.035 428.452 156.035Z" fill="#4CAF50"/>
<path d="M432.586 144.179L427.282 149.483L425.098 147.299L424.006 148.391L427.282 151.667L433.678 145.271L432.586 144.179Z" fill="#CCFF90"/>
<path d="M330.905 232.794H329.433C329.406 232.604 329.351 232.435 329.268 232.287C329.185 232.137 329.079 232.009 328.949 231.904C328.819 231.798 328.669 231.718 328.498 231.662C328.33 231.606 328.148 231.578 327.951 231.578C327.594 231.578 327.284 231.666 327.02 231.843C326.755 232.018 326.55 232.273 326.405 232.61C326.259 232.943 326.186 233.349 326.186 233.826C326.186 234.317 326.259 234.729 326.405 235.063C326.553 235.397 326.759 235.649 327.023 235.819C327.287 235.989 327.593 236.074 327.941 236.074C328.135 236.074 328.316 236.049 328.482 235.997C328.65 235.946 328.799 235.871 328.929 235.772C329.059 235.671 329.166 235.549 329.251 235.406C329.339 235.262 329.399 235.099 329.433 234.915L330.905 234.922C330.867 235.238 330.771 235.542 330.619 235.836C330.469 236.127 330.266 236.388 330.011 236.619C329.758 236.847 329.455 237.029 329.103 237.163C328.754 237.296 328.358 237.362 327.917 237.362C327.303 237.362 326.754 237.223 326.27 236.945C325.789 236.667 325.408 236.265 325.128 235.738C324.85 235.212 324.711 234.574 324.711 233.826C324.711 233.076 324.852 232.437 325.134 231.91C325.417 231.384 325.8 230.983 326.284 230.707C326.768 230.429 327.312 230.291 327.917 230.291C328.316 230.291 328.686 230.347 329.026 230.459C329.369 230.571 329.672 230.734 329.937 230.949C330.201 231.162 330.416 231.423 330.582 231.732C330.75 232.042 330.858 232.396 330.905 232.794ZM334.254 237.368C333.732 237.368 333.28 237.257 332.899 237.036C332.521 236.812 332.228 236.5 332.022 236.101C331.816 235.7 331.713 235.235 331.713 234.707C331.713 234.173 331.816 233.707 332.022 233.309C332.228 232.908 332.521 232.596 332.899 232.374C333.28 232.15 333.732 232.038 334.254 232.038C334.776 232.038 335.226 232.15 335.605 232.374C335.986 232.596 336.279 232.908 336.485 233.309C336.692 233.707 336.795 234.173 336.795 234.707C336.795 235.235 336.692 235.7 336.485 236.101C336.279 236.5 335.986 236.812 335.605 237.036C335.226 237.257 334.776 237.368 334.254 237.368ZM334.261 236.259C334.498 236.259 334.696 236.192 334.855 236.058C335.014 235.921 335.134 235.735 335.215 235.5C335.298 235.265 335.339 234.997 335.339 234.697C335.339 234.396 335.298 234.129 335.215 233.893C335.134 233.658 335.014 233.472 334.855 233.335C334.696 233.199 334.498 233.13 334.261 233.13C334.021 233.13 333.819 233.199 333.656 233.335C333.494 233.472 333.372 233.658 333.289 233.893C333.209 234.129 333.168 234.396 333.168 234.697C333.168 234.997 333.209 235.265 333.289 235.5C333.372 235.735 333.494 235.921 333.656 236.058C333.819 236.192 334.021 236.259 334.261 236.259ZM339.157 230.385V237.268H337.726V230.385H339.157ZM341.736 230.385V237.268H340.304V230.385H341.736ZM345.235 237.368C344.704 237.368 344.247 237.261 343.864 237.046C343.483 236.828 343.19 236.521 342.983 236.125C342.777 235.726 342.674 235.254 342.674 234.71C342.674 234.179 342.777 233.713 342.983 233.312C343.19 232.911 343.48 232.598 343.854 232.374C344.23 232.15 344.672 232.038 345.178 232.038C345.519 232.038 345.836 232.093 346.129 232.203C346.425 232.31 346.683 232.473 346.902 232.69C347.124 232.908 347.296 233.181 347.42 233.51C347.543 233.837 347.605 234.22 347.605 234.66V235.053H343.246V234.166H346.257C346.257 233.959 346.212 233.777 346.122 233.618C346.033 233.459 345.908 233.334 345.749 233.245C345.593 233.153 345.41 233.107 345.202 233.107C344.984 233.107 344.792 233.157 344.624 233.258C344.458 233.357 344.328 233.49 344.234 233.658C344.14 233.824 344.091 234.009 344.089 234.213V235.056C344.089 235.312 344.136 235.532 344.23 235.718C344.327 235.904 344.462 236.048 344.637 236.148C344.812 236.249 345.019 236.3 345.259 236.3C345.418 236.3 345.563 236.277 345.696 236.232C345.828 236.188 345.941 236.12 346.035 236.031C346.129 235.941 346.201 235.831 346.25 235.701L347.574 235.789C347.507 236.107 347.369 236.385 347.161 236.622C346.955 236.858 346.688 237.041 346.361 237.173C346.036 237.303 345.661 237.368 345.235 237.368ZM350.871 237.368C350.342 237.368 349.888 237.256 349.507 237.032C349.128 236.806 348.837 236.492 348.633 236.091C348.431 235.69 348.331 235.229 348.331 234.707C348.331 234.178 348.432 233.714 348.636 233.315C348.842 232.914 349.135 232.602 349.514 232.378C349.892 232.151 350.342 232.038 350.865 232.038C351.315 232.038 351.709 232.12 352.048 232.284C352.386 232.447 352.654 232.677 352.851 232.972C353.048 233.268 353.157 233.616 353.177 234.014H351.826C351.788 233.757 351.687 233.549 351.523 233.393C351.362 233.234 351.15 233.154 350.888 233.154C350.666 233.154 350.472 233.214 350.307 233.335C350.143 233.454 350.015 233.628 349.924 233.856C349.832 234.085 349.786 234.362 349.786 234.686C349.786 235.016 349.831 235.296 349.92 235.527C350.012 235.757 350.141 235.933 350.307 236.054C350.472 236.175 350.666 236.236 350.888 236.236C351.052 236.236 351.198 236.202 351.328 236.135C351.461 236.068 351.569 235.97 351.654 235.843C351.742 235.713 351.799 235.557 351.826 235.375H353.177C353.154 235.77 353.047 236.117 352.854 236.417C352.664 236.715 352.4 236.948 352.064 237.116C351.728 237.284 351.331 237.368 350.871 237.368ZM356.839 232.105V233.181H353.73V232.105H356.839ZM354.436 230.869H355.868V235.681C355.868 235.813 355.888 235.917 355.928 235.99C355.969 236.062 356.025 236.113 356.096 236.142C356.17 236.171 356.256 236.185 356.352 236.185C356.419 236.185 356.486 236.18 356.554 236.169C356.621 236.155 356.672 236.145 356.708 236.138L356.933 237.204C356.862 237.226 356.761 237.252 356.631 237.281C356.501 237.312 356.343 237.331 356.157 237.338C355.812 237.352 355.509 237.306 355.25 237.2C354.992 237.095 354.791 236.931 354.648 236.71C354.505 236.488 354.434 236.208 354.436 235.869V230.869ZM357.772 237.268V232.105H359.204V237.268H357.772ZM358.491 231.44C358.278 231.44 358.096 231.369 357.943 231.228C357.793 231.085 357.718 230.913 357.718 230.714C357.718 230.517 357.793 230.348 357.943 230.207C358.096 230.063 358.278 229.991 358.491 229.991C358.704 229.991 358.885 230.063 359.035 230.207C359.188 230.348 359.264 230.517 359.264 230.714C359.264 230.913 359.188 231.085 359.035 231.228C358.885 231.369 358.704 231.44 358.491 231.44ZM362.683 237.368C362.161 237.368 361.709 237.257 361.328 237.036C360.95 236.812 360.657 236.5 360.451 236.101C360.245 235.7 360.142 235.235 360.142 234.707C360.142 234.173 360.245 233.707 360.451 233.309C360.657 232.908 360.95 232.596 361.328 232.374C361.709 232.15 362.161 232.038 362.683 232.038C363.205 232.038 363.655 232.15 364.034 232.374C364.415 232.596 364.708 232.908 364.914 233.309C365.12 233.707 365.224 234.173 365.224 234.707C365.224 235.235 365.12 235.7 364.914 236.101C364.708 236.5 364.415 236.812 364.034 237.036C363.655 237.257 363.205 237.368 362.683 237.368ZM362.69 236.259C362.927 236.259 363.125 236.192 363.284 236.058C363.443 235.921 363.563 235.735 363.644 235.5C363.727 235.265 363.768 234.997 363.768 234.697C363.768 234.396 363.727 234.129 363.644 233.893C363.563 233.658 363.443 233.472 363.284 233.335C363.125 233.199 362.927 233.13 362.69 233.13C362.45 233.13 362.248 233.199 362.085 233.335C361.923 233.472 361.801 233.658 361.718 233.893C361.638 234.129 361.597 234.396 361.597 234.697C361.597 234.997 361.638 235.265 361.718 235.5C361.801 235.735 361.923 235.921 362.085 236.058C362.248 236.192 362.45 236.259 362.69 236.259ZM367.586 234.283V237.268H366.154V232.105H367.519V233.016H367.579C367.694 232.716 367.885 232.478 368.154 232.304C368.423 232.127 368.749 232.038 369.132 232.038C369.491 232.038 369.803 232.117 370.07 232.273C370.336 232.43 370.544 232.654 370.692 232.946C370.839 233.235 370.913 233.58 370.913 233.981V237.268H369.482V234.236C369.484 233.92 369.403 233.674 369.24 233.497C369.076 233.318 368.851 233.228 368.564 233.228C368.371 233.228 368.201 233.269 368.053 233.352C367.908 233.435 367.793 233.556 367.711 233.715C367.63 233.872 367.588 234.061 367.586 234.283ZM376.763 237.362C376.261 237.362 375.814 237.275 375.422 237.103C375.032 236.928 374.724 236.688 374.498 236.384C374.274 236.077 374.158 235.723 374.151 235.322H375.617C375.626 235.49 375.681 235.638 375.781 235.765C375.885 235.891 376.021 235.988 376.191 236.058C376.362 236.127 376.553 236.162 376.766 236.162C376.988 236.162 377.184 236.123 377.354 236.044C377.525 235.966 377.658 235.857 377.754 235.718C377.851 235.579 377.899 235.419 377.899 235.238C377.899 235.054 377.847 234.891 377.744 234.75C377.643 234.607 377.498 234.495 377.307 234.414C377.119 234.334 376.895 234.293 376.635 234.293H375.993V233.225H376.635C376.855 233.225 377.049 233.186 377.217 233.11C377.387 233.034 377.519 232.929 377.613 232.794C377.707 232.658 377.754 232.499 377.754 232.317C377.754 232.145 377.713 231.993 377.63 231.863C377.549 231.731 377.435 231.628 377.287 231.554C377.141 231.48 376.971 231.443 376.776 231.443C376.579 231.443 376.399 231.479 376.235 231.551C376.072 231.62 375.941 231.72 375.842 231.85C375.743 231.98 375.691 232.132 375.684 232.307H374.289C374.296 231.91 374.409 231.561 374.629 231.258C374.848 230.956 375.144 230.72 375.516 230.549C375.89 230.377 376.312 230.291 376.783 230.291C377.258 230.291 377.674 230.377 378.03 230.549C378.386 230.722 378.663 230.955 378.86 231.248C379.059 231.54 379.158 231.867 379.156 232.23C379.158 232.615 379.038 232.937 378.796 233.194C378.556 233.452 378.244 233.616 377.858 233.685V233.739C378.365 233.804 378.75 233.98 379.015 234.266C379.281 234.551 379.413 234.907 379.411 235.335C379.413 235.727 379.3 236.076 379.072 236.38C378.845 236.685 378.533 236.925 378.134 237.1C377.735 237.274 377.278 237.362 376.763 237.362Z" fill="#969696"/>
<rect x="324.234" y="248.586" width="115.315" height="4.6592" rx="2.3296" fill="#CCCCCC"/>
<rect x="324.234" y="257.904" width="29.7024" height="4.6592" rx="2.3296" fill="#CCCCCC"/>
<g clip-path="url(#clip2_5_277)">
<path d="M328.82 272.795C326.287 272.795 324.233 274.849 324.233 277.382C324.233 279.915 326.287 281.968 328.82 281.968C331.353 281.968 333.406 279.915 333.406 277.382C333.406 274.849 331.353 272.795 328.82 272.795ZM330.788 274.943L331.741 275.896L328.764 278.873L327.817 279.82L326.864 278.867L325.899 277.901L326.846 276.954L327.811 277.92L330.788 274.943Z" fill="#65AC02"/>
</g>
<path d="M343.135 276.409H341.663C341.636 276.218 341.581 276.049 341.498 275.901C341.416 275.751 341.309 275.623 341.179 275.518C341.049 275.413 340.899 275.332 340.729 275.276C340.561 275.22 340.378 275.192 340.181 275.192C339.825 275.192 339.514 275.281 339.25 275.458C338.986 275.632 338.781 275.888 338.635 276.224C338.489 276.558 338.417 276.963 338.417 277.441C338.417 277.931 338.489 278.343 338.635 278.677C338.783 279.011 338.989 279.263 339.253 279.433C339.518 279.604 339.824 279.689 340.171 279.689C340.366 279.689 340.546 279.663 340.712 279.612C340.88 279.56 341.029 279.485 341.159 279.386C341.289 279.286 341.397 279.163 341.482 279.02C341.569 278.877 341.63 278.713 341.663 278.529L343.135 278.536C343.097 278.852 343.002 279.157 342.85 279.45C342.699 279.742 342.497 280.003 342.241 280.233C341.988 280.462 341.686 280.643 341.334 280.778C340.984 280.91 340.589 280.976 340.147 280.976C339.534 280.976 338.985 280.837 338.501 280.559C338.019 280.281 337.638 279.879 337.358 279.353C337.08 278.826 336.941 278.189 336.941 277.441C336.941 276.69 337.082 276.051 337.365 275.525C337.647 274.998 338.03 274.597 338.514 274.322C338.998 274.044 339.542 273.905 340.147 273.905C340.546 273.905 340.916 273.961 341.256 274.073C341.599 274.185 341.903 274.349 342.167 274.564C342.432 274.777 342.647 275.038 342.813 275.347C342.981 275.656 343.088 276.01 343.135 276.409ZM350.504 277.441C350.504 278.191 350.361 278.83 350.077 279.356C349.795 279.883 349.409 280.285 348.921 280.563C348.435 280.838 347.888 280.976 347.281 280.976C346.669 280.976 346.12 280.837 345.634 280.559C345.148 280.281 344.763 279.879 344.481 279.353C344.199 278.826 344.058 278.189 344.058 277.441C344.058 276.69 344.199 276.051 344.481 275.525C344.763 274.998 345.148 274.597 345.634 274.322C346.12 274.044 346.669 273.905 347.281 273.905C347.888 273.905 348.435 274.044 348.921 274.322C349.409 274.597 349.795 274.998 350.077 275.525C350.361 276.051 350.504 276.69 350.504 277.441ZM349.028 277.441C349.028 276.954 348.956 276.544 348.81 276.21C348.666 275.877 348.464 275.623 348.202 275.451C347.939 275.278 347.632 275.192 347.281 275.192C346.929 275.192 346.622 275.278 346.36 275.451C346.098 275.623 345.894 275.877 345.748 276.21C345.605 276.544 345.533 276.954 345.533 277.441C345.533 277.927 345.605 278.337 345.748 278.671C345.894 279.004 346.098 279.258 346.36 279.43C346.622 279.603 346.929 279.689 347.281 279.689C347.632 279.689 347.939 279.603 348.202 279.43C348.464 279.258 348.666 279.004 348.81 278.671C348.956 278.337 349.028 277.927 349.028 277.441ZM354.022 280.882H351.582V273.999H354.042C354.734 273.999 355.33 274.137 355.83 274.412C356.329 274.686 356.714 275.079 356.982 275.592C357.254 276.105 357.389 276.719 357.389 277.434C357.389 278.151 357.254 278.767 356.982 279.282C356.714 279.798 356.327 280.193 355.823 280.469C355.321 280.744 354.721 280.882 354.022 280.882ZM353.037 279.635H353.961C354.391 279.635 354.753 279.559 355.047 279.407C355.342 279.252 355.564 279.013 355.712 278.691C355.862 278.366 355.937 277.947 355.937 277.434C355.937 276.925 355.862 276.51 355.712 276.187C355.564 275.864 355.344 275.627 355.05 275.474C354.757 275.322 354.395 275.246 353.964 275.246H353.037V279.635ZM362.103 280.979C361.773 280.979 361.48 280.922 361.222 280.808C360.964 280.692 360.761 280.52 360.61 280.294C360.463 280.065 360.389 279.781 360.389 279.44C360.389 279.153 360.441 278.913 360.547 278.718C360.652 278.523 360.795 278.366 360.977 278.247C361.158 278.128 361.364 278.039 361.595 277.978C361.828 277.918 362.072 277.875 362.328 277.851C362.628 277.819 362.87 277.79 363.054 277.763C363.237 277.734 363.371 277.691 363.454 277.635C363.537 277.579 363.578 277.497 363.578 277.387V277.367C363.578 277.154 363.511 276.989 363.376 276.873C363.244 276.756 363.056 276.698 362.812 276.698C362.554 276.698 362.349 276.755 362.197 276.869C362.044 276.981 361.944 277.122 361.894 277.293L360.57 277.185C360.637 276.871 360.77 276.6 360.967 276.372C361.164 276.141 361.418 275.964 361.73 275.841C362.043 275.715 362.406 275.653 362.819 275.653C363.105 275.653 363.38 275.686 363.642 275.753C363.906 275.821 364.14 275.925 364.344 276.066C364.55 276.207 364.713 276.389 364.832 276.61C364.95 276.83 365.01 277.093 365.01 277.4V280.882H363.652V280.166H363.612C363.529 280.327 363.418 280.47 363.279 280.593C363.14 280.714 362.973 280.809 362.778 280.879C362.583 280.946 362.358 280.979 362.103 280.979ZM362.513 279.991C362.723 279.991 362.909 279.95 363.071 279.867C363.232 279.782 363.358 279.668 363.45 279.524C363.542 279.381 363.588 279.218 363.588 279.037V278.489C363.543 278.518 363.482 278.545 363.403 278.57C363.327 278.592 363.241 278.613 363.145 278.634C363.048 278.652 362.952 278.668 362.855 278.684C362.759 278.697 362.672 278.71 362.593 278.721C362.425 278.746 362.279 278.785 362.153 278.839C362.028 278.892 361.93 278.965 361.861 279.057C361.791 279.147 361.756 279.259 361.756 279.393C361.756 279.588 361.827 279.737 361.968 279.84C362.112 279.941 362.293 279.991 362.513 279.991ZM370.748 275.72L368.944 280.882H367.33L365.526 275.72H367.038L368.11 279.413H368.164L369.233 275.72H370.748ZM372.814 280.979C372.485 280.979 372.191 280.922 371.934 280.808C371.676 280.692 371.472 280.52 371.322 280.294C371.174 280.065 371.1 279.781 371.1 279.44C371.1 279.153 371.153 278.913 371.258 278.718C371.364 278.523 371.507 278.366 371.688 278.247C371.87 278.128 372.076 278.039 372.307 277.978C372.54 277.918 372.784 277.875 373.04 277.851C373.34 277.819 373.582 277.79 373.765 277.763C373.949 277.734 374.082 277.691 374.165 277.635C374.248 277.579 374.29 277.497 374.29 277.387V277.367C374.29 277.154 374.223 276.989 374.088 276.873C373.956 276.756 373.768 276.698 373.523 276.698C373.266 276.698 373.061 276.755 372.908 276.869C372.756 276.981 372.655 277.122 372.606 277.293L371.282 277.185C371.349 276.871 371.481 276.6 371.678 276.372C371.876 276.141 372.13 275.964 372.441 275.841C372.755 275.715 373.118 275.653 373.53 275.653C373.817 275.653 374.091 275.686 374.354 275.753C374.618 275.821 374.852 275.925 375.056 276.066C375.262 276.207 375.425 276.389 375.543 276.61C375.662 276.83 375.721 277.093 375.721 277.4V280.882H374.364V280.166H374.323C374.24 280.327 374.13 280.47 373.991 280.593C373.852 280.714 373.685 280.809 373.49 280.879C373.295 280.946 373.07 280.979 372.814 280.979ZM373.224 279.991C373.435 279.991 373.621 279.95 373.782 279.867C373.944 279.782 374.07 279.668 374.162 279.524C374.254 279.381 374.3 279.218 374.3 279.037V278.489C374.255 278.518 374.193 278.545 374.115 278.57C374.039 278.592 373.953 278.613 373.856 278.634C373.76 278.652 373.664 278.668 373.567 278.684C373.471 278.697 373.383 278.71 373.305 278.721C373.137 278.746 372.99 278.785 372.865 278.839C372.739 278.892 372.642 278.965 372.572 279.057C372.503 279.147 372.468 279.259 372.468 279.393C372.468 279.588 372.539 279.737 372.68 279.84C372.823 279.941 373.005 279.991 373.224 279.991ZM376.832 280.882V275.72H378.264V280.882H376.832ZM377.551 275.054C377.339 275.054 377.156 274.984 377.004 274.843C376.853 274.699 376.778 274.528 376.778 274.328C376.778 274.131 376.853 273.962 377.004 273.821C377.156 273.678 377.339 273.606 377.551 273.606C377.764 273.606 377.946 273.678 378.096 273.821C378.248 273.962 378.324 274.131 378.324 274.328C378.324 274.528 378.248 274.699 378.096 274.843C377.946 274.984 377.764 275.054 377.551 275.054ZM380.842 273.999V280.882H379.411V273.999H380.842ZM383.461 280.979C383.132 280.979 382.838 280.922 382.581 280.808C382.323 280.692 382.119 280.52 381.969 280.294C381.821 280.065 381.747 279.781 381.747 279.44C381.747 279.153 381.8 278.913 381.905 278.718C382.011 278.523 382.154 278.366 382.335 278.247C382.517 278.128 382.723 278.039 382.954 277.978C383.187 277.918 383.431 277.875 383.687 277.851C383.987 277.819 384.229 277.79 384.412 277.763C384.596 277.734 384.729 277.691 384.812 277.635C384.895 277.579 384.937 277.497 384.937 277.387V277.367C384.937 277.154 384.87 276.989 384.735 276.873C384.603 276.756 384.415 276.698 384.17 276.698C383.913 276.698 383.708 276.755 383.555 276.869C383.403 276.981 383.302 277.122 383.253 277.293L381.929 277.185C381.996 276.871 382.128 276.6 382.325 276.372C382.523 276.141 382.777 275.964 383.088 275.841C383.402 275.715 383.765 275.653 384.177 275.653C384.464 275.653 384.738 275.686 385.001 275.753C385.265 275.821 385.499 275.925 385.703 276.066C385.909 276.207 386.072 276.389 386.19 276.61C386.309 276.83 386.368 277.093 386.368 277.4V280.882H385.011V280.166H384.97C384.887 280.327 384.777 280.47 384.638 280.593C384.499 280.714 384.332 280.809 384.137 280.879C383.942 280.946 383.717 280.979 383.461 280.979ZM383.871 279.991C384.082 279.991 384.268 279.95 384.429 279.867C384.591 279.782 384.717 279.668 384.809 279.524C384.901 279.381 384.947 279.218 384.947 279.037V278.489C384.902 278.518 384.84 278.545 384.762 278.57C384.686 278.592 384.6 278.613 384.503 278.634C384.407 278.652 384.311 278.668 384.214 278.684C384.118 278.697 384.03 278.71 383.952 278.721C383.784 278.746 383.637 278.785 383.512 278.839C383.386 278.892 383.289 278.965 383.219 279.057C383.15 279.147 383.115 279.259 383.115 279.393C383.115 279.588 383.186 279.737 383.327 279.84C383.47 279.941 383.652 279.991 383.871 279.991ZM387.506 280.882V273.999H388.938V276.587H388.981C389.044 276.448 389.135 276.307 389.254 276.163C389.375 276.018 389.532 275.897 389.724 275.8C389.919 275.702 390.161 275.653 390.45 275.653C390.827 275.653 391.174 275.751 391.492 275.948C391.81 276.143 392.064 276.438 392.255 276.832C392.445 277.224 392.541 277.716 392.541 278.308C392.541 278.883 392.448 279.37 392.262 279.766C392.078 280.161 391.827 280.46 391.509 280.664C391.193 280.865 390.839 280.966 390.447 280.966C390.169 280.966 389.933 280.92 389.738 280.828C389.545 280.736 389.387 280.621 389.264 280.482C389.141 280.341 389.046 280.199 388.981 280.055H388.918V280.882H387.506ZM388.908 278.301C388.908 278.608 388.95 278.876 389.035 279.104C389.12 279.333 389.244 279.511 389.405 279.638C389.566 279.764 389.762 279.827 389.993 279.827C390.226 279.827 390.423 279.763 390.585 279.635C390.746 279.505 390.868 279.326 390.951 279.097C391.036 278.867 391.079 278.601 391.079 278.301C391.079 278.003 391.037 277.741 390.954 277.514C390.871 277.288 390.749 277.111 390.588 276.983C390.427 276.856 390.228 276.792 389.993 276.792C389.76 276.792 389.563 276.853 389.402 276.977C389.242 277.1 389.12 277.275 389.035 277.501C388.95 277.727 388.908 277.994 388.908 278.301ZM394.928 273.999V280.882H393.496V273.999H394.928ZM398.427 280.983C397.896 280.983 397.439 280.875 397.056 280.66C396.675 280.443 396.381 280.136 396.175 279.739C395.969 279.34 395.866 278.869 395.866 278.324C395.866 277.793 395.969 277.327 396.175 276.926C396.381 276.525 396.672 276.213 397.046 275.989C397.422 275.765 397.863 275.653 398.37 275.653C398.71 275.653 399.027 275.707 399.321 275.817C399.617 275.925 399.874 276.087 400.094 276.305C400.316 276.522 400.488 276.795 400.611 277.125C400.735 277.452 400.796 277.835 400.796 278.274V278.667H396.437V277.78H399.449C399.449 277.574 399.404 277.391 399.314 277.232C399.225 277.073 399.1 276.949 398.941 276.859C398.784 276.767 398.602 276.721 398.393 276.721C398.176 276.721 397.983 276.772 397.815 276.873C397.65 276.971 397.52 277.104 397.425 277.272C397.331 277.438 397.283 277.623 397.281 277.827V278.671C397.281 278.926 397.328 279.147 397.422 279.333C397.518 279.519 397.654 279.662 397.829 279.763C398.004 279.864 398.211 279.914 398.451 279.914C398.61 279.914 398.755 279.892 398.887 279.847C399.02 279.802 399.133 279.735 399.227 279.645C399.321 279.556 399.393 279.446 399.442 279.316L400.766 279.403C400.699 279.721 400.561 279.999 400.353 280.237C400.147 280.472 399.88 280.656 399.553 280.788C399.228 280.918 398.853 280.983 398.427 280.983Z" fill="#65AC02"/>
<defs>
<clipPath id="clip0_5_277">
<rect width="9.1728" height="9.1728" fill="white" transform="translate(60.989 272.796)"/>
</clipPath>
<clipPath id="clip1_5_277">
<rect width="9.1728" height="9.1728" fill="white" transform="translate(192.611 272.796)"/>
</clipPath>
<clipPath id="clip2_5_277">
<rect width="9.1728" height="9.1728" fill="white" transform="translate(324.234 272.796)"/>
</clipPath>
</defs>
</svg>
