<svg width="500" height="400" viewBox="0 0 500 400" fill="none" xmlns="http://www.w3.org/2000/svg">
<rect width="500" height="400" rx="20" fill="white"/>
<rect x="43.5" y="18.5" width="412" height="374" rx="7.5" fill="white"/>
<rect x="43.5" y="18.5" width="412" height="374" rx="7.5" stroke="white"/>
<path d="M133.017 60V42.5455H140.006C141.29 42.5455 142.361 42.7358 143.219 43.1165C144.077 43.4972 144.722 44.0256 145.153 44.7017C145.585 45.3722 145.801 46.1449 145.801 47.0199C145.801 47.7017 145.665 48.3011 145.392 48.8182C145.119 49.3295 144.744 49.75 144.267 50.0795C143.795 50.4034 143.256 50.6335 142.648 50.7699V50.9403C143.313 50.9687 143.935 51.1562 144.514 51.5028C145.099 51.8494 145.574 52.3352 145.938 52.9602C146.301 53.5795 146.483 54.3182 146.483 55.1761C146.483 56.1023 146.253 56.929 145.793 57.6562C145.338 58.3778 144.665 58.9489 143.773 59.3693C142.881 59.7898 141.781 60 140.474 60H133.017ZM136.707 56.983H139.716C140.744 56.983 141.494 56.7869 141.966 56.3949C142.438 55.9972 142.673 55.4687 142.673 54.8097C142.673 54.3267 142.557 53.9006 142.324 53.5312C142.091 53.1619 141.759 52.8722 141.327 52.6619C140.901 52.4517 140.392 52.3466 139.801 52.3466H136.707V56.983ZM136.707 49.8494H139.443C139.949 49.8494 140.398 49.7614 140.79 49.5852C141.188 49.4034 141.5 49.1477 141.727 48.8182C141.96 48.4886 142.077 48.0938 142.077 47.6335C142.077 47.0028 141.852 46.4943 141.403 46.108C140.96 45.7216 140.33 45.5284 139.511 45.5284H136.707V49.8494ZM152.447 42.5455V60H148.816V42.5455H152.447ZM161.27 60.2557C159.946 60.2557 158.801 59.9744 157.835 59.4119C156.875 58.8437 156.134 58.054 155.611 57.0426C155.088 56.0256 154.827 54.8466 154.827 53.5057C154.827 52.1534 155.088 50.9716 155.611 49.9602C156.134 48.9432 156.875 48.1534 157.835 47.5909C158.801 47.0227 159.946 46.7386 161.27 46.7386C162.594 46.7386 163.736 47.0227 164.696 47.5909C165.662 48.1534 166.406 48.9432 166.929 49.9602C167.452 50.9716 167.713 52.1534 167.713 53.5057C167.713 54.8466 167.452 56.0256 166.929 57.0426C166.406 58.054 165.662 58.8437 164.696 59.4119C163.736 59.9744 162.594 60.2557 161.27 60.2557ZM161.287 57.4432C161.889 57.4432 162.392 57.2727 162.795 56.9318C163.199 56.5852 163.503 56.1136 163.707 55.517C163.918 54.9205 164.023 54.2415 164.023 53.4801C164.023 52.7188 163.918 52.0398 163.707 51.4432C163.503 50.8466 163.199 50.375 162.795 50.0284C162.392 49.6818 161.889 49.5085 161.287 49.5085C160.679 49.5085 160.168 49.6818 159.753 50.0284C159.344 50.375 159.034 50.8466 158.824 51.4432C158.619 52.0398 158.517 52.7188 158.517 53.4801C158.517 54.2415 158.619 54.9205 158.824 55.517C159.034 56.1136 159.344 56.5852 159.753 56.9318C160.168 57.2727 160.679 57.4432 161.287 57.4432ZM175.989 60.2557C174.648 60.2557 173.494 59.9716 172.528 59.4034C171.568 58.8295 170.83 58.0341 170.312 57.017C169.801 56 169.545 54.8295 169.545 53.5057C169.545 52.1648 169.804 50.9886 170.321 49.9773C170.844 48.9602 171.585 48.1676 172.545 47.5994C173.506 47.0256 174.648 46.7386 175.972 46.7386C177.114 46.7386 178.114 46.946 178.972 47.3608C179.83 47.7756 180.509 48.358 181.009 49.108C181.509 49.858 181.784 50.7386 181.835 51.75H178.409C178.313 51.0966 178.057 50.571 177.642 50.1733C177.233 49.7699 176.696 49.5682 176.031 49.5682C175.469 49.5682 174.977 49.7216 174.557 50.0284C174.142 50.3295 173.818 50.7699 173.585 51.3494C173.352 51.929 173.236 52.6307 173.236 53.4545C173.236 54.2898 173.349 55 173.577 55.5852C173.81 56.1705 174.136 56.6165 174.557 56.9233C174.977 57.2301 175.469 57.3835 176.031 57.3835C176.446 57.3835 176.818 57.2983 177.148 57.1278C177.483 56.9574 177.759 56.7102 177.974 56.3864C178.196 56.0568 178.341 55.6619 178.409 55.2017H181.835C181.778 56.2017 181.506 57.0824 181.017 57.8438C180.534 58.5994 179.866 59.1903 179.014 59.6165C178.162 60.0426 177.153 60.2557 175.989 60.2557ZM187.45 56.233L187.458 51.8778H187.987L192.18 46.9091H196.347L190.714 53.4886H189.853L187.45 56.233ZM184.16 60V42.5455H187.79V60H184.16ZM192.342 60L188.489 54.2983L190.91 51.733L196.594 60H192.342ZM219.152 48.6562H215.419C215.351 48.1733 215.212 47.7443 215.001 47.3693C214.791 46.9886 214.521 46.6648 214.192 46.3977C213.862 46.1307 213.482 45.9261 213.05 45.7841C212.624 45.642 212.161 45.571 211.661 45.571C210.757 45.571 209.97 45.7955 209.3 46.2443C208.629 46.6875 208.109 47.3352 207.74 48.1875C207.371 49.0341 207.186 50.0625 207.186 51.2727C207.186 52.517 207.371 53.5625 207.74 54.4091C208.115 55.2557 208.638 55.8949 209.308 56.3267C209.979 56.7585 210.754 56.9744 211.635 56.9744C212.129 56.9744 212.587 56.9091 213.007 56.7784C213.433 56.6477 213.811 56.4574 214.141 56.2074C214.47 55.9517 214.743 55.642 214.959 55.2784C215.18 54.9148 215.334 54.5 215.419 54.0341L219.152 54.0511C219.055 54.8523 218.814 55.625 218.428 56.3693C218.047 57.108 217.533 57.7699 216.885 58.3551C216.243 58.9347 215.476 59.3949 214.584 59.7358C213.697 60.071 212.695 60.2386 211.575 60.2386C210.018 60.2386 208.626 59.8864 207.399 59.1818C206.178 58.4773 205.212 57.4574 204.501 56.1222C203.797 54.7869 203.445 53.1705 203.445 51.2727C203.445 49.3693 203.803 47.75 204.518 46.4148C205.234 45.0795 206.206 44.0625 207.433 43.3636C208.661 42.6591 210.041 42.3068 211.575 42.3068C212.587 42.3068 213.524 42.4489 214.388 42.733C215.257 43.017 216.027 43.4318 216.697 43.9773C217.368 44.517 217.913 45.179 218.334 45.9631C218.76 46.7472 219.033 47.6449 219.152 48.6562ZM237.838 51.2727C237.838 53.1761 237.477 54.7955 236.756 56.1307C236.04 57.4659 235.063 58.4858 233.824 59.1903C232.591 59.8892 231.205 60.2386 229.665 60.2386C228.114 60.2386 226.722 59.8864 225.489 59.1818C224.256 58.4773 223.281 57.4574 222.565 56.1222C221.849 54.7869 221.491 53.1705 221.491 51.2727C221.491 49.3693 221.849 47.75 222.565 46.4148C223.281 45.0795 224.256 44.0625 225.489 43.3636C226.722 42.6591 228.114 42.3068 229.665 42.3068C231.205 42.3068 232.591 42.6591 233.824 43.3636C235.063 44.0625 236.04 45.0795 236.756 46.4148C237.477 47.75 237.838 49.3693 237.838 51.2727ZM234.097 51.2727C234.097 50.0398 233.912 49 233.543 48.1534C233.179 47.3068 232.665 46.6648 232 46.2273C231.335 45.7898 230.557 45.571 229.665 45.571C228.773 45.571 227.994 45.7898 227.33 46.2273C226.665 46.6648 226.148 47.3068 225.778 48.1534C225.415 49 225.233 50.0398 225.233 51.2727C225.233 52.5057 225.415 53.5455 225.778 54.392C226.148 55.2386 226.665 55.8807 227.33 56.3182C227.994 56.7557 228.773 56.9744 229.665 56.9744C230.557 56.9744 231.335 56.7557 232 56.3182C232.665 55.8807 233.179 55.2386 233.543 54.392C233.912 53.5455 234.097 52.5057 234.097 51.2727ZM246.759 60H240.572V42.5455H246.81C248.566 42.5455 250.077 42.8949 251.344 43.5938C252.612 44.2869 253.586 45.2841 254.268 46.5852C254.955 47.8864 255.299 49.4432 255.299 51.2557C255.299 53.0739 254.955 54.6364 254.268 55.9432C253.586 57.25 252.606 58.2528 251.327 58.9517C250.055 59.6506 248.532 60 246.759 60ZM244.262 56.8381H246.606C247.697 56.8381 248.614 56.6449 249.359 56.2585C250.109 55.8665 250.671 55.2614 251.046 54.4432C251.427 53.6193 251.617 52.5568 251.617 51.2557C251.617 49.9659 251.427 48.9119 251.046 48.0938C250.671 47.2756 250.112 46.6733 249.367 46.2869C248.623 45.9006 247.705 45.7074 246.614 45.7074H244.262V56.8381ZM263.587 60V42.5455H270.474C271.798 42.5455 272.925 42.7983 273.857 43.304C274.789 43.804 275.499 44.5 275.988 45.392C276.482 46.2784 276.729 47.3011 276.729 48.4602C276.729 49.6193 276.479 50.642 275.979 51.5284C275.479 52.4148 274.755 53.1051 273.806 53.5994C272.863 54.0937 271.721 54.3409 270.38 54.3409H265.991V51.3835H269.783C270.494 51.3835 271.079 51.2614 271.539 51.017C272.005 50.767 272.352 50.4233 272.579 49.9858C272.812 49.5426 272.928 49.0341 272.928 48.4602C272.928 47.8807 272.812 47.375 272.579 46.9432C272.352 46.5057 272.005 46.1676 271.539 45.929C271.073 45.6847 270.482 45.5625 269.766 45.5625H267.278V60H263.587ZM279.058 60V46.9091H282.689V60H279.058ZM280.882 45.2216C280.342 45.2216 279.879 45.0426 279.493 44.6847C279.112 44.321 278.922 43.8864 278.922 43.3807C278.922 42.8807 279.112 42.4517 279.493 42.0938C279.879 41.7301 280.342 41.5483 280.882 41.5483C281.422 41.5483 281.882 41.7301 282.263 42.0938C282.649 42.4517 282.842 42.8807 282.842 43.3807C282.842 43.8864 282.649 44.321 282.263 44.6847C281.882 45.0426 281.422 45.2216 280.882 45.2216ZM289.228 52.4318V60H285.597V46.9091H289.058V49.2188H289.211C289.501 48.4574 289.987 47.8551 290.668 47.4119C291.35 46.9631 292.177 46.7386 293.148 46.7386C294.058 46.7386 294.85 46.9375 295.526 47.3352C296.202 47.733 296.728 48.3011 297.103 49.0398C297.478 49.7727 297.665 50.6477 297.665 51.6648V60H294.035V52.3125C294.04 51.5114 293.836 50.8864 293.421 50.4375C293.006 49.983 292.435 49.7557 291.708 49.7557C291.219 49.7557 290.788 49.8608 290.413 50.071C290.043 50.2812 289.754 50.5881 289.543 50.9915C289.339 51.3892 289.234 51.8693 289.228 52.4318ZM321.55 48.6562H317.817C317.749 48.1733 317.61 47.7443 317.4 47.3693C317.19 46.9886 316.92 46.6648 316.59 46.3977C316.261 46.1307 315.88 45.9261 315.448 45.7841C315.022 45.642 314.559 45.571 314.059 45.571C313.156 45.571 312.369 45.7955 311.698 46.2443C311.028 46.6875 310.508 47.3352 310.138 48.1875C309.769 49.0341 309.585 50.0625 309.585 51.2727C309.585 52.517 309.769 53.5625 310.138 54.4091C310.513 55.2557 311.036 55.8949 311.707 56.3267C312.377 56.7585 313.153 56.9744 314.033 56.9744C314.528 56.9744 314.985 56.9091 315.406 56.7784C315.832 56.6477 316.21 56.4574 316.539 56.2074C316.869 55.9517 317.141 55.642 317.357 55.2784C317.579 54.9148 317.732 54.5 317.817 54.0341L321.55 54.0511C321.454 54.8523 321.212 55.625 320.826 56.3693C320.445 57.108 319.931 57.7699 319.283 58.3551C318.641 58.9347 317.874 59.3949 316.982 59.7358C316.096 60.071 315.093 60.2386 313.974 60.2386C312.417 60.2386 311.025 59.8864 309.798 59.1818C308.576 58.4773 307.61 57.4574 306.9 56.1222C306.195 54.7869 305.843 53.1705 305.843 51.2727C305.843 49.3693 306.201 47.75 306.917 46.4148C307.633 45.0795 308.604 44.0625 309.832 43.3636C311.059 42.6591 312.44 42.3068 313.974 42.3068C314.985 42.3068 315.923 42.4489 316.786 42.733C317.656 43.017 318.425 43.4318 319.096 43.9773C319.766 44.517 320.312 45.179 320.732 45.9631C321.158 46.7472 321.431 47.6449 321.55 48.6562ZM330.043 60.2557C328.719 60.2557 327.575 59.9744 326.609 59.4119C325.648 58.8437 324.907 58.054 324.384 57.0426C323.862 56.0256 323.6 54.8466 323.6 53.5057C323.6 52.1534 323.862 50.9716 324.384 49.9602C324.907 48.9432 325.648 48.1534 326.609 47.5909C327.575 47.0227 328.719 46.7386 330.043 46.7386C331.367 46.7386 332.509 47.0227 333.469 47.5909C334.435 48.1534 335.18 48.9432 335.702 49.9602C336.225 50.9716 336.487 52.1534 336.487 53.5057C336.487 54.8466 336.225 56.0256 335.702 57.0426C335.18 58.054 334.435 58.8437 333.469 59.4119C332.509 59.9744 331.367 60.2557 330.043 60.2557ZM330.06 57.4432C330.663 57.4432 331.165 57.2727 331.569 56.9318C331.972 56.5852 332.276 56.1136 332.481 55.517C332.691 54.9205 332.796 54.2415 332.796 53.4801C332.796 52.7188 332.691 52.0398 332.481 51.4432C332.276 50.8466 331.972 50.375 331.569 50.0284C331.165 49.6818 330.663 49.5085 330.06 49.5085C329.452 49.5085 328.941 49.6818 328.526 50.0284C328.117 50.375 327.808 50.8466 327.597 51.4432C327.393 52.0398 327.29 52.7188 327.29 53.4801C327.29 54.2415 327.393 54.9205 327.597 55.517C327.808 56.1136 328.117 56.5852 328.526 56.9318C328.941 57.2727 329.452 57.4432 330.06 57.4432ZM343.671 60.2131C342.677 60.2131 341.776 59.9574 340.969 59.446C340.168 58.929 339.532 58.1705 339.06 57.1705C338.594 56.1648 338.362 54.9318 338.362 53.4716C338.362 51.9716 338.603 50.7244 339.086 49.7301C339.569 48.7301 340.211 47.983 341.012 47.4886C341.819 46.9886 342.702 46.7386 343.663 46.7386C344.396 46.7386 345.006 46.8636 345.495 47.1136C345.989 47.358 346.387 47.6648 346.688 48.0341C346.995 48.3977 347.228 48.7557 347.387 49.108H347.498V42.5455H351.12V60H347.54V57.9034H347.387C347.217 58.267 346.975 58.6278 346.663 58.9858C346.356 59.3381 345.955 59.6307 345.461 59.8636C344.972 60.0966 344.376 60.2131 343.671 60.2131ZM344.822 57.3239C345.407 57.3239 345.901 57.1648 346.305 56.8466C346.714 56.5227 347.026 56.071 347.242 55.4915C347.464 54.9119 347.575 54.233 347.575 53.4545C347.575 52.6761 347.467 52 347.251 51.4261C347.035 50.8523 346.722 50.4091 346.313 50.0966C345.904 49.7841 345.407 49.6278 344.822 49.6278C344.225 49.6278 343.722 49.7898 343.313 50.1136C342.904 50.4375 342.594 50.8864 342.384 51.4602C342.174 52.0341 342.069 52.6989 342.069 53.4545C342.069 54.2159 342.174 54.8892 342.384 55.4744C342.6 56.054 342.91 56.5085 343.313 56.8381C343.722 57.1619 344.225 57.3239 344.822 57.3239ZM360.071 60.2557C358.724 60.2557 357.565 59.983 356.594 59.4375C355.628 58.8864 354.884 58.108 354.361 57.1023C353.838 56.0909 353.577 54.8949 353.577 53.5142C353.577 52.1676 353.838 50.9858 354.361 49.9688C354.884 48.9517 355.619 48.1591 356.568 47.5909C357.523 47.0227 358.642 46.7386 359.926 46.7386C360.79 46.7386 361.594 46.8778 362.338 47.1562C363.088 47.429 363.741 47.8409 364.298 48.392C364.861 48.9432 365.298 49.6364 365.611 50.4716C365.923 51.3011 366.08 52.2727 366.08 53.3864V54.3835H355.026V52.1335H362.662C362.662 51.6108 362.548 51.1477 362.321 50.7443C362.094 50.3409 361.778 50.0256 361.375 49.7983C360.977 49.5653 360.514 49.4489 359.986 49.4489C359.435 49.4489 358.946 49.5767 358.52 49.8324C358.099 50.0824 357.77 50.4205 357.531 50.8466C357.293 51.267 357.17 51.7358 357.165 52.2528V54.392C357.165 55.0398 357.284 55.5994 357.523 56.071C357.767 56.5426 358.111 56.9062 358.554 57.1619C358.997 57.4176 359.523 57.5455 360.131 57.5455C360.534 57.5455 360.903 57.4886 361.239 57.375C361.574 57.2614 361.861 57.0909 362.099 56.8636C362.338 56.6364 362.52 56.358 362.645 56.0284L366.003 56.25C365.832 57.0568 365.483 57.7614 364.955 58.3636C364.432 58.9602 363.756 59.4261 362.926 59.7614C362.102 60.0909 361.151 60.2557 360.071 60.2557Z" fill="#FF3933"/>
<rect x="55.5" y="77.5" width="388" height="39" rx="8.5" stroke="#696969"/>
<rect x="62" y="84.4" width="55.2" height="25.2" rx="12.6" fill="#FF3933" fill-opacity="0.2"/>
<path d="M71.7205 100.084C71.448 100.08 71.1795 100.03 70.9151 99.9344C70.6526 99.8389 70.4139 99.6798 70.1991 99.4571C69.9844 99.2344 69.8124 98.9351 69.6831 98.5592C69.5558 98.1834 69.4922 97.7141 69.4922 97.1513C69.4922 96.6183 69.5449 96.145 69.6503 95.7314C69.7577 95.3178 69.9118 94.9688 70.1126 94.6844C70.3135 94.398 70.5561 94.1803 70.8405 94.0311C71.1249 93.882 71.444 93.8074 71.798 93.8074C72.1619 93.8074 72.4851 93.879 72.7675 94.0222C73.0499 94.1653 73.2786 94.3632 73.4536 94.6158C73.6305 94.8683 73.7429 95.1557 73.7906 95.4778H72.8808C72.8192 95.2233 72.6969 95.0155 72.5139 94.8544C72.331 94.6933 72.0923 94.6128 71.798 94.6128C71.3506 94.6128 71.0016 94.8077 70.751 95.1974C70.5024 95.5872 70.3771 96.1291 70.3751 96.8232H70.4199C70.5253 96.6501 70.6545 96.503 70.8077 96.3817C70.9628 96.2584 71.1358 96.1639 71.3267 96.0983C71.5196 96.0307 71.7224 95.9969 71.9352 95.9969C72.2892 95.9969 72.6094 96.0834 72.8957 96.2564C73.1841 96.4274 73.4138 96.6641 73.5848 96.9663C73.7558 97.2686 73.8413 97.6146 73.8413 98.0044C73.8413 98.3942 73.7528 98.7472 73.5759 99.0634C73.4009 99.3795 73.1543 99.6301 72.8361 99.8151C72.5179 99.998 72.146 100.087 71.7205 100.084ZM71.7175 99.308C71.9521 99.308 72.1619 99.2503 72.3469 99.1349C72.5318 99.0196 72.678 98.8645 72.7854 98.6696C72.8928 98.4747 72.9464 98.257 72.9464 98.0163C72.9464 97.7817 72.8937 97.5679 72.7884 97.375C72.6849 97.1821 72.5418 97.029 72.3588 96.9156C72.1778 96.8023 71.971 96.7456 71.7384 96.7456C71.5614 96.7456 71.3973 96.7794 71.2462 96.847C71.097 96.9146 70.9658 97.0081 70.8524 97.1274C70.7391 97.2467 70.6496 97.3839 70.5839 97.5391C70.5203 97.6922 70.4885 97.8543 70.4885 98.0253C70.4885 98.254 70.5412 98.4658 70.6466 98.6607C70.754 98.8555 70.9001 99.0126 71.0851 99.132C71.272 99.2493 71.4828 99.308 71.7175 99.308ZM77.0547 100.101C76.5834 100.099 76.1807 99.9751 75.8466 99.7286C75.5125 99.482 75.257 99.123 75.08 98.6517C74.903 98.1804 74.8145 97.6126 74.8145 96.9484C74.8145 96.2862 74.903 95.7205 75.08 95.2511C75.259 94.7818 75.5155 94.4239 75.8496 94.1773C76.1857 93.9307 76.5874 93.8074 77.0547 93.8074C77.5221 93.8074 77.9228 93.9317 78.2569 94.1803C78.5909 94.4268 78.8465 94.7848 79.0235 95.2541C79.2024 95.7214 79.2919 96.2862 79.2919 96.9484C79.2919 97.6146 79.2034 98.1834 79.0265 98.6547C78.8495 99.124 78.5939 99.483 78.2598 99.7315C77.9257 99.9781 77.524 100.101 77.0547 100.101ZM77.0547 99.305C77.4684 99.305 77.7915 99.1031 78.0242 98.6994C78.2588 98.2957 78.3762 97.7121 78.3762 96.9484C78.3762 96.4413 78.3225 96.0128 78.2151 95.6628C78.1097 95.3108 77.9576 95.0443 77.7587 94.8634C77.5618 94.6804 77.3272 94.5889 77.0547 94.5889C76.6431 94.5889 76.3199 94.7918 76.0853 95.1974C75.8506 95.6031 75.7323 96.1868 75.7303 96.9484C75.7303 97.4575 75.783 97.8881 75.8884 98.2401C75.9958 98.5901 76.1479 98.8555 76.3448 99.0365C76.5417 99.2155 76.7783 99.305 77.0547 99.305ZM82.477 100.084C82.0673 100.084 81.7014 100.013 81.3793 99.8717C81.0591 99.7305 80.8055 99.5347 80.6186 99.2841C80.4337 99.0315 80.3342 98.7392 80.3203 98.4071H81.257C81.2689 98.5881 81.3295 98.7452 81.4389 98.8784C81.5503 99.0097 81.6955 99.1111 81.8744 99.1827C82.0534 99.2543 82.2523 99.2901 82.471 99.2901C82.7116 99.2901 82.9244 99.2483 83.1094 99.1648C83.2963 99.0813 83.4425 98.9649 83.5479 98.8158C83.6533 98.6646 83.706 98.4906 83.706 98.2938C83.706 98.0889 83.6533 97.9089 83.5479 97.7538C83.4445 97.5967 83.2923 97.4734 83.0915 97.3839C82.8926 97.2945 82.652 97.2497 82.3696 97.2497H81.8536V96.498H82.3696C82.5963 96.498 82.7952 96.4572 82.9662 96.3757C83.1392 96.2942 83.2744 96.1808 83.3719 96.0357C83.4693 95.8885 83.518 95.7165 83.518 95.5196C83.518 95.3307 83.4753 95.1666 83.3898 95.0274C83.3062 94.8862 83.1869 94.7759 83.0318 94.6963C82.8787 94.6168 82.6977 94.577 82.4889 94.577C82.2901 94.577 82.1041 94.6138 81.9311 94.6874C81.7601 94.7589 81.6209 94.8624 81.5135 94.9976C81.4061 95.1308 81.3484 95.2909 81.3405 95.4778H80.4486C80.4585 95.1477 80.556 94.8574 80.7409 94.6068C80.9278 94.3562 81.1744 94.1604 81.4807 94.0192C81.7869 93.878 82.127 93.8074 82.5009 93.8074C82.8926 93.8074 83.2307 93.8839 83.5151 94.0371C83.8014 94.1882 84.0222 94.3901 84.1773 94.6426C84.3344 94.8952 84.4119 95.1716 84.4099 95.4719C84.4119 95.8139 84.3165 96.1043 84.1236 96.3429C83.9327 96.5815 83.6781 96.7416 83.3599 96.8232V96.8709C83.7656 96.9325 84.0798 97.0936 84.3026 97.3541C84.5273 97.6146 84.6386 97.9378 84.6366 98.3236C84.6386 98.6597 84.5452 98.9609 84.3562 99.2274C84.1693 99.4939 83.9138 99.7037 83.5896 99.8568C83.2655 100.008 82.8946 100.084 82.477 100.084ZM88.082 93.8909V100H87.1572V94.8156H87.1214L85.6598 95.7702V94.8872L87.1841 93.8909H88.082ZM91.8614 100.084C91.4517 100.084 91.0858 100.013 90.7636 99.8717C90.4435 99.7305 90.1899 99.5347 90.003 99.2841C89.818 99.0315 89.7186 98.7392 89.7047 98.4071H90.6413C90.6533 98.5881 90.7139 98.7452 90.8233 98.8784C90.9347 99.0097 91.0798 99.1111 91.2588 99.1827C91.4378 99.2543 91.6366 99.2901 91.8554 99.2901C92.096 99.2901 92.3088 99.2483 92.4937 99.1648C92.6807 99.0813 92.8268 98.9649 92.9322 98.8158C93.0376 98.6646 93.0903 98.4906 93.0903 98.2938C93.0903 98.0889 93.0376 97.9089 92.9322 97.7538C92.8288 97.5967 92.6767 97.4734 92.4759 97.3839C92.277 97.2945 92.0364 97.2497 91.754 97.2497H91.2379V96.498H91.754C91.9807 96.498 92.1795 96.4572 92.3506 96.3757C92.5236 96.2942 92.6588 96.1808 92.7562 96.0357C92.8537 95.8885 92.9024 95.7165 92.9024 95.5196C92.9024 95.3307 92.8597 95.1666 92.7741 95.0274C92.6906 94.8862 92.5713 94.7759 92.4162 94.6963C92.2631 94.6168 92.0821 94.577 91.8733 94.577C91.6744 94.577 91.4885 94.6138 91.3155 94.6874C91.1445 94.7589 91.0053 94.8624 90.8979 94.9976C90.7905 95.1308 90.7328 95.2909 90.7249 95.4778H89.833C89.8429 95.1477 89.9403 94.8574 90.1253 94.6068C90.3122 94.3562 90.5588 94.1604 90.8651 94.0192C91.1713 93.878 91.5114 93.8074 91.8852 93.8074C92.277 93.8074 92.6151 93.8839 92.8994 94.0371C93.1858 94.1882 93.4065 94.3901 93.5616 94.6426C93.7187 94.8952 93.7963 95.1716 93.7943 95.4719C93.7963 95.8139 93.7009 96.1043 93.508 96.3429C93.317 96.5815 93.0625 96.7416 92.7443 96.8232V96.8709C93.15 96.9325 93.4642 97.0936 93.6869 97.3541C93.9116 97.6146 94.023 97.9378 94.021 98.3236C94.023 98.6597 93.9295 98.9609 93.7406 99.2274C93.5537 99.4939 93.2982 99.7037 92.974 99.8568C92.6499 100.008 92.279 100.084 91.8614 100.084Z" fill="#FF3933"/>
<path d="M106.875 94.725L102.325 99.275M102.325 94.725L106.875 99.275" stroke="#FF3933" stroke-width="1.05" stroke-linecap="round" stroke-linejoin="round"/>
<rect x="121.2" y="84.4" width="56.2" height="25.2" rx="12.6" fill="#FF3933" fill-opacity="0.2"/>
<path d="M130.852 100.084C130.424 100.084 130.046 100.01 129.718 99.8628C129.392 99.7156 129.137 99.5128 128.952 99.2543C128.767 98.9957 128.675 98.7014 128.677 98.3713C128.675 98.1128 128.728 97.8751 128.835 97.6584C128.945 97.4396 129.093 97.2577 129.28 97.1125C129.467 96.9653 129.676 96.8719 129.906 96.8321V96.7963C129.602 96.7227 129.358 96.5597 129.175 96.3071C128.992 96.0545 128.902 95.7642 128.904 95.4361C128.902 95.1239 128.984 94.8455 129.152 94.6009C129.321 94.3543 129.552 94.1604 129.847 94.0192C130.141 93.878 130.476 93.8074 130.852 93.8074C131.224 93.8074 131.556 93.879 131.848 94.0222C132.142 94.1634 132.374 94.3572 132.543 94.6038C132.712 94.8484 132.798 95.1259 132.8 95.4361C132.798 95.7642 132.704 96.0545 132.519 96.3071C132.334 96.5597 132.094 96.7227 131.797 96.7963V96.8321C132.026 96.8719 132.232 96.9653 132.415 97.1125C132.6 97.2577 132.747 97.4396 132.856 97.6584C132.968 97.8751 133.024 98.1128 133.026 98.3713C133.024 98.7014 132.931 98.9957 132.746 99.2543C132.561 99.5128 132.304 99.7156 131.976 99.8628C131.65 100.01 131.275 100.084 130.852 100.084ZM130.852 99.3288C131.104 99.3288 131.323 99.2871 131.508 99.2036C131.693 99.118 131.836 98.9997 131.938 98.8486C132.039 98.6955 132.091 98.5165 132.093 98.3116C132.091 98.0989 132.035 97.9109 131.926 97.7479C131.818 97.5848 131.672 97.4565 131.487 97.3631C131.302 97.2696 131.09 97.2229 130.852 97.2229C130.611 97.2229 130.397 97.2696 130.21 97.3631C130.024 97.4565 129.876 97.5848 129.769 97.7479C129.662 97.9109 129.609 98.0989 129.611 98.3116C129.609 98.5165 129.658 98.6955 129.757 98.8486C129.858 98.9997 130.003 99.118 130.19 99.2036C130.377 99.2871 130.597 99.3288 130.852 99.3288ZM130.852 96.4861C131.055 96.4861 131.235 96.4453 131.392 96.3638C131.549 96.2822 131.672 96.1689 131.762 96.0237C131.853 95.8786 131.9 95.7085 131.902 95.5136C131.9 95.3227 131.854 95.1557 131.765 95.0125C131.677 94.8693 131.555 94.7589 131.398 94.6814C131.241 94.6018 131.059 94.5621 130.852 94.5621C130.641 94.5621 130.456 94.6018 130.297 94.6814C130.14 94.7589 130.018 94.8693 129.93 95.0125C129.843 95.1557 129.8 95.3227 129.802 95.5136C129.8 95.7085 129.844 95.8786 129.933 96.0237C130.023 96.1689 130.146 96.2822 130.303 96.3638C130.462 96.4453 130.645 96.4861 130.852 96.4861ZM136.222 100.101C135.751 100.099 135.348 99.9751 135.014 99.7286C134.68 99.482 134.424 99.123 134.247 98.6517C134.07 98.1804 133.982 97.6126 133.982 96.9484C133.982 96.2862 134.07 95.7205 134.247 95.2511C134.426 94.7818 134.683 94.4239 135.017 94.1773C135.353 93.9307 135.755 93.8074 136.222 93.8074C136.689 93.8074 137.09 93.9317 137.424 94.1803C137.758 94.4268 138.014 94.7848 138.191 95.2541C138.37 95.7214 138.459 96.2862 138.459 96.9484C138.459 97.6146 138.371 98.1834 138.194 98.6547C138.017 99.124 137.761 99.483 137.427 99.7315C137.093 99.9781 136.691 100.101 136.222 100.101ZM136.222 99.305C136.635 99.305 136.959 99.1031 137.191 98.6994C137.426 98.2957 137.543 97.7121 137.543 96.9484C137.543 96.4413 137.49 96.0128 137.382 95.6628C137.277 95.3108 137.125 95.0443 136.926 94.8634C136.729 94.6804 136.494 94.5889 136.222 94.5889C135.81 94.5889 135.487 94.7918 135.252 95.1974C135.018 95.6031 134.899 96.1868 134.897 96.9484C134.897 97.4575 134.95 97.8881 135.056 98.2401C135.163 98.5901 135.315 98.8555 135.512 99.0365C135.709 99.2155 135.945 99.305 136.222 99.305ZM141.534 100.084C141.16 100.084 140.824 100.012 140.526 99.8688C140.229 99.7236 139.993 99.5247 139.816 99.2722C139.639 99.0196 139.544 98.7313 139.532 98.4071H140.427C140.449 98.6696 140.565 98.8854 140.776 99.0544C140.987 99.2234 141.239 99.308 141.534 99.308C141.768 99.308 141.976 99.2543 142.157 99.1469C142.34 99.0375 142.483 98.8874 142.587 98.6964C142.692 98.5055 142.745 98.2878 142.745 98.0432C142.745 97.7946 142.691 97.5729 142.584 97.378C142.476 97.1831 142.328 97.03 142.139 96.9186C141.952 96.8072 141.738 96.7506 141.495 96.7486C141.31 96.7486 141.124 96.7804 140.937 96.844C140.75 96.9077 140.599 96.9912 140.484 97.0946L139.64 96.9693L139.983 93.8909H143.341V94.6814H140.749L140.555 96.3906H140.591C140.71 96.2753 140.869 96.1788 141.065 96.1013C141.264 96.0237 141.477 95.9849 141.704 95.9849C142.076 95.9849 142.407 96.0734 142.697 96.2504C142.989 96.4274 143.219 96.669 143.386 96.9753C143.555 97.2795 143.639 97.6295 143.637 98.0253C143.639 98.421 143.549 98.774 143.368 99.0842C143.189 99.3945 142.941 99.6391 142.623 99.818C142.306 99.995 141.943 100.084 141.534 100.084ZM146.853 100.084C146.443 100.084 146.078 100.013 145.755 99.8717C145.435 99.7305 145.182 99.5347 144.995 99.2841C144.81 99.0315 144.71 98.7392 144.696 98.4071H145.633C145.645 98.5881 145.706 98.7452 145.815 98.8784C145.926 99.0097 146.072 99.1111 146.251 99.1827C146.43 99.2543 146.628 99.2901 146.847 99.2901C147.088 99.2901 147.301 99.2483 147.485 99.1648C147.672 99.0813 147.819 98.9649 147.924 98.8158C148.029 98.6646 148.082 98.4906 148.082 98.2938C148.082 98.0889 148.029 97.9089 147.924 97.7538C147.821 97.5967 147.668 97.4734 147.468 97.3839C147.269 97.2945 147.028 97.2497 146.746 97.2497H146.23V96.498H146.746C146.972 96.498 147.171 96.4572 147.342 96.3757C147.515 96.2942 147.651 96.1808 147.748 96.0357C147.845 95.8885 147.894 95.7165 147.894 95.5196C147.894 95.3307 147.851 95.1666 147.766 95.0274C147.682 94.8862 147.563 94.7759 147.408 94.6963C147.255 94.6168 147.074 94.577 146.865 94.577C146.666 94.577 146.48 94.6138 146.307 94.6874C146.136 94.7589 145.997 94.8624 145.89 94.9976C145.782 95.1308 145.725 95.2909 145.717 95.4778H144.825C144.835 95.1477 144.932 94.8574 145.117 94.6068C145.304 94.3562 145.551 94.1604 145.857 94.0192C146.163 93.878 146.503 93.8074 146.877 93.8074C147.269 93.8074 147.607 93.8839 147.891 94.0371C148.178 94.1882 148.398 94.3901 148.553 94.6426C148.71 94.8952 148.788 95.1716 148.786 95.4719C148.788 95.8139 148.693 96.1043 148.5 96.3429C148.309 96.5815 148.054 96.7416 147.736 96.8232V96.8709C148.142 96.9325 148.456 97.0936 148.679 97.3541C148.903 97.6146 149.015 97.9378 149.013 98.3236C149.015 98.6597 148.921 98.9609 148.732 99.2274C148.545 99.4939 148.29 99.7037 147.966 99.8568C147.642 100.008 147.271 100.084 146.853 100.084ZM152.172 93.8074C152.444 93.8094 152.713 93.8591 152.977 93.9565C153.242 94.054 153.48 94.2131 153.693 94.4338C153.908 94.6545 154.079 94.9528 154.206 95.3287C154.335 95.7026 154.401 96.1679 154.403 96.7247C154.403 97.2597 154.349 97.7359 154.242 98.1536C154.135 98.5692 153.98 98.9202 153.78 99.2065C153.581 99.4929 153.339 99.7107 153.055 99.8598C152.77 100.009 152.45 100.084 152.094 100.084C151.73 100.084 151.407 100.012 151.125 99.8688C150.842 99.7256 150.613 99.5277 150.436 99.2751C150.259 99.0206 150.148 98.7283 150.105 98.3982H151.014C151.074 98.6607 151.195 98.8734 151.378 99.0365C151.563 99.1976 151.802 99.2781 152.094 99.2781C152.542 99.2781 152.891 99.0832 153.141 98.6935C153.392 98.3017 153.518 97.7548 153.52 97.0528H153.472C153.369 97.2239 153.24 97.371 153.085 97.4943C152.931 97.6176 152.759 97.7131 152.568 97.7807C152.378 97.8483 152.174 97.8821 151.957 97.8821C151.605 97.8821 151.285 97.7956 150.996 97.6226C150.708 97.4496 150.478 97.2119 150.307 96.9097C150.136 96.6074 150.051 96.2624 150.051 95.8746C150.051 95.4888 150.138 95.1388 150.313 94.8246C150.49 94.5104 150.737 94.2618 151.053 94.0788C151.371 93.8939 151.744 93.8034 152.172 93.8074ZM152.175 94.583C151.942 94.583 151.732 94.6406 151.545 94.756C151.36 94.8693 151.214 95.0234 151.107 95.2183C150.999 95.4112 150.946 95.626 150.946 95.8626C150.946 96.0993 150.997 96.3141 151.101 96.507C151.206 96.6979 151.349 96.85 151.53 96.9634C151.713 97.0747 151.922 97.1304 152.157 97.1304C152.332 97.1304 152.495 97.0966 152.646 97.029C152.797 96.9614 152.929 96.8679 153.043 96.7486C153.156 96.6273 153.245 96.4901 153.308 96.3369C153.372 96.1838 153.404 96.0227 153.404 95.8537C153.404 95.629 153.35 95.4202 153.243 95.2273C153.137 95.0344 152.992 94.8793 152.807 94.7619C152.622 94.6426 152.411 94.583 152.175 94.583Z" fill="#FF3933"/>
<path d="M167.075 94.725L162.525 99.275M162.525 94.725L167.075 99.275" stroke="#FF3933" stroke-width="1.05" stroke-linecap="round" stroke-linejoin="round"/>
<rect x="181.4" y="84.4" width="65.2" height="25.2" rx="12.6" fill="#FF3933" fill-opacity="0.2"/>
<path d="M191.305 93.8909V100H190.381V94.8156H190.345L188.883 95.7702V94.8872L190.408 93.8909H191.305ZM195.085 100.101C194.614 100.099 194.211 99.9751 193.877 99.7286C193.543 99.482 193.287 99.123 193.11 98.6517C192.933 98.1804 192.845 97.6126 192.845 96.9484C192.845 96.2862 192.933 95.7205 193.11 95.2511C193.289 94.7818 193.546 94.4239 193.88 94.1773C194.216 93.9307 194.617 93.8074 195.085 93.8074C195.552 93.8074 195.953 93.9317 196.287 94.1803C196.621 94.4268 196.877 94.7848 197.054 95.2541C197.233 95.7214 197.322 96.2862 197.322 96.9484C197.322 97.6146 197.234 98.1834 197.057 98.6547C196.88 99.124 196.624 99.483 196.29 99.7315C195.956 99.9781 195.554 100.101 195.085 100.101ZM195.085 99.305C195.498 99.305 195.822 99.1031 196.054 98.6994C196.289 98.2957 196.406 97.7121 196.406 96.9484C196.406 96.4413 196.353 96.0128 196.245 95.6628C196.14 95.3108 195.988 95.0443 195.789 94.8634C195.592 94.6804 195.357 94.5889 195.085 94.5889C194.673 94.5889 194.35 94.7918 194.115 95.1974C193.881 95.6031 193.762 96.1868 193.76 96.9484C193.76 97.4575 193.813 97.8881 193.918 98.2401C194.026 98.5901 194.178 98.8555 194.375 99.0365C194.572 99.2155 194.808 99.305 195.085 99.305ZM200.507 100.101C200.036 100.099 199.633 99.9751 199.299 99.7286C198.965 99.482 198.709 99.123 198.532 98.6517C198.355 98.1804 198.267 97.6126 198.267 96.9484C198.267 96.2862 198.355 95.7205 198.532 95.2511C198.711 94.7818 198.968 94.4239 199.302 94.1773C199.638 93.9307 200.04 93.8074 200.507 93.8074C200.974 93.8074 201.375 93.9317 201.709 94.1803C202.043 94.4268 202.299 94.7848 202.476 95.2541C202.655 95.7214 202.744 96.2862 202.744 96.9484C202.744 97.6146 202.656 98.1834 202.479 98.6547C202.302 99.124 202.046 99.483 201.712 99.7315C201.378 99.9781 200.976 100.101 200.507 100.101ZM200.507 99.305C200.921 99.305 201.244 99.1031 201.477 98.6994C201.711 98.2957 201.829 97.7121 201.829 96.9484C201.829 96.4413 201.775 96.0128 201.667 95.6628C201.562 95.3108 201.41 95.0443 201.211 94.8634C201.014 94.6804 200.78 94.5889 200.507 94.5889C200.095 94.5889 199.772 94.7918 199.538 95.1974C199.303 95.6031 199.185 96.1868 199.183 96.9484C199.183 97.4575 199.235 97.8881 199.341 98.2401C199.448 98.5901 199.6 98.8555 199.797 99.0365C199.994 99.2155 200.231 99.305 200.507 99.305ZM205.929 100.101C205.458 100.099 205.055 99.9751 204.721 99.7286C204.387 99.482 204.132 99.123 203.955 98.6517C203.778 98.1804 203.689 97.6126 203.689 96.9484C203.689 96.2862 203.778 95.7205 203.955 95.2511C204.134 94.7818 204.39 94.4239 204.724 94.1773C205.06 93.9307 205.462 93.8074 205.929 93.8074C206.397 93.8074 206.797 93.9317 207.131 94.1803C207.466 94.4268 207.721 94.7848 207.898 95.2541C208.077 95.7214 208.167 96.2862 208.167 96.9484C208.167 97.6146 208.078 98.1834 207.901 98.6547C207.724 99.124 207.469 99.483 207.134 99.7315C206.8 99.9781 206.399 100.101 205.929 100.101ZM205.929 99.305C206.343 99.305 206.666 99.1031 206.899 98.6994C207.133 98.2957 207.251 97.7121 207.251 96.9484C207.251 96.4413 207.197 96.0128 207.09 95.6628C206.984 95.3108 206.832 95.0443 206.633 94.8634C206.436 94.6804 206.202 94.5889 205.929 94.5889C205.518 94.5889 205.195 94.7918 204.96 95.1974C204.725 95.6031 204.607 96.1868 204.605 96.9484C204.605 97.4575 204.658 97.8881 204.763 98.2401C204.87 98.5901 205.023 98.8555 205.219 99.0365C205.416 99.2155 205.653 99.305 205.929 99.305ZM211.352 100.101C210.88 100.099 210.478 99.9751 210.144 99.7286C209.809 99.482 209.554 99.123 209.377 98.6517C209.2 98.1804 209.111 97.6126 209.111 96.9484C209.111 96.2862 209.2 95.7205 209.377 95.2511C209.556 94.7818 209.812 94.4239 210.147 94.1773C210.483 93.9307 210.884 93.8074 211.352 93.8074C211.819 93.8074 212.22 93.9317 212.554 94.1803C212.888 94.4268 213.143 94.7848 213.32 95.2541C213.499 95.7214 213.589 96.2862 213.589 96.9484C213.589 97.6146 213.5 98.1834 213.323 98.6547C213.146 99.124 212.891 99.483 212.557 99.7315C212.223 99.9781 211.821 100.101 211.352 100.101ZM211.352 99.305C211.765 99.305 212.088 99.1031 212.321 98.6994C212.556 98.2957 212.673 97.7121 212.673 96.9484C212.673 96.4413 212.619 96.0128 212.512 95.6628C212.407 95.3108 212.254 95.0443 212.056 94.8634C211.859 94.6804 211.624 94.5889 211.352 94.5889C210.94 94.5889 210.617 94.7918 210.382 95.1974C210.148 95.6031 210.029 96.1868 210.027 96.9484C210.027 97.4575 210.08 97.8881 210.185 98.2401C210.293 98.5901 210.445 98.8555 210.642 99.0365C210.839 99.2155 211.075 99.305 211.352 99.305ZM216.774 100.101C216.303 100.099 215.9 99.9751 215.566 99.7286C215.232 99.482 214.976 99.123 214.799 98.6517C214.622 98.1804 214.534 97.6126 214.534 96.9484C214.534 96.2862 214.622 95.7205 214.799 95.2511C214.978 94.7818 215.235 94.4239 215.569 94.1773C215.905 93.9307 216.307 93.8074 216.774 93.8074C217.241 93.8074 217.642 93.9317 217.976 94.1803C218.31 94.4268 218.566 94.7848 218.743 95.2541C218.922 95.7214 219.011 96.2862 219.011 96.9484C219.011 97.6146 218.923 98.1834 218.746 98.6547C218.569 99.124 218.313 99.483 217.979 99.7315C217.645 99.9781 217.243 100.101 216.774 100.101ZM216.774 99.305C217.188 99.305 217.511 99.1031 217.743 98.6994C217.978 98.2957 218.095 97.7121 218.095 96.9484C218.095 96.4413 218.042 96.0128 217.934 95.6628C217.829 95.3108 217.677 95.0443 217.478 94.8634C217.281 94.6804 217.046 94.5889 216.774 94.5889C216.362 94.5889 216.039 94.7918 215.804 95.1974C215.57 95.6031 215.451 96.1868 215.449 96.9484C215.449 97.4575 215.502 97.8881 215.608 98.2401C215.715 98.5901 215.867 98.8555 216.064 99.0365C216.261 99.2155 216.497 99.305 216.774 99.305ZM222.387 93.8909V100H221.462V94.8156H221.427L219.965 95.7702V94.8872L221.489 93.8909H222.387Z" fill="#FF3933"/>
<path d="M236.275 94.725L231.725 99.275M231.725 94.725L236.275 99.275" stroke="#FF3933" stroke-width="1.05" stroke-linecap="round" stroke-linejoin="round"/>
<mask id="path-14-inside-1_36_289" fill="white">
<path d="M55 121H444V161H55V121Z"/>
</mask>
<path d="M444 160.5H55V161.5H444V160.5Z" fill="#E4E4E4" mask="url(#path-14-inside-1_36_289)"/>
<path d="M67.5341 134.864V146.5H65.7727V136.625H65.7045L62.9205 138.443V136.761L65.8239 134.864H67.5341ZM74.733 146.693C73.8352 146.689 73.0682 146.453 72.4318 145.983C71.7955 145.513 71.3087 144.83 70.9716 143.932C70.6345 143.034 70.4659 141.953 70.4659 140.688C70.4659 139.426 70.6345 138.348 70.9716 137.455C71.3125 136.561 71.8011 135.879 72.4375 135.409C73.0777 134.939 73.8428 134.705 74.733 134.705C75.6231 134.705 76.3864 134.941 77.0227 135.415C77.6591 135.884 78.1458 136.566 78.483 137.46C78.8239 138.35 78.9943 139.426 78.9943 140.688C78.9943 141.956 78.8258 143.04 78.4886 143.938C78.1515 144.831 77.6648 145.515 77.0284 145.989C76.392 146.458 75.6269 146.693 74.733 146.693ZM74.733 145.176C75.5208 145.176 76.1364 144.792 76.5795 144.023C77.0265 143.254 77.25 142.142 77.25 140.688C77.25 139.722 77.1477 138.905 76.9432 138.239C76.7424 137.568 76.4527 137.061 76.0739 136.716C75.6989 136.367 75.2519 136.193 74.733 136.193C73.9489 136.193 73.3333 136.58 72.8864 137.352C72.4394 138.125 72.214 139.237 72.2102 140.688C72.2102 141.657 72.3106 142.477 72.5114 143.148C72.7159 143.814 73.0057 144.32 73.3807 144.665C73.7557 145.006 74.2064 145.176 74.733 145.176ZM85.0611 146.693C84.1634 146.689 83.3963 146.453 82.7599 145.983C82.1236 145.513 81.6368 144.83 81.2997 143.932C80.9626 143.034 80.794 141.953 80.794 140.688C80.794 139.426 80.9626 138.348 81.2997 137.455C81.6406 136.561 82.1293 135.879 82.7656 135.409C83.4058 134.939 84.1709 134.705 85.0611 134.705C85.9512 134.705 86.7145 134.941 87.3509 135.415C87.9872 135.884 88.474 136.566 88.8111 137.46C89.152 138.35 89.3224 139.426 89.3224 140.688C89.3224 141.956 89.1539 143.04 88.8168 143.938C88.4796 144.831 87.9929 145.515 87.3565 145.989C86.7202 146.458 85.955 146.693 85.0611 146.693ZM85.0611 145.176C85.849 145.176 86.4645 144.792 86.9077 144.023C87.3546 143.254 87.5781 142.142 87.5781 140.688C87.5781 139.722 87.4759 138.905 87.2713 138.239C87.0705 137.568 86.7808 137.061 86.402 136.716C86.027 136.367 85.58 136.193 85.0611 136.193C84.277 136.193 83.6615 136.58 83.2145 137.352C82.7675 138.125 82.5421 139.237 82.5384 140.688C82.5384 141.657 82.6387 142.477 82.8395 143.148C83.044 143.814 83.3338 144.32 83.7088 144.665C84.0838 145.006 84.5346 145.176 85.0611 145.176ZM95.3892 146.693C94.4915 146.689 93.7244 146.453 93.0881 145.983C92.4517 145.513 91.965 144.83 91.6278 143.932C91.2907 143.034 91.1222 141.953 91.1222 140.688C91.1222 139.426 91.2907 138.348 91.6278 137.455C91.9688 136.561 92.4574 135.879 93.0938 135.409C93.7339 134.939 94.4991 134.705 95.3892 134.705C96.2794 134.705 97.0426 134.941 97.679 135.415C98.3153 135.884 98.8021 136.566 99.1392 137.46C99.4801 138.35 99.6506 139.426 99.6506 140.688C99.6506 141.956 99.482 143.04 99.1449 143.938C98.8078 144.831 98.321 145.515 97.6847 145.989C97.0483 146.458 96.2831 146.693 95.3892 146.693ZM95.3892 145.176C96.1771 145.176 96.7926 144.792 97.2358 144.023C97.6828 143.254 97.9062 142.142 97.9062 140.688C97.9062 139.722 97.804 138.905 97.5994 138.239C97.3987 137.568 97.1089 137.061 96.7301 136.716C96.3551 136.367 95.9081 136.193 95.3892 136.193C94.6051 136.193 93.9896 136.58 93.5426 137.352C93.0956 138.125 92.8703 139.237 92.8665 140.688C92.8665 141.657 92.9669 142.477 93.1676 143.148C93.3722 143.814 93.6619 144.32 94.0369 144.665C94.4119 145.006 94.8627 145.176 95.3892 145.176ZM105.717 146.693C104.82 146.689 104.053 146.453 103.416 145.983C102.78 145.513 102.293 144.83 101.956 143.932C101.619 143.034 101.45 141.953 101.45 140.688C101.45 139.426 101.619 138.348 101.956 137.455C102.297 136.561 102.786 135.879 103.422 135.409C104.062 134.939 104.827 134.705 105.717 134.705C106.607 134.705 107.371 134.941 108.007 135.415C108.643 135.884 109.13 136.566 109.467 137.46C109.808 138.35 109.979 139.426 109.979 140.688C109.979 141.956 109.81 143.04 109.473 143.938C109.136 144.831 108.649 145.515 108.013 145.989C107.376 146.458 106.611 146.693 105.717 146.693ZM105.717 145.176C106.505 145.176 107.121 144.792 107.564 144.023C108.011 143.254 108.234 142.142 108.234 140.688C108.234 139.722 108.132 138.905 107.928 138.239C107.727 137.568 107.437 137.061 107.058 136.716C106.683 136.367 106.236 136.193 105.717 136.193C104.933 136.193 104.318 136.58 103.871 137.352C103.424 138.125 103.198 139.237 103.195 140.688C103.195 141.657 103.295 142.477 103.496 143.148C103.7 143.814 103.99 144.32 104.365 144.665C104.74 145.006 105.191 145.176 105.717 145.176ZM116.045 146.693C115.148 146.689 114.381 146.453 113.744 145.983C113.108 145.513 112.621 144.83 112.284 143.932C111.947 143.034 111.778 141.953 111.778 140.688C111.778 139.426 111.947 138.348 112.284 137.455C112.625 136.561 113.114 135.879 113.75 135.409C114.39 134.939 115.155 134.705 116.045 134.705C116.936 134.705 117.699 134.941 118.335 135.415C118.972 135.884 119.458 136.566 119.795 137.46C120.136 138.35 120.307 139.426 120.307 140.688C120.307 141.956 120.138 143.04 119.801 143.938C119.464 144.831 118.977 145.515 118.341 145.989C117.705 146.458 116.939 146.693 116.045 146.693ZM116.045 145.176C116.833 145.176 117.449 144.792 117.892 144.023C118.339 143.254 118.562 142.142 118.562 140.688C118.562 139.722 118.46 138.905 118.256 138.239C118.055 137.568 117.765 137.061 117.386 136.716C117.011 136.367 116.564 136.193 116.045 136.193C115.261 136.193 114.646 136.58 114.199 137.352C113.752 138.125 113.527 139.237 113.523 140.688C113.523 141.657 113.623 142.477 113.824 143.148C114.028 143.814 114.318 144.32 114.693 144.665C115.068 145.006 115.519 145.176 116.045 145.176ZM126.737 134.864V146.5H124.976V136.625H124.908L122.124 138.443V136.761L125.027 134.864H126.737Z" fill="#414141"/>
<path d="M425.8 150.8C431.212 150.8 435.6 146.412 435.6 141C435.6 135.588 431.212 131.2 425.8 131.2C420.388 131.2 416 135.588 416 141C416 146.412 420.388 150.8 425.8 150.8Z" fill="#4CAF50"/>
<path d="M430.747 136.613L424.4 142.96L421.787 140.347L420.48 141.653L424.4 145.573L432.053 137.92L430.747 136.613Z" fill="#CCFF90"/>
<mask id="path-19-inside-2_36_289" fill="white">
<path d="M55 165H444V205H55V165Z"/>
</mask>
<path d="M444 204.5H55V205.5H444V204.5Z" fill="#E4E4E4" mask="url(#path-19-inside-2_36_289)"/>
<path d="M67.0511 190.659C66.2367 190.659 65.517 190.519 64.892 190.239C64.2708 189.958 63.7841 189.572 63.4318 189.08C63.0795 188.587 62.9053 188.027 62.9091 187.398C62.9053 186.905 63.0057 186.453 63.2102 186.04C63.4186 185.623 63.7008 185.277 64.0568 185C64.4129 184.72 64.8106 184.542 65.25 184.466V184.398C64.6705 184.258 64.2064 183.947 63.858 183.466C63.5095 182.985 63.3371 182.432 63.3409 181.807C63.3371 181.212 63.4943 180.682 63.8125 180.216C64.1345 179.746 64.5758 179.377 65.1364 179.108C65.697 178.839 66.3352 178.705 67.0511 178.705C67.7595 178.705 68.392 178.841 68.9489 179.114C69.5095 179.383 69.9508 179.752 70.2727 180.222C70.5947 180.687 70.7576 181.216 70.7614 181.807C70.7576 182.432 70.5795 182.985 70.2273 183.466C69.875 183.947 69.4167 184.258 68.8523 184.398V184.466C69.2879 184.542 69.6799 184.72 70.0284 185C70.3807 185.277 70.661 185.623 70.8693 186.04C71.0814 186.453 71.1894 186.905 71.1932 187.398C71.1894 188.027 71.0114 188.587 70.6591 189.08C70.3068 189.572 69.8182 189.958 69.1932 190.239C68.572 190.519 67.858 190.659 67.0511 190.659ZM67.0511 189.222C67.5322 189.222 67.9489 189.142 68.3011 188.983C68.6534 188.82 68.9261 188.595 69.1193 188.307C69.3125 188.015 69.411 187.674 69.4148 187.284C69.411 186.879 69.3049 186.521 69.0966 186.21C68.892 185.9 68.6136 185.655 68.2614 185.477C67.9091 185.299 67.5057 185.21 67.0511 185.21C66.5928 185.21 66.1856 185.299 65.8295 185.477C65.4735 185.655 65.1932 185.9 64.9886 186.21C64.7841 186.521 64.6837 186.879 64.6875 187.284C64.6837 187.674 64.7765 188.015 64.9659 188.307C65.1591 188.595 65.4337 188.82 65.7898 188.983C66.1458 189.142 66.5663 189.222 67.0511 189.222ZM67.0511 183.807C67.4375 183.807 67.7803 183.729 68.0795 183.574C68.3788 183.419 68.6136 183.203 68.7841 182.926C68.9583 182.65 69.0473 182.326 69.0511 181.955C69.0473 181.591 68.9602 181.273 68.7898 181C68.6231 180.727 68.3902 180.517 68.0909 180.369C67.7917 180.218 67.4451 180.142 67.0511 180.142C66.6496 180.142 66.2973 180.218 65.9943 180.369C65.6951 180.517 65.4621 180.727 65.2955 181C65.1288 181.273 65.0473 181.591 65.0511 181.955C65.0473 182.326 65.1307 182.65 65.3011 182.926C65.4716 183.203 65.7064 183.419 66.0057 183.574C66.3087 183.729 66.6572 183.807 67.0511 183.807ZM77.2798 190.693C76.3821 190.689 75.6151 190.453 74.9787 189.983C74.3423 189.513 73.8556 188.83 73.5185 187.932C73.1813 187.034 73.0128 185.953 73.0128 184.688C73.0128 183.426 73.1813 182.348 73.5185 181.455C73.8594 180.561 74.348 179.879 74.9844 179.409C75.6245 178.939 76.3897 178.705 77.2798 178.705C78.17 178.705 78.9332 178.941 79.5696 179.415C80.206 179.884 80.6927 180.566 81.0298 181.46C81.3707 182.35 81.5412 183.426 81.5412 184.688C81.5412 185.956 81.3726 187.04 81.0355 187.938C80.6984 188.831 80.2116 189.515 79.5753 189.989C78.9389 190.458 78.1738 190.693 77.2798 190.693ZM77.2798 189.176C78.0677 189.176 78.6832 188.792 79.1264 188.023C79.5734 187.254 79.7969 186.142 79.7969 184.688C79.7969 183.722 79.6946 182.905 79.4901 182.239C79.2893 181.568 78.9995 181.061 78.6207 180.716C78.2457 180.367 77.7988 180.193 77.2798 180.193C76.4957 180.193 75.8802 180.58 75.4332 181.352C74.9863 182.125 74.7609 183.237 74.7571 184.688C74.7571 185.657 74.8575 186.477 75.0582 187.148C75.2628 187.814 75.5526 188.32 75.9276 188.665C76.3026 189.006 76.7533 189.176 77.2798 189.176ZM87.3977 190.659C86.6856 190.659 86.0455 190.523 85.4773 190.25C84.9129 189.973 84.4621 189.595 84.125 189.114C83.7879 188.633 83.608 188.083 83.5852 187.466H85.2898C85.3314 187.966 85.553 188.377 85.9545 188.699C86.3561 189.021 86.8371 189.182 87.3977 189.182C87.8447 189.182 88.2405 189.08 88.5852 188.875C88.9337 188.667 89.2064 188.381 89.4034 188.017C89.6042 187.653 89.7045 187.239 89.7045 186.773C89.7045 186.299 89.6023 185.877 89.3977 185.506C89.1932 185.134 88.911 184.843 88.5511 184.631C88.1951 184.419 87.786 184.311 87.3239 184.307C86.9716 184.307 86.6174 184.367 86.2614 184.489C85.9053 184.61 85.6174 184.769 85.3977 184.966L83.7898 184.727L84.4432 178.864H90.8409V180.369H85.9034L85.5341 183.625H85.6023C85.8295 183.405 86.1307 183.222 86.5057 183.074C86.8845 182.926 87.2898 182.852 87.7216 182.852C88.4299 182.852 89.0606 183.021 89.6136 183.358C90.1705 183.695 90.608 184.155 90.9261 184.739C91.2481 185.318 91.4072 185.985 91.4034 186.739C91.4072 187.492 91.2367 188.165 90.892 188.756C90.5511 189.347 90.0777 189.812 89.4716 190.153C88.8693 190.491 88.178 190.659 87.3977 190.659ZM97.5298 190.659C96.7495 190.659 96.0526 190.525 95.4389 190.256C94.8291 189.987 94.3461 189.614 93.9901 189.136C93.6378 188.655 93.4484 188.098 93.4219 187.466H95.206C95.2287 187.811 95.3442 188.11 95.5526 188.364C95.7647 188.614 96.0412 188.807 96.3821 188.943C96.723 189.08 97.1018 189.148 97.5185 189.148C97.9768 189.148 98.3821 189.068 98.7344 188.909C99.0904 188.75 99.3688 188.528 99.5696 188.244C99.7704 187.956 99.8707 187.625 99.8707 187.25C99.8707 186.86 99.7704 186.517 99.5696 186.222C99.3726 185.922 99.0829 185.687 98.7003 185.517C98.3215 185.347 97.8632 185.261 97.3253 185.261H96.3423V183.83H97.3253C97.7571 183.83 98.1359 183.752 98.4616 183.597C98.7912 183.441 99.0488 183.225 99.2344 182.949C99.42 182.669 99.5128 182.341 99.5128 181.966C99.5128 181.606 99.4313 181.294 99.2685 181.028C99.1094 180.759 98.8821 180.549 98.5866 180.398C98.295 180.246 97.9503 180.17 97.5526 180.17C97.1738 180.17 96.8196 180.241 96.4901 180.381C96.1643 180.517 95.8991 180.714 95.6946 180.972C95.4901 181.225 95.3802 181.53 95.3651 181.886H93.6662C93.6851 181.258 93.8707 180.705 94.223 180.227C94.5791 179.75 95.0488 179.377 95.6321 179.108C96.2154 178.839 96.8632 178.705 97.5753 178.705C98.3215 178.705 98.9654 178.85 99.5071 179.142C100.053 179.43 100.473 179.814 100.768 180.295C101.068 180.777 101.215 181.303 101.212 181.875C101.215 182.527 101.034 183.08 100.666 183.534C100.303 183.989 99.8177 184.294 99.2116 184.449V184.54C99.9844 184.657 100.583 184.964 101.007 185.46C101.435 185.956 101.647 186.572 101.643 187.307C101.647 187.947 101.469 188.521 101.109 189.028C100.753 189.536 100.267 189.936 99.6491 190.227C99.0317 190.515 98.3253 190.659 97.5298 190.659ZM107.661 178.705C108.179 178.708 108.691 178.803 109.195 178.989C109.698 179.174 110.153 179.477 110.558 179.898C110.967 180.318 111.293 180.886 111.536 181.602C111.782 182.314 111.907 183.201 111.911 184.261C111.911 185.28 111.808 186.187 111.604 186.983C111.399 187.775 111.106 188.443 110.723 188.989C110.344 189.534 109.884 189.949 109.342 190.233C108.801 190.517 108.191 190.659 107.513 190.659C106.82 190.659 106.204 190.523 105.666 190.25C105.128 189.977 104.691 189.6 104.354 189.119C104.017 188.634 103.806 188.078 103.723 187.449H105.456C105.57 187.949 105.801 188.354 106.149 188.665C106.501 188.972 106.956 189.125 107.513 189.125C108.365 189.125 109.03 188.754 109.507 188.011C109.984 187.265 110.225 186.223 110.229 184.886H110.138C109.941 185.212 109.695 185.492 109.399 185.727C109.107 185.962 108.78 186.144 108.416 186.273C108.053 186.402 107.664 186.466 107.251 186.466C106.581 186.466 105.971 186.301 105.422 185.972C104.873 185.642 104.435 185.189 104.109 184.614C103.784 184.038 103.621 183.381 103.621 182.642C103.621 181.907 103.787 181.241 104.121 180.642C104.458 180.044 104.928 179.57 105.53 179.222C106.136 178.869 106.846 178.697 107.661 178.705ZM107.666 180.182C107.223 180.182 106.823 180.292 106.467 180.511C106.115 180.727 105.837 181.021 105.632 181.392C105.428 181.759 105.325 182.169 105.325 182.619C105.325 183.07 105.424 183.479 105.621 183.847C105.821 184.21 106.094 184.5 106.439 184.716C106.787 184.928 107.185 185.034 107.632 185.034C107.965 185.034 108.276 184.97 108.564 184.841C108.852 184.712 109.104 184.534 109.32 184.307C109.536 184.076 109.704 183.814 109.825 183.523C109.946 183.231 110.007 182.924 110.007 182.602C110.007 182.174 109.905 181.777 109.7 181.409C109.5 181.042 109.223 180.746 108.871 180.523C108.518 180.295 108.117 180.182 107.666 180.182Z" fill="#414141"/>
<path d="M425.8 194.8C431.212 194.8 435.6 190.412 435.6 185C435.6 179.588 431.212 175.2 425.8 175.2C420.388 175.2 416 179.588 416 185C416 190.412 420.388 194.8 425.8 194.8Z" fill="#4CAF50"/>
<path d="M430.747 180.613L424.4 186.96L421.787 184.347L420.48 185.653L424.4 189.573L432.053 181.92L430.747 180.613Z" fill="#CCFF90"/>
<mask id="path-24-inside-3_36_289" fill="white">
<path d="M55 209H444V249H55V209Z"/>
</mask>
<path d="M444 248.5H55V249.5H444V248.5Z" fill="#E4E4E4" mask="url(#path-24-inside-3_36_289)"/>
<path d="M67.1818 234.659C66.6629 234.652 66.1515 234.557 65.6477 234.375C65.1477 234.193 64.6932 233.89 64.2841 233.466C63.875 233.042 63.5473 232.472 63.3011 231.756C63.0587 231.04 62.9375 230.146 62.9375 229.074C62.9375 228.059 63.0379 227.157 63.2386 226.369C63.4432 225.581 63.7367 224.917 64.1193 224.375C64.5019 223.83 64.964 223.415 65.5057 223.131C66.0473 222.847 66.6553 222.705 67.3295 222.705C68.0227 222.705 68.6383 222.841 69.1761 223.114C69.714 223.386 70.1496 223.763 70.483 224.244C70.8201 224.725 71.0341 225.273 71.125 225.886H69.392C69.2746 225.402 69.0417 225.006 68.6932 224.699C68.3447 224.392 67.8902 224.239 67.3295 224.239C66.4773 224.239 65.8125 224.61 65.3352 225.352C64.8617 226.095 64.6231 227.127 64.6193 228.449H64.7045C64.9053 228.119 65.1515 227.839 65.4432 227.608C65.7386 227.373 66.0682 227.193 66.4318 227.068C66.7992 226.939 67.1856 226.875 67.5909 226.875C68.2652 226.875 68.875 227.04 69.4205 227.369C69.9697 227.695 70.4072 228.146 70.733 228.722C71.0587 229.297 71.2216 229.956 71.2216 230.699C71.2216 231.441 71.053 232.114 70.7159 232.716C70.3826 233.318 69.9129 233.795 69.3068 234.148C68.7008 234.496 67.9924 234.667 67.1818 234.659ZM67.1761 233.182C67.6231 233.182 68.0227 233.072 68.375 232.852C68.7273 232.633 69.0057 232.337 69.2102 231.966C69.4148 231.595 69.517 231.18 69.517 230.722C69.517 230.275 69.4167 229.867 69.2159 229.5C69.0189 229.133 68.7462 228.841 68.3977 228.625C68.053 228.409 67.6591 228.301 67.2159 228.301C66.8788 228.301 66.5663 228.366 66.2784 228.494C65.9943 228.623 65.7443 228.801 65.5284 229.028C65.3125 229.256 65.142 229.517 65.017 229.812C64.8958 230.104 64.8352 230.413 64.8352 230.739C64.8352 231.174 64.9356 231.578 65.1364 231.949C65.3409 232.32 65.6193 232.619 65.9716 232.847C66.3277 233.07 66.7292 233.182 67.1761 233.182ZM77.3423 234.693C76.4446 234.689 75.6776 234.453 75.0412 233.983C74.4048 233.513 73.9181 232.83 73.581 231.932C73.2438 231.034 73.0753 229.953 73.0753 228.688C73.0753 227.426 73.2438 226.348 73.581 225.455C73.9219 224.561 74.4105 223.879 75.0469 223.409C75.687 222.939 76.4522 222.705 77.3423 222.705C78.2325 222.705 78.9957 222.941 79.6321 223.415C80.2685 223.884 80.7552 224.566 81.0923 225.46C81.4332 226.35 81.6037 227.426 81.6037 228.688C81.6037 229.956 81.4351 231.04 81.098 231.938C80.7609 232.831 80.2741 233.515 79.6378 233.989C79.0014 234.458 78.2363 234.693 77.3423 234.693ZM77.3423 233.176C78.1302 233.176 78.7457 232.792 79.1889 232.023C79.6359 231.254 79.8594 230.142 79.8594 228.688C79.8594 227.722 79.7571 226.905 79.5526 226.239C79.3518 225.568 79.062 225.061 78.6832 224.716C78.3082 224.367 77.8613 224.193 77.3423 224.193C76.5582 224.193 75.9427 224.58 75.4957 225.352C75.0488 226.125 74.8234 227.237 74.8196 228.688C74.8196 229.657 74.92 230.477 75.1207 231.148C75.3253 231.814 75.6151 232.32 75.9901 232.665C76.3651 233.006 76.8158 233.176 77.3423 233.176ZM87.6705 234.659C86.8902 234.659 86.1932 234.525 85.5795 234.256C84.9697 233.987 84.4867 233.614 84.1307 233.136C83.7784 232.655 83.589 232.098 83.5625 231.466H85.3466C85.3693 231.811 85.4848 232.11 85.6932 232.364C85.9053 232.614 86.1818 232.807 86.5227 232.943C86.8636 233.08 87.2424 233.148 87.6591 233.148C88.1174 233.148 88.5227 233.068 88.875 232.909C89.2311 232.75 89.5095 232.528 89.7102 232.244C89.911 231.956 90.0114 231.625 90.0114 231.25C90.0114 230.86 89.911 230.517 89.7102 230.222C89.5133 229.922 89.2235 229.687 88.8409 229.517C88.4621 229.347 88.0038 229.261 87.4659 229.261H86.483V227.83H87.4659C87.8977 227.83 88.2765 227.752 88.6023 227.597C88.9318 227.441 89.1894 227.225 89.375 226.949C89.5606 226.669 89.6534 226.341 89.6534 225.966C89.6534 225.606 89.572 225.294 89.4091 225.028C89.25 224.759 89.0227 224.549 88.7273 224.398C88.4356 224.246 88.0909 224.17 87.6932 224.17C87.3144 224.17 86.9602 224.241 86.6307 224.381C86.3049 224.517 86.0398 224.714 85.8352 224.972C85.6307 225.225 85.5208 225.53 85.5057 225.886H83.8068C83.8258 225.258 84.0114 224.705 84.3636 224.227C84.7197 223.75 85.1894 223.377 85.7727 223.108C86.3561 222.839 87.0038 222.705 87.7159 222.705C88.4621 222.705 89.1061 222.85 89.6477 223.142C90.1932 223.43 90.6136 223.814 90.9091 224.295C91.2083 224.777 91.3561 225.303 91.3523 225.875C91.3561 226.527 91.1742 227.08 90.8068 227.534C90.4432 227.989 89.9583 228.294 89.3523 228.449V228.54C90.125 228.657 90.7235 228.964 91.1477 229.46C91.5758 229.956 91.7879 230.572 91.7841 231.307C91.7879 231.947 91.6098 232.521 91.25 233.028C90.8939 233.536 90.4072 233.936 89.7898 234.227C89.1723 234.515 88.4659 234.659 87.6705 234.659ZM98.3466 222.864V234.5H96.5852V224.625H96.517L93.733 226.443V224.761L96.6364 222.864H98.3466ZM105.545 234.659C104.765 234.659 104.068 234.525 103.455 234.256C102.845 233.987 102.362 233.614 102.006 233.136C101.653 232.655 101.464 232.098 101.438 231.466H103.222C103.244 231.811 103.36 232.11 103.568 232.364C103.78 232.614 104.057 232.807 104.398 232.943C104.739 233.08 105.117 233.148 105.534 233.148C105.992 233.148 106.398 233.068 106.75 232.909C107.106 232.75 107.384 232.528 107.585 232.244C107.786 231.956 107.886 231.625 107.886 231.25C107.886 230.86 107.786 230.517 107.585 230.222C107.388 229.922 107.098 229.687 106.716 229.517C106.337 229.347 105.879 229.261 105.341 229.261H104.358V227.83H105.341C105.773 227.83 106.152 227.752 106.477 227.597C106.807 227.441 107.064 227.225 107.25 226.949C107.436 226.669 107.528 226.341 107.528 225.966C107.528 225.606 107.447 225.294 107.284 225.028C107.125 224.759 106.898 224.549 106.602 224.398C106.311 224.246 105.966 224.17 105.568 224.17C105.189 224.17 104.835 224.241 104.506 224.381C104.18 224.517 103.915 224.714 103.71 224.972C103.506 225.225 103.396 225.53 103.381 225.886H101.682C101.701 225.258 101.886 224.705 102.239 224.227C102.595 223.75 103.064 223.377 103.648 223.108C104.231 222.839 104.879 222.705 105.591 222.705C106.337 222.705 106.981 222.85 107.523 223.142C108.068 223.43 108.489 223.814 108.784 224.295C109.083 224.777 109.231 225.303 109.227 225.875C109.231 226.527 109.049 227.08 108.682 227.534C108.318 227.989 107.833 228.294 107.227 228.449V228.54C108 228.657 108.598 228.964 109.023 229.46C109.451 229.956 109.663 230.572 109.659 231.307C109.663 231.947 109.485 232.521 109.125 233.028C108.769 233.536 108.282 233.936 107.665 234.227C107.047 234.515 106.341 234.659 105.545 234.659Z" fill="#414141"/>
<path d="M425.8 238.8C431.212 238.8 435.6 234.412 435.6 229C435.6 223.588 431.212 219.2 425.8 219.2C420.388 219.2 416 223.588 416 229C416 234.412 420.388 238.8 425.8 238.8Z" fill="#4CAF50"/>
<path d="M430.747 224.613L424.4 230.96L421.787 228.347L420.48 229.653L424.4 233.573L432.053 225.92L430.747 224.613Z" fill="#CCFF90"/>
<mask id="path-29-inside-4_36_289" fill="white">
<path d="M55 253H444V293H55V253Z"/>
</mask>
<path d="M444 292.5H55V293.5H444V292.5Z" fill="#E4E4E4" mask="url(#path-29-inside-4_36_289)"/>
<rect x="62" y="269" width="185" height="8" rx="4" fill="#C0C0C0"/>
<path d="M417.4 273C417.4 271.897 417.617 270.805 418.039 269.785C418.462 268.766 419.08 267.84 419.86 267.06C420.64 266.28 421.566 265.662 422.585 265.239C423.605 264.817 424.697 264.6 425.8 264.6C426.903 264.6 427.995 264.817 429.015 265.239C430.034 265.662 430.96 266.28 431.74 267.06C432.52 267.84 433.138 268.766 433.561 269.785C433.983 270.805 434.2 271.897 434.2 273C434.2 275.228 433.315 277.364 431.74 278.94C430.164 280.515 428.028 281.4 425.8 281.4C423.572 281.4 421.436 280.515 419.86 278.94C418.285 277.364 417.4 275.228 417.4 273Z" stroke="#D6D6D6" stroke-width="1.86667" stroke-linecap="round" stroke-linejoin="round"/>
<mask id="path-33-inside-5_36_289" fill="white">
<path d="M55 297H444V337H55V297Z"/>
</mask>
<path d="M444 336.5H55V337.5H444V336.5Z" fill="#E4E4E4" mask="url(#path-33-inside-5_36_289)"/>
<rect x="62" y="313" width="102" height="8" rx="4" fill="#C0C0C0"/>
<path d="M417.4 317C417.4 315.897 417.617 314.805 418.039 313.785C418.462 312.766 419.08 311.84 419.86 311.06C420.64 310.28 421.566 309.662 422.585 309.239C423.605 308.817 424.697 308.6 425.8 308.6C426.903 308.6 427.995 308.817 429.015 309.239C430.034 309.662 430.96 310.28 431.74 311.06C432.52 311.84 433.138 312.766 433.561 313.785C433.983 314.805 434.2 315.897 434.2 317C434.2 319.228 433.315 321.364 431.74 322.94C430.164 324.515 428.028 325.4 425.8 325.4C423.572 325.4 421.436 324.515 419.86 322.94C418.285 321.364 417.4 319.228 417.4 317Z" stroke="#D6D6D6" stroke-width="1.86667" stroke-linecap="round" stroke-linejoin="round"/>
<mask id="path-37-inside-6_36_289" fill="white">
<path d="M55 341H444V381H55V341Z"/>
</mask>
<path d="M444 380.5H55V381.5H444V380.5Z" fill="#E4E4E4" mask="url(#path-37-inside-6_36_289)"/>
<rect x="62" y="357" width="185" height="8" rx="4" fill="#C0C0C0"/>
<path d="M417.4 361C417.4 359.897 417.617 358.805 418.039 357.785C418.462 356.766 419.08 355.84 419.86 355.06C420.64 354.28 421.566 353.662 422.585 353.239C423.605 352.817 424.697 352.6 425.8 352.6C426.903 352.6 427.995 352.817 429.015 353.239C430.034 353.662 430.96 354.28 431.74 355.06C432.52 355.84 433.138 356.766 433.561 357.785C433.983 358.805 434.2 359.897 434.2 361C434.2 363.228 433.315 365.364 431.74 366.94C430.164 368.515 428.028 369.4 425.8 369.4C423.572 369.4 421.436 368.515 419.86 366.94C418.285 365.364 417.4 363.228 417.4 361Z" stroke="#D6D6D6" stroke-width="1.86667" stroke-linecap="round" stroke-linejoin="round"/>
</svg>
