<svg width="500" height="400" viewBox="0 0 500 400" fill="none" xmlns="http://www.w3.org/2000/svg">
<rect width="500" height="400" rx="20" fill="white"/>
<g opacity="0.8">
<rect x="21" y="112" width="180" height="176" rx="19.2" fill="#FFCF10" fill-opacity="0.2"/>
<path d="M161.415 198.85C161.415 201.805 159.685 204.47 157.22 206.9C155.745 208.35 154.025 209.74 152.51 211.15C151.3 212.275 150.21 213.38 149.7 214.61C149.165 215.895 149.13 217.49 149.175 219.175C149.23 221.255 149.455 223.45 149.47 225.5C149.5 228.955 148.855 232.02 146.84 234.04C144.82 236.055 141.755 236.7 138.3 236.67C136.25 236.65 134.055 236.43 131.98 236.375C130.295 236.33 128.695 236.365 127.41 236.9C126.18 237.41 125.075 238.5 123.95 239.71C122.54 241.225 121.15 242.945 119.7 244.415C117.27 246.885 114.605 248.615 111.65 248.615C108.695 248.615 106.03 246.885 103.6 244.415C102.15 242.945 100.76 241.225 99.3501 239.71C98.2251 238.5 97.1151 237.41 95.8901 236.9C94.6051 236.365 93.0051 236.33 91.3251 236.375C89.2451 236.43 87.0501 236.65 85.0001 236.67C81.5451 236.7 78.4751 236.055 76.4601 234.04C74.4401 232.02 73.8001 228.955 73.8301 225.5C73.8451 223.45 74.0701 221.255 74.1251 219.175C74.1701 217.49 74.1351 215.895 73.6001 214.605C73.0901 213.38 72.0001 212.275 70.7901 211.15C69.2801 209.74 67.5601 208.35 66.0851 206.9C63.6201 204.47 61.8851 201.805 61.8851 198.85C61.8851 195.895 63.6201 193.23 66.0851 190.8C67.5601 189.35 69.2801 187.96 70.7901 186.55C72.0001 185.425 73.0901 184.32 73.6001 183.095C74.1351 181.805 74.1701 180.21 74.1251 178.525C74.0701 176.445 73.8451 174.25 73.8301 172.2C73.8001 168.745 74.4401 165.68 76.4601 163.66C78.4751 161.645 81.5451 161 85.0001 161.03C87.0501 161.05 89.2451 161.27 91.3251 161.325C93.0051 161.37 94.6051 161.335 95.8901 160.8C97.1151 160.29 98.2251 159.2 99.3501 157.99C100.76 156.475 102.15 154.755 103.6 153.285C106.03 150.815 108.695 149.085 111.65 149.085C114.605 149.085 117.27 150.815 119.7 153.285C121.15 154.755 122.54 156.475 123.95 157.99C125.075 159.2 126.18 160.29 127.41 160.8C128.695 161.335 130.295 161.37 131.98 161.325C134.055 161.27 136.25 161.05 138.3 161.03C141.755 161 144.82 161.645 146.84 163.66C148.855 165.68 149.5 168.745 149.47 172.2C149.455 174.25 149.23 176.445 149.175 178.525C149.13 180.21 149.165 181.805 149.7 183.09C150.21 184.32 151.3 185.425 152.51 186.55C154.025 187.96 155.745 189.35 157.22 190.8C159.685 193.23 161.415 195.895 161.415 198.85ZM156.415 198.85C156.415 197.91 155.975 197.075 155.385 196.26C154.565 195.13 153.445 194.075 152.275 193.03C149.36 190.425 146.25 187.83 145.08 185.01C143.87 182.085 144.195 178.015 144.4 174.12C144.485 172.545 144.535 171.01 144.325 169.645C144.18 168.69 143.925 167.82 143.305 167.2C142.68 166.575 141.81 166.32 140.855 166.175C139.49 165.965 137.955 166.015 136.38 166.1C132.485 166.305 128.415 166.63 125.495 165.42C122.67 164.25 120.075 161.145 117.47 158.225C116.425 157.055 115.37 155.935 114.24 155.115C113.425 154.525 112.59 154.085 111.65 154.085C110.715 154.085 109.875 154.525 109.06 155.115C107.93 155.935 106.875 157.055 105.83 158.225C103.225 161.145 100.63 164.25 97.8051 165.42C94.8851 166.63 90.8151 166.305 86.9201 166.1C85.3451 166.015 83.8101 165.965 82.4451 166.175C81.4851 166.32 80.6201 166.575 79.9951 167.2C79.3701 167.825 79.1201 168.69 78.9751 169.645C78.7651 171.01 78.8151 172.545 78.8951 174.12C79.1051 178.015 79.4301 182.085 78.2201 185.005C77.0501 187.83 73.9451 190.425 71.0251 193.03C69.8551 194.075 68.7351 195.13 67.9151 196.26C67.3251 197.075 66.8851 197.91 66.8851 198.85C66.8851 199.79 67.3251 200.625 67.9151 201.44C68.7351 202.57 69.8551 203.625 71.0251 204.67C73.9451 207.275 77.0501 209.87 78.2201 212.695C79.4301 215.615 79.1051 219.685 78.8951 223.58C78.8151 225.155 78.7651 226.69 78.9751 228.055C79.1201 229.01 79.3701 229.88 79.9951 230.5C80.6201 231.125 81.4851 231.38 82.4451 231.525C83.8101 231.735 85.3451 231.685 86.9201 231.6C90.8151 231.395 94.8851 231.07 97.8051 232.28C100.63 233.45 103.225 236.555 105.83 239.475C106.875 240.645 107.93 241.765 109.06 242.585C109.875 243.175 110.715 243.615 111.65 243.615C112.59 243.615 113.425 243.175 114.24 242.585C115.37 241.765 116.425 240.645 117.47 239.475C120.075 236.555 122.67 233.45 125.495 232.28C128.415 231.07 132.485 231.395 136.38 231.6C137.955 231.685 139.49 231.735 140.855 231.525C141.81 231.38 142.68 231.125 143.305 230.5C143.925 229.88 144.18 229.01 144.325 228.055C144.535 226.69 144.485 225.155 144.4 223.58C144.195 219.685 143.87 215.615 145.08 212.69C146.25 209.87 149.36 207.275 152.275 204.67C153.445 203.625 154.565 202.57 155.385 201.44C155.975 200.625 156.415 199.79 156.415 198.85ZM103.76 190.04C103.289 190.511 102.729 190.884 102.113 191.139C101.497 191.394 100.837 191.525 100.171 191.525C99.5044 191.525 98.8445 191.393 98.2288 191.138C97.6131 190.883 97.0537 190.509 96.5826 190.037C96.1115 189.566 95.7379 189.006 95.483 188.39C95.2282 187.774 95.0971 187.114 95.0974 186.448C95.0976 185.781 95.2291 185.121 95.4844 184.506C95.7397 183.89 96.1137 183.331 96.5851 182.86C97.5373 181.908 98.8284 181.374 100.174 181.374C101.52 181.375 102.811 181.91 103.763 182.862C104.714 183.814 105.248 185.105 105.248 186.451C105.247 187.797 104.712 189.088 103.76 190.04ZM126.115 180.85C126.587 180.394 127.218 180.142 127.874 180.148C128.529 180.154 129.156 180.417 129.62 180.88C130.083 181.344 130.346 181.971 130.352 182.626C130.358 183.282 130.106 183.913 129.65 184.385L97.1851 216.85C96.7136 217.305 96.0821 217.557 95.4266 217.551C94.7711 217.546 94.1441 217.283 93.6806 216.819C93.2171 216.356 92.9541 215.729 92.9484 215.073C92.9427 214.418 93.1947 213.786 93.6501 213.315L126.115 180.85ZM119.54 207.665C120.012 207.193 120.571 206.82 121.187 206.565C121.803 206.31 122.463 206.179 123.129 206.179C123.796 206.18 124.456 206.311 125.071 206.566C125.687 206.822 126.247 207.196 126.718 207.667C127.189 208.139 127.562 208.698 127.817 209.314C128.072 209.93 128.203 210.59 128.203 211.256C128.203 211.923 128.071 212.583 127.816 213.198C127.561 213.814 127.187 214.373 126.715 214.845C125.763 215.796 124.472 216.33 123.126 216.33C121.78 216.329 120.489 215.794 119.538 214.842C118.586 213.89 118.052 212.599 118.052 211.253C118.053 209.907 118.588 208.616 119.54 207.665Z" fill="#FF8F10"/>
</g>
<rect x="233" y="139.38" width="224.64" height="9.36" rx="4.68" fill="#B3B3B3"/>
<rect x="233" y="167.46" width="130.291" height="9.36" rx="4.68" fill="#B3B3B3"/>
<rect x="233" y="195.54" width="224.64" height="9.36" rx="4.68" fill="#B3B3B3"/>
<rect width="171" height="37" transform="translate(233 223.62)" fill="#FFF7D9"/>
<path d="M249.753 247.759C248.971 247.759 248.276 247.622 247.67 247.347C247.067 247.068 246.591 246.685 246.243 246.198C245.898 245.711 245.723 245.151 245.716 244.518H248.401C248.411 244.869 248.546 245.149 248.808 245.358C249.073 245.567 249.388 245.671 249.753 245.671C250.035 245.671 250.283 245.611 250.499 245.492C250.714 245.37 250.883 245.197 251.006 244.975C251.128 244.753 251.188 244.495 251.185 244.2C251.188 243.901 251.128 243.643 251.006 243.424C250.883 243.202 250.714 243.031 250.499 242.912C250.283 242.789 250.035 242.728 249.753 242.728C249.461 242.728 249.191 242.799 248.942 242.942C248.697 243.081 248.517 243.275 248.401 243.523L245.974 243.046L246.372 237.438H253.213V239.646H248.639L248.44 241.893H248.5C248.659 241.584 248.934 241.329 249.325 241.127C249.716 240.922 250.17 240.819 250.688 240.819C251.294 240.819 251.834 240.96 252.308 241.241C252.786 241.523 253.162 241.913 253.437 242.41C253.715 242.904 253.853 243.474 253.849 244.12C253.853 244.829 253.684 245.459 253.342 246.009C253.004 246.556 252.529 246.985 251.915 247.297C251.302 247.605 250.581 247.759 249.753 247.759ZM260.868 245.711V245.174C260.868 244.743 260.961 244.345 261.146 243.981C261.335 243.616 261.609 243.323 261.967 243.101C262.325 242.879 262.761 242.768 263.274 242.768C263.801 242.768 264.244 242.877 264.602 243.096C264.963 243.315 265.236 243.606 265.422 243.971C265.608 244.335 265.7 244.736 265.7 245.174V245.711C265.7 246.142 265.606 246.54 265.417 246.904C265.231 247.269 264.958 247.562 264.597 247.784C264.235 248.006 263.795 248.117 263.274 248.117C262.754 248.117 262.315 248.006 261.957 247.784C261.599 247.562 261.327 247.269 261.142 246.904C260.959 246.54 260.868 246.142 260.868 245.711ZM262.598 245.174V245.711C262.598 245.9 262.645 246.087 262.737 246.273C262.834 246.455 263.012 246.546 263.274 246.546C263.549 246.546 263.73 246.457 263.816 246.278C263.906 246.099 263.95 245.91 263.95 245.711V245.174C263.95 244.975 263.909 244.783 263.826 244.597C263.743 244.412 263.559 244.319 263.274 244.319C263.012 244.319 262.834 244.412 262.737 244.597C262.645 244.783 262.598 244.975 262.598 245.174ZM255.539 239.884V239.347C255.539 238.91 255.633 238.509 255.822 238.144C256.014 237.78 256.289 237.488 256.647 237.269C257.005 237.05 257.438 236.941 257.945 236.941C258.472 236.941 258.914 237.05 259.272 237.269C259.633 237.488 259.907 237.78 260.093 238.144C260.278 238.509 260.371 238.91 260.371 239.347V239.884C260.371 240.322 260.276 240.721 260.088 241.082C259.902 241.444 259.628 241.732 259.267 241.947C258.906 242.163 258.465 242.271 257.945 242.271C257.424 242.271 256.985 242.161 256.627 241.942C256.269 241.724 255.998 241.434 255.812 241.072C255.63 240.711 255.539 240.315 255.539 239.884ZM257.289 239.347V239.884C257.289 240.083 257.335 240.272 257.428 240.451C257.521 240.63 257.693 240.719 257.945 240.719C258.22 240.719 258.401 240.63 258.487 240.451C258.576 240.272 258.621 240.083 258.621 239.884V239.347C258.621 239.148 258.579 238.956 258.497 238.771C258.414 238.585 258.23 238.492 257.945 238.492C257.683 238.492 257.507 238.588 257.418 238.781C257.332 238.969 257.289 239.158 257.289 239.347ZM256.384 247.62L263.384 237.438H264.796L257.796 247.62H256.384ZM274.197 247.62H270.279V237.438H274.157C275.204 237.438 276.109 237.642 276.872 238.05C277.637 238.454 278.227 239.037 278.642 239.8C279.059 240.559 279.268 241.468 279.268 242.529C279.268 243.59 279.061 244.501 278.646 245.263C278.232 246.022 277.646 246.606 276.887 247.013C276.128 247.418 275.231 247.62 274.197 247.62ZM273.044 245.273H274.097C274.601 245.273 275.03 245.192 275.385 245.03C275.743 244.867 276.015 244.587 276.2 244.19C276.389 243.792 276.484 243.238 276.484 242.529C276.484 241.82 276.388 241.266 276.195 240.869C276.007 240.471 275.728 240.191 275.36 240.028C274.996 239.866 274.548 239.785 274.018 239.785H273.044V245.273ZM280.587 247.62V239.984H283.331V247.62H280.587ZM281.959 239.188C281.588 239.188 281.269 239.066 281.004 238.82C280.739 238.575 280.607 238.28 280.607 237.935C280.607 237.591 280.739 237.296 281.004 237.05C281.269 236.805 281.588 236.682 281.959 236.682C282.333 236.682 282.652 236.805 282.913 237.05C283.179 237.296 283.311 237.591 283.311 237.935C283.311 238.28 283.179 238.575 282.913 238.82C282.652 239.066 282.333 239.188 281.959 239.188ZM291.709 242.469H289.184C289.171 242.314 289.116 242.179 289.02 242.067C288.924 241.954 288.799 241.868 288.647 241.808C288.498 241.745 288.332 241.714 288.15 241.714C287.914 241.714 287.712 241.757 287.543 241.843C287.374 241.929 287.291 242.052 287.295 242.211C287.291 242.324 287.339 242.428 287.439 242.524C287.541 242.62 287.739 242.695 288.03 242.748L289.581 243.026C290.364 243.169 290.945 243.409 291.327 243.747C291.711 244.082 291.905 244.531 291.908 245.094C291.905 245.638 291.742 246.11 291.421 246.511C291.103 246.909 290.667 247.217 290.113 247.436C289.563 247.651 288.935 247.759 288.229 247.759C287.063 247.759 286.149 247.521 285.49 247.043C284.834 246.566 284.467 245.936 284.391 245.154H287.116C287.152 245.396 287.271 245.583 287.474 245.716C287.679 245.845 287.938 245.91 288.249 245.91C288.501 245.91 288.708 245.867 288.871 245.781C289.036 245.694 289.121 245.572 289.124 245.413C289.121 245.267 289.048 245.151 288.905 245.065C288.766 244.978 288.547 244.909 288.249 244.856L286.897 244.617C286.118 244.481 285.535 244.223 285.147 243.842C284.759 243.46 284.567 242.97 284.57 242.37C284.567 241.84 284.706 241.391 284.988 241.023C285.273 240.651 285.679 240.37 286.206 240.178C286.736 239.982 287.364 239.884 288.09 239.884C289.194 239.884 290.064 240.113 290.7 240.57C291.34 241.028 291.676 241.661 291.709 242.469ZM296.639 247.759C295.81 247.759 295.101 247.595 294.511 247.267C293.921 246.936 293.468 246.475 293.154 245.885C292.839 245.292 292.681 244.604 292.681 243.822C292.681 243.04 292.839 242.353 293.154 241.763C293.468 241.17 293.921 240.709 294.511 240.381C295.101 240.05 295.81 239.884 296.639 239.884C297.388 239.884 298.036 240.02 298.583 240.292C299.133 240.56 299.559 240.941 299.86 241.435C300.162 241.926 300.314 242.503 300.318 243.165H297.772C297.736 242.764 297.62 242.459 297.424 242.251C297.232 242.039 296.983 241.932 296.678 241.932C296.44 241.932 296.231 242.002 296.052 242.141C295.873 242.277 295.734 242.484 295.634 242.763C295.535 243.038 295.485 243.384 295.485 243.802C295.485 244.219 295.535 244.567 295.634 244.846C295.734 245.121 295.873 245.328 296.052 245.467C296.231 245.603 296.44 245.671 296.678 245.671C296.881 245.671 297.06 245.625 297.215 245.532C297.371 245.436 297.497 245.297 297.593 245.114C297.693 244.929 297.752 244.703 297.772 244.438H300.318C300.308 245.111 300.154 245.698 299.855 246.198C299.557 246.695 299.134 247.08 298.588 247.352C298.044 247.623 297.394 247.759 296.639 247.759ZM305.129 247.759C304.3 247.759 303.591 247.595 303.001 247.267C302.411 246.936 301.959 246.475 301.644 245.885C301.329 245.292 301.172 244.604 301.172 243.822C301.172 243.04 301.329 242.353 301.644 241.763C301.959 241.17 302.411 240.709 303.001 240.381C303.591 240.05 304.3 239.884 305.129 239.884C305.958 239.884 306.667 240.05 307.257 240.381C307.847 240.709 308.299 241.17 308.614 241.763C308.929 242.353 309.086 243.04 309.086 243.822C309.086 244.604 308.929 245.292 308.614 245.885C308.299 246.475 307.847 246.936 307.257 247.267C306.667 247.595 305.958 247.759 305.129 247.759ZM305.149 245.731C305.381 245.731 305.581 245.653 305.75 245.497C305.919 245.341 306.05 245.119 306.143 244.831C306.236 244.543 306.282 244.2 306.282 243.802C306.282 243.401 306.236 243.058 306.143 242.773C306.05 242.484 305.919 242.262 305.75 242.107C305.581 241.951 305.381 241.873 305.149 241.873C304.904 241.873 304.693 241.951 304.517 242.107C304.342 242.262 304.208 242.484 304.115 242.773C304.022 243.058 303.975 243.401 303.975 243.802C303.975 244.2 304.022 244.543 304.115 244.831C304.208 245.119 304.342 245.341 304.517 245.497C304.693 245.653 304.904 245.731 305.149 245.731ZM315.152 244.279V239.984H317.896V247.62H315.291V246.168H315.211C315.046 246.656 314.756 247.037 314.341 247.312C313.927 247.584 313.435 247.719 312.865 247.719C312.331 247.719 311.864 247.597 311.463 247.352C311.065 247.106 310.755 246.768 310.533 246.337C310.314 245.906 310.203 245.413 310.2 244.856V239.984H312.944V244.279C312.948 244.657 313.044 244.954 313.233 245.169C313.425 245.384 313.693 245.492 314.038 245.492C314.267 245.492 314.464 245.444 314.63 245.348C314.799 245.249 314.928 245.109 315.017 244.93C315.11 244.748 315.155 244.531 315.152 244.279ZM322.036 243.325V247.62H319.292V239.984H321.897V241.435H321.976C322.142 240.951 322.434 240.572 322.851 240.297C323.272 240.022 323.763 239.884 324.323 239.884C324.863 239.884 325.332 240.008 325.73 240.257C326.131 240.502 326.441 240.84 326.66 241.271C326.882 241.702 326.991 242.194 326.988 242.748V247.62H324.243V243.325C324.247 242.947 324.151 242.65 323.955 242.435C323.763 242.219 323.494 242.111 323.15 242.111C322.924 242.111 322.727 242.161 322.558 242.261C322.392 242.357 322.265 242.496 322.175 242.678C322.086 242.857 322.039 243.073 322.036 243.325ZM332.896 239.984V241.972H327.865V239.984H332.896ZM328.84 238.154H331.584V245.164C331.584 245.27 331.602 245.36 331.639 245.432C331.675 245.502 331.731 245.555 331.808 245.592C331.884 245.625 331.982 245.641 332.101 245.641C332.184 245.641 332.28 245.631 332.389 245.611C332.502 245.592 332.585 245.575 332.638 245.562L333.036 247.491C332.913 247.527 332.737 247.572 332.509 247.625C332.283 247.678 332.015 247.713 331.703 247.729C331.074 247.763 330.545 247.698 330.117 247.535C329.69 247.37 329.368 247.11 329.153 246.755C328.937 246.4 328.833 245.956 328.84 245.423V238.154ZM339.411 247.62H336.428L339.788 237.438H343.567L346.928 247.62H343.945L341.717 240.242H341.638L339.411 247.62ZM338.854 243.603H344.462V245.671H338.854V243.603ZM347.948 250.484V239.984H350.672V241.316H350.732C350.831 241.057 350.977 240.821 351.17 240.605C351.362 240.386 351.6 240.212 351.885 240.083C352.171 239.95 352.502 239.884 352.88 239.884C353.384 239.884 353.863 240.018 354.317 240.287C354.774 240.555 355.145 240.978 355.43 241.555C355.719 242.131 355.863 242.88 355.863 243.802C355.863 244.683 355.725 245.414 355.45 245.994C355.178 246.574 354.814 247.007 354.356 247.292C353.902 247.577 353.403 247.719 352.86 247.719C352.502 247.719 352.182 247.661 351.9 247.545C351.622 247.426 351.383 247.265 351.184 247.063C350.989 246.858 350.838 246.626 350.732 246.367H350.692V250.484H347.948ZM350.633 243.802C350.633 244.173 350.681 244.495 350.777 244.766C350.876 245.035 351.015 245.244 351.194 245.393C351.377 245.539 351.594 245.611 351.846 245.611C352.098 245.611 352.311 245.54 352.487 245.398C352.666 245.252 352.802 245.045 352.895 244.776C352.991 244.504 353.039 244.18 353.039 243.802C353.039 243.424 352.991 243.101 352.895 242.832C352.802 242.561 352.666 242.353 352.487 242.211C352.311 242.065 352.098 241.992 351.846 241.992C351.594 241.992 351.377 242.065 351.194 242.211C351.015 242.353 350.876 242.561 350.777 242.832C350.681 243.101 350.633 243.424 350.633 243.802ZM357.012 250.484V239.984H359.737V241.316H359.797C359.896 241.057 360.042 240.821 360.234 240.605C360.426 240.386 360.665 240.212 360.95 240.083C361.235 239.95 361.566 239.884 361.944 239.884C362.448 239.884 362.927 240.018 363.381 240.287C363.838 240.555 364.21 240.978 364.495 241.555C364.783 242.131 364.927 242.88 364.927 243.802C364.927 244.683 364.79 245.414 364.515 245.994C364.243 246.574 363.878 247.007 363.421 247.292C362.967 247.577 362.468 247.719 361.924 247.719C361.566 247.719 361.247 247.661 360.965 247.545C360.686 247.426 360.448 247.265 360.249 247.063C360.053 246.858 359.903 246.626 359.797 246.367H359.757V250.484H357.012ZM359.697 243.802C359.697 244.173 359.745 244.495 359.841 244.766C359.941 245.035 360.08 245.244 360.259 245.393C360.441 245.539 360.658 245.611 360.91 245.611C361.162 245.611 361.376 245.54 361.551 245.398C361.73 245.252 361.866 245.045 361.959 244.776C362.055 244.504 362.103 244.18 362.103 243.802C362.103 243.424 362.055 243.101 361.959 242.832C361.866 242.561 361.73 242.353 361.551 242.211C361.376 242.065 361.162 241.992 360.91 241.992C360.658 241.992 360.441 242.065 360.259 242.211C360.08 242.353 359.941 242.561 359.841 242.832C359.745 243.101 359.697 243.424 359.697 243.802ZM368.821 237.438V247.62H366.077V237.438H368.821ZM370.219 247.62V239.984H372.964V247.62H370.219ZM371.592 239.188C371.22 239.188 370.902 239.066 370.637 238.82C370.372 238.575 370.239 238.28 370.239 237.935C370.239 237.591 370.372 237.296 370.637 237.05C370.902 236.805 371.22 236.682 371.592 236.682C371.966 236.682 372.284 236.805 372.546 237.05C372.811 237.296 372.944 237.591 372.944 237.935C372.944 238.28 372.811 238.575 372.546 238.82C372.284 239.066 371.966 239.188 371.592 239.188ZM378.021 247.759C377.206 247.759 376.503 247.603 375.913 247.292C375.327 246.977 374.874 246.526 374.556 245.94C374.241 245.35 374.084 244.644 374.084 243.822C374.084 243.033 374.243 242.343 374.561 241.754C374.879 241.164 375.328 240.705 375.908 240.376C376.488 240.048 377.173 239.884 377.961 239.884C378.538 239.884 379.06 239.974 379.528 240.153C379.995 240.332 380.394 240.592 380.726 240.933C381.057 241.271 381.312 241.682 381.491 242.166C381.67 242.65 381.76 243.195 381.76 243.802V244.438H374.939V242.927H379.234C379.231 242.708 379.175 242.516 379.065 242.35C378.959 242.181 378.815 242.05 378.633 241.957C378.454 241.861 378.25 241.813 378.021 241.813C377.799 241.813 377.595 241.861 377.41 241.957C377.224 242.05 377.075 242.179 376.962 242.345C376.853 242.511 376.795 242.705 376.788 242.927V244.557C376.788 244.803 376.84 245.022 376.942 245.214C377.045 245.406 377.193 245.557 377.385 245.666C377.577 245.776 377.809 245.83 378.081 245.83C378.27 245.83 378.442 245.804 378.598 245.751C378.757 245.698 378.893 245.621 379.006 245.522C379.118 245.419 379.201 245.297 379.254 245.154H381.76C381.674 245.684 381.47 246.145 381.148 246.536C380.827 246.924 380.401 247.226 379.871 247.441C379.344 247.653 378.727 247.759 378.021 247.759ZM385.644 247.719C385.1 247.719 384.6 247.577 384.142 247.292C383.688 247.007 383.324 246.574 383.049 245.994C382.777 245.414 382.641 244.683 382.641 243.802C382.641 242.88 382.783 242.131 383.069 241.555C383.357 240.978 383.728 240.555 384.182 240.287C384.64 240.018 385.12 239.884 385.624 239.884C386.002 239.884 386.333 239.95 386.618 240.083C386.903 240.212 387.142 240.386 387.334 240.605C387.526 240.821 387.672 241.057 387.772 241.316H387.811V237.438H390.556V247.62H387.831V246.367H387.772C387.666 246.626 387.513 246.858 387.314 247.063C387.119 247.265 386.88 247.426 386.598 247.545C386.32 247.661 386.002 247.719 385.644 247.719ZM386.658 245.611C386.91 245.611 387.125 245.539 387.304 245.393C387.487 245.244 387.626 245.035 387.722 244.766C387.821 244.495 387.871 244.173 387.871 243.802C387.871 243.424 387.821 243.101 387.722 242.832C387.626 242.561 387.487 242.353 387.304 242.211C387.125 242.065 386.91 241.992 386.658 241.992C386.406 241.992 386.191 242.065 386.012 242.211C385.836 242.353 385.7 242.561 385.604 242.832C385.511 243.101 385.465 243.424 385.465 243.802C385.465 244.18 385.511 244.504 385.604 244.776C385.7 245.045 385.836 245.252 386.012 245.398C386.191 245.54 386.406 245.611 386.658 245.611Z" fill="#FFA540"/>
</svg>
