<svg width="276" height="197" viewBox="0 0 276 197" fill="none" xmlns="http://www.w3.org/2000/svg">
<g clip-path="url(#clip0_24_220)">
<path d="M251.674 175.209L250.632 175.558C245.697 176.26 231.257 176.821 207.311 177.242C183.2 177.663 154.807 177.834 122.133 177.754C90.9498 177.643 66.0101 177.318 47.3141 176.779C41.3237 176.604 36.3894 176.414 32.5113 176.209L27.622 175.892C24.936 175.674 23.5778 175.446 23.5476 175.209C24.363 174.481 35.4991 173.876 56.9559 173.393C78.4127 172.91 105.298 172.659 137.611 172.64C169.924 172.659 196.809 172.91 218.265 173.393C239.722 173.876 250.858 174.481 251.674 175.209Z" fill="black" fill-opacity="0.501961"/>
<path d="M169.75 140.612L183.477 140.612L197.204 140.612C197.204 152.171 197.204 163.729 197.204 175.288C188.053 175.288 178.901 175.288 169.75 175.288C169.75 163.729 169.75 152.17 169.75 140.612Z" fill="black"/>
<path d="M119.696 65.4531L183.678 65.4532L247.66 65.4534C247.66 93.1907 247.66 120.928 247.66 148.665C205.005 148.665 162.351 148.665 119.696 148.665C119.696 120.928 119.696 93.1905 119.696 65.4531Z" fill="black"/>
<path d="M122.943 69.2085L183.678 69.2086L244.413 69.2087C244.413 94.2917 244.413 119.375 244.413 144.458C203.923 144.458 163.433 144.458 122.943 144.458C122.943 119.375 122.943 94.2916 122.943 69.2085Z" fill="white"/>
<path d="M150.025 171.49L183.477 171.49L216.929 171.49C216.929 173.265 216.929 175.039 216.929 176.813C194.628 176.813 172.327 176.813 150.025 176.814C150.025 175.039 150.025 173.264 150.025 171.49Z" fill="black"/>
<path d="M132.334 114.487L156.674 114.487V117.969L132.334 117.969L132.334 114.487ZM132.334 114.487L156.674 114.487V117.969L132.334 117.969L132.334 114.487ZM132.334 114.487L156.674 114.487V117.969L132.334 117.969L132.334 114.487ZM132.334 114.487L156.674 114.487V117.969L132.334 117.969L132.334 114.487Z" fill="#E6E6E6"/>
<path d="M132.334 121.42L150.892 121.42V124.902L132.334 124.902V121.42ZM132.334 121.42L150.892 121.42V124.902L132.334 124.902V121.42ZM132.334 121.42L150.892 121.42V124.902L132.334 124.902V121.42ZM132.334 121.42L150.892 121.42V124.902L132.334 124.902V121.42Z" fill="#E6E6E6"/>
<path d="M132.334 127.232L156.674 127.233V130.714L132.334 130.714V127.232ZM132.334 127.232L156.674 127.233V130.714L132.334 130.714V127.232ZM132.334 127.232L156.674 127.233V130.714L132.334 130.714V127.232ZM132.334 127.232L156.674 127.233V130.714L132.334 130.714V127.232Z" fill="#105004"/>
<path d="M132.334 134.195L156.674 134.195V136.526L132.334 136.526V134.195ZM132.334 134.195L156.674 134.195V136.526L132.334 136.526V134.195ZM132.334 134.195L156.674 134.195V136.526L132.334 136.526V134.195ZM132.334 134.195L156.674 134.195V136.526L132.334 136.526V134.195Z" fill="#E6E6E6"/>
<path d="M160.126 121.42L178.683 121.42V124.902L160.126 124.902V121.42ZM160.126 121.42L178.683 121.42V124.902L160.126 124.902V121.42ZM160.126 121.42L178.683 121.42V124.902L160.126 124.902V121.42ZM160.126 121.42L178.683 121.42V124.902L160.126 124.902V121.42Z" fill="#105004"/>
<path d="M160.126 127.232L184.466 127.233V130.714L160.126 130.714V127.232ZM160.126 127.232L184.466 127.233V130.714L160.126 130.714V127.232ZM160.126 127.232L184.466 127.233V130.714L160.126 130.714V127.232ZM160.126 127.232L184.466 127.233V130.714L160.126 130.714V127.232Z" fill="#E6E6E6"/>
<path d="M160.126 134.195L184.466 134.195V136.526L160.126 136.526V134.195ZM160.126 134.195L184.466 134.195V136.526L160.126 136.526V134.195ZM160.126 134.195L184.466 134.195V136.526L160.126 136.526V134.195ZM160.126 134.195L184.466 134.195V136.526L160.126 136.526V134.195Z" fill="#E6E6E6"/>
<path d="M228.553 87.8684C227.592 87.8684 226.53 87.0821 226.53 86.1209V69.5208L244.279 87.8684H228.553Z" fill="white"/>
<path d="M197.694 106.216L236.136 106.216V107.963L197.694 107.963V106.216ZM197.694 106.216L236.136 106.216V107.963L197.694 107.963V106.216ZM197.694 106.216L236.136 106.216V107.963L197.694 107.963V106.216ZM197.694 106.216L236.136 106.216V107.963L197.694 107.963V106.216Z" fill="#105004"/>
<path d="M197.694 109.711L229.147 109.711V110.584L197.694 110.584V109.711ZM197.694 109.711L229.147 109.711V110.584L197.694 110.584V109.711ZM197.694 109.711L229.147 109.711V110.584L197.694 110.584V109.711ZM197.694 109.711L229.147 109.711V110.584L197.694 110.584V109.711Z" fill="#B3B3B3"/>
<path d="M207.305 128.932L235.263 128.932V129.806L207.305 129.806V128.932ZM207.305 128.932L235.263 128.932V129.806L207.305 129.806V128.932ZM207.305 128.932L235.263 128.932V129.806L207.305 129.806V128.932ZM207.305 128.932L235.263 128.932V129.806L207.305 129.806V128.932Z" fill="#105004"/>
<path d="M207.305 131.553L235.263 131.553V132.427L207.305 132.427V131.553ZM207.305 131.553L235.263 131.553V132.427L207.305 132.427V131.553ZM207.305 131.553L235.263 131.553V132.427L207.305 132.427V131.553ZM207.305 131.553L235.263 131.553V132.427L207.305 132.427V131.553Z" fill="#B3B3B3"/>
<path d="M207.305 136.795L235.263 136.795V137.669L207.305 137.669V136.795ZM207.305 136.795L235.263 136.795V137.669L207.305 137.669V136.795ZM207.305 136.795L235.263 136.795V137.669L207.305 137.669V136.795ZM207.305 136.795L235.263 136.795V137.669L207.305 137.669V136.795Z" fill="#105004"/>
<path d="M207.305 139.416L235.263 139.416V140.29L207.305 140.29V139.416ZM207.305 139.416L235.263 139.416V140.29L207.305 140.29V139.416ZM207.305 139.416L235.263 139.416V140.29L207.305 140.29V139.416ZM207.305 139.416L235.263 139.416V140.29L207.305 140.29V139.416Z" fill="#B3B3B3"/>
<path d="M197.694 112.332L234.389 112.332V113.205L197.694 113.206V112.332ZM197.694 112.332L234.389 112.332V113.205L197.694 113.206V112.332ZM197.694 112.332L234.389 112.332V113.205L197.694 113.206V112.332ZM197.694 112.332L234.389 112.332V113.205L197.694 113.206V112.332Z" fill="#B3B3B3"/>
<path d="M197.694 114.953L218.662 114.953V115.826L197.694 115.827V114.953ZM197.694 114.953L218.662 114.953V115.826L197.694 115.827V114.953ZM197.694 114.953L218.662 114.953V115.826L197.694 115.827V114.953ZM197.694 114.953L218.662 114.953V115.826L197.694 115.827V114.953Z" fill="#B3B3B3"/>
<path d="M192.795 74.1158L215.229 74.116L237.663 74.1161C237.663 82.1039 237.663 90.0917 237.663 98.0794C222.707 98.0795 207.751 98.0796 192.795 98.0796C192.795 90.0917 192.795 82.1038 192.795 74.1158Z" fill="#929FA8"/>
<path d="M153.586 71.8099L152.735 76.6619L152.738 76.6651C151.697 76.8352 150.689 77.1079 149.727 77.4711V77.4678L146.566 73.6904L143.594 75.4071L145.282 80.033L145.288 80.0362C144.483 80.6975 143.744 81.4384 143.083 82.2443L143.08 82.2345L138.454 80.5473L136.737 83.5187L140.515 86.6835C140.152 87.645 139.882 88.6508 139.712 89.6911L139.709 89.6878L134.857 90.5396V93.9729L139.709 94.8247L139.712 94.8215C139.882 95.8617 140.152 96.8676 140.515 97.829L136.737 100.994L138.454 103.965L143.08 102.278L143.083 102.268C143.744 103.074 144.483 103.815 145.288 104.476L145.282 104.479L143.594 109.105L146.566 110.822L149.727 107.045V107.041C150.689 107.404 151.697 107.677 152.738 107.847L152.735 107.851L153.586 112.702L157.017 112.703L157.868 107.851L157.865 107.847C158.906 107.678 159.914 107.407 160.876 107.045L164.04 110.822L167.012 109.105L165.321 104.479C166.125 103.82 166.863 103.081 167.523 102.278L172.152 103.965L173.866 100.994L170.091 97.8289C170.454 96.8675 170.728 95.8619 170.897 94.8215L175.749 93.973L175.749 90.5397L170.897 89.6879C170.727 88.6486 170.454 87.6442 170.091 86.6837L173.866 83.5189L172.152 80.5474L167.523 82.2346C166.863 81.4311 166.125 80.6927 165.321 80.0331L167.012 75.4071L164.04 73.6905L160.876 77.4679C159.914 77.1053 158.906 76.835 157.865 76.6653L157.868 76.6621L157.017 71.81L153.586 71.8099ZM155.303 80.1641C161.982 80.1641 167.399 85.5772 167.399 92.2558C167.399 98.9349 161.983 104.347 155.303 104.347C148.624 104.347 143.211 98.9344 143.211 92.2558C143.211 85.5767 148.624 80.164 155.303 80.1641Z" fill="#105004"/>
<path d="M133.328 95.2199L130.433 97.175L126.68 99.7083C126.325 99.9483 125.869 99.9811 125.483 99.7943L121.426 97.8323C121.037 97.6439 120.779 97.2613 120.75 96.8299L120.446 92.3343C120.417 91.9063 120.618 91.4954 120.973 91.2555L124.725 88.7222L127.62 86.7676C127.306 86.9795 126.973 87.5874 127.369 88.1741C127.457 88.3038 127.559 88.3906 127.647 88.4461C124.534 86.4741 120.518 86.5282 117.426 88.6153L117.427 88.6149C114.49 90.6003 112.931 94.0581 113.377 97.534C113.453 98.1324 113.179 98.7958 112.648 99.1544L93.3066 112.214C92.225 112.944 91.8349 114.734 92.9243 116.347C94.0137 117.961 95.8197 118.268 96.9012 117.537L116.242 104.478C116.774 104.119 117.492 104.113 118.018 104.408C121.075 106.12 124.865 105.967 127.805 103.984L127.804 103.984C130.896 101.897 132.447 98.1916 131.781 94.5678C131.855 94.9691 132.298 95.4878 132.97 95.3643C133.123 95.3362 133.243 95.2774 133.328 95.2199L133.836 94.4515C133.775 94.7648 133.592 95.0413 133.328 95.2199ZM131.981 93.2249L131.473 93.9934C131.533 93.68 131.716 93.4035 131.981 93.2249C132.132 93.1228 132.318 93.0365 132.535 92.9966C133.41 92.8357 134.029 93.4801 134.149 94.1326C134.989 98.7018 133.032 103.359 129.151 105.979L129.151 105.98C125.461 108.468 120.696 108.667 116.842 106.508C117.076 106.639 117.336 106.644 117.59 106.473L98.2483 119.532C95.8096 121.179 92.5775 120.135 90.9292 117.694C89.2809 115.253 89.5207 111.865 91.9594 110.219L111.301 97.1595C111.047 97.3306 110.955 97.574 110.989 97.8401C110.427 93.4587 112.392 89.1128 116.079 86.6205L116.08 86.6202C119.96 84.0004 125.011 83.9262 128.935 86.4127C129.088 86.5097 129.241 86.6451 129.364 86.827C129.877 87.586 129.494 88.4067 128.967 88.7626L126.072 90.7171L122.32 93.2504L122.847 92.1719L123.151 96.6675L122.475 95.6652L126.531 97.6273L125.333 97.7132L129.085 95.18L131.981 93.2249Z" fill="#3C464F"/>
<path d="M122.676 86.9371C120.834 86.9371 118.989 87.4765 117.389 88.5562L117.387 88.5571C114.428 90.5574 112.858 94.0408 113.307 97.5428C113.38 98.1162 113.117 98.7531 112.608 99.0961L104.442 104.61C104.447 104.603 104.434 104.615 104.442 104.61L104.422 104.63C104.408 104.65 104.406 104.674 104.414 104.695C104.868 106.301 105.296 107.502 105.697 108.297C105.755 108.412 105.813 108.52 105.87 108.618C106.277 109.371 106.716 110.005 107.188 110.519L107.191 110.522C107.208 110.538 107.226 110.555 107.244 110.572C107.257 110.585 107.275 110.592 107.292 110.592C107.302 110.592 107.311 110.59 107.32 110.586C107.325 110.584 107.33 110.581 107.334 110.578L116.282 104.536C116.55 104.355 116.87 104.267 117.187 104.267C117.469 104.267 117.747 104.337 117.984 104.469C119.404 105.264 120.98 105.66 122.558 105.66C124.402 105.66 126.247 105.119 127.843 104.043C130.501 102.248 132.029 99.2662 132.003 96.1616C132.003 96.1351 131.988 96.111 131.964 96.0993C131.954 96.0944 131.943 96.0918 131.933 96.0918C131.919 96.0918 131.905 96.0958 131.893 96.1038L130.393 97.1167L126.641 99.6501C126.451 99.7788 126.229 99.8442 126.007 99.8442C125.838 99.8442 125.67 99.8068 125.513 99.7311L121.457 97.769C121.09 97.5916 120.847 97.2314 120.82 96.8251L120.516 92.3295C120.488 91.9265 120.677 91.5395 121.012 91.3136L124.764 88.7803L126.264 87.7677C126.285 87.7538 126.297 87.7299 126.295 87.7047C126.293 87.678 126.277 87.6547 126.252 87.6445C125.11 87.173 123.893 86.9371 122.676 86.9371Z" fill="#535D66"/>
</g>
<defs>
<clipPath id="clip0_24_220">
<rect width="275.04" height="196.32" fill="white"/>
</clipPath>
</defs>
</svg>
