<svg width="337" height="241" viewBox="0 0 337 241" fill="none" xmlns="http://www.w3.org/2000/svg">
<g clip-path="url(#clip0_24_89)">
<path d="M283.512 197.064L296.851 197.062C296.851 198.143 296.851 199.224 296.852 200.305C292.405 200.305 287.959 200.306 283.512 200.307C283.512 199.226 283.512 198.145 283.512 197.064Z" fill="white"/>
<path d="M104.676 78.6576L103.747 77.7888L121.617 77.7887C121.863 77.7887 122.1 77.8867 122.275 78.0612C122.449 78.2358 122.547 78.4725 122.547 78.7194V78.7196L122.547 96.5883L121.617 95.6576L145.442 95.6579V95.6576H228.833C229.346 95.6576 229.763 96.0744 229.763 96.5883C229.763 97.1024 229.346 97.519 228.833 97.519H145.442H121.617C121.103 97.519 120.686 97.1024 120.686 96.5883L120.686 78.7193L121.617 79.65L103.747 79.6503C103.257 79.6503 102.851 79.2702 102.819 78.7814C102.785 78.2685 103.173 77.8249 103.686 77.7908C104.198 77.7566 104.642 78.1447 104.676 78.6576Z" fill="#535D66"/>
<path d="M104.671 120.288L103.749 119.48L210.964 119.48C211.211 119.48 211.447 119.578 211.622 119.753C211.796 119.927 211.895 120.164 211.895 120.411V126.367C211.895 126.881 211.478 127.298 210.964 127.298C210.45 127.298 210.033 126.881 210.033 126.367V120.411L210.964 121.342L103.749 121.342C103.282 121.342 102.888 120.996 102.826 120.534C102.758 120.025 103.116 119.556 103.626 119.489C104.135 119.421 104.603 119.779 104.671 120.288Z" fill="#535D66"/>
<path d="M104.678 168.072L103.748 167.137L133.529 167.137L132.599 168.068L132.599 132.329C132.599 132.082 132.697 131.846 132.871 131.671C133.046 131.497 133.282 131.399 133.529 131.399H193.093C193.607 131.399 194.023 131.815 194.023 132.329C194.023 132.843 193.607 133.26 193.093 133.26L133.529 133.26L134.46 132.329L134.46 168.068C134.46 168.582 134.043 168.998 133.529 168.998L103.748 168.999C103.5 168.999 103.263 168.9 103.088 168.725C102.914 168.549 102.816 168.311 102.817 168.064V168.064C102.819 167.55 103.238 167.135 103.752 167.137C104.266 167.139 104.681 167.558 104.678 168.072Z" fill="#535D66"/>
<path d="M257.818 122.688L231.586 122.865L231.3 80.3439L257.532 80.1674L257.818 122.686L257.818 122.688ZM242.689 127.107C242.682 125.938 243.614 124.984 244.772 124.976C245.931 124.968 246.876 125.91 246.884 127.079C246.892 128.248 245.959 129.204 244.801 129.212C243.643 129.218 242.697 128.276 242.689 127.107ZM259.62 128.915L259.623 128.915L259.28 77.9583V77.9579L259.28 77.9477L259.28 77.9478C259.266 76.7843 258.316 75.849 257.15 75.8569C257.142 75.8569 257.135 75.8577 257.128 75.8578V75.857L252.376 75.889L231.623 76.0288C230.459 76.0373 229.522 76.9853 229.524 78.1479L229.523 78.148L229.866 129.114L229.869 129.114C229.869 129.137 229.866 129.158 229.867 129.181C229.874 130.321 230.839 131.239 232.021 131.232C232.039 131.231 232.056 131.229 232.073 131.228L232.073 131.231L257.551 131.06C258.702 131.052 259.632 130.121 259.624 128.981C259.624 128.958 259.621 128.936 259.62 128.914L259.62 128.915Z" fill="black"/>
<path d="M258.518 78.6672L258.722 124.255L230.596 124.381L230.393 78.7931L258.518 78.6672Z" fill="white"/>
<path d="M244.771 124.992C245.93 124.984 246.875 125.926 246.883 127.095C246.89 128.264 245.958 129.22 244.8 129.228C243.641 129.234 242.696 128.292 242.688 127.123C242.68 125.954 243.613 125 244.771 124.992Z" fill="#A19A89"/>
<path d="M198.403 135.48L199.358 134.619L244.07 133.824L288.273 134.418C288.239 154.662 289.242 174.388 289.208 194.632C259.047 194.581 228.889 194.53 198.728 194.478C198.762 174.234 198.227 156.203 198.261 135.959L200.559 133.811L198.88 135.219L198.403 135.48Z" fill="white"/>
<path d="M226.987 195.024L263.527 195.086C263.524 196.696 263.521 198.307 263.519 199.917C251.339 199.896 239.159 199.876 226.979 199.855C226.981 198.245 226.984 196.634 226.987 195.024Z" fill="#A29797"/>
<path d="M189.396 196.44L196.852 196.453L204.308 196.466C204.306 197.652 204.304 198.837 204.302 200.024C199.331 200.015 194.361 200.007 189.39 199.998C189.392 198.812 189.394 197.626 189.396 196.44Z" fill="#A29797"/>
<path d="M200.933 133.368C199.191 133.365 197.787 134.735 197.784 136.438L197.688 192.701C197.686 194.322 197.455 195.641 198.93 195.769L188.599 195.752C187.376 195.75 188 196.704 187.998 197.887L187.995 199.311C187.993 200.494 188.976 201.449 190.199 201.451L297.234 201.633C298.457 201.635 299.442 200.684 299.444 199.5L299.447 198.077C299.449 196.893 300.076 195.942 298.853 195.939L288.522 195.922C289.997 195.799 289.771 194.478 289.774 192.858L289.869 136.595C289.872 134.891 288.473 133.517 286.731 133.514L200.931 133.369L200.933 133.368ZM228.091 134.16C228.538 134.161 228.9 134.516 228.899 134.953C228.898 135.39 228.535 135.744 228.088 135.743C227.642 135.743 227.28 135.388 227.281 134.95C227.281 134.513 227.644 134.159 228.091 134.16ZM200.851 136.449L286.805 136.595L286.709 192.847L200.755 192.701L200.851 136.449ZM229.752 195.83L257.698 195.878C257.655 196.473 257.24 196.937 256.731 196.937L230.715 196.893C230.206 196.892 229.793 196.426 229.752 195.83ZM286.493 197.611C287.151 197.613 287.684 198.13 287.683 198.767C287.681 199.404 287.147 199.92 286.489 199.918C285.831 199.917 285.298 199.4 285.299 198.763C285.3 198.126 285.835 197.61 286.493 197.611ZM290.251 197.618C290.909 197.619 291.442 198.136 291.441 198.773C291.44 199.41 290.906 199.926 290.247 199.925C289.589 199.924 289.057 199.406 289.058 198.769C289.059 198.132 289.593 197.617 290.251 197.618ZM294.01 197.624C294.668 197.626 295.201 198.143 295.2 198.78C295.199 199.417 294.665 199.932 294.006 199.931C293.348 199.93 292.815 199.413 292.816 198.776C292.818 198.139 293.352 197.623 294.01 197.624ZM192.752 198.216L199.005 198.227C199.31 198.227 199.556 198.401 199.556 198.617C199.556 198.833 199.309 199.006 199.004 199.006L192.75 198.995C192.445 198.995 192.199 198.82 192.199 198.605C192.2 198.389 192.446 198.216 192.752 198.216Z" fill="#1A1A1A"/>
<path d="M163.92 77.0279C154.23 81.7665 143.333 85.6125 134.422 85.6802C139.912 119.523 143.059 132.6 163.954 143.295C184.837 132.577 187.97 119.496 193.426 85.6466C184.515 85.5883 173.614 81.754 163.92 77.0258V77.0279Z" fill="#535D66"/>
<path d="M164.482 81.8352C156.223 85.8737 146.936 89.1511 139.342 89.2089C144.021 118.05 146.703 129.195 164.51 138.311C182.309 129.176 184.979 118.028 189.629 89.1801C182.035 89.1304 172.744 85.8629 164.482 81.8333V81.8352Z" fill="#2DB06A"/>
<path d="M163.92 77.028C154.23 81.7666 143.333 85.6126 134.422 85.6803C139.912 119.523 143.059 132.6 163.954 143.295C164.277 143.129 164.596 142.962 164.911 142.795C164.9 121.027 164.889 99.2589 164.877 77.4909C164.557 77.3376 164.237 77.1832 163.919 77.0278L163.92 77.028Z" fill="#105004"/>
<path d="M79.2528 59.7816C78.5652 59.8221 77.4102 59.9749 76.8798 60.0918C75.464 60.4019 74.3989 60.7704 73.1046 61.3861C72.745 61.5614 72.6147 61.6468 72.5967 61.7188C72.5203 62.0064 72.7136 62.0244 73.199 61.7817C74.4305 61.1614 76.0845 60.6176 77.3654 60.4109C77.6126 60.3705 77.9272 60.3165 78.062 60.2941C78.4396 60.231 79.4508 60.1591 80.0081 60.1591C80.5924 60.1591 81.671 60.231 81.9947 60.2895C82.1205 60.3165 82.4306 60.3659 82.6913 60.4064C84.0307 60.6221 85.4779 61.0985 86.9071 61.7996C87.3566 62.0153 87.4105 62.0288 87.4914 61.948C87.6487 61.7906 87.5049 61.6468 86.8981 61.3547C85.5498 60.7074 84.0486 60.222 82.624 59.9794C81.7521 59.8311 80.0665 59.7323 79.2532 59.7816H79.2528Z" fill="#286782"/>
<path d="M79.0056 60.8328C76.345 61.0171 73.7696 61.943 71.5899 63.4845C70.718 64.1047 69.1988 65.5025 69.1404 65.7452C69.1045 65.88 69.1764 66.0014 69.2887 66.0014C69.3292 66.0014 69.6438 65.7227 69.9899 65.3812C71.5629 63.8396 73.0866 62.8463 74.9696 62.1316C76.7269 61.4665 78.1292 61.2148 80.0617 61.2148C81.1539 61.2148 81.5044 61.2417 82.4438 61.399C84.4528 61.7361 86.4933 62.5721 88.1291 63.7271C88.8213 64.217 89.3561 64.6664 90.0483 65.3406C90.5876 65.8664 90.7539 66.0057 90.8348 65.9923C90.9112 65.9833 90.9426 65.9473 90.9516 65.844C90.9651 65.7227 90.9112 65.6462 90.5696 65.2867C89.3337 63.9742 87.5449 62.7249 85.9268 62.0327C84.4751 61.417 83.2347 61.0755 81.7964 60.9001C81.1133 60.8193 79.6977 60.7834 79.0056 60.8328Z" fill="#286782"/>
<path d="M79.0511 61.8432C79.0151 61.8521 78.7724 61.8792 78.5117 61.9105C76.8892 62.0858 75.2218 62.5938 73.77 63.3532C73.2667 63.6139 73.0914 63.7668 73.1408 63.8971C73.2037 64.0544 73.3251 64.0184 74.0802 63.6454C75.9948 62.7016 77.6667 62.2836 79.7252 62.2387C81.3926 62.2027 82.7096 62.396 84.2197 62.8993C86.2736 63.5825 88.2198 64.8363 89.6578 66.4095C91.105 67.9871 91.9994 69.5737 92.6826 71.7759C92.9073 72.5085 93.0601 73.3895 93.1365 74.3828L93.186 75.057L93.3118 75.0974C93.4062 75.1333 93.4511 75.1243 93.5096 75.0659C93.577 74.9985 93.577 74.9311 93.5275 74.2839C93.4601 73.4479 93.3837 72.9626 93.2039 72.2254C92.1072 67.7175 89.0017 64.239 84.6465 62.6209C84.3229 62.504 83.379 62.2254 83.0959 62.167C81.8105 61.9018 81.415 61.8569 80.1969 61.8389C79.6037 61.8344 79.0868 61.8344 79.0508 61.8434L79.0511 61.8432Z" fill="#286782"/>
<path d="M79.073 62.8872C77.7337 62.9951 76.8393 63.1973 75.455 63.7097C74.9876 63.8804 73.8505 64.4468 73.4056 64.7344C71.428 65.9929 69.8324 67.7771 68.8256 69.8447C68.5155 70.4828 68.4526 70.6402 68.1874 71.4402C68.0751 71.7728 67.9672 72.0874 67.9447 72.1369C67.9223 72.1864 67.8234 72.4379 67.7245 72.6987C67.4953 73.2829 66.7851 74.6987 66.4481 75.2381C66.057 75.8673 65.9896 76.0157 66.0436 76.1056C66.0705 76.146 66.1425 76.182 66.2009 76.182C66.3447 76.182 66.538 75.9123 67.0324 75.0268C67.693 73.8448 68.0751 72.9819 68.5245 71.6649C68.8616 70.6717 69.1537 70.0065 69.5583 69.3053C69.729 69.0042 70.1245 68.3884 70.2504 68.2266C70.992 67.2603 71.6572 66.5592 72.3987 65.9614C72.8976 65.5569 73.7336 64.9681 73.81 64.9681C73.8324 64.9681 73.8864 64.9412 73.9223 64.9053C74.0482 64.7974 74.8392 64.3973 75.3426 64.1906C76.3224 63.7905 77.3067 63.5119 78.1515 63.3906C78.938 63.2781 79.2302 63.2602 80.0527 63.2602C81.2392 63.2557 82.1471 63.377 83.3111 63.6917C83.5404 63.7546 83.7696 63.7905 83.819 63.7771C83.9314 63.7411 83.9359 63.5074 83.8235 63.4444C83.6662 63.359 82.7269 63.1254 82.0168 62.995C81.4055 62.8782 79.8415 62.8242 79.073 62.8872Z" fill="#286782"/>
<path d="M84.4897 63.8208C84.3863 63.9422 84.4852 64.068 84.7953 64.2073C85.42 64.495 85.6043 64.5848 86.0402 64.8365C86.5257 65.1107 87.3346 65.6545 87.5954 65.8837C87.6852 65.9601 87.8335 66.0861 87.9324 66.1669C88.683 66.7736 89.7077 67.9647 90.2965 68.9173C91.0785 70.1759 91.6178 71.5331 91.8965 72.9443C92.2201 74.5578 92.2291 75.9241 91.9324 77.6185C91.8066 78.3376 91.3167 79.9287 90.8493 81.1242C90.5571 81.8704 90.292 82.54 90.2066 82.7198C90.1572 82.8322 90.0223 83.1423 89.9055 83.4164C89.5594 84.212 88.5931 86.131 88.1706 86.8637C87.2088 88.5177 87.101 90.5401 87.8785 92.2213C88.0358 92.5628 88.1257 92.6706 88.247 92.6437C88.4223 92.6122 88.4223 92.4953 88.247 92.0954C87.892 91.2594 87.7706 90.7066 87.7706 89.8661C87.7706 88.8414 88.0088 87.9605 88.5302 87.0346C88.8358 86.4952 89.065 86.0638 89.4246 85.3491C89.8066 84.5851 90.2426 83.6772 90.2426 83.6368C90.2426 83.6277 90.301 83.4929 90.3729 83.3401C90.5796 82.8951 90.8403 82.2569 91.0965 81.5738C91.2268 81.2277 91.3482 80.9041 91.3661 80.8547C91.5414 80.4277 91.9864 79.0614 92.1302 78.5175C92.5751 76.7872 92.665 74.9221 92.3774 73.25C92.0627 71.4477 91.2538 69.5062 90.229 68.1085C89.5953 67.25 89.5009 67.1377 88.8762 66.5174C87.7211 65.3668 86.7458 64.6837 85.2762 63.9871C84.7594 63.7445 84.584 63.7085 84.4897 63.8208Z" fill="#286782"/>
<path d="M78.8928 63.9192C76.6321 64.2068 74.8567 64.8946 73.1849 66.135C72.6006 66.5665 71.7916 67.3215 71.3646 67.8294C70.9691 68.3013 70.3399 69.1552 70.2994 69.2766C70.286 69.317 70.2455 69.38 70.214 69.4159C70.1107 69.5418 69.5758 70.634 69.396 71.0923C69.2927 71.3441 69.1219 71.8295 69.005 72.1711C68.4567 73.816 67.6567 75.3712 66.4927 77.0699C65.9759 77.825 65.9624 77.852 65.9938 77.9509C66.0567 78.1531 66.277 78.1037 66.4478 77.8475C66.4972 77.7711 66.7399 77.416 66.9781 77.0654C67.2208 76.7103 67.4545 76.3553 67.4995 76.2789C68.5062 74.5485 69.0096 73.4608 69.522 71.9102C69.8006 71.0696 70.1647 70.2651 70.5467 69.6404C71.0501 68.827 71.4591 68.2876 72.0613 67.6674C72.6905 67.0157 73.1894 66.5977 73.913 66.1212C75.3872 65.1459 76.848 64.6021 78.6502 64.3549C79.5895 64.2246 81.185 64.2605 81.9715 64.4313C82.9513 64.6425 83.2974 64.7414 84.2098 65.074C84.5604 65.2043 85.3199 65.5863 85.7963 65.8785C87.212 66.7369 88.3626 67.847 89.2929 69.2582C89.603 69.7301 90.376 71.2087 90.376 71.3301C90.376 71.402 90.5693 71.4605 90.6682 71.42C90.8165 71.366 90.7536 71.1548 90.3221 70.256C89.7738 69.1323 89.0637 68.1525 88.1064 67.1907C86.3311 65.4064 83.9894 64.2737 81.4411 63.9548C80.9332 63.8919 79.2837 63.8693 78.8928 63.9188L78.8928 63.9192Z" fill="#286782"/>
<path d="M78.9913 64.9487C76.0069 65.2454 73.2609 66.8319 71.553 69.2589C70.8609 70.2386 70.4968 70.9712 70.0609 72.2702C69.6788 73.4028 69.4226 74.005 68.8878 75.0568C68.2406 76.3378 67.126 78.0635 66.272 79.1152C66.0069 79.4434 65.9889 79.6636 66.2271 79.6636C66.3709 79.6636 66.4338 79.5917 67.2518 78.4726C68.7395 76.441 69.7553 74.4725 70.5057 72.1891C70.708 71.5689 71.1574 70.5891 71.4631 70.0993C72.0563 69.1464 73.0676 68.0139 73.8676 67.407C74.7755 66.7148 75.8632 66.1351 76.8698 65.8025C77.4945 65.6002 77.4721 65.6047 78.4429 65.416C79.1845 65.2677 80.9194 65.2722 81.6788 65.4204C82.8698 65.6497 83.7912 65.9552 84.6406 66.4047C85.0901 66.6384 85.7867 67.0608 85.9036 67.1687C85.953 67.2136 86.0744 67.3035 86.1732 67.371C86.2721 67.4339 86.5373 67.6586 86.7665 67.8699C87.1934 68.2609 87.3597 68.3327 87.4452 68.1665C87.5126 68.0451 87.4541 67.9598 87.0946 67.6272C86.0384 66.6653 84.7395 65.8968 83.3417 65.4249C82.6406 65.1867 81.7147 65.0024 80.8474 64.9216C80.1957 64.8631 79.7732 64.8721 78.9912 64.9485L78.9913 64.9487Z" fill="#286782"/>
<path d="M79.2745 65.9569C78.4385 66.0197 77.8677 66.1366 77.0498 66.4153C76.025 66.7569 75.2115 67.1838 74.3306 67.84C74.0384 68.0602 73.9485 68.1367 73.5036 68.5637C72.3395 69.6873 71.5125 71.0491 71.0001 72.6895C70.9192 72.9412 70.5687 73.885 70.4698 74.1141C70.308 74.4827 70.2361 74.6355 69.9664 75.1929C69.4226 76.3165 68.7754 77.3997 67.9708 78.5413C67.5573 79.1302 67.472 79.247 67.3551 79.3954C67.2832 79.4807 67.0944 79.7279 66.9281 79.9392C66.7573 80.1504 66.5461 80.4156 66.4562 80.5235C66.227 80.8021 66.1776 80.9414 66.2809 81.0314C66.4068 81.1482 66.4877 81.1167 66.672 80.8876C66.7664 80.7707 66.8652 80.6539 66.8922 80.6269C67.063 80.4335 67.5933 79.7504 67.8136 79.4358C67.9259 79.2785 68.1057 79.0313 68.2181 78.8785C68.4203 78.6133 69.0001 77.7503 69.099 77.5751C69.1259 77.5256 69.2967 77.2425 69.4765 76.9458C69.8136 76.393 70.2945 75.4761 70.5417 74.9232C70.8608 74.2177 70.9102 74.1008 71.0181 73.8222C71.081 73.6603 71.2338 73.2379 71.3552 72.8784C71.6878 71.9121 71.7956 71.6424 72.0428 71.175C72.9597 69.4355 74.2946 68.1277 76.0295 67.2604C77.9666 66.2941 80.0744 66.0693 82.2589 66.5952C82.8566 66.739 82.9645 66.7344 82.996 66.5682C83.0185 66.4603 82.8926 66.33 82.7443 66.3031C82.6769 66.2896 82.4926 66.2446 82.3308 66.2042C81.787 66.0693 81.3645 66.0019 80.7577 65.9569C80.0971 65.9076 79.9127 65.9075 79.2745 65.9569Z" fill="#286782"/>
<path d="M83.5679 66.8112C83.523 66.9596 83.5949 67.0269 84.1072 67.2876C86.5701 68.5416 88.2422 70.6944 88.8669 73.4179C89.0332 74.128 89.1051 75.2921 89.0377 76.0651C88.9613 76.973 88.795 77.6876 88.404 78.8112C87.9455 80.1461 87.8961 80.2719 87.3613 81.5527C87.0107 82.3887 86.0444 84.3617 85.5455 85.2607C84.8354 86.5416 84.5028 87.5484 84.332 88.9462C84.1522 90.3934 84.4084 91.9889 85.0557 93.445C85.3028 94.0024 85.5545 94.4428 85.6714 94.5147C85.7253 94.5507 85.7703 94.5507 85.8287 94.5147C85.9815 94.4158 85.9635 94.3439 85.6085 93.7012C85.4062 93.3372 85.1051 92.5417 84.9478 91.9574C84.5073 90.3169 84.6062 88.5103 85.2354 86.8382C85.3478 86.546 85.8466 85.4988 85.923 85.3955C86.0219 85.2695 87.0152 83.319 87.2309 82.8337C87.2849 82.7078 87.3882 82.4876 87.4557 82.3393C87.5231 82.1909 87.6354 81.9393 87.7028 81.7774C87.7658 81.6157 87.8467 81.4225 87.8781 81.3505C87.941 81.2157 88.0669 80.8922 88.2871 80.3168C88.35 80.1416 88.4219 79.9617 88.4444 79.9123C88.4669 79.8628 88.5928 79.4989 88.7276 79.1033C89.4197 77.0629 89.5905 75.8537 89.4107 74.2988C89.1545 72.137 88.2377 70.2404 86.6961 68.6943C85.9096 67.9033 85.2129 67.3909 84.3141 66.9459C83.8287 66.7032 83.6129 66.6629 83.5679 66.8112Z" fill="#286782"/>
<path d="M78.9384 67.0176C78.7182 67.049 78.4575 67.094 78.3542 67.121C78.2553 67.1479 78.1024 67.1794 78.0171 67.1974C77.3788 67.3187 76.0575 67.8985 75.3653 68.3614C74.7855 68.7525 74.6911 68.8604 74.835 69.0041C74.9339 69.103 75.0911 69.0581 75.3518 68.8604C76.1788 68.2356 77.4462 67.6917 78.6148 67.4625C79.3924 67.3098 80.88 67.3322 81.6576 67.5076C82.1789 67.6198 82.3003 67.6558 82.7497 67.8221C84.5475 68.4738 86.0442 69.7277 86.997 71.3861C87.1003 71.5703 87.1858 71.7231 87.1858 71.7321C87.1858 71.7411 87.2667 71.9164 87.361 72.1231C87.6532 72.7479 87.8465 73.422 87.9948 74.3614C88.0981 75.0356 88.0217 76.3165 87.8195 77.2513C87.7071 77.7591 87.0599 79.6019 86.57 80.7884C86.1475 81.8311 85.3026 83.5885 84.8262 84.429C84.4621 85.0762 83.9453 86.1907 83.77 86.7166C83.6666 87.0222 83.5228 87.557 83.4464 87.9077C83.3296 88.474 83.3116 88.6538 83.2891 89.5976C83.2711 90.4291 83.2801 90.7616 83.3385 91.1616C83.4239 91.746 83.4599 91.8449 83.6127 91.8449C83.779 91.8449 83.8239 91.7189 83.77 91.3863C83.6262 90.4425 83.6262 89.256 83.77 88.3392C83.9453 87.2291 84.3768 86.0606 85.0779 84.811C85.4644 84.1143 86.179 82.6761 86.5116 81.9346C87.397 79.939 88.0802 78.0019 88.3184 76.8111C88.4487 76.1459 88.4622 74.7076 88.3408 74.0244C88.1476 72.9637 87.7835 71.9525 87.2667 71.058C85.9678 68.8244 83.5678 67.2828 80.9295 66.9953C80.3632 66.9323 79.4508 66.9412 78.9384 67.0176Z" fill="#286782"/>
<path d="M79.1185 68.0232C78.6421 68.0772 77.8107 68.2884 77.2938 68.4952C75.4466 69.2277 73.9364 70.7514 73.1903 72.6344C73.015 73.0839 72.9925 73.2412 73.0959 73.3267C73.2352 73.4436 73.3565 73.3177 73.5184 72.8952C74.3094 70.7962 76.0847 69.1737 78.2015 68.6119C78.8352 68.4455 79.3431 68.3827 80.0981 68.3827C81.2127 68.3827 82.1521 68.6029 83.1634 69.1063C84.8038 69.9242 86.1027 71.4298 86.6779 73.1918C86.9387 73.9873 87.024 74.6705 86.9926 75.6278C86.9656 76.4637 86.9207 76.6885 86.5701 77.8121C86.4263 78.266 86.3364 78.6255 86.3544 78.675C86.3723 78.7379 86.4218 78.7648 86.5117 78.7648C86.6645 78.7648 86.7544 78.6165 86.8892 78.1581C86.9341 78.0098 86.9971 77.8121 87.033 77.7132C87.2532 77.1244 87.406 76.185 87.406 75.3716C87.4105 73.857 86.9791 72.4412 86.1206 71.1603C85.8599 70.7693 85.3071 70.1445 84.961 69.8434C84.7139 69.6277 83.8824 69.0119 83.8419 69.0119C83.8285 69.0119 83.7206 68.9535 83.6037 68.8862C83.3476 68.7378 82.6284 68.4232 82.3094 68.3199C81.6442 68.1042 81.1048 68.0188 80.2869 68.0007C79.8419 67.9918 79.3163 68.0008 79.1185 68.0232Z" fill="#286782"/>
<path d="M88.0702 69C87.9893 69.0764 88.0657 69.2607 88.3894 69.755C88.9422 70.6091 89.4275 71.6382 89.6792 72.4965C89.7197 72.645 89.7736 72.8157 89.7961 72.8786C89.8141 72.9416 89.8545 73.1123 89.8815 73.2607C90.0208 74.0113 90.0657 74.4067 90.0882 75.1034C90.1107 75.7461 90.1017 75.9798 90.0163 76.564C89.9175 77.2922 89.7557 78.0247 89.6163 78.4202C89.5669 78.5506 89.4815 78.8158 89.4186 79.0135C89.1939 79.7282 88.6905 81.054 88.3309 81.8899C87.9399 82.7932 87.6837 83.3416 87.2882 84.1371C87.0275 84.654 86.8028 85.099 86.7803 85.1259C86.7624 85.1484 86.6185 85.4136 86.4658 85.7103C86.3084 86.0069 86.1331 86.3349 86.0792 86.4428C85.7241 87.108 85.432 88.1866 85.3331 89.1754C85.2747 89.7957 85.3241 90.7755 85.4545 91.3957C85.5759 91.9844 85.886 92.8518 86.1691 93.3957C86.4613 93.9575 86.5467 94.0565 86.6815 93.9755C86.8163 93.8901 86.7939 93.7553 86.5646 93.3013C86.1556 92.4923 85.9759 91.9755 85.8096 91.1485C85.7107 90.6406 85.6927 89.1484 85.7826 88.699C85.9309 87.9754 86.0612 87.5124 86.2635 87.0361C86.4298 86.6406 86.6635 86.1507 86.7938 85.935C87.2208 85.2112 88.1331 83.3686 88.5646 82.3618C88.6006 82.2765 88.6455 82.173 88.6635 82.1372C88.6995 82.0652 88.9916 81.3416 89.2702 80.6315C89.3556 80.4068 89.5085 79.9842 89.6118 79.6876C90.2995 77.6832 90.4747 76.8292 90.4747 75.3775C90.4792 74.2629 90.4118 73.7282 90.1512 72.7168C89.9264 71.8494 89.6972 71.2652 89.2657 70.4517C89.0096 69.9618 88.5197 69.1842 88.3804 69.0449C88.304 68.9685 88.1242 68.9416 88.0702 69Z" fill="#286782"/>
<path d="M78.9528 69.084C78.2247 69.1962 76.9663 69.7042 76.4719 70.0817C76.3865 70.1492 76.2337 70.2615 76.1349 70.3335C75.9101 70.4952 75.3034 71.1109 75.0382 71.439C74.6023 71.9919 74.2157 72.7469 73.9281 73.6188C73.3798 75.3087 72.5663 77.0528 71.5865 78.6392C71.0876 79.4482 70.9752 79.6145 70.4673 80.3291C69.8965 81.1426 69.8426 81.21 69.4561 81.7044C69.3078 81.8976 69.1369 82.1178 69.074 82.1988C68.9392 82.3741 68.6111 82.7696 68.4403 82.9673C68.3729 83.0393 68.2246 83.2146 68.1077 83.3493C67.9863 83.4842 67.7571 83.7494 67.5908 83.9337C67.1144 84.464 67.0515 84.5493 67.0515 84.6483C67.0515 84.6977 67.092 84.7606 67.1414 84.7876C67.2583 84.8505 67.3751 84.7877 67.5639 84.5719C67.6403 84.482 67.7347 84.3786 67.7707 84.3381C68.2785 83.8079 69.7842 81.9785 70.3235 81.2368C70.4045 81.1245 70.5392 80.9447 70.6202 80.8324C71.1864 80.0594 72.0134 78.7513 72.5932 77.7088C72.8853 77.1786 73.7033 75.4705 73.7033 75.3852C73.7033 75.3672 73.7438 75.2638 73.7932 75.1559C73.9011 74.9222 74.1033 74.3694 74.3281 73.6863C74.6876 72.6076 75.155 71.8255 75.8562 71.1245C76.6292 70.3604 77.5551 69.8346 78.6248 69.5559C78.899 69.4841 79.7574 69.3716 80.0136 69.3716C80.2878 69.3716 81.1327 69.4796 81.4519 69.5559C82.6518 69.8345 83.9733 70.6884 84.7192 71.6638C84.8046 71.7761 84.935 71.9334 85.0159 72.0143C85.1372 72.1402 85.1732 72.1537 85.2541 72.1132C85.4069 72.0323 85.3664 71.8525 85.1102 71.5064C84.3057 70.4278 82.9978 69.5559 81.6674 69.2098C80.8944 69.0077 79.7843 68.9536 78.9528 69.084Z" fill="#286782"/>
<path d="M79.5888 70.0319C78.8652 70.1487 78.663 70.1938 78.3619 70.2926C77.4046 70.6027 76.5596 71.1915 75.9079 71.996C75.4315 72.5937 75.2023 73.0252 74.9281 73.8657C74.7259 74.4859 74.573 74.9085 74.4427 75.2141C74.3483 75.4433 74.209 75.7713 74.0247 76.2253C73.8449 76.6567 72.964 78.3512 72.5955 78.9668C72.0202 79.9196 71.3236 80.9579 70.7527 81.7083C69.6066 83.205 69.0808 83.8343 67.5751 85.4838C67.3999 85.6725 67.3729 85.7669 67.4628 85.8568C67.5931 85.9871 67.7145 85.9107 68.1864 85.4028C68.5909 84.9714 69.3056 84.1579 69.7505 83.6185C69.8224 83.5331 69.9977 83.3174 70.1415 83.1466C70.2853 82.9713 70.5685 82.6207 70.7662 82.3601C72.5416 80.041 73.809 77.8611 74.7798 75.4387C74.8337 75.3039 74.9056 75.1287 74.9371 75.0567C74.9685 74.9803 75.1123 74.5803 75.2517 74.1579C75.5348 73.3218 75.5798 73.214 75.9303 72.6521C76.209 72.1982 76.8113 71.5735 77.2517 71.2814C77.5753 71.0656 78.1641 70.7735 78.5101 70.6566C79.0944 70.4588 79.9124 70.3735 80.5461 70.4409C80.7664 70.4633 80.9821 70.4768 81.027 70.4633C81.1349 70.4364 81.1753 70.2701 81.0945 70.1802C80.9821 70.0588 80.0113 69.96 79.5888 70.0319Z" fill="#286782"/>
<path d="M81.6937 70.4736C81.6533 70.5681 81.6577 70.5995 81.7252 70.6759C81.7701 70.7254 81.8285 70.7658 81.8555 70.7658C81.9454 70.7658 82.6195 71.1299 82.9162 71.3411C83.6982 71.8939 84.4083 72.8467 84.7095 73.7546C84.8533 74.1905 84.9836 74.9275 84.9836 75.3006C84.9836 75.6422 84.8982 76.2445 84.8038 76.6175C84.5926 77.4354 83.7881 79.5479 83.2218 80.7885C83.0061 81.2603 82.0578 83.139 81.9724 83.2605C81.7701 83.5571 81.3297 84.474 81.0285 85.2381C80.8623 85.6515 80.5791 86.6223 80.4667 87.1706C80.2959 87.9751 80.2196 88.6494 80.1926 89.5527C80.1432 91.0808 80.3724 92.5551 80.9027 94.1146C81.078 94.636 81.6038 95.782 81.7297 95.9303C81.8151 96.0292 81.842 96.0382 81.9454 95.9887C82.0982 95.9214 82.0938 95.836 81.9094 95.4585C81.7791 95.1888 81.6982 95.0179 81.5229 94.609C81.3926 94.3079 81.2128 93.8089 81.1454 93.5753C81.1005 93.427 81.051 93.2561 81.0286 93.1932C80.9521 92.973 80.7364 91.9079 80.66 91.3731C80.5791 90.8292 80.5836 88.8382 80.66 88.3616C80.9117 86.856 81.1454 85.9661 81.5454 85.0131C81.7117 84.6131 82.4263 83.1748 82.4712 83.1479C82.5207 83.1165 83.1095 81.9658 83.478 81.1704C83.9724 80.1141 84.3634 79.1613 84.8038 77.9028C85.2533 76.6353 85.3072 76.3837 85.3342 75.5297C85.3477 75.0534 85.3342 74.6759 85.2982 74.4735C85.1274 73.5073 84.7499 72.6713 84.1611 71.9747C83.6263 71.3319 83.1229 70.9319 82.4218 70.5814C81.9184 70.3296 81.7701 70.3073 81.6937 70.4736Z" fill="#286782"/>
<path d="M79.3416 71.0976C78.573 71.2459 77.9348 71.529 77.3955 71.9605C76.6269 72.5718 76.2628 73.1246 75.8898 74.2257C75.4089 75.6459 75.1348 76.3157 74.51 77.5742C73.9572 78.6887 73.8224 78.9358 73.3819 79.646C73.0718 80.1449 73.0044 80.3606 73.1392 80.4101C73.31 80.4775 73.4089 80.3831 73.7235 79.8618C73.8988 79.5696 74.0561 79.2999 74.0741 79.264C74.092 79.2235 74.1909 79.0483 74.2898 78.8775C74.91 77.8033 75.764 75.8753 76.1775 74.6122C76.2988 74.2391 76.4741 73.7852 76.564 73.6008C76.7438 73.2369 77.1168 72.747 77.4359 72.4458C78.2943 71.6458 79.5483 71.2907 80.7347 71.5064C81.6067 71.6637 82.2673 72.0323 82.91 72.7244C83.355 73.2008 83.6381 73.7177 83.8448 74.4278C83.9527 74.8099 83.9527 75.893 83.8404 76.2705C83.71 76.7109 83.3774 77.6817 83.2291 78.0684C83.1527 78.2661 83.0718 78.4773 83.0493 78.5402C83.0044 78.6886 82.7527 79.2909 82.4785 79.9335C82.2134 80.5402 81.3819 82.2211 81.1257 82.6616C80.5369 83.6729 79.9346 85.0885 79.674 86.0684C79.4044 87.1021 79.3684 87.4123 79.5122 87.5021C79.656 87.5965 79.7414 87.4797 79.8448 87.0302C80.2268 85.4347 80.6268 84.3964 81.4313 82.9224C82.5819 80.8234 83.4044 78.9312 84.0382 76.9447C84.3214 76.0548 84.3888 75.5649 84.3124 74.8997C84.0652 72.7244 82.3483 71.1334 80.1731 71.0571C79.8495 71.0435 79.5393 71.0572 79.3416 71.0976Z" fill="#286782"/>
<path d="M79.2743 72.1632C78.1148 72.4554 77.2923 73.2554 76.8788 74.4959C76.3215 76.1453 76.0248 76.8644 75.3147 78.2802C75.0136 78.8824 74.1417 80.4151 73.809 80.9228C73.2068 81.8487 72.2854 83.1207 71.5933 83.9792C70.9191 84.8197 69.7596 86.1635 69.2292 86.7207C68.5415 87.4444 68.3079 87.7096 68.3079 87.7725C68.3079 87.8355 68.4247 87.9793 68.4696 87.9793C68.5281 87.9792 68.6899 87.8669 68.7977 87.759C69.3775 87.1612 70.6225 85.7724 71.382 84.878C72.1731 83.9431 73.3326 82.3834 74.0472 81.2823C74.8742 80.0149 75.881 78.1362 76.4203 76.8553C76.5371 76.5811 76.654 76.2979 76.69 76.2261C76.7529 76.0778 76.9686 75.4755 77.2293 74.698C77.5259 73.8261 77.854 73.3586 78.4518 72.9587C79.2338 72.4373 80.3125 72.3249 81.1304 72.6799C81.7642 72.9587 82.3305 73.4844 82.6136 74.0552C82.8114 74.4507 82.8698 74.6979 82.9013 75.2237C82.9327 75.7765 82.8024 76.2934 82.2586 77.7406C82.1417 78.0463 82.0248 78.3653 81.9889 78.4552C81.7147 79.2013 80.4788 81.7991 80.1462 82.3249C79.9799 82.5811 79.5439 83.4756 79.3282 83.979C78.2225 86.6037 77.872 89.5115 78.3305 92.2533C78.4024 92.6892 78.4832 93.1027 78.5102 93.1658C78.5327 93.2331 78.5552 93.3365 78.5552 93.3904C78.5552 93.6467 79.0631 95.1433 79.3732 95.7859C79.5215 96.1006 79.5664 96.159 79.6563 96.159C79.7192 96.159 79.7867 96.1186 79.8136 96.0691C79.8541 95.9927 79.8226 95.8804 79.6563 95.4713C79.4271 94.914 79.1799 94.2129 79.072 93.7994C78.9192 93.2286 78.8158 92.8017 78.7799 92.5635C78.7574 92.4286 78.708 92.1139 78.6675 91.8668C78.5642 91.2061 78.5057 89.7498 78.5552 88.9993C78.6765 87.152 79.1035 85.4353 79.8675 83.7406C80.0743 83.2777 80.2002 83.035 80.6451 82.226C81.4316 80.8013 82.2361 79.0081 82.7665 77.5069C83.2788 76.0462 83.2968 75.9788 83.2968 75.3046C83.2968 74.7159 83.2339 74.4417 82.9867 73.9113C82.6496 73.1968 81.926 72.5406 81.1619 72.262C80.6271 72.0641 79.8316 72.0194 79.2743 72.1632Z" fill="#286782"/>
<path d="M85.4784 72.6312C85.4335 72.6852 85.429 72.7345 85.4695 72.8469C85.4964 72.9278 85.5818 73.1705 85.6582 73.3953C85.8919 74.0694 85.9728 74.5683 85.9728 75.3368C85.9728 76.3255 85.838 76.9144 85.2178 78.6087C84.8807 79.5256 84.3908 80.7436 84.3099 80.856C84.2964 80.8784 84.2515 80.9728 84.22 81.0582C84.1391 81.2694 83.1908 83.175 83.011 83.4853C82.7773 83.8897 82.2155 85.0179 82.1301 85.2606C82.0851 85.382 82.0312 85.5033 82.0177 85.5303C81.9143 85.6741 81.5773 86.8516 81.4379 87.5527C81.2492 88.5056 81.2357 88.6674 81.2312 89.8224C81.2312 91.1303 81.2761 91.5169 81.5503 92.6988C81.82 93.8359 82.5885 95.6427 82.8537 95.7641C82.9526 95.8136 82.9795 95.8045 83.0335 95.7326C83.0694 95.6877 83.0964 95.6203 83.0964 95.5888C83.0964 95.5574 82.984 95.3102 82.8537 95.0406C81.9998 93.3371 81.6132 91.755 81.6132 89.9214C81.6132 88.9865 81.6581 88.4696 81.8155 87.6651C82.0851 86.2899 82.4896 85.2426 83.3661 83.6651C83.7166 83.0313 84.3998 81.6515 84.6694 81.0359C84.7953 80.7392 84.9436 80.4067 84.993 80.2942C85.0425 80.1819 85.1548 79.9077 85.2358 79.6875C85.3212 79.4628 85.4065 79.2426 85.429 79.1932C85.4964 79.0448 85.6852 78.51 85.9054 77.8447C86.3369 76.528 86.3549 76.4245 86.3549 75.283C86.3504 74.3975 86.3459 74.3122 86.229 73.8897C86.0852 73.3639 85.856 72.7526 85.7571 72.6403C85.6717 72.546 85.5548 72.5414 85.4784 72.6312Z" fill="#286782"/>
<path d="M90.9552 72.9936C90.9103 73.0519 90.9148 73.1733 91.0047 73.7171C91.1485 74.6115 91.1485 75.9688 91.0092 76.8993C90.8968 77.6229 90.6676 78.5847 90.5103 78.9668C90.4924 79.0162 90.38 79.3397 90.2631 79.6858C89.8002 81.0522 88.9373 83.1869 88.5867 83.8251C88.5598 83.8701 88.3935 84.2027 88.2182 84.5623C87.8496 85.2993 87.4406 86.0813 87.2923 86.315C87.0766 86.6656 86.735 87.4926 86.5912 88.023C86.3934 88.742 86.3664 88.9173 86.344 89.6904C86.3215 90.3645 86.3305 90.4904 86.4383 91.0478C86.6002 91.8747 86.8968 92.6837 87.2384 93.2365C87.3597 93.4298 87.589 93.3803 87.589 93.1645C87.589 93.1061 87.4991 92.8815 87.3912 92.6657C87.153 92.1937 86.9463 91.6005 86.8384 91.0792C86.7126 90.4949 86.726 89.1465 86.8609 88.5443C87.0452 87.7218 87.198 87.3443 87.8766 86.0949C88.6047 84.742 89.4856 82.8947 89.8631 81.9196C89.9261 81.7532 90.0204 81.5195 90.0699 81.3937C90.2991 80.8364 90.8654 79.2139 91.0676 78.5397C91.18 78.1577 91.3822 77.2094 91.4272 76.8319C91.5126 76.1622 91.5396 75.2499 91.4991 74.6386C91.4407 73.8432 91.3328 73.1599 91.2474 73.0206C91.171 72.9037 91.0406 72.8901 90.9552 72.9936Z" fill="#286782"/>
<path d="M79.4592 73.1689C78.9782 73.3036 78.5603 73.5868 78.2636 73.9778C78.0569 74.252 78.0299 74.315 77.7872 75.0251C77.6614 75.3891 77.5445 75.7262 77.522 75.7756C77.5041 75.825 77.4276 76.0184 77.3602 76.2026C77.2434 76.5306 77.0951 76.8767 76.7715 77.6184C76.5782 78.0588 75.9625 79.2948 75.7917 79.6004C74.5962 81.6903 73.7692 82.9037 72.232 84.823C71.9264 85.2005 71.6792 85.5195 71.6792 85.533C71.6792 85.623 71.7871 85.7308 71.877 85.7308C71.9893 85.7308 72.286 85.4207 72.7579 84.8095C72.8927 84.6343 73.104 84.3645 73.2343 84.2028C73.7736 83.5285 75.4995 81.0163 75.4995 80.9037C75.4995 80.8948 75.6118 80.7015 75.7467 80.4769C75.8815 80.2476 75.9939 80.0543 75.9939 80.0454C75.9939 80.0364 76.0568 79.9195 76.1332 79.7891C76.4703 79.2184 77.0051 78.1082 77.4411 77.0565C77.8276 76.1351 77.868 76.0317 78.0433 75.5058C78.331 74.652 78.3669 74.5531 78.4388 74.4138C78.5332 74.2294 78.8838 73.8878 79.1175 73.7485C79.895 73.2946 80.9108 73.4879 81.4816 74.1935C81.8681 74.6789 81.9805 75.3216 81.7872 75.9598C81.603 76.5666 81.2928 77.4294 80.9782 78.225C80.8389 78.5666 80.8119 78.634 80.6052 79.0879C80.5423 79.2273 80.4883 79.3575 80.4883 79.3711C80.4883 79.4115 79.7602 80.8676 79.4411 81.4699C79.3018 81.7351 79.185 81.9823 79.185 82.0183C79.185 82.1126 79.3468 82.1936 79.4591 82.1576C79.5086 82.1396 79.585 82.0542 79.6254 81.9643C79.6658 81.8699 79.7333 81.7486 79.7737 81.6857C79.8501 81.5733 80.4884 80.3058 80.749 79.753C80.9962 79.2273 81.2389 78.6609 81.4232 78.18C82.3086 75.8698 82.3985 75.4608 82.1962 74.7329C82.0434 74.1755 81.7693 73.798 81.3063 73.4924C81.1401 73.3845 80.9153 73.2632 80.8029 73.2182C80.5198 73.1059 79.7783 73.0789 79.4592 73.1689Z" fill="#286782"/>
<path d="M79.8817 74.1216C79.585 74.189 79.3019 74.3418 79.1445 74.5215C79.0052 74.6788 78.9243 74.8497 78.7625 75.3395C78.5243 76.0317 78.2727 76.7148 78.1558 76.989C77.7468 77.9149 77.7288 78.0497 77.985 78.0812C78.0794 78.0947 78.1153 78.0677 78.1872 77.9238C78.376 77.5554 78.8479 76.3373 79.1176 75.5283C79.3558 74.8047 79.4412 74.7013 79.8817 74.5396C80.0884 74.4632 80.4075 74.5575 80.6187 74.7643C80.9828 75.1148 80.9558 75.3395 80.4075 76.8542C80.1064 77.6722 79.9536 78.0587 79.7244 78.5621C79.6434 78.7328 79.5401 78.9666 79.4906 79.079C79.3109 79.4789 78.5198 81.043 78.3041 81.4161C78.1828 81.6273 78.0165 81.9284 77.94 82.0901C77.8637 82.2521 77.7378 82.5127 77.6569 82.6745C77.5086 82.9802 77.1086 83.9869 76.9962 84.3374C76.8389 84.8364 76.5333 85.9105 76.4883 86.1577C76.4569 86.306 76.4075 86.5667 76.3715 86.742C76.0703 88.2836 76.003 90.6657 76.2187 92.0589C76.4434 93.5106 76.7535 94.7556 77.0951 95.6049C77.1626 95.7713 77.1895 95.7982 77.3019 95.7982C77.4996 95.7982 77.5086 95.65 77.3513 95.16C76.9962 94.0768 76.785 93.1914 76.6681 92.3376C76.6412 92.1264 76.5962 91.8342 76.5692 91.6859C76.4928 91.2455 76.4704 89.1105 76.5333 88.45C76.6951 86.7195 77.1041 85.0612 77.7692 83.4297C78.0209 82.823 78.4255 81.9869 78.6816 81.551C79.0322 80.9622 79.7873 79.4207 80.2547 78.3374C80.4075 77.9778 81.0187 76.3285 81.158 75.8834C81.3513 75.2722 81.239 74.7643 80.83 74.4227C80.5513 74.189 80.1423 74.0587 79.8817 74.1216Z" fill="#286782"/>
<path d="M79.9129 75.2279C79.8859 75.2593 79.7421 75.6369 79.5893 76.0683C79.4365 76.4998 79.2208 77.0842 79.1084 77.3628C78.9107 77.8706 78.8927 78.01 79.0365 78.0638C79.1129 78.0953 79.3197 77.983 79.3197 77.9111C79.3197 77.8841 79.3601 77.7807 79.4096 77.6729C79.6972 77.0481 80.2185 75.547 80.2185 75.3447C80.2185 75.183 80.0163 75.102 79.9129 75.2279Z" fill="#286782"/>
<path d="M93.1441 76.7063C93.1081 76.7647 93.0587 76.994 93.0317 77.2233C92.9733 77.6997 92.8025 78.4862 92.6407 79.0345C92.5014 79.493 92.1553 80.5401 92.0924 80.6975C92.0654 80.7603 91.989 80.9626 91.9261 81.1469C91.7823 81.5379 91.3373 82.7019 91.2744 82.8323C91.2519 82.8817 91.1441 83.1244 91.0362 83.3716C90.7081 84.1177 90.6317 84.2841 90.353 84.8773C90.0339 85.5335 89.3823 86.7965 89.0677 87.3536C88.8159 87.7985 88.6092 88.3424 88.4834 88.8683C88.389 89.2773 88.362 90.3695 88.4384 90.6705C88.6856 91.6189 88.771 91.8122 88.9508 91.8346C89.1441 91.857 89.1755 91.7043 89.0407 91.3492C88.7755 90.6391 88.7081 89.902 88.8384 89.1425C88.9508 88.4862 89.1351 88.0368 89.6654 87.102C89.8856 86.7154 90.8834 84.702 91.1261 84.1581C92.1867 81.794 92.9913 79.4974 93.3104 77.9558C93.4946 77.0614 93.5216 76.6794 93.4047 76.6345C93.2789 76.585 93.2115 76.6074 93.1441 76.7063Z" fill="#286782"/>
<path d="M77.5945 78.384C77.5586 78.4245 77.3653 78.7705 77.172 79.1615C76.9743 79.5481 76.7406 79.9975 76.6507 80.1502C76.5608 80.3076 76.4889 80.447 76.4889 80.4559C76.4889 80.4649 76.3945 80.6267 76.2777 80.82C75.536 82.047 74.8035 83.1616 74.2417 83.9078C74.0574 84.1504 73.8731 84.3932 73.8372 84.4471C73.7518 84.5729 73.1091 85.3865 72.9023 85.6382C71.9495 86.7887 70.8618 88.0023 69.7158 89.1933C69.5001 89.4181 69.3428 89.6159 69.3428 89.6652C69.3428 89.7776 69.4237 89.8675 69.5271 89.8675C69.6124 89.8675 70.4079 89.0674 71.4102 87.9798C71.4866 87.8944 71.8597 87.4674 72.2327 87.0359C72.6058 86.6045 72.9204 86.2404 72.9383 86.2269C73.0687 86.119 74.7047 83.9752 75.1541 83.3234C76.044 82.0336 76.898 80.5999 77.5137 79.373C77.9182 78.5684 77.9317 78.5235 77.8553 78.4111C77.7744 78.2988 77.689 78.2898 77.5946 78.3842L77.5945 78.384Z" fill="#286782"/>
<path d="M93.7343 79.0704C93.6894 79.1154 93.6579 79.1782 93.6579 79.2052C93.6579 79.2727 93.195 80.6615 92.9163 81.4389C92.7995 81.758 92.6872 82.0817 92.6602 82.1581C92.6332 82.23 92.5972 82.3109 92.5793 82.3378C92.5613 82.3603 92.5298 82.4321 92.5118 82.4951C92.4939 82.5581 92.2692 83.0929 92.0174 83.6861C91.3927 85.1379 90.8804 86.1805 89.9995 87.7985C89.6849 88.3739 89.55 88.7514 89.4557 89.2683C89.3702 89.7626 89.3702 89.9335 89.4557 90.4323C89.5321 90.8683 89.5725 90.9447 89.7298 90.9447C89.8781 90.9447 89.8961 90.8368 89.8377 90.2975C89.7433 89.4525 89.9006 88.7739 90.3815 87.92C90.7186 87.3221 90.8264 87.1243 91.222 86.3378C92.0174 84.7558 92.5253 83.6008 93.1905 81.8659C93.4512 81.1827 94.0624 79.3176 94.0624 79.2141C94.0579 79.1198 93.95 78.9894 93.8736 78.9895C93.8377 78.9895 93.7748 79.0255 93.7343 79.0704Z" fill="#286782"/>
<path d="M86.0712 79.3728C86.0217 79.4357 85.9229 79.6334 85.8554 79.8132C85.379 81.0896 84.5521 82.8245 83.6127 84.5189C83.5094 84.7032 83.3925 84.937 83.3476 85.0359C83.3071 85.1347 83.2442 85.265 83.2128 85.3279C83.1768 85.3909 83.1004 85.5706 83.0374 85.7324C82.4532 87.2516 82.2419 88.3482 82.2419 89.8628C82.2419 91.773 82.6599 93.3731 83.6397 95.2156C83.7296 95.3819 83.7745 95.4223 83.8914 95.4313C84.1431 95.4584 84.1296 95.3055 83.8285 94.7167C83.0959 93.2786 82.7364 91.9661 82.6509 90.4426C82.5745 89.0133 82.7633 87.6694 83.2352 86.339C83.5094 85.5705 83.5948 85.3952 84.4577 83.7907C84.7228 83.3008 84.9655 82.8379 85.0015 82.7569C85.033 82.6761 85.1678 82.384 85.2981 82.1143C85.6802 81.3098 85.788 81.0625 86.0622 80.3839C86.4307 79.4805 86.4217 79.512 86.3633 79.3906C86.2869 79.2423 86.179 79.2334 86.0712 79.3728Z" fill="#286782"/>
<path d="M78.0265 79.836C77.9771 79.8764 77.8557 80.0652 77.7568 80.2494C77.5141 80.7079 76.8984 81.7821 76.8355 81.8675C76.804 81.9035 76.7411 82.0068 76.6961 82.0922C76.4085 82.6091 75.0692 84.5328 74.4354 85.3327C74.2736 85.5305 74.2512 85.6474 74.35 85.7327C74.5073 85.8585 74.6152 85.7642 75.1321 85.081C75.6894 84.335 75.7523 84.254 76.3006 83.4405C76.822 82.6675 77.168 82.1101 77.6804 81.2158C78.3861 79.9887 78.413 79.9168 78.2018 79.8044C78.1343 79.7685 78.0939 79.7731 78.0265 79.836Z" fill="#286782"/>
<path d="M72.816 80.6567C72.7576 80.6747 72.6227 80.832 72.5149 80.9983C72.4025 81.1647 72.2137 81.4432 72.0879 81.6186C71.9665 81.7893 71.7868 82.0455 71.6969 82.1804C71.6025 82.3151 71.4632 82.495 71.3868 82.5849C71.3104 82.6702 71.1486 82.8725 71.0272 83.0343C70.443 83.8029 69.0047 85.4659 68.1643 86.3422C67.944 86.5759 67.8586 86.6973 67.8586 86.7827C67.8586 86.9175 68.0115 87.0029 68.1373 86.9399C68.3216 86.8411 70.5824 84.2701 71.2743 83.3713C71.3867 83.223 71.5575 83.0028 71.6564 82.8814C71.8541 82.6297 72.1193 82.2702 72.3305 81.9645C72.4069 81.8567 72.6002 81.5736 72.7665 81.3354C72.9373 81.0972 73.0721 80.8544 73.0721 80.8005C73.0721 80.6746 72.9463 80.6073 72.816 80.6567Z" fill="#286782"/>
<path d="M78.2472 84.0552C78.1304 84.1541 77.8607 84.9362 77.6181 85.8889C77.2675 87.2464 77.1236 88.3744 77.1191 89.7541C77.1191 91.8665 77.4068 93.4847 78.1753 95.6149C78.3192 96.0149 78.5079 96.1678 78.6518 95.9969C78.7012 95.934 78.6832 95.8532 78.5394 95.4486C77.9102 93.6958 77.672 92.6037 77.5461 90.8778C77.3978 88.8822 77.645 86.9678 78.3147 84.9182C78.5214 84.28 78.5484 84.1227 78.4585 84.0328C78.3866 83.9609 78.3596 83.9653 78.2472 84.0552Z" fill="#286782"/>
<path d="M75.9576 84.36C75.9037 84.4275 75.8543 84.5129 75.8408 84.5533C75.688 85.0747 75.5846 85.5331 75.5981 85.632C75.6071 85.7219 75.6385 85.7578 75.7239 85.7669C75.8812 85.7803 75.9487 85.7264 75.9936 85.5466C76.0116 85.4612 76.0745 85.232 76.1329 85.0343C76.2677 84.5669 76.2677 84.3915 76.1464 84.3061C76.0565 84.2477 76.0385 84.2522 75.9576 84.36Z" fill="#286782"/>
<path d="M92.4984 85.2192C92.4445 85.255 92.3995 85.309 92.3995 85.3314C92.3995 85.4214 91.3613 87.4619 90.8849 88.3067C90.6467 88.7247 90.4445 89.327 90.4849 89.4888C90.5119 89.5832 90.5389 89.6011 90.6557 89.5876C90.7906 89.5741 90.804 89.5561 90.9433 89.1696C91.0198 88.9448 91.2534 88.4596 91.4557 88.091C91.9681 87.1606 92.7546 85.5741 92.7906 85.4167C92.8175 85.2773 92.7501 85.147 92.6512 85.147C92.6243 85.147 92.5523 85.1787 92.4984 85.2192Z" fill="#286782"/>
<path d="M73.4783 86.5536C73.4424 86.585 73.1143 86.9491 72.7547 87.3716C71.9997 88.248 71.6131 88.675 70.6603 89.6817C69.9682 90.4054 69.8873 90.5358 70.0581 90.6301C70.2289 90.72 70.1659 90.7694 71.2536 89.6233C71.6491 89.2009 72.0221 88.8054 72.0851 88.7424C72.7952 87.9919 73.793 86.7918 73.793 86.6884C73.793 86.5176 73.6177 86.4413 73.4783 86.5536Z" fill="#286782"/>
<path d="M75.4009 86.6616C75.2391 86.8504 75.0503 88.5898 75.0503 89.9066C75.0503 91.4482 75.329 93.3806 75.7649 94.8549C75.8908 95.2685 75.9807 95.4393 76.084 95.4393C76.102 95.4393 76.1514 95.3988 76.1964 95.3493C76.2863 95.2504 76.2953 95.2954 76.0481 94.3605C75.8863 93.7359 75.7335 92.9808 75.5897 92.0999C75.4997 91.5291 75.4458 90.2571 75.4728 89.3267C75.4997 88.4233 75.5312 88.0772 75.6526 87.2143C75.702 86.8503 75.702 86.7739 75.6481 86.6839C75.5762 86.5626 75.4907 86.5583 75.4009 86.6616Z" fill="#286782"/>
<path d="M74.1792 87.3144C73.3252 88.3302 72.2825 89.4808 71.1993 90.5954C70.8712 90.9371 70.6016 91.2427 70.6016 91.2742C70.6016 91.3056 70.6285 91.3686 70.66 91.4179C70.7993 91.6022 70.9072 91.5033 72.9162 89.3729C73.0646 89.2112 73.3702 88.874 73.5859 88.6223C73.8061 88.3707 74.0039 88.173 74.0219 88.1864C74.0443 88.1999 74.0623 88.8291 74.0578 89.5887C74.0578 90.3483 74.0668 91.1213 74.0848 91.3056C74.1388 91.9663 74.2915 93.1078 74.3769 93.4853C74.6107 94.5414 74.6601 94.7213 74.7365 94.7888C74.7904 94.8381 74.8533 94.8517 74.9118 94.8337C75.0601 94.7888 75.0511 94.5955 74.8623 93.8898C74.8354 93.7909 74.7994 93.6067 74.7814 93.4853C74.759 93.3594 74.7005 92.9999 74.6511 92.6763C74.4399 91.3909 74.3679 89.692 74.4758 88.5774C74.5073 88.2628 74.5343 87.8313 74.5343 87.6201V87.238L74.3994 87.2246C74.305 87.2156 74.2376 87.2426 74.1792 87.3144Z" fill="#286782"/>
<path d="M79.2264 88.7713C79.1366 88.8791 79.1501 90.7533 79.2489 91.5082C79.4152 92.7757 79.6264 93.6116 80.1523 95.0364C80.2692 95.3601 80.6107 96.0477 80.6827 96.1061C80.7231 96.1421 80.795 96.1556 80.8445 96.1376C81.0153 96.0836 80.9973 95.9353 80.7815 95.4679C79.9501 93.6926 79.5186 91.6253 79.55 89.6206C79.5545 89.225 79.5455 88.8565 79.5276 88.7981C79.4871 88.6812 79.3163 88.6633 79.2264 88.7713Z" fill="#286782"/>
<path d="M72.4968 90.7296C72.1597 91.0802 71.7552 91.4937 71.6024 91.6511C71.2833 91.9837 71.2249 92.1005 71.3462 92.1903C71.3912 92.2219 71.4586 92.2488 71.499 92.2488C71.5395 92.2488 71.8721 91.9431 72.2406 91.5746C72.6047 91.2015 72.9283 90.9049 72.9553 90.9139C72.9822 90.9229 73.0182 91.0714 73.0406 91.2421C73.0586 91.4128 73.1036 91.8264 73.1395 92.159C73.18 92.4916 73.2384 92.9589 73.2788 93.1926C73.4092 93.9926 73.4676 94.1274 73.6788 94.0736C73.8002 94.042 73.8047 94.0376 73.7732 93.7634C73.7598 93.6106 73.7283 93.3813 73.7013 93.26C73.6609 93.0488 73.6294 92.8331 73.5216 92.0241C73.4946 91.8398 73.4541 91.3588 73.4317 90.9544C73.3732 89.8577 73.3463 89.8532 72.4968 90.7296Z" fill="#286782"/>
<path d="M83.7551 92.5943C83.6383 92.7066 83.8315 93.2953 84.3079 94.2572C84.6046 94.8549 84.69 94.9942 84.7844 95.0167C84.9327 95.0527 85.0405 94.9583 85.0136 94.8145C85.0001 94.7515 84.9102 94.5539 84.8158 94.383C84.5911 93.974 84.3394 93.4122 84.2136 93.0527C84.1596 92.8954 84.0832 92.7201 84.0473 92.6616C83.9844 92.5672 83.8181 92.5269 83.7551 92.5943Z" fill="#286782"/>
<path d="M71.6112 64.752C71.2741 65.0216 71.0718 65.2059 70.5595 65.7048C68.9954 67.2375 67.9168 68.9813 67.1887 71.1612C66.9774 71.7904 66.8336 72.1634 66.51 72.923C66.4291 73.1072 66.3572 73.305 66.3437 73.3635C66.3122 73.4893 66.4021 73.5972 66.5325 73.5972C66.6179 73.5972 66.6628 73.5433 66.7572 73.3365C67.0628 72.6848 67.2426 72.2399 67.4673 71.5747C67.9302 70.2129 68.1056 69.8039 68.6044 68.9184C68.8876 68.4195 69.0763 68.1274 69.5213 67.4848C69.8718 66.9858 70.7483 66.0285 71.3056 65.5475C72.1371 64.824 72.1461 64.8104 72.0112 64.6801C71.9079 64.5767 71.8135 64.5947 71.6112 64.752Z" fill="#286782"/>
<path d="M73.824 69.696C73.433 70.1319 73.033 70.6712 72.8218 71.0578C72.4578 71.7096 72.224 72.2533 71.8644 73.305C71.6397 73.9657 71.5948 74.0871 71.3566 74.6534C71.0914 75.2781 70.4262 76.5905 70.0982 77.1477C69.851 77.5612 69.824 77.6061 69.3656 78.3162C69.015 78.8602 67.9857 80.2893 67.6846 80.6534C67.5723 80.7883 67.4419 80.9366 67.4015 80.9905C67.361 81.04 67.1408 81.3007 66.9161 81.5747C66.4127 82.1771 66.3767 82.2399 66.4891 82.3613C66.5925 82.4781 66.6104 82.4736 66.7767 82.3343C66.979 82.1681 68.5655 80.2129 68.8172 79.822C68.8801 79.7231 69.0599 79.4714 69.2082 79.2646C69.4464 78.9411 69.8555 78.3073 70.3858 77.4578C71.0734 76.3478 71.8869 74.5229 72.4892 72.7433C72.8487 71.687 73.4285 70.7208 74.2645 69.7994C74.4712 69.5702 74.4712 69.404 74.26 69.3815C74.1387 69.368 74.0847 69.4083 73.824 69.696Z" fill="#286782"/>
<path d="M72.6047 74.352C72.5957 74.37 72.4519 74.6892 72.2946 75.0577C71.2429 77.4802 69.7823 79.7679 67.7507 82.1813C67.4271 82.5634 67.0765 82.9679 66.9731 83.0802C66.7259 83.3499 66.6675 83.4982 66.7754 83.5927C66.8203 83.6331 66.8832 83.6645 66.9237 83.6645C67.0091 83.6645 67.9619 82.5993 68.5102 81.8891C68.5866 81.7948 68.7395 81.6015 68.8518 81.4667C70.344 79.6419 71.8316 77.188 72.7081 75.1024C72.9508 74.5317 72.9688 74.4553 72.8834 74.3698C72.825 74.3114 72.6406 74.2981 72.6047 74.352Z" fill="#286782"/>
<path d="M71.2034 86.0543C70.8707 86.4588 70.0393 87.3668 69.4055 88.0274C68.8078 88.6477 68.7763 88.6971 68.8842 88.832C68.9426 88.9038 68.9921 88.9263 69.0595 88.9038C69.1943 88.859 71.2034 86.7285 71.4909 86.315C71.6213 86.1351 71.6347 86.0857 71.5943 86.0048C71.5179 85.8655 71.3471 85.8835 71.2034 86.0543Z" fill="#286782"/>
<path d="M78.1824 103.123C76.6577 103.416 75.0833 104.176 73.4592 105.403C71.8453 106.589 70.8273 107.799 70.4052 109.033C70.0294 110.021 69.9208 111.567 70.0794 113.67C70.44 117.815 70.8471 120.73 71.3008 122.416L87.0297 122.9C89.0284 122.036 90.0504 121.148 90.0955 120.236C90.1329 120.019 90.1505 119.744 90.1484 119.412L90.0727 117.057C90.1196 114.258 90.1121 112.569 90.0502 111.99C89.9651 110.585 89.7338 109.466 89.3562 108.632C88.7194 107.021 87.0037 105.543 84.2091 104.198C81.987 103.08 79.9789 102.722 78.1846 103.123L78.1824 103.123Z" fill="black"/>
<path d="M82.0558 107.854L78.2549 109.043C77.8381 109.162 76.8533 109.275 75.3005 109.382L74.6036 109.528C74.0287 109.693 73.4695 110.051 72.9245 110.6C72.0919 111.438 71.6481 112.593 71.5197 114.059C71.429 115.095 71.6604 117.332 72.2709 120.779C72.2829 120.847 72.225 120.818 72.1532 120.668C71.7124 119.75 71.4376 119.197 71.3148 119.009C71.1546 118.764 71.0125 118.583 70.8439 118.539C70.4291 118.432 70.1057 118.973 69.9916 120.116C69.8908 121.123 70.0881 122.067 70.4968 122.928C70.6349 123.22 70.8085 123.43 70.9706 123.597C71.051 123.68 71.3481 123.876 71.8648 124.207C71.9896 124.287 72.0589 124.394 72.1058 124.482C72.1177 124.382 72.3272 124.969 72.7344 126.244L73.1848 127.262C73.3488 127.593 73.5157 127.875 73.6649 128.121C73.744 128.251 73.9605 128.535 74.3357 128.958L74.5148 129.312C74.7087 129.694 74.8418 130.084 74.8782 132.344L82.8371 138.286C86.7851 132.26 87.8274 131.149 87.8274 131.149C88.2942 130.652 88.6239 130.314 88.7817 130.104C88.5471 129.191 88.3926 128.351 88.3183 127.585C88.2754 127.555 88.4108 127.152 88.6981 126.366C88.7489 126.227 88.7558 126.077 88.7786 125.928C88.8023 125.774 88.7279 125.311 88.5757 124.524C88.5424 124.353 88.5763 124.224 88.6032 124.138C88.6378 124.027 88.7341 123.914 88.9131 123.803L90.1182 123.236C90.2566 123.148 90.3919 123.001 90.5118 122.788C90.6352 122.568 90.7259 122.286 90.8054 121.951C91.2217 120.197 91.3939 119.243 91.4028 119.085C91.4373 118.478 91.3867 118.013 91.1486 117.693C90.8342 117.271 90.476 117.119 90.0971 117.257C89.9043 117.328 89.7481 117.557 89.5667 117.89C89.4979 118.017 89.257 118.738 88.8407 120.069C88.7696 120.296 88.6977 120.354 88.6651 120.266C88.6228 120.152 88.5789 119.88 88.5825 119.447C88.6105 116.072 88.5593 114.117 88.489 113.565C88.3336 112.344 88.1273 111.307 87.6638 110.526C86.3288 108.276 84.4334 107.405 82.0823 107.847L82.0558 107.854Z" fill="#FFB095"/>
<path d="M74.4434 129.264L82.457 137.417L87.3861 128.522C85.7987 130.193 84.5694 131.312 83.711 131.899C82.7041 132.587 81.7757 132.962 80.9133 133.012C79.1593 133.113 77.0068 131.871 74.4551 129.276L74.4434 129.264Z" fill="#FA5422" fill-opacity="0.15294"/>
<path d="M85.6487 152.616C86.8782 152.625 87.8859 151.632 87.8951 150.403C87.9044 149.173 86.9118 148.166 85.6823 148.156C84.4529 148.147 83.4451 149.14 83.4359 150.369C83.4266 151.599 84.4193 152.607 85.6487 152.616Z" fill="#71CFEB"/>
<path d="M87.1224 152.424C86.6817 152.766 86.1284 152.968 85.529 152.963C84.9444 152.959 84.4064 152.759 83.9763 152.426C82.5625 152.643 81.4747 153.86 81.4637 155.336C81.4514 156.975 82.788 155.92 84.4267 155.932L86.8207 155.95C88.4598 155.962 89.7804 157.038 89.7927 155.399C89.8043 153.853 88.6314 152.574 87.1224 152.424Z" fill="#71CFEB"/>
<path d="M61.9117 146.568L81.34 146.714L100.768 146.861C100.683 158.216 100.597 169.571 100.512 180.926L61.6558 180.633C61.7413 169.278 61.8269 157.923 61.9124 146.568" fill="white"/>
<path d="M68.3712 160.848L81.2323 160.945L94.0937 161.042C94.0811 162.711 94.0686 164.38 94.056 166.05C85.4819 165.985 76.9075 165.921 68.3328 165.856C68.3453 164.187 68.3579 162.517 68.3705 160.848" fill="#C9D6DE"/>
<path d="M71.4289 161.976L71.4206 163.075L70.421 162.744L70.1729 163.502L71.1725 163.833L70.5193 164.717L71.1461 165.19L71.8156 164.29L72.4553 165.184L73.1053 164.736L72.4975 163.891L73.5182 163.56L73.2814 162.814L72.2121 163.146L72.2209 161.982L71.4289 161.976Z" fill="#222B32"/>
<path d="M75.4992 162L75.491 163.099L74.4913 162.768L74.2432 163.526L75.2428 163.857L74.5896 164.741L75.2164 165.214L75.8859 164.314L76.5258 165.208L77.1757 164.76L76.5678 163.915L77.5886 163.584L77.3518 162.838L76.2825 163.17L76.2912 162.006L75.4992 162Z" fill="#222B32"/>
<path d="M79.5695 162.048L79.5613 163.147L78.5617 162.816L78.3135 163.574L79.3131 163.905L78.6599 164.789L79.2867 165.263L79.9562 164.362L80.596 165.256L81.246 164.808L80.6381 163.964L81.6589 163.632L81.422 162.886L80.3527 163.218L80.3615 162.054L79.5695 162.048Z" fill="#222B32"/>
<path d="M83.6425 162.072L83.6343 163.171L82.6346 162.84L82.3865 163.598L83.3861 163.929L82.7329 164.813L83.3597 165.286L84.0292 164.386L84.669 165.28L85.3189 164.832L84.711 163.988L85.7319 163.656L85.495 162.91L84.4257 163.242L84.4344 162.078L83.6425 162.072Z" fill="#222B32"/>
<path d="M68.3232 167.448L94.0464 167.642L94.0086 172.65L68.2854 172.456L68.3232 167.448Z" fill="#C9D6DE"/>
<path d="M71.4407 168.096L71.4324 169.195L70.4328 168.864L70.1846 169.622L71.1842 169.953L70.531 170.837L71.1578 171.31L71.8273 170.41L72.4671 171.304L73.1169 170.856L72.5091 170.011L73.53 169.68L73.2931 168.934L72.2238 169.266L72.2326 168.102L71.4407 168.096Z" fill="#222B32"/>
<path d="M75.5112 168.12L75.5029 169.219L74.5033 168.888L74.2551 169.646L75.2548 169.977L74.6016 170.861L75.2284 171.334L75.8979 170.434L76.5377 171.328L77.1876 170.88L76.5798 170.035L77.6006 169.703L77.3638 168.958L76.2945 169.29L76.3032 168.126L75.5112 168.12Z" fill="#222B32"/>
<path d="M79.5842 168.168L79.5759 169.267L78.5763 168.936L78.3281 169.694L79.3278 170.025L78.6745 170.909L79.3013 171.382L79.9709 170.482L80.6106 171.376L81.2606 170.928L80.6527 170.083L81.6735 169.752L81.4367 169.006L80.3675 169.338L80.3762 168.174L79.5842 168.168Z" fill="#222B32"/>
<path d="M73.4041 174.552L81.1297 174.61L88.8553 174.669C88.8447 176.093 88.834 177.517 88.8233 178.94C83.6729 178.902 78.5225 178.863 73.3721 178.824C73.3828 177.4 73.3934 175.976 73.4041 174.552Z" fill="#105004"/>
<path d="M82.4257 175.248C82.4029 175.248 82.376 175.249 82.3449 175.251C82.3138 175.252 82.2848 175.255 82.2578 175.259C82.2535 175.282 82.2502 175.308 82.2479 175.337C82.2477 175.366 82.2475 175.392 82.2473 175.414C82.2471 175.437 82.248 175.463 82.2498 175.492C82.2496 175.521 82.2515 175.548 82.2554 175.573C82.2824 175.578 82.3113 175.581 82.3424 175.583C82.3735 175.585 82.4014 175.587 82.4263 175.587C82.4491 175.587 82.476 175.586 82.5071 175.584C82.5361 175.583 82.5631 175.58 82.588 175.576C82.5924 175.551 82.5957 175.524 82.598 175.495C82.5982 175.466 82.5984 175.44 82.5985 175.417C82.5987 175.394 82.5979 175.369 82.596 175.34C82.5963 175.31 82.5944 175.285 82.5904 175.262C82.5655 175.257 82.5376 175.254 82.5065 175.252C82.4755 175.249 82.4485 175.248 82.4257 175.248ZM81.0858 176.102C81.1977 176.103 81.2803 176.136 81.3337 176.2C81.3871 176.263 81.4135 176.344 81.4127 176.443C81.412 176.541 81.3845 176.62 81.3301 176.682C81.2757 176.744 81.1926 176.774 81.0807 176.774C80.9688 176.773 80.8862 176.741 80.8328 176.678C80.7814 176.616 80.7561 176.536 80.7569 176.439C80.7576 176.339 80.7852 176.257 80.8395 176.194C80.8918 176.132 80.9739 176.101 81.0858 176.102ZM79.3605 176.117C79.5034 176.118 79.6087 176.171 79.6763 176.275C79.7439 176.377 79.7771 176.52 79.7757 176.705C79.7743 176.889 79.739 177.033 79.6699 177.136C79.6007 177.239 79.4946 177.29 79.3516 177.289C79.2086 177.288 79.1033 177.235 79.0357 177.131C78.9702 177.027 78.9381 176.883 78.9395 176.698C78.9409 176.514 78.9761 176.37 79.0453 176.267C79.1124 176.166 79.2175 176.116 79.3605 176.117ZM82.1193 175.923C82.115 175.94 82.1117 175.96 82.1095 175.982C82.1072 176.003 82.1061 176.024 82.1059 176.045C82.1057 176.065 82.1066 176.087 82.1085 176.11C82.1104 176.131 82.1134 176.149 82.1175 176.166L82.3194 176.167L82.3093 177.52C82.332 177.524 82.3579 177.527 82.3869 177.53C82.4139 177.532 82.4377 177.533 82.4584 177.533C82.4812 177.533 82.5071 177.533 82.5361 177.531C82.5631 177.529 82.588 177.526 82.6108 177.522L82.6228 175.927L82.1193 175.923ZM83.9224 175.9C83.8581 175.899 83.799 175.908 83.745 175.926C83.691 175.942 83.6432 175.965 83.6015 175.994C83.5599 176.02 83.5223 176.051 83.4889 176.086C83.4575 176.121 83.4314 176.156 83.4103 176.191C83.4106 176.156 83.4079 176.111 83.402 176.057C83.3962 176.006 83.3903 175.964 83.3843 175.933C83.3616 175.929 83.3399 175.925 83.3192 175.923C83.3005 175.921 83.2798 175.92 83.257 175.92C83.2342 175.919 83.2114 175.92 83.1886 175.922C83.1679 175.924 83.1461 175.927 83.1232 175.931L83.1112 177.526C83.134 177.53 83.1599 177.533 83.1889 177.536C83.2179 177.538 83.2438 177.539 83.2666 177.539C83.2894 177.539 83.3153 177.539 83.3443 177.537C83.3713 177.535 83.3962 177.532 83.419 177.528L83.425 176.72C83.4258 176.622 83.4389 176.538 83.4642 176.468C83.4876 176.4 83.5191 176.344 83.5588 176.301C83.5985 176.258 83.6443 176.226 83.6963 176.206C83.7483 176.185 83.8032 176.175 83.8612 176.176C83.9607 176.177 84.033 176.213 84.078 176.283C84.1231 176.352 84.1451 176.46 84.1439 176.607L84.137 177.533C84.1598 177.538 84.1856 177.541 84.2147 177.543C84.2416 177.546 84.2664 177.547 84.2892 177.547C84.312 177.547 84.3379 177.546 84.3669 177.544C84.396 177.542 84.4219 177.54 84.4447 177.536L84.4523 176.525C84.4539 176.32 84.4116 176.165 84.3253 176.058C84.239 175.954 84.1047 175.901 83.9224 175.9ZM77.9406 175.196C77.9178 175.195 77.8919 175.196 77.8629 175.198C77.8359 175.2 77.811 175.203 77.7882 175.207L77.7742 177.072C77.7736 177.155 77.7845 177.224 77.8068 177.281C77.8292 177.337 77.8599 177.381 77.899 177.415C77.9382 177.448 77.9836 177.473 78.0353 177.487C78.087 177.502 78.1429 177.51 78.203 177.51C78.2382 177.511 78.2766 177.509 78.318 177.505C78.3595 177.503 78.3948 177.497 78.4239 177.487C78.4245 177.402 78.4158 177.323 78.3977 177.251C78.381 177.255 78.3603 177.258 78.3355 177.26C78.3126 177.261 78.2919 177.262 78.2732 177.262C78.2463 177.262 78.2204 177.259 78.1956 177.252C78.1729 177.248 78.1522 177.237 78.1337 177.218C78.1172 177.201 78.1039 177.176 78.0938 177.143C78.0837 177.11 78.0789 177.064 78.0793 177.006L78.0929 175.209C78.0701 175.205 78.0442 175.201 78.0152 175.199C77.9883 175.197 77.9634 175.196 77.9406 175.196ZM79.3624 175.865C79.2381 175.864 79.1291 175.885 79.0355 175.928C78.942 175.971 78.8638 176.029 78.8011 176.104C78.7383 176.178 78.6911 176.265 78.6592 176.367C78.6295 176.468 78.6141 176.578 78.6132 176.696C78.6123 176.814 78.627 176.924 78.6574 177.026C78.6856 177.127 78.7305 177.216 78.7921 177.291C78.8538 177.366 78.931 177.426 79.024 177.47C79.1169 177.512 79.2255 177.534 79.3499 177.535C79.4742 177.536 79.5831 177.515 79.6767 177.472C79.7703 177.431 79.8484 177.374 79.9111 177.299C79.9739 177.225 80.0212 177.137 80.053 177.036C80.0828 176.935 80.0981 176.825 80.099 176.707C80.0999 176.589 80.0852 176.479 80.0549 176.377C80.0266 176.275 79.9817 176.187 79.9201 176.112C79.8585 176.037 79.7812 175.977 79.6883 175.933C79.5954 175.889 79.4867 175.866 79.3624 175.865ZM80.9213 177.549C80.9248 177.549 80.9284 177.55 80.932 177.55L81.2863 177.559C81.3919 177.561 81.4643 177.58 81.5035 177.613C81.5426 177.646 81.5619 177.694 81.5614 177.757C81.5608 177.839 81.5137 177.908 81.42 177.964C81.3264 178.017 81.1966 178.043 81.0308 178.042C80.9749 178.041 80.9231 178.037 80.8755 178.028C80.83 178.021 80.7897 178.009 80.7546 177.99C80.7216 177.973 80.6958 177.95 80.6774 177.921C80.6589 177.892 80.6499 177.854 80.6503 177.809C80.6508 177.736 80.6751 177.674 80.7232 177.623C80.7674 177.573 80.8334 177.549 80.9213 177.549ZM81.0875 175.878C80.9839 175.877 80.8916 175.891 80.8106 175.92C80.7296 175.948 80.6609 175.988 80.6045 176.039C80.5503 176.089 80.5084 176.148 80.4788 176.216C80.4493 176.284 80.4343 176.357 80.4337 176.436C80.433 176.531 80.453 176.618 80.4939 176.695C80.5348 176.77 80.5892 176.831 80.6572 176.879C80.5989 176.922 80.5519 176.972 80.5162 177.027C80.4827 177.083 80.4656 177.149 80.465 177.226C80.4646 177.286 80.4787 177.337 80.5074 177.379C80.534 177.418 80.568 177.451 80.6092 177.479C80.5364 177.518 80.4769 177.571 80.4308 177.639C80.3848 177.705 80.3614 177.781 80.3607 177.866C80.3596 178.009 80.4148 178.114 80.5263 178.181C80.6376 178.248 80.8 178.282 81.0135 178.284C81.1357 178.285 81.2498 178.272 81.3557 178.246C81.4595 178.222 81.5499 178.185 81.627 178.136C81.704 178.089 81.7645 178.031 81.8086 177.963C81.8526 177.897 81.875 177.822 81.8756 177.737C81.8765 177.606 81.8359 177.504 81.7536 177.428C81.6712 177.353 81.5379 177.313 81.3535 177.307L80.9401 177.298C80.8469 177.295 80.7869 177.279 80.7602 177.25C80.7334 177.223 80.7202 177.19 80.7205 177.153C80.7208 177.114 80.7356 177.077 80.7648 177.042C80.792 177.009 80.8202 176.984 80.8493 176.968C80.9176 176.987 80.9942 176.997 81.0792 176.997C81.1724 176.998 81.2585 176.985 81.3374 176.959C81.4164 176.935 81.485 176.898 81.5434 176.849C81.5997 176.801 81.6437 176.744 81.6753 176.675C81.7069 176.607 81.723 176.531 81.7236 176.446C81.7241 176.392 81.7182 176.344 81.7061 176.303C81.694 176.261 81.6766 176.223 81.6541 176.187L81.9338 176.189C81.9382 176.164 81.9415 176.14 81.9437 176.115C81.946 176.09 81.9472 176.066 81.9474 176.043C81.9477 175.996 81.9439 175.952 81.936 175.913C81.851 175.912 81.7732 175.923 81.7026 175.945C81.6319 175.965 81.5758 175.992 81.5341 176.025C81.4805 175.983 81.4155 175.948 81.339 175.921C81.2647 175.893 81.1808 175.879 81.0875 175.878Z" fill="white"/>
<path d="M92.1434 56.952L99.207 56.9524L99.207 58.3504L92.1433 58.3503L92.1434 56.952Z" fill="#535D66"/>
<path d="M100.613 57.6528L100.613 64.7164L99.2146 64.7165L99.2147 57.6529L100.613 57.6528Z" fill="#535D66"/>
<path d="M100.613 88.7328L100.613 95.7964L99.2146 95.7965L99.2147 88.7328H100.613Z" fill="#535D66"/>
<path d="M99.9145 97.2H92.8508V95.8018H99.9145V97.2Z" fill="#535D66"/>
<path d="M68.8344 97.2L61.7708 97.1999L61.7708 95.8017L68.8344 95.8016L68.8344 97.2Z" fill="#535D66"/>
<path d="M60.3647 96.5017L60.3648 89.4381L61.7631 89.4382L61.763 96.5017L60.3647 96.5017Z" fill="#535D66"/>
<path d="M60.365 65.4216L60.3651 58.3579L61.7633 58.3581L61.7632 65.4215L60.365 65.4216Z" fill="#535D66"/>
<path d="M61.0645 56.952L68.1282 56.9521L68.1281 58.3503L61.0645 58.3503L61.0645 56.952Z" fill="#535D66"/>
<path d="M92.5034 100.555L99.5671 100.556V101.954L92.5034 101.954V100.555Z" fill="#535D66"/>
<path d="M100.973 101.256L100.973 108.32L99.5747 108.32L99.5748 101.256H100.973Z" fill="#535D66"/>
<path d="M100.973 132.336L100.973 139.4L99.5747 139.4L99.5748 132.336L100.973 132.336Z" fill="#535D66"/>
<path d="M100.272 140.808H93.2085V139.41L100.272 139.41V140.808Z" fill="#535D66"/>
<path d="M69.1923 140.808L62.1287 140.808V139.41L69.1923 139.41V140.808Z" fill="#535D66"/>
<path d="M60.7244 140.112V140.112L60.7244 133.048L62.1227 133.049L62.1226 140.112L60.7244 140.112Z" fill="#535D66"/>
<path d="M60.7246 109.025L60.7247 101.961L62.123 101.961L62.1229 109.025L60.7246 109.025Z" fill="#535D66"/>
<path d="M61.4238 100.555L68.4875 100.555V101.954L61.4238 101.953V100.555Z" fill="#535D66"/>
<path d="M257.806 164.328L257.681 166.178C257.091 169.904 255.366 172.885 252.504 175.119C249.622 177.352 246.229 178.257 242.324 177.835C238.597 177.245 235.617 175.52 233.383 172.658C232.667 171.733 232.077 170.725 231.613 169.634L231.029 167.952C230.708 166.794 230.546 165.586 230.542 164.328C230.64 160.466 231.971 157.253 234.535 154.689C237.099 152.125 240.312 150.794 244.174 150.697C248.036 150.794 251.249 152.125 253.813 154.689C256.377 157.253 257.708 160.467 257.806 164.328" fill="#105004"/>
<path d="M238.97 164.832L238.996 164.622L242.96 166.815L249.607 158.665L251.599 158.345L242.661 170.311L238.97 164.832Z" fill="#12FF00"/>
<path d="M254.088 100.471L254.006 101.691C253.617 104.147 252.479 106.112 250.593 107.585C248.693 109.057 246.456 109.654 243.882 109.375C241.426 108.987 239.461 107.849 237.988 105.962C237.516 105.352 237.127 104.688 236.821 103.969L236.436 102.86C236.225 102.097 236.118 101.301 236.115 100.471C236.179 97.9252 237.057 95.8071 238.747 94.1167C240.438 92.4263 242.556 91.549 245.102 91.4849C247.648 91.5491 249.766 92.4264 251.456 94.1169C253.147 95.8073 254.024 97.9254 254.088 100.471Z" fill="#105004"/>
<path d="M241.673 100.81L241.69 100.671L244.302 102.116L248.685 96.7438L249.997 96.533L244.106 104.421L241.673 100.81Z" fill="#12FF00"/>
<path d="M316.512 201.792L315.265 201.935C309.357 202.22 292.068 202.44 263.399 202.595C234.532 202.75 200.539 202.799 161.42 202.741C124.086 202.671 94.2277 202.518 71.8453 202.282C64.6733 202.206 58.7658 202.124 54.1227 202.036L48.2694 201.902C45.0535 201.81 43.4275 201.715 43.3914 201.617C44.3678 201.318 57.7006 201.077 83.3898 200.895C109.079 200.712 141.267 200.629 179.954 200.647C218.64 200.679 250.828 200.803 276.518 201.018C302.207 201.234 315.54 201.492 316.516 201.792" fill="black" fill-opacity="0.4"/>
</g>
<defs>
<clipPath id="clip0_24_89">
<rect width="336.96" height="240.96" fill="white"/>
</clipPath>
</defs>
</svg>
