<svg width="162" height="165" viewBox="0 0 162 165" fill="none" xmlns="http://www.w3.org/2000/svg">
<path d="M62.2467 36.0002L65.5587 30.2762C65.9567 29.5875 66.065 28.7689 65.8596 28.0005C65.6543 27.232 65.1522 26.5765 64.4637 26.1782L58.7336 22.8662V16.2662C58.7336 15.4705 58.4176 14.7075 57.855 14.1449C57.2924 13.5822 56.5293 13.2662 55.7336 13.2662H49.1367L45.8277 7.53917C45.43 6.85017 44.775 6.3473 44.0067 6.14117C43.626 6.03918 43.229 6.01317 42.8383 6.06465C42.4476 6.11612 42.0709 6.24407 41.7297 6.44117L35.9997 9.75317L30.2697 6.43817C29.5806 6.04037 28.7618 5.93256 27.9933 6.13848C27.2247 6.34439 26.5695 6.84715 26.1717 7.53617L22.8597 13.2662H16.2627C15.467 13.2662 14.7039 13.5822 14.1413 14.1449C13.5787 14.7075 13.2627 15.4705 13.2627 16.2662V22.8632L7.53265 26.1752C7.19134 26.3724 6.89224 26.635 6.65246 26.9479C6.41269 27.2608 6.23693 27.6179 6.13523 27.9987C6.03354 28.3796 6.00791 28.7768 6.0598 29.1676C6.11169 29.5583 6.24009 29.935 6.43765 30.2762L9.74965 36.0002L6.43765 41.7242C6.04162 42.4135 5.93417 43.2314 6.13873 43.9997C6.34329 44.7679 6.84327 45.4241 7.52965 45.8252L13.2597 49.1372V55.7342C13.2597 56.5298 13.5757 57.2929 14.1383 57.8555C14.7009 58.4181 15.464 58.7342 16.2597 58.7342H22.8597L26.1717 64.4642C26.4372 64.9182 26.8165 65.2953 27.272 65.5583C27.7275 65.8213 28.2437 65.9612 28.7697 65.9642C29.2917 65.9642 29.8107 65.8262 30.2727 65.5592L35.9967 62.2472L41.7267 65.5592C42.4153 65.9572 43.2339 66.0655 44.0024 65.8601C44.7708 65.6548 45.4263 65.1527 45.8247 64.4642L49.1337 58.7342H55.7306C56.5263 58.7342 57.2894 58.4181 57.852 57.8555C58.4146 57.2929 58.7306 56.5298 58.7306 55.7342V49.1372L64.4606 45.8252C64.802 45.6279 65.1011 45.3654 65.3408 45.0525C65.5806 44.7396 65.7564 44.3825 65.8581 44.0016C65.9598 43.6207 65.9854 43.2236 65.9335 42.8328C65.8816 42.442 65.7532 42.0653 65.5556 41.7242L62.2467 36.0002ZM28.4967 20.9702C29.6905 20.9706 30.8353 21.4452 31.6793 22.2897C32.5232 23.1342 32.9971 24.2793 32.9967 25.4732C32.9963 26.667 32.5216 27.8119 31.6771 28.6558C30.8327 29.4997 29.6875 29.9736 28.4937 29.9732C27.2998 29.9728 26.155 29.4981 25.3111 28.6537C24.4671 27.8092 23.9933 26.664 23.9937 25.4702C23.9941 24.2763 24.4687 23.1315 25.3132 22.2876C26.1576 21.4437 27.3028 20.9698 28.4967 20.9702ZM29.3967 49.7702L24.5967 46.1732L42.5967 22.1732L47.3967 25.7702L29.3967 49.7702ZM43.4967 50.9702C42.9055 50.97 42.3202 50.8533 41.7741 50.6269C41.228 50.4005 40.7319 50.0688 40.3141 49.6507C39.8962 49.2325 39.5648 48.7362 39.3387 48.1899C39.1127 47.6437 38.9965 47.0583 38.9967 46.4672C38.9968 45.876 39.1135 45.2907 39.3399 44.7446C39.5663 44.1986 39.898 43.7024 40.3162 43.2846C40.7343 42.8667 41.2307 42.5353 41.7769 42.3093C42.3231 42.0832 42.9085 41.967 43.4997 41.9672C44.6935 41.9676 45.8383 42.4422 46.6823 43.2867C47.5262 44.1312 48.0001 45.2763 47.9997 46.4702C47.9993 47.664 47.5246 48.8089 46.6801 49.6528C45.8357 50.4967 44.6905 50.9706 43.4967 50.9702Z" fill="#105004"/>
<path d="M133 68H79C78.2044 68 77.4413 68.3161 76.8787 68.8787C76.3161 69.4413 76 70.2044 76 71V83H78.679C81.667 83 84.439 85.043 84.919 87.992C85.0658 88.8532 85.0227 89.736 84.7928 90.5788C84.5629 91.4217 84.1518 92.2041 83.5881 92.8715C83.0244 93.5389 82.3218 94.0752 81.5293 94.4428C80.7368 94.8105 79.8736 95.0006 79 95H76V107C76 107.796 76.3161 108.559 76.8787 109.121C77.4413 109.684 78.2044 110 79 110H133C133.796 110 134.559 109.684 135.121 109.121C135.684 108.559 136 107.796 136 107V95H133C132.126 95.0006 131.263 94.8105 130.471 94.4428C129.678 94.0752 128.976 93.5389 128.412 92.8715C127.848 92.2041 127.437 91.4217 127.207 90.5788C126.977 89.736 126.934 88.8532 127.081 87.992C127.561 85.043 130.333 83 133.321 83H136V71C136 70.2044 135.684 69.4413 135.121 68.8787C134.559 68.3161 133.796 68 133 68ZM97 80C97.7956 80 98.5587 80.3161 99.1213 80.8787C99.6839 81.4413 100 82.2044 100 83C100 83.7956 99.6839 84.5587 99.1213 85.1213C98.5587 85.6839 97.7956 86 97 86C96.2044 86 95.4413 85.6839 94.8787 85.1213C94.3161 84.5587 94 83.7956 94 83C94 82.2044 94.3161 81.4413 94.8787 80.8787C95.4413 80.3161 96.2044 80 97 80ZM94.6 99.2L112.6 75.2L117.4 78.8L99.4 102.8L94.6 99.2ZM115 98C114.204 98 113.441 97.6839 112.879 97.1213C112.316 96.5587 112 95.7956 112 95C112 94.2044 112.316 93.4413 112.879 92.8787C113.441 92.3161 114.204 92 115 92C115.796 92 116.559 92.3161 117.121 92.8787C117.684 93.4413 118 94.2044 118 95C118 95.7956 117.684 96.5587 117.121 97.1213C116.559 97.6839 115.796 98 115 98Z" fill="#FFB109"/>
</svg>
