<svg width="211" height="209" viewBox="0 0 211 209" fill="none" xmlns="http://www.w3.org/2000/svg">
<rect x="2.7002" y="1.69995" width="96.8" height="96.8" rx="6.4" fill="#105004" fill-opacity="0.1"/>
<path d="M53.3685 34.2083C51.8625 33.5977 50.1779 33.5977 48.6718 34.2083L45.0218 35.6883L61.0085 41.905L66.6318 39.7333C66.4006 39.5431 66.1422 39.3886 65.8652 39.275L53.3685 34.2083ZM67.6868 42.005L52.2702 47.9616V66.1666C52.6435 66.0911 53.0096 65.9805 53.3685 65.835L65.8652 60.7683C66.4035 60.5503 66.8644 60.1765 67.1889 59.6949C67.5135 59.2133 67.6869 58.6457 67.6868 58.065V42.005ZM49.7702 66.1666V47.9616L34.3535 42.005V58.0666C34.3538 58.6471 34.5274 59.2143 34.8519 59.6956C35.1764 60.1769 35.6372 60.5504 36.1752 60.7683L48.6718 65.835C49.0307 65.9794 49.3968 66.0889 49.7702 66.1666ZM35.4085 39.7333L51.0202 45.765L57.5485 43.2416L41.6435 37.0583L36.1752 39.275C35.8907 39.3905 35.6352 39.5433 35.4085 39.7333Z" fill="#105004"/>
<rect x="111.5" y="1.69995" width="96.8" height="96.8" rx="6.4" fill="#105004" fill-opacity="0.1"/>
<path fill-rule="evenodd" clip-rule="evenodd" d="M154.934 38.7967C156.341 37.3902 158.248 36.6 160.237 36.6H163.9C166.938 36.6 169.4 39.0624 169.4 42.1V46.1771C169.4 47.901 168.715 49.5543 167.496 50.7732L159.584 58.6858C157.631 60.6384 154.466 60.6384 152.513 58.6858L147.668 53.8409C145.52 51.693 145.52 48.2106 147.668 46.0627L154.934 38.7967ZM162.9 45.1C164.005 45.1 164.9 44.2045 164.9 43.1C164.9 41.9954 164.005 41.1 162.9 41.1C161.796 41.1 160.9 41.9954 160.9 43.1C160.9 44.2045 161.796 45.1 162.9 45.1Z" fill="#105004"/>
<path d="M174.9 42.6C174.9 41.7715 174.229 41.1 173.4 41.1C172.572 41.1 171.9 41.7715 171.9 42.6V48.6572C171.9 49.5937 171.525 50.4911 170.858 51.1488L161.347 60.5321C160.757 61.114 160.751 62.0637 161.332 62.6534C161.914 63.2432 162.864 63.2496 163.454 62.6678L172.965 53.2844C174.203 52.063 174.9 50.3964 174.9 48.6572V42.6Z" fill="#105004"/>
<rect x="2.7002" y="110.5" width="96.8" height="96.8" rx="6.4" fill="#105004" fill-opacity="0.1"/>
<g clip-path="url(#clip0_26_5804)">
<path d="M69.1255 140.517C69.0142 140.24 68.8001 140.016 68.5279 139.893C68.2557 139.769 67.9463 139.755 67.6642 139.854C67.382 139.952 67.1487 140.156 67.0128 140.422C66.877 140.689 66.8491 140.997 66.9348 141.283C68.7185 146.41 65.178 150.238 62.4785 152.289L61.3879 150.726C61.0212 150.202 60.2014 149.766 59.5639 149.758L53.443 149.785C52.6952 149.808 51.9674 150.032 51.3367 150.434L33.3003 163.081C32.8807 163.376 32.5953 163.826 32.5064 164.331C32.4175 164.836 32.5324 165.356 32.826 165.777L41.0225 177.504C41.6369 178.378 42.618 178.272 43.4935 177.662L61.53 165.013C62.0484 164.646 62.6475 163.855 62.8587 163.25L64.7748 157.212C64.986 156.609 64.8574 155.689 64.4907 155.165L63.8263 154.213C67.4513 151.434 71.2145 146.525 69.1255 140.517ZM60.7332 158.485C60.0618 158.953 59.2319 159.137 58.4256 158.994C57.6192 158.852 56.9024 158.395 56.4324 157.724C55.9619 157.052 55.7775 156.22 55.9197 155.411C56.0618 154.603 56.519 153.884 57.1908 153.412C57.7178 153.044 58.3465 152.849 58.9893 152.855C59.6322 152.861 60.2572 153.067 60.7774 153.445C60.2551 153.76 59.8961 153.944 59.8289 153.973C59.5909 154.086 59.3985 154.277 59.2832 154.514C59.1679 154.751 59.1366 155.021 59.1944 155.278C59.2522 155.535 59.3957 155.765 59.6013 155.93C59.8069 156.095 60.0625 156.186 60.3262 156.186C60.4926 156.186 60.6571 156.149 60.8196 156.073C61.1934 155.898 61.5895 155.687 62.0081 155.44C62.1028 156.016 62.0334 156.607 61.808 157.145C61.5825 157.684 61.2101 158.148 60.7332 158.485Z" fill="#105004"/>
</g>
<rect x="111.5" y="110.5" width="96.8" height="96.8" rx="6.4" fill="#105004" fill-opacity="0.1"/>
<path d="M168.233 168.9C166.383 168.9 164.9 170.383 164.9 172.233C164.9 173.117 165.251 173.965 165.876 174.59C166.501 175.215 167.349 175.567 168.233 175.567C169.117 175.567 169.965 175.215 170.59 174.59C171.215 173.965 171.566 173.117 171.566 172.233C171.566 171.349 171.215 170.501 170.59 169.876C169.965 169.251 169.117 168.9 168.233 168.9ZM141.566 142.233V145.567H144.9L150.9 158.217L148.633 162.3C148.383 162.767 148.233 163.317 148.233 163.9C148.233 164.784 148.584 165.632 149.209 166.257C149.835 166.882 150.682 167.233 151.566 167.233H171.566V163.9H152.266C152.156 163.9 152.05 163.856 151.972 163.778C151.894 163.7 151.85 163.594 151.85 163.483C151.85 163.4 151.866 163.333 151.9 163.283L153.4 160.567H165.816C167.066 160.567 168.166 159.867 168.733 158.85L174.7 148.067C174.816 147.8 174.9 147.517 174.9 147.233C174.9 146.791 174.724 146.367 174.412 146.055C174.099 145.742 173.675 145.567 173.233 145.567H148.583L147.016 142.233M151.566 168.9C149.716 168.9 148.233 170.383 148.233 172.233C148.233 173.117 148.584 173.965 149.209 174.59C149.835 175.215 150.682 175.567 151.566 175.567C152.45 175.567 153.298 175.215 153.923 174.59C154.549 173.965 154.9 173.117 154.9 172.233C154.9 171.349 154.549 170.501 153.923 169.876C153.298 169.251 152.45 168.9 151.566 168.9Z" fill="#105004"/>
<defs>
<clipPath id="clip0_26_5804">
<rect width="38.4" height="38.4" fill="white" transform="translate(31.9004 139.74)"/>
</clipPath>
</defs>
</svg>
