<svg width="1665" height="1094" viewBox="0 0 1665 1094" fill="none" xmlns="http://www.w3.org/2000/svg">
<path fill-rule="evenodd" clip-rule="evenodd" d="M1513.48 554.441C1520.14 547.776 1529.18 544.032 1538.61 544.032H1555.96C1570.36 544.032 1582.02 555.7 1582.02 570.093V589.413C1582.02 597.581 1578.78 605.416 1573 611.192L1535.51 648.685C1526.26 657.938 1511.26 657.938 1502 648.685L1479.05 625.728C1468.87 615.55 1468.87 599.049 1479.05 588.871L1513.48 554.441ZM1551.22 584.309C1556.46 584.309 1560.7 580.066 1560.7 574.832C1560.7 569.598 1556.46 565.355 1551.22 565.355C1545.99 565.355 1541.75 569.598 1541.75 574.832C1541.75 580.066 1545.99 584.309 1551.22 584.309Z" fill="#105004"/>
<path d="M1608.09 572.463C1608.09 568.537 1604.9 565.355 1600.98 565.355C1597.05 565.355 1593.87 568.537 1593.87 572.463V601.165C1593.87 605.602 1592.09 609.855 1588.93 612.971L1543.86 657.434C1541.07 660.191 1541.04 664.692 1543.79 667.486C1546.55 670.281 1551.05 670.311 1553.85 667.554L1598.92 623.091C1604.78 617.303 1608.09 609.406 1608.09 601.165V572.463Z" fill="#105004"/>
<path d="M720.033 113.55C727.014 113.552 733.709 116.326 738.645 121.264L806.3 188.919C811.911 194.53 815.062 202.14 815.062 210.075C815.062 218.01 811.911 225.62 806.3 231.232L757.23 280.302C751.619 285.912 744.009 289.064 736.074 289.064C728.139 289.064 720.529 285.912 714.917 280.302L647.262 212.646C642.325 207.711 639.55 201.016 639.549 194.035V148.65C639.549 139.341 643.247 130.413 649.829 123.831C656.412 117.248 665.34 113.55 674.649 113.55H720.033ZM687.811 144.263C683.384 144.261 679.119 145.934 675.873 148.944C672.626 151.955 670.637 156.081 670.305 160.497L670.261 161.813C670.261 165.284 671.291 168.677 673.219 171.563C675.147 174.449 677.888 176.699 681.095 178.027C684.302 179.355 687.831 179.703 691.235 179.026C694.64 178.348 697.767 176.677 700.221 174.223C702.675 171.768 704.347 168.641 705.024 165.237C705.701 161.832 705.354 158.304 704.025 155.097C702.697 151.89 700.448 149.149 697.562 147.221C694.676 145.292 691.282 144.263 687.811 144.263Z" fill="#105004"/>
<path d="M1212.27 856.531H1054.32C1052.58 856.531 1050.9 855.838 1049.67 854.604C1048.44 853.37 1047.74 851.696 1047.74 849.95C1047.74 848.205 1048.44 846.531 1049.67 845.296C1050.9 844.062 1052.58 843.369 1054.32 843.369H1212.27C1214.02 843.369 1215.69 844.062 1216.93 845.296C1218.16 846.531 1218.86 848.205 1218.86 849.95C1218.86 851.696 1218.16 853.37 1216.93 854.604C1215.69 855.838 1214.02 856.531 1212.27 856.531ZM1199.11 876.275H1067.49C1065.74 876.275 1064.07 875.582 1062.83 874.348C1061.6 873.113 1060.91 871.439 1060.91 869.694C1060.91 867.948 1061.6 866.274 1062.83 865.04C1064.07 863.806 1065.74 863.113 1067.49 863.113H1199.11C1200.86 863.113 1202.53 863.806 1203.76 865.04C1205 866.274 1205.69 867.948 1205.69 869.694C1205.69 871.439 1205 873.113 1203.76 874.348C1202.53 875.582 1200.86 876.275 1199.11 876.275ZM1041.16 803.881H1034.58V823.625C1034.58 827.116 1035.97 830.464 1038.44 832.932C1040.9 835.401 1044.25 836.788 1047.74 836.788H1067.49V830.206C1067.48 823.227 1064.7 816.535 1059.77 811.6C1054.83 806.665 1048.14 803.889 1041.16 803.881Z" fill="#105004"/>
<path d="M1225.44 790.719H1232.02V764.394H1225.44C1214.97 764.382 1204.93 760.218 1197.53 752.815C1190.12 745.412 1185.96 735.376 1185.95 724.906V718.325H1080.65V724.906C1080.64 735.376 1076.47 745.412 1069.07 752.815C1061.67 760.218 1051.63 764.382 1041.16 764.394H1034.58V790.719H1041.16C1051.63 790.731 1061.67 794.895 1069.07 802.298C1076.47 809.701 1080.64 819.737 1080.65 830.206V836.788H1185.95V830.206C1185.96 819.737 1190.12 809.701 1197.53 802.298C1204.93 794.895 1214.97 790.731 1225.44 790.719ZM1133.3 817.044C1125.49 817.044 1117.85 814.728 1111.36 810.389C1104.87 806.05 1099.81 799.883 1096.82 792.668C1093.83 785.452 1093.05 777.513 1094.57 769.853C1096.09 762.193 1099.85 755.157 1105.38 749.635C1110.9 744.112 1117.94 740.351 1125.6 738.828C1133.26 737.304 1141.19 738.086 1148.41 741.075C1155.63 744.063 1161.79 749.125 1166.13 755.618C1170.47 762.112 1172.79 769.747 1172.79 777.556C1172.77 788.026 1168.61 798.062 1161.21 805.465C1153.8 812.868 1143.77 817.032 1133.3 817.044Z" fill="#105004"/>
<path d="M1133.3 803.881C1147.84 803.881 1159.63 792.095 1159.63 777.556C1159.63 763.018 1147.84 751.231 1133.3 751.231C1118.76 751.231 1106.98 763.018 1106.98 777.556C1106.98 792.095 1118.76 803.881 1133.3 803.881Z" fill="#105004"/>
<path d="M1199.11 830.206V836.788H1218.86C1222.35 836.788 1225.69 835.401 1228.16 832.932C1230.63 830.464 1232.02 827.116 1232.02 823.625V803.881H1225.44C1218.46 803.889 1211.77 806.665 1206.83 811.6C1201.89 816.536 1199.12 823.227 1199.11 830.206ZM1225.44 751.231H1232.02V731.488C1232.02 727.997 1230.63 724.649 1228.16 722.18C1225.69 719.712 1222.35 718.325 1218.86 718.325H1199.11V724.906C1199.12 731.886 1201.89 738.577 1206.83 743.513C1211.77 748.448 1218.46 751.224 1225.44 751.231ZM1067.49 724.906V718.325H1047.74C1044.25 718.325 1040.9 719.712 1038.44 722.18C1035.97 724.649 1034.58 727.997 1034.58 731.488V751.231H1041.16C1048.14 751.224 1054.83 748.448 1059.77 743.513C1064.7 738.577 1067.48 731.886 1067.49 724.906Z" fill="#105004"/>
<path fill-rule="evenodd" clip-rule="evenodd" d="M998.855 443.484C998.855 435.664 1001.96 428.165 1007.49 422.636C1013.02 417.106 1020.52 414 1028.34 414C1036.16 414 1043.66 417.106 1049.19 422.636C1054.72 428.165 1057.82 435.664 1057.82 443.484C1057.82 451.304 1054.72 458.803 1049.19 464.332C1043.66 469.862 1036.16 472.968 1028.34 472.968C1020.52 472.968 1013.02 469.862 1007.49 464.332C1001.96 458.803 998.855 451.304 998.855 443.484ZM998.855 487.71C989.08 487.71 979.706 491.593 972.795 498.505C965.883 505.416 962 514.79 962 524.565C962 530.43 964.33 536.054 968.477 540.201C972.624 544.348 978.248 546.678 984.113 546.678H1072.56C1078.43 546.678 1084.05 544.348 1088.2 540.201C1092.35 536.054 1094.68 530.43 1094.68 524.565C1094.68 514.79 1090.8 505.416 1083.88 498.505C1076.97 491.593 1067.6 487.71 1057.82 487.71H998.855Z" fill="#105004"/>
<path d="M328.916 396.24L336.666 382.846C337.598 381.234 337.851 379.319 337.371 377.521C336.89 375.723 335.715 374.189 334.104 373.257L320.696 365.507V350.063C320.696 348.201 319.956 346.415 318.64 345.099C317.323 343.782 315.538 343.043 313.676 343.043H298.239L290.496 329.641C289.565 328.029 288.033 326.852 286.235 326.37C285.344 326.131 284.415 326.071 283.501 326.191C282.587 326.311 281.705 326.611 280.906 327.072L267.498 334.822L254.09 327.065C252.478 326.134 250.562 325.882 248.763 326.364C246.965 326.846 245.432 328.022 244.501 329.634L236.751 343.043H221.314C219.452 343.043 217.666 343.782 216.35 345.099C215.033 346.415 214.294 348.201 214.294 350.063V365.5L200.885 373.25C200.087 373.711 199.387 374.326 198.826 375.058C198.265 375.79 197.854 376.626 197.616 377.517C197.378 378.408 197.318 379.337 197.439 380.252C197.56 381.166 197.861 382.048 198.323 382.846L206.073 396.24L198.323 409.634C197.396 411.247 197.145 413.161 197.624 414.959C198.102 416.757 199.272 418.292 200.878 419.231L214.287 426.981V442.418C214.287 444.279 215.026 446.065 216.343 447.382C217.659 448.698 219.445 449.438 221.307 449.438H236.751L244.501 462.846C245.122 463.908 246.01 464.791 247.076 465.406C248.141 466.021 249.349 466.349 250.58 466.356C251.802 466.356 253.016 466.033 254.097 465.408L267.491 457.658L280.899 465.408C282.511 466.34 284.426 466.593 286.225 466.112C288.023 465.632 289.557 464.457 290.489 462.846L298.232 449.438H313.669C315.531 449.438 317.316 448.698 318.633 447.382C319.949 446.065 320.689 444.279 320.689 442.418V426.981L334.097 419.231C334.896 418.769 335.596 418.155 336.157 417.422C336.718 416.69 337.129 415.855 337.367 414.963C337.605 414.072 337.665 413.143 337.544 412.228C337.422 411.314 337.122 410.432 336.659 409.634L328.916 396.24ZM249.941 361.07C252.735 361.071 255.414 362.181 257.389 364.158C259.363 366.134 260.472 368.813 260.471 371.607C260.47 374.401 259.36 377.079 257.384 379.054C255.408 381.029 252.728 382.138 249.934 382.137C247.141 382.136 244.462 381.025 242.487 379.049C240.512 377.073 239.403 374.394 239.404 371.6C239.405 368.806 240.516 366.127 242.492 364.153C244.468 362.178 247.148 361.069 249.941 361.07ZM252.047 428.462L240.815 420.045L282.935 363.885L294.167 372.302L252.047 428.462ZM285.041 431.27C283.658 431.269 282.288 430.997 281.011 430.467C279.733 429.937 278.572 429.161 277.594 428.182C276.616 427.204 275.841 426.042 275.312 424.764C274.783 423.486 274.511 422.116 274.511 420.733C274.512 419.35 274.785 417.98 275.314 416.702C275.844 415.424 276.62 414.263 277.599 413.286C278.577 412.308 279.739 411.532 281.017 411.003C282.295 410.474 283.665 410.202 285.048 410.203C287.842 410.204 290.521 411.314 292.496 413.291C294.47 415.267 295.579 417.946 295.578 420.74C295.577 423.534 294.467 426.212 292.491 428.187C290.515 430.162 287.835 431.271 285.041 431.27Z" fill="#105004"/>
<rect x="22" y="493.48" width="491" height="68" rx="34" fill="#105004" fill-opacity="0.1"/>
<path d="M78.8608 513.389V542.48H73.5483L60.892 524.17H60.679V542.48H54.5284V513.389H59.9261L72.483 531.685H72.7386V513.389H78.8608ZM93.6868 542.906C91.4804 542.906 89.5722 542.437 87.9624 541.5C86.362 540.553 85.1262 539.237 84.255 537.551C83.3838 535.856 82.9482 533.891 82.9482 531.656C82.9482 529.402 83.3838 527.433 84.255 525.747C85.1262 524.052 86.362 522.736 87.9624 521.798C89.5722 520.851 91.4804 520.378 93.6868 520.378C95.8932 520.378 97.7966 520.851 99.397 521.798C101.007 522.736 102.247 524.052 103.119 525.747C103.99 527.433 104.425 529.402 104.425 531.656C104.425 533.891 103.99 535.856 103.119 537.551C102.247 539.237 101.007 540.553 99.397 541.5C97.7966 542.437 95.8932 542.906 93.6868 542.906ZM93.7152 538.219C94.719 538.219 95.5571 537.935 96.2294 537.366C96.9018 536.789 97.4084 536.003 97.7493 535.008C98.0997 534.014 98.2749 532.882 98.2749 531.614C98.2749 530.345 98.0997 529.213 97.7493 528.219C97.4084 527.224 96.9018 526.438 96.2294 525.861C95.5571 525.283 94.719 524.994 93.7152 524.994C92.7019 524.994 91.8497 525.283 91.1584 525.861C90.4766 526.438 89.9605 527.224 89.6101 528.219C89.2692 529.213 89.0987 530.345 89.0987 531.614C89.0987 532.882 89.2692 534.014 89.6101 535.008C89.9605 536.003 90.4766 536.789 91.1584 537.366C91.8497 537.935 92.7019 538.219 93.7152 538.219ZM143.399 523.574H137.178C137.064 522.769 136.832 522.054 136.482 521.429C136.131 520.794 135.681 520.255 135.132 519.81C134.583 519.364 133.948 519.024 133.229 518.787C132.518 518.55 131.747 518.432 130.913 518.432C129.408 518.432 128.096 518.806 126.979 519.554C125.861 520.292 124.995 521.372 124.379 522.792C123.764 524.203 123.456 525.917 123.456 527.935C123.456 530.008 123.764 531.751 124.379 533.162C125.004 534.573 125.875 535.638 126.993 536.358C128.11 537.078 129.403 537.437 130.871 537.437C131.695 537.437 132.457 537.328 133.158 537.111C133.868 536.893 134.498 536.576 135.047 536.159C135.596 535.733 136.051 535.217 136.411 534.611C136.78 534.005 137.036 533.313 137.178 532.537L143.399 532.565C143.238 533.9 142.836 535.188 142.192 536.429C141.557 537.66 140.7 538.763 139.621 539.739C138.551 540.704 137.272 541.471 135.786 542.04C134.308 542.598 132.637 542.878 130.771 542.878C128.177 542.878 125.857 542.291 123.811 541.116C121.775 539.942 120.165 538.242 118.982 536.017C117.807 533.792 117.22 531.097 117.22 527.935C117.22 524.762 117.817 522.063 119.01 519.838C120.203 517.613 121.822 515.917 123.868 514.753C125.913 513.578 128.214 512.991 130.771 512.991C132.457 512.991 134.019 513.228 135.459 513.702C136.908 514.175 138.191 514.866 139.308 515.775C140.426 516.675 141.335 517.778 142.036 519.085C142.746 520.392 143.2 521.888 143.399 523.574ZM174.543 527.935C174.543 531.107 173.941 533.806 172.739 536.031C171.545 538.256 169.917 539.956 167.852 541.131C165.797 542.295 163.487 542.878 160.92 542.878C158.335 542.878 156.015 542.291 153.96 541.116C151.905 539.942 150.281 538.242 149.088 536.017C147.895 533.792 147.298 531.097 147.298 527.935C147.298 524.762 147.895 522.063 149.088 519.838C150.281 517.613 151.905 515.917 153.96 514.753C156.015 513.578 158.335 512.991 160.92 512.991C163.487 512.991 165.797 513.578 167.852 514.753C169.917 515.917 171.545 517.613 172.739 519.838C173.941 522.063 174.543 524.762 174.543 527.935ZM168.307 527.935C168.307 525.88 167.999 524.147 167.384 522.736C166.777 521.325 165.92 520.255 164.812 519.525C163.705 518.796 162.407 518.432 160.92 518.432C159.434 518.432 158.136 518.796 157.028 519.525C155.92 520.255 155.059 521.325 154.443 522.736C153.837 524.147 153.534 525.88 153.534 527.935C153.534 529.989 153.837 531.722 154.443 533.133C155.059 534.544 155.92 535.614 157.028 536.344C158.136 537.073 159.434 537.437 160.92 537.437C162.407 537.437 163.705 537.073 164.812 536.344C165.92 535.614 166.777 534.544 167.384 533.133C167.999 531.722 168.307 529.989 168.307 527.935ZM189.411 542.48H179.099V513.389H189.496C192.423 513.389 194.942 513.971 197.053 515.136C199.165 516.292 200.789 517.953 201.925 520.122C203.071 522.291 203.644 524.885 203.644 527.906C203.644 530.936 203.071 533.541 201.925 535.719C200.789 537.897 199.156 539.568 197.025 540.733C194.904 541.898 192.366 542.48 189.411 542.48ZM185.249 537.21H189.156C190.974 537.21 192.503 536.888 193.744 536.244C194.994 535.591 195.931 534.582 196.556 533.219C197.191 531.846 197.508 530.075 197.508 527.906C197.508 525.756 197.191 524 196.556 522.636C195.931 521.273 194.998 520.269 193.758 519.625C192.517 518.981 190.988 518.659 189.17 518.659H185.249V537.21ZM221.648 542.48L215.711 520.662H221.833L225.214 535.321H225.413L228.935 520.662H234.944L238.523 535.236H238.708L242.032 520.662H248.14L242.217 542.48H235.81L232.06 528.758H231.79L228.04 542.48H221.648ZM251.368 542.48V520.662H257.419V542.48H251.368ZM254.408 517.849C253.508 517.849 252.736 517.551 252.092 516.954C251.458 516.348 251.141 515.624 251.141 514.781C251.141 513.948 251.458 513.233 252.092 512.636C252.736 512.03 253.508 511.727 254.408 511.727C255.307 511.727 256.074 512.03 256.709 512.636C257.353 513.233 257.675 513.948 257.675 514.781C257.675 515.624 257.353 516.348 256.709 516.954C256.074 517.551 255.307 517.849 254.408 517.849ZM273.871 520.662V525.207H260.732V520.662H273.871ZM263.715 515.435H269.766V535.775C269.766 536.334 269.852 536.77 270.022 537.082C270.192 537.385 270.429 537.598 270.732 537.721C271.045 537.845 271.405 537.906 271.812 537.906C272.096 537.906 272.38 537.882 272.664 537.835C272.948 537.778 273.166 537.736 273.317 537.707L274.269 542.21C273.966 542.305 273.54 542.414 272.991 542.537C272.442 542.669 271.774 542.75 270.988 542.778C269.53 542.835 268.251 542.641 267.153 542.196C266.064 541.751 265.216 541.06 264.61 540.122C264.004 539.185 263.706 538.001 263.715 536.571V515.435ZM284.333 529.866V542.48H278.282V513.389H284.163V524.511H284.418C284.911 523.223 285.706 522.215 286.805 521.486C287.903 520.747 289.281 520.378 290.938 520.378C292.453 520.378 293.774 520.709 294.901 521.372C296.038 522.025 296.918 522.968 297.543 524.199C298.178 525.42 298.49 526.883 298.481 528.588V542.48H292.43V529.667C292.439 528.323 292.098 527.276 291.407 526.528C290.725 525.78 289.769 525.406 288.538 525.406C287.714 525.406 286.985 525.581 286.35 525.932C285.725 526.282 285.233 526.793 284.873 527.466C284.522 528.129 284.343 528.929 284.333 529.866ZM320.54 542.835C318.883 542.835 317.382 542.409 316.038 541.557C314.702 540.695 313.642 539.431 312.856 537.764C312.079 536.088 311.691 534.033 311.691 531.599C311.691 529.099 312.094 527.021 312.898 525.364C313.703 523.697 314.773 522.452 316.109 521.628C317.453 520.794 318.926 520.378 320.526 520.378C321.748 520.378 322.766 520.586 323.58 521.003C324.404 521.41 325.067 521.921 325.569 522.537C326.08 523.143 326.469 523.739 326.734 524.327H326.918V513.389H332.955V542.48H326.989V538.986H326.734C326.45 539.592 326.047 540.193 325.526 540.79C325.015 541.377 324.347 541.864 323.523 542.253C322.709 542.641 321.715 542.835 320.54 542.835ZM322.458 538.02C323.433 538.02 324.257 537.755 324.93 537.224C325.612 536.685 326.132 535.932 326.492 534.966C326.862 534 327.046 532.868 327.046 531.571C327.046 530.274 326.866 529.147 326.506 528.19C326.147 527.234 325.626 526.495 324.944 525.974C324.262 525.453 323.433 525.193 322.458 525.193C321.464 525.193 320.626 525.463 319.944 526.003C319.262 526.542 318.746 527.291 318.396 528.247C318.045 529.203 317.87 530.311 317.87 531.571C317.87 532.84 318.045 533.962 318.396 534.937C318.755 535.903 319.272 536.661 319.944 537.21C320.626 537.75 321.464 538.02 322.458 538.02ZM337.93 542.48V520.662H343.982V542.48H337.93ZM340.97 517.849C340.071 517.849 339.299 517.551 338.655 516.954C338.02 516.348 337.703 515.624 337.703 514.781C337.703 513.948 338.02 513.233 338.655 512.636C339.299 512.03 340.071 511.727 340.97 511.727C341.87 511.727 342.637 512.03 343.271 512.636C343.915 513.233 344.237 513.948 344.237 514.781C344.237 515.624 343.915 516.348 343.271 516.954C342.637 517.551 341.87 517.849 340.97 517.849ZM366.982 526.883L361.442 527.224C361.348 526.751 361.144 526.325 360.832 525.946C360.519 525.558 360.107 525.25 359.596 525.023C359.094 524.786 358.493 524.667 357.792 524.667C356.854 524.667 356.064 524.866 355.42 525.264C354.776 525.652 354.454 526.173 354.454 526.827C354.454 527.347 354.662 527.788 355.079 528.148C355.496 528.507 356.21 528.796 357.224 529.014L361.173 529.81C363.294 530.245 364.875 530.946 365.917 531.912C366.959 532.878 367.479 534.147 367.479 535.719C367.479 537.149 367.058 538.403 366.215 539.483C365.382 540.562 364.236 541.405 362.778 542.011C361.329 542.608 359.657 542.906 357.763 542.906C354.875 542.906 352.574 542.305 350.86 541.102C349.156 539.89 348.156 538.242 347.863 536.159L353.815 535.846C353.995 536.727 354.43 537.399 355.121 537.864C355.813 538.318 356.698 538.545 357.778 538.545C358.838 538.545 359.691 538.342 360.335 537.935C360.988 537.518 361.319 536.983 361.329 536.329C361.319 535.78 361.087 535.33 360.633 534.98C360.178 534.62 359.478 534.346 358.531 534.156L354.752 533.403C352.621 532.977 351.035 532.239 349.994 531.187C348.961 530.136 348.445 528.796 348.445 527.167C348.445 525.766 348.824 524.559 349.582 523.545C350.349 522.532 351.424 521.751 352.806 521.202C354.198 520.652 355.827 520.378 357.692 520.378C360.448 520.378 362.617 520.96 364.198 522.125C365.789 523.29 366.717 524.876 366.982 526.883ZM381.148 542.906C378.913 542.906 376.991 542.433 375.381 541.486C373.78 540.529 372.549 539.203 371.688 537.508C370.835 535.813 370.409 533.863 370.409 531.656C370.409 529.421 370.84 527.461 371.702 525.775C372.573 524.08 373.809 522.759 375.409 521.812C377.009 520.856 378.913 520.378 381.119 520.378C383.023 520.378 384.689 520.723 386.119 521.415C387.549 522.106 388.681 523.077 389.514 524.327C390.348 525.577 390.807 527.044 390.892 528.73H385.182C385.021 527.641 384.595 526.765 383.903 526.102C383.222 525.43 382.327 525.094 381.219 525.094C380.281 525.094 379.462 525.349 378.761 525.861C378.07 526.363 377.53 527.096 377.142 528.062C376.754 529.028 376.56 530.198 376.56 531.571C376.56 532.963 376.749 534.147 377.128 535.122C377.516 536.097 378.061 536.841 378.761 537.352C379.462 537.864 380.281 538.119 381.219 538.119C381.91 538.119 382.53 537.977 383.08 537.693C383.638 537.409 384.098 536.997 384.457 536.457C384.827 535.908 385.068 535.25 385.182 534.483H390.892C390.797 536.149 390.343 537.617 389.528 538.886C388.723 540.146 387.611 541.131 386.19 541.841C384.77 542.551 383.089 542.906 381.148 542.906ZM404.624 542.906C402.418 542.906 400.51 542.437 398.9 541.5C397.299 540.553 396.064 539.237 395.192 537.551C394.321 535.856 393.886 533.891 393.886 531.656C393.886 529.402 394.321 527.433 395.192 525.747C396.064 524.052 397.299 522.736 398.9 521.798C400.51 520.851 402.418 520.378 404.624 520.378C406.831 520.378 408.734 520.851 410.335 521.798C411.944 522.736 413.185 524.052 414.056 525.747C414.927 527.433 415.363 529.402 415.363 531.656C415.363 533.891 414.927 535.856 414.056 537.551C413.185 539.237 411.944 540.553 410.335 541.5C408.734 542.437 406.831 542.906 404.624 542.906ZM404.653 538.219C405.656 538.219 406.495 537.935 407.167 537.366C407.839 536.789 408.346 536.003 408.687 535.008C409.037 534.014 409.212 532.882 409.212 531.614C409.212 530.345 409.037 529.213 408.687 528.219C408.346 527.224 407.839 526.438 407.167 525.861C406.495 525.283 405.656 524.994 404.653 524.994C403.639 524.994 402.787 525.283 402.096 525.861C401.414 526.438 400.898 527.224 400.548 528.219C400.207 529.213 400.036 530.345 400.036 531.614C400.036 532.882 400.207 534.014 400.548 535.008C400.898 536.003 401.414 536.789 402.096 537.366C402.787 537.935 403.639 538.219 404.653 538.219ZM433.289 533.19V520.662H439.34V542.48H433.531V538.517H433.303C432.811 539.795 431.992 540.823 430.846 541.599C429.71 542.376 428.322 542.764 426.684 542.764C425.226 542.764 423.942 542.433 422.835 541.77C421.727 541.107 420.86 540.165 420.235 538.943C419.62 537.721 419.307 536.258 419.298 534.554V520.662H425.349V533.474C425.358 534.762 425.704 535.78 426.386 536.528C427.067 537.276 427.981 537.65 429.127 537.65C429.856 537.65 430.538 537.485 431.173 537.153C431.807 536.812 432.318 536.31 432.707 535.648C433.104 534.985 433.299 534.166 433.289 533.19ZM450.232 529.866V542.48H444.18V520.662H449.947V524.511H450.203C450.686 523.242 451.496 522.239 452.632 521.5C453.768 520.752 455.146 520.378 456.766 520.378C458.281 520.378 459.602 520.709 460.729 521.372C461.856 522.035 462.732 522.982 463.357 524.213C463.982 525.435 464.294 526.893 464.294 528.588V542.48H458.243V529.667C458.252 528.332 457.911 527.291 457.22 526.542C456.529 525.785 455.577 525.406 454.365 525.406C453.551 525.406 452.831 525.581 452.206 525.932C451.59 526.282 451.107 526.793 450.757 527.466C450.416 528.129 450.241 528.929 450.232 529.866ZM480.668 520.662V525.207H467.529V520.662H480.668ZM470.512 515.435H476.563V535.775C476.563 536.334 476.648 536.77 476.819 537.082C476.989 537.385 477.226 537.598 477.529 537.721C477.842 537.845 478.201 537.906 478.609 537.906C478.893 537.906 479.177 537.882 479.461 537.835C479.745 537.778 479.963 537.736 480.114 537.707L481.066 542.21C480.763 542.305 480.337 542.414 479.788 542.537C479.238 542.669 478.571 542.75 477.785 542.778C476.326 542.835 475.048 542.641 473.95 542.196C472.861 541.751 472.013 541.06 471.407 540.122C470.801 539.185 470.503 538.001 470.512 536.571V515.435Z" fill="#105004"/>
<path d="M657.501 650.04C626.536 650.04 601.341 675.235 601.341 706.165C601.138 751.409 655.367 788.924 657.501 790.44C657.501 790.44 713.865 751.409 713.661 706.2C713.661 675.235 688.467 650.04 657.501 650.04ZM657.501 734.28C641.987 734.28 629.421 721.714 629.421 706.2C629.421 690.686 641.987 678.12 657.501 678.12C673.016 678.12 685.581 690.686 685.581 706.2C685.581 721.714 673.016 734.28 657.501 734.28Z" fill="#105004"/>
<rect x="402.5" y="810.48" width="510" height="68" rx="34" fill="#105004" fill-opacity="0.1"/>
<path d="M459.361 830.389V859.48H454.048L441.392 841.17H441.179V859.48H435.028V830.389H440.426L452.983 848.685H453.239V830.389H459.361ZM474.187 859.906C471.98 859.906 470.072 859.437 468.462 858.5C466.862 857.553 465.626 856.237 464.755 854.551C463.884 852.856 463.448 850.891 463.448 848.656C463.448 846.402 463.884 844.433 464.755 842.747C465.626 841.052 466.862 839.736 468.462 838.798C470.072 837.851 471.98 837.378 474.187 837.378C476.393 837.378 478.297 837.851 479.897 838.798C481.507 839.736 482.747 841.052 483.619 842.747C484.49 844.433 484.925 846.402 484.925 848.656C484.925 850.891 484.49 852.856 483.619 854.551C482.747 856.237 481.507 857.553 479.897 858.5C478.297 859.437 476.393 859.906 474.187 859.906ZM474.215 855.219C475.219 855.219 476.057 854.935 476.729 854.366C477.402 853.789 477.908 853.003 478.249 852.008C478.6 851.014 478.775 849.882 478.775 848.614C478.775 847.345 478.6 846.213 478.249 845.219C477.908 844.224 477.402 843.438 476.729 842.861C476.057 842.283 475.219 841.994 474.215 841.994C473.202 841.994 472.35 842.283 471.658 842.861C470.977 843.438 470.46 844.224 470.11 845.219C469.769 846.213 469.599 847.345 469.599 848.614C469.599 849.882 469.769 851.014 470.11 852.008C470.46 853.003 470.977 853.789 471.658 854.366C472.35 854.935 473.202 855.219 474.215 855.219ZM523.899 840.574H517.678C517.564 839.769 517.332 839.054 516.982 838.429C516.631 837.794 516.181 837.255 515.632 836.81C515.083 836.364 514.448 836.024 513.729 835.787C513.018 835.55 512.247 835.432 511.413 835.432C509.908 835.432 508.596 835.806 507.479 836.554C506.361 837.292 505.495 838.372 504.879 839.792C504.264 841.203 503.956 842.917 503.956 844.935C503.956 847.008 504.264 848.751 504.879 850.162C505.504 851.573 506.375 852.638 507.493 853.358C508.61 854.078 509.903 854.437 511.371 854.437C512.195 854.437 512.957 854.328 513.658 854.111C514.368 853.893 514.998 853.576 515.547 853.159C516.096 852.733 516.551 852.217 516.911 851.611C517.28 851.005 517.536 850.313 517.678 849.537L523.899 849.565C523.738 850.9 523.336 852.188 522.692 853.429C522.057 854.66 521.2 855.763 520.121 856.739C519.051 857.704 517.772 858.471 516.286 859.04C514.808 859.598 513.137 859.878 511.271 859.878C508.677 859.878 506.357 859.291 504.311 858.116C502.275 856.942 500.665 855.242 499.482 853.017C498.307 850.792 497.72 848.097 497.72 844.935C497.72 841.762 498.317 839.063 499.51 836.838C500.703 834.613 502.322 832.917 504.368 831.753C506.413 830.578 508.714 829.991 511.271 829.991C512.957 829.991 514.519 830.228 515.959 830.702C517.408 831.175 518.691 831.866 519.808 832.775C520.926 833.675 521.835 834.778 522.536 836.085C523.246 837.392 523.7 838.888 523.899 840.574ZM555.043 844.935C555.043 848.107 554.441 850.806 553.239 853.031C552.045 855.256 550.417 856.956 548.352 858.131C546.297 859.295 543.987 859.878 541.42 859.878C538.835 859.878 536.515 859.291 534.46 858.116C532.405 856.942 530.781 855.242 529.588 853.017C528.395 850.792 527.798 848.097 527.798 844.935C527.798 841.762 528.395 839.063 529.588 836.838C530.781 834.613 532.405 832.917 534.46 831.753C536.515 830.578 538.835 829.991 541.42 829.991C543.987 829.991 546.297 830.578 548.352 831.753C550.417 832.917 552.045 834.613 553.239 836.838C554.441 839.063 555.043 841.762 555.043 844.935ZM548.807 844.935C548.807 842.88 548.499 841.147 547.884 839.736C547.277 838.325 546.42 837.255 545.312 836.525C544.205 835.796 542.907 835.432 541.42 835.432C539.934 835.432 538.636 835.796 537.528 836.525C536.42 837.255 535.559 838.325 534.943 839.736C534.337 841.147 534.034 842.88 534.034 844.935C534.034 846.989 534.337 848.722 534.943 850.133C535.559 851.544 536.42 852.614 537.528 853.344C538.636 854.073 539.934 854.437 541.42 854.437C542.907 854.437 544.205 854.073 545.312 853.344C546.42 852.614 547.277 851.544 547.884 850.133C548.499 848.722 548.807 846.989 548.807 844.935ZM569.911 859.48H559.599V830.389H569.996C572.923 830.389 575.442 830.971 577.553 832.136C579.665 833.292 581.289 834.953 582.425 837.122C583.571 839.291 584.144 841.885 584.144 844.906C584.144 847.936 583.571 850.541 582.425 852.719C581.289 854.897 579.656 856.568 577.525 857.733C575.404 858.898 572.866 859.48 569.911 859.48ZM565.749 854.21H569.656C571.474 854.21 573.003 853.888 574.244 853.244C575.494 852.591 576.431 851.582 577.056 850.219C577.691 848.846 578.008 847.075 578.008 844.906C578.008 842.756 577.691 841 577.056 839.636C576.431 838.273 575.498 837.269 574.258 836.625C573.017 835.981 571.488 835.659 569.67 835.659H565.749V854.21ZM597.844 859.48V837.662H603.896V859.48H597.844ZM600.884 834.849C599.985 834.849 599.213 834.551 598.569 833.954C597.934 833.348 597.617 832.624 597.617 831.781C597.617 830.948 597.934 830.233 598.569 829.636C599.213 829.03 599.985 828.727 600.884 828.727C601.784 828.727 602.551 829.03 603.185 829.636C603.829 830.233 604.151 830.948 604.151 831.781C604.151 832.624 603.829 833.348 603.185 833.954C602.551 834.551 601.784 834.849 600.884 834.849ZM614.794 846.866V859.48H608.743V837.662H614.51V841.511H614.766C615.249 840.242 616.058 839.239 617.195 838.5C618.331 837.752 619.709 837.378 621.328 837.378C622.843 837.378 624.164 837.709 625.291 838.372C626.418 839.035 627.294 839.982 627.919 841.213C628.544 842.435 628.857 843.893 628.857 845.588V859.48H622.805V846.667C622.815 845.332 622.474 844.291 621.783 843.542C621.091 842.785 620.14 842.406 618.928 842.406C618.113 842.406 617.393 842.581 616.768 842.932C616.153 843.282 615.67 843.793 615.32 844.466C614.979 845.129 614.804 845.929 614.794 846.866ZM654.489 837.662V842.207H641.349V837.662H654.489ZM644.332 832.435H650.384V852.775C650.384 853.334 650.469 853.77 650.639 854.082C650.81 854.385 651.046 854.598 651.349 854.721C651.662 854.845 652.022 854.906 652.429 854.906C652.713 854.906 652.997 854.882 653.281 854.835C653.565 854.778 653.783 854.736 653.935 854.707L654.886 859.21C654.583 859.305 654.157 859.414 653.608 859.537C653.059 859.669 652.391 859.75 651.605 859.778C650.147 859.835 648.868 859.641 647.77 859.196C646.681 858.751 645.833 858.06 645.227 857.122C644.621 856.185 644.323 855.001 644.332 853.571V832.435ZM664.95 846.866V859.48H658.899V830.389H664.78V841.511H665.036C665.528 840.223 666.323 839.215 667.422 838.486C668.52 837.747 669.898 837.378 671.555 837.378C673.071 837.378 674.392 837.709 675.518 838.372C676.655 839.025 677.536 839.968 678.161 841.199C678.795 842.42 679.107 843.883 679.098 845.588V859.48H673.047V846.667C673.056 845.323 672.715 844.276 672.024 843.528C671.342 842.78 670.386 842.406 669.155 842.406C668.331 842.406 667.602 842.581 666.967 842.932C666.342 843.282 665.85 843.793 665.49 844.466C665.14 845.129 664.96 845.929 664.95 846.866ZM683.86 859.48V837.662H689.911V859.48H683.86ZM686.9 834.849C686 834.849 685.228 834.551 684.585 833.954C683.95 833.348 683.633 832.624 683.633 831.781C683.633 830.948 683.95 830.233 684.585 829.636C685.228 829.03 686 828.727 686.9 828.727C687.799 828.727 688.567 829.03 689.201 829.636C689.845 830.233 690.167 830.948 690.167 831.781C690.167 832.624 689.845 833.348 689.201 833.954C688.567 834.551 687.799 834.849 686.9 834.849ZM712.912 843.883L707.372 844.224C707.277 843.751 707.074 843.325 706.761 842.946C706.449 842.558 706.037 842.25 705.526 842.023C705.024 841.786 704.422 841.667 703.722 841.667C702.784 841.667 701.993 841.866 701.349 842.264C700.705 842.652 700.384 843.173 700.384 843.827C700.384 844.347 700.592 844.788 701.009 845.148C701.425 845.507 702.14 845.796 703.153 846.014L707.102 846.81C709.223 847.245 710.805 847.946 711.847 848.912C712.888 849.878 713.409 851.147 713.409 852.719C713.409 854.149 712.988 855.403 712.145 856.483C711.312 857.562 710.166 858.405 708.707 859.011C707.259 859.608 705.587 859.906 703.693 859.906C700.805 859.906 698.504 859.305 696.79 858.102C695.085 856.89 694.086 855.242 693.793 853.159L699.744 852.846C699.924 853.727 700.36 854.399 701.051 854.864C701.742 855.318 702.628 855.545 703.707 855.545C704.768 855.545 705.62 855.342 706.264 854.935C706.918 854.518 707.249 853.983 707.259 853.329C707.249 852.78 707.017 852.33 706.562 851.98C706.108 851.62 705.407 851.346 704.46 851.156L700.682 850.403C698.551 849.977 696.965 849.239 695.923 848.187C694.891 847.136 694.375 845.796 694.375 844.167C694.375 842.766 694.754 841.559 695.511 840.545C696.278 839.532 697.353 838.751 698.736 838.202C700.128 837.652 701.757 837.378 703.622 837.378C706.378 837.378 708.546 837.96 710.128 839.125C711.719 840.29 712.647 841.876 712.912 843.883ZM732.528 830.389V859.48H726.477V830.389H732.528ZM747.234 859.906C745.027 859.906 743.119 859.437 741.509 858.5C739.909 857.553 738.673 856.237 737.802 854.551C736.931 852.856 736.495 850.891 736.495 848.656C736.495 846.402 736.931 844.433 737.802 842.747C738.673 841.052 739.909 839.736 741.509 838.798C743.119 837.851 745.027 837.378 747.234 837.378C749.44 837.378 751.344 837.851 752.944 838.798C754.554 839.736 755.794 841.052 756.665 842.747C757.537 844.433 757.972 846.402 757.972 848.656C757.972 850.891 757.537 852.856 756.665 854.551C755.794 856.237 754.554 857.553 752.944 858.5C751.344 859.437 749.44 859.906 747.234 859.906ZM747.262 855.219C748.266 855.219 749.104 854.935 749.776 854.366C750.449 853.789 750.955 853.003 751.296 852.008C751.647 851.014 751.822 849.882 751.822 848.614C751.822 847.345 751.647 846.213 751.296 845.219C750.955 844.224 750.449 843.438 749.776 842.861C749.104 842.283 748.266 841.994 747.262 841.994C746.249 841.994 745.397 842.283 744.705 842.861C744.023 843.438 743.507 844.224 743.157 845.219C742.816 846.213 742.646 847.345 742.646 848.614C742.646 849.882 742.816 851.014 743.157 852.008C743.507 853.003 744.023 853.789 744.705 854.366C745.397 854.935 746.249 855.219 747.262 855.219ZM771.765 859.906C769.53 859.906 767.608 859.433 765.998 858.486C764.397 857.529 763.166 856.203 762.305 854.508C761.452 852.813 761.026 850.863 761.026 848.656C761.026 846.421 761.457 844.461 762.319 842.775C763.19 841.08 764.426 839.759 766.026 838.812C767.627 837.856 769.53 837.378 771.737 837.378C773.64 837.378 775.307 837.723 776.737 838.415C778.166 839.106 779.298 840.077 780.131 841.327C780.965 842.577 781.424 844.044 781.509 845.73H775.799C775.638 844.641 775.212 843.765 774.521 843.102C773.839 842.43 772.944 842.094 771.836 842.094C770.898 842.094 770.079 842.349 769.379 842.861C768.687 843.363 768.147 844.096 767.759 845.062C767.371 846.028 767.177 847.198 767.177 848.571C767.177 849.963 767.366 851.147 767.745 852.122C768.133 853.097 768.678 853.841 769.379 854.352C770.079 854.864 770.898 855.119 771.836 855.119C772.527 855.119 773.147 854.977 773.697 854.693C774.255 854.409 774.715 853.997 775.075 853.457C775.444 852.908 775.685 852.25 775.799 851.483H781.509C781.415 853.149 780.96 854.617 780.146 855.886C779.341 857.146 778.228 858.131 776.808 858.841C775.387 859.551 773.706 859.906 771.765 859.906ZM791.605 859.892C790.213 859.892 788.973 859.65 787.884 859.167C786.795 858.675 785.933 857.951 785.298 856.994C784.673 856.028 784.361 854.826 784.361 853.386C784.361 852.174 784.583 851.156 785.028 850.332C785.473 849.508 786.08 848.846 786.847 848.344C787.614 847.842 788.485 847.463 789.46 847.207C790.445 846.952 791.477 846.772 792.557 846.667C793.826 846.535 794.848 846.412 795.625 846.298C796.402 846.175 796.965 845.995 797.315 845.758C797.666 845.522 797.841 845.171 797.841 844.707V844.622C797.841 843.722 797.557 843.026 796.989 842.534C796.43 842.042 795.634 841.795 794.602 841.795C793.513 841.795 792.647 842.037 792.003 842.52C791.359 842.993 790.933 843.59 790.724 844.31L785.128 843.855C785.412 842.529 785.971 841.383 786.804 840.417C787.637 839.442 788.712 838.694 790.028 838.173C791.354 837.643 792.888 837.378 794.631 837.378C795.843 837.378 797.003 837.52 798.111 837.804C799.228 838.088 800.218 838.528 801.08 839.125C801.951 839.721 802.637 840.489 803.139 841.426C803.641 842.354 803.892 843.467 803.892 844.764V859.48H798.153V856.454H797.983C797.633 857.136 797.164 857.738 796.577 858.258C795.99 858.77 795.284 859.172 794.46 859.466C793.636 859.75 792.685 859.892 791.605 859.892ZM793.338 855.716C794.228 855.716 795.014 855.541 795.696 855.19C796.378 854.83 796.913 854.347 797.301 853.741C797.689 853.135 797.884 852.449 797.884 851.682V849.366C797.694 849.489 797.434 849.603 797.102 849.707C796.78 849.802 796.416 849.892 796.009 849.977C795.601 850.053 795.194 850.124 794.787 850.19C794.38 850.247 794.01 850.299 793.679 850.346C792.969 850.451 792.348 850.616 791.818 850.844C791.288 851.071 790.876 851.379 790.582 851.767C790.289 852.146 790.142 852.619 790.142 853.187C790.142 854.011 790.44 854.641 791.037 855.077C791.643 855.503 792.41 855.716 793.338 855.716ZM820.192 837.662V842.207H807.053V837.662H820.192ZM810.036 832.435H816.087V852.775C816.087 853.334 816.172 853.77 816.342 854.082C816.513 854.385 816.75 854.598 817.053 854.721C817.365 854.845 817.725 854.906 818.132 854.906C818.416 854.906 818.7 854.882 818.984 854.835C819.268 854.778 819.486 854.736 819.638 854.707L820.589 859.21C820.286 859.305 819.86 859.414 819.311 859.537C818.762 859.669 818.094 859.75 817.308 859.778C815.85 859.835 814.571 859.641 813.473 859.196C812.384 858.751 811.536 858.06 810.93 857.122C810.324 856.185 810.026 855.001 810.036 853.571V832.435ZM824.134 859.48V837.662H830.185V859.48H824.134ZM827.173 834.849C826.274 834.849 825.502 834.551 824.858 833.954C824.223 833.348 823.906 832.624 823.906 831.781C823.906 830.948 824.223 830.233 824.858 829.636C825.502 829.03 826.274 828.727 827.173 828.727C828.073 828.727 828.84 829.03 829.474 829.636C830.118 830.233 830.44 830.948 830.44 831.781C830.44 832.624 830.118 833.348 829.474 833.954C828.84 834.551 828.073 834.849 827.173 834.849ZM844.89 859.906C842.683 859.906 840.775 859.437 839.165 858.5C837.565 857.553 836.329 856.237 835.458 854.551C834.587 852.856 834.151 850.891 834.151 848.656C834.151 846.402 834.587 844.433 835.458 842.747C836.329 841.052 837.565 839.736 839.165 838.798C840.775 837.851 842.683 837.378 844.89 837.378C847.096 837.378 849 837.851 850.6 838.798C852.21 839.736 853.451 841.052 854.322 842.747C855.193 844.433 855.629 846.402 855.629 848.656C855.629 850.891 855.193 852.856 854.322 854.551C853.451 856.237 852.21 857.553 850.6 858.5C849 859.437 847.096 859.906 844.89 859.906ZM844.918 855.219C845.922 855.219 846.76 854.935 847.433 854.366C848.105 853.789 848.612 853.003 848.952 852.008C849.303 851.014 849.478 849.882 849.478 848.614C849.478 847.345 849.303 846.213 848.952 845.219C848.612 844.224 848.105 843.438 847.433 842.861C846.76 842.283 845.922 841.994 844.918 841.994C843.905 841.994 843.053 842.283 842.362 842.861C841.68 843.438 841.164 844.224 840.813 845.219C840.472 846.213 840.302 847.345 840.302 848.614C840.302 849.882 840.472 851.014 840.813 852.008C841.164 853.003 841.68 853.789 842.362 854.366C843.053 854.935 843.905 855.219 844.918 855.219ZM865.614 846.866V859.48H859.563V837.662H865.33V841.511H865.586C866.069 840.242 866.879 839.239 868.015 838.5C869.151 837.752 870.529 837.378 872.148 837.378C873.664 837.378 874.985 837.709 876.112 838.372C877.238 839.035 878.114 839.982 878.739 841.213C879.364 842.435 879.677 843.893 879.677 845.588V859.48H873.626V846.667C873.635 845.332 873.294 844.291 872.603 843.542C871.912 842.785 870.96 842.406 869.748 842.406C868.933 842.406 868.214 842.581 867.589 842.932C866.973 843.282 866.49 843.793 866.14 844.466C865.799 845.129 865.624 845.929 865.614 846.866Z" fill="#105004"/>
<rect x="782" y="581" width="433" height="68" rx="34" fill="#105004" fill-opacity="0.1"/>
<path d="M840.196 611.094H833.974C833.861 610.289 833.629 609.574 833.278 608.949C832.928 608.314 832.478 607.775 831.929 607.33C831.38 606.884 830.745 606.544 830.026 606.307C829.315 606.07 828.544 605.952 827.71 605.952C826.205 605.952 824.893 606.326 823.776 607.074C822.658 607.812 821.792 608.892 821.176 610.312C820.561 611.723 820.253 613.437 820.253 615.455C820.253 617.528 820.561 619.271 821.176 620.682C821.801 622.093 822.672 623.158 823.79 623.878C824.907 624.598 826.2 624.957 827.668 624.957C828.491 624.957 829.254 624.848 829.955 624.631C830.665 624.413 831.295 624.096 831.844 623.679C832.393 623.253 832.848 622.737 833.207 622.131C833.577 621.525 833.832 620.833 833.974 620.057L840.196 620.085C840.035 621.42 839.633 622.708 838.989 623.949C838.354 625.18 837.497 626.283 836.418 627.259C835.348 628.224 834.069 628.991 832.582 629.56C831.105 630.118 829.434 630.398 827.568 630.398C824.973 630.398 822.653 629.811 820.608 628.636C818.572 627.462 816.962 625.762 815.778 623.537C814.604 621.312 814.017 618.617 814.017 615.455C814.017 612.282 814.614 609.583 815.807 607.358C817 605.133 818.619 603.437 820.665 602.273C822.71 601.098 825.011 600.511 827.568 600.511C829.254 600.511 830.816 600.748 832.256 601.222C833.705 601.695 834.988 602.386 836.105 603.295C837.223 604.195 838.132 605.298 838.832 606.605C839.543 607.912 839.997 609.408 840.196 611.094ZM871.339 615.455C871.339 618.627 870.738 621.326 869.536 623.551C868.342 625.777 866.714 627.476 864.649 628.651C862.594 629.815 860.284 630.398 857.717 630.398C855.132 630.398 852.812 629.811 850.757 628.636C848.702 627.462 847.078 625.762 845.885 623.537C844.692 621.312 844.095 618.617 844.095 615.455C844.095 612.282 844.692 609.583 845.885 607.358C847.078 605.133 848.702 603.437 850.757 602.273C852.812 601.098 855.132 600.511 857.717 600.511C860.284 600.511 862.594 601.098 864.649 602.273C866.714 603.437 868.342 605.133 869.536 607.358C870.738 609.583 871.339 612.282 871.339 615.455ZM865.104 615.455C865.104 613.4 864.796 611.667 864.18 610.256C863.574 608.845 862.717 607.775 861.609 607.045C860.501 606.316 859.204 605.952 857.717 605.952C856.231 605.952 854.933 606.316 853.825 607.045C852.717 607.775 851.856 608.845 851.24 610.256C850.634 611.667 850.331 613.4 850.331 615.455C850.331 617.509 850.634 619.242 851.24 620.653C851.856 622.064 852.717 623.134 853.825 623.864C854.933 624.593 856.231 624.957 857.717 624.957C859.204 624.957 860.501 624.593 861.609 623.864C862.717 623.134 863.574 622.064 864.18 620.653C864.796 619.242 865.104 617.509 865.104 615.455ZM886.208 630H875.896V600.909H886.293C889.219 600.909 891.738 601.491 893.85 602.656C895.962 603.812 897.586 605.473 898.722 607.642C899.868 609.811 900.441 612.405 900.441 615.426C900.441 618.456 899.868 621.061 898.722 623.239C897.586 625.417 895.952 627.088 893.822 628.253C891.701 629.418 889.163 630 886.208 630ZM882.046 624.73H885.952C887.771 624.73 889.3 624.408 890.54 623.764C891.79 623.111 892.728 622.102 893.353 620.739C893.987 619.366 894.305 617.595 894.305 615.426C894.305 613.277 893.987 611.52 893.353 610.156C892.728 608.793 891.795 607.789 890.555 607.145C889.314 606.501 887.785 606.179 885.967 606.179H882.046V624.73ZM914.255 630V600.909H933.516V605.98H920.406V612.912H932.238V617.983H920.406V630H914.255ZM945.881 630.426C943.637 630.426 941.705 629.972 940.086 629.062C938.476 628.144 937.236 626.847 936.364 625.17C935.493 623.485 935.058 621.491 935.058 619.19C935.058 616.946 935.493 614.976 936.364 613.281C937.236 611.586 938.462 610.265 940.043 609.318C941.634 608.371 943.5 607.898 945.64 607.898C947.079 607.898 948.419 608.13 949.66 608.594C950.91 609.048 951.999 609.735 952.927 610.653C953.864 611.572 954.594 612.727 955.114 614.119C955.635 615.502 955.896 617.121 955.896 618.977V620.639H937.472V616.889H950.2C950.2 616.018 950.01 615.246 949.631 614.574C949.253 613.902 948.727 613.376 948.055 612.997C947.392 612.609 946.62 612.415 945.739 612.415C944.821 612.415 944.006 612.628 943.296 613.054C942.595 613.471 942.046 614.034 941.648 614.744C941.251 615.445 941.047 616.226 941.038 617.088V620.653C941.038 621.733 941.237 622.666 941.634 623.452C942.041 624.238 942.614 624.844 943.353 625.27C944.092 625.696 944.968 625.909 945.981 625.909C946.653 625.909 947.269 625.814 947.827 625.625C948.386 625.436 948.864 625.152 949.262 624.773C949.66 624.394 949.963 623.93 950.171 623.381L955.768 623.75C955.484 625.095 954.901 626.269 954.021 627.273C953.149 628.267 952.022 629.044 950.64 629.602C949.267 630.152 947.681 630.426 945.881 630.426ZM969.788 630.426C967.543 630.426 965.612 629.972 963.992 629.062C962.382 628.144 961.142 626.847 960.271 625.17C959.399 623.485 958.964 621.491 958.964 619.19C958.964 616.946 959.399 614.976 960.271 613.281C961.142 611.586 962.368 610.265 963.95 609.318C965.54 608.371 967.406 607.898 969.546 607.898C970.986 607.898 972.326 608.13 973.566 608.594C974.816 609.048 975.905 609.735 976.833 610.653C977.771 611.572 978.5 612.727 979.021 614.119C979.541 615.502 979.802 617.121 979.802 618.977V620.639H961.379V616.889H974.106C974.106 616.018 973.916 615.246 973.538 614.574C973.159 613.902 972.633 613.376 971.961 612.997C971.298 612.609 970.526 612.415 969.646 612.415C968.727 612.415 967.913 612.628 967.202 613.054C966.502 613.471 965.952 614.034 965.555 614.744C965.157 615.445 964.953 616.226 964.944 617.088V620.653C964.944 621.733 965.143 622.666 965.54 623.452C965.948 624.238 966.521 624.844 967.259 625.27C967.998 625.696 968.874 625.909 969.887 625.909C970.559 625.909 971.175 625.814 971.734 625.625C972.292 625.436 972.771 625.152 973.168 624.773C973.566 624.394 973.869 623.93 974.077 623.381L979.674 623.75C979.39 625.095 978.808 626.269 977.927 627.273C977.056 628.267 975.929 629.044 974.546 629.602C973.173 630.152 971.587 630.426 969.788 630.426ZM993.009 630V608.182H999.06V630H993.009ZM996.048 605.369C995.149 605.369 994.377 605.071 993.733 604.474C993.098 603.868 992.781 603.144 992.781 602.301C992.781 601.468 993.098 600.753 993.733 600.156C994.377 599.55 995.149 599.247 996.048 599.247C996.948 599.247 997.715 599.55 998.349 600.156C998.993 600.753 999.315 601.468 999.315 602.301C999.315 603.144 998.993 603.868 998.349 604.474C997.715 605.071 996.948 605.369 996.048 605.369ZM1022.06 614.403L1016.52 614.744C1016.43 614.271 1016.22 613.845 1015.91 613.466C1015.6 613.078 1015.19 612.77 1014.67 612.543C1014.17 612.306 1013.57 612.188 1012.87 612.188C1011.93 612.188 1011.14 612.386 1010.5 612.784C1009.85 613.172 1009.53 613.693 1009.53 614.347C1009.53 614.867 1009.74 615.308 1010.16 615.668C1010.57 616.027 1011.29 616.316 1012.3 616.534L1016.25 617.33C1018.37 617.765 1019.95 618.466 1021 619.432C1022.04 620.398 1022.56 621.667 1022.56 623.239C1022.56 624.669 1022.14 625.923 1021.29 627.003C1020.46 628.082 1019.31 628.925 1017.86 629.531C1016.41 630.128 1014.74 630.426 1012.84 630.426C1009.95 630.426 1007.65 629.825 1005.94 628.622C1004.23 627.41 1003.23 625.762 1002.94 623.679L1008.89 623.366C1009.07 624.247 1009.51 624.92 1010.2 625.384C1010.89 625.838 1011.78 626.065 1012.86 626.065C1013.92 626.065 1014.77 625.862 1015.41 625.455C1016.07 625.038 1016.4 624.503 1016.41 623.849C1016.4 623.3 1016.17 622.85 1015.71 622.5C1015.26 622.14 1014.56 621.866 1013.61 621.676L1009.83 620.923C1007.7 620.497 1006.11 619.759 1005.07 618.707C1004.04 617.656 1003.52 616.316 1003.52 614.688C1003.52 613.286 1003.9 612.079 1004.66 611.065C1005.43 610.052 1006.5 609.271 1007.88 608.722C1009.28 608.172 1010.91 607.898 1012.77 607.898C1015.53 607.898 1017.69 608.48 1019.28 609.645C1020.87 610.81 1021.8 612.396 1022.06 614.403ZM1040.75 630H1034.16L1044.21 600.909H1052.13L1062.16 630H1055.57L1048.28 607.557H1048.05L1040.75 630ZM1040.34 618.565H1055.91V623.366H1040.34V618.565ZM1065.55 638.182V608.182H1071.51V611.847H1071.78C1072.05 611.259 1072.43 610.663 1072.93 610.057C1073.45 609.441 1074.11 608.93 1074.92 608.523C1075.75 608.106 1076.77 607.898 1077.99 607.898C1079.58 607.898 1081.05 608.314 1082.39 609.148C1083.74 609.972 1084.81 611.217 1085.62 612.884C1086.42 614.541 1086.83 616.619 1086.83 619.119C1086.83 621.553 1086.43 623.608 1085.65 625.284C1084.87 626.951 1083.81 628.215 1082.47 629.077C1081.13 629.929 1079.63 630.355 1077.98 630.355C1076.8 630.355 1075.8 630.161 1074.98 629.773C1074.17 629.384 1073.5 628.897 1072.98 628.31C1072.46 627.713 1072.06 627.112 1071.78 626.506H1071.6V638.182H1065.55ZM1071.47 619.091C1071.47 620.388 1071.65 621.52 1072.01 622.486C1072.37 623.452 1072.89 624.205 1073.57 624.744C1074.25 625.275 1075.08 625.54 1076.06 625.54C1077.04 625.54 1077.88 625.27 1078.56 624.73C1079.24 624.181 1079.76 623.423 1080.11 622.457C1080.47 621.482 1080.65 620.36 1080.65 619.091C1080.65 617.831 1080.47 616.723 1080.12 615.767C1079.77 614.811 1079.25 614.062 1078.57 613.523C1077.89 612.983 1077.05 612.713 1076.06 612.713C1075.07 612.713 1074.24 612.973 1073.56 613.494C1072.89 614.015 1072.37 614.754 1072.01 615.71C1071.65 616.667 1071.47 617.794 1071.47 619.091ZM1090.86 638.182V608.182H1096.83V611.847H1097.1C1097.36 611.259 1097.74 610.663 1098.25 610.057C1098.76 609.441 1099.42 608.93 1100.24 608.523C1101.06 608.106 1102.08 607.898 1103.3 607.898C1104.89 607.898 1106.36 608.314 1107.71 609.148C1109.05 609.972 1110.13 611.217 1110.93 612.884C1111.74 614.541 1112.14 616.619 1112.14 619.119C1112.14 621.553 1111.75 623.608 1110.96 625.284C1110.18 626.951 1109.12 628.215 1107.78 629.077C1106.44 629.929 1104.95 630.355 1103.29 630.355C1102.11 630.355 1101.12 630.161 1100.29 629.773C1099.48 629.384 1098.81 628.897 1098.29 628.31C1097.77 627.713 1097.37 627.112 1097.1 626.506H1096.91V638.182H1090.86ZM1096.78 619.091C1096.78 620.388 1096.96 621.52 1097.32 622.486C1097.68 623.452 1098.2 624.205 1098.89 624.744C1099.57 625.275 1100.4 625.54 1101.37 625.54C1102.36 625.54 1103.19 625.27 1103.87 624.73C1104.55 624.181 1105.07 623.423 1105.42 622.457C1105.78 621.482 1105.96 620.36 1105.96 619.091C1105.96 617.831 1105.78 616.723 1105.43 615.767C1105.08 614.811 1104.57 614.062 1103.89 613.523C1103.2 612.983 1102.37 612.713 1101.37 612.713C1100.39 612.713 1099.55 612.973 1098.87 613.494C1098.2 614.015 1097.68 614.754 1097.32 615.71C1096.96 616.667 1096.78 617.794 1096.78 619.091ZM1122.22 600.909V630H1116.17V600.909H1122.22ZM1127.07 630V608.182H1133.12V630H1127.07ZM1130.11 605.369C1129.21 605.369 1128.44 605.071 1127.8 604.474C1127.16 603.868 1126.84 603.144 1126.84 602.301C1126.84 601.468 1127.16 600.753 1127.8 600.156C1128.44 599.55 1129.21 599.247 1130.11 599.247C1131.01 599.247 1131.78 599.55 1132.41 600.156C1133.06 600.753 1133.38 601.468 1133.38 602.301C1133.38 603.144 1133.06 603.868 1132.41 604.474C1131.78 605.071 1131.01 605.369 1130.11 605.369ZM1147.91 630.426C1145.67 630.426 1143.74 629.972 1142.12 629.062C1140.51 628.144 1139.27 626.847 1138.4 625.17C1137.52 623.485 1137.09 621.491 1137.09 619.19C1137.09 616.946 1137.52 614.976 1138.4 613.281C1139.27 611.586 1140.49 610.265 1142.07 609.318C1143.67 608.371 1145.53 607.898 1147.67 607.898C1149.11 607.898 1150.45 608.13 1151.69 608.594C1152.94 609.048 1154.03 609.735 1154.96 610.653C1155.9 611.572 1156.62 612.727 1157.15 614.119C1157.67 615.502 1157.93 617.121 1157.93 618.977V620.639H1139.5V616.889H1152.23C1152.23 616.018 1152.04 615.246 1151.66 614.574C1151.28 613.902 1150.76 613.376 1150.09 612.997C1149.42 612.609 1148.65 612.415 1147.77 612.415C1146.85 612.415 1146.04 612.628 1145.33 613.054C1144.63 613.471 1144.08 614.034 1143.68 614.744C1143.28 615.445 1143.08 616.226 1143.07 617.088V620.653C1143.07 621.733 1143.27 622.666 1143.67 623.452C1144.07 624.238 1144.65 624.844 1145.38 625.27C1146.12 625.696 1147 625.909 1148.01 625.909C1148.68 625.909 1149.3 625.814 1149.86 625.625C1150.42 625.436 1150.9 625.152 1151.29 624.773C1151.69 624.394 1151.99 623.93 1152.2 623.381L1157.8 623.75C1157.51 625.095 1156.93 626.269 1156.05 627.273C1155.18 628.267 1154.05 629.044 1152.67 629.602C1151.3 630.152 1149.71 630.426 1147.91 630.426ZM1169.92 630.355C1168.26 630.355 1166.76 629.929 1165.41 629.077C1164.08 628.215 1163.02 626.951 1162.23 625.284C1161.45 623.608 1161.07 621.553 1161.07 619.119C1161.07 616.619 1161.47 614.541 1162.27 612.884C1163.08 611.217 1164.15 609.972 1165.48 609.148C1166.83 608.314 1168.3 607.898 1169.9 607.898C1171.12 607.898 1172.14 608.106 1172.96 608.523C1173.78 608.93 1174.44 609.441 1174.94 610.057C1175.46 610.663 1175.84 611.259 1176.11 611.847H1176.29V600.909H1182.33V630H1176.36V626.506H1176.11C1175.82 627.112 1175.42 627.713 1174.9 628.31C1174.39 628.897 1173.72 629.384 1172.9 629.773C1172.08 630.161 1171.09 630.355 1169.92 630.355ZM1171.83 625.54C1172.81 625.54 1173.63 625.275 1174.3 624.744C1174.99 624.205 1175.51 623.452 1175.87 622.486C1176.24 621.52 1176.42 620.388 1176.42 619.091C1176.42 617.794 1176.24 616.667 1175.88 615.71C1175.52 614.754 1175 614.015 1174.32 613.494C1173.64 612.973 1172.81 612.713 1171.83 612.713C1170.84 612.713 1170 612.983 1169.32 613.523C1168.64 614.062 1168.12 614.811 1167.77 615.767C1167.42 616.723 1167.25 617.831 1167.25 619.091C1167.25 620.36 1167.42 621.482 1167.77 622.457C1168.13 623.423 1168.65 624.181 1169.32 624.73C1170 625.27 1170.84 625.54 1171.83 625.54Z" fill="#105004"/>
<rect x="513" y="312" width="554" height="68" rx="34" fill="#105004" fill-opacity="0.1"/>
<path d="M571.196 342.094H564.974C564.861 341.289 564.629 340.574 564.278 339.949C563.928 339.314 563.478 338.775 562.929 338.33C562.38 337.884 561.745 337.544 561.026 337.307C560.315 337.07 559.544 336.952 558.71 336.952C557.205 336.952 555.893 337.326 554.776 338.074C553.658 338.812 552.792 339.892 552.176 341.312C551.561 342.723 551.253 344.437 551.253 346.455C551.253 348.528 551.561 350.271 552.176 351.682C552.801 353.093 553.672 354.158 554.79 354.878C555.907 355.598 557.2 355.957 558.668 355.957C559.491 355.957 560.254 355.848 560.955 355.631C561.665 355.413 562.295 355.096 562.844 354.679C563.393 354.253 563.848 353.737 564.207 353.131C564.577 352.525 564.832 351.833 564.974 351.057L571.196 351.085C571.035 352.42 570.633 353.708 569.989 354.949C569.354 356.18 568.497 357.283 567.418 358.259C566.348 359.224 565.069 359.991 563.582 360.56C562.105 361.118 560.434 361.398 558.568 361.398C555.973 361.398 553.653 360.811 551.608 359.636C549.572 358.462 547.962 356.762 546.778 354.537C545.604 352.312 545.017 349.617 545.017 346.455C545.017 343.282 545.614 340.583 546.807 338.358C548 336.133 549.619 334.437 551.665 333.273C553.71 332.098 556.011 331.511 558.568 331.511C560.254 331.511 561.816 331.748 563.256 332.222C564.705 332.695 565.988 333.386 567.105 334.295C568.223 335.195 569.132 336.298 569.832 337.605C570.543 338.912 570.997 340.408 571.196 342.094ZM602.339 346.455C602.339 349.627 601.738 352.326 600.536 354.551C599.342 356.777 597.714 358.476 595.649 359.651C593.594 360.815 591.284 361.398 588.717 361.398C586.132 361.398 583.812 360.811 581.757 359.636C579.702 358.462 578.078 356.762 576.885 354.537C575.692 352.312 575.095 349.617 575.095 346.455C575.095 343.282 575.692 340.583 576.885 338.358C578.078 336.133 579.702 334.437 581.757 333.273C583.812 332.098 586.132 331.511 588.717 331.511C591.284 331.511 593.594 332.098 595.649 333.273C597.714 334.437 599.342 336.133 600.536 338.358C601.738 340.583 602.339 343.282 602.339 346.455ZM596.104 346.455C596.104 344.4 595.796 342.667 595.18 341.256C594.574 339.845 593.717 338.775 592.609 338.045C591.501 337.316 590.204 336.952 588.717 336.952C587.231 336.952 585.933 337.316 584.825 338.045C583.717 338.775 582.856 339.845 582.24 341.256C581.634 342.667 581.331 344.4 581.331 346.455C581.331 348.509 581.634 350.242 582.24 351.653C582.856 353.064 583.717 354.134 584.825 354.864C585.933 355.593 587.231 355.957 588.717 355.957C590.204 355.957 591.501 355.593 592.609 354.864C593.717 354.134 594.574 353.064 595.18 351.653C595.796 350.242 596.104 348.509 596.104 346.455ZM617.208 361H606.896V331.909H617.293C620.219 331.909 622.738 332.491 624.85 333.656C626.962 334.812 628.586 336.473 629.722 338.642C630.868 340.811 631.441 343.405 631.441 346.426C631.441 349.456 630.868 352.061 629.722 354.239C628.586 356.417 626.952 358.088 624.822 359.253C622.701 360.418 620.163 361 617.208 361ZM613.046 355.73H616.952C618.771 355.73 620.3 355.408 621.54 354.764C622.79 354.111 623.728 353.102 624.353 351.739C624.987 350.366 625.305 348.595 625.305 346.426C625.305 344.277 624.987 342.52 624.353 341.156C623.728 339.793 622.795 338.789 621.555 338.145C620.314 337.501 618.785 337.179 616.967 337.179H613.046V355.73ZM651.192 348.386V361H645.141V339.182H650.908V343.031H651.164C651.647 341.762 652.457 340.759 653.593 340.02C654.729 339.272 656.107 338.898 657.727 338.898C659.242 338.898 660.563 339.229 661.69 339.892C662.817 340.555 663.692 341.502 664.317 342.733C664.942 343.955 665.255 345.413 665.255 347.108V361H659.204V348.188C659.213 346.852 658.872 345.811 658.181 345.062C657.49 344.305 656.538 343.926 655.326 343.926C654.512 343.926 653.792 344.101 653.167 344.452C652.551 344.802 652.068 345.313 651.718 345.986C651.377 346.649 651.202 347.449 651.192 348.386ZM679.882 361.426C677.676 361.426 675.768 360.957 674.158 360.02C672.557 359.073 671.321 357.757 670.45 356.071C669.579 354.376 669.143 352.411 669.143 350.176C669.143 347.922 669.579 345.953 670.45 344.267C671.321 342.572 672.557 341.256 674.158 340.318C675.768 339.371 677.676 338.898 679.882 338.898C682.089 338.898 683.992 339.371 685.592 340.318C687.202 341.256 688.443 342.572 689.314 344.267C690.185 345.953 690.621 347.922 690.621 350.176C690.621 352.411 690.185 354.376 689.314 356.071C688.443 357.757 687.202 359.073 685.592 360.02C683.992 360.957 682.089 361.426 679.882 361.426ZM679.911 356.739C680.914 356.739 681.752 356.455 682.425 355.886C683.097 355.309 683.604 354.523 683.945 353.528C684.295 352.534 684.47 351.402 684.47 350.134C684.47 348.865 684.295 347.733 683.945 346.739C683.604 345.744 683.097 344.958 682.425 344.381C681.752 343.803 680.914 343.514 679.911 343.514C678.897 343.514 678.045 343.803 677.354 344.381C676.672 344.958 676.156 345.744 675.805 346.739C675.464 347.733 675.294 348.865 675.294 350.134C675.294 351.402 675.464 352.534 675.805 353.528C676.156 354.523 676.672 355.309 677.354 355.886C678.045 356.455 678.897 356.739 679.911 356.739ZM706.161 339.182V343.727H693.021V339.182H706.161ZM696.004 333.955H702.055V354.295C702.055 354.854 702.141 355.29 702.311 355.602C702.482 355.905 702.718 356.118 703.021 356.241C703.334 356.365 703.694 356.426 704.101 356.426C704.385 356.426 704.669 356.402 704.953 356.355C705.237 356.298 705.455 356.256 705.607 356.227L706.558 360.73C706.255 360.825 705.829 360.934 705.28 361.057C704.731 361.189 704.063 361.27 703.277 361.298C701.819 361.355 700.54 361.161 699.442 360.716C698.353 360.271 697.505 359.58 696.899 358.642C696.293 357.705 695.995 356.521 696.004 355.091V333.955ZM725.582 361.412C724.19 361.412 722.949 361.17 721.86 360.688C720.771 360.195 719.909 359.471 719.275 358.514C718.65 357.548 718.337 356.346 718.337 354.906C718.337 353.694 718.56 352.676 719.005 351.852C719.45 351.028 720.056 350.366 720.823 349.864C721.59 349.362 722.461 348.983 723.437 348.727C724.422 348.472 725.454 348.292 726.533 348.188C727.802 348.055 728.825 347.932 729.602 347.818C730.378 347.695 730.942 347.515 731.292 347.278C731.642 347.042 731.817 346.691 731.817 346.227V346.142C731.817 345.242 731.533 344.546 730.965 344.054C730.406 343.562 729.611 343.315 728.579 343.315C727.49 343.315 726.623 343.557 725.979 344.04C725.335 344.513 724.909 345.11 724.701 345.83L719.104 345.375C719.388 344.049 719.947 342.903 720.781 341.938C721.614 340.962 722.689 340.214 724.005 339.693C725.331 339.163 726.865 338.898 728.607 338.898C729.819 338.898 730.979 339.04 732.087 339.324C733.205 339.608 734.194 340.048 735.056 340.645C735.927 341.241 736.614 342.009 737.116 342.946C737.618 343.874 737.869 344.987 737.869 346.284V361H732.13V357.974H731.96C731.609 358.656 731.14 359.258 730.553 359.778C729.966 360.29 729.261 360.692 728.437 360.986C727.613 361.27 726.661 361.412 725.582 361.412ZM727.315 357.236C728.205 357.236 728.991 357.061 729.673 356.71C730.354 356.35 730.889 355.867 731.278 355.261C731.666 354.655 731.86 353.969 731.86 353.202V350.886C731.671 351.009 731.41 351.123 731.079 351.227C730.757 351.322 730.392 351.412 729.985 351.497C729.578 351.573 729.171 351.644 728.763 351.71C728.356 351.767 727.987 351.819 727.656 351.866C726.945 351.971 726.325 352.136 725.795 352.364C725.264 352.591 724.853 352.899 724.559 353.287C724.265 353.666 724.119 354.139 724.119 354.707C724.119 355.531 724.417 356.161 725.013 356.597C725.62 357.023 726.387 357.236 727.315 357.236ZM762.123 339.182L754.495 361H747.677L740.049 339.182H746.441L750.972 354.793H751.2L755.717 339.182H762.123ZM770.855 361.412C769.463 361.412 768.223 361.17 767.134 360.688C766.045 360.195 765.183 359.471 764.548 358.514C763.923 357.548 763.611 356.346 763.611 354.906C763.611 353.694 763.833 352.676 764.278 351.852C764.723 351.028 765.33 350.366 766.097 349.864C766.864 349.362 767.735 348.983 768.71 348.727C769.695 348.472 770.727 348.292 771.807 348.188C773.076 348.055 774.098 347.932 774.875 347.818C775.652 347.695 776.215 347.515 776.565 347.278C776.916 347.042 777.091 346.691 777.091 346.227V346.142C777.091 345.242 776.807 344.546 776.239 344.054C775.68 343.562 774.884 343.315 773.852 343.315C772.763 343.315 771.897 343.557 771.253 344.04C770.609 344.513 770.183 345.11 769.974 345.83L764.378 345.375C764.662 344.049 765.221 342.903 766.054 341.938C766.887 340.962 767.962 340.214 769.278 339.693C770.604 339.163 772.138 338.898 773.881 338.898C775.093 338.898 776.253 339.04 777.361 339.324C778.478 339.608 779.468 340.048 780.33 340.645C781.201 341.241 781.887 342.009 782.389 342.946C782.891 343.874 783.142 344.987 783.142 346.284V361H777.403V357.974H777.233C776.883 358.656 776.414 359.258 775.827 359.778C775.24 360.29 774.534 360.692 773.71 360.986C772.886 361.27 771.935 361.412 770.855 361.412ZM772.588 357.236C773.478 357.236 774.264 357.061 774.946 356.71C775.628 356.35 776.163 355.867 776.551 355.261C776.939 354.655 777.134 353.969 777.134 353.202V350.886C776.944 351.009 776.684 351.123 776.352 351.227C776.03 351.322 775.666 351.412 775.259 351.497C774.851 351.573 774.444 351.644 774.037 351.71C773.63 351.767 773.26 351.819 772.929 351.866C772.219 351.971 771.598 352.136 771.068 352.364C770.538 352.591 770.126 352.899 769.832 353.287C769.539 353.666 769.392 354.139 769.392 354.707C769.392 355.531 769.69 356.161 770.287 356.597C770.893 357.023 771.66 357.236 772.588 357.236ZM787.837 361V339.182H793.888V361H787.837ZM790.876 336.369C789.977 336.369 789.205 336.071 788.561 335.474C787.927 334.868 787.609 334.144 787.609 333.301C787.609 332.468 787.927 331.753 788.561 331.156C789.205 330.55 789.977 330.247 790.876 330.247C791.776 330.247 792.543 330.55 793.178 331.156C793.821 331.753 794.143 332.468 794.143 333.301C794.143 334.144 793.821 334.868 793.178 335.474C792.543 336.071 791.776 336.369 790.876 336.369ZM804.786 331.909V361H798.735V331.909H804.786ZM815.855 361.412C814.463 361.412 813.223 361.17 812.134 360.688C811.045 360.195 810.183 359.471 809.548 358.514C808.923 357.548 808.611 356.346 808.611 354.906C808.611 353.694 808.833 352.676 809.278 351.852C809.723 351.028 810.33 350.366 811.097 349.864C811.864 349.362 812.735 348.983 813.71 348.727C814.695 348.472 815.727 348.292 816.807 348.188C818.076 348.055 819.098 347.932 819.875 347.818C820.652 347.695 821.215 347.515 821.565 347.278C821.916 347.042 822.091 346.691 822.091 346.227V346.142C822.091 345.242 821.807 344.546 821.239 344.054C820.68 343.562 819.884 343.315 818.852 343.315C817.763 343.315 816.897 343.557 816.253 344.04C815.609 344.513 815.183 345.11 814.974 345.83L809.378 345.375C809.662 344.049 810.221 342.903 811.054 341.938C811.887 340.962 812.962 340.214 814.278 339.693C815.604 339.163 817.138 338.898 818.881 338.898C820.093 338.898 821.253 339.04 822.361 339.324C823.478 339.608 824.468 340.048 825.33 340.645C826.201 341.241 826.887 342.009 827.389 342.946C827.891 343.874 828.142 344.987 828.142 346.284V361H822.403V357.974H822.233C821.883 358.656 821.414 359.258 820.827 359.778C820.24 360.29 819.534 360.692 818.71 360.986C817.886 361.27 816.935 361.412 815.855 361.412ZM817.588 357.236C818.478 357.236 819.264 357.061 819.946 356.71C820.628 356.35 821.163 355.867 821.551 355.261C821.939 354.655 822.134 353.969 822.134 353.202V350.886C821.944 351.009 821.684 351.123 821.352 351.227C821.03 351.322 820.666 351.412 820.259 351.497C819.851 351.573 819.444 351.644 819.037 351.71C818.63 351.767 818.26 351.819 817.929 351.866C817.219 351.971 816.598 352.136 816.068 352.364C815.538 352.591 815.126 352.899 814.832 353.287C814.539 353.666 814.392 354.139 814.392 354.707C814.392 355.531 814.69 356.161 815.287 356.597C815.893 357.023 816.66 357.236 817.588 357.236ZM832.95 361V331.909H839.001V342.847H839.186C839.451 342.259 839.835 341.663 840.337 341.057C840.848 340.441 841.511 339.93 842.325 339.523C843.149 339.106 844.172 338.898 845.393 338.898C846.984 338.898 848.452 339.314 849.797 340.148C851.142 340.972 852.216 342.217 853.021 343.884C853.826 345.541 854.229 347.619 854.229 350.119C854.229 352.553 853.836 354.608 853.05 356.284C852.273 357.951 851.213 359.215 849.868 360.077C848.533 360.929 847.036 361.355 845.379 361.355C844.205 361.355 843.206 361.161 842.382 360.773C841.568 360.384 840.9 359.897 840.379 359.31C839.858 358.713 839.461 358.112 839.186 357.506H838.916V361H832.95ZM838.874 350.091C838.874 351.388 839.054 352.52 839.413 353.486C839.773 354.452 840.294 355.205 840.976 355.744C841.658 356.275 842.486 356.54 843.462 356.54C844.446 356.54 845.28 356.27 845.962 355.73C846.643 355.181 847.16 354.423 847.51 353.457C847.87 352.482 848.05 351.36 848.05 350.091C848.05 348.831 847.875 347.723 847.524 346.767C847.174 345.811 846.658 345.062 845.976 344.523C845.294 343.983 844.456 343.713 843.462 343.713C842.477 343.713 841.643 343.973 840.962 344.494C840.289 345.015 839.773 345.754 839.413 346.71C839.054 347.667 838.874 348.794 838.874 350.091ZM864.317 331.909V361H858.266V331.909H864.317ZM879.108 361.426C876.864 361.426 874.932 360.972 873.312 360.062C871.703 359.144 870.462 357.847 869.591 356.17C868.72 354.485 868.284 352.491 868.284 350.19C868.284 347.946 868.72 345.976 869.591 344.281C870.462 342.586 871.688 341.265 873.27 340.318C874.861 339.371 876.726 338.898 878.866 338.898C880.306 338.898 881.646 339.13 882.886 339.594C884.136 340.048 885.225 340.735 886.153 341.653C887.091 342.572 887.82 343.727 888.341 345.119C888.862 346.502 889.122 348.121 889.122 349.977V351.639H870.699V347.889H883.426C883.426 347.018 883.237 346.246 882.858 345.574C882.479 344.902 881.954 344.376 881.281 343.997C880.618 343.609 879.847 343.415 878.966 343.415C878.047 343.415 877.233 343.628 876.523 344.054C875.822 344.471 875.273 345.034 874.875 345.744C874.477 346.445 874.274 347.226 874.264 348.088V351.653C874.264 352.733 874.463 353.666 874.861 354.452C875.268 355.238 875.841 355.844 876.58 356.27C877.318 356.696 878.194 356.909 879.207 356.909C879.88 356.909 880.495 356.814 881.054 356.625C881.613 356.436 882.091 356.152 882.489 355.773C882.886 355.394 883.189 354.93 883.398 354.381L888.994 354.75C888.71 356.095 888.128 357.269 887.247 358.273C886.376 359.267 885.249 360.044 883.866 360.602C882.493 361.152 880.907 361.426 879.108 361.426ZM914.062 339.182V343.727H900.596V339.182H914.062ZM903.678 361V337.605C903.678 336.024 903.986 334.712 904.602 333.67C905.227 332.629 906.079 331.848 907.158 331.327C908.238 330.806 909.464 330.545 910.837 330.545C911.765 330.545 912.613 330.616 913.38 330.759C914.156 330.901 914.734 331.028 915.113 331.142L914.033 335.688C913.797 335.612 913.503 335.541 913.153 335.474C912.812 335.408 912.461 335.375 912.102 335.375C911.211 335.375 910.591 335.583 910.241 336C909.89 336.407 909.715 336.98 909.715 337.719V361H903.678ZM926.835 361.426C924.629 361.426 922.721 360.957 921.111 360.02C919.51 359.073 918.275 357.757 917.403 356.071C916.532 354.376 916.097 352.411 916.097 350.176C916.097 347.922 916.532 345.953 917.403 344.267C918.275 342.572 919.51 341.256 921.111 340.318C922.721 339.371 924.629 338.898 926.835 338.898C929.042 338.898 930.945 339.371 932.545 340.318C934.155 341.256 935.396 342.572 936.267 344.267C937.138 345.953 937.574 347.922 937.574 350.176C937.574 352.411 937.138 354.376 936.267 356.071C935.396 357.757 934.155 359.073 932.545 360.02C930.945 360.957 929.042 361.426 926.835 361.426ZM926.864 356.739C927.867 356.739 928.705 356.455 929.378 355.886C930.05 355.309 930.557 354.523 930.898 353.528C931.248 352.534 931.423 351.402 931.423 350.134C931.423 348.865 931.248 347.733 930.898 346.739C930.557 345.744 930.05 344.958 929.378 344.381C928.705 343.803 927.867 343.514 926.864 343.514C925.85 343.514 924.998 343.803 924.307 344.381C923.625 344.958 923.109 345.744 922.759 346.739C922.418 347.733 922.247 348.865 922.247 350.134C922.247 351.402 922.418 352.534 922.759 353.528C923.109 354.523 923.625 355.309 924.307 355.886C924.998 356.455 925.85 356.739 926.864 356.739ZM941.509 361V339.182H947.375V342.989H947.602C948 341.634 948.668 340.612 949.605 339.92C950.543 339.22 951.622 338.869 952.844 338.869C953.147 338.869 953.473 338.888 953.824 338.926C954.174 338.964 954.482 339.016 954.747 339.082V344.452C954.463 344.366 954.07 344.291 953.568 344.224C953.066 344.158 952.607 344.125 952.19 344.125C951.3 344.125 950.505 344.319 949.804 344.707C949.113 345.086 948.563 345.616 948.156 346.298C947.759 346.98 947.56 347.766 947.56 348.656V361H941.509ZM970.869 369.182C970.102 369.182 969.383 369.12 968.71 368.997C968.047 368.884 967.498 368.737 967.062 368.557L968.426 364.04C969.136 364.258 969.776 364.376 970.344 364.395C970.921 364.414 971.419 364.281 971.835 363.997C972.261 363.713 972.607 363.23 972.872 362.548L973.227 361.625L965.401 339.182H971.764L976.281 355.205H976.509L981.068 339.182H987.474L978.994 363.358C978.587 364.532 978.033 365.555 977.332 366.426C976.641 367.307 975.765 367.984 974.705 368.457C973.644 368.94 972.366 369.182 970.869 369.182ZM999.726 361.426C997.519 361.426 995.611 360.957 994.001 360.02C992.401 359.073 991.165 357.757 990.294 356.071C989.423 354.376 988.987 352.411 988.987 350.176C988.987 347.922 989.423 345.953 990.294 344.267C991.165 342.572 992.401 341.256 994.001 340.318C995.611 339.371 997.519 338.898 999.726 338.898C1001.93 338.898 1003.84 339.371 1005.44 340.318C1007.05 341.256 1008.29 342.572 1009.16 344.267C1010.03 345.953 1010.46 347.922 1010.46 350.176C1010.46 352.411 1010.03 354.376 1009.16 356.071C1008.29 357.757 1007.05 359.073 1005.44 360.02C1003.84 360.957 1001.93 361.426 999.726 361.426ZM999.754 356.739C1000.76 356.739 1001.6 356.455 1002.27 355.886C1002.94 355.309 1003.45 354.523 1003.79 353.528C1004.14 352.534 1004.31 351.402 1004.31 350.134C1004.31 348.865 1004.14 347.733 1003.79 346.739C1003.45 345.744 1002.94 344.958 1002.27 344.381C1001.6 343.803 1000.76 343.514 999.754 343.514C998.741 343.514 997.889 343.803 997.197 344.381C996.516 344.958 996 345.744 995.649 346.739C995.308 347.733 995.138 348.865 995.138 350.134C995.138 351.402 995.308 352.534 995.649 353.528C996 354.523 996.516 355.309 997.197 355.886C997.889 356.455 998.741 356.739 999.754 356.739ZM1028.39 351.71V339.182H1034.44V361H1028.63V357.037H1028.4C1027.91 358.315 1027.09 359.343 1025.95 360.119C1024.81 360.896 1023.42 361.284 1021.79 361.284C1020.33 361.284 1019.04 360.953 1017.94 360.29C1016.83 359.627 1015.96 358.685 1015.34 357.463C1014.72 356.241 1014.41 354.778 1014.4 353.074V339.182H1020.45V351.994C1020.46 353.282 1020.81 354.3 1021.49 355.048C1022.17 355.796 1023.08 356.17 1024.23 356.17C1024.96 356.17 1025.64 356.005 1026.27 355.673C1026.91 355.332 1027.42 354.83 1027.81 354.168C1028.21 353.505 1028.4 352.686 1028.39 351.71Z" fill="#105004"/>
<rect x="1079" y="273" width="433" height="68" rx="34" fill="#105004" fill-opacity="0.1"/>
<path d="M1137.2 303.094H1130.97C1130.86 302.289 1130.63 301.574 1130.28 300.949C1129.93 300.314 1129.48 299.775 1128.93 299.33C1128.38 298.884 1127.75 298.544 1127.03 298.307C1126.32 298.07 1125.54 297.952 1124.71 297.952C1123.2 297.952 1121.89 298.326 1120.78 299.074C1119.66 299.812 1118.79 300.892 1118.18 302.312C1117.56 303.723 1117.25 305.437 1117.25 307.455C1117.25 309.528 1117.56 311.271 1118.18 312.682C1118.8 314.093 1119.67 315.158 1120.79 315.878C1121.91 316.598 1123.2 316.957 1124.67 316.957C1125.49 316.957 1126.25 316.848 1126.95 316.631C1127.66 316.413 1128.29 316.096 1128.84 315.679C1129.39 315.253 1129.85 314.737 1130.21 314.131C1130.58 313.525 1130.83 312.833 1130.97 312.057L1137.2 312.085C1137.04 313.42 1136.63 314.708 1135.99 315.949C1135.35 317.18 1134.5 318.283 1133.42 319.259C1132.35 320.224 1131.07 320.991 1129.58 321.56C1128.11 322.118 1126.43 322.398 1124.57 322.398C1121.97 322.398 1119.65 321.811 1117.61 320.636C1115.57 319.462 1113.96 317.762 1112.78 315.537C1111.6 313.312 1111.02 310.617 1111.02 307.455C1111.02 304.282 1111.61 301.583 1112.81 299.358C1114 297.133 1115.62 295.437 1117.66 294.273C1119.71 293.098 1122.01 292.511 1124.57 292.511C1126.25 292.511 1127.82 292.748 1129.26 293.222C1130.7 293.695 1131.99 294.386 1133.11 295.295C1134.22 296.195 1135.13 297.298 1135.83 298.605C1136.54 299.912 1137 301.408 1137.2 303.094ZM1168.34 307.455C1168.34 310.627 1167.74 313.326 1166.54 315.551C1165.34 317.777 1163.71 319.476 1161.65 320.651C1159.59 321.815 1157.28 322.398 1154.72 322.398C1152.13 322.398 1149.81 321.811 1147.76 320.636C1145.7 319.462 1144.08 317.762 1142.88 315.537C1141.69 313.312 1141.1 310.617 1141.1 307.455C1141.1 304.282 1141.69 301.583 1142.88 299.358C1144.08 297.133 1145.7 295.437 1147.76 294.273C1149.81 293.098 1152.13 292.511 1154.72 292.511C1157.28 292.511 1159.59 293.098 1161.65 294.273C1163.71 295.437 1165.34 297.133 1166.54 299.358C1167.74 301.583 1168.34 304.282 1168.34 307.455ZM1162.1 307.455C1162.1 305.4 1161.8 303.667 1161.18 302.256C1160.57 300.845 1159.72 299.775 1158.61 299.045C1157.5 298.316 1156.2 297.952 1154.72 297.952C1153.23 297.952 1151.93 298.316 1150.83 299.045C1149.72 299.775 1148.86 300.845 1148.24 302.256C1147.63 303.667 1147.33 305.4 1147.33 307.455C1147.33 309.509 1147.63 311.242 1148.24 312.653C1148.86 314.064 1149.72 315.134 1150.83 315.864C1151.93 316.593 1153.23 316.957 1154.72 316.957C1156.2 316.957 1157.5 316.593 1158.61 315.864C1159.72 315.134 1160.57 314.064 1161.18 312.653C1161.8 311.242 1162.1 309.509 1162.1 307.455ZM1183.21 322H1172.9V292.909H1183.29C1186.22 292.909 1188.74 293.491 1190.85 294.656C1192.96 295.812 1194.59 297.473 1195.72 299.642C1196.87 301.811 1197.44 304.405 1197.44 307.426C1197.44 310.456 1196.87 313.061 1195.72 315.239C1194.59 317.417 1192.95 319.088 1190.82 320.253C1188.7 321.418 1186.16 322 1183.21 322ZM1179.05 316.73H1182.95C1184.77 316.73 1186.3 316.408 1187.54 315.764C1188.79 315.111 1189.73 314.102 1190.35 312.739C1190.99 311.366 1191.3 309.595 1191.3 307.426C1191.3 305.277 1190.99 303.52 1190.35 302.156C1189.73 300.793 1188.8 299.789 1187.55 299.145C1186.31 298.501 1184.78 298.179 1182.97 298.179H1179.05V316.73ZM1211.25 322V292.909H1230.52V297.98H1217.41V304.912H1229.24V309.983H1217.41V322H1211.25ZM1242.88 322.426C1240.64 322.426 1238.71 321.972 1237.09 321.062C1235.48 320.144 1234.24 318.847 1233.36 317.17C1232.49 315.485 1232.06 313.491 1232.06 311.19C1232.06 308.946 1232.49 306.976 1233.36 305.281C1234.24 303.586 1235.46 302.265 1237.04 301.318C1238.63 300.371 1240.5 299.898 1242.64 299.898C1244.08 299.898 1245.42 300.13 1246.66 300.594C1247.91 301.048 1249 301.735 1249.93 302.653C1250.86 303.572 1251.59 304.727 1252.11 306.119C1252.64 307.502 1252.9 309.121 1252.9 310.977V312.639H1234.47V308.889H1247.2C1247.2 308.018 1247.01 307.246 1246.63 306.574C1246.25 305.902 1245.73 305.376 1245.05 304.997C1244.39 304.609 1243.62 304.415 1242.74 304.415C1241.82 304.415 1241.01 304.628 1240.3 305.054C1239.6 305.471 1239.05 306.034 1238.65 306.744C1238.25 307.445 1238.05 308.226 1238.04 309.088V312.653C1238.04 313.733 1238.24 314.666 1238.63 315.452C1239.04 316.238 1239.61 316.844 1240.35 317.27C1241.09 317.696 1241.97 317.909 1242.98 317.909C1243.65 317.909 1244.27 317.814 1244.83 317.625C1245.39 317.436 1245.86 317.152 1246.26 316.773C1246.66 316.394 1246.96 315.93 1247.17 315.381L1252.77 315.75C1252.48 317.095 1251.9 318.269 1251.02 319.273C1250.15 320.267 1249.02 321.044 1247.64 321.602C1246.27 322.152 1244.68 322.426 1242.88 322.426ZM1266.79 322.426C1264.54 322.426 1262.61 321.972 1260.99 321.062C1259.38 320.144 1258.14 318.847 1257.27 317.17C1256.4 315.485 1255.96 313.491 1255.96 311.19C1255.96 308.946 1256.4 306.976 1257.27 305.281C1258.14 303.586 1259.37 302.265 1260.95 301.318C1262.54 300.371 1264.41 299.898 1266.55 299.898C1267.99 299.898 1269.33 300.13 1270.57 300.594C1271.82 301.048 1272.91 301.735 1273.83 302.653C1274.77 303.572 1275.5 304.727 1276.02 306.119C1276.54 307.502 1276.8 309.121 1276.8 310.977V312.639H1258.38V308.889H1271.11C1271.11 308.018 1270.92 307.246 1270.54 306.574C1270.16 305.902 1269.63 305.376 1268.96 304.997C1268.3 304.609 1267.53 304.415 1266.65 304.415C1265.73 304.415 1264.91 304.628 1264.2 305.054C1263.5 305.471 1262.95 306.034 1262.55 306.744C1262.16 307.445 1261.95 308.226 1261.94 309.088V312.653C1261.94 313.733 1262.14 314.666 1262.54 315.452C1262.95 316.238 1263.52 316.844 1264.26 317.27C1265 317.696 1265.87 317.909 1266.89 317.909C1267.56 317.909 1268.17 317.814 1268.73 317.625C1269.29 317.436 1269.77 317.152 1270.17 316.773C1270.57 316.394 1270.87 315.93 1271.08 315.381L1276.67 315.75C1276.39 317.095 1275.81 318.269 1274.93 319.273C1274.06 320.267 1272.93 321.044 1271.55 321.602C1270.17 322.152 1268.59 322.426 1266.79 322.426ZM1290.01 322V300.182H1296.06V322H1290.01ZM1293.05 297.369C1292.15 297.369 1291.38 297.071 1290.73 296.474C1290.1 295.868 1289.78 295.144 1289.78 294.301C1289.78 293.468 1290.1 292.753 1290.73 292.156C1291.38 291.55 1292.15 291.247 1293.05 291.247C1293.95 291.247 1294.71 291.55 1295.35 292.156C1295.99 292.753 1296.32 293.468 1296.32 294.301C1296.32 295.144 1295.99 295.868 1295.35 296.474C1294.71 297.071 1293.95 297.369 1293.05 297.369ZM1319.06 306.403L1313.52 306.744C1313.43 306.271 1313.22 305.845 1312.91 305.466C1312.6 305.078 1312.19 304.77 1311.67 304.543C1311.17 304.306 1310.57 304.188 1309.87 304.188C1308.93 304.188 1308.14 304.386 1307.5 304.784C1306.85 305.172 1306.53 305.693 1306.53 306.347C1306.53 306.867 1306.74 307.308 1307.16 307.668C1307.57 308.027 1308.29 308.316 1309.3 308.534L1313.25 309.33C1315.37 309.765 1316.95 310.466 1318 311.432C1319.04 312.398 1319.56 313.667 1319.56 315.239C1319.56 316.669 1319.14 317.923 1318.29 319.003C1317.46 320.082 1316.31 320.925 1314.86 321.531C1313.41 322.128 1311.74 322.426 1309.84 322.426C1306.95 322.426 1304.65 321.825 1302.94 320.622C1301.23 319.41 1300.23 317.762 1299.94 315.679L1305.89 315.366C1306.07 316.247 1306.51 316.92 1307.2 317.384C1307.89 317.838 1308.78 318.065 1309.86 318.065C1310.92 318.065 1311.77 317.862 1312.41 317.455C1313.07 317.038 1313.4 316.503 1313.41 315.849C1313.4 315.3 1313.17 314.85 1312.71 314.5C1312.26 314.14 1311.56 313.866 1310.61 313.676L1306.83 312.923C1304.7 312.497 1303.11 311.759 1302.07 310.707C1301.04 309.656 1300.52 308.316 1300.52 306.688C1300.52 305.286 1300.9 304.079 1301.66 303.065C1302.43 302.052 1303.5 301.271 1304.88 300.722C1306.28 300.172 1307.91 299.898 1309.77 299.898C1312.53 299.898 1314.69 300.48 1316.28 301.645C1317.87 302.81 1318.8 304.396 1319.06 306.403ZM1337.75 322H1331.16L1341.21 292.909H1349.13L1359.16 322H1352.57L1345.28 299.557H1345.05L1337.75 322ZM1337.34 310.565H1352.91V315.366H1337.34V310.565ZM1362.55 330.182V300.182H1368.51V303.847H1368.78C1369.05 303.259 1369.43 302.663 1369.93 302.057C1370.45 301.441 1371.11 300.93 1371.92 300.523C1372.75 300.106 1373.77 299.898 1374.99 299.898C1376.58 299.898 1378.05 300.314 1379.39 301.148C1380.74 301.972 1381.81 303.217 1382.62 304.884C1383.42 306.541 1383.83 308.619 1383.83 311.119C1383.83 313.553 1383.43 315.608 1382.65 317.284C1381.87 318.951 1380.81 320.215 1379.47 321.077C1378.13 321.929 1376.63 322.355 1374.98 322.355C1373.8 322.355 1372.8 322.161 1371.98 321.773C1371.17 321.384 1370.5 320.897 1369.98 320.31C1369.46 319.713 1369.06 319.112 1368.78 318.506H1368.6V330.182H1362.55ZM1368.47 311.091C1368.47 312.388 1368.65 313.52 1369.01 314.486C1369.37 315.452 1369.89 316.205 1370.57 316.744C1371.25 317.275 1372.08 317.54 1373.06 317.54C1374.04 317.54 1374.88 317.27 1375.56 316.73C1376.24 316.181 1376.76 315.423 1377.11 314.457C1377.47 313.482 1377.65 312.36 1377.65 311.091C1377.65 309.831 1377.47 308.723 1377.12 307.767C1376.77 306.811 1376.25 306.062 1375.57 305.523C1374.89 304.983 1374.05 304.713 1373.06 304.713C1372.07 304.713 1371.24 304.973 1370.56 305.494C1369.89 306.015 1369.37 306.754 1369.01 307.71C1368.65 308.667 1368.47 309.794 1368.47 311.091ZM1387.86 330.182V300.182H1393.83V303.847H1394.1C1394.36 303.259 1394.74 302.663 1395.25 302.057C1395.76 301.441 1396.42 300.93 1397.24 300.523C1398.06 300.106 1399.08 299.898 1400.3 299.898C1401.89 299.898 1403.36 300.314 1404.71 301.148C1406.05 301.972 1407.13 303.217 1407.93 304.884C1408.74 306.541 1409.14 308.619 1409.14 311.119C1409.14 313.553 1408.75 315.608 1407.96 317.284C1407.18 318.951 1406.12 320.215 1404.78 321.077C1403.44 321.929 1401.95 322.355 1400.29 322.355C1399.11 322.355 1398.12 322.161 1397.29 321.773C1396.48 321.384 1395.81 320.897 1395.29 320.31C1394.77 319.713 1394.37 319.112 1394.1 318.506H1393.91V330.182H1387.86ZM1393.78 311.091C1393.78 312.388 1393.96 313.52 1394.32 314.486C1394.68 315.452 1395.2 316.205 1395.89 316.744C1396.57 317.275 1397.4 317.54 1398.37 317.54C1399.36 317.54 1400.19 317.27 1400.87 316.73C1401.55 316.181 1402.07 315.423 1402.42 314.457C1402.78 313.482 1402.96 312.36 1402.96 311.091C1402.96 309.831 1402.78 308.723 1402.43 307.767C1402.08 306.811 1401.57 306.062 1400.89 305.523C1400.2 304.983 1399.37 304.713 1398.37 304.713C1397.39 304.713 1396.55 304.973 1395.87 305.494C1395.2 306.015 1394.68 306.754 1394.32 307.71C1393.96 308.667 1393.78 309.794 1393.78 311.091ZM1419.22 292.909V322H1413.17V292.909H1419.22ZM1424.07 322V300.182H1430.12V322H1424.07ZM1427.11 297.369C1426.21 297.369 1425.44 297.071 1424.8 296.474C1424.16 295.868 1423.84 295.144 1423.84 294.301C1423.84 293.468 1424.16 292.753 1424.8 292.156C1425.44 291.55 1426.21 291.247 1427.11 291.247C1428.01 291.247 1428.78 291.55 1429.41 292.156C1430.06 292.753 1430.38 293.468 1430.38 294.301C1430.38 295.144 1430.06 295.868 1429.41 296.474C1428.78 297.071 1428.01 297.369 1427.11 297.369ZM1444.91 322.426C1442.67 322.426 1440.74 321.972 1439.12 321.062C1437.51 320.144 1436.27 318.847 1435.4 317.17C1434.52 315.485 1434.09 313.491 1434.09 311.19C1434.09 308.946 1434.52 306.976 1435.4 305.281C1436.27 303.586 1437.49 302.265 1439.07 301.318C1440.67 300.371 1442.53 299.898 1444.67 299.898C1446.11 299.898 1447.45 300.13 1448.69 300.594C1449.94 301.048 1451.03 301.735 1451.96 302.653C1452.9 303.572 1453.62 304.727 1454.15 306.119C1454.67 307.502 1454.93 309.121 1454.93 310.977V312.639H1436.5V308.889H1449.23C1449.23 308.018 1449.04 307.246 1448.66 306.574C1448.28 305.902 1447.76 305.376 1447.09 304.997C1446.42 304.609 1445.65 304.415 1444.77 304.415C1443.85 304.415 1443.04 304.628 1442.33 305.054C1441.63 305.471 1441.08 306.034 1440.68 306.744C1440.28 307.445 1440.08 308.226 1440.07 309.088V312.653C1440.07 313.733 1440.27 314.666 1440.67 315.452C1441.07 316.238 1441.65 316.844 1442.38 317.27C1443.12 317.696 1444 317.909 1445.01 317.909C1445.68 317.909 1446.3 317.814 1446.86 317.625C1447.42 317.436 1447.9 317.152 1448.29 316.773C1448.69 316.394 1448.99 315.93 1449.2 315.381L1454.8 315.75C1454.51 317.095 1453.93 318.269 1453.05 319.273C1452.18 320.267 1451.05 321.044 1449.67 321.602C1448.3 322.152 1446.71 322.426 1444.91 322.426ZM1466.92 322.355C1465.26 322.355 1463.76 321.929 1462.41 321.077C1461.08 320.215 1460.02 318.951 1459.23 317.284C1458.45 315.608 1458.07 313.553 1458.07 311.119C1458.07 308.619 1458.47 306.541 1459.27 304.884C1460.08 303.217 1461.15 301.972 1462.48 301.148C1463.83 300.314 1465.3 299.898 1466.9 299.898C1468.12 299.898 1469.14 300.106 1469.96 300.523C1470.78 300.93 1471.44 301.441 1471.94 302.057C1472.46 302.663 1472.84 303.259 1473.11 303.847H1473.29V292.909H1479.33V322H1473.36V318.506H1473.11C1472.82 319.112 1472.42 319.713 1471.9 320.31C1471.39 320.897 1470.72 321.384 1469.9 321.773C1469.08 322.161 1468.09 322.355 1466.92 322.355ZM1468.83 317.54C1469.81 317.54 1470.63 317.275 1471.3 316.744C1471.99 316.205 1472.51 315.452 1472.87 314.486C1473.24 313.52 1473.42 312.388 1473.42 311.091C1473.42 309.794 1473.24 308.667 1472.88 307.71C1472.52 306.754 1472 306.015 1471.32 305.494C1470.64 304.973 1469.81 304.713 1468.83 304.713C1467.84 304.713 1467 304.983 1466.32 305.523C1465.64 306.062 1465.12 306.811 1464.77 307.767C1464.42 308.723 1464.25 309.831 1464.25 311.091C1464.25 312.36 1464.42 313.482 1464.77 314.457C1465.13 315.423 1465.65 316.181 1466.32 316.73C1467 317.27 1467.84 317.54 1468.83 317.54Z" fill="#105004"/>
</svg>
