<svg width="1665" height="1094" viewBox="0 0 1665 1094" fill="none" xmlns="http://www.w3.org/2000/svg">
<path fill-rule="evenodd" clip-rule="evenodd" d="M1497.48 650.441C1504.14 643.776 1513.18 640.032 1522.61 640.032H1539.96C1554.36 640.032 1566.02 651.7 1566.02 666.093V685.413C1566.02 693.581 1562.78 701.416 1557 707.192L1519.51 744.685C1510.26 753.938 1495.26 753.938 1486 744.685L1463.05 721.728C1452.87 711.55 1452.87 695.049 1463.05 684.871L1497.48 650.441ZM1535.22 680.309C1540.46 680.309 1544.7 676.066 1544.7 670.832C1544.7 665.598 1540.46 661.355 1535.22 661.355C1529.99 661.355 1525.75 665.598 1525.75 670.832C1525.75 676.066 1529.99 680.309 1535.22 680.309Z" fill="#105004"/>
<path d="M1592.09 668.463C1592.09 664.537 1588.9 661.355 1584.98 661.355C1581.05 661.355 1577.87 664.537 1577.87 668.463V697.165C1577.87 701.602 1576.09 705.855 1572.93 708.971L1527.86 753.434C1525.07 756.191 1525.04 760.692 1527.79 763.486C1530.55 766.281 1535.05 766.311 1537.85 763.554L1582.92 719.091C1588.78 713.303 1592.09 705.406 1592.09 697.165V668.463Z" fill="#105004"/>
<path d="M999.274 674.531H841.324C839.578 674.531 837.904 673.838 836.67 672.604C835.436 671.37 834.743 669.696 834.743 667.95C834.743 666.205 835.436 664.531 836.67 663.296C837.904 662.062 839.578 661.369 841.324 661.369H999.274C1001.02 661.369 1002.69 662.062 1003.93 663.296C1005.16 664.531 1005.86 666.205 1005.86 667.95C1005.86 669.696 1005.16 671.37 1003.93 672.604C1002.69 673.838 1001.02 674.531 999.274 674.531ZM986.111 694.275H854.486C852.741 694.275 851.067 693.582 849.833 692.348C848.598 691.113 847.905 689.439 847.905 687.694C847.905 685.948 848.598 684.274 849.833 683.04C851.067 681.806 852.741 681.113 854.486 681.113H986.111C987.857 681.113 989.531 681.806 990.765 683.04C991.999 684.274 992.693 685.948 992.693 687.694C992.693 689.439 991.999 691.113 990.765 692.348C989.531 693.582 987.857 694.275 986.111 694.275ZM828.161 621.881H821.58V641.625C821.58 645.116 822.967 648.464 825.435 650.932C827.904 653.401 831.252 654.788 834.743 654.788H854.486V648.206C854.479 641.227 851.703 634.535 846.767 629.6C841.832 624.665 835.141 621.889 828.161 621.881Z" fill="#105004"/>
<path d="M1012.44 608.719H1019.02V582.394H1012.44C1001.97 582.382 991.93 578.218 984.528 570.815C977.125 563.412 972.961 553.376 972.949 542.906V536.325H867.649V542.906C867.637 553.376 863.473 563.412 856.07 570.815C848.667 578.218 838.63 582.382 828.161 582.394H821.58V608.719H828.161C838.63 608.731 848.667 612.895 856.07 620.298C863.473 627.701 867.637 637.737 867.649 648.206V654.788H972.949V648.206C972.961 637.737 977.125 627.701 984.528 620.298C991.93 612.895 1001.97 608.731 1012.44 608.719ZM920.299 635.044C912.489 635.044 904.854 632.728 898.361 628.389C891.867 624.05 886.806 617.883 883.817 610.668C880.828 603.452 880.046 595.513 881.57 587.853C883.094 580.193 886.855 573.157 892.377 567.635C897.899 562.112 904.935 558.351 912.595 556.828C920.255 555.304 928.195 556.086 935.41 559.075C942.625 562.063 948.793 567.125 953.131 573.618C957.47 580.112 959.786 587.747 959.786 595.556C959.774 606.026 955.61 616.062 948.207 623.465C940.805 630.868 930.768 635.032 920.299 635.044Z" fill="#105004"/>
<path d="M920.302 621.881C934.84 621.881 946.627 610.095 946.627 595.556C946.627 581.018 934.84 569.231 920.302 569.231C905.763 569.231 893.977 581.018 893.977 595.556C893.977 610.095 905.763 621.881 920.302 621.881Z" fill="#105004"/>
<path d="M986.111 648.206V654.788H1005.86C1009.35 654.788 1012.69 653.401 1015.16 650.932C1017.63 648.464 1019.02 645.116 1019.02 641.625V621.881H1012.44C1005.46 621.889 998.765 624.665 993.83 629.6C988.895 634.536 986.119 641.227 986.111 648.206ZM1012.44 569.231H1019.02V549.488C1019.02 545.997 1017.63 542.649 1015.16 540.18C1012.69 537.712 1009.35 536.325 1005.86 536.325H986.111V542.906C986.119 549.886 988.895 556.577 993.83 561.513C998.765 566.448 1005.46 569.224 1012.44 569.231ZM854.486 542.906V536.325H834.743C831.252 536.325 827.904 537.712 825.435 540.18C822.967 542.649 821.58 545.997 821.58 549.488V569.231H828.161C835.141 569.224 841.832 566.448 846.767 561.513C851.703 556.577 854.479 549.886 854.486 542.906Z" fill="#105004"/>
<path d="M328.917 450.24L336.667 436.846C337.599 435.234 337.852 433.319 337.372 431.521C336.891 429.723 335.716 428.189 334.105 427.257L320.697 419.507V404.063C320.697 402.201 319.957 400.415 318.641 399.099C317.324 397.782 315.539 397.043 313.677 397.043H298.24L290.497 383.641C289.566 382.029 288.034 380.852 286.236 380.37C285.345 380.131 284.416 380.071 283.502 380.191C282.587 380.311 281.706 380.611 280.907 381.072L267.499 388.822L254.091 381.065C252.479 380.134 250.563 379.882 248.764 380.364C246.966 380.846 245.433 382.022 244.502 383.634L236.752 397.043H221.315C219.453 397.043 217.667 397.782 216.351 399.099C215.034 400.415 214.295 402.201 214.295 404.063V419.5L200.886 427.25C200.088 427.711 199.388 428.326 198.827 429.058C198.266 429.79 197.854 430.626 197.617 431.517C197.379 432.408 197.319 433.337 197.44 434.252C197.561 435.166 197.862 436.048 198.324 436.846L206.074 450.24L198.324 463.634C197.397 465.247 197.146 467.161 197.625 468.959C198.103 470.757 199.273 472.292 200.879 473.231L214.288 480.981V496.418C214.288 498.279 215.027 500.065 216.344 501.382C217.66 502.698 219.446 503.438 221.308 503.438H236.752L244.502 516.846C245.123 517.908 246.011 518.791 247.077 519.406C248.142 520.021 249.35 520.349 250.581 520.356C251.803 520.356 253.017 520.033 254.098 519.408L267.492 511.658L280.9 519.408C282.512 520.34 284.427 520.593 286.226 520.112C288.024 519.632 289.558 518.457 290.49 516.846L298.233 503.438H313.67C315.532 503.438 317.317 502.698 318.634 501.382C319.95 500.065 320.69 498.279 320.69 496.418V480.981L334.098 473.231C334.897 472.769 335.597 472.155 336.158 471.422C336.719 470.69 337.13 469.855 337.368 468.963C337.606 468.072 337.666 467.143 337.544 466.228C337.423 465.314 337.123 464.432 336.66 463.634L328.917 450.24ZM249.942 415.07C252.736 415.071 255.415 416.181 257.39 418.158C259.364 420.134 260.473 422.813 260.472 425.607C260.471 428.401 259.361 431.079 257.385 433.054C255.408 435.029 252.729 436.138 249.935 436.137C247.142 436.136 244.463 435.025 242.488 433.049C240.513 431.073 239.404 428.394 239.405 425.6C239.406 422.806 240.517 420.127 242.493 418.153C244.469 416.178 247.149 415.069 249.942 415.07ZM252.048 482.462L240.816 474.045L282.936 417.885L294.168 426.302L252.048 482.462ZM285.042 485.27C283.659 485.269 282.289 484.997 281.012 484.467C279.734 483.937 278.573 483.161 277.595 482.182C276.617 481.204 275.842 480.042 275.313 478.764C274.784 477.486 274.512 476.116 274.512 474.733C274.513 473.35 274.786 471.98 275.315 470.702C275.845 469.424 276.621 468.263 277.6 467.286C278.578 466.308 279.74 465.532 281.018 465.003C282.296 464.474 283.666 464.202 285.049 464.203C287.843 464.204 290.522 465.314 292.497 467.291C294.471 469.267 295.58 471.946 295.579 474.74C295.578 477.534 294.468 480.212 292.492 482.187C290.516 484.162 287.836 485.271 285.042 485.27Z" fill="#105004"/>
<rect x="22" y="547.48" width="491" height="68" rx="34" fill="#105004" fill-opacity="0.1"/>
<path d="M78.8608 567.389V596.48H73.5483L60.892 578.17H60.679V596.48H54.5284V567.389H59.9261L72.483 585.685H72.7386V567.389H78.8608ZM93.6868 596.906C91.4804 596.906 89.5722 596.437 87.9624 595.5C86.362 594.553 85.1262 593.237 84.255 591.551C83.3838 589.856 82.9482 587.891 82.9482 585.656C82.9482 583.402 83.3838 581.433 84.255 579.747C85.1262 578.052 86.362 576.736 87.9624 575.798C89.5722 574.851 91.4804 574.378 93.6868 574.378C95.8932 574.378 97.7966 574.851 99.397 575.798C101.007 576.736 102.247 578.052 103.119 579.747C103.99 581.433 104.425 583.402 104.425 585.656C104.425 587.891 103.99 589.856 103.119 591.551C102.247 593.237 101.007 594.553 99.397 595.5C97.7966 596.437 95.8932 596.906 93.6868 596.906ZM93.7152 592.219C94.719 592.219 95.5571 591.935 96.2294 591.366C96.9018 590.789 97.4084 590.003 97.7493 589.008C98.0997 588.014 98.2749 586.882 98.2749 585.614C98.2749 584.345 98.0997 583.213 97.7493 582.219C97.4084 581.224 96.9018 580.438 96.2294 579.861C95.5571 579.283 94.719 578.994 93.7152 578.994C92.7019 578.994 91.8497 579.283 91.1584 579.861C90.4766 580.438 89.9605 581.224 89.6101 582.219C89.2692 583.213 89.0987 584.345 89.0987 585.614C89.0987 586.882 89.2692 588.014 89.6101 589.008C89.9605 590.003 90.4766 590.789 91.1584 591.366C91.8497 591.935 92.7019 592.219 93.7152 592.219ZM143.399 577.574H137.178C137.064 576.769 136.832 576.054 136.482 575.429C136.131 574.794 135.681 574.255 135.132 573.81C134.583 573.364 133.948 573.024 133.229 572.787C132.518 572.55 131.747 572.432 130.913 572.432C129.408 572.432 128.096 572.806 126.979 573.554C125.861 574.292 124.995 575.372 124.379 576.792C123.764 578.203 123.456 579.917 123.456 581.935C123.456 584.008 123.764 585.751 124.379 587.162C125.004 588.573 125.875 589.638 126.993 590.358C128.11 591.078 129.403 591.437 130.871 591.437C131.695 591.437 132.457 591.328 133.158 591.111C133.868 590.893 134.498 590.576 135.047 590.159C135.596 589.733 136.051 589.217 136.411 588.611C136.78 588.005 137.036 587.313 137.178 586.537L143.399 586.565C143.238 587.9 142.836 589.188 142.192 590.429C141.557 591.66 140.7 592.763 139.621 593.739C138.551 594.704 137.272 595.471 135.786 596.04C134.308 596.598 132.637 596.878 130.771 596.878C128.177 596.878 125.857 596.291 123.811 595.116C121.775 593.942 120.165 592.242 118.982 590.017C117.807 587.792 117.22 585.097 117.22 581.935C117.22 578.762 117.817 576.063 119.01 573.838C120.203 571.613 121.822 569.917 123.868 568.753C125.913 567.578 128.214 566.991 130.771 566.991C132.457 566.991 134.019 567.228 135.459 567.702C136.908 568.175 138.191 568.866 139.308 569.775C140.426 570.675 141.335 571.778 142.036 573.085C142.746 574.392 143.2 575.888 143.399 577.574ZM174.543 581.935C174.543 585.107 173.941 587.806 172.739 590.031C171.545 592.256 169.917 593.956 167.852 595.131C165.797 596.295 163.487 596.878 160.92 596.878C158.335 596.878 156.015 596.291 153.96 595.116C151.905 593.942 150.281 592.242 149.088 590.017C147.895 587.792 147.298 585.097 147.298 581.935C147.298 578.762 147.895 576.063 149.088 573.838C150.281 571.613 151.905 569.917 153.96 568.753C156.015 567.578 158.335 566.991 160.92 566.991C163.487 566.991 165.797 567.578 167.852 568.753C169.917 569.917 171.545 571.613 172.739 573.838C173.941 576.063 174.543 578.762 174.543 581.935ZM168.307 581.935C168.307 579.88 167.999 578.147 167.384 576.736C166.777 575.325 165.92 574.255 164.812 573.525C163.705 572.796 162.407 572.432 160.92 572.432C159.434 572.432 158.136 572.796 157.028 573.525C155.92 574.255 155.059 575.325 154.443 576.736C153.837 578.147 153.534 579.88 153.534 581.935C153.534 583.989 153.837 585.722 154.443 587.133C155.059 588.544 155.92 589.614 157.028 590.344C158.136 591.073 159.434 591.437 160.92 591.437C162.407 591.437 163.705 591.073 164.812 590.344C165.92 589.614 166.777 588.544 167.384 587.133C167.999 585.722 168.307 583.989 168.307 581.935ZM189.411 596.48H179.099V567.389H189.496C192.423 567.389 194.942 567.971 197.053 569.136C199.165 570.292 200.789 571.953 201.925 574.122C203.071 576.291 203.644 578.885 203.644 581.906C203.644 584.936 203.071 587.541 201.925 589.719C200.789 591.897 199.156 593.568 197.025 594.733C194.904 595.898 192.366 596.48 189.411 596.48ZM185.249 591.21H189.156C190.974 591.21 192.503 590.888 193.744 590.244C194.994 589.591 195.931 588.582 196.556 587.219C197.191 585.846 197.508 584.075 197.508 581.906C197.508 579.756 197.191 578 196.556 576.636C195.931 575.273 194.998 574.269 193.758 573.625C192.517 572.981 190.988 572.659 189.17 572.659H185.249V591.21ZM221.648 596.48L215.711 574.662H221.833L225.214 589.321H225.413L228.935 574.662H234.944L238.523 589.236H238.708L242.032 574.662H248.14L242.217 596.48H235.81L232.06 582.758H231.79L228.04 596.48H221.648ZM251.368 596.48V574.662H257.419V596.48H251.368ZM254.408 571.849C253.508 571.849 252.736 571.551 252.092 570.954C251.458 570.348 251.141 569.624 251.141 568.781C251.141 567.948 251.458 567.233 252.092 566.636C252.736 566.03 253.508 565.727 254.408 565.727C255.307 565.727 256.074 566.03 256.709 566.636C257.353 567.233 257.675 567.948 257.675 568.781C257.675 569.624 257.353 570.348 256.709 570.954C256.074 571.551 255.307 571.849 254.408 571.849ZM273.871 574.662V579.207H260.732V574.662H273.871ZM263.715 569.435H269.766V589.775C269.766 590.334 269.852 590.77 270.022 591.082C270.192 591.385 270.429 591.598 270.732 591.721C271.045 591.845 271.405 591.906 271.812 591.906C272.096 591.906 272.38 591.882 272.664 591.835C272.948 591.778 273.166 591.736 273.317 591.707L274.269 596.21C273.966 596.305 273.54 596.414 272.991 596.537C272.442 596.669 271.774 596.75 270.988 596.778C269.53 596.835 268.251 596.641 267.153 596.196C266.064 595.751 265.216 595.06 264.61 594.122C264.004 593.185 263.706 592.001 263.715 590.571V569.435ZM284.333 583.866V596.48H278.282V567.389H284.163V578.511H284.418C284.911 577.223 285.706 576.215 286.805 575.486C287.903 574.747 289.281 574.378 290.938 574.378C292.453 574.378 293.774 574.709 294.901 575.372C296.038 576.025 296.918 576.968 297.543 578.199C298.178 579.42 298.49 580.883 298.481 582.588V596.48H292.43V583.667C292.439 582.323 292.098 581.276 291.407 580.528C290.725 579.78 289.769 579.406 288.538 579.406C287.714 579.406 286.985 579.581 286.35 579.932C285.725 580.282 285.233 580.793 284.873 581.466C284.522 582.129 284.343 582.929 284.333 583.866ZM320.54 596.835C318.883 596.835 317.382 596.409 316.038 595.557C314.702 594.695 313.642 593.431 312.856 591.764C312.079 590.088 311.691 588.033 311.691 585.599C311.691 583.099 312.094 581.021 312.898 579.364C313.703 577.697 314.773 576.452 316.109 575.628C317.453 574.794 318.926 574.378 320.526 574.378C321.748 574.378 322.766 574.586 323.58 575.003C324.404 575.41 325.067 575.921 325.569 576.537C326.08 577.143 326.469 577.739 326.734 578.327H326.918V567.389H332.955V596.48H326.989V592.986H326.734C326.45 593.592 326.047 594.193 325.526 594.79C325.015 595.377 324.347 595.864 323.523 596.253C322.709 596.641 321.715 596.835 320.54 596.835ZM322.458 592.02C323.433 592.02 324.257 591.755 324.93 591.224C325.612 590.685 326.132 589.932 326.492 588.966C326.862 588 327.046 586.868 327.046 585.571C327.046 584.274 326.866 583.147 326.506 582.19C326.147 581.234 325.626 580.495 324.944 579.974C324.262 579.453 323.433 579.193 322.458 579.193C321.464 579.193 320.626 579.463 319.944 580.003C319.262 580.542 318.746 581.291 318.396 582.247C318.045 583.203 317.87 584.311 317.87 585.571C317.87 586.84 318.045 587.962 318.396 588.937C318.755 589.903 319.272 590.661 319.944 591.21C320.626 591.75 321.464 592.02 322.458 592.02ZM337.93 596.48V574.662H343.982V596.48H337.93ZM340.97 571.849C340.071 571.849 339.299 571.551 338.655 570.954C338.02 570.348 337.703 569.624 337.703 568.781C337.703 567.948 338.02 567.233 338.655 566.636C339.299 566.03 340.071 565.727 340.97 565.727C341.87 565.727 342.637 566.03 343.271 566.636C343.915 567.233 344.237 567.948 344.237 568.781C344.237 569.624 343.915 570.348 343.271 570.954C342.637 571.551 341.87 571.849 340.97 571.849ZM366.982 580.883L361.442 581.224C361.348 580.751 361.144 580.325 360.832 579.946C360.519 579.558 360.107 579.25 359.596 579.023C359.094 578.786 358.493 578.667 357.792 578.667C356.854 578.667 356.064 578.866 355.42 579.264C354.776 579.652 354.454 580.173 354.454 580.827C354.454 581.347 354.662 581.788 355.079 582.148C355.496 582.507 356.21 582.796 357.224 583.014L361.173 583.81C363.294 584.245 364.875 584.946 365.917 585.912C366.959 586.878 367.479 588.147 367.479 589.719C367.479 591.149 367.058 592.403 366.215 593.483C365.382 594.562 364.236 595.405 362.778 596.011C361.329 596.608 359.657 596.906 357.763 596.906C354.875 596.906 352.574 596.305 350.86 595.102C349.156 593.89 348.156 592.242 347.863 590.159L353.815 589.846C353.995 590.727 354.43 591.399 355.121 591.864C355.813 592.318 356.698 592.545 357.778 592.545C358.838 592.545 359.691 592.342 360.335 591.935C360.988 591.518 361.319 590.983 361.329 590.329C361.319 589.78 361.087 589.33 360.633 588.98C360.178 588.62 359.478 588.346 358.531 588.156L354.752 587.403C352.621 586.977 351.035 586.239 349.994 585.187C348.961 584.136 348.445 582.796 348.445 581.167C348.445 579.766 348.824 578.559 349.582 577.545C350.349 576.532 351.424 575.751 352.806 575.202C354.198 574.652 355.827 574.378 357.692 574.378C360.448 574.378 362.617 574.96 364.198 576.125C365.789 577.29 366.717 578.876 366.982 580.883ZM381.148 596.906C378.913 596.906 376.991 596.433 375.381 595.486C373.78 594.529 372.549 593.203 371.688 591.508C370.835 589.813 370.409 587.863 370.409 585.656C370.409 583.421 370.84 581.461 371.702 579.775C372.573 578.08 373.809 576.759 375.409 575.812C377.009 574.856 378.913 574.378 381.119 574.378C383.023 574.378 384.689 574.723 386.119 575.415C387.549 576.106 388.681 577.077 389.514 578.327C390.348 579.577 390.807 581.044 390.892 582.73H385.182C385.021 581.641 384.595 580.765 383.903 580.102C383.222 579.43 382.327 579.094 381.219 579.094C380.281 579.094 379.462 579.349 378.761 579.861C378.07 580.363 377.53 581.096 377.142 582.062C376.754 583.028 376.56 584.198 376.56 585.571C376.56 586.963 376.749 588.147 377.128 589.122C377.516 590.097 378.061 590.841 378.761 591.352C379.462 591.864 380.281 592.119 381.219 592.119C381.91 592.119 382.53 591.977 383.08 591.693C383.638 591.409 384.098 590.997 384.457 590.457C384.827 589.908 385.068 589.25 385.182 588.483H390.892C390.797 590.149 390.343 591.617 389.528 592.886C388.723 594.146 387.611 595.131 386.19 595.841C384.77 596.551 383.089 596.906 381.148 596.906ZM404.624 596.906C402.418 596.906 400.51 596.437 398.9 595.5C397.299 594.553 396.064 593.237 395.192 591.551C394.321 589.856 393.886 587.891 393.886 585.656C393.886 583.402 394.321 581.433 395.192 579.747C396.064 578.052 397.299 576.736 398.9 575.798C400.51 574.851 402.418 574.378 404.624 574.378C406.831 574.378 408.734 574.851 410.335 575.798C411.944 576.736 413.185 578.052 414.056 579.747C414.927 581.433 415.363 583.402 415.363 585.656C415.363 587.891 414.927 589.856 414.056 591.551C413.185 593.237 411.944 594.553 410.335 595.5C408.734 596.437 406.831 596.906 404.624 596.906ZM404.653 592.219C405.656 592.219 406.495 591.935 407.167 591.366C407.839 590.789 408.346 590.003 408.687 589.008C409.037 588.014 409.212 586.882 409.212 585.614C409.212 584.345 409.037 583.213 408.687 582.219C408.346 581.224 407.839 580.438 407.167 579.861C406.495 579.283 405.656 578.994 404.653 578.994C403.639 578.994 402.787 579.283 402.096 579.861C401.414 580.438 400.898 581.224 400.548 582.219C400.207 583.213 400.036 584.345 400.036 585.614C400.036 586.882 400.207 588.014 400.548 589.008C400.898 590.003 401.414 590.789 402.096 591.366C402.787 591.935 403.639 592.219 404.653 592.219ZM433.289 587.19V574.662H439.34V596.48H433.531V592.517H433.303C432.811 593.795 431.992 594.823 430.846 595.599C429.71 596.376 428.322 596.764 426.684 596.764C425.226 596.764 423.942 596.433 422.835 595.77C421.727 595.107 420.86 594.165 420.235 592.943C419.62 591.721 419.307 590.258 419.298 588.554V574.662H425.349V587.474C425.358 588.762 425.704 589.78 426.386 590.528C427.067 591.276 427.981 591.65 429.127 591.65C429.856 591.65 430.538 591.485 431.173 591.153C431.807 590.812 432.318 590.31 432.707 589.648C433.104 588.985 433.299 588.166 433.289 587.19ZM450.232 583.866V596.48H444.18V574.662H449.947V578.511H450.203C450.686 577.242 451.496 576.239 452.632 575.5C453.768 574.752 455.146 574.378 456.766 574.378C458.281 574.378 459.602 574.709 460.729 575.372C461.856 576.035 462.732 576.982 463.357 578.213C463.982 579.435 464.294 580.893 464.294 582.588V596.48H458.243V583.667C458.252 582.332 457.911 581.291 457.22 580.542C456.529 579.785 455.577 579.406 454.365 579.406C453.551 579.406 452.831 579.581 452.206 579.932C451.59 580.282 451.107 580.793 450.757 581.466C450.416 582.129 450.241 582.929 450.232 583.866ZM480.668 574.662V579.207H467.529V574.662H480.668ZM470.512 569.435H476.563V589.775C476.563 590.334 476.648 590.77 476.819 591.082C476.989 591.385 477.226 591.598 477.529 591.721C477.842 591.845 478.201 591.906 478.609 591.906C478.893 591.906 479.177 591.882 479.461 591.835C479.745 591.778 479.963 591.736 480.114 591.707L481.066 596.21C480.763 596.305 480.337 596.414 479.788 596.537C479.238 596.669 478.571 596.75 477.785 596.778C476.326 596.835 475.048 596.641 473.95 596.196C472.861 595.751 472.013 595.06 471.407 594.122C470.801 593.185 470.503 592.001 470.512 590.571V569.435Z" fill="#105004"/>
<path d="M376.502 765.04C345.537 765.04 320.342 790.235 320.342 821.165C320.139 866.409 374.368 903.924 376.502 905.44C376.502 905.44 432.866 866.409 432.662 821.2C432.662 790.235 407.468 765.04 376.502 765.04ZM376.502 849.28C360.988 849.28 348.422 836.714 348.422 821.2C348.422 805.686 360.988 793.12 376.502 793.12C392.017 793.12 404.582 805.686 404.582 821.2C404.582 836.714 392.017 849.28 376.502 849.28Z" fill="#105004"/>
<rect x="121.5" y="925.48" width="510" height="68" rx="34" fill="#105004" fill-opacity="0.1"/>
<path d="M178.361 945.389V974.48H173.048L160.392 956.17H160.179V974.48H154.028V945.389H159.426L171.983 963.685H172.239V945.389H178.361ZM193.187 974.906C190.98 974.906 189.072 974.437 187.462 973.5C185.862 972.553 184.626 971.237 183.755 969.551C182.884 967.856 182.448 965.891 182.448 963.656C182.448 961.402 182.884 959.433 183.755 957.747C184.626 956.052 185.862 954.736 187.462 953.798C189.072 952.851 190.98 952.378 193.187 952.378C195.393 952.378 197.297 952.851 198.897 953.798C200.507 954.736 201.747 956.052 202.619 957.747C203.49 959.433 203.925 961.402 203.925 963.656C203.925 965.891 203.49 967.856 202.619 969.551C201.747 971.237 200.507 972.553 198.897 973.5C197.297 974.437 195.393 974.906 193.187 974.906ZM193.215 970.219C194.219 970.219 195.057 969.935 195.729 969.366C196.402 968.789 196.908 968.003 197.249 967.008C197.6 966.014 197.775 964.882 197.775 963.614C197.775 962.345 197.6 961.213 197.249 960.219C196.908 959.224 196.402 958.438 195.729 957.861C195.057 957.283 194.219 956.994 193.215 956.994C192.202 956.994 191.35 957.283 190.658 957.861C189.977 958.438 189.46 959.224 189.11 960.219C188.769 961.213 188.599 962.345 188.599 963.614C188.599 964.882 188.769 966.014 189.11 967.008C189.46 968.003 189.977 968.789 190.658 969.366C191.35 969.935 192.202 970.219 193.215 970.219ZM242.899 955.574H236.678C236.564 954.769 236.332 954.054 235.982 953.429C235.631 952.794 235.181 952.255 234.632 951.81C234.083 951.364 233.448 951.024 232.729 950.787C232.018 950.55 231.247 950.432 230.413 950.432C228.908 950.432 227.596 950.806 226.479 951.554C225.361 952.292 224.495 953.372 223.879 954.792C223.264 956.203 222.956 957.917 222.956 959.935C222.956 962.008 223.264 963.751 223.879 965.162C224.504 966.573 225.375 967.638 226.493 968.358C227.61 969.078 228.903 969.437 230.371 969.437C231.195 969.437 231.957 969.328 232.658 969.111C233.368 968.893 233.998 968.576 234.547 968.159C235.096 967.733 235.551 967.217 235.911 966.611C236.28 966.005 236.536 965.313 236.678 964.537L242.899 964.565C242.738 965.9 242.336 967.188 241.692 968.429C241.057 969.66 240.2 970.763 239.121 971.739C238.051 972.704 236.772 973.471 235.286 974.04C233.808 974.598 232.137 974.878 230.271 974.878C227.677 974.878 225.357 974.291 223.311 973.116C221.275 971.942 219.665 970.242 218.482 968.017C217.307 965.792 216.72 963.097 216.72 959.935C216.72 956.762 217.317 954.063 218.51 951.838C219.703 949.613 221.322 947.917 223.368 946.753C225.413 945.578 227.714 944.991 230.271 944.991C231.957 944.991 233.519 945.228 234.959 945.702C236.408 946.175 237.691 946.866 238.808 947.775C239.926 948.675 240.835 949.778 241.536 951.085C242.246 952.392 242.7 953.888 242.899 955.574ZM274.043 959.935C274.043 963.107 273.441 965.806 272.239 968.031C271.045 970.256 269.417 971.956 267.352 973.131C265.297 974.295 262.987 974.878 260.42 974.878C257.835 974.878 255.515 974.291 253.46 973.116C251.405 971.942 249.781 970.242 248.588 968.017C247.395 965.792 246.798 963.097 246.798 959.935C246.798 956.762 247.395 954.063 248.588 951.838C249.781 949.613 251.405 947.917 253.46 946.753C255.515 945.578 257.835 944.991 260.42 944.991C262.987 944.991 265.297 945.578 267.352 946.753C269.417 947.917 271.045 949.613 272.239 951.838C273.441 954.063 274.043 956.762 274.043 959.935ZM267.807 959.935C267.807 957.88 267.499 956.147 266.884 954.736C266.277 953.325 265.42 952.255 264.312 951.525C263.205 950.796 261.907 950.432 260.42 950.432C258.934 950.432 257.636 950.796 256.528 951.525C255.42 952.255 254.559 953.325 253.943 954.736C253.337 956.147 253.034 957.88 253.034 959.935C253.034 961.989 253.337 963.722 253.943 965.133C254.559 966.544 255.42 967.614 256.528 968.344C257.636 969.073 258.934 969.437 260.42 969.437C261.907 969.437 263.205 969.073 264.312 968.344C265.42 967.614 266.277 966.544 266.884 965.133C267.499 963.722 267.807 961.989 267.807 959.935ZM288.911 974.48H278.599V945.389H288.996C291.923 945.389 294.442 945.971 296.553 947.136C298.665 948.292 300.289 949.953 301.425 952.122C302.571 954.291 303.144 956.885 303.144 959.906C303.144 962.936 302.571 965.541 301.425 967.719C300.289 969.897 298.656 971.568 296.525 972.733C294.404 973.898 291.866 974.48 288.911 974.48ZM284.749 969.21H288.656C290.474 969.21 292.003 968.888 293.244 968.244C294.494 967.591 295.431 966.582 296.056 965.219C296.691 963.846 297.008 962.075 297.008 959.906C297.008 957.756 296.691 956 296.056 954.636C295.431 953.273 294.498 952.269 293.258 951.625C292.017 950.981 290.488 950.659 288.67 950.659H284.749V969.21ZM316.844 974.48V952.662H322.896V974.48H316.844ZM319.884 949.849C318.985 949.849 318.213 949.551 317.569 948.954C316.934 948.348 316.617 947.624 316.617 946.781C316.617 945.948 316.934 945.233 317.569 944.636C318.213 944.03 318.985 943.727 319.884 943.727C320.784 943.727 321.551 944.03 322.185 944.636C322.829 945.233 323.151 945.948 323.151 946.781C323.151 947.624 322.829 948.348 322.185 948.954C321.551 949.551 320.784 949.849 319.884 949.849ZM333.794 961.866V974.48H327.743V952.662H333.51V956.511H333.766C334.249 955.242 335.058 954.239 336.195 953.5C337.331 952.752 338.709 952.378 340.328 952.378C341.843 952.378 343.164 952.709 344.291 953.372C345.418 954.035 346.294 954.982 346.919 956.213C347.544 957.435 347.857 958.893 347.857 960.588V974.48H341.805V961.667C341.815 960.332 341.474 959.291 340.783 958.542C340.091 957.785 339.14 957.406 337.928 957.406C337.113 957.406 336.393 957.581 335.768 957.932C335.153 958.282 334.67 958.793 334.32 959.466C333.979 960.129 333.804 960.929 333.794 961.866ZM373.489 952.662V957.207H360.349V952.662H373.489ZM363.332 947.435H369.384V967.775C369.384 968.334 369.469 968.77 369.639 969.082C369.81 969.385 370.046 969.598 370.349 969.721C370.662 969.845 371.022 969.906 371.429 969.906C371.713 969.906 371.997 969.882 372.281 969.835C372.565 969.778 372.783 969.736 372.935 969.707L373.886 974.21C373.583 974.305 373.157 974.414 372.608 974.537C372.059 974.669 371.391 974.75 370.605 974.778C369.147 974.835 367.868 974.641 366.77 974.196C365.681 973.751 364.833 973.06 364.227 972.122C363.621 971.185 363.323 970.001 363.332 968.571V947.435ZM383.95 961.866V974.48H377.899V945.389H383.78V956.511H384.036C384.528 955.223 385.323 954.215 386.422 953.486C387.52 952.747 388.898 952.378 390.555 952.378C392.071 952.378 393.392 952.709 394.518 953.372C395.655 954.025 396.536 954.968 397.161 956.199C397.795 957.42 398.107 958.883 398.098 960.588V974.48H392.047V961.667C392.056 960.323 391.715 959.276 391.024 958.528C390.342 957.78 389.386 957.406 388.155 957.406C387.331 957.406 386.602 957.581 385.967 957.932C385.342 958.282 384.85 958.793 384.49 959.466C384.14 960.129 383.96 960.929 383.95 961.866ZM402.86 974.48V952.662H408.911V974.48H402.86ZM405.9 949.849C405 949.849 404.228 949.551 403.585 948.954C402.95 948.348 402.633 947.624 402.633 946.781C402.633 945.948 402.95 945.233 403.585 944.636C404.228 944.03 405 943.727 405.9 943.727C406.799 943.727 407.567 944.03 408.201 944.636C408.845 945.233 409.167 945.948 409.167 946.781C409.167 947.624 408.845 948.348 408.201 948.954C407.567 949.551 406.799 949.849 405.9 949.849ZM431.912 958.883L426.372 959.224C426.277 958.751 426.074 958.325 425.761 957.946C425.449 957.558 425.037 957.25 424.526 957.023C424.024 956.786 423.422 956.667 422.722 956.667C421.784 956.667 420.993 956.866 420.349 957.264C419.705 957.652 419.384 958.173 419.384 958.827C419.384 959.347 419.592 959.788 420.009 960.148C420.425 960.507 421.14 960.796 422.153 961.014L426.102 961.81C428.223 962.245 429.805 962.946 430.847 963.912C431.888 964.878 432.409 966.147 432.409 967.719C432.409 969.149 431.988 970.403 431.145 971.483C430.312 972.562 429.166 973.405 427.707 974.011C426.259 974.608 424.587 974.906 422.693 974.906C419.805 974.906 417.504 974.305 415.79 973.102C414.085 971.89 413.086 970.242 412.793 968.159L418.744 967.846C418.924 968.727 419.36 969.399 420.051 969.864C420.742 970.318 421.628 970.545 422.707 970.545C423.768 970.545 424.62 970.342 425.264 969.935C425.918 969.518 426.249 968.983 426.259 968.329C426.249 967.78 426.017 967.33 425.562 966.98C425.108 966.62 424.407 966.346 423.46 966.156L419.682 965.403C417.551 964.977 415.965 964.239 414.923 963.187C413.891 962.136 413.375 960.796 413.375 959.167C413.375 957.766 413.754 956.559 414.511 955.545C415.278 954.532 416.353 953.751 417.736 953.202C419.128 952.652 420.757 952.378 422.622 952.378C425.378 952.378 427.546 952.96 429.128 954.125C430.719 955.29 431.647 956.876 431.912 958.883ZM451.528 945.389V974.48H445.477V945.389H451.528ZM466.234 974.906C464.027 974.906 462.119 974.437 460.509 973.5C458.909 972.553 457.673 971.237 456.802 969.551C455.931 967.856 455.495 965.891 455.495 963.656C455.495 961.402 455.931 959.433 456.802 957.747C457.673 956.052 458.909 954.736 460.509 953.798C462.119 952.851 464.027 952.378 466.234 952.378C468.44 952.378 470.344 952.851 471.944 953.798C473.554 954.736 474.794 956.052 475.665 957.747C476.537 959.433 476.972 961.402 476.972 963.656C476.972 965.891 476.537 967.856 475.665 969.551C474.794 971.237 473.554 972.553 471.944 973.5C470.344 974.437 468.44 974.906 466.234 974.906ZM466.262 970.219C467.266 970.219 468.104 969.935 468.776 969.366C469.449 968.789 469.955 968.003 470.296 967.008C470.647 966.014 470.822 964.882 470.822 963.614C470.822 962.345 470.647 961.213 470.296 960.219C469.955 959.224 469.449 958.438 468.776 957.861C468.104 957.283 467.266 956.994 466.262 956.994C465.249 956.994 464.397 957.283 463.705 957.861C463.023 958.438 462.507 959.224 462.157 960.219C461.816 961.213 461.646 962.345 461.646 963.614C461.646 964.882 461.816 966.014 462.157 967.008C462.507 968.003 463.023 968.789 463.705 969.366C464.397 969.935 465.249 970.219 466.262 970.219ZM490.765 974.906C488.53 974.906 486.608 974.433 484.998 973.486C483.397 972.529 482.166 971.203 481.305 969.508C480.452 967.813 480.026 965.863 480.026 963.656C480.026 961.421 480.457 959.461 481.319 957.775C482.19 956.08 483.426 954.759 485.026 953.812C486.627 952.856 488.53 952.378 490.737 952.378C492.64 952.378 494.307 952.723 495.737 953.415C497.166 954.106 498.298 955.077 499.131 956.327C499.965 957.577 500.424 959.044 500.509 960.73H494.799C494.638 959.641 494.212 958.765 493.521 958.102C492.839 957.43 491.944 957.094 490.836 957.094C489.898 957.094 489.079 957.349 488.379 957.861C487.687 958.363 487.147 959.096 486.759 960.062C486.371 961.028 486.177 962.198 486.177 963.571C486.177 964.963 486.366 966.147 486.745 967.122C487.133 968.097 487.678 968.841 488.379 969.352C489.079 969.864 489.898 970.119 490.836 970.119C491.527 970.119 492.147 969.977 492.697 969.693C493.255 969.409 493.715 968.997 494.075 968.457C494.444 967.908 494.685 967.25 494.799 966.483H500.509C500.415 968.149 499.96 969.617 499.146 970.886C498.341 972.146 497.228 973.131 495.808 973.841C494.387 974.551 492.706 974.906 490.765 974.906ZM510.605 974.892C509.213 974.892 507.973 974.65 506.884 974.167C505.795 973.675 504.933 972.951 504.298 971.994C503.673 971.028 503.361 969.826 503.361 968.386C503.361 967.174 503.583 966.156 504.028 965.332C504.473 964.508 505.08 963.846 505.847 963.344C506.614 962.842 507.485 962.463 508.46 962.207C509.445 961.952 510.477 961.772 511.557 961.667C512.826 961.535 513.848 961.412 514.625 961.298C515.402 961.175 515.965 960.995 516.315 960.758C516.666 960.522 516.841 960.171 516.841 959.707V959.622C516.841 958.722 516.557 958.026 515.989 957.534C515.43 957.042 514.634 956.795 513.602 956.795C512.513 956.795 511.647 957.037 511.003 957.52C510.359 957.993 509.933 958.59 509.724 959.31L504.128 958.855C504.412 957.529 504.971 956.383 505.804 955.417C506.637 954.442 507.712 953.694 509.028 953.173C510.354 952.643 511.888 952.378 513.631 952.378C514.843 952.378 516.003 952.52 517.111 952.804C518.228 953.088 519.218 953.528 520.08 954.125C520.951 954.721 521.637 955.489 522.139 956.426C522.641 957.354 522.892 958.467 522.892 959.764V974.48H517.153V971.454H516.983C516.633 972.136 516.164 972.738 515.577 973.258C514.99 973.77 514.284 974.172 513.46 974.466C512.636 974.75 511.685 974.892 510.605 974.892ZM512.338 970.716C513.228 970.716 514.014 970.541 514.696 970.19C515.378 969.83 515.913 969.347 516.301 968.741C516.689 968.135 516.884 967.449 516.884 966.682V964.366C516.694 964.489 516.434 964.603 516.102 964.707C515.78 964.802 515.416 964.892 515.009 964.977C514.601 965.053 514.194 965.124 513.787 965.19C513.38 965.247 513.01 965.299 512.679 965.346C511.969 965.451 511.348 965.616 510.818 965.844C510.288 966.071 509.876 966.379 509.582 966.767C509.289 967.146 509.142 967.619 509.142 968.187C509.142 969.011 509.44 969.641 510.037 970.077C510.643 970.503 511.41 970.716 512.338 970.716ZM539.192 952.662V957.207H526.053V952.662H539.192ZM529.036 947.435H535.087V967.775C535.087 968.334 535.172 968.77 535.342 969.082C535.513 969.385 535.75 969.598 536.053 969.721C536.365 969.845 536.725 969.906 537.132 969.906C537.416 969.906 537.7 969.882 537.984 969.835C538.268 969.778 538.486 969.736 538.638 969.707L539.589 974.21C539.286 974.305 538.86 974.414 538.311 974.537C537.762 974.669 537.094 974.75 536.308 974.778C534.85 974.835 533.571 974.641 532.473 974.196C531.384 973.751 530.536 973.06 529.93 972.122C529.324 971.185 529.026 970.001 529.036 968.571V947.435ZM543.134 974.48V952.662H549.185V974.48H543.134ZM546.173 949.849C545.274 949.849 544.502 949.551 543.858 948.954C543.223 948.348 542.906 947.624 542.906 946.781C542.906 945.948 543.223 945.233 543.858 944.636C544.502 944.03 545.274 943.727 546.173 943.727C547.073 943.727 547.84 944.03 548.474 944.636C549.118 945.233 549.44 945.948 549.44 946.781C549.44 947.624 549.118 948.348 548.474 948.954C547.84 949.551 547.073 949.849 546.173 949.849ZM563.89 974.906C561.683 974.906 559.775 974.437 558.165 973.5C556.565 972.553 555.329 971.237 554.458 969.551C553.587 967.856 553.151 965.891 553.151 963.656C553.151 961.402 553.587 959.433 554.458 957.747C555.329 956.052 556.565 954.736 558.165 953.798C559.775 952.851 561.683 952.378 563.89 952.378C566.096 952.378 568 952.851 569.6 953.798C571.21 954.736 572.451 956.052 573.322 957.747C574.193 959.433 574.629 961.402 574.629 963.656C574.629 965.891 574.193 967.856 573.322 969.551C572.451 971.237 571.21 972.553 569.6 973.5C568 974.437 566.096 974.906 563.89 974.906ZM563.918 970.219C564.922 970.219 565.76 969.935 566.433 969.366C567.105 968.789 567.612 968.003 567.952 967.008C568.303 966.014 568.478 964.882 568.478 963.614C568.478 962.345 568.303 961.213 567.952 960.219C567.612 959.224 567.105 958.438 566.433 957.861C565.76 957.283 564.922 956.994 563.918 956.994C562.905 956.994 562.053 957.283 561.362 957.861C560.68 958.438 560.164 959.224 559.813 960.219C559.472 961.213 559.302 962.345 559.302 963.614C559.302 964.882 559.472 966.014 559.813 967.008C560.164 968.003 560.68 968.789 561.362 969.366C562.053 969.935 562.905 970.219 563.918 970.219ZM584.614 961.866V974.48H578.563V952.662H584.33V956.511H584.586C585.069 955.242 585.879 954.239 587.015 953.5C588.151 952.752 589.529 952.378 591.148 952.378C592.664 952.378 593.985 952.709 595.112 953.372C596.238 954.035 597.114 954.982 597.739 956.213C598.364 957.435 598.677 958.893 598.677 960.588V974.48H592.626V961.667C592.635 960.332 592.294 959.291 591.603 958.542C590.912 957.785 589.96 957.406 588.748 957.406C587.933 957.406 587.214 957.581 586.589 957.932C585.973 958.282 585.49 958.793 585.14 959.466C584.799 960.129 584.624 960.929 584.614 961.866Z" fill="#105004"/>
<path fill-rule="evenodd" clip-rule="evenodd" d="M1236.9 828.484C1236.9 820.664 1240.01 813.165 1245.54 807.636C1251.07 802.106 1258.57 799 1266.39 799C1274.21 799 1281.71 802.106 1287.24 807.636C1292.77 813.165 1295.87 820.664 1295.87 828.484C1295.87 836.304 1292.77 843.803 1287.24 849.332C1281.71 854.862 1274.21 857.968 1266.39 857.968C1258.57 857.968 1251.07 854.862 1245.54 849.332C1240.01 843.803 1236.9 836.304 1236.9 828.484ZM1236.9 872.71C1227.13 872.71 1217.76 876.593 1210.84 883.505C1203.93 890.416 1200.05 899.79 1200.05 909.565C1200.05 915.43 1202.38 921.054 1206.53 925.201C1210.67 929.348 1216.3 931.678 1222.16 931.678H1310.61C1316.48 931.678 1322.1 929.348 1326.25 925.201C1330.4 921.054 1332.73 915.43 1332.73 909.565C1332.73 899.79 1328.84 890.416 1321.93 883.505C1315.02 876.593 1305.65 872.71 1295.87 872.71H1236.9Z" fill="#105004"/>
<rect x="1050" y="965.904" width="433" height="68" rx="34" fill="#105004" fill-opacity="0.1"/>
<path d="M1108.2 995.998H1101.97C1101.86 995.193 1101.63 994.478 1101.28 993.853C1100.93 993.218 1100.48 992.678 1099.93 992.233C1099.38 991.788 1098.75 991.447 1098.03 991.211C1097.32 990.974 1096.54 990.856 1095.71 990.856C1094.2 990.856 1092.89 991.23 1091.78 991.978C1090.66 992.716 1089.79 993.796 1089.18 995.216C1088.56 996.627 1088.25 998.341 1088.25 1000.36C1088.25 1002.43 1088.56 1004.17 1089.18 1005.59C1089.8 1007 1090.67 1008.06 1091.79 1008.78C1092.91 1009.5 1094.2 1009.86 1095.67 1009.86C1096.49 1009.86 1097.25 1009.75 1097.95 1009.53C1098.66 1009.32 1099.29 1009 1099.84 1008.58C1100.39 1008.16 1100.85 1007.64 1101.21 1007.03C1101.58 1006.43 1101.83 1005.74 1101.97 1004.96L1108.2 1004.99C1108.04 1006.32 1107.63 1007.61 1106.99 1008.85C1106.35 1010.08 1105.5 1011.19 1104.42 1012.16C1103.35 1013.13 1102.07 1013.9 1100.58 1014.46C1099.11 1015.02 1097.43 1015.3 1095.57 1015.3C1092.97 1015.3 1090.65 1014.71 1088.61 1013.54C1086.57 1012.37 1084.96 1010.67 1083.78 1008.44C1082.6 1006.22 1082.02 1003.52 1082.02 1000.36C1082.02 997.186 1082.61 994.487 1083.81 992.262C1085 990.036 1086.62 988.341 1088.66 987.177C1090.71 986.002 1093.01 985.415 1095.57 985.415C1097.25 985.415 1098.82 985.652 1100.26 986.125C1101.7 986.599 1102.99 987.29 1104.11 988.199C1105.22 989.099 1106.13 990.202 1106.83 991.509C1107.54 992.816 1108 994.312 1108.2 995.998ZM1139.34 1000.36C1139.34 1003.53 1138.74 1006.23 1137.54 1008.45C1136.34 1010.68 1134.71 1012.38 1132.65 1013.55C1130.59 1014.72 1128.28 1015.3 1125.72 1015.3C1123.13 1015.3 1120.81 1014.71 1118.76 1013.54C1116.7 1012.37 1115.08 1010.67 1113.88 1008.44C1112.69 1006.22 1112.1 1003.52 1112.1 1000.36C1112.1 997.186 1112.69 994.487 1113.88 992.262C1115.08 990.036 1116.7 988.341 1118.76 987.177C1120.81 986.002 1123.13 985.415 1125.72 985.415C1128.28 985.415 1130.59 986.002 1132.65 987.177C1134.71 988.341 1136.34 990.036 1137.54 992.262C1138.74 994.487 1139.34 997.186 1139.34 1000.36ZM1133.1 1000.36C1133.1 998.303 1132.8 996.57 1132.18 995.159C1131.57 993.749 1130.72 992.678 1129.61 991.949C1128.5 991.22 1127.2 990.856 1125.72 990.856C1124.23 990.856 1122.93 991.22 1121.83 991.949C1120.72 992.678 1119.86 993.749 1119.24 995.159C1118.63 996.57 1118.33 998.303 1118.33 1000.36C1118.33 1002.41 1118.63 1004.15 1119.24 1005.56C1119.86 1006.97 1120.72 1008.04 1121.83 1008.77C1122.93 1009.5 1124.23 1009.86 1125.72 1009.86C1127.2 1009.86 1128.5 1009.5 1129.61 1008.77C1130.72 1008.04 1131.57 1006.97 1132.18 1005.56C1132.8 1004.15 1133.1 1002.41 1133.1 1000.36ZM1154.21 1014.9H1143.9V985.813H1154.29C1157.22 985.813 1159.74 986.395 1161.85 987.56C1163.96 988.715 1165.59 990.377 1166.72 992.546C1167.87 994.714 1168.44 997.309 1168.44 1000.33C1168.44 1003.36 1167.87 1005.96 1166.72 1008.14C1165.59 1010.32 1163.95 1011.99 1161.82 1013.16C1159.7 1014.32 1157.16 1014.9 1154.21 1014.9ZM1150.05 1009.63H1153.95C1155.77 1009.63 1157.3 1009.31 1158.54 1008.67C1159.79 1008.01 1160.73 1007.01 1161.35 1005.64C1161.99 1004.27 1162.3 1002.5 1162.3 1000.33C1162.3 998.18 1161.99 996.424 1161.35 995.06C1160.73 993.696 1159.8 992.693 1158.55 992.049C1157.31 991.405 1155.78 991.083 1153.97 991.083H1150.05V1009.63ZM1182.25 1014.9V985.813H1201.52V990.884H1188.41V997.816H1200.24V1002.89H1188.41V1014.9H1182.25ZM1213.88 1015.33C1211.64 1015.33 1209.71 1014.88 1208.09 1013.97C1206.48 1013.05 1205.24 1011.75 1204.36 1010.07C1203.49 1008.39 1203.06 1006.4 1203.06 1004.09C1203.06 1001.85 1203.49 999.88 1204.36 998.185C1205.24 996.49 1206.46 995.169 1208.04 994.222C1209.63 993.275 1211.5 992.802 1213.64 992.802C1215.08 992.802 1216.42 993.034 1217.66 993.498C1218.91 993.952 1220 994.639 1220.93 995.557C1221.86 996.476 1222.59 997.631 1223.11 999.023C1223.64 1000.41 1223.9 1002.03 1223.9 1003.88V1005.54H1205.47V1001.79H1218.2C1218.2 1000.92 1218.01 1000.15 1217.63 999.478C1217.25 998.805 1216.73 998.28 1216.05 997.901C1215.39 997.513 1214.62 997.319 1213.74 997.319C1212.82 997.319 1212.01 997.532 1211.3 997.958C1210.6 998.374 1210.05 998.938 1209.65 999.648C1209.25 1000.35 1209.05 1001.13 1209.04 1001.99V1005.56C1209.04 1006.64 1209.24 1007.57 1209.63 1008.36C1210.04 1009.14 1210.61 1009.75 1211.35 1010.17C1212.09 1010.6 1212.97 1010.81 1213.98 1010.81C1214.65 1010.81 1215.27 1010.72 1215.83 1010.53C1216.39 1010.34 1216.86 1010.06 1217.26 1009.68C1217.66 1009.3 1217.96 1008.83 1218.17 1008.28L1223.77 1008.65C1223.48 1010 1222.9 1011.17 1222.02 1012.18C1221.15 1013.17 1220.02 1013.95 1218.64 1014.51C1217.27 1015.06 1215.68 1015.33 1213.88 1015.33ZM1237.79 1015.33C1235.54 1015.33 1233.61 1014.88 1231.99 1013.97C1230.38 1013.05 1229.14 1011.75 1228.27 1010.07C1227.4 1008.39 1226.96 1006.4 1226.96 1004.09C1226.96 1001.85 1227.4 999.88 1228.27 998.185C1229.14 996.49 1230.37 995.169 1231.95 994.222C1233.54 993.275 1235.41 992.802 1237.55 992.802C1238.99 992.802 1240.33 993.034 1241.57 993.498C1242.82 993.952 1243.91 994.639 1244.83 995.557C1245.77 996.476 1246.5 997.631 1247.02 999.023C1247.54 1000.41 1247.8 1002.03 1247.8 1003.88V1005.54H1229.38V1001.79H1242.11C1242.11 1000.92 1241.92 1000.15 1241.54 999.478C1241.16 998.805 1240.63 998.28 1239.96 997.901C1239.3 997.513 1238.53 997.319 1237.65 997.319C1236.73 997.319 1235.91 997.532 1235.2 997.958C1234.5 998.374 1233.95 998.938 1233.55 999.648C1233.16 1000.35 1232.95 1001.13 1232.94 1001.99V1005.56C1232.94 1006.64 1233.14 1007.57 1233.54 1008.36C1233.95 1009.14 1234.52 1009.75 1235.26 1010.17C1236 1010.6 1236.87 1010.81 1237.89 1010.81C1238.56 1010.81 1239.17 1010.72 1239.73 1010.53C1240.29 1010.34 1240.77 1010.06 1241.17 1009.68C1241.57 1009.3 1241.87 1008.83 1242.08 1008.28L1247.67 1008.65C1247.39 1010 1246.81 1011.17 1245.93 1012.18C1245.06 1013.17 1243.93 1013.95 1242.55 1014.51C1241.17 1015.06 1239.59 1015.33 1237.79 1015.33ZM1261.01 1014.9V993.086H1267.06V1014.9H1261.01ZM1264.05 990.273C1263.15 990.273 1262.38 989.975 1261.73 989.378C1261.1 988.772 1260.78 988.048 1260.78 987.205C1260.78 986.372 1261.1 985.657 1261.73 985.06C1262.38 984.454 1263.15 984.151 1264.05 984.151C1264.95 984.151 1265.71 984.454 1266.35 985.06C1266.99 985.657 1267.32 986.372 1267.32 987.205C1267.32 988.048 1266.99 988.772 1266.35 989.378C1265.71 989.975 1264.95 990.273 1264.05 990.273ZM1290.06 999.307L1284.52 999.648C1284.43 999.175 1284.22 998.749 1283.91 998.37C1283.6 997.981 1283.19 997.674 1282.67 997.446C1282.17 997.21 1281.57 997.091 1280.87 997.091C1279.93 997.091 1279.14 997.29 1278.5 997.688C1277.85 998.076 1277.53 998.597 1277.53 999.25C1277.53 999.771 1277.74 1000.21 1278.16 1000.57C1278.57 1000.93 1279.29 1001.22 1280.3 1001.44L1284.25 1002.23C1286.37 1002.67 1287.95 1003.37 1289 1004.34C1290.04 1005.3 1290.56 1006.57 1290.56 1008.14C1290.56 1009.57 1290.14 1010.83 1289.29 1011.91C1288.46 1012.99 1287.31 1013.83 1285.86 1014.44C1284.41 1015.03 1282.74 1015.33 1280.84 1015.33C1277.95 1015.33 1275.65 1014.73 1273.94 1013.53C1272.23 1012.31 1271.23 1010.67 1270.94 1008.58L1276.89 1008.27C1277.07 1009.15 1277.51 1009.82 1278.2 1010.29C1278.89 1010.74 1279.78 1010.97 1280.86 1010.97C1281.92 1010.97 1282.77 1010.77 1283.41 1010.36C1284.07 1009.94 1284.4 1009.41 1284.41 1008.75C1284.4 1008.2 1284.17 1007.75 1283.71 1007.4C1283.26 1007.04 1282.56 1006.77 1281.61 1006.58L1277.83 1005.83C1275.7 1005.4 1274.11 1004.66 1273.07 1003.61C1272.04 1002.56 1271.52 1001.22 1271.52 999.591C1271.52 998.19 1271.9 996.982 1272.66 995.969C1273.43 994.956 1274.5 994.175 1275.88 993.625C1277.28 993.076 1278.91 992.802 1280.77 992.802C1283.53 992.802 1285.69 993.384 1287.28 994.549C1288.87 995.713 1289.8 997.3 1290.06 999.307ZM1308.75 1014.9H1302.16L1312.21 985.813H1320.13L1330.16 1014.9H1323.57L1316.28 992.461H1316.05L1308.75 1014.9ZM1308.34 1003.47H1323.91V1008.27H1308.34V1003.47ZM1333.55 1023.09V993.086H1339.51V996.75H1339.78C1340.05 996.163 1340.43 995.567 1340.93 994.961C1341.45 994.345 1342.11 993.834 1342.92 993.427C1343.75 993.01 1344.77 992.802 1345.99 992.802C1347.58 992.802 1349.05 993.218 1350.39 994.052C1351.74 994.875 1352.81 996.121 1353.62 997.787C1354.42 999.445 1354.83 1001.52 1354.83 1004.02C1354.83 1006.46 1354.43 1008.51 1353.65 1010.19C1352.87 1011.85 1351.81 1013.12 1350.47 1013.98C1349.13 1014.83 1347.63 1015.26 1345.98 1015.26C1344.8 1015.26 1343.8 1015.06 1342.98 1014.68C1342.17 1014.29 1341.5 1013.8 1340.98 1013.21C1340.46 1012.62 1340.06 1012.02 1339.78 1011.41H1339.6V1023.09H1333.55ZM1339.47 1003.99C1339.47 1005.29 1339.65 1006.42 1340.01 1007.39C1340.37 1008.36 1340.89 1009.11 1341.57 1009.65C1342.25 1010.18 1343.08 1010.44 1344.06 1010.44C1345.04 1010.44 1345.88 1010.17 1346.56 1009.63C1347.24 1009.08 1347.76 1008.33 1348.11 1007.36C1348.47 1006.39 1348.65 1005.26 1348.65 1003.99C1348.65 1002.74 1348.47 1001.63 1348.12 1000.67C1347.77 999.714 1347.25 998.966 1346.57 998.427C1345.89 997.887 1345.05 997.617 1344.06 997.617C1343.07 997.617 1342.24 997.877 1341.56 998.398C1340.89 998.919 1340.37 999.658 1340.01 1000.61C1339.65 1001.57 1339.47 1002.7 1339.47 1003.99ZM1358.86 1023.09V993.086H1364.83V996.75H1365.1C1365.36 996.163 1365.74 995.567 1366.25 994.961C1366.76 994.345 1367.42 993.834 1368.24 993.427C1369.06 993.01 1370.08 992.802 1371.3 992.802C1372.89 992.802 1374.36 993.218 1375.71 994.052C1377.05 994.875 1378.13 996.121 1378.93 997.787C1379.74 999.445 1380.14 1001.52 1380.14 1004.02C1380.14 1006.46 1379.75 1008.51 1378.96 1010.19C1378.18 1011.85 1377.12 1013.12 1375.78 1013.98C1374.44 1014.83 1372.95 1015.26 1371.29 1015.26C1370.11 1015.26 1369.12 1015.06 1368.29 1014.68C1367.48 1014.29 1366.81 1013.8 1366.29 1013.21C1365.77 1012.62 1365.37 1012.02 1365.1 1011.41H1364.91V1023.09H1358.86ZM1364.78 1003.99C1364.78 1005.29 1364.96 1006.42 1365.32 1007.39C1365.68 1008.36 1366.2 1009.11 1366.89 1009.65C1367.57 1010.18 1368.4 1010.44 1369.37 1010.44C1370.36 1010.44 1371.19 1010.17 1371.87 1009.63C1372.55 1009.08 1373.07 1008.33 1373.42 1007.36C1373.78 1006.39 1373.96 1005.26 1373.96 1003.99C1373.96 1002.74 1373.78 1001.63 1373.43 1000.67C1373.08 999.714 1372.57 998.966 1371.89 998.427C1371.2 997.887 1370.37 997.617 1369.37 997.617C1368.39 997.617 1367.55 997.877 1366.87 998.398C1366.2 998.919 1365.68 999.658 1365.32 1000.61C1364.96 1001.57 1364.78 1002.7 1364.78 1003.99ZM1390.22 985.813V1014.9H1384.17V985.813H1390.22ZM1395.07 1014.9V993.086H1401.12V1014.9H1395.07ZM1398.11 990.273C1397.21 990.273 1396.44 989.975 1395.8 989.378C1395.16 988.772 1394.84 988.048 1394.84 987.205C1394.84 986.372 1395.16 985.657 1395.8 985.06C1396.44 984.454 1397.21 984.151 1398.11 984.151C1399.01 984.151 1399.78 984.454 1400.41 985.06C1401.06 985.657 1401.38 986.372 1401.38 987.205C1401.38 988.048 1401.06 988.772 1400.41 989.378C1399.78 989.975 1399.01 990.273 1398.11 990.273ZM1415.91 1015.33C1413.67 1015.33 1411.74 1014.88 1410.12 1013.97C1408.51 1013.05 1407.27 1011.75 1406.4 1010.07C1405.52 1008.39 1405.09 1006.4 1405.09 1004.09C1405.09 1001.85 1405.52 999.88 1406.4 998.185C1407.27 996.49 1408.49 995.169 1410.07 994.222C1411.67 993.275 1413.53 992.802 1415.67 992.802C1417.11 992.802 1418.45 993.034 1419.69 993.498C1420.94 993.952 1422.03 994.639 1422.96 995.557C1423.9 996.476 1424.62 997.631 1425.15 999.023C1425.67 1000.41 1425.93 1002.03 1425.93 1003.88V1005.54H1407.5V1001.79H1420.23C1420.23 1000.92 1420.04 1000.15 1419.66 999.478C1419.28 998.805 1418.76 998.28 1418.09 997.901C1417.42 997.513 1416.65 997.319 1415.77 997.319C1414.85 997.319 1414.04 997.532 1413.33 997.958C1412.63 998.374 1412.08 998.938 1411.68 999.648C1411.28 1000.35 1411.08 1001.13 1411.07 1001.99V1005.56C1411.07 1006.64 1411.27 1007.57 1411.67 1008.36C1412.07 1009.14 1412.65 1009.75 1413.38 1010.17C1414.12 1010.6 1415 1010.81 1416.01 1010.81C1416.68 1010.81 1417.3 1010.72 1417.86 1010.53C1418.42 1010.34 1418.9 1010.06 1419.29 1009.68C1419.69 1009.3 1419.99 1008.83 1420.2 1008.28L1425.8 1008.65C1425.51 1010 1424.93 1011.17 1424.05 1012.18C1423.18 1013.17 1422.05 1013.95 1420.67 1014.51C1419.3 1015.06 1417.71 1015.33 1415.91 1015.33ZM1437.92 1015.26C1436.26 1015.26 1434.76 1014.83 1433.41 1013.98C1432.08 1013.12 1431.02 1011.85 1430.23 1010.19C1429.45 1008.51 1429.07 1006.46 1429.07 1004.02C1429.07 1001.52 1429.47 999.445 1430.27 997.787C1431.08 996.121 1432.15 994.875 1433.48 994.052C1434.83 993.218 1436.3 992.802 1437.9 992.802C1439.12 992.802 1440.14 993.01 1440.96 993.427C1441.78 993.834 1442.44 994.345 1442.94 994.961C1443.46 995.567 1443.84 996.163 1444.11 996.75H1444.29V985.813H1450.33V1014.9H1444.36V1011.41H1444.11C1443.82 1012.02 1443.42 1012.62 1442.9 1013.21C1442.39 1013.8 1441.72 1014.29 1440.9 1014.68C1440.08 1015.06 1439.09 1015.26 1437.92 1015.26ZM1439.83 1010.44C1440.81 1010.44 1441.63 1010.18 1442.3 1009.65C1442.99 1009.11 1443.51 1008.36 1443.87 1007.39C1444.24 1006.42 1444.42 1005.29 1444.42 1003.99C1444.42 1002.7 1444.24 1001.57 1443.88 1000.61C1443.52 999.658 1443 998.919 1442.32 998.398C1441.64 997.877 1440.81 997.617 1439.83 997.617C1438.84 997.617 1438 997.887 1437.32 998.427C1436.64 998.966 1436.12 999.714 1435.77 1000.67C1435.42 1001.63 1435.25 1002.74 1435.25 1003.99C1435.25 1005.26 1435.42 1006.39 1435.77 1007.36C1436.13 1008.33 1436.65 1009.08 1437.32 1009.63C1438 1010.17 1438.84 1010.44 1439.83 1010.44Z" fill="#105004"/>
<path d="M825.732 76.5503C832.714 76.5518 839.408 79.3263 844.344 84.2635L911.999 151.919C917.61 157.53 920.761 165.14 920.761 173.075C920.761 181.01 917.61 188.62 911.999 194.232L862.93 243.302C857.318 248.912 849.708 252.064 841.773 252.064C833.838 252.064 826.228 248.912 820.617 243.302L752.961 175.646C748.024 170.711 745.25 164.016 745.248 157.035V111.65C745.248 102.341 748.946 93.4134 755.529 86.8308C762.111 80.2483 771.039 76.5503 780.348 76.5503H825.732ZM793.511 107.263C789.083 107.261 784.818 108.934 781.572 111.944C778.325 114.955 776.336 119.081 776.004 123.497L775.961 124.813C775.961 128.284 776.99 131.677 778.918 134.563C780.847 137.449 783.588 139.699 786.794 141.027C790.001 142.355 793.53 142.703 796.934 142.026C800.339 141.348 803.466 139.677 805.92 137.223C808.375 134.768 810.046 131.641 810.723 128.237C811.401 124.832 811.053 121.304 809.725 118.097C808.396 114.89 806.147 112.149 803.261 110.221C800.375 108.292 796.982 107.263 793.511 107.263Z" fill="#105004"/>
<rect x="556" y="274.6" width="554" height="68" rx="34" fill="#105004" fill-opacity="0.1"/>
<path d="M614.196 304.694H607.974C607.861 303.889 607.629 303.174 607.278 302.549C606.928 301.914 606.478 301.375 605.929 300.93C605.38 300.485 604.745 300.144 604.026 299.907C603.315 299.67 602.544 299.552 601.71 299.552C600.205 299.552 598.893 299.926 597.776 300.674C596.658 301.413 595.792 302.492 595.176 303.913C594.561 305.324 594.253 307.038 594.253 309.055C594.253 311.129 594.561 312.871 595.176 314.282C595.801 315.693 596.672 316.758 597.79 317.478C598.907 318.198 600.2 318.557 601.668 318.557C602.491 318.557 603.254 318.449 603.955 318.231C604.665 318.013 605.295 317.696 605.844 317.279C606.393 316.853 606.848 316.337 607.207 315.731C607.577 315.125 607.832 314.433 607.974 313.657L614.196 313.685C614.035 315.021 613.633 316.308 612.989 317.549C612.354 318.78 611.497 319.883 610.418 320.859C609.348 321.825 608.069 322.592 606.582 323.16C605.105 323.718 603.434 323.998 601.568 323.998C598.973 323.998 596.653 323.411 594.608 322.236C592.572 321.062 590.962 319.362 589.778 317.137C588.604 314.912 588.017 312.218 588.017 309.055C588.017 305.882 588.614 303.183 589.807 300.958C591 298.733 592.619 297.038 594.665 295.873C596.71 294.699 599.011 294.111 601.568 294.111C603.254 294.111 604.816 294.348 606.256 294.822C607.705 295.295 608.988 295.986 610.105 296.896C611.223 297.795 612.132 298.898 612.832 300.205C613.543 301.512 613.997 303.008 614.196 304.694ZM645.339 309.055C645.339 312.227 644.738 314.926 643.536 317.151C642.342 319.377 640.714 321.076 638.649 322.251C636.594 323.415 634.284 323.998 631.717 323.998C629.132 323.998 626.812 323.411 624.757 322.236C622.702 321.062 621.078 319.362 619.885 317.137C618.692 314.912 618.095 312.218 618.095 309.055C618.095 305.882 618.692 303.183 619.885 300.958C621.078 298.733 622.702 297.038 624.757 295.873C626.812 294.699 629.132 294.111 631.717 294.111C634.284 294.111 636.594 294.699 638.649 295.873C640.714 297.038 642.342 298.733 643.536 300.958C644.738 303.183 645.339 305.882 645.339 309.055ZM639.104 309.055C639.104 307 638.796 305.267 638.18 303.856C637.574 302.445 636.717 301.375 635.609 300.646C634.501 299.916 633.204 299.552 631.717 299.552C630.231 299.552 628.933 299.916 627.825 300.646C626.717 301.375 625.856 302.445 625.24 303.856C624.634 305.267 624.331 307 624.331 309.055C624.331 311.11 624.634 312.843 625.24 314.254C625.856 315.664 626.717 316.735 627.825 317.464C628.933 318.193 630.231 318.557 631.717 318.557C633.204 318.557 634.501 318.193 635.609 317.464C636.717 316.735 637.574 315.664 638.18 314.254C638.796 312.843 639.104 311.11 639.104 309.055ZM660.208 323.6H649.896V294.509H660.293C663.219 294.509 665.738 295.092 667.85 296.256C669.962 297.412 671.586 299.074 672.722 301.242C673.868 303.411 674.441 306.005 674.441 309.026C674.441 312.057 673.868 314.661 672.722 316.839C671.586 319.017 669.952 320.688 667.822 321.853C665.701 323.018 663.163 323.6 660.208 323.6ZM656.046 318.33H659.952C661.771 318.33 663.3 318.008 664.54 317.364C665.79 316.711 666.728 315.702 667.353 314.339C667.987 312.966 668.305 311.195 668.305 309.026C668.305 306.877 667.987 305.12 667.353 303.756C666.728 302.393 665.795 301.389 664.555 300.745C663.314 300.101 661.785 299.779 659.967 299.779H656.046V318.33ZM694.192 310.986V323.6H688.141V301.782H693.908V305.631H694.164C694.647 304.362 695.457 303.359 696.593 302.62C697.729 301.872 699.107 301.498 700.727 301.498C702.242 301.498 703.563 301.829 704.69 302.492C705.817 303.155 706.692 304.102 707.317 305.333C707.942 306.555 708.255 308.013 708.255 309.708V323.6H702.204V310.788C702.213 309.452 701.872 308.411 701.181 307.663C700.49 306.905 699.538 306.526 698.326 306.526C697.512 306.526 696.792 306.701 696.167 307.052C695.551 307.402 695.068 307.914 694.718 308.586C694.377 309.249 694.202 310.049 694.192 310.986ZM722.882 324.026C720.676 324.026 718.768 323.557 717.158 322.62C715.557 321.673 714.321 320.357 713.45 318.671C712.579 316.976 712.143 315.011 712.143 312.776C712.143 310.522 712.579 308.553 713.45 306.867C714.321 305.172 715.557 303.856 717.158 302.918C718.768 301.971 720.676 301.498 722.882 301.498C725.089 301.498 726.992 301.971 728.592 302.918C730.202 303.856 731.443 305.172 732.314 306.867C733.185 308.553 733.621 310.522 733.621 312.776C733.621 315.011 733.185 316.976 732.314 318.671C731.443 320.357 730.202 321.673 728.592 322.62C726.992 323.557 725.089 324.026 722.882 324.026ZM722.911 319.339C723.914 319.339 724.752 319.055 725.425 318.486C726.097 317.909 726.604 317.123 726.945 316.129C727.295 315.134 727.47 314.003 727.47 312.734C727.47 311.465 727.295 310.333 726.945 309.339C726.604 308.344 726.097 307.558 725.425 306.981C724.752 306.403 723.914 306.114 722.911 306.114C721.897 306.114 721.045 306.403 720.354 306.981C719.672 307.558 719.156 308.344 718.805 309.339C718.464 310.333 718.294 311.465 718.294 312.734C718.294 314.003 718.464 315.134 718.805 316.129C719.156 317.123 719.672 317.909 720.354 318.486C721.045 319.055 721.897 319.339 722.911 319.339ZM749.161 301.782V306.327H736.021V301.782H749.161ZM739.004 296.555H745.055V316.896C745.055 317.454 745.141 317.89 745.311 318.202C745.482 318.505 745.718 318.718 746.021 318.842C746.334 318.965 746.694 319.026 747.101 319.026C747.385 319.026 747.669 319.003 747.953 318.955C748.237 318.898 748.455 318.856 748.607 318.827L749.558 323.33C749.255 323.425 748.829 323.534 748.28 323.657C747.731 323.789 747.063 323.87 746.277 323.898C744.819 323.955 743.54 323.761 742.442 323.316C741.353 322.871 740.505 322.18 739.899 321.242C739.293 320.305 738.995 319.121 739.004 317.691V296.555ZM768.582 324.012C767.19 324.012 765.949 323.771 764.86 323.288C763.771 322.795 762.909 322.071 762.275 321.114C761.65 320.148 761.337 318.946 761.337 317.506C761.337 316.294 761.56 315.276 762.005 314.452C762.45 313.629 763.056 312.966 763.823 312.464C764.59 311.962 765.461 311.583 766.437 311.327C767.422 311.072 768.454 310.892 769.533 310.788C770.802 310.655 771.825 310.532 772.602 310.418C773.378 310.295 773.942 310.115 774.292 309.879C774.642 309.642 774.817 309.291 774.817 308.827V308.742C774.817 307.843 774.533 307.146 773.965 306.654C773.406 306.162 772.611 305.915 771.579 305.915C770.49 305.915 769.623 306.157 768.979 306.64C768.335 307.113 767.909 307.71 767.701 308.43L762.104 307.975C762.388 306.649 762.947 305.504 763.781 304.538C764.614 303.562 765.689 302.814 767.005 302.293C768.331 301.763 769.865 301.498 771.607 301.498C772.819 301.498 773.979 301.64 775.087 301.924C776.205 302.208 777.194 302.648 778.056 303.245C778.927 303.842 779.614 304.609 780.116 305.546C780.618 306.474 780.869 307.587 780.869 308.884V323.6H775.13V320.575H774.96C774.609 321.256 774.14 321.858 773.553 322.379C772.966 322.89 772.261 323.292 771.437 323.586C770.613 323.87 769.661 324.012 768.582 324.012ZM770.315 319.836C771.205 319.836 771.991 319.661 772.673 319.31C773.354 318.95 773.889 318.468 774.278 317.861C774.666 317.255 774.86 316.569 774.86 315.802V313.486C774.671 313.61 774.41 313.723 774.079 313.827C773.757 313.922 773.392 314.012 772.985 314.097C772.578 314.173 772.171 314.244 771.763 314.31C771.356 314.367 770.987 314.419 770.656 314.467C769.945 314.571 769.325 314.736 768.795 314.964C768.264 315.191 767.853 315.499 767.559 315.887C767.265 316.266 767.119 316.739 767.119 317.307C767.119 318.131 767.417 318.761 768.013 319.197C768.62 319.623 769.387 319.836 770.315 319.836ZM805.123 301.782L797.495 323.6H790.677L783.049 301.782H789.441L793.972 317.393H794.2L798.717 301.782H805.123ZM813.855 324.012C812.463 324.012 811.223 323.771 810.134 323.288C809.045 322.795 808.183 322.071 807.548 321.114C806.923 320.148 806.611 318.946 806.611 317.506C806.611 316.294 806.833 315.276 807.278 314.452C807.723 313.629 808.33 312.966 809.097 312.464C809.864 311.962 810.735 311.583 811.71 311.327C812.695 311.072 813.727 310.892 814.807 310.788C816.076 310.655 817.098 310.532 817.875 310.418C818.652 310.295 819.215 310.115 819.565 309.879C819.916 309.642 820.091 309.291 820.091 308.827V308.742C820.091 307.843 819.807 307.146 819.239 306.654C818.68 306.162 817.884 305.915 816.852 305.915C815.763 305.915 814.897 306.157 814.253 306.64C813.609 307.113 813.183 307.71 812.974 308.43L807.378 307.975C807.662 306.649 808.221 305.504 809.054 304.538C809.887 303.562 810.962 302.814 812.278 302.293C813.604 301.763 815.138 301.498 816.881 301.498C818.093 301.498 819.253 301.64 820.361 301.924C821.478 302.208 822.468 302.648 823.33 303.245C824.201 303.842 824.887 304.609 825.389 305.546C825.891 306.474 826.142 307.587 826.142 308.884V323.6H820.403V320.575H820.233C819.883 321.256 819.414 321.858 818.827 322.379C818.24 322.89 817.534 323.292 816.71 323.586C815.886 323.87 814.935 324.012 813.855 324.012ZM815.588 319.836C816.478 319.836 817.264 319.661 817.946 319.31C818.628 318.95 819.163 318.468 819.551 317.861C819.939 317.255 820.134 316.569 820.134 315.802V313.486C819.944 313.61 819.684 313.723 819.352 313.827C819.03 313.922 818.666 314.012 818.259 314.097C817.851 314.173 817.444 314.244 817.037 314.31C816.63 314.367 816.26 314.419 815.929 314.467C815.219 314.571 814.598 314.736 814.068 314.964C813.538 315.191 813.126 315.499 812.832 315.887C812.539 316.266 812.392 316.739 812.392 317.307C812.392 318.131 812.69 318.761 813.287 319.197C813.893 319.623 814.66 319.836 815.588 319.836ZM830.837 323.6V301.782H836.888V323.6H830.837ZM833.876 298.969C832.977 298.969 832.205 298.671 831.561 298.075C830.927 297.468 830.609 296.744 830.609 295.901C830.609 295.068 830.927 294.353 831.561 293.756C832.205 293.15 832.977 292.847 833.876 292.847C834.776 292.847 835.543 293.15 836.178 293.756C836.821 294.353 837.143 295.068 837.143 295.901C837.143 296.744 836.821 297.468 836.178 298.075C835.543 298.671 834.776 298.969 833.876 298.969ZM847.786 294.509V323.6H841.735V294.509H847.786ZM858.855 324.012C857.463 324.012 856.223 323.771 855.134 323.288C854.045 322.795 853.183 322.071 852.548 321.114C851.923 320.148 851.611 318.946 851.611 317.506C851.611 316.294 851.833 315.276 852.278 314.452C852.723 313.629 853.33 312.966 854.097 312.464C854.864 311.962 855.735 311.583 856.71 311.327C857.695 311.072 858.727 310.892 859.807 310.788C861.076 310.655 862.098 310.532 862.875 310.418C863.652 310.295 864.215 310.115 864.565 309.879C864.916 309.642 865.091 309.291 865.091 308.827V308.742C865.091 307.843 864.807 307.146 864.239 306.654C863.68 306.162 862.884 305.915 861.852 305.915C860.763 305.915 859.897 306.157 859.253 306.64C858.609 307.113 858.183 307.71 857.974 308.43L852.378 307.975C852.662 306.649 853.221 305.504 854.054 304.538C854.887 303.562 855.962 302.814 857.278 302.293C858.604 301.763 860.138 301.498 861.881 301.498C863.093 301.498 864.253 301.64 865.361 301.924C866.478 302.208 867.468 302.648 868.33 303.245C869.201 303.842 869.887 304.609 870.389 305.546C870.891 306.474 871.142 307.587 871.142 308.884V323.6H865.403V320.575H865.233C864.883 321.256 864.414 321.858 863.827 322.379C863.24 322.89 862.534 323.292 861.71 323.586C860.886 323.87 859.935 324.012 858.855 324.012ZM860.588 319.836C861.478 319.836 862.264 319.661 862.946 319.31C863.628 318.95 864.163 318.468 864.551 317.861C864.939 317.255 865.134 316.569 865.134 315.802V313.486C864.944 313.61 864.684 313.723 864.352 313.827C864.03 313.922 863.666 314.012 863.259 314.097C862.851 314.173 862.444 314.244 862.037 314.31C861.63 314.367 861.26 314.419 860.929 314.467C860.219 314.571 859.598 314.736 859.068 314.964C858.538 315.191 858.126 315.499 857.832 315.887C857.539 316.266 857.392 316.739 857.392 317.307C857.392 318.131 857.69 318.761 858.287 319.197C858.893 319.623 859.66 319.836 860.588 319.836ZM875.95 323.6V294.509H882.001V305.447H882.186C882.451 304.86 882.835 304.263 883.337 303.657C883.848 303.041 884.511 302.53 885.325 302.123C886.149 301.706 887.172 301.498 888.393 301.498C889.984 301.498 891.452 301.914 892.797 302.748C894.142 303.572 895.216 304.817 896.021 306.484C896.826 308.141 897.229 310.219 897.229 312.719C897.229 315.153 896.836 317.208 896.05 318.884C895.273 320.551 894.213 321.815 892.868 322.677C891.533 323.529 890.036 323.955 888.379 323.955C887.205 323.955 886.206 323.761 885.382 323.373C884.568 322.985 883.9 322.497 883.379 321.91C882.858 321.313 882.461 320.712 882.186 320.106H881.916V323.6H875.95ZM881.874 312.691C881.874 313.988 882.054 315.12 882.413 316.086C882.773 317.052 883.294 317.805 883.976 318.344C884.658 318.875 885.486 319.14 886.462 319.14C887.446 319.14 888.28 318.87 888.962 318.33C889.643 317.781 890.16 317.023 890.51 316.057C890.87 315.082 891.05 313.96 891.05 312.691C891.05 311.432 890.875 310.324 890.524 309.367C890.174 308.411 889.658 307.663 888.976 307.123C888.294 306.583 887.456 306.313 886.462 306.313C885.477 306.313 884.643 306.574 883.962 307.094C883.289 307.615 882.773 308.354 882.413 309.31C882.054 310.267 881.874 311.394 881.874 312.691ZM907.317 294.509V323.6H901.266V294.509H907.317ZM922.108 324.026C919.864 324.026 917.932 323.572 916.312 322.663C914.703 321.744 913.462 320.447 912.591 318.771C911.72 317.085 911.284 315.092 911.284 312.79C911.284 310.546 911.72 308.576 912.591 306.881C913.462 305.186 914.688 303.865 916.27 302.918C917.861 301.971 919.726 301.498 921.866 301.498C923.306 301.498 924.646 301.73 925.886 302.194C927.136 302.648 928.225 303.335 929.153 304.254C930.091 305.172 930.82 306.327 931.341 307.719C931.862 309.102 932.122 310.721 932.122 312.577V314.239H913.699V310.489H926.426C926.426 309.618 926.237 308.846 925.858 308.174C925.479 307.502 924.954 306.976 924.281 306.597C923.618 306.209 922.847 306.015 921.966 306.015C921.047 306.015 920.233 306.228 919.523 306.654C918.822 307.071 918.273 307.634 917.875 308.344C917.477 309.045 917.274 309.826 917.264 310.688V314.254C917.264 315.333 917.463 316.266 917.861 317.052C918.268 317.838 918.841 318.444 919.58 318.87C920.318 319.296 921.194 319.509 922.207 319.509C922.88 319.509 923.495 319.414 924.054 319.225C924.613 319.036 925.091 318.752 925.489 318.373C925.886 317.994 926.189 317.53 926.398 316.981L931.994 317.35C931.71 318.695 931.128 319.869 930.247 320.873C929.376 321.867 928.249 322.644 926.866 323.202C925.493 323.752 923.907 324.026 922.108 324.026ZM957.062 301.782V306.327H943.596V301.782H957.062ZM946.678 323.6V300.205C946.678 298.624 946.986 297.312 947.602 296.271C948.227 295.229 949.079 294.448 950.158 293.927C951.238 293.406 952.464 293.146 953.837 293.146C954.765 293.146 955.613 293.217 956.38 293.359C957.156 293.501 957.734 293.629 958.113 293.742L957.033 298.288C956.797 298.212 956.503 298.141 956.153 298.075C955.812 298.008 955.461 297.975 955.102 297.975C954.211 297.975 953.591 298.183 953.241 298.6C952.89 299.007 952.715 299.58 952.715 300.319V323.6H946.678ZM969.835 324.026C967.629 324.026 965.721 323.557 964.111 322.62C962.51 321.673 961.275 320.357 960.403 318.671C959.532 316.976 959.097 315.011 959.097 312.776C959.097 310.522 959.532 308.553 960.403 306.867C961.275 305.172 962.51 303.856 964.111 302.918C965.721 301.971 967.629 301.498 969.835 301.498C972.042 301.498 973.945 301.971 975.545 302.918C977.155 303.856 978.396 305.172 979.267 306.867C980.138 308.553 980.574 310.522 980.574 312.776C980.574 315.011 980.138 316.976 979.267 318.671C978.396 320.357 977.155 321.673 975.545 322.62C973.945 323.557 972.042 324.026 969.835 324.026ZM969.864 319.339C970.867 319.339 971.705 319.055 972.378 318.486C973.05 317.909 973.557 317.123 973.898 316.129C974.248 315.134 974.423 314.003 974.423 312.734C974.423 311.465 974.248 310.333 973.898 309.339C973.557 308.344 973.05 307.558 972.378 306.981C971.705 306.403 970.867 306.114 969.864 306.114C968.85 306.114 967.998 306.403 967.307 306.981C966.625 307.558 966.109 308.344 965.759 309.339C965.418 310.333 965.247 311.465 965.247 312.734C965.247 314.003 965.418 315.134 965.759 316.129C966.109 317.123 966.625 317.909 967.307 318.486C967.998 319.055 968.85 319.339 969.864 319.339ZM984.509 323.6V301.782H990.375V305.589H990.602C991 304.235 991.668 303.212 992.605 302.521C993.543 301.82 994.622 301.469 995.844 301.469C996.147 301.469 996.473 301.488 996.824 301.526C997.174 301.564 997.482 301.616 997.747 301.682V307.052C997.463 306.967 997.07 306.891 996.568 306.825C996.066 306.758 995.607 306.725 995.19 306.725C994.3 306.725 993.505 306.919 992.804 307.307C992.113 307.686 991.563 308.217 991.156 308.898C990.759 309.58 990.56 310.366 990.56 311.256V323.6H984.509ZM1013.87 331.782C1013.1 331.782 1012.38 331.72 1011.71 331.597C1011.05 331.484 1010.5 331.337 1010.06 331.157L1011.43 326.64C1012.14 326.858 1012.78 326.976 1013.34 326.995C1013.92 327.014 1014.42 326.881 1014.84 326.597C1015.26 326.313 1015.61 325.83 1015.87 325.148L1016.23 324.225L1008.4 301.782H1014.76L1019.28 317.805H1019.51L1024.07 301.782H1030.47L1021.99 325.958C1021.59 327.132 1021.03 328.155 1020.33 329.026C1019.64 329.907 1018.77 330.584 1017.7 331.057C1016.64 331.54 1015.37 331.782 1013.87 331.782ZM1042.73 324.026C1040.52 324.026 1038.61 323.557 1037 322.62C1035.4 321.673 1034.17 320.357 1033.29 318.671C1032.42 316.976 1031.99 315.011 1031.99 312.776C1031.99 310.522 1032.42 308.553 1033.29 306.867C1034.17 305.172 1035.4 303.856 1037 302.918C1038.61 301.971 1040.52 301.498 1042.73 301.498C1044.93 301.498 1046.84 301.971 1048.44 302.918C1050.05 303.856 1051.29 305.172 1052.16 306.867C1053.03 308.553 1053.46 310.522 1053.46 312.776C1053.46 315.011 1053.03 316.976 1052.16 318.671C1051.29 320.357 1050.05 321.673 1048.44 322.62C1046.84 323.557 1044.93 324.026 1042.73 324.026ZM1042.75 319.339C1043.76 319.339 1044.6 319.055 1045.27 318.486C1045.94 317.909 1046.45 317.123 1046.79 316.129C1047.14 315.134 1047.31 314.003 1047.31 312.734C1047.31 311.465 1047.14 310.333 1046.79 309.339C1046.45 308.344 1045.94 307.558 1045.27 306.981C1044.6 306.403 1043.76 306.114 1042.75 306.114C1041.74 306.114 1040.89 306.403 1040.2 306.981C1039.52 307.558 1039 308.344 1038.65 309.339C1038.31 310.333 1038.14 311.465 1038.14 312.734C1038.14 314.003 1038.31 315.134 1038.65 316.129C1039 317.123 1039.52 317.909 1040.2 318.486C1040.89 319.055 1041.74 319.339 1042.75 319.339ZM1071.39 314.31V301.782H1077.44V323.6H1071.63V319.637H1071.4C1070.91 320.915 1070.09 321.943 1068.95 322.719C1067.81 323.496 1066.42 323.884 1064.79 323.884C1063.33 323.884 1062.04 323.553 1060.94 322.89C1059.83 322.227 1058.96 321.285 1058.34 320.063C1057.72 318.842 1057.41 317.379 1057.4 315.674V301.782H1063.45V314.594C1063.46 315.882 1063.81 316.9 1064.49 317.648C1065.17 318.396 1066.08 318.771 1067.23 318.771C1067.96 318.771 1068.64 318.605 1069.27 318.273C1069.91 317.932 1070.42 317.431 1070.81 316.768C1071.21 316.105 1071.4 315.286 1071.39 314.31Z" fill="#105004"/>
<path d="M1457.13 347.268C1447 347.268 1438.88 355.391 1438.88 365.52C1438.88 370.361 1440.8 375.004 1444.23 378.427C1447.65 381.849 1452.29 383.772 1457.13 383.772C1461.97 383.772 1466.61 381.849 1470.04 378.427C1473.46 375.004 1475.38 370.361 1475.38 365.52C1475.38 360.68 1473.46 356.037 1470.04 352.614C1466.61 349.191 1461.97 347.268 1457.13 347.268ZM1311.12 201.252V219.504H1329.37L1362.22 288.771L1349.81 311.129C1348.44 313.685 1347.62 316.696 1347.62 319.89C1347.62 324.731 1349.54 329.374 1352.97 332.797C1356.39 336.219 1361.03 338.142 1365.87 338.142H1475.38V319.89H1369.7C1369.1 319.89 1368.52 319.65 1368.09 319.222C1367.66 318.794 1367.42 318.214 1367.42 317.609C1367.42 317.153 1367.51 316.788 1367.7 316.514L1375.91 301.638H1443.9C1450.74 301.638 1456.77 297.806 1459.87 292.239L1492.54 233.193C1493.18 231.733 1493.64 230.182 1493.64 228.63C1493.64 226.21 1492.67 223.889 1490.96 222.177C1489.25 220.466 1486.93 219.504 1484.51 219.504H1349.54L1340.96 201.252M1365.87 347.268C1355.74 347.268 1347.62 355.391 1347.62 365.52C1347.62 370.361 1349.54 375.004 1352.97 378.427C1356.39 381.849 1361.03 383.772 1365.87 383.772C1370.71 383.772 1375.35 381.849 1378.78 378.427C1382.2 375.004 1384.12 370.361 1384.12 365.52C1384.12 360.68 1382.2 356.037 1378.78 352.614C1375.35 349.191 1370.71 347.268 1365.87 347.268Z" fill="#105004"/>
<rect x="1195" y="415.024" width="433" height="68" rx="34" fill="#105004" fill-opacity="0.1"/>
<path d="M1253.2 445.118H1246.97C1246.86 444.313 1246.63 443.598 1246.28 442.973C1245.93 442.338 1245.48 441.799 1244.93 441.353C1244.38 440.908 1243.75 440.567 1243.03 440.331C1242.32 440.094 1241.54 439.976 1240.71 439.976C1239.2 439.976 1237.89 440.35 1236.78 441.098C1235.66 441.836 1234.79 442.916 1234.18 444.336C1233.56 445.747 1233.25 447.461 1233.25 449.478C1233.25 451.552 1233.56 453.295 1234.18 454.706C1234.8 456.117 1235.67 457.182 1236.79 457.902C1237.91 458.621 1239.2 458.981 1240.67 458.981C1241.49 458.981 1242.25 458.872 1242.95 458.655C1243.66 458.437 1244.29 458.12 1244.84 457.703C1245.39 457.277 1245.85 456.761 1246.21 456.155C1246.58 455.549 1246.83 454.857 1246.97 454.081L1253.2 454.109C1253.04 455.444 1252.63 456.732 1251.99 457.973C1251.35 459.204 1250.5 460.307 1249.42 461.282C1248.35 462.248 1247.07 463.015 1245.58 463.584C1244.11 464.142 1242.43 464.422 1240.57 464.422C1237.97 464.422 1235.65 463.835 1233.61 462.66C1231.57 461.486 1229.96 459.786 1228.78 457.561C1227.6 455.335 1227.02 452.641 1227.02 449.478C1227.02 446.306 1227.61 443.607 1228.81 441.382C1230 439.157 1231.62 437.461 1233.66 436.297C1235.71 435.122 1238.01 434.535 1240.57 434.535C1242.25 434.535 1243.82 434.772 1245.26 435.246C1246.7 435.719 1247.99 436.41 1249.11 437.319C1250.22 438.219 1251.13 439.322 1251.83 440.629C1252.54 441.936 1253 443.432 1253.2 445.118ZM1284.34 449.478C1284.34 452.651 1283.74 455.35 1282.54 457.575C1281.34 459.8 1279.71 461.5 1277.65 462.674C1275.59 463.839 1273.28 464.422 1270.72 464.422C1268.13 464.422 1265.81 463.835 1263.76 462.66C1261.7 461.486 1260.08 459.786 1258.88 457.561C1257.69 455.335 1257.1 452.641 1257.1 449.478C1257.1 446.306 1257.69 443.607 1258.88 441.382C1260.08 439.157 1261.7 437.461 1263.76 436.297C1265.81 435.122 1268.13 434.535 1270.72 434.535C1273.28 434.535 1275.59 435.122 1277.65 436.297C1279.71 437.461 1281.34 439.157 1282.54 441.382C1283.74 443.607 1284.34 446.306 1284.34 449.478ZM1278.1 449.478C1278.1 447.424 1277.8 445.691 1277.18 444.28C1276.57 442.869 1275.72 441.799 1274.61 441.069C1273.5 440.34 1272.2 439.976 1270.72 439.976C1269.23 439.976 1267.93 440.34 1266.83 441.069C1265.72 441.799 1264.86 442.869 1264.24 444.28C1263.63 445.691 1263.33 447.424 1263.33 449.478C1263.33 451.533 1263.63 453.266 1264.24 454.677C1264.86 456.088 1265.72 457.158 1266.83 457.888C1267.93 458.617 1269.23 458.981 1270.72 458.981C1272.2 458.981 1273.5 458.617 1274.61 457.888C1275.72 457.158 1276.57 456.088 1277.18 454.677C1277.8 453.266 1278.1 451.533 1278.1 449.478ZM1299.21 464.024H1288.9V434.933H1299.29C1302.22 434.933 1304.74 435.515 1306.85 436.68C1308.96 437.835 1310.59 439.497 1311.72 441.666C1312.87 443.835 1313.44 446.429 1313.44 449.45C1313.44 452.48 1312.87 455.085 1311.72 457.263C1310.59 459.441 1308.95 461.112 1306.82 462.277C1304.7 463.442 1302.16 464.024 1299.21 464.024ZM1295.05 458.754H1298.95C1300.77 458.754 1302.3 458.432 1303.54 457.788C1304.79 457.135 1305.73 456.126 1306.35 454.763C1306.99 453.389 1307.3 451.619 1307.3 449.45C1307.3 447.3 1306.99 445.544 1306.35 444.18C1305.73 442.817 1304.8 441.813 1303.55 441.169C1302.31 440.525 1300.78 440.203 1298.97 440.203H1295.05V458.754ZM1327.25 464.024V434.933H1346.52V440.004H1333.41V446.936H1345.24V452.007H1333.41V464.024H1327.25ZM1358.88 464.45C1356.64 464.45 1354.71 463.996 1353.09 463.086C1351.48 462.168 1350.24 460.871 1349.36 459.194C1348.49 457.509 1348.06 455.515 1348.06 453.214C1348.06 450.97 1348.49 449 1349.36 447.305C1350.24 445.61 1351.46 444.289 1353.04 443.342C1354.63 442.395 1356.5 441.922 1358.64 441.922C1360.08 441.922 1361.42 442.154 1362.66 442.618C1363.91 443.072 1365 443.759 1365.93 444.677C1366.86 445.596 1367.59 446.751 1368.11 448.143C1368.64 449.526 1368.9 451.145 1368.9 453.001V454.663H1350.47V450.913H1363.2C1363.2 450.042 1363.01 449.27 1362.63 448.598C1362.25 447.925 1361.73 447.4 1361.05 447.021C1360.39 446.633 1359.62 446.439 1358.74 446.439C1357.82 446.439 1357.01 446.652 1356.3 447.078C1355.6 447.495 1355.05 448.058 1354.65 448.768C1354.25 449.469 1354.05 450.25 1354.04 451.112V454.677C1354.04 455.757 1354.24 456.69 1354.63 457.476C1355.04 458.262 1355.61 458.868 1356.35 459.294C1357.09 459.72 1357.97 459.933 1358.98 459.933C1359.65 459.933 1360.27 459.838 1360.83 459.649C1361.39 459.46 1361.86 459.175 1362.26 458.797C1362.66 458.418 1362.96 457.954 1363.17 457.405L1368.77 457.774C1368.48 459.119 1367.9 460.293 1367.02 461.297C1366.15 462.291 1365.02 463.067 1363.64 463.626C1362.27 464.175 1360.68 464.45 1358.88 464.45ZM1382.79 464.45C1380.54 464.45 1378.61 463.996 1376.99 463.086C1375.38 462.168 1374.14 460.871 1373.27 459.194C1372.4 457.509 1371.96 455.515 1371.96 453.214C1371.96 450.97 1372.4 449 1373.27 447.305C1374.14 445.61 1375.37 444.289 1376.95 443.342C1378.54 442.395 1380.41 441.922 1382.55 441.922C1383.99 441.922 1385.33 442.154 1386.57 442.618C1387.82 443.072 1388.91 443.759 1389.83 444.677C1390.77 445.596 1391.5 446.751 1392.02 448.143C1392.54 449.526 1392.8 451.145 1392.8 453.001V454.663H1374.38V450.913H1387.11C1387.11 450.042 1386.92 449.27 1386.54 448.598C1386.16 447.925 1385.63 447.4 1384.96 447.021C1384.3 446.633 1383.53 446.439 1382.65 446.439C1381.73 446.439 1380.91 446.652 1380.2 447.078C1379.5 447.495 1378.95 448.058 1378.55 448.768C1378.16 449.469 1377.95 450.25 1377.94 451.112V454.677C1377.94 455.757 1378.14 456.69 1378.54 457.476C1378.95 458.262 1379.52 458.868 1380.26 459.294C1381 459.72 1381.87 459.933 1382.89 459.933C1383.56 459.933 1384.17 459.838 1384.73 459.649C1385.29 459.46 1385.77 459.175 1386.17 458.797C1386.57 458.418 1386.87 457.954 1387.08 457.405L1392.67 457.774C1392.39 459.119 1391.81 460.293 1390.93 461.297C1390.06 462.291 1388.93 463.067 1387.55 463.626C1386.17 464.175 1384.59 464.45 1382.79 464.45ZM1406.01 464.024V442.206H1412.06V464.024H1406.01ZM1409.05 439.393C1408.15 439.393 1407.38 439.095 1406.73 438.498C1406.1 437.892 1405.78 437.168 1405.78 436.325C1405.78 435.492 1406.1 434.777 1406.73 434.18C1407.38 433.574 1408.15 433.271 1409.05 433.271C1409.95 433.271 1410.71 433.574 1411.35 434.18C1411.99 434.777 1412.32 435.492 1412.32 436.325C1412.32 437.168 1411.99 437.892 1411.35 438.498C1410.71 439.095 1409.95 439.393 1409.05 439.393ZM1435.06 448.427L1429.52 448.768C1429.43 448.295 1429.22 447.869 1428.91 447.49C1428.6 447.102 1428.19 446.794 1427.67 446.567C1427.17 446.33 1426.57 446.211 1425.87 446.211C1424.93 446.211 1424.14 446.41 1423.5 446.808C1422.85 447.196 1422.53 447.717 1422.53 448.371C1422.53 448.891 1422.74 449.332 1423.16 449.692C1423.57 450.051 1424.29 450.34 1425.3 450.558L1429.25 451.353C1431.37 451.789 1432.95 452.49 1434 453.456C1435.04 454.422 1435.56 455.691 1435.56 457.263C1435.56 458.692 1435.14 459.947 1434.29 461.027C1433.46 462.106 1432.31 462.949 1430.86 463.555C1429.41 464.152 1427.74 464.45 1425.84 464.45C1422.95 464.45 1420.65 463.849 1418.94 462.646C1417.23 461.434 1416.23 459.786 1415.94 457.703L1421.89 457.39C1422.07 458.271 1422.51 458.943 1423.2 459.407C1423.89 459.862 1424.78 460.089 1425.86 460.089C1426.92 460.089 1427.77 459.886 1428.41 459.478C1429.07 459.062 1429.4 458.527 1429.41 457.873C1429.4 457.324 1429.17 456.874 1428.71 456.524C1428.26 456.164 1427.56 455.889 1426.61 455.7L1422.83 454.947C1420.7 454.521 1419.11 453.782 1418.07 452.731C1417.04 451.68 1416.52 450.34 1416.52 448.711C1416.52 447.31 1416.9 446.103 1417.66 445.089C1418.43 444.076 1419.5 443.295 1420.88 442.746C1422.28 442.196 1423.91 441.922 1425.77 441.922C1428.53 441.922 1430.69 442.504 1432.28 443.669C1433.87 444.834 1434.8 446.42 1435.06 448.427ZM1453.75 464.024H1447.16L1457.21 434.933H1465.13L1475.16 464.024H1468.57L1461.28 441.581H1461.05L1453.75 464.024ZM1453.34 452.589H1468.91V457.39H1453.34V452.589ZM1478.55 472.206V442.206H1484.51V445.871H1484.78C1485.05 445.283 1485.43 444.687 1485.93 444.081C1486.45 443.465 1487.11 442.954 1487.92 442.547C1488.75 442.13 1489.77 441.922 1490.99 441.922C1492.58 441.922 1494.05 442.338 1495.39 443.172C1496.74 443.996 1497.81 445.241 1498.62 446.907C1499.42 448.565 1499.83 450.643 1499.83 453.143C1499.83 455.577 1499.43 457.632 1498.65 459.308C1497.87 460.975 1496.81 462.239 1495.47 463.101C1494.13 463.953 1492.63 464.379 1490.98 464.379C1489.8 464.379 1488.8 464.185 1487.98 463.797C1487.17 463.408 1486.5 462.921 1485.98 462.334C1485.46 461.737 1485.06 461.136 1484.78 460.53H1484.6V472.206H1478.55ZM1484.47 453.115C1484.47 454.412 1484.65 455.544 1485.01 456.51C1485.37 457.476 1485.89 458.228 1486.57 458.768C1487.25 459.299 1488.08 459.564 1489.06 459.564C1490.04 459.564 1490.88 459.294 1491.56 458.754C1492.24 458.205 1492.76 457.447 1493.11 456.481C1493.47 455.506 1493.65 454.384 1493.65 453.115C1493.65 451.855 1493.47 450.747 1493.12 449.791C1492.77 448.835 1492.25 448.086 1491.57 447.547C1490.89 447.007 1490.05 446.737 1489.06 446.737C1488.07 446.737 1487.24 446.997 1486.56 447.518C1485.89 448.039 1485.37 448.778 1485.01 449.734C1484.65 450.691 1484.47 451.817 1484.47 453.115ZM1503.86 472.206V442.206H1509.83V445.871H1510.1C1510.36 445.283 1510.74 444.687 1511.25 444.081C1511.76 443.465 1512.42 442.954 1513.24 442.547C1514.06 442.13 1515.08 441.922 1516.3 441.922C1517.89 441.922 1519.36 442.338 1520.71 443.172C1522.05 443.996 1523.13 445.241 1523.93 446.907C1524.74 448.565 1525.14 450.643 1525.14 453.143C1525.14 455.577 1524.75 457.632 1523.96 459.308C1523.18 460.975 1522.12 462.239 1520.78 463.101C1519.44 463.953 1517.95 464.379 1516.29 464.379C1515.11 464.379 1514.12 464.185 1513.29 463.797C1512.48 463.408 1511.81 462.921 1511.29 462.334C1510.77 461.737 1510.37 461.136 1510.1 460.53H1509.91V472.206H1503.86ZM1509.78 453.115C1509.78 454.412 1509.96 455.544 1510.32 456.51C1510.68 457.476 1511.2 458.228 1511.89 458.768C1512.57 459.299 1513.4 459.564 1514.37 459.564C1515.36 459.564 1516.19 459.294 1516.87 458.754C1517.55 458.205 1518.07 457.447 1518.42 456.481C1518.78 455.506 1518.96 454.384 1518.96 453.115C1518.96 451.855 1518.78 450.747 1518.43 449.791C1518.08 448.835 1517.57 448.086 1516.89 447.547C1516.2 447.007 1515.37 446.737 1514.37 446.737C1513.39 446.737 1512.55 446.997 1511.87 447.518C1511.2 448.039 1510.68 448.778 1510.32 449.734C1509.96 450.691 1509.78 451.817 1509.78 453.115ZM1535.22 434.933V464.024H1529.17V434.933H1535.22ZM1540.07 464.024V442.206H1546.12V464.024H1540.07ZM1543.11 439.393C1542.21 439.393 1541.44 439.095 1540.8 438.498C1540.16 437.892 1539.84 437.168 1539.84 436.325C1539.84 435.492 1540.16 434.777 1540.8 434.18C1541.44 433.574 1542.21 433.271 1543.11 433.271C1544.01 433.271 1544.78 433.574 1545.41 434.18C1546.06 434.777 1546.38 435.492 1546.38 436.325C1546.38 437.168 1546.06 437.892 1545.41 438.498C1544.78 439.095 1544.01 439.393 1543.11 439.393ZM1560.91 464.45C1558.67 464.45 1556.74 463.996 1555.12 463.086C1553.51 462.168 1552.27 460.871 1551.4 459.194C1550.52 457.509 1550.09 455.515 1550.09 453.214C1550.09 450.97 1550.52 449 1551.4 447.305C1552.27 445.61 1553.49 444.289 1555.07 443.342C1556.67 442.395 1558.53 441.922 1560.67 441.922C1562.11 441.922 1563.45 442.154 1564.69 442.618C1565.94 443.072 1567.03 443.759 1567.96 444.677C1568.9 445.596 1569.62 446.751 1570.15 448.143C1570.67 449.526 1570.93 451.145 1570.93 453.001V454.663H1552.5V450.913H1565.23C1565.23 450.042 1565.04 449.27 1564.66 448.598C1564.28 447.925 1563.76 447.4 1563.09 447.021C1562.42 446.633 1561.65 446.439 1560.77 446.439C1559.85 446.439 1559.04 446.652 1558.33 447.078C1557.63 447.495 1557.08 448.058 1556.68 448.768C1556.28 449.469 1556.08 450.25 1556.07 451.112V454.677C1556.07 455.757 1556.27 456.69 1556.67 457.476C1557.07 458.262 1557.65 458.868 1558.38 459.294C1559.12 459.72 1560 459.933 1561.01 459.933C1561.68 459.933 1562.3 459.838 1562.86 459.649C1563.42 459.46 1563.9 459.175 1564.29 458.797C1564.69 458.418 1564.99 457.954 1565.2 457.405L1570.8 457.774C1570.51 459.119 1569.93 460.293 1569.05 461.297C1568.18 462.291 1567.05 463.067 1565.67 463.626C1564.3 464.175 1562.71 464.45 1560.91 464.45ZM1582.92 464.379C1581.26 464.379 1579.76 463.953 1578.41 463.101C1577.08 462.239 1576.02 460.975 1575.23 459.308C1574.45 457.632 1574.07 455.577 1574.07 453.143C1574.07 450.643 1574.47 448.565 1575.27 446.907C1576.08 445.241 1577.15 443.996 1578.48 443.172C1579.83 442.338 1581.3 441.922 1582.9 441.922C1584.12 441.922 1585.14 442.13 1585.96 442.547C1586.78 442.954 1587.44 443.465 1587.94 444.081C1588.46 444.687 1588.84 445.283 1589.11 445.871H1589.29V434.933H1595.33V464.024H1589.36V460.53H1589.11C1588.82 461.136 1588.42 461.737 1587.9 462.334C1587.39 462.921 1586.72 463.408 1585.9 463.797C1585.08 464.185 1584.09 464.379 1582.92 464.379ZM1584.83 459.564C1585.81 459.564 1586.63 459.299 1587.3 458.768C1587.99 458.228 1588.51 457.476 1588.87 456.51C1589.24 455.544 1589.42 454.412 1589.42 453.115C1589.42 451.817 1589.24 450.691 1588.88 449.734C1588.52 448.778 1588 448.039 1587.32 447.518C1586.64 446.997 1585.81 446.737 1584.83 446.737C1583.84 446.737 1583 447.007 1582.32 447.547C1581.64 448.086 1581.12 448.835 1580.77 449.791C1580.42 450.747 1580.25 451.855 1580.25 453.115C1580.25 454.384 1580.42 455.506 1580.77 456.481C1581.13 457.447 1581.65 458.205 1582.32 458.754C1583 459.294 1583.84 459.564 1584.83 459.564Z" fill="#105004"/>
</svg>
