<svg width="1547" height="1170" viewBox="0 0 1547 1170" fill="none" xmlns="http://www.w3.org/2000/svg">
<path d="M106.326 142.832H97.7148C97.5576 141.718 97.2364 140.728 96.7515 139.863C96.2665 138.985 95.6439 138.238 94.8837 137.622C94.1235 137.006 93.2453 136.534 92.2492 136.206C91.2661 135.878 90.1979 135.715 89.0445 135.715C86.9605 135.715 85.1451 136.232 83.5985 137.268C82.0518 138.29 80.8525 139.784 80.0006 141.75C79.1486 143.703 78.7226 146.076 78.7226 148.867C78.7226 151.738 79.1486 154.15 80.0006 156.103C80.8657 158.056 82.0715 159.53 83.6181 160.526C85.1648 161.522 86.9539 162.02 88.9855 162.02C90.1258 162.02 91.1809 161.87 92.1509 161.568C93.1339 161.267 94.0055 160.828 94.7657 160.251C95.526 159.661 96.1551 158.947 96.6532 158.108C97.1643 157.269 97.5182 156.312 97.7148 155.238L106.326 155.277C106.103 157.125 105.546 158.908 104.655 160.625C103.777 162.328 102.591 163.855 101.096 165.205C99.6154 166.542 97.8459 167.604 95.7881 168.391C93.7434 169.164 91.43 169.55 88.8479 169.55C85.2565 169.55 82.0453 168.738 79.2142 167.113C76.3961 165.487 74.1679 163.135 72.5295 160.054C70.9043 156.974 70.0916 153.245 70.0916 148.867C70.0916 144.477 70.9174 140.741 72.5689 137.661C74.2204 134.581 76.4617 132.235 79.2928 130.622C82.1239 128.997 85.309 128.184 88.8479 128.184C91.1809 128.184 93.3436 128.512 95.3359 129.168C97.3413 129.823 99.1173 130.78 100.664 132.038C102.211 133.283 103.469 134.81 104.439 136.619C105.422 138.428 106.051 140.499 106.326 142.832ZM149.432 148.867C149.432 153.258 148.6 156.994 146.935 160.074C145.284 163.154 143.029 165.507 140.172 167.132C137.328 168.744 134.13 169.55 130.578 169.55C126.999 169.55 123.788 168.738 120.944 167.113C118.1 165.487 115.852 163.135 114.2 160.054C112.549 156.974 111.723 153.245 111.723 148.867C111.723 144.477 112.549 140.741 114.2 137.661C115.852 134.581 118.1 132.235 120.944 130.622C123.788 128.997 126.999 128.184 130.578 128.184C134.13 128.184 137.328 128.997 140.172 130.622C143.029 132.235 145.284 134.581 146.935 137.661C148.6 140.741 149.432 144.477 149.432 148.867ZM140.801 148.867C140.801 146.023 140.375 143.625 139.523 141.672C138.684 139.719 137.498 138.238 135.965 137.228C134.431 136.219 132.635 135.715 130.578 135.715C128.52 135.715 126.724 136.219 125.191 137.228C123.657 138.238 122.464 139.719 121.612 141.672C120.774 143.625 120.354 146.023 120.354 148.867C120.354 151.712 120.774 154.11 121.612 156.063C122.464 158.016 123.657 159.497 125.191 160.507C126.724 161.516 128.52 162.02 130.578 162.02C132.635 162.02 134.431 161.516 135.965 160.507C137.498 159.497 138.684 158.016 139.523 156.063C140.375 154.11 140.801 151.712 140.801 148.867ZM170.012 169H155.738V128.735H170.13C174.18 128.735 177.667 129.541 180.589 131.153C183.512 132.752 185.76 135.053 187.333 138.054C188.919 141.056 189.712 144.647 189.712 148.828C189.712 153.022 188.919 156.627 187.333 159.642C185.76 162.656 183.499 164.97 180.55 166.582C177.614 168.194 174.101 169 170.012 169ZM164.251 161.706H169.658C172.175 161.706 174.291 161.26 176.008 160.369C177.739 159.465 179.036 158.069 179.901 156.181C180.779 154.281 181.219 151.83 181.219 148.828C181.219 145.853 180.779 143.421 179.901 141.534C179.036 139.647 177.745 138.257 176.028 137.366C174.311 136.475 172.194 136.029 169.678 136.029H164.251V161.706ZM208.832 169V128.735H224.718C227.759 128.735 230.354 129.279 232.503 130.367C234.666 131.442 236.311 132.969 237.438 134.948C238.579 136.914 239.149 139.227 239.149 141.888C239.149 144.562 238.572 146.862 237.419 148.789C236.265 150.702 234.594 152.17 232.405 153.193C230.229 154.215 227.595 154.726 224.501 154.726H213.865V147.884H223.125C224.751 147.884 226.101 147.662 227.175 147.216C228.25 146.77 229.05 146.102 229.574 145.211C230.111 144.319 230.38 143.212 230.38 141.888C230.38 140.551 230.111 139.424 229.574 138.506C229.05 137.589 228.244 136.894 227.156 136.422C226.081 135.937 224.724 135.695 223.086 135.695H217.345V169H208.832ZM230.577 150.676L240.584 169H231.186L221.395 150.676H230.577ZM264.373 156.142V138.801H272.749V169H264.708V163.515H264.393C263.711 165.284 262.578 166.706 260.992 167.781C259.419 168.856 257.499 169.393 255.231 169.393C253.213 169.393 251.437 168.934 249.903 168.017C248.37 167.099 247.17 165.795 246.305 164.104C245.453 162.414 245.021 160.389 245.008 158.029V138.801H253.383V156.535C253.396 158.318 253.875 159.727 254.818 160.762C255.762 161.798 257.027 162.315 258.613 162.315C259.622 162.315 260.566 162.086 261.444 161.627C262.322 161.155 263.03 160.461 263.567 159.543C264.118 158.626 264.386 157.492 264.373 156.142ZM287.824 128.735V169H279.448V128.735H287.824ZM308.295 169.59C305.189 169.59 302.515 168.961 300.274 167.702C298.045 166.431 296.328 164.635 295.123 162.315C293.917 159.982 293.314 157.223 293.314 154.038C293.314 150.932 293.917 148.206 295.123 145.859C296.328 143.513 298.026 141.685 300.215 140.374C302.417 139.063 304.999 138.408 307.961 138.408C309.953 138.408 311.808 138.729 313.525 139.371C315.255 140.001 316.762 140.951 318.047 142.222C319.344 143.494 320.354 145.093 321.075 147.019C321.796 148.933 322.156 151.174 322.156 153.743V156.044H296.656V150.853H314.272C314.272 149.647 314.01 148.579 313.486 147.649C312.961 146.718 312.234 145.99 311.303 145.466C310.386 144.929 309.318 144.66 308.099 144.66C306.827 144.66 305.7 144.955 304.717 145.545C303.747 146.122 302.987 146.901 302.436 147.884C301.886 148.854 301.604 149.936 301.591 151.128V156.063C301.591 157.557 301.866 158.849 302.417 159.936C302.98 161.024 303.773 161.863 304.796 162.453C305.818 163.043 307.03 163.338 308.433 163.338C309.363 163.338 310.215 163.207 310.989 162.945C311.762 162.682 312.424 162.289 312.974 161.765C313.525 161.241 313.944 160.598 314.233 159.838L321.979 160.349C321.586 162.211 320.78 163.836 319.561 165.225C318.355 166.601 316.795 167.676 314.882 168.45C312.981 169.21 310.786 169.59 308.295 169.59ZM374.271 128.735V169H366.918L349.401 143.657H349.106V169H340.593V128.735H348.064L365.444 154.058H365.798V128.735H374.271ZM389.759 169.57C387.832 169.57 386.115 169.236 384.608 168.567C383.101 167.886 381.908 166.883 381.03 165.559C380.165 164.222 379.732 162.558 379.732 160.566C379.732 158.888 380.04 157.479 380.656 156.339C381.272 155.198 382.111 154.281 383.173 153.586C384.234 152.891 385.44 152.367 386.79 152.013C388.153 151.659 389.582 151.41 391.076 151.266C392.833 151.083 394.248 150.912 395.323 150.755C396.398 150.585 397.178 150.335 397.663 150.008C398.148 149.68 398.39 149.195 398.39 148.553V148.435C398.39 147.19 397.997 146.226 397.21 145.545C396.437 144.863 395.336 144.522 393.907 144.522C392.4 144.522 391.201 144.857 390.31 145.525C389.418 146.181 388.828 147.006 388.54 148.002L380.794 147.373C381.187 145.538 381.96 143.952 383.114 142.615C384.267 141.265 385.755 140.23 387.577 139.509C389.412 138.775 391.535 138.408 393.947 138.408C395.625 138.408 397.23 138.605 398.764 138.998C400.31 139.391 401.68 140.001 402.873 140.826C404.079 141.652 405.029 142.714 405.724 144.011C406.418 145.296 406.766 146.836 406.766 148.632V169H398.823V164.812H398.587C398.102 165.756 397.453 166.588 396.64 167.309C395.828 168.017 394.851 168.574 393.711 168.98C392.571 169.374 391.253 169.57 389.759 169.57ZM392.158 163.79C393.39 163.79 394.478 163.547 395.421 163.062C396.365 162.564 397.106 161.896 397.643 161.057C398.18 160.218 398.449 159.268 398.449 158.206V155.002C398.187 155.172 397.827 155.329 397.368 155.473C396.922 155.605 396.418 155.729 395.854 155.847C395.29 155.952 394.727 156.05 394.163 156.142C393.599 156.221 393.088 156.293 392.63 156.358C391.647 156.502 390.788 156.732 390.054 157.046C389.32 157.361 388.75 157.787 388.344 158.324C387.937 158.849 387.734 159.504 387.734 160.29C387.734 161.431 388.147 162.302 388.973 162.905C389.812 163.495 390.873 163.79 392.158 163.79ZM413.263 169V138.801H421.246V144.129H421.6C422.229 142.36 423.277 140.964 424.745 139.942C426.213 138.919 427.97 138.408 430.014 138.408C432.085 138.408 433.848 138.926 435.303 139.961C436.758 140.984 437.728 142.373 438.213 144.129H438.527C439.143 142.399 440.258 141.016 441.87 139.981C443.495 138.932 445.415 138.408 447.63 138.408C450.448 138.408 452.735 139.306 454.492 141.102C456.261 142.884 457.146 145.414 457.146 148.691V169H448.79V150.342C448.79 148.664 448.345 147.406 447.453 146.567C446.562 145.728 445.448 145.309 444.111 145.309C442.591 145.309 441.404 145.794 440.552 146.764C439.7 147.721 439.274 148.985 439.274 150.558V169H431.155V150.165C431.155 148.684 430.729 147.504 429.877 146.626C429.038 145.748 427.93 145.309 426.554 145.309C425.623 145.309 424.785 145.545 424.037 146.017C423.303 146.475 422.72 147.124 422.288 147.963C421.855 148.789 421.639 149.759 421.639 150.873V169H413.263ZM477.524 169.59C474.418 169.59 471.744 168.961 469.503 167.702C467.275 166.431 465.557 164.635 464.352 162.315C463.146 159.982 462.543 157.223 462.543 154.038C462.543 150.932 463.146 148.206 464.352 145.859C465.557 143.513 467.255 141.685 469.444 140.374C471.646 139.063 474.228 138.408 477.19 138.408C479.182 138.408 481.037 138.729 482.754 139.371C484.484 140.001 485.991 140.951 487.276 142.222C488.574 143.494 489.583 145.093 490.304 147.019C491.025 148.933 491.385 151.174 491.385 153.743V156.044H465.885V150.853H483.501C483.501 149.647 483.239 148.579 482.715 147.649C482.19 146.718 481.463 145.99 480.532 145.466C479.615 144.929 478.547 144.66 477.328 144.66C476.056 144.66 474.929 144.955 473.946 145.545C472.976 146.122 472.216 146.901 471.665 147.884C471.115 148.854 470.833 149.936 470.82 151.128V156.063C470.82 157.557 471.095 158.849 471.646 159.936C472.209 161.024 473.002 161.863 474.025 162.453C475.047 163.043 476.259 163.338 477.662 163.338C478.592 163.338 479.444 163.207 480.218 162.945C480.991 162.682 481.653 162.289 482.203 161.765C482.754 161.241 483.173 160.598 483.462 159.838L491.208 160.349C490.815 162.211 490.009 163.836 488.79 165.225C487.584 166.601 486.024 167.676 484.111 168.45C482.21 169.21 480.015 169.59 477.524 169.59Z" fill="black"/>
<path d="M1171.3 169V128.735H1187.19C1190.23 128.735 1192.82 129.279 1194.97 130.367C1197.13 131.442 1198.78 132.969 1199.91 134.948C1201.05 136.914 1201.62 139.227 1201.62 141.888C1201.62 144.562 1201.04 146.862 1199.89 148.789C1198.73 150.702 1197.06 152.17 1194.87 153.193C1192.7 154.215 1190.06 154.726 1186.97 154.726H1176.33V147.884H1185.59C1187.22 147.884 1188.57 147.662 1189.64 147.216C1190.72 146.77 1191.52 146.102 1192.04 145.211C1192.58 144.319 1192.85 143.212 1192.85 141.888C1192.85 140.551 1192.58 139.424 1192.04 138.506C1191.52 137.589 1190.71 136.894 1189.62 136.422C1188.55 135.937 1187.19 135.695 1185.55 135.695H1179.81V169H1171.3ZM1193.04 150.676L1203.05 169H1193.65L1183.86 150.676H1193.04ZM1226.84 156.142V138.801H1235.22V169H1227.17V163.515H1226.86C1226.18 165.284 1225.05 166.706 1223.46 167.781C1221.89 168.856 1219.97 169.393 1217.7 169.393C1215.68 169.393 1213.9 168.934 1212.37 168.017C1210.84 167.099 1209.64 165.795 1208.77 164.104C1207.92 162.414 1207.49 160.389 1207.48 158.029V138.801H1215.85V156.535C1215.86 158.318 1216.34 159.727 1217.29 160.762C1218.23 161.798 1219.49 162.315 1221.08 162.315C1222.09 162.315 1223.03 162.086 1223.91 161.627C1224.79 161.155 1225.5 160.461 1226.03 159.543C1226.59 158.626 1226.85 157.492 1226.84 156.142ZM1250.29 128.735V169H1241.92V128.735H1250.29ZM1270.76 169.59C1267.66 169.59 1264.98 168.961 1262.74 167.702C1260.51 166.431 1258.8 164.635 1257.59 162.315C1256.38 159.982 1255.78 157.223 1255.78 154.038C1255.78 150.932 1256.38 148.206 1257.59 145.859C1258.8 143.513 1260.49 141.685 1262.68 140.374C1264.88 139.063 1267.47 138.408 1270.43 138.408C1272.42 138.408 1274.28 138.729 1275.99 139.371C1277.72 140.001 1279.23 140.951 1280.51 142.222C1281.81 143.494 1282.82 145.093 1283.54 147.019C1284.26 148.933 1284.62 151.174 1284.62 153.743V156.044H1259.12V150.853H1276.74C1276.74 149.647 1276.48 148.579 1275.95 147.649C1275.43 146.718 1274.7 145.99 1273.77 145.466C1272.85 144.929 1271.79 144.66 1270.57 144.66C1269.29 144.66 1268.17 144.955 1267.18 145.545C1266.21 146.122 1265.45 146.901 1264.9 147.884C1264.35 148.854 1264.07 149.936 1264.06 151.128V156.063C1264.06 157.557 1264.33 158.849 1264.88 159.936C1265.45 161.024 1266.24 161.863 1267.26 162.453C1268.29 163.043 1269.5 163.338 1270.9 163.338C1271.83 163.338 1272.68 163.207 1273.46 162.945C1274.23 162.682 1274.89 162.289 1275.44 161.765C1275.99 161.241 1276.41 160.598 1276.7 159.838L1284.45 160.349C1284.05 162.211 1283.25 163.836 1282.03 165.225C1280.82 166.601 1279.26 167.676 1277.35 168.45C1275.45 169.21 1273.25 169.59 1270.76 169.59ZM1324.9 140.315C1324.75 138.729 1324.07 137.497 1322.88 136.619C1321.69 135.741 1320.07 135.302 1318.02 135.302C1316.63 135.302 1315.46 135.498 1314.5 135.891C1313.55 136.272 1312.81 136.802 1312.3 137.484C1311.8 138.166 1311.55 138.939 1311.55 139.804C1311.53 140.525 1311.68 141.154 1312.01 141.691C1312.35 142.229 1312.81 142.694 1313.4 143.087C1313.99 143.467 1314.67 143.802 1315.45 144.09C1316.22 144.365 1317.05 144.601 1317.92 144.798L1321.54 145.663C1323.3 146.056 1324.91 146.58 1326.38 147.236C1327.85 147.891 1329.12 148.697 1330.19 149.654C1331.27 150.611 1332.1 151.738 1332.69 153.036C1333.29 154.333 1333.6 155.821 1333.61 157.499C1333.6 159.963 1332.97 162.099 1331.73 163.908C1330.49 165.704 1328.71 167.099 1326.38 168.096C1324.06 169.079 1321.26 169.57 1317.98 169.57C1314.73 169.57 1311.9 169.072 1309.49 168.076C1307.09 167.08 1305.22 165.605 1303.87 163.652C1302.53 161.686 1301.83 159.255 1301.76 156.358H1310C1310.09 157.708 1310.48 158.835 1311.16 159.74C1311.86 160.631 1312.78 161.306 1313.93 161.765C1315.1 162.211 1316.42 162.433 1317.88 162.433C1319.33 162.433 1320.58 162.224 1321.64 161.804C1322.71 161.385 1323.55 160.802 1324.14 160.054C1324.73 159.307 1325.02 158.449 1325.02 157.479C1325.02 156.574 1324.75 155.814 1324.22 155.198C1323.69 154.582 1322.92 154.058 1321.9 153.625C1320.89 153.193 1319.65 152.8 1318.18 152.446L1313.79 151.345C1310.4 150.519 1307.72 149.228 1305.75 147.472C1303.79 145.715 1302.81 143.349 1302.82 140.374C1302.81 137.936 1303.46 135.806 1304.77 133.984C1306.09 132.162 1307.91 130.74 1310.22 129.718C1312.52 128.696 1315.14 128.184 1318.08 128.184C1321.07 128.184 1323.68 128.696 1325.91 129.718C1328.15 130.74 1329.89 132.162 1331.14 133.984C1332.38 135.806 1333.02 137.917 1333.06 140.315H1324.9ZM1355.24 138.801V145.093H1337.06V138.801H1355.24ZM1341.19 131.566H1349.56V159.72C1349.56 160.493 1349.68 161.096 1349.92 161.529C1350.15 161.948 1350.48 162.243 1350.9 162.414C1351.33 162.584 1351.83 162.669 1352.39 162.669C1352.79 162.669 1353.18 162.637 1353.57 162.571C1353.97 162.492 1354.27 162.433 1354.48 162.394L1355.79 168.626C1355.38 168.758 1354.79 168.908 1354.03 169.079C1353.27 169.262 1352.34 169.374 1351.25 169.413C1349.23 169.492 1347.47 169.223 1345.94 168.607C1344.44 167.991 1343.26 167.034 1342.43 165.736C1341.59 164.439 1341.17 162.8 1341.19 160.821V131.566ZM1369.31 169.57C1367.38 169.57 1365.67 169.236 1364.16 168.567C1362.65 167.886 1361.46 166.883 1360.58 165.559C1359.72 164.222 1359.28 162.558 1359.28 160.566C1359.28 158.888 1359.59 157.479 1360.21 156.339C1360.82 155.198 1361.66 154.281 1362.73 153.586C1363.79 152.891 1364.99 152.367 1366.34 152.013C1367.71 151.659 1369.13 151.41 1370.63 151.266C1372.39 151.083 1373.8 150.912 1374.88 150.755C1375.95 150.585 1376.73 150.335 1377.22 150.008C1377.7 149.68 1377.94 149.195 1377.94 148.553V148.435C1377.94 147.19 1377.55 146.226 1376.76 145.545C1375.99 144.863 1374.89 144.522 1373.46 144.522C1371.95 144.522 1370.75 144.857 1369.86 145.525C1368.97 146.181 1368.38 147.006 1368.09 148.002L1360.35 147.373C1360.74 145.538 1361.51 143.952 1362.67 142.615C1363.82 141.265 1365.31 140.23 1367.13 139.509C1368.96 138.775 1371.09 138.408 1373.5 138.408C1375.18 138.408 1376.78 138.605 1378.32 138.998C1379.86 139.391 1381.23 140.001 1382.43 140.826C1383.63 141.652 1384.58 142.714 1385.28 144.011C1385.97 145.296 1386.32 146.836 1386.32 148.632V169H1378.38V164.812H1378.14C1377.65 165.756 1377.01 166.588 1376.19 167.309C1375.38 168.017 1374.4 168.574 1373.26 168.98C1372.12 169.374 1370.81 169.57 1369.31 169.57ZM1371.71 163.79C1372.94 163.79 1374.03 163.547 1374.97 163.062C1375.92 162.564 1376.66 161.896 1377.2 161.057C1377.73 160.218 1378 159.268 1378 158.206V155.002C1377.74 155.172 1377.38 155.329 1376.92 155.473C1376.47 155.605 1375.97 155.729 1375.41 155.847C1374.84 155.952 1374.28 156.05 1373.72 156.142C1373.15 156.221 1372.64 156.293 1372.18 156.358C1371.2 156.502 1370.34 156.732 1369.61 157.046C1368.87 157.361 1368.3 157.787 1367.9 158.324C1367.49 158.849 1367.29 159.504 1367.29 160.29C1367.29 161.431 1367.7 162.302 1368.53 162.905C1369.36 163.495 1370.43 163.79 1371.71 163.79ZM1408.88 138.801V145.093H1390.69V138.801H1408.88ZM1394.82 131.566H1403.2V159.72C1403.2 160.493 1403.31 161.096 1403.55 161.529C1403.79 161.948 1404.11 162.243 1404.53 162.414C1404.97 162.584 1405.46 162.669 1406.03 162.669C1406.42 162.669 1406.81 162.637 1407.21 162.571C1407.6 162.492 1407.9 162.433 1408.11 162.394L1409.43 168.626C1409.01 168.758 1408.42 168.908 1407.66 169.079C1406.9 169.262 1405.98 169.374 1404.89 169.413C1402.87 169.492 1401.1 169.223 1399.58 168.607C1398.07 167.991 1396.9 167.034 1396.06 165.736C1395.22 164.439 1394.81 162.8 1394.82 160.821V131.566ZM1433.7 156.142V138.801H1442.08V169H1434.03V163.515H1433.72C1433.04 165.284 1431.9 166.706 1430.32 167.781C1428.75 168.856 1426.83 169.393 1424.56 169.393C1422.54 169.393 1420.76 168.934 1419.23 168.017C1417.7 167.099 1416.5 165.795 1415.63 164.104C1414.78 162.414 1414.35 160.389 1414.33 158.029V138.801H1422.71V156.535C1422.72 158.318 1423.2 159.727 1424.15 160.762C1425.09 161.798 1426.35 162.315 1427.94 162.315C1428.95 162.315 1429.89 162.086 1430.77 161.627C1431.65 161.155 1432.36 160.461 1432.89 159.543C1433.44 158.626 1433.71 157.492 1433.7 156.142ZM1473.9 147.413L1466.23 147.884C1466.1 147.229 1465.82 146.639 1465.39 146.115C1464.96 145.578 1464.39 145.152 1463.68 144.837C1462.98 144.509 1462.15 144.346 1461.18 144.346C1459.88 144.346 1458.79 144.621 1457.9 145.171C1457.01 145.709 1456.56 146.43 1456.56 147.334C1456.56 148.055 1456.85 148.664 1457.43 149.162C1458 149.66 1458.99 150.06 1460.39 150.362L1465.86 151.463C1468.8 152.066 1470.99 153.036 1472.43 154.372C1473.87 155.709 1474.59 157.466 1474.59 159.642C1474.59 161.621 1474.01 163.357 1472.84 164.852C1471.69 166.346 1470.1 167.512 1468.08 168.351C1466.08 169.177 1463.76 169.59 1461.14 169.59C1457.14 169.59 1453.96 168.758 1451.59 167.093C1449.23 165.415 1447.84 163.135 1447.44 160.251L1455.68 159.818C1455.93 161.037 1456.53 161.968 1457.48 162.61C1458.44 163.239 1459.67 163.554 1461.16 163.554C1462.63 163.554 1463.81 163.272 1464.7 162.709C1465.6 162.132 1466.06 161.391 1466.08 160.487C1466.06 159.727 1465.74 159.104 1465.11 158.619C1464.48 158.121 1463.51 157.741 1462.2 157.479L1456.97 156.437C1454.02 155.847 1451.83 154.825 1450.39 153.37C1448.96 151.915 1448.24 150.06 1448.24 147.806C1448.24 145.866 1448.77 144.195 1449.82 142.792C1450.88 141.39 1452.37 140.309 1454.28 139.548C1456.21 138.788 1458.46 138.408 1461.04 138.408C1464.86 138.408 1467.86 139.214 1470.05 140.826C1472.25 142.438 1473.53 144.634 1473.9 147.413Z" fill="black"/>
<path d="M118.2 313.5C115.548 313.5 113.004 312.446 111.129 310.571C109.254 308.696 108.2 306.152 108.2 303.5C108.2 300.848 109.254 298.304 111.129 296.429C113.004 294.554 115.548 293.5 118.2 293.5C120.852 293.5 123.396 294.554 125.271 296.429C127.147 298.304 128.2 300.848 128.2 303.5C128.2 304.813 127.942 306.114 127.439 307.327C126.936 308.54 126.2 309.642 125.271 310.571C124.343 311.5 123.24 312.236 122.027 312.739C120.814 313.241 119.513 313.5 118.2 313.5ZM118.2 275.5C110.774 275.5 103.652 278.45 98.4012 283.701C93.1502 288.952 90.2002 296.074 90.2002 303.5C90.2002 324.5 118.2 355.5 118.2 355.5C118.2 355.5 146.2 324.5 146.2 303.5C146.2 296.074 143.25 288.952 137.999 283.701C132.748 278.45 125.626 275.5 118.2 275.5Z" fill="#105004"/>
<rect x="206.2" y="290.6" width="257" height="14.4" rx="7.2" fill="#A9CEBA"/>
<rect x="206.2" y="326" width="139.2" height="14.4" rx="7.2" fill="#A9CEBA"/>
<rect x="1363.7" y="282.35" width="113.1" height="66.3" rx="33.15" fill="#105004"/>
<rect x="1422.2" y="294.05" width="42.9" height="42.9" rx="21.45" fill="white"/>
<path d="M129.732 436.528L130.112 436.5L130.56 436.516L131.012 436.584L131.464 436.704L155.464 444.704C156.186 444.945 156.824 445.386 157.303 445.976C157.783 446.566 158.084 447.281 158.172 448.036L158.2 448.5V468.5C158.2 469.48 157.84 470.425 157.189 471.157C156.538 471.89 155.641 472.357 154.668 472.472L154.2 472.5H146.2V500.5C146.201 502.518 145.439 504.462 144.066 505.942C142.694 507.422 140.813 508.329 138.8 508.48L138.2 508.5H98.2002C96.1819 508.501 94.2379 507.738 92.758 506.366C91.2781 504.994 90.3716 503.113 90.2202 501.1L90.2002 500.5V472.5H82.2002C81.2205 472.5 80.2748 472.14 79.5427 471.489C78.8106 470.838 78.3428 469.941 78.2282 468.968L78.2002 468.5V448.5C78.1999 447.739 78.4165 446.994 78.8246 446.353C79.2327 445.711 79.8153 445.198 80.5042 444.876L80.9362 444.704L104.936 436.704C105.538 436.504 106.178 436.449 106.804 436.545C107.431 436.641 108.026 436.884 108.54 437.255C109.054 437.625 109.473 438.113 109.761 438.677C110.05 439.241 110.2 439.866 110.2 440.5C110.191 442.576 110.989 444.574 112.426 446.073C113.862 447.571 115.825 448.452 117.9 448.53C119.974 448.608 121.998 447.876 123.543 446.49C125.088 445.104 126.034 443.171 126.18 441.1L126.216 440.14L126.284 439.688L126.432 439.152L126.608 438.74L126.808 438.372L127.08 438L127.356 437.68C127.578 437.467 127.811 437.28 128.056 437.12L128.44 436.908L128.852 436.732L129.284 436.604L129.732 436.528Z" fill="#105004"/>
<rect x="206.2" y="447.6" width="257" height="14.4" rx="7.2" fill="#A9CEBA"/>
<rect x="206.2" y="483" width="139.2" height="14.4" rx="7.2" fill="#A9CEBA"/>
<rect x="1363.7" y="439.35" width="113.1" height="66.3" rx="33.15" fill="#767676"/>
<rect x="1375.4" y="451.05" width="42.9" height="42.9" rx="21.45" fill="white"/>
<path d="M155.77 652.939C154.216 651.409 135.385 644.125 131.968 642.751C128.569 641.401 127.213 637.66 127.213 637.66C127.213 637.66 125.683 638.506 125.683 636.13C125.683 633.751 127.213 637.66 128.743 628.486C128.743 628.486 132.988 627.295 132.145 617.446H131.125C131.125 617.446 133.675 606.916 131.125 603.352C128.566 599.788 127.564 597.412 121.945 595.708C116.335 594.007 118.375 594.346 114.301 594.52C110.221 594.691 106.825 596.899 106.825 598.084C106.825 598.084 104.275 598.255 103.261 599.275C102.241 600.295 100.543 605.047 100.543 606.235C100.543 607.423 101.392 615.415 102.241 617.107L101.23 617.437C100.381 627.289 104.626 628.483 104.626 628.483C106.156 637.657 107.686 633.748 107.686 636.127C107.686 638.503 106.156 637.657 106.156 637.657C106.156 637.657 104.797 641.395 101.401 642.748C98.0046 644.107 79.1526 651.409 77.6196 652.936C76.0896 654.496 76.2606 661.624 76.2606 661.624H112.369L115.003 651.244L112.663 648.904L116.692 644.869L120.721 648.901L118.381 651.241L121.015 661.621H157.123C157.123 661.621 157.312 654.487 155.764 652.93L155.77 652.939Z" fill="#105004"/>
<rect x="206.2" y="604.6" width="257" height="14.4" rx="7.2" fill="#A9CEBA"/>
<rect x="206.2" y="640" width="139.2" height="14.4" rx="7.2" fill="#A9CEBA"/>
<rect x="1363.7" y="596.35" width="113.1" height="66.3" rx="33.15" fill="#105004"/>
<rect x="1422.2" y="608.05" width="42.9" height="42.9" rx="21.45" fill="white"/>
<g clip-path="url(#clip0_36_1121)">
<path fill-rule="evenodd" clip-rule="evenodd" d="M111.466 741.289L104.234 748.515C103.646 749.092 102.857 749.42 102.033 749.43H90.6535C85.3927 749.43 81.1303 753.692 81.1303 758.953V770.332C81.1218 771.159 80.7939 771.95 80.2151 772.54L72.9831 779.766C71.2009 781.554 70.2002 783.975 70.2002 786.499C70.2002 789.023 71.2009 791.444 72.9831 793.232L80.2151 800.464C80.7923 801.052 81.1202 801.841 81.1303 802.665V814.044C81.1303 819.305 85.3927 823.568 90.6535 823.568H102.033C102.859 823.576 103.651 823.904 104.241 824.483L111.466 831.715C113.254 833.497 115.675 834.498 118.199 834.498C120.723 834.498 123.144 833.497 124.932 831.715L132.164 824.483C132.752 823.906 133.541 823.578 134.365 823.568H145.745C151.005 823.568 155.268 819.305 155.268 814.044V802.665C155.276 801.839 155.604 801.047 156.183 800.457L163.415 793.232C165.197 791.444 166.198 789.023 166.198 786.499C166.198 783.975 165.197 781.554 163.415 779.766L156.183 772.534C155.606 771.945 155.278 771.157 155.268 770.332V758.953C155.268 753.692 151.005 749.43 145.745 749.43H134.365C133.539 749.422 132.748 749.094 132.157 748.515L124.932 741.283C123.144 739.501 120.723 738.5 118.199 738.5C115.675 738.5 113.254 739.507 111.466 741.289ZM99.9335 800.227L131.933 768.227L136.465 772.758L104.465 804.758L99.9335 800.227ZM102.199 770.499V776.899H108.599V770.499H102.199ZM127.799 802.499H134.199V796.099H127.799V802.499Z" fill="#105004"/>
</g>
<rect x="206.2" y="761.6" width="257" height="14.4" rx="7.2" fill="#A9CEBA"/>
<rect x="206.2" y="797" width="139.2" height="14.4" rx="7.2" fill="#A9CEBA"/>
<rect x="1363.7" y="753.35" width="113.1" height="66.3" rx="33.15" fill="#105004"/>
<rect x="1422.2" y="765.05" width="42.9" height="42.9" rx="21.45" fill="white"/>
<rect x="1044" y="965" width="503" height="115" rx="57.5" fill="#105004"/>
<path d="M1113.28 1015.32H1108.4C1108.11 1013.92 1107.61 1012.68 1106.89 1011.62C1106.18 1010.56 1105.31 1009.67 1104.29 1008.95C1103.28 1008.21 1102.16 1007.66 1100.93 1007.3C1099.7 1006.93 1098.41 1006.75 1097.08 1006.75C1094.64 1006.75 1092.43 1007.36 1090.45 1008.59C1088.48 1009.83 1086.92 1011.64 1085.75 1014.04C1084.6 1016.44 1084.02 1019.38 1084.02 1022.87C1084.02 1026.35 1084.6 1029.3 1085.75 1031.7C1086.92 1034.09 1088.48 1035.91 1090.45 1037.14C1092.43 1038.37 1094.64 1038.99 1097.08 1038.99C1098.41 1038.99 1099.7 1038.81 1100.93 1038.44C1102.16 1038.07 1103.28 1037.53 1104.29 1036.81C1105.31 1036.07 1106.18 1035.18 1106.89 1034.11C1107.61 1033.04 1108.11 1031.81 1108.4 1030.42H1113.28C1112.91 1032.47 1112.24 1034.32 1111.27 1035.94C1110.3 1037.57 1109.1 1038.95 1107.65 1040.09C1106.21 1041.22 1104.59 1042.08 1102.8 1042.67C1101.01 1043.26 1099.11 1043.55 1097.08 1043.55C1093.64 1043.55 1090.59 1042.71 1087.91 1041.03C1085.24 1039.36 1083.14 1036.97 1081.6 1033.88C1080.07 1030.78 1079.3 1027.11 1079.3 1022.87C1079.3 1018.62 1080.07 1014.95 1081.6 1011.86C1083.14 1008.76 1085.24 1006.38 1087.91 1004.7C1090.59 1003.02 1093.64 1002.18 1097.08 1002.18C1099.11 1002.18 1101.01 1002.48 1102.8 1003.07C1104.59 1003.66 1106.21 1004.52 1107.65 1005.66C1109.1 1006.79 1110.3 1008.17 1111.27 1009.79C1112.24 1011.41 1112.91 1013.25 1113.28 1015.32ZM1120.53 1043V1012.8H1125.01V1017.36H1125.32C1125.87 1015.87 1126.87 1014.66 1128.31 1013.73C1129.75 1012.79 1131.38 1012.33 1133.19 1012.33C1133.53 1012.33 1133.95 1012.34 1134.47 1012.35C1134.98 1012.36 1135.36 1012.38 1135.63 1012.41V1017.13C1135.47 1017.09 1135.11 1017.03 1134.54 1016.95C1133.99 1016.86 1133.41 1016.81 1132.79 1016.81C1131.33 1016.81 1130.02 1017.12 1128.86 1017.74C1127.72 1018.34 1126.82 1019.18 1126.15 1020.25C1125.49 1021.31 1125.17 1022.53 1125.17 1023.89V1043H1120.53ZM1152.87 1043.63C1149.96 1043.63 1147.45 1042.99 1145.34 1041.7C1143.24 1040.4 1141.62 1038.6 1140.48 1036.28C1139.35 1033.94 1138.79 1031.23 1138.79 1028.14C1138.79 1025.04 1139.35 1022.32 1140.48 1019.96C1141.62 1017.59 1143.21 1015.74 1145.24 1014.41C1147.28 1013.08 1149.67 1012.41 1152.4 1012.41C1153.97 1012.41 1155.52 1012.67 1157.06 1013.19C1158.59 1013.72 1159.99 1014.57 1161.24 1015.75C1162.5 1016.92 1163.5 1018.46 1164.25 1020.39C1165 1022.32 1165.37 1024.69 1165.37 1027.51V1029.47H1142.09V1025.46H1160.65C1160.65 1023.76 1160.31 1022.24 1159.63 1020.9C1158.96 1019.56 1158.01 1018.51 1156.76 1017.74C1155.53 1016.96 1154.07 1016.58 1152.4 1016.58C1150.55 1016.58 1148.95 1017.03 1147.6 1017.95C1146.26 1018.86 1145.23 1020.04 1144.51 1021.49C1143.79 1022.95 1143.43 1024.51 1143.43 1026.17V1028.84C1143.43 1031.12 1143.82 1033.06 1144.61 1034.64C1145.41 1036.22 1146.52 1037.42 1147.93 1038.24C1149.35 1039.05 1150.99 1039.46 1152.87 1039.46C1154.09 1039.46 1155.19 1039.29 1156.17 1038.95C1157.17 1038.6 1158.03 1038.07 1158.75 1037.38C1159.47 1036.67 1160.02 1035.79 1160.42 1034.74L1164.9 1036C1164.43 1037.52 1163.64 1038.86 1162.52 1040.01C1161.41 1041.15 1160.03 1042.04 1158.39 1042.69C1156.75 1043.31 1154.91 1043.63 1152.87 1043.63ZM1181.32 1043.71C1179.4 1043.71 1177.67 1043.35 1176.11 1042.63C1174.55 1041.89 1173.31 1040.84 1172.39 1039.46C1171.47 1038.07 1171.02 1036.39 1171.02 1034.43C1171.02 1032.7 1171.36 1031.3 1172.04 1030.22C1172.72 1029.13 1173.63 1028.28 1174.77 1027.66C1175.91 1027.05 1177.17 1026.59 1178.55 1026.29C1179.93 1025.97 1181.33 1025.72 1182.73 1025.54C1184.57 1025.31 1186.06 1025.13 1187.2 1025.01C1188.35 1024.88 1189.19 1024.66 1189.71 1024.36C1190.25 1024.06 1190.52 1023.54 1190.52 1022.79V1022.63C1190.52 1020.69 1189.99 1019.18 1188.93 1018.11C1187.88 1017.03 1186.28 1016.5 1184.15 1016.5C1181.93 1016.5 1180.2 1016.98 1178.94 1017.95C1177.68 1018.92 1176.8 1019.96 1176.28 1021.06L1171.88 1019.49C1172.67 1017.65 1173.72 1016.22 1175.03 1015.2C1176.35 1014.16 1177.79 1013.44 1179.35 1013.04C1180.92 1012.62 1182.47 1012.41 1183.99 1012.41C1184.96 1012.41 1186.08 1012.53 1187.33 1012.76C1188.6 1012.98 1189.83 1013.45 1191.01 1014.16C1192.2 1014.87 1193.19 1015.93 1193.98 1017.36C1194.77 1018.79 1195.16 1020.7 1195.16 1023.1V1043H1190.52V1038.91H1190.28C1189.97 1039.57 1189.44 1040.27 1188.71 1041.01C1187.98 1041.76 1187 1042.4 1185.78 1042.92C1184.56 1043.45 1183.07 1043.71 1181.32 1043.71ZM1182.02 1039.54C1183.86 1039.54 1185.41 1039.18 1186.66 1038.46C1187.94 1037.74 1188.89 1036.81 1189.54 1035.67C1190.19 1034.53 1190.52 1033.33 1190.52 1032.07V1027.82C1190.32 1028.06 1189.89 1028.27 1189.22 1028.47C1188.57 1028.65 1187.81 1028.82 1186.94 1028.96C1186.09 1029.09 1185.26 1029.21 1184.44 1029.32C1183.64 1029.41 1182.99 1029.49 1182.5 1029.55C1181.29 1029.71 1180.16 1029.96 1179.12 1030.32C1178.08 1030.66 1177.24 1031.18 1176.6 1031.87C1175.97 1032.55 1175.65 1033.48 1175.65 1034.66C1175.65 1036.28 1176.25 1037.5 1177.44 1038.32C1178.65 1039.13 1180.18 1039.54 1182.02 1039.54ZM1216.76 1012.8V1016.73H1201.11V1012.8H1216.76ZM1205.67 1005.57H1210.31V1034.35C1210.31 1035.66 1210.5 1036.64 1210.88 1037.3C1211.28 1037.94 1211.77 1038.37 1212.38 1038.6C1212.99 1038.81 1213.64 1038.91 1214.32 1038.91C1214.83 1038.91 1215.25 1038.88 1215.58 1038.83C1215.91 1038.77 1216.17 1038.71 1216.37 1038.67L1217.31 1042.84C1217 1042.96 1216.56 1043.08 1215.99 1043.2C1215.43 1043.33 1214.72 1043.39 1213.85 1043.39C1212.54 1043.39 1211.26 1043.11 1210 1042.55C1208.75 1041.98 1207.72 1041.13 1206.89 1039.97C1206.08 1038.82 1205.67 1037.36 1205.67 1035.61V1005.57ZM1236.08 1043.63C1233.17 1043.63 1230.66 1042.99 1228.55 1041.7C1226.45 1040.4 1224.83 1038.6 1223.69 1036.28C1222.56 1033.94 1222 1031.23 1222 1028.14C1222 1025.04 1222.56 1022.32 1223.69 1019.96C1224.83 1017.59 1226.42 1015.74 1228.45 1014.41C1230.49 1013.08 1232.88 1012.41 1235.61 1012.41C1237.18 1012.41 1238.73 1012.67 1240.26 1013.19C1241.8 1013.72 1243.19 1014.57 1244.45 1015.75C1245.71 1016.92 1246.71 1018.46 1247.46 1020.39C1248.21 1022.32 1248.58 1024.69 1248.58 1027.51V1029.47H1225.3V1025.46H1243.86C1243.86 1023.76 1243.52 1022.24 1242.84 1020.9C1242.17 1019.56 1241.22 1018.51 1239.97 1017.74C1238.74 1016.96 1237.28 1016.58 1235.61 1016.58C1233.76 1016.58 1232.16 1017.03 1230.81 1017.95C1229.47 1018.86 1228.44 1020.04 1227.72 1021.49C1227 1022.95 1226.64 1024.51 1226.64 1026.17V1028.84C1226.64 1031.12 1227.03 1033.06 1227.82 1034.64C1228.62 1036.22 1229.73 1037.42 1231.14 1038.24C1232.56 1039.05 1234.2 1039.46 1236.08 1039.46C1237.3 1039.46 1238.4 1039.29 1239.38 1038.95C1240.38 1038.6 1241.23 1038.07 1241.96 1037.38C1242.68 1036.67 1243.23 1035.79 1243.63 1034.74L1248.11 1036C1247.64 1037.52 1246.84 1038.86 1245.73 1040.01C1244.62 1041.15 1243.24 1042.04 1241.6 1042.69C1239.96 1043.31 1238.12 1043.63 1236.08 1043.63ZM1303.77 1002.73V1043H1299.05L1277.11 1011.39H1276.72V1043H1271.84V1002.73H1276.56L1298.58 1034.43H1298.97V1002.73H1303.77ZM1325.56 1043.63C1322.65 1043.63 1320.14 1042.99 1318.03 1041.7C1315.93 1040.4 1314.31 1038.6 1313.17 1036.28C1312.04 1033.94 1311.48 1031.23 1311.48 1028.14C1311.48 1025.04 1312.04 1022.32 1313.17 1019.96C1314.31 1017.59 1315.9 1015.74 1317.93 1014.41C1319.97 1013.08 1322.36 1012.41 1325.09 1012.41C1326.66 1012.41 1328.21 1012.67 1329.75 1013.19C1331.28 1013.72 1332.67 1014.57 1333.93 1015.75C1335.19 1016.92 1336.19 1018.46 1336.94 1020.39C1337.69 1022.32 1338.06 1024.69 1338.06 1027.51V1029.47H1314.78V1025.46H1333.34C1333.34 1023.76 1333 1022.24 1332.32 1020.9C1331.65 1019.56 1330.7 1018.51 1329.45 1017.74C1328.22 1016.96 1326.76 1016.58 1325.09 1016.58C1323.24 1016.58 1321.64 1017.03 1320.29 1017.95C1318.95 1018.86 1317.92 1020.04 1317.2 1021.49C1316.48 1022.95 1316.12 1024.51 1316.12 1026.17V1028.84C1316.12 1031.12 1316.51 1033.06 1317.3 1034.64C1318.1 1036.22 1319.21 1037.42 1320.62 1038.24C1322.04 1039.05 1323.68 1039.46 1325.56 1039.46C1326.78 1039.46 1327.88 1039.29 1328.86 1038.95C1329.86 1038.6 1330.72 1038.07 1331.44 1037.38C1332.16 1036.67 1332.71 1035.79 1333.11 1034.74L1337.59 1036C1337.12 1037.52 1336.33 1038.86 1335.21 1040.01C1334.1 1041.15 1332.72 1042.04 1331.08 1042.69C1329.44 1043.31 1327.6 1043.63 1325.56 1043.63ZM1351.96 1043L1342.76 1012.8H1347.64L1354.16 1035.92H1354.48L1360.93 1012.8H1365.88L1372.25 1035.84H1372.57L1379.09 1012.8H1383.97L1374.77 1043H1370.21L1363.6 1019.8H1363.13L1356.52 1043H1351.96ZM1406.3 1043V1002.73H1419.91C1423.05 1002.73 1425.64 1003.27 1427.66 1004.35C1429.67 1005.41 1431.17 1006.87 1432.14 1008.73C1433.11 1010.59 1433.59 1012.71 1433.59 1015.08C1433.59 1017.45 1433.11 1019.56 1432.14 1021.39C1431.17 1023.23 1429.68 1024.67 1427.68 1025.72C1425.67 1026.75 1423.11 1027.27 1419.99 1027.27H1408.98V1022.87H1419.83C1421.98 1022.87 1423.71 1022.55 1425.02 1021.92C1426.34 1021.29 1427.3 1020.4 1427.89 1019.25C1428.49 1018.08 1428.8 1016.69 1428.8 1015.08C1428.8 1013.47 1428.49 1012.06 1427.89 1010.85C1427.29 1009.65 1426.33 1008.72 1425 1008.06C1423.68 1007.39 1421.93 1007.06 1419.75 1007.06H1411.18V1043H1406.3ZM1425.26 1024.91L1435.17 1043H1429.5L1419.75 1024.91H1425.26ZM1460.12 1030.65V1012.8H1464.76V1043H1460.12V1037.89H1459.81C1459.1 1039.42 1458 1040.73 1456.5 1041.8C1455.01 1042.86 1453.12 1043.39 1450.84 1043.39C1448.95 1043.39 1447.28 1042.98 1445.81 1042.15C1444.34 1041.32 1443.19 1040.06 1442.35 1038.38C1441.51 1036.69 1441.09 1034.56 1441.09 1031.99V1012.8H1445.73V1031.68C1445.73 1033.88 1446.34 1035.63 1447.58 1036.94C1448.82 1038.26 1450.41 1038.91 1452.33 1038.91C1453.49 1038.91 1454.66 1038.62 1455.85 1038.03C1457.06 1037.44 1458.07 1036.53 1458.88 1035.31C1459.71 1034.09 1460.12 1032.54 1460.12 1030.65ZM1477.9 1002.73V1043H1473.26V1002.73H1477.9ZM1499.06 1043.63C1496.15 1043.63 1493.64 1042.99 1491.53 1041.7C1489.43 1040.4 1487.81 1038.6 1486.67 1036.28C1485.54 1033.94 1484.98 1031.23 1484.98 1028.14C1484.98 1025.04 1485.54 1022.32 1486.67 1019.96C1487.81 1017.59 1489.4 1015.74 1491.43 1014.41C1493.47 1013.08 1495.86 1012.41 1498.59 1012.41C1500.16 1012.41 1501.71 1012.67 1503.25 1013.19C1504.78 1013.72 1506.18 1014.57 1507.43 1015.75C1508.69 1016.92 1509.69 1018.46 1510.44 1020.39C1511.19 1022.32 1511.56 1024.69 1511.56 1027.51V1029.47H1488.28V1025.46H1506.84C1506.84 1023.76 1506.5 1022.24 1505.82 1020.9C1505.15 1019.56 1504.2 1018.51 1502.95 1017.74C1501.72 1016.96 1500.26 1016.58 1498.59 1016.58C1496.74 1016.58 1495.14 1017.03 1493.79 1017.95C1492.45 1018.86 1491.42 1020.04 1490.7 1021.49C1489.98 1022.95 1489.62 1024.51 1489.62 1026.17V1028.84C1489.62 1031.12 1490.01 1033.06 1490.8 1034.64C1491.6 1036.22 1492.71 1037.42 1494.12 1038.24C1495.54 1039.05 1497.18 1039.46 1499.06 1039.46C1500.28 1039.46 1501.38 1039.29 1502.36 1038.95C1503.36 1038.6 1504.22 1038.07 1504.94 1037.38C1505.66 1036.67 1506.21 1035.79 1506.61 1034.74L1511.09 1036C1510.62 1037.52 1509.83 1038.86 1508.71 1040.01C1507.6 1041.15 1506.22 1042.04 1504.58 1042.69C1502.94 1043.31 1501.1 1043.63 1499.06 1043.63Z" fill="white"/>
<defs>
<clipPath id="clip0_36_1121">
<rect width="96" height="96" fill="white" transform="translate(70.2002 738.5)"/>
</clipPath>
</defs>
</svg>
