<svg width="1347" height="1347" viewBox="0 0 1347 1347" fill="none" xmlns="http://www.w3.org/2000/svg">
<rect x="250.6" y="188.6" width="480" height="28.8" rx="14.4" fill="#A9CEBA"/>
<rect x="250.6" y="258.2" width="278.4" height="28.8" rx="14.4" fill="#A9CEBA"/>
<rect x="250.6" y="327.8" width="480" height="91.6" rx="45.8" fill="white"/>
<path d="M294.3 397.12C307.29 397.12 317.82 386.59 317.82 373.6C317.82 360.61 307.29 350.08 294.3 350.08C281.311 350.08 270.78 360.61 270.78 373.6C270.78 386.59 281.311 397.12 294.3 397.12Z" fill="#4CAF50"/>
<path d="M306.171 363.073L290.939 378.305L284.667 372.033L281.531 375.169L290.939 384.577L309.307 366.209L306.171 363.073Z" fill="#CCFF90"/>
<path d="M379.609 367.043H374.291C374.086 365.907 373.705 364.907 373.149 364.043C372.592 363.18 371.91 362.447 371.103 361.844C370.296 361.242 369.393 360.788 368.393 360.481C367.404 360.174 366.353 360.021 365.24 360.021C363.228 360.021 361.427 360.526 359.836 361.538C358.257 362.549 357.007 364.032 356.086 365.986C355.177 367.941 354.722 370.327 354.722 373.146C354.722 375.986 355.177 378.384 356.086 380.339C357.007 382.293 358.262 383.771 359.853 384.771C361.444 385.771 363.234 386.271 365.222 386.271C366.325 386.271 367.37 386.123 368.359 385.827C369.359 385.521 370.262 385.072 371.069 384.481C371.876 383.89 372.558 383.168 373.115 382.316C373.683 381.452 374.075 380.464 374.291 379.35L379.609 379.367C379.325 381.083 378.774 382.663 377.955 384.106C377.149 385.538 376.109 386.776 374.836 387.822C373.575 388.856 372.132 389.657 370.507 390.225C368.882 390.793 367.109 391.077 365.188 391.077C362.166 391.077 359.472 390.361 357.109 388.93C354.745 387.486 352.882 385.424 351.518 382.742C350.166 380.06 349.49 376.861 349.49 373.146C349.49 369.418 350.171 366.219 351.535 363.549C352.899 360.867 354.762 358.81 357.126 357.379C359.49 355.935 362.177 355.214 365.188 355.214C367.041 355.214 368.768 355.481 370.37 356.015C371.984 356.538 373.433 357.31 374.717 358.333C376.001 359.344 377.063 360.583 377.904 362.049C378.745 363.504 379.313 365.168 379.609 367.043ZM416.235 373.146C416.235 376.873 415.553 380.077 414.19 382.759C412.826 385.43 410.957 387.486 408.582 388.93C406.218 390.361 403.531 391.077 400.519 391.077C397.497 391.077 394.798 390.361 392.423 388.93C390.059 387.486 388.195 385.424 386.832 382.742C385.468 380.06 384.786 376.861 384.786 373.146C384.786 369.418 385.468 366.219 386.832 363.549C388.195 360.867 390.059 358.81 392.423 357.379C394.798 355.935 397.497 355.214 400.519 355.214C403.531 355.214 406.218 355.935 408.582 357.379C410.957 358.81 412.826 360.867 414.19 363.549C415.553 366.219 416.235 369.418 416.235 373.146ZM411.019 373.146C411.019 370.305 410.559 367.913 409.639 365.969C408.73 364.015 407.48 362.538 405.889 361.538C404.309 360.526 402.519 360.021 400.519 360.021C398.508 360.021 396.713 360.526 395.133 361.538C393.553 362.538 392.303 364.015 391.383 365.969C390.474 367.913 390.019 370.305 390.019 373.146C390.019 375.986 390.474 378.384 391.383 380.339C392.303 382.282 393.553 383.759 395.133 384.771C396.713 385.771 398.508 386.271 400.519 386.271C402.519 386.271 404.309 385.771 405.889 384.771C407.48 383.759 408.73 382.282 409.639 380.339C410.559 378.384 411.019 375.986 411.019 373.146ZM434.103 390.6H422.802V355.691H434.461C437.882 355.691 440.819 356.39 443.274 357.788C445.728 359.174 447.609 361.168 448.916 363.771C450.234 366.361 450.893 369.469 450.893 373.094C450.893 376.731 450.228 379.856 448.899 382.469C447.58 385.083 445.671 387.094 443.171 388.504C440.671 389.901 437.649 390.6 434.103 390.6ZM428.069 385.998H433.813C436.472 385.998 438.683 385.498 440.444 384.498C442.205 383.486 443.524 382.026 444.399 380.117C445.274 378.197 445.711 375.856 445.711 373.094C445.711 370.356 445.274 368.032 444.399 366.123C443.535 364.214 442.245 362.765 440.529 361.776C438.813 360.788 436.683 360.293 434.137 360.293H428.069V385.998ZM470.146 390.6V355.691H491.794V360.225H475.413V370.861H490.242V375.379H475.413V390.6H470.146ZM507.224 391.129C504.644 391.129 502.423 390.577 500.559 389.475C498.707 388.361 497.275 386.799 496.264 384.788C495.264 382.765 494.764 380.396 494.764 377.68C494.764 374.998 495.264 372.634 496.264 370.589C497.275 368.543 498.684 366.947 500.491 365.799C502.309 364.651 504.434 364.077 506.866 364.077C508.343 364.077 509.775 364.322 511.161 364.81C512.548 365.299 513.792 366.066 514.894 367.111C515.997 368.157 516.866 369.515 517.502 371.185C518.139 372.844 518.457 374.861 518.457 377.236V379.043H497.644V375.225H513.463C513.463 373.884 513.19 372.697 512.644 371.663C512.099 370.617 511.332 369.793 510.343 369.191C509.366 368.589 508.218 368.288 506.9 368.288C505.468 368.288 504.218 368.64 503.15 369.344C502.093 370.038 501.275 370.947 500.695 372.072C500.127 373.185 499.843 374.396 499.843 375.702V378.685C499.843 380.435 500.15 381.924 500.764 383.151C501.389 384.379 502.258 385.316 503.372 385.964C504.485 386.6 505.786 386.918 507.275 386.918C508.241 386.918 509.122 386.782 509.917 386.509C510.713 386.225 511.4 385.805 511.98 385.248C512.559 384.691 513.002 384.004 513.309 383.185L518.133 384.055C517.747 385.475 517.053 386.719 516.053 387.788C515.065 388.844 513.82 389.668 512.32 390.259C510.832 390.839 509.133 391.129 507.224 391.129ZM535.396 391.129C532.816 391.129 530.595 390.577 528.731 389.475C526.879 388.361 525.447 386.799 524.436 384.788C523.436 382.765 522.936 380.396 522.936 377.68C522.936 374.998 523.436 372.634 524.436 370.589C525.447 368.543 526.856 366.947 528.663 365.799C530.481 364.651 532.606 364.077 535.038 364.077C536.515 364.077 537.947 364.322 539.333 364.81C540.72 365.299 541.964 366.066 543.066 367.111C544.169 368.157 545.038 369.515 545.674 371.185C546.311 372.844 546.629 374.861 546.629 377.236V379.043H525.816V375.225H541.634C541.634 373.884 541.362 372.697 540.816 371.663C540.271 370.617 539.504 369.793 538.515 369.191C537.538 368.589 536.39 368.288 535.072 368.288C533.64 368.288 532.39 368.64 531.322 369.344C530.265 370.038 529.447 370.947 528.867 372.072C528.299 373.185 528.015 374.396 528.015 375.702V378.685C528.015 380.435 528.322 381.924 528.936 383.151C529.561 384.379 530.43 385.316 531.544 385.964C532.657 386.6 533.958 386.918 535.447 386.918C536.413 386.918 537.294 386.782 538.089 386.509C538.884 386.225 539.572 385.805 540.151 385.248C540.731 384.691 541.174 384.004 541.481 383.185L546.305 384.055C545.919 385.475 545.225 386.719 544.225 387.788C543.237 388.844 541.992 389.668 540.492 390.259C539.004 390.839 537.305 391.129 535.396 391.129ZM568.345 390.6H562.754L575.316 355.691H581.401L593.964 390.6H588.373L578.504 362.032H578.231L568.345 390.6ZM569.282 376.93H587.419V381.361H569.282V376.93ZM607.975 391.111C605.862 391.111 603.975 390.572 602.316 389.492C600.669 388.401 599.373 386.85 598.43 384.839C597.498 382.816 597.032 380.39 597.032 377.56C597.032 374.731 597.504 372.31 598.447 370.299C599.401 368.288 600.708 366.748 602.367 365.68C604.026 364.611 605.907 364.077 608.009 364.077C609.634 364.077 610.941 364.35 611.93 364.896C612.93 365.43 613.703 366.055 614.248 366.771C614.805 367.486 615.237 368.117 615.544 368.663H615.85V355.691H620.947V390.6H615.97V386.526H615.544C615.237 387.083 614.794 387.719 614.214 388.435C613.646 389.151 612.862 389.776 611.862 390.31C610.862 390.844 609.566 391.111 607.975 391.111ZM609.1 386.765C610.566 386.765 611.805 386.379 612.816 385.606C613.839 384.822 614.612 383.736 615.134 382.35C615.669 380.964 615.936 379.35 615.936 377.509C615.936 375.691 615.674 374.1 615.151 372.736C614.629 371.373 613.862 370.31 612.85 369.549C611.839 368.788 610.589 368.407 609.1 368.407C607.566 368.407 606.288 368.805 605.265 369.6C604.242 370.396 603.47 371.481 602.947 372.856C602.436 374.231 602.18 375.782 602.18 377.509C602.18 379.259 602.441 380.833 602.964 382.231C603.487 383.629 604.259 384.736 605.282 385.555C606.316 386.361 607.589 386.765 609.1 386.765ZM638.022 391.111C635.909 391.111 634.022 390.572 632.363 389.492C630.715 388.401 629.42 386.85 628.477 384.839C627.545 382.816 627.079 380.39 627.079 377.56C627.079 374.731 627.551 372.31 628.494 370.299C629.448 368.288 630.755 366.748 632.414 365.68C634.073 364.611 635.954 364.077 638.056 364.077C639.681 364.077 640.988 364.35 641.977 364.896C642.977 365.43 643.749 366.055 644.295 366.771C644.852 367.486 645.284 368.117 645.59 368.663H645.897V355.691H650.994V390.6H646.017V386.526H645.59C645.284 387.083 644.84 387.719 644.261 388.435C643.693 389.151 642.909 389.776 641.909 390.31C640.909 390.844 639.613 391.111 638.022 391.111ZM639.147 386.765C640.613 386.765 641.852 386.379 642.863 385.606C643.886 384.822 644.659 383.736 645.181 382.35C645.715 380.964 645.982 379.35 645.982 377.509C645.982 375.691 645.721 374.1 645.198 372.736C644.676 371.373 643.909 370.31 642.897 369.549C641.886 368.788 640.636 368.407 639.147 368.407C637.613 368.407 636.335 368.805 635.312 369.6C634.289 370.396 633.517 371.481 632.994 372.856C632.482 374.231 632.227 375.782 632.227 377.509C632.227 379.259 632.488 380.833 633.011 382.231C633.534 383.629 634.306 384.736 635.329 385.555C636.363 386.361 637.636 386.765 639.147 386.765ZM669.552 391.129C666.972 391.129 664.751 390.577 662.887 389.475C661.035 388.361 659.603 386.799 658.592 384.788C657.592 382.765 657.092 380.396 657.092 377.68C657.092 374.998 657.592 372.634 658.592 370.589C659.603 368.543 661.012 366.947 662.819 365.799C664.637 364.651 666.762 364.077 669.194 364.077C670.671 364.077 672.103 364.322 673.49 364.81C674.876 365.299 676.12 366.066 677.222 367.111C678.325 368.157 679.194 369.515 679.83 371.185C680.467 372.844 680.785 374.861 680.785 377.236V379.043H659.972V375.225H675.791C675.791 373.884 675.518 372.697 674.972 371.663C674.427 370.617 673.66 369.793 672.671 369.191C671.694 368.589 670.546 368.288 669.228 368.288C667.796 368.288 666.546 368.64 665.478 369.344C664.421 370.038 663.603 370.947 663.024 372.072C662.455 373.185 662.171 374.396 662.171 375.702V378.685C662.171 380.435 662.478 381.924 663.092 383.151C663.717 384.379 664.586 385.316 665.7 385.964C666.813 386.6 668.115 386.918 669.603 386.918C670.569 386.918 671.45 386.782 672.245 386.509C673.041 386.225 673.728 385.805 674.308 385.248C674.887 384.691 675.33 384.004 675.637 383.185L680.461 384.055C680.075 385.475 679.382 386.719 678.382 387.788C677.393 388.844 676.149 389.668 674.649 390.259C673.16 390.839 671.461 391.129 669.552 391.129ZM696.241 391.111C694.127 391.111 692.241 390.572 690.582 389.492C688.934 388.401 687.639 386.85 686.695 384.839C685.764 382.816 685.298 380.39 685.298 377.56C685.298 374.731 685.769 372.31 686.713 370.299C687.667 368.288 688.974 366.748 690.633 365.68C692.292 364.611 694.173 364.077 696.275 364.077C697.9 364.077 699.207 364.35 700.195 364.896C701.195 365.43 701.968 366.055 702.514 366.771C703.07 367.486 703.502 368.117 703.809 368.663H704.116V355.691H709.213V390.6H704.235V386.526H703.809C703.502 387.083 703.059 387.719 702.48 388.435C701.911 389.151 701.127 389.776 700.127 390.31C699.127 390.844 697.832 391.111 696.241 391.111ZM697.366 386.765C698.832 386.765 700.07 386.379 701.082 385.606C702.105 384.822 702.877 383.736 703.4 382.35C703.934 380.964 704.201 379.35 704.201 377.509C704.201 375.691 703.94 374.1 703.417 372.736C702.894 371.373 702.127 370.31 701.116 369.549C700.105 368.788 698.855 368.407 697.366 368.407C695.832 368.407 694.553 368.805 693.531 369.6C692.508 370.396 691.735 371.481 691.213 372.856C690.701 374.231 690.445 375.782 690.445 377.509C690.445 379.259 690.707 380.833 691.23 382.231C691.752 383.629 692.525 384.736 693.548 385.555C694.582 386.361 695.855 386.765 697.366 386.765Z" fill="black"/>
<path d="M978.065 293.333C995.772 293.333 1009.96 279.04 1009.96 261.333C1009.96 243.627 995.772 229.333 978.065 229.333C960.359 229.333 946.065 243.627 946.065 261.333C946.065 279.04 960.359 293.333 978.065 293.333ZM892.732 293.333C910.439 293.333 924.625 279.04 924.625 261.333C924.625 243.627 910.439 229.333 892.732 229.333C875.025 229.333 860.732 243.627 860.732 261.333C860.732 279.04 875.025 293.333 892.732 293.333ZM892.732 314.667C867.879 314.667 818.065 327.147 818.065 352V378.667H967.399V352C967.399 327.147 917.585 314.667 892.732 314.667ZM978.065 314.667C974.972 314.667 971.452 314.88 967.719 315.2C980.092 324.16 988.732 336.213 988.732 352V378.667H1052.73V352C1052.73 327.147 1002.92 314.667 978.065 314.667Z" fill="#105004"/>
<path d="M378.6 668.667C371.528 668.667 364.745 665.857 359.744 660.856C354.743 655.855 351.934 649.073 351.934 642C351.934 634.928 354.743 628.145 359.744 623.144C364.745 618.143 371.528 615.333 378.6 615.333C385.673 615.333 392.455 618.143 397.456 623.144C402.457 628.145 405.267 634.928 405.267 642C405.267 645.502 404.577 648.97 403.237 652.205C401.897 655.44 399.933 658.38 397.456 660.856C394.98 663.333 392.04 665.297 388.805 666.637C385.57 667.977 382.102 668.667 378.6 668.667ZM378.6 567.333C358.797 567.333 339.806 575.2 325.803 589.203C311.8 603.206 303.934 622.197 303.934 642C303.934 698 378.6 780.667 378.6 780.667C378.6 780.667 453.267 698 453.267 642C453.267 622.197 445.4 603.206 431.398 589.203C417.395 575.2 398.403 567.333 378.6 567.333Z" fill="#105004"/>
<rect x="583.399" y="558.5" width="514" height="28.8" rx="14.4" fill="#A9CEBA"/>
<rect x="583.399" y="628.3" width="278.4" height="28.8" rx="14.4" fill="#A9CEBA"/>
<rect x="583.399" y="697.9" width="514" height="91.6" rx="45.8" fill="white"/>
<path d="M634.6 721.301C646.987 721.301 657 731.314 657 743.701C657 756.088 646.987 766.101 634.6 766.101C622.213 766.101 612.2 756.088 612.2 743.701C612.2 731.314 622.213 721.301 634.6 721.301ZM642.642 732.501L634.6 740.542L626.559 732.501L623.4 735.659L631.442 743.701L623.4 751.742L626.559 754.901L634.6 746.859L642.642 754.901L645.8 751.742L637.759 743.701L645.8 735.659L642.642 732.501Z" fill="#FF0000"/>
<path d="M719.909 737.143H714.59C714.386 736.007 714.005 735.007 713.448 734.143C712.892 733.28 712.21 732.547 711.403 731.945C710.596 731.342 709.693 730.888 708.693 730.581C707.704 730.274 706.653 730.121 705.539 730.121C703.528 730.121 701.727 730.626 700.136 731.638C698.556 732.649 697.306 734.132 696.386 736.087C695.477 738.041 695.022 740.427 695.022 743.246C695.022 746.087 695.477 748.484 696.386 750.439C697.306 752.393 698.562 753.871 700.153 754.871C701.744 755.871 703.534 756.371 705.522 756.371C706.625 756.371 707.67 756.223 708.659 755.927C709.659 755.621 710.562 755.172 711.369 754.581C712.176 753.99 712.858 753.268 713.414 752.416C713.983 751.552 714.375 750.564 714.59 749.45L719.909 749.467C719.625 751.183 719.073 752.763 718.255 754.206C717.448 755.638 716.409 756.876 715.136 757.922C713.875 758.956 712.431 759.757 710.806 760.325C709.181 760.893 707.409 761.177 705.488 761.177C702.465 761.177 699.772 760.462 697.409 759.03C695.045 757.587 693.181 755.524 691.818 752.842C690.465 750.16 689.789 746.962 689.789 743.246C689.789 739.518 690.471 736.32 691.835 733.649C693.198 730.967 695.062 728.91 697.426 727.479C699.789 726.035 702.477 725.314 705.488 725.314C707.34 725.314 709.068 725.581 710.67 726.115C712.284 726.638 713.733 727.41 715.017 728.433C716.301 729.445 717.363 730.683 718.204 732.149C719.045 733.604 719.613 735.268 719.909 737.143ZM756.535 743.246C756.535 746.973 755.853 750.177 754.49 752.859C753.126 755.53 751.257 757.587 748.882 759.03C746.518 760.462 743.831 761.177 740.819 761.177C737.796 761.177 735.098 760.462 732.723 759.03C730.359 757.587 728.495 755.524 727.132 752.842C725.768 750.16 725.086 746.962 725.086 743.246C725.086 739.518 725.768 736.32 727.132 733.649C728.495 730.967 730.359 728.91 732.723 727.479C735.098 726.035 737.796 725.314 740.819 725.314C743.831 725.314 746.518 726.035 748.882 727.479C751.257 728.91 753.126 730.967 754.49 733.649C755.853 736.32 756.535 739.518 756.535 743.246ZM751.319 743.246C751.319 740.405 750.859 738.013 749.938 736.07C749.029 734.115 747.779 732.638 746.188 731.638C744.609 730.626 742.819 730.121 740.819 730.121C738.808 730.121 737.012 730.626 735.433 731.638C733.853 732.638 732.603 734.115 731.683 736.07C730.774 738.013 730.319 740.405 730.319 743.246C730.319 746.087 730.774 748.484 731.683 750.439C732.603 752.382 733.853 753.859 735.433 754.871C737.012 755.871 738.808 756.371 740.819 756.371C742.819 756.371 744.609 755.871 746.188 754.871C747.779 753.859 749.029 752.382 749.938 750.439C750.859 748.484 751.319 746.087 751.319 743.246ZM774.403 760.7H763.102V725.791H774.761C778.181 725.791 781.119 726.49 783.573 727.888C786.028 729.274 787.909 731.268 789.215 733.871C790.534 736.462 791.193 739.57 791.193 743.195C791.193 746.831 790.528 749.956 789.198 752.57C787.88 755.183 785.971 757.195 783.471 758.604C780.971 760.001 777.948 760.7 774.403 760.7ZM768.369 756.098H774.113C776.772 756.098 778.983 755.598 780.744 754.598C782.505 753.587 783.823 752.126 784.698 750.217C785.573 748.297 786.011 745.956 786.011 743.195C786.011 740.456 785.573 738.132 784.698 736.223C783.835 734.314 782.545 732.865 780.829 731.876C779.113 730.888 776.983 730.393 774.437 730.393H768.369V756.098ZM832.894 725.791H838.179V748.751C838.179 751.195 837.605 753.359 836.457 755.246C835.309 757.121 833.696 758.598 831.616 759.677C829.536 760.746 827.099 761.28 824.304 761.28C821.519 761.28 819.088 760.746 817.008 759.677C814.929 758.598 813.315 757.121 812.167 755.246C811.019 753.359 810.446 751.195 810.446 748.751V725.791H815.713V748.325C815.713 749.905 816.059 751.308 816.752 752.535C817.457 753.763 818.451 754.729 819.735 755.433C821.019 756.126 822.542 756.473 824.304 756.473C826.076 756.473 827.605 756.126 828.889 755.433C830.184 754.729 831.173 753.763 831.855 752.535C832.548 751.308 832.894 749.905 832.894 748.325V725.791ZM850.524 745.155V760.7H845.427V734.518H850.319V738.78H850.643C851.245 737.393 852.188 736.28 853.473 735.439C854.768 734.598 856.399 734.177 858.365 734.177C860.149 734.177 861.711 734.552 863.052 735.302C864.393 736.041 865.433 737.143 866.171 738.609C866.91 740.075 867.279 741.888 867.279 744.047V760.7H862.183V744.66C862.183 742.763 861.688 741.28 860.7 740.212C859.711 739.132 858.353 738.592 856.626 738.592C855.444 738.592 854.393 738.848 853.473 739.359C852.563 739.871 851.842 740.621 851.308 741.609C850.785 742.587 850.524 743.768 850.524 745.155ZM881.734 761.28C880.075 761.28 878.575 760.973 877.234 760.359C875.893 759.734 874.831 758.831 874.046 757.649C873.274 756.467 872.887 755.018 872.887 753.302C872.887 751.825 873.171 750.609 873.74 749.655C874.308 748.7 875.075 747.945 876.041 747.388C877.007 746.831 878.086 746.41 879.279 746.126C880.473 745.842 881.688 745.626 882.927 745.479C884.495 745.297 885.768 745.149 886.745 745.035C887.723 744.91 888.433 744.712 888.876 744.439C889.319 744.166 889.541 743.723 889.541 743.109V742.99C889.541 741.501 889.12 740.348 888.279 739.53C887.45 738.712 886.211 738.302 884.563 738.302C882.848 738.302 881.495 738.683 880.507 739.445C879.529 740.195 878.853 741.03 878.478 741.95L873.688 740.859C874.257 739.268 875.086 737.984 876.177 737.007C877.279 736.018 878.546 735.302 879.978 734.859C881.41 734.405 882.916 734.177 884.495 734.177C885.541 734.177 886.649 734.302 887.819 734.552C889.001 734.791 890.103 735.234 891.126 735.882C892.16 736.53 893.007 737.456 893.666 738.66C894.325 739.854 894.654 741.405 894.654 743.314V760.7H889.677V757.121H889.473C889.143 757.78 888.649 758.427 887.99 759.064C887.331 759.7 886.484 760.229 885.45 760.649C884.416 761.07 883.177 761.28 881.734 761.28ZM882.842 757.189C884.251 757.189 885.456 756.91 886.456 756.354C887.467 755.797 888.234 755.07 888.757 754.172C889.291 753.263 889.558 752.291 889.558 751.257V747.882C889.376 748.064 889.024 748.234 888.501 748.393C887.99 748.541 887.404 748.672 886.745 748.785C886.086 748.888 885.444 748.984 884.819 749.075C884.194 749.155 883.671 749.223 883.251 749.28C882.262 749.405 881.359 749.615 880.541 749.91C879.734 750.206 879.086 750.632 878.598 751.189C878.12 751.734 877.882 752.462 877.882 753.371C877.882 754.632 878.348 755.587 879.279 756.234C880.211 756.871 881.399 757.189 882.842 757.189ZM922.903 734.518L913.409 760.7H907.954L898.443 734.518H903.914L910.545 754.666H910.818L917.431 734.518H922.903ZM934.562 761.28C932.903 761.28 931.403 760.973 930.062 760.359C928.721 759.734 927.659 758.831 926.875 757.649C926.102 756.467 925.715 755.018 925.715 753.302C925.715 751.825 926 750.609 926.568 749.655C927.136 748.7 927.903 747.945 928.869 747.388C929.835 746.831 930.914 746.41 932.108 746.126C933.301 745.842 934.517 745.626 935.755 745.479C937.323 745.297 938.596 745.149 939.573 745.035C940.551 744.91 941.261 744.712 941.704 744.439C942.147 744.166 942.369 743.723 942.369 743.109V742.99C942.369 741.501 941.948 740.348 941.108 739.53C940.278 738.712 939.039 738.302 937.392 738.302C935.676 738.302 934.323 738.683 933.335 739.445C932.358 740.195 931.681 741.03 931.306 741.95L926.517 740.859C927.085 739.268 927.914 737.984 929.005 737.007C930.108 736.018 931.375 735.302 932.806 734.859C934.238 734.405 935.744 734.177 937.323 734.177C938.369 734.177 939.477 734.302 940.647 734.552C941.829 734.791 942.931 735.234 943.954 735.882C944.988 736.53 945.835 737.456 946.494 738.66C947.153 739.854 947.483 741.405 947.483 743.314V760.7H942.505V757.121H942.301C941.971 757.78 941.477 758.427 940.818 759.064C940.159 759.7 939.312 760.229 938.278 760.649C937.244 761.07 936.005 761.28 934.562 761.28ZM935.67 757.189C937.079 757.189 938.284 756.91 939.284 756.354C940.295 755.797 941.062 755.07 941.585 754.172C942.119 753.263 942.386 752.291 942.386 751.257V747.882C942.204 748.064 941.852 748.234 941.329 748.393C940.818 748.541 940.233 748.672 939.573 748.785C938.914 748.888 938.272 748.984 937.647 749.075C937.022 749.155 936.5 749.223 936.079 749.28C935.09 749.405 934.187 749.615 933.369 749.91C932.562 750.206 931.914 750.632 931.426 751.189C930.948 751.734 930.71 752.462 930.71 753.371C930.71 754.632 931.176 755.587 932.108 756.234C933.039 756.871 934.227 757.189 935.67 757.189ZM954.271 760.7V734.518H959.367V760.7H954.271ZM956.845 730.479C955.958 730.479 955.197 730.183 954.561 729.592C953.936 728.99 953.623 728.274 953.623 727.445C953.623 726.604 953.936 725.888 954.561 725.297C955.197 724.695 955.958 724.393 956.845 724.393C957.731 724.393 958.487 724.695 959.112 725.297C959.748 725.888 960.066 726.604 960.066 727.445C960.066 728.274 959.748 728.99 959.112 729.592C958.487 730.183 957.731 730.479 956.845 730.479ZM971.321 725.791V760.7H966.224V725.791H971.321ZM985.796 761.28C984.137 761.28 982.637 760.973 981.296 760.359C979.956 759.734 978.893 758.831 978.109 757.649C977.336 756.467 976.95 755.018 976.95 753.302C976.95 751.825 977.234 750.609 977.802 749.655C978.37 748.7 979.137 747.945 980.103 747.388C981.069 746.831 982.149 746.41 983.342 746.126C984.535 745.842 985.751 745.626 986.99 745.479C988.558 745.297 989.831 745.149 990.808 745.035C991.785 744.91 992.495 744.712 992.938 744.439C993.382 744.166 993.603 743.723 993.603 743.109V742.99C993.603 741.501 993.183 740.348 992.342 739.53C991.512 738.712 990.274 738.302 988.626 738.302C986.91 738.302 985.558 738.683 984.569 739.445C983.592 740.195 982.916 741.03 982.541 741.95L977.751 740.859C978.319 739.268 979.149 737.984 980.24 737.007C981.342 736.018 982.609 735.302 984.041 734.859C985.473 734.405 986.978 734.177 988.558 734.177C989.603 734.177 990.711 734.302 991.882 734.552C993.063 734.791 994.166 735.234 995.188 735.882C996.223 736.53 997.069 737.456 997.728 738.66C998.387 739.854 998.717 741.405 998.717 743.314V760.7H993.74V757.121H993.535C993.206 757.78 992.711 758.427 992.052 759.064C991.393 759.7 990.546 760.229 989.512 760.649C988.478 761.07 987.24 761.28 985.796 761.28ZM986.904 757.189C988.313 757.189 989.518 756.91 990.518 756.354C991.529 755.797 992.296 755.07 992.819 754.172C993.353 753.263 993.62 752.291 993.62 751.257V747.882C993.438 748.064 993.086 748.234 992.563 748.393C992.052 748.541 991.467 748.672 990.808 748.785C990.149 748.888 989.507 748.984 988.882 749.075C988.257 749.155 987.734 749.223 987.313 749.28C986.325 749.405 985.421 749.615 984.603 749.91C983.796 750.206 983.149 750.632 982.66 751.189C982.183 751.734 981.944 752.462 981.944 753.371C981.944 754.632 982.41 755.587 983.342 756.234C984.274 756.871 985.461 757.189 986.904 757.189ZM1005.91 760.7V725.791H1011.01V738.763H1011.32C1011.61 738.217 1012.04 737.587 1012.6 736.871C1013.15 736.155 1013.93 735.53 1014.91 734.996C1015.9 734.45 1017.21 734.177 1018.83 734.177C1020.95 734.177 1022.83 734.712 1024.49 735.78C1026.15 736.848 1027.45 738.388 1028.4 740.399C1029.35 742.41 1029.83 744.831 1029.83 747.66C1029.83 750.49 1029.36 752.916 1028.41 754.939C1027.47 756.95 1026.18 758.501 1024.53 759.592C1022.88 760.672 1021 761.212 1018.89 761.212C1017.3 761.212 1015.99 760.945 1014.98 760.41C1013.98 759.876 1013.2 759.251 1012.63 758.535C1012.06 757.82 1011.62 757.183 1011.32 756.626H1010.89V760.7H1005.91ZM1010.91 747.609C1010.91 749.45 1011.18 751.064 1011.71 752.45C1012.24 753.837 1013.02 754.922 1014.03 755.706C1015.04 756.479 1016.28 756.865 1017.74 756.865C1019.27 756.865 1020.54 756.462 1021.56 755.655C1022.58 754.837 1023.36 753.729 1023.88 752.331C1024.41 750.933 1024.68 749.359 1024.68 747.609C1024.68 745.882 1024.42 744.331 1023.9 742.956C1023.39 741.581 1022.61 740.496 1021.58 739.7C1020.56 738.905 1019.28 738.507 1017.74 738.507C1016.27 738.507 1015.02 738.888 1013.99 739.649C1012.98 740.41 1012.22 741.473 1011.69 742.837C1011.17 744.2 1010.91 745.791 1010.91 747.609ZM1040.65 725.791V760.7H1035.55V725.791H1040.65ZM1058.79 761.229C1056.21 761.229 1053.99 760.677 1052.12 759.575C1050.27 758.462 1048.84 756.899 1047.83 754.888C1046.83 752.865 1046.33 750.496 1046.33 747.78C1046.33 745.098 1046.83 742.734 1047.83 740.689C1048.84 738.643 1050.25 737.047 1052.06 735.899C1053.87 734.751 1056 734.177 1058.43 734.177C1059.91 734.177 1061.34 734.422 1062.73 734.91C1064.11 735.399 1065.36 736.166 1066.46 737.212C1067.56 738.257 1068.43 739.615 1069.07 741.285C1069.7 742.945 1070.02 744.962 1070.02 747.337V749.143H1049.21V745.325H1065.03C1065.03 743.984 1064.76 742.797 1064.21 741.763C1063.66 740.717 1062.9 739.893 1061.91 739.291C1060.93 738.689 1059.78 738.388 1058.47 738.388C1057.03 738.388 1055.78 738.74 1054.72 739.445C1053.66 740.138 1052.84 741.047 1052.26 742.172C1051.69 743.285 1051.41 744.496 1051.41 745.802V748.785C1051.41 750.535 1051.72 752.024 1052.33 753.251C1052.95 754.479 1053.82 755.416 1054.94 756.064C1056.05 756.7 1057.35 757.018 1058.84 757.018C1059.81 757.018 1060.69 756.882 1061.48 756.609C1062.28 756.325 1062.97 755.905 1063.55 755.348C1064.12 754.791 1064.57 754.104 1064.87 753.285L1069.7 754.155C1069.31 755.575 1068.62 756.82 1067.62 757.888C1066.63 758.945 1065.39 759.768 1063.89 760.359C1062.4 760.939 1060.7 761.229 1058.79 761.229Z" fill="black"/>
<rect x="250.6" y="928.6" width="480" height="28.8" rx="14.4" fill="#A9CEBA"/>
<rect x="250.6" y="998.199" width="278.4" height="28.8" rx="14.4" fill="#A9CEBA"/>
<rect x="250.6" y="1067.8" width="480" height="91.6" rx="45.8" fill="white"/>
<path d="M284.8 1091.2C297.188 1091.2 307.2 1101.21 307.2 1113.6C307.2 1125.99 297.188 1136 284.8 1136C272.413 1136 262.4 1125.99 262.4 1113.6C262.4 1101.21 272.413 1091.2 284.8 1091.2ZM292.842 1102.4L284.8 1110.44L276.759 1102.4L273.6 1105.56L281.642 1113.6L273.6 1121.64L276.759 1124.8L284.8 1116.76L292.842 1124.8L296 1121.64L287.959 1113.6L296 1105.56L292.842 1102.4Z" fill="#FF0000"/>
<path d="M370.109 1107.04H364.791C364.586 1105.91 364.205 1104.91 363.649 1104.04C363.092 1103.18 362.41 1102.45 361.603 1101.84C360.796 1101.24 359.893 1100.79 358.893 1100.48C357.904 1100.17 356.853 1100.02 355.74 1100.02C353.728 1100.02 351.927 1100.53 350.336 1101.54C348.757 1102.55 347.507 1104.03 346.586 1105.99C345.677 1107.94 345.222 1110.33 345.222 1113.15C345.222 1115.99 345.677 1118.38 346.586 1120.34C347.507 1122.29 348.762 1123.77 350.353 1124.77C351.944 1125.77 353.734 1126.27 355.722 1126.27C356.825 1126.27 357.87 1126.12 358.859 1125.83C359.859 1125.52 360.762 1125.07 361.569 1124.48C362.376 1123.89 363.058 1123.17 363.615 1122.32C364.183 1121.45 364.575 1120.46 364.791 1119.35L370.109 1119.37C369.825 1121.08 369.274 1122.66 368.455 1124.11C367.649 1125.54 366.609 1126.78 365.336 1127.82C364.075 1128.86 362.632 1129.66 361.007 1130.22C359.382 1130.79 357.609 1131.08 355.688 1131.08C352.666 1131.08 349.972 1130.36 347.609 1128.93C345.245 1127.49 343.382 1125.42 342.018 1122.74C340.666 1120.06 339.99 1116.86 339.99 1113.15C339.99 1109.42 340.671 1106.22 342.035 1103.55C343.399 1100.87 345.262 1098.81 347.626 1097.38C349.99 1095.93 352.677 1095.21 355.688 1095.21C357.541 1095.21 359.268 1095.48 360.87 1096.01C362.484 1096.54 363.933 1097.31 365.217 1098.33C366.501 1099.34 367.563 1100.58 368.404 1102.05C369.245 1103.5 369.813 1105.17 370.109 1107.04ZM406.735 1113.15C406.735 1116.87 406.053 1120.08 404.69 1122.76C403.326 1125.43 401.457 1127.49 399.082 1128.93C396.718 1130.36 394.031 1131.08 391.019 1131.08C387.997 1131.08 385.298 1130.36 382.923 1128.93C380.559 1127.49 378.695 1125.42 377.332 1122.74C375.968 1120.06 375.286 1116.86 375.286 1113.15C375.286 1109.42 375.968 1106.22 377.332 1103.55C378.695 1100.87 380.559 1098.81 382.923 1097.38C385.298 1095.93 387.997 1095.21 391.019 1095.21C394.031 1095.21 396.718 1095.93 399.082 1097.38C401.457 1098.81 403.326 1100.87 404.69 1103.55C406.053 1106.22 406.735 1109.42 406.735 1113.15ZM401.519 1113.15C401.519 1110.3 401.059 1107.91 400.139 1105.97C399.23 1104.01 397.98 1102.54 396.389 1101.54C394.809 1100.53 393.019 1100.02 391.019 1100.02C389.008 1100.02 387.213 1100.53 385.633 1101.54C384.053 1102.54 382.803 1104.01 381.883 1105.97C380.974 1107.91 380.519 1110.3 380.519 1113.15C380.519 1115.99 380.974 1118.38 381.883 1120.34C382.803 1122.28 384.053 1123.76 385.633 1124.77C387.213 1125.77 389.008 1126.27 391.019 1126.27C393.019 1126.27 394.809 1125.77 396.389 1124.77C397.98 1123.76 399.23 1122.28 400.139 1120.34C401.059 1118.38 401.519 1115.99 401.519 1113.15ZM424.603 1130.6H413.302V1095.69H424.961C428.382 1095.69 431.319 1096.39 433.774 1097.79C436.228 1099.17 438.109 1101.17 439.416 1103.77C440.734 1106.36 441.393 1109.47 441.393 1113.09C441.393 1116.73 440.728 1119.86 439.399 1122.47C438.08 1125.08 436.171 1127.09 433.671 1128.5C431.171 1129.9 428.149 1130.6 424.603 1130.6ZM418.569 1126H424.313C426.972 1126 429.183 1125.5 430.944 1124.5C432.705 1123.49 434.024 1122.03 434.899 1120.12C435.774 1118.2 436.211 1115.86 436.211 1113.09C436.211 1110.36 435.774 1108.03 434.899 1106.12C434.035 1104.21 432.745 1102.76 431.029 1101.78C429.313 1100.79 427.183 1100.29 424.637 1100.29H418.569V1126ZM483.095 1095.69H488.379V1118.65C488.379 1121.09 487.805 1123.26 486.657 1125.15C485.509 1127.02 483.896 1128.5 481.816 1129.58C479.737 1130.65 477.299 1131.18 474.504 1131.18C471.72 1131.18 469.288 1130.65 467.208 1129.58C465.129 1128.5 463.515 1127.02 462.367 1125.15C461.22 1123.26 460.646 1121.09 460.646 1118.65V1095.69H465.913V1118.22C465.913 1119.8 466.259 1121.21 466.953 1122.43C467.657 1123.66 468.651 1124.63 469.936 1125.33C471.22 1126.03 472.742 1126.37 474.504 1126.37C476.276 1126.37 477.805 1126.03 479.089 1125.33C480.384 1124.63 481.373 1123.66 482.055 1122.43C482.748 1121.21 483.095 1119.8 483.095 1118.22V1095.69ZM500.724 1115.05V1130.6H495.627V1104.42H500.519V1108.68H500.843C501.445 1107.29 502.389 1106.18 503.673 1105.34C504.968 1104.5 506.599 1104.08 508.565 1104.08C510.349 1104.08 511.911 1104.45 513.252 1105.2C514.593 1105.94 515.633 1107.04 516.372 1108.51C517.11 1109.97 517.48 1111.79 517.48 1113.95V1130.6H512.383V1114.56C512.383 1112.66 511.889 1111.18 510.9 1110.11C509.911 1109.03 508.553 1108.49 506.826 1108.49C505.644 1108.49 504.593 1108.75 503.673 1109.26C502.764 1109.77 502.042 1110.52 501.508 1111.51C500.985 1112.49 500.724 1113.67 500.724 1115.05ZM531.934 1131.18C530.275 1131.18 528.775 1130.87 527.434 1130.26C526.093 1129.63 525.031 1128.73 524.247 1127.55C523.474 1126.37 523.088 1124.92 523.088 1123.2C523.088 1121.72 523.372 1120.51 523.94 1119.55C524.508 1118.6 525.275 1117.84 526.241 1117.29C527.207 1116.73 528.286 1116.31 529.48 1116.03C530.673 1115.74 531.889 1115.53 533.127 1115.38C534.695 1115.2 535.968 1115.05 536.945 1114.93C537.923 1114.81 538.633 1114.61 539.076 1114.34C539.519 1114.07 539.741 1113.62 539.741 1113.01V1112.89C539.741 1111.4 539.32 1110.25 538.48 1109.43C537.65 1108.61 536.411 1108.2 534.764 1108.2C533.048 1108.2 531.695 1108.58 530.707 1109.34C529.73 1110.09 529.053 1110.93 528.678 1111.85L523.889 1110.76C524.457 1109.17 525.286 1107.88 526.377 1106.91C527.48 1105.92 528.747 1105.2 530.178 1104.76C531.61 1104.3 533.116 1104.08 534.695 1104.08C535.741 1104.08 536.849 1104.2 538.019 1104.45C539.201 1104.69 540.303 1105.13 541.326 1105.78C542.36 1106.43 543.207 1107.36 543.866 1108.56C544.525 1109.75 544.855 1111.3 544.855 1113.21V1130.6H539.877V1127.02H539.673C539.343 1127.68 538.849 1128.33 538.19 1128.96C537.531 1129.6 536.684 1130.13 535.65 1130.55C534.616 1130.97 533.377 1131.18 531.934 1131.18ZM533.042 1127.09C534.451 1127.09 535.656 1126.81 536.656 1126.25C537.667 1125.7 538.434 1124.97 538.957 1124.07C539.491 1123.16 539.758 1122.19 539.758 1121.16V1117.78C539.576 1117.96 539.224 1118.13 538.701 1118.29C538.19 1118.44 537.605 1118.57 536.945 1118.68C536.286 1118.79 535.644 1118.88 535.019 1118.97C534.394 1119.05 533.872 1119.12 533.451 1119.18C532.463 1119.3 531.559 1119.51 530.741 1119.81C529.934 1120.11 529.286 1120.53 528.798 1121.09C528.32 1121.63 528.082 1122.36 528.082 1123.27C528.082 1124.53 528.548 1125.49 529.48 1126.13C530.411 1126.77 531.599 1127.09 533.042 1127.09ZM573.103 1104.42L563.609 1130.6H558.154L548.643 1104.42H554.115L560.745 1124.57H561.018L567.632 1104.42H573.103ZM584.762 1131.18C583.103 1131.18 581.603 1130.87 580.262 1130.26C578.921 1129.63 577.859 1128.73 577.075 1127.55C576.302 1126.37 575.916 1124.92 575.916 1123.2C575.916 1121.72 576.2 1120.51 576.768 1119.55C577.336 1118.6 578.103 1117.84 579.069 1117.29C580.035 1116.73 581.115 1116.31 582.308 1116.03C583.501 1115.74 584.717 1115.53 585.955 1115.38C587.524 1115.2 588.796 1115.05 589.774 1114.93C590.751 1114.81 591.461 1114.61 591.904 1114.34C592.347 1114.07 592.569 1113.62 592.569 1113.01V1112.89C592.569 1111.4 592.149 1110.25 591.308 1109.43C590.478 1108.61 589.24 1108.2 587.592 1108.2C585.876 1108.2 584.524 1108.58 583.535 1109.34C582.558 1110.09 581.882 1110.93 581.507 1111.85L576.717 1110.76C577.285 1109.17 578.115 1107.88 579.205 1106.91C580.308 1105.92 581.575 1105.2 583.007 1104.76C584.438 1104.3 585.944 1104.08 587.524 1104.08C588.569 1104.08 589.677 1104.2 590.847 1104.45C592.029 1104.69 593.132 1105.13 594.154 1105.78C595.188 1106.43 596.035 1107.36 596.694 1108.56C597.353 1109.75 597.683 1111.3 597.683 1113.21V1130.6H592.705V1127.02H592.501C592.171 1127.68 591.677 1128.33 591.018 1128.96C590.359 1129.6 589.512 1130.13 588.478 1130.55C587.444 1130.97 586.205 1131.18 584.762 1131.18ZM585.87 1127.09C587.279 1127.09 588.484 1126.81 589.484 1126.25C590.495 1125.7 591.262 1124.97 591.785 1124.07C592.319 1123.16 592.586 1122.19 592.586 1121.16V1117.78C592.404 1117.96 592.052 1118.13 591.529 1118.29C591.018 1118.44 590.433 1118.57 589.774 1118.68C589.115 1118.79 588.472 1118.88 587.847 1118.97C587.222 1119.05 586.7 1119.12 586.279 1119.18C585.291 1119.3 584.387 1119.51 583.569 1119.81C582.762 1120.11 582.115 1120.53 581.626 1121.09C581.149 1121.63 580.91 1122.36 580.91 1123.27C580.91 1124.53 581.376 1125.49 582.308 1126.13C583.24 1126.77 584.427 1127.09 585.87 1127.09ZM604.471 1130.6V1104.42H609.568V1130.6H604.471ZM607.045 1100.38C606.159 1100.38 605.397 1100.08 604.761 1099.49C604.136 1098.89 603.823 1098.17 603.823 1097.34C603.823 1096.5 604.136 1095.79 604.761 1095.2C605.397 1094.59 606.159 1094.29 607.045 1094.29C607.931 1094.29 608.687 1094.59 609.312 1095.2C609.948 1095.79 610.267 1096.5 610.267 1097.34C610.267 1098.17 609.948 1098.89 609.312 1099.49C608.687 1100.08 607.931 1100.38 607.045 1100.38ZM621.521 1095.69V1130.6H616.424V1095.69H621.521ZM635.997 1131.18C634.338 1131.18 632.838 1130.87 631.497 1130.26C630.156 1129.63 629.093 1128.73 628.309 1127.55C627.536 1126.37 627.15 1124.92 627.15 1123.2C627.15 1121.72 627.434 1120.51 628.002 1119.55C628.57 1118.6 629.338 1117.84 630.303 1117.29C631.269 1116.73 632.349 1116.31 633.542 1116.03C634.735 1115.74 635.951 1115.53 637.19 1115.38C638.758 1115.2 640.031 1115.05 641.008 1114.93C641.985 1114.81 642.695 1114.61 643.139 1114.34C643.582 1114.07 643.803 1113.62 643.803 1113.01V1112.89C643.803 1111.4 643.383 1110.25 642.542 1109.43C641.713 1108.61 640.474 1108.2 638.826 1108.2C637.11 1108.2 635.758 1108.58 634.769 1109.34C633.792 1110.09 633.116 1110.93 632.741 1111.85L627.951 1110.76C628.519 1109.17 629.349 1107.88 630.44 1106.91C631.542 1105.92 632.809 1105.2 634.241 1104.76C635.673 1104.3 637.178 1104.08 638.758 1104.08C639.803 1104.08 640.911 1104.2 642.082 1104.45C643.264 1104.69 644.366 1105.13 645.389 1105.78C646.423 1106.43 647.269 1107.36 647.928 1108.56C648.588 1109.75 648.917 1111.3 648.917 1113.21V1130.6H643.94V1127.02H643.735C643.406 1127.68 642.911 1128.33 642.252 1128.96C641.593 1129.6 640.747 1130.13 639.713 1130.55C638.678 1130.97 637.44 1131.18 635.997 1131.18ZM637.105 1127.09C638.514 1127.09 639.718 1126.81 640.718 1126.25C641.73 1125.7 642.497 1124.97 643.019 1124.07C643.553 1123.16 643.82 1122.19 643.82 1121.16V1117.78C643.639 1117.96 643.286 1118.13 642.764 1118.29C642.252 1118.44 641.667 1118.57 641.008 1118.68C640.349 1118.79 639.707 1118.88 639.082 1118.97C638.457 1119.05 637.934 1119.12 637.514 1119.18C636.525 1119.3 635.622 1119.51 634.803 1119.81C633.997 1120.11 633.349 1120.53 632.86 1121.09C632.383 1121.63 632.144 1122.36 632.144 1123.27C632.144 1124.53 632.61 1125.49 633.542 1126.13C634.474 1126.77 635.661 1127.09 637.105 1127.09ZM656.115 1130.6V1095.69H661.211V1108.66H661.518C661.813 1108.12 662.24 1107.49 662.796 1106.77C663.353 1106.05 664.126 1105.43 665.115 1104.9C666.103 1104.35 667.41 1104.08 669.035 1104.08C671.149 1104.08 673.035 1104.61 674.694 1105.68C676.353 1106.75 677.654 1108.29 678.597 1110.3C679.552 1112.31 680.029 1114.73 680.029 1117.56C680.029 1120.39 679.558 1122.82 678.615 1124.84C677.671 1126.85 676.376 1128.4 674.728 1129.49C673.08 1130.57 671.2 1131.11 669.086 1131.11C667.495 1131.11 666.194 1130.84 665.183 1130.31C664.183 1129.78 663.399 1129.15 662.83 1128.43C662.262 1127.72 661.825 1127.08 661.518 1126.53H661.092V1130.6H656.115ZM661.109 1117.51C661.109 1119.35 661.376 1120.96 661.91 1122.35C662.444 1123.74 663.217 1124.82 664.228 1125.61C665.24 1126.38 666.478 1126.76 667.944 1126.76C669.467 1126.76 670.74 1126.36 671.762 1125.55C672.785 1124.74 673.558 1123.63 674.08 1122.23C674.615 1120.83 674.882 1119.26 674.882 1117.51C674.882 1115.78 674.62 1114.23 674.097 1112.86C673.586 1111.48 672.813 1110.4 671.779 1109.6C670.757 1108.8 669.478 1108.41 667.944 1108.41C666.467 1108.41 665.217 1108.79 664.194 1109.55C663.183 1110.31 662.416 1111.37 661.893 1112.74C661.37 1114.1 661.109 1115.69 661.109 1117.51ZM690.849 1095.69V1130.6H685.752V1095.69H690.849ZM708.99 1131.13C706.41 1131.13 704.188 1130.58 702.325 1129.47C700.472 1128.36 699.041 1126.8 698.029 1124.79C697.029 1122.76 696.529 1120.4 696.529 1117.68C696.529 1115 697.029 1112.63 698.029 1110.59C699.041 1108.54 700.45 1106.95 702.257 1105.8C704.075 1104.65 706.2 1104.08 708.632 1104.08C710.109 1104.08 711.541 1104.32 712.927 1104.81C714.313 1105.3 715.558 1106.07 716.66 1107.11C717.762 1108.16 718.632 1109.51 719.268 1111.18C719.904 1112.84 720.222 1114.86 720.222 1117.24V1119.04H699.41V1115.22H715.228C715.228 1113.88 714.955 1112.7 714.41 1111.66C713.865 1110.62 713.097 1109.79 712.109 1109.19C711.132 1108.59 709.984 1108.29 708.666 1108.29C707.234 1108.29 705.984 1108.64 704.916 1109.34C703.859 1110.04 703.041 1110.95 702.461 1112.07C701.893 1113.18 701.609 1114.4 701.609 1115.7V1118.68C701.609 1120.43 701.916 1121.92 702.529 1123.15C703.154 1124.38 704.024 1125.32 705.137 1125.96C706.251 1126.6 707.552 1126.92 709.041 1126.92C710.007 1126.92 710.887 1126.78 711.683 1126.51C712.478 1126.22 713.166 1125.8 713.745 1125.25C714.325 1124.69 714.768 1124 715.075 1123.18L719.899 1124.05C719.512 1125.47 718.819 1126.72 717.819 1127.79C716.83 1128.84 715.586 1129.67 714.086 1130.26C712.597 1130.84 710.899 1131.13 708.99 1131.13Z" fill="black"/>
<path d="M988.732 1108C976.892 1108 967.399 1117.49 967.399 1129.33C967.399 1134.99 969.646 1140.42 973.647 1144.42C977.648 1148.42 983.074 1150.67 988.732 1150.67C994.39 1150.67 999.816 1148.42 1003.82 1144.42C1007.82 1140.42 1010.07 1134.99 1010.07 1129.33C1010.07 1123.68 1007.82 1118.25 1003.82 1114.25C999.816 1110.25 994.39 1108 988.732 1108ZM818.065 937.333V958.666H839.399L877.799 1039.63L863.292 1065.76C861.692 1068.75 860.732 1072.27 860.732 1076C860.732 1081.66 862.98 1087.08 866.98 1091.08C870.981 1095.09 876.407 1097.33 882.065 1097.33H1010.07V1076H886.545C885.838 1076 885.16 1075.72 884.66 1075.22C884.16 1074.72 883.879 1074.04 883.879 1073.33C883.879 1072.8 883.985 1072.37 884.199 1072.05L893.799 1054.67H973.265C981.265 1054.67 988.305 1050.19 991.932 1043.68L1030.12 974.666C1030.87 972.96 1031.4 971.146 1031.4 969.333C1031.4 966.504 1030.27 963.791 1028.27 961.791C1026.27 959.79 1023.56 958.666 1020.73 958.666H862.972L852.945 937.333M882.065 1108C870.225 1108 860.732 1117.49 860.732 1129.33C860.732 1134.99 862.98 1140.42 866.98 1144.42C870.981 1148.42 876.407 1150.67 882.065 1150.67C887.723 1150.67 893.15 1148.42 897.15 1144.42C901.151 1140.42 903.399 1134.99 903.399 1129.33C903.399 1123.68 901.151 1118.25 897.15 1114.25C893.15 1110.25 887.723 1108 882.065 1108Z" fill="#105004"/>
<path d="M217 617C214.25 617 211.897 616.022 209.94 614.065C207.983 612.108 207.003 609.753 207 607V557C207 554.25 207.98 551.897 209.94 549.94C211.9 547.983 214.253 547.003 217 547H222V537C222 530.083 224.438 524.188 229.315 519.315C234.192 514.442 240.087 512.003 247 512C253.913 511.997 259.81 514.435 264.69 519.315C269.57 524.195 272.007 530.09 272 537V547H277C279.75 547 282.105 547.98 284.065 549.94C286.025 551.9 287.003 554.253 287 557V607C287 609.75 286.022 612.105 284.065 614.065C282.108 616.025 279.753 617.003 277 617H217ZM247 592C249.75 592 252.105 591.022 254.065 589.065C256.025 587.108 257.003 584.753 257 582C256.997 579.247 256.018 576.893 254.065 574.94C252.112 572.987 249.757 572.007 247 572C244.243 571.993 241.89 572.973 239.94 574.94C237.99 576.907 237.01 579.26 237 582C236.99 584.74 237.97 587.095 239.94 589.065C241.91 591.035 244.263 592.013 247 592ZM232 547H262V537C262 532.833 260.542 529.292 257.625 526.375C254.708 523.458 251.167 522 247 522C242.833 522 239.292 523.458 236.375 526.375C233.458 529.292 232 532.833 232 537V547Z" fill="#105004"/>
<path fill-rule="evenodd" clip-rule="evenodd" d="M1049.49 126.975C1051.75 126.127 1054.25 126.127 1056.51 126.975L1091.51 140.1C1093.42 140.815 1095.06 142.094 1096.22 143.768C1097.38 145.441 1098 147.429 1098 149.465V176.28C1098 184.637 1095.67 192.829 1091.28 199.938C1086.89 207.047 1080.6 212.793 1073.12 216.53L1056.35 224.915C1055.31 225.436 1054.16 225.707 1053 225.707C1051.84 225.707 1050.69 225.436 1049.65 224.915L1032.88 216.53C1025.4 212.793 1019.11 207.047 1014.72 199.938C1010.33 192.829 1008 184.637 1008 176.28V149.465C1008 147.429 1008.62 145.441 1009.78 143.768C1010.94 142.094 1012.58 140.815 1014.49 140.1L1049.49 126.975ZM1053 136.34L1018 149.465V176.28C1018 182.779 1019.81 189.15 1023.23 194.678C1026.65 200.207 1031.54 204.674 1037.35 207.58L1053 215.415V136.34Z" fill="#105004"/>
</svg>
