<svg width="500" height="400" viewBox="0 0 500 400" fill="none" xmlns="http://www.w3.org/2000/svg">
<rect width="500" height="400" rx="20" fill="white"/>
<g opacity="0.8">
<rect x="33" y="95" width="180" height="176" rx="19.2" fill="#105004" fill-opacity="0.2"/>
<path d="M148.65 231.85C143.1 231.85 138.65 236.3 138.65 241.85C138.65 244.502 139.703 247.045 141.579 248.921C143.454 250.796 145.998 251.85 148.65 251.85C151.302 251.85 153.845 250.796 155.721 248.921C157.596 247.045 158.65 244.502 158.65 241.85C158.65 239.198 157.596 236.654 155.721 234.779C153.845 232.903 151.302 231.85 148.65 231.85ZM68.6498 151.85V161.85H78.6498L96.6498 199.8L89.8498 212.05C89.0998 213.45 88.6498 215.1 88.6498 216.85C88.6498 219.502 89.7033 222.045 91.5787 223.921C93.4541 225.796 95.9976 226.85 98.6498 226.85H158.65V216.85H100.75C100.418 216.85 100.1 216.718 99.8659 216.484C99.6315 216.249 99.4998 215.931 99.4998 215.6C99.4998 215.35 99.5498 215.15 99.6498 215L104.15 206.85H141.4C145.15 206.85 148.45 204.75 150.15 201.7L168.05 169.35C168.4 168.55 168.65 167.7 168.65 166.85C168.65 165.524 168.123 164.252 167.185 163.314C166.248 162.377 164.976 161.85 163.65 161.85H89.6998L84.9998 151.85M98.6498 231.85C93.0998 231.85 88.6498 236.3 88.6498 241.85C88.6498 244.502 89.7033 247.045 91.5787 248.921C93.4541 250.796 95.9976 251.85 98.6498 251.85C101.302 251.85 103.845 250.796 105.721 248.921C107.596 247.045 108.65 244.502 108.65 241.85C108.65 239.198 107.596 236.654 105.721 234.779C103.845 232.903 101.302 231.85 98.6498 231.85Z" fill="#105004"/>
<path d="M124 167L132.66 182H115.34L124 167Z" fill="white"/>
<path d="M124 175L135.258 194.5H112.742L124 175Z" fill="white"/>
<path d="M89.6591 120.318L76.9773 125.398V121.102L85.0568 118.307L84.9205 118.511V118.034L85.0568 118.239L76.9773 115.443V111.148L89.6591 116.227V120.318ZM109.751 114.011L109.104 116.636H97.4105L98.0582 114.011H109.751ZM103.308 127L97.7514 120.523L97.7855 117.932H100.513C101.053 117.932 101.49 117.81 101.825 117.565C102.166 117.321 102.416 117.011 102.575 116.636C102.74 116.261 102.825 115.875 102.831 115.477C102.825 114.864 102.652 114.341 102.311 113.909C101.976 113.477 101.376 113.261 100.513 113.261H97.4105L98.1946 109.545H100.513C102.007 109.545 103.263 109.756 104.28 110.176C105.303 110.591 106.075 111.205 106.598 112.017C107.126 112.824 107.393 113.818 107.399 115C107.393 116.028 107.254 116.903 106.982 117.625C106.709 118.341 106.291 118.952 105.729 119.457C105.166 119.963 104.445 120.415 103.564 120.812L103.376 120.898L108.217 126.83V127H103.308ZM109.786 109.545L109.104 112.239L99.2173 112.273L99.8991 109.545H109.786ZM120.458 109.545V127H115.719V113.909H115.617L111.799 116.193V112.17L116.094 109.545H120.458ZM131.644 127.477C130.059 127.472 128.69 127.105 127.536 126.378C126.383 125.651 125.494 124.602 124.869 123.233C124.244 121.864 123.934 120.222 123.94 118.307C123.945 116.386 124.258 114.756 124.877 113.415C125.502 112.074 126.388 111.054 127.536 110.355C128.69 109.656 130.059 109.307 131.644 109.307C133.229 109.307 134.599 109.659 135.752 110.364C136.906 111.062 137.795 112.082 138.42 113.423C139.045 114.764 139.354 116.392 139.349 118.307C139.349 120.233 139.036 121.881 138.411 123.25C137.786 124.619 136.897 125.668 135.744 126.395C134.596 127.116 133.229 127.477 131.644 127.477ZM131.644 123.625C132.462 123.625 133.133 123.199 133.656 122.347C134.184 121.489 134.445 120.142 134.44 118.307C134.44 117.108 134.32 116.128 134.082 115.366C133.843 114.605 133.513 114.043 133.093 113.679C132.673 113.31 132.19 113.125 131.644 113.125C130.826 113.125 130.158 113.54 129.641 114.369C129.124 115.199 128.86 116.511 128.849 118.307C128.843 119.528 128.96 120.534 129.198 121.324C129.437 122.108 129.766 122.688 130.187 123.062C130.613 123.438 131.099 123.625 131.644 123.625ZM149.175 127.477C147.59 127.472 146.221 127.105 145.067 126.378C143.914 125.651 143.025 124.602 142.4 123.233C141.775 121.864 141.465 120.222 141.471 118.307C141.477 116.386 141.789 114.756 142.408 113.415C143.033 112.074 143.92 111.054 145.067 110.355C146.221 109.656 147.59 109.307 149.175 109.307C150.761 109.307 152.13 109.659 153.283 110.364C154.437 111.062 155.326 112.082 155.951 113.423C156.576 114.764 156.886 116.392 156.88 118.307C156.88 120.233 156.567 121.881 155.942 123.25C155.317 124.619 154.428 125.668 153.275 126.395C152.127 127.116 150.761 127.477 149.175 127.477ZM149.175 123.625C149.994 123.625 150.664 123.199 151.187 122.347C151.715 121.489 151.977 120.142 151.971 118.307C151.971 117.108 151.852 116.128 151.613 115.366C151.374 114.605 151.045 114.043 150.624 113.679C150.204 113.31 149.721 113.125 149.175 113.125C148.357 113.125 147.69 113.54 147.173 114.369C146.656 115.199 146.391 116.511 146.38 118.307C146.374 119.528 146.491 120.534 146.729 121.324C146.968 122.108 147.298 122.688 147.718 123.062C148.144 123.438 148.63 123.625 149.175 123.625ZM166.707 127.477C165.121 127.472 163.752 127.105 162.599 126.378C161.445 125.651 160.556 124.602 159.931 123.233C159.306 121.864 158.996 120.222 159.002 118.307C159.008 116.386 159.32 114.756 159.94 113.415C160.565 112.074 161.451 111.054 162.599 110.355C163.752 109.656 165.121 109.307 166.707 109.307C168.292 109.307 169.661 109.659 170.815 110.364C171.968 111.062 172.857 112.082 173.482 113.423C174.107 114.764 174.417 116.392 174.411 118.307C174.411 120.233 174.099 121.881 173.474 123.25C172.849 124.619 171.96 125.668 170.806 126.395C169.658 127.116 168.292 127.477 166.707 127.477ZM166.707 123.625C167.525 123.625 168.195 123.199 168.718 122.347C169.246 121.489 169.508 120.142 169.502 118.307C169.502 117.108 169.383 116.128 169.144 115.366C168.906 114.605 168.576 114.043 168.156 113.679C167.735 113.31 167.252 113.125 166.707 113.125C165.888 113.125 165.221 113.54 164.704 114.369C164.187 115.199 163.923 116.511 163.911 118.307C163.906 119.528 164.022 120.534 164.261 121.324C164.499 122.108 164.829 122.688 165.249 123.062C165.675 123.438 166.161 123.625 166.707 123.625Z" fill="#407336"/>
</g>
<path d="M73.9639 299V285.255H76.87V290.926H82.7695V285.255H85.669V299H82.7695V293.322H76.87V299H73.9639ZM88.0113 299V288.691H90.8705V299H88.0113ZM89.4476 287.362C89.0226 287.362 88.6579 287.221 88.3536 286.939C88.0538 286.653 87.904 286.311 87.904 285.912C87.904 285.519 88.0538 285.181 88.3536 284.899C88.6579 284.612 89.0226 284.469 89.4476 284.469C89.8727 284.469 90.2351 284.612 90.5349 284.899C90.8392 285.181 90.9913 285.519 90.9913 285.912C90.9913 286.311 90.8392 286.653 90.5349 286.939C90.2351 287.221 89.8727 287.362 89.4476 287.362ZM97.8053 303.081C96.8791 303.081 96.0849 302.953 95.4227 302.698C94.7649 302.448 94.2414 302.105 93.8522 301.671C93.4629 301.237 93.2101 300.75 93.0937 300.208L95.7381 299.852C95.8187 300.058 95.9462 300.251 96.1207 300.43C96.2952 300.609 96.5256 300.752 96.812 300.859C97.1028 300.971 97.4563 301.027 97.8724 301.027C98.4944 301.027 99.0067 300.875 99.4094 300.571C99.8166 300.271 100.02 299.767 100.02 299.06V297.174H99.8993C99.7741 297.461 99.5861 297.731 99.3356 297.987C99.085 298.242 98.7628 298.45 98.3691 298.611C97.9753 298.772 97.5055 298.852 96.9596 298.852C96.1856 298.852 95.4808 298.673 94.8455 298.315C94.2146 297.953 93.7112 297.4 93.3354 296.658C92.964 295.91 92.7783 294.966 92.7783 293.825C92.7783 292.657 92.9685 291.682 93.3488 290.899C93.7291 290.116 94.2347 289.53 94.8656 289.141C95.501 288.751 96.1968 288.557 96.9529 288.557C97.5301 288.557 98.0134 288.655 98.4027 288.852C98.7919 289.044 99.1051 289.286 99.3423 289.577C99.5839 289.863 99.7696 290.145 99.8993 290.423H100.007V288.691H102.846V299.101C102.846 299.978 102.631 300.711 102.201 301.302C101.772 301.893 101.177 302.336 100.416 302.631C99.66 302.931 98.7897 303.081 97.8053 303.081ZM97.8657 296.705C98.3266 296.705 98.7159 296.591 99.0335 296.362C99.3557 296.13 99.6018 295.799 99.7718 295.369C99.9463 294.935 100.034 294.416 100.034 293.812C100.034 293.208 99.9486 292.684 99.7785 292.241C99.6085 291.794 99.3624 291.447 99.0403 291.201C98.7181 290.955 98.3266 290.832 97.8657 290.832C97.3959 290.832 96.9999 290.959 96.6778 291.214C96.3556 291.465 96.1117 291.814 95.9462 292.262C95.7806 292.709 95.6979 293.226 95.6979 293.812C95.6979 294.407 95.7806 294.922 95.9462 295.356C96.1162 295.785 96.3601 296.118 96.6778 296.356C96.9999 296.588 97.3959 296.705 97.8657 296.705ZM107.98 293.04V299H105.121V285.255H107.9V290.51H108.02C108.253 289.901 108.629 289.425 109.148 289.08C109.667 288.731 110.318 288.557 111.101 288.557C111.817 288.557 112.441 288.713 112.974 289.026C113.511 289.335 113.927 289.78 114.222 290.362C114.522 290.939 114.669 291.631 114.665 292.436V299H111.806V292.946C111.81 292.311 111.649 291.816 111.323 291.463C111 291.109 110.548 290.933 109.967 290.933C109.578 290.933 109.233 291.015 108.933 291.181C108.638 291.346 108.405 291.588 108.235 291.906C108.07 292.219 107.985 292.597 107.98 293.04ZM133.974 292.127C133.974 293.626 133.69 294.901 133.122 295.953C132.558 297.004 131.789 297.808 130.813 298.362C129.842 298.913 128.75 299.188 127.538 299.188C126.316 299.188 125.22 298.911 124.249 298.356C123.278 297.801 122.511 296.998 121.947 295.946C121.383 294.895 121.101 293.622 121.101 292.127C121.101 290.628 121.383 289.353 121.947 288.302C122.511 287.25 123.278 286.449 124.249 285.899C125.22 285.344 126.316 285.067 127.538 285.067C128.75 285.067 129.842 285.344 130.813 285.899C131.789 286.449 132.558 287.25 133.122 288.302C133.69 289.353 133.974 290.628 133.974 292.127ZM131.028 292.127C131.028 291.156 130.883 290.337 130.592 289.671C130.305 289.004 129.9 288.499 129.377 288.154C128.853 287.809 128.24 287.637 127.538 287.637C126.835 287.637 126.222 287.809 125.699 288.154C125.175 288.499 124.768 289.004 124.477 289.671C124.191 290.337 124.048 291.156 124.048 292.127C124.048 293.098 124.191 293.917 124.477 294.584C124.768 295.25 125.175 295.756 125.699 296.101C126.222 296.445 126.835 296.617 127.538 296.617C128.24 296.617 128.853 296.445 129.377 296.101C129.9 295.756 130.305 295.25 130.592 294.584C130.883 293.917 131.028 293.098 131.028 292.127ZM136.073 299V288.691H138.845V290.49H138.953C139.141 289.85 139.456 289.367 139.899 289.04C140.342 288.709 140.852 288.543 141.429 288.543C141.573 288.543 141.727 288.552 141.892 288.57C142.058 288.588 142.203 288.613 142.329 288.644V291.181C142.194 291.141 142.009 291.105 141.772 291.074C141.534 291.042 141.317 291.027 141.121 291.027C140.7 291.027 140.324 291.118 139.993 291.302C139.666 291.481 139.407 291.731 139.215 292.053C139.027 292.376 138.933 292.747 138.933 293.168V299H136.073ZM147.126 299.168C146.343 299.168 145.634 298.966 144.998 298.564C144.367 298.157 143.866 297.559 143.495 296.772C143.128 295.98 142.944 295.009 142.944 293.859C142.944 292.678 143.135 291.695 143.515 290.912C143.895 290.125 144.401 289.537 145.032 289.147C145.667 288.754 146.363 288.557 147.119 288.557C147.696 288.557 148.177 288.655 148.562 288.852C148.951 289.044 149.265 289.286 149.502 289.577C149.743 289.863 149.927 290.145 150.052 290.423H150.139V285.255H152.992V299H150.173V297.349H150.052C149.918 297.635 149.728 297.919 149.482 298.201C149.24 298.479 148.925 298.709 148.535 298.893C148.15 299.076 147.681 299.168 147.126 299.168ZM148.032 296.893C148.493 296.893 148.882 296.767 149.2 296.517C149.522 296.262 149.768 295.906 149.938 295.45C150.113 294.993 150.2 294.458 150.2 293.845C150.2 293.232 150.115 292.7 149.945 292.248C149.775 291.796 149.529 291.447 149.206 291.201C148.884 290.955 148.493 290.832 148.032 290.832C147.562 290.832 147.166 290.959 146.844 291.214C146.522 291.47 146.278 291.823 146.112 292.275C145.947 292.727 145.864 293.25 145.864 293.845C145.864 294.445 145.947 294.975 146.112 295.436C146.282 295.893 146.526 296.25 146.844 296.51C147.166 296.765 147.562 296.893 148.032 296.893ZM160.041 299.201C158.98 299.201 158.068 298.987 157.302 298.557C156.542 298.123 155.956 297.51 155.544 296.718C155.132 295.922 154.926 294.98 154.926 293.892C154.926 292.832 155.132 291.901 155.544 291.1C155.956 290.299 156.535 289.675 157.282 289.228C158.034 288.78 158.915 288.557 159.927 288.557C160.607 288.557 161.24 288.666 161.826 288.886C162.417 289.1 162.931 289.425 163.37 289.859C163.813 290.293 164.157 290.839 164.403 291.496C164.649 292.15 164.772 292.915 164.772 293.792V294.577H156.067V292.805H162.081C162.081 292.394 161.992 292.029 161.813 291.711C161.634 291.393 161.385 291.145 161.068 290.966C160.754 290.783 160.39 290.691 159.974 290.691C159.54 290.691 159.155 290.792 158.819 290.993C158.488 291.19 158.229 291.456 158.041 291.792C157.853 292.123 157.757 292.492 157.752 292.899V294.584C157.752 295.094 157.846 295.535 158.034 295.906C158.226 296.277 158.497 296.564 158.846 296.765C159.195 296.966 159.609 297.067 160.088 297.067C160.405 297.067 160.696 297.022 160.96 296.933C161.224 296.843 161.45 296.709 161.638 296.53C161.826 296.351 161.969 296.132 162.068 295.872L164.712 296.047C164.578 296.682 164.303 297.237 163.887 297.711C163.475 298.181 162.942 298.548 162.289 298.812C161.64 299.072 160.891 299.201 160.041 299.201ZM166.638 299V288.691H169.41V290.49H169.518C169.706 289.85 170.021 289.367 170.464 289.04C170.907 288.709 171.417 288.543 171.994 288.543C172.137 288.543 172.292 288.552 172.457 288.57C172.623 288.588 172.768 288.613 172.894 288.644V291.181C172.759 291.141 172.574 291.105 172.336 291.074C172.099 291.042 171.882 291.027 171.685 291.027C171.265 291.027 170.889 291.118 170.558 291.302C170.231 291.481 169.972 291.731 169.779 292.053C169.591 292.376 169.497 292.747 169.497 293.168V299H166.638Z" fill="#105004"/>
<g opacity="0.8">
<rect x="287" y="95" width="180" height="176" rx="19.2" fill="#FF3933" fill-opacity="0.2"/>
<path d="M402.65 231.85C397.1 231.85 392.65 236.3 392.65 241.85C392.65 244.502 393.703 247.045 395.579 248.921C397.454 250.796 399.998 251.85 402.65 251.85C405.302 251.85 407.845 250.796 409.721 248.921C411.596 247.045 412.65 244.502 412.65 241.85C412.65 239.198 411.596 236.654 409.721 234.779C407.845 232.903 405.302 231.85 402.65 231.85ZM322.65 151.85V161.85H332.65L350.65 199.8L343.85 212.05C343.1 213.45 342.65 215.1 342.65 216.85C342.65 219.502 343.703 222.045 345.579 223.921C347.454 225.796 349.998 226.85 352.65 226.85H412.65V216.85H354.75C354.418 216.85 354.1 216.718 353.866 216.484C353.631 216.249 353.5 215.931 353.5 215.6C353.5 215.35 353.55 215.15 353.65 215L358.15 206.85H395.4C399.15 206.85 402.45 204.75 404.15 201.7L422.05 169.35C422.4 168.55 422.65 167.7 422.65 166.85C422.65 165.524 422.123 164.252 421.185 163.314C420.248 162.377 418.976 161.85 417.65 161.85H343.7L339 151.85M352.65 231.85C347.1 231.85 342.65 236.3 342.65 241.85C342.65 244.502 343.703 247.045 345.579 248.921C347.454 250.796 349.998 251.85 352.65 251.85C355.302 251.85 357.845 250.796 359.721 248.921C361.596 247.045 362.65 244.502 362.65 241.85C362.65 239.198 361.596 236.654 359.721 234.779C357.845 232.903 355.302 231.85 352.65 231.85Z" fill="#FF0900"/>
<path d="M376 188L367.34 173H384.66L376 188Z" fill="white"/>
<path d="M376 202L364.742 182.5H387.258L376 202Z" fill="white"/>
<path d="M345.977 118.318V114.227L358.659 109.148V113.443L350.58 116.239L350.716 116.034V116.511L350.58 116.307L358.659 119.102V123.398L345.977 118.318ZM378.751 112.011L378.104 114.636H366.411L367.058 112.011H378.751ZM372.308 125L366.751 118.523L366.786 115.932H369.513C370.053 115.932 370.49 115.81 370.825 115.565C371.166 115.321 371.416 115.011 371.575 114.636C371.74 114.261 371.825 113.875 371.831 113.477C371.825 112.864 371.652 112.341 371.311 111.909C370.976 111.477 370.376 111.261 369.513 111.261H366.411L367.195 107.545H369.513C371.007 107.545 372.263 107.756 373.28 108.176C374.303 108.591 375.075 109.205 375.598 110.017C376.126 110.824 376.393 111.818 376.399 113C376.393 114.028 376.254 114.903 375.982 115.625C375.709 116.341 375.291 116.952 374.729 117.457C374.166 117.963 373.445 118.415 372.564 118.812L372.376 118.898L377.217 124.83V125H372.308ZM378.786 107.545L378.104 110.239L368.217 110.273L368.899 107.545H378.786ZM389.458 107.545V125H384.719V111.909H384.617L380.799 114.193V110.17L385.094 107.545H389.458ZM400.644 125.477C399.059 125.472 397.69 125.105 396.536 124.378C395.383 123.651 394.494 122.602 393.869 121.233C393.244 119.864 392.934 118.222 392.94 116.307C392.945 114.386 393.258 112.756 393.877 111.415C394.502 110.074 395.388 109.054 396.536 108.355C397.69 107.656 399.059 107.307 400.644 107.307C402.229 107.307 403.599 107.659 404.752 108.364C405.906 109.062 406.795 110.082 407.42 111.423C408.045 112.764 408.354 114.392 408.349 116.307C408.349 118.233 408.036 119.881 407.411 121.25C406.786 122.619 405.897 123.668 404.744 124.395C403.596 125.116 402.229 125.477 400.644 125.477ZM400.644 121.625C401.462 121.625 402.133 121.199 402.656 120.347C403.184 119.489 403.445 118.142 403.44 116.307C403.44 115.108 403.32 114.128 403.082 113.366C402.843 112.605 402.513 112.043 402.093 111.679C401.673 111.31 401.19 111.125 400.644 111.125C399.826 111.125 399.158 111.54 398.641 112.369C398.124 113.199 397.86 114.511 397.849 116.307C397.843 117.528 397.96 118.534 398.198 119.324C398.437 120.108 398.766 120.688 399.187 121.062C399.613 121.438 400.099 121.625 400.644 121.625Z" fill="#FF3933"/>
</g>
<path d="M330.4 299V285.255H333.306V296.604H339.199V299H330.4ZM345.728 299.201C344.685 299.201 343.784 298.98 343.023 298.537C342.267 298.089 341.683 297.468 341.271 296.671C340.86 295.87 340.654 294.942 340.654 293.886C340.654 292.821 340.86 291.89 341.271 291.094C341.683 290.293 342.267 289.671 343.023 289.228C343.784 288.78 344.685 288.557 345.728 288.557C346.77 288.557 347.67 288.78 348.426 289.228C349.187 289.671 349.773 290.293 350.184 291.094C350.596 291.89 350.802 292.821 350.802 293.886C350.802 294.942 350.596 295.87 350.184 296.671C349.773 297.468 349.187 298.089 348.426 298.537C347.67 298.98 346.77 299.201 345.728 299.201ZM345.741 296.987C346.216 296.987 346.612 296.852 346.929 296.584C347.247 296.311 347.486 295.939 347.647 295.47C347.813 295 347.896 294.465 347.896 293.866C347.896 293.266 347.813 292.731 347.647 292.262C347.486 291.792 347.247 291.42 346.929 291.147C346.612 290.874 346.216 290.738 345.741 290.738C345.263 290.738 344.86 290.874 344.533 291.147C344.211 291.42 343.967 291.792 343.802 292.262C343.641 292.731 343.56 293.266 343.56 293.866C343.56 294.465 343.641 295 343.802 295.47C343.967 295.939 344.211 296.311 344.533 296.584C344.86 296.852 345.263 296.987 345.741 296.987ZM354.436 299L351.631 288.691H354.524L356.121 295.617H356.215L357.879 288.691H360.718L362.41 295.577H362.497L364.067 288.691H366.954L364.155 299H361.128L359.356 292.517H359.228L357.457 299H354.436ZM385.538 292.127C385.538 293.626 385.254 294.901 384.686 295.953C384.122 297.004 383.352 297.808 382.377 298.362C381.406 298.913 380.314 299.188 379.102 299.188C377.88 299.188 376.784 298.911 375.813 298.356C374.842 297.801 374.075 296.998 373.511 295.946C372.947 294.895 372.665 293.622 372.665 292.127C372.665 290.628 372.947 289.353 373.511 288.302C374.075 287.25 374.842 286.449 375.813 285.899C376.784 285.344 377.88 285.067 379.102 285.067C380.314 285.067 381.406 285.344 382.377 285.899C383.352 286.449 384.122 287.25 384.686 288.302C385.254 289.353 385.538 290.628 385.538 292.127ZM382.592 292.127C382.592 291.156 382.446 290.337 382.155 289.671C381.869 289.004 381.464 288.499 380.941 288.154C380.417 287.809 379.804 287.637 379.102 287.637C378.399 287.637 377.786 287.809 377.263 288.154C376.739 288.499 376.332 289.004 376.041 289.671C375.755 290.337 375.612 291.156 375.612 292.127C375.612 293.098 375.755 293.917 376.041 294.584C376.332 295.25 376.739 295.756 377.263 296.101C377.786 296.445 378.399 296.617 379.102 296.617C379.804 296.617 380.417 296.445 380.941 296.101C381.464 295.756 381.869 295.25 382.155 294.584C382.446 293.917 382.592 293.098 382.592 292.127ZM387.637 299V288.691H390.409V290.49H390.516C390.704 289.85 391.02 289.367 391.463 289.04C391.906 288.709 392.416 288.543 392.993 288.543C393.136 288.543 393.291 288.552 393.456 288.57C393.622 288.588 393.767 288.613 393.892 288.644V291.181C393.758 291.141 393.572 291.105 393.335 291.074C393.098 291.042 392.881 291.027 392.684 291.027C392.264 291.027 391.888 291.118 391.557 291.302C391.23 291.481 390.971 291.731 390.778 292.053C390.59 292.376 390.496 292.747 390.496 293.168V299H387.637ZM398.69 299.168C397.907 299.168 397.197 298.966 396.562 298.564C395.931 298.157 395.43 297.559 395.059 296.772C394.692 295.98 394.508 295.009 394.508 293.859C394.508 292.678 394.698 291.695 395.079 290.912C395.459 290.125 395.965 289.537 396.595 289.147C397.231 288.754 397.927 288.557 398.683 288.557C399.26 288.557 399.741 288.655 400.126 288.852C400.515 289.044 400.828 289.286 401.065 289.577C401.307 289.863 401.491 290.145 401.616 290.423H401.703V285.255H404.556V299H401.737V297.349H401.616C401.482 297.635 401.291 297.919 401.045 298.201C400.804 298.479 400.488 298.709 400.099 298.893C399.714 299.076 399.244 299.168 398.69 299.168ZM399.596 296.893C400.056 296.893 400.446 296.767 400.763 296.517C401.086 296.262 401.332 295.906 401.502 295.45C401.676 294.993 401.763 294.458 401.763 293.845C401.763 293.232 401.678 292.7 401.508 292.248C401.338 291.796 401.092 291.447 400.77 291.201C400.448 290.955 400.056 290.832 399.596 290.832C399.126 290.832 398.73 290.959 398.408 291.214C398.085 291.47 397.842 291.823 397.676 292.275C397.511 292.727 397.428 293.25 397.428 293.845C397.428 294.445 397.511 294.975 397.676 295.436C397.846 295.893 398.09 296.25 398.408 296.51C398.73 296.765 399.126 296.893 399.596 296.893ZM411.604 299.201C410.544 299.201 409.631 298.987 408.866 298.557C408.105 298.123 407.519 297.51 407.108 296.718C406.696 295.922 406.49 294.98 406.49 293.892C406.49 292.832 406.696 291.901 407.108 291.1C407.519 290.299 408.099 289.675 408.846 289.228C409.598 288.78 410.479 288.557 411.49 288.557C412.17 288.557 412.804 288.666 413.39 288.886C413.98 289.1 414.495 289.425 414.933 289.859C415.376 290.293 415.721 290.839 415.967 291.496C416.213 292.15 416.336 292.915 416.336 293.792V294.577H407.631V292.805H413.645C413.645 292.394 413.555 292.029 413.376 291.711C413.197 291.393 412.949 291.145 412.631 290.966C412.318 290.783 411.953 290.691 411.537 290.691C411.103 290.691 410.718 290.792 410.383 290.993C410.052 291.19 409.792 291.456 409.604 291.792C409.416 292.123 409.32 292.492 409.316 292.899V294.584C409.316 295.094 409.41 295.535 409.598 295.906C409.79 296.277 410.061 296.564 410.41 296.765C410.759 296.966 411.173 297.067 411.651 297.067C411.969 297.067 412.26 297.022 412.524 296.933C412.788 296.843 413.014 296.709 413.202 296.53C413.39 296.351 413.533 296.132 413.631 295.872L416.276 296.047C416.141 296.682 415.866 297.237 415.45 297.711C415.039 298.181 414.506 298.548 413.853 298.812C413.204 299.072 412.455 299.201 411.604 299.201ZM418.202 299V288.691H420.974V290.49H421.081C421.269 289.85 421.585 289.367 422.028 289.04C422.471 288.709 422.981 288.543 423.558 288.543C423.701 288.543 423.855 288.552 424.021 288.57C424.187 288.588 424.332 288.613 424.457 288.644V291.181C424.323 291.141 424.137 291.105 423.9 291.074C423.663 291.042 423.446 291.027 423.249 291.027C422.829 291.027 422.453 291.118 422.122 291.302C421.795 291.481 421.535 291.731 421.343 292.053C421.155 292.376 421.061 292.747 421.061 293.168V299H418.202Z" fill="#FF3933"/>
</svg>
